<?xml version="1.0"?>
<svg width="500" height="500" xmlns="http://www.w3.org/2000/svg" xmlns:svg="http://www.w3.org/2000/svg" enable-background="new 0 0 500 500" version="1.1" xml:space="preserve">
 <g class="layer">
  <title>Layer 1</title>
  <g display="none" id="Background_Simple">
   <g display="inline" id="svg_75">
    <path d="m210.08,79.61c-82.41,9.42 -123.55,99.45 -113.82,156.47c13.29,77.93 134.32,100.61 216.94,89.18c87.07,-12.05 124.9,-77.6 101.16,-144.91c-19.33,-54.82 -133.64,-108.81 -204.28,-100.74z" fill="#407BFF" id="svg_76"/>
    <path d="m210.08,79.61c-82.41,9.42 -123.55,99.45 -113.82,156.47c13.29,77.93 134.32,100.61 216.94,89.18c87.07,-12.05 124.9,-77.6 101.16,-144.91c-19.33,-54.82 -133.64,-108.81 -204.28,-100.74z" fill="#FFFFFF" id="svg_77" opacity="0.9"/>
   </g>
  </g>
  <g id="Shadow_1_">
   <ellipse cx="260.83" cy="464.32" fill="#F5F5F5" id="_x3C_Path_x3E__8_" rx="193.89" ry="12.57"/>
  </g>
  <g id="Graphics">
   <g id="svg_78">
    <g id="svg_190">
     <g id="svg_191">
      <ellipse cx="51.39" cy="456.97" fill="#7298ea" id="svg_192" rx="46.93" ry="46.93" transform="matrix(0.1602 -0.9871 0.9871 0.1602 -92.3448 277.623)"/>
      <ellipse cx="51.39" cy="456.97" fill="#7298ea" id="svg_193" opacity="0.7" rx="46.93" ry="46.93" transform="matrix(0.1602 -0.9871 0.9871 0.1602 -92.3448 277.623)">fes</ellipse>
     </g>
    </g>
    <g id="svg_186">
     <g id="svg_187">
      <ellipse cx="176.92" cy="317.82" fill="#7298ea" id="svg_188" rx="46.93" ry="46.93" transform="matrix(0.1602 -0.9871 0.9871 0.1602 -92.3448 277.623)"/>
      <ellipse cx="176.92" cy="317.82" fill="#7298ea" id="svg_189" opacity="0.7" rx="46.93" ry="46.93" transform="matrix(0.1602 -0.9871 0.9871 0.1602 -92.3448 277.623)">fes</ellipse>
     </g>
    </g>
    <g id="svg_182">
     <g id="svg_183">
      <ellipse cx="-17.06" cy="523.51" fill="#407BFF" id="svg_184" rx="46.93" ry="46.93" transform="matrix(0.1602 -0.9871 0.9871 0.1602 -92.3448 277.623)"/>
      <ellipse cx="-17.06" cy="523.51" fill="#FAFAFA" id="svg_185" opacity="0.7" rx="46.93" ry="46.93" transform="matrix(0.1602 -0.9871 0.9871 0.1602 -92.3448 277.623)"/>
     </g>
    </g>
    <g id="svg_174">
     <g id="svg_175">
      <ellipse cx="106.8" cy="384.01" fill="#407BFF" id="svg_176" rx="46.93" ry="46.93" transform="matrix(0.1602 -0.9871 0.9871 0.1602 -92.3448 277.623)"/>
      <ellipse cx="106.8" cy="384.01" fill="#FAFAFA" id="svg_177" opacity="0.7" rx="46.93" ry="46.93" transform="matrix(0.1602 -0.9871 0.9871 0.1602 -92.3448 277.623)"/>
     </g>
    </g>
    <g id="svg_166">
     <g id="svg_167">
      <ellipse cx="89.23" cy="274.38" fill="#407BFF" id="svg_168" rx="46.93" ry="46.93" transform="matrix(0.1602 -0.9871 0.9871 0.1602 -92.3448 277.623)"/>
      <ellipse cx="89.23" cy="274.38" fill="#FAFAFA" id="svg_169" opacity="0.7" rx="46.93" ry="46.93" transform="matrix(0.1602 -0.9871 0.9871 0.1602 -92.3448 277.623)"/>
     </g>
    </g>
    <g id="svg_162">
     <g id="svg_163">
      <ellipse cx="12.7" cy="224.02" fill="#7298ea" id="svg_164" rx="46.93" ry="46.93" transform="matrix(0.1602 -0.9871 0.9871 0.1602 -92.3448 277.623)"/>
      <ellipse cx="12.7" cy="224.02" fill="#7298ea" id="svg_165" opacity="0.7" rx="46.93" ry="46.93" transform="matrix(0.1602 -0.9871 0.9871 0.1602 -92.3448 277.623)">fes</ellipse>
     </g>
    </g>
    <g id="svg_79">
     <g id="svg_80">
      <ellipse cx="-72.92" cy="182.2" fill="#407BFF" id="svg_81" rx="46.93" ry="46.93" transform="matrix(0.1602 -0.9871 0.9871 0.1602 -92.3448 277.623)"/>
      <ellipse cx="-72.92" cy="182.2" fill="#FAFAFA" id="svg_82" opacity="0.7" rx="46.93" ry="46.93" transform="matrix(0.1602 -0.9871 0.9871 0.1602 -92.3448 277.623)"/>
     </g>
    </g>
    <g id="svg_108">
     <path d="m933.52,109.09l-0.77,-0.63c2.28,-2.81 4.28,-5.86 5.95,-9.06l0.89,0.47c-1.71,3.25 -3.75,6.35 -6.07,9.22z" fill="#407BFF" id="svg_109"/>
     <path d="m910.92,125.75l-0.37,-0.93c6.29,-2.51 12.01,-6.14 17,-10.79l0.68,0.73c-5.08,4.74 -10.9,8.43 -17.31,10.99z" fill="#407BFF" id="svg_110"/>
    </g>
    <g id="svg_161" transform="rotate(-0.710206 246.849 267.25)">
     <path d="m302.3,317.17c-2.76,0 -5,-2.24 -5,-5c0,-2.76 2.24,-5 5,-5c23.12,0 41.93,-18.81 41.93,-41.93c0,-23.12 -18.81,-41.92 -41.93,-41.92s-41.92,18.8 -41.92,41.92c0,28.63 -23.3,51.93 -51.94,51.93c-28.63,0 -51.92,-23.29 -51.92,-51.93c0,0 0,0 0,0c0,-23.12 -18.81,-41.92 -41.93,-41.92c-23.12,0 -41.93,18.8 -41.93,41.92c0,28.63 -23.29,51.93 -51.93,51.93c-28.63,0 -51.93,-23.3 -51.93,-51.93s23.3,-51.93 51.93,-51.93c2.76,0 5,2.24 5,5c0,2.76 -2.24,5 -5,5c-23.12,0 -41.93,18.81 -41.93,41.93s18.81,41.93 41.93,41.93c23.12,0 41.93,-18.81 41.93,-41.93c0,-28.63 23.3,-51.92 51.93,-51.92c28.63,0 51.92,23.29 51.93,51.92c0,0 0,0 0,0c0,23.12 18.81,41.93 41.92,41.93c23.13,0 41.94,-18.81 41.94,-41.93c0,-28.63 23.29,-51.92 51.92,-51.92s51.93,23.29 51.93,51.92c0,28.64 -23.29,51.93 -51.93,51.93z" fill="#407BFF" id="svg_107" transform="rotate(-50.8735 161.515 265.242)"/>
     <path d="m554.51,309.86c-2.73,0 -4.95,2.32 -4.95,5.18c0,2.86 2.22,5.18 4.95,5.18c22.9,0 41.54,19.47 41.54,43.4c0,23.93 -18.63,43.39 -41.54,43.39s-41.53,-19.46 -41.53,-43.39c0,-29.63 -23.08,-53.75 -51.46,-53.75c-28.36,0 -51.44,24.11 -51.44,53.75c0,0 0,0 0,0c0,23.93 -18.63,43.39 -41.54,43.39c-22.9,0 -41.54,-19.46 -41.54,-43.39c0,-29.63 -23.07,-53.75 -51.45,-53.75c-28.36,0 -51.45,24.12 -51.45,53.75s23.08,53.75 51.45,53.75c2.73,0 4.95,-2.32 4.95,-5.18c0,-2.86 -2.22,-5.18 -4.95,-5.18c-22.9,0 -41.54,-19.47 -41.54,-43.4s18.63,-43.4 41.54,-43.4c22.9,0 41.54,19.47 41.54,43.4c0,29.63 23.08,53.74 51.45,53.74c28.36,0 51.44,-24.11 51.45,-53.74c0,0 0,0 0,0c0,-23.93 18.63,-43.4 41.53,-43.4c22.91,0 41.55,19.47 41.55,43.4c0,29.63 23.07,53.74 51.44,53.74s51.45,-24.11 51.45,-53.74c0,-29.64 -23.07,-53.75 -51.45,-53.75z" fill="#407BFF" id="svg_160" transform="rotate(-3.04197 335.596 267.25) matrix(-0.563141 -0.826361 0.826361 -0.563141 268.848 814.984)"/>
    </g>
    <text fill="#ffffff" font-family="Helvetica" font-size="38" font-weight="bold" id="svg_194" stroke-width="0" text-anchor="middle" transform="matrix(1.43666 0 0 1.37408 -26.3558 -146.257)" x="70.48" xml:space="preserve" y="393.28">A</text>
    <text fill="#ffffff" font-family="Helvetica" font-size="38" font-weight="bold" id="svg_195" stroke-width="0" text-anchor="middle" transform="matrix(1.43666 0 0 1.37408 -26.3558 -146.257)" x="152" xml:space="preserve" y="285.59">A</text>
    <text fill="#ffffff" font-family="Helvetica" font-size="38" font-weight="bold" id="svg_196" stroke-width="0" text-anchor="middle" transform="matrix(1.43666 0 0 1.37408 -26.3558 -146.257)" x="273.85" xml:space="preserve" y="336.65">A</text>
    <text fill="#ffffff" font-family="Helvetica" font-size="38" font-weight="bold" id="svg_197" stroke-width="0" text-anchor="middle" transform="matrix(1.43666 0 0 1.37408 -26.3558 -146.257)" x="312.78" xml:space="preserve" y="393.94">M</text>
    <text fill="#ffffff" font-family="Helvetica" font-size="38" font-weight="bold" id="svg_198" stroke-width="0" text-anchor="middle" transform="matrix(1.43666 0 0 1.37408 -26.3558 -146.257)" x="192.05" xml:space="preserve" y="231.1">G</text>
    <text fill="#ffffff" font-family="Helvetica" font-size="38" font-weight="bold" id="svg_199" stroke-width="0" text-anchor="middle" transform="matrix(1.43666 0 0 1.37408 -26.3558 -146.257)" x="230.45" xml:space="preserve" y="285.55">R</text>
    <text fill="#ffffff" font-family="Helvetica" font-size="38" font-weight="bold" id="svg_200" stroke-width="0" text-anchor="middle" transform="matrix(1.43666 0 0 1.37408 -26.3558 -146.257)" x="109.68" xml:space="preserve" y="338.26">N</text>
   </g>
  </g>
 </g>
</svg>