<?xml version="1.0"?>
<svg width="500" height="500" xmlns="http://www.w3.org/2000/svg" xmlns:svg="http://www.w3.org/2000/svg" enable-background="new 0 0 500 500" version="1.1" xml:space="preserve">
 <g class="layer">
  <title>Layer 1</title>
  <g display="none" id="Background_Simple">
   <g display="inline" id="svg_75">
    <path d="m739.08,45.61c-82.41,9.42 -123.55,99.45 -113.82,156.47c13.29,77.93 134.32,100.61 216.94,89.18c87.07,-12.05 124.9,-77.6 101.16,-144.91c-19.33,-54.82 -133.64,-108.81 -204.28,-100.74z" fill="#407BFF" id="svg_76"/>
    <path d="m739.08,45.61c-82.41,9.42 -123.55,99.45 -113.82,156.47c13.29,77.93 134.32,100.61 216.94,89.18c87.07,-12.05 124.9,-77.6 101.16,-144.91c-19.33,-54.82 -133.64,-108.81 -204.28,-100.74z" fill="#FFFFFF" id="svg_77" opacity="0.9"/>
   </g>
  </g>
  <g id="Shadow_1_" transform="matrix(1 0 0 1 0 0)">
   <ellipse cx="562.33" cy="595.32" fill="#F5F5F5" id="_x3C_Path_x3E__8_" rx="193.89" ry="12.57"/>
  </g>
  <g id="Graphics">
   <g id="svg_78">
    <g id="svg_183" transform="rotate(26.0789 405.032 120.967)">
     <ellipse cx="234.31" cy="465.85" fill="#407BFF" id="svg_184" rx="46.93" ry="46.93" transform="matrix(0.1602 -0.9871 0.9871 0.1602 -92.3448 277.623)"/>
     <ellipse cx="234.31" cy="465.85" fill="#FAFAFA" id="svg_185" opacity="0.7" rx="46.93" ry="46.93" transform="matrix(0.1602 -0.9871 0.9871 0.1602 -92.3448 277.623)"/>
    </g>
    <g id="svg_4">
     <g id="svg_79">
      <g id="svg_80">
       <ellipse cx="227.6" cy="345.41" fill="#407BFF" id="svg_81" rx="46.93" ry="46.93" transform="matrix(0.1602 -0.9871 0.9871 0.1602 -92.3448 277.623)"/>
       <ellipse cx="227.6" cy="345.41" fill="#FAFAFA" id="svg_82" opacity="0.7" rx="46.93" ry="46.93" transform="matrix(0.1602 -0.9871 0.9871 0.1602 -92.3448 277.623)"/>
      </g>
     </g>
     <text fill="#ffffff" font-family="Helvetica" font-size="38" font-weight="bold" id="svg_194" stroke-width="0" text-anchor="middle" transform="matrix(1.43666 0 0 1.37408 -26.3558 -146.257)" x="217.52" xml:space="preserve" y="197.15">A</text>
    </g>
    <g id="svg_1">
     <g id="svg_3">
      <g id="svg_186">
       <g id="svg_187">
        <ellipse cx="137.1" cy="181.69" fill="#7298ea" id="svg_188" rx="46.93" ry="46.93" transform="matrix(0.1602 -0.9871 0.9871 0.1602 -92.3448 277.623)"/>
        <ellipse cx="137.1" cy="181.69" fill="#7298ea" id="svg_189" opacity="0.7" rx="46.93" ry="46.93" transform="matrix(0.1602 -0.9871 0.9871 0.1602 -92.3448 277.623)">fes</ellipse>
       </g>
      </g>
      <text fill="#ffffff" font-family="Helvetica" font-size="38" font-weight="bold" id="svg_198" stroke-width="0" text-anchor="middle" transform="matrix(1.43666 0 0 1.37408 -26.3558 -146.257)" x="93.38" xml:space="preserve" y="245.29">G</text>
     </g>
    </g>
    <g id="svg_108">
     <path d="m1447.77,57.59l-0.77,-0.63c2.28,-2.81 4.28,-5.86 5.95,-9.06l0.89,0.47c-1.71,3.25 -3.75,6.35 -6.07,9.22z" fill="#407BFF" id="svg_109"/>
     <path d="m1425.17,74.25l-0.37,-0.93c6.29,-2.51 12.01,-6.14 17,-10.79l0.68,0.73c-5.08,4.74 -10.9,8.43 -17.31,10.99z" fill="#407BFF" id="svg_110"/>
    </g>
    <g id="svg_161">
     <path d="m381.53,174.73c-2.76,0 -5,-2.24 -5,-5c0,-2.76 2.24,-5 5,-5c23.12,0 41.93,-18.81 41.93,-41.93c0,-23.12 -18.81,-41.92 -41.93,-41.92s-41.92,18.8 -41.92,41.92c0,28.63 -23.3,51.93 -51.94,51.93c-28.63,0 -51.92,-23.29 -51.92,-51.93c0,0 0,0 0,0c0,-23.12 -18.81,-41.92 -41.93,-41.92c-23.12,0 -41.93,18.8 -41.93,41.92c0,28.63 -23.29,51.93 -51.93,51.93c-28.63,0 -51.93,-23.3 -51.93,-51.93s23.3,-51.93 51.93,-51.93c2.76,0 5,2.24 5,5c0,2.76 -2.24,5 -5,5c-23.12,0 -41.93,18.81 -41.93,41.93s18.81,41.93 41.93,41.93c23.12,0 41.93,-18.81 41.93,-41.93c0,-28.63 23.3,-51.92 51.93,-51.92c28.63,0 51.92,23.29 51.93,51.92c0,0 0,0 0,0c0,23.12 18.81,41.93 41.92,41.93c23.13,0 41.94,-18.81 41.94,-41.93c0,-28.63 23.29,-51.92 51.92,-51.92s51.93,23.29 51.93,51.92c0,28.64 -23.29,51.93 -51.93,51.93z" fill="#407BFF" id="svg_107" transform="rotate(-20.4444 240.746 122.8)"/>
    </g>
    <g id="svg_2" transform="rotate(18.2831 198.071 221.219)">
     <g id="svg_174">
      <g id="svg_175">
       <ellipse cx="102.2" cy="277.62" fill="#407BFF" id="svg_176" rx="46.93" ry="46.93" transform="matrix(0.1602 -0.9871 0.9871 0.1602 -92.3448 277.623)"/>
       <ellipse cx="102.2" cy="277.62" fill="#FAFAFA" id="svg_177" opacity="0.7" rx="46.93" ry="46.93" transform="matrix(0.1602 -0.9871 0.9871 0.1602 -92.3448 277.623)"/>
      </g>
     </g>
     <text fill="#ffffff" font-family="Helvetica" font-size="38" font-weight="bold" id="svg_199" stroke-width="0" text-anchor="middle" transform="matrix(1.43666 0 0 1.37408 -25.3558 -145.257)" x="157.54" xml:space="preserve" y="279.36">R</text>
    </g>
    <text fill="#ffffff" font-family="Helvetica" font-size="38" font-weight="bold" id="svg_197" stroke-width="0" text-anchor="middle" transform="rotate(26.0789 403.543 119.978) matrix(1.43666 0 0 1.37408 -26.3558 -146.257)" x="299.24" xml:space="preserve" y="206.92">M</text>
    <g id="svg_14" transform="matrix(1 0 0 1 0 0) rotate(24.566 371.761 355.578)">
     <g id="svg_162">
      <g id="svg_163">
       <ellipse cx="-2.6" cy="470.59" fill="#7298ea" id="svg_164" rx="46.93" ry="46.93" transform="matrix(0.1602 -0.9871 0.9871 0.1602 -92.3448 277.623)"/>
       <ellipse cx="-2.6" cy="470.59" fill="#7298ea" id="svg_165" opacity="0.7" rx="46.93" ry="46.93" transform="matrix(0.1602 -0.9871 0.9871 0.1602 -92.3448 277.623)">fes</ellipse>
      </g>
     </g>
     <text fill="#ffffff" font-family="Helvetica" font-size="38" font-weight="bold" id="svg_200" stroke-width="0" text-anchor="middle" transform="matrix(1.43666 0 0 1.37408 -26.3558 -146.257)" x="277.39" xml:space="preserve" y="378">N</text>
    </g>
    <g id="svg_15" transform="matrix(0.940315 -0.340305 0.340305 0.940315 -112.969 68.5914)">
     <g id="svg_16">
      <g id="svg_17">
       <ellipse cx="-98.2" cy="241.54" fill="#407BFF" id="svg_18" rx="46.93" ry="46.93" transform="matrix(0.1602 -0.9871 0.9871 0.1602 -92.3448 277.623)"/>
       <ellipse cx="-98.2" cy="241.54" fill="#FAFAFA" id="svg_19" opacity="0.7" rx="46.93" ry="46.93" transform="matrix(0.1602 -0.9871 0.9871 0.1602 -92.3448 277.623)"/>
      </g>
     </g>
     <text fill="#ffffff" font-family="Helvetica" font-size="38" font-weight="bold" id="svg_20" stroke-width="0" text-anchor="middle" transform="matrix(1.43666 0 0 1.37408 -26.3558 -146.257)" x="109.83" xml:space="preserve" y="419.09">A</text>
    </g>
    <g id="svg_21" transform="matrix(1 0 0 1 0 0) matrix(0.928758 0.370686 -0.370686 0.928758 165.064 -40.3332)">
     <g id="svg_190">
      <g id="svg_191">
       <ellipse cx="-51.72" cy="309.48" fill="#7298ea" id="svg_192" rx="46.93" ry="46.93" transform="matrix(0.1602 -0.9871 0.9871 0.1602 -92.3448 277.623)"/>
       <ellipse cx="-51.72" cy="309.48" fill="#7298ea" id="svg_193" opacity="0.7" rx="46.93" ry="46.93" transform="matrix(0.1602 -0.9871 0.9871 0.1602 -92.3448 277.623)">fes</ellipse>
      </g>
     </g>
     <text fill="#ffffff" font-family="Helvetica" font-size="38" font-weight="bold" id="svg_196" stroke-width="0" text-anchor="middle" transform="matrix(1.43666 0 0 1.37408 -26.3558 -146.257)" x="161.42" xml:space="preserve" y="393.53">A</text>
    </g>
   </g>
  </g>
 </g>
</svg>