<?xml version="1.0"?>
<svg width="500" height="500" xmlns="http://www.w3.org/2000/svg" xmlns:svg="http://www.w3.org/2000/svg" enable-background="new 0 0 500 500" version="1.1" xml:space="preserve">
 <g class="layer">
  <title>Layer 1</title>
  <g id="svg_1">
   <g display="none" id="Background_simple">
    <g display="inline" id="svg_228">
     <path d="m184.11,88.66c-19.29,2.55 -37.87,7.98 -54.37,16.49c-19.43,10.04 -39.29,25.67 -33.42,46.11c10.83,37.75 62.77,38.44 52.4,63.82c-11.75,28.75 -3.87,62.47 48.85,71.85c100.12,17.81 221.16,-86.4 187.16,-143.67c-21.16,-35.65 -98.24,-68.12 -200.62,-54.59z" fill="#407BFF" id="svg_229"/>
     <path d="m184.11,88.66c-19.29,2.55 -37.87,7.98 -54.37,16.49c-19.43,10.04 -39.29,25.67 -33.42,46.11c10.83,37.75 62.77,38.44 52.4,63.82c-11.75,28.75 -3.87,62.47 48.85,71.85c100.12,17.81 221.16,-86.4 187.16,-143.67c-21.16,-35.65 -98.24,-68.12 -200.62,-54.59z" fill="#FFFFFF" id="svg_230" opacity="0.9"/>
    </g>
   </g>
   <g id="Speech_Bubble" transform="matrix(0.89256 -0.0527325 0.052648 0.893994 43.6357 61.2309)">
    <g id="svg_309">
     <g id="svg_310" transform="rotate(-12.278 105.151 178.939)">
      <path d="m161.31,154.65c15.04,-9.35 20.4,-36.42 12.99,-55.77c-7.45,-19.32 -25.01,-30.01 -41.65,-28.96c-16.64,1.08 -32.17,12.41 -44.04,27.54c-11.9,-18.96 -35.91,-22.41 -50.74,-7.27c-14.56,14.85 -12.13,45.34 -1.19,64.84c-12.81,8.13 -21.33,27.96 -18.2,46.29c3.85,22.59 24.49,37.56 41.36,30.01c-0.03,29.26 20.13,56.01 42.69,56.66c22.53,0.62 43.58,-24.97 44.53,-54.19c17.2,10.35 40.38,-4.29 44.7,-28.23c4.32,-23.93 -11.46,-50.36 -30.42,-50.96l-0.03,0.03l0.01,0l-0.01,0.01z" fill="#407BFF" id="svg_311"/>
     </g>
     <path d="m195.3,255.12c0,6.84 -4.29,12.41 -9.6,12.41c-5.28,0 -9.57,-5.53 -9.57,-12.41c0,-6.84 4.29,-12.41 9.57,-12.41c5.3,0 9.6,5.57 9.6,12.41z" fill="#407BFF" id="svg_312" transform="rotate(-12.278 185.719 255.122)"/>
     <g id="svg_313" opacity="0.8" transform="rotate(-12.278 105.151 178.939)">
      <path d="m161.31,154.65c15.04,-9.35 20.4,-36.42 12.99,-55.77c-7.45,-19.32 -25.01,-30.01 -41.65,-28.96c-16.64,1.08 -32.17,12.41 -44.04,27.54c-11.9,-18.96 -35.91,-22.41 -50.74,-7.27c-14.56,14.85 -12.13,45.34 -1.19,64.84c-12.81,8.13 -21.33,27.96 -18.2,46.29c3.85,22.59 24.49,37.56 41.36,30.01c-0.03,29.26 20.13,56.01 42.69,56.66c22.53,0.62 43.58,-24.97 44.53,-54.19c17.2,10.35 40.38,-4.29 44.7,-28.23c4.32,-23.93 -11.46,-50.36 -30.42,-50.96l-0.03,0.03l0.01,0l-0.01,0.01z" fill="#FFFFFF" id="svg_314"/>
     </g>
     <path d="m195.3,255.12c0,6.84 -4.29,12.41 -9.6,12.41c-5.28,0 -9.57,-5.53 -9.57,-12.41c0,-6.84 4.29,-12.41 9.57,-12.41c5.3,0 9.6,5.57 9.6,12.41z" fill="#FFFFFF" id="svg_315" opacity="0.8" transform="rotate(-12.278 185.719 255.122)"/>
     <g id="svg_316" transform="rotate(0.077324 98.254 165.6)">
      <path d="m95.4,169.15c1.66,-2.86 4.07,-6.01 7.27,-9.42c2.36,-2.52 4.06,-4.64 5.17,-6.36c1.1,-1.7 1.65,-3.67 1.65,-5.84c0,-3.1 -1.03,-5.55 -3.14,-7.36s-4.88,-2.69 -8.37,-2.69c-3.33,0 -6.3,0.82 -8.88,2.45c-2.58,1.62 -4.76,3.91 -6.53,6.84l-12.88,-8.91c2.99,-5.38 6.98,-9.5 12.07,-12.46c5.05,-2.93 11.06,-4.39 18.03,-4.39c8.18,0 14.72,2.05 19.63,6.15c4.91,4.1 7.38,9.78 7.38,17.1c0,3.41 -0.45,6.43 -1.44,9.03c-0.96,2.57 -2.13,4.8 -3.5,6.6c-1.37,1.8 -3.16,3.87 -5.38,6.21c-2.62,2.76 -4.54,5.08 -5.72,6.97c-1.21,1.91 -1.81,4.19 -1.81,6.84l-16.08,0c0,-4.33 0.84,-7.95 2.51,-10.77l0,0.02l0.01,0l0.01,-0.01zm-1.73,38.06c-1.93,-2 -2.91,-4.41 -2.91,-7.28c0,-2.83 0.96,-5.22 2.85,-7.14c1.93,-1.91 4.36,-2.86 7.35,-2.86c2.96,0 5.39,0.94 7.33,2.86c1.93,1.91 2.87,4.31 2.87,7.14c0,2.86 -0.97,5.28 -2.92,7.28c-1.95,1.97 -4.36,2.98 -7.27,2.98c-2.91,0 -5.34,-1 -7.3,-2.98z" fill="#407BFF" id="svg_317"/>
     </g>
    </g>
   </g>
   <g id="svg_431">
    <g id="svg_432">
     <g id="svg_433"/>
     <g id="svg_437">
      <path d="m245.74,431.87c-0.63,-0.39 -172.13,0.86 -172.57,-0.17c-33.48,-61.96 -40.88,-37.65 1.14,-93.99c1.27,0 171.36,-1.87 172.13,0.57c-0.72,0.95 1.33,94.05 -0.71,93.58l0.01,0z" fill="#407BFF" id="svg_438"/>
      <path d="m245.74,431.87c-0.63,-0.39 -172.13,0.86 -172.57,-0.17c-33.48,-61.96 -40.88,-37.65 1.14,-93.99c1.27,0 171.36,-1.87 172.13,0.57c-0.72,0.95 1.33,94.05 -0.71,93.58l0.01,0z" id="svg_439" opacity="0.3"/>
      <path d="m245.74,425c-0.66,-0.4 -170.96,0.72 -171.42,-0.35c0,0 -28.75,-47.63 -28.75,-47.63c-1.12,-1.52 28.72,-47.67 28.75,-48.82c1.2,-0.05 171.45,-1.91 172.13,0.57c-0.66,0.93 1.3,96.69 -0.71,96.22z" fill="#407BFF" id="svg_440"/>
      <g id="svg_441">
       <g id="svg_442">
        <path d="m235.84,338.89c-0.04,4.81 4.82,4.81 4.77,0c0.04,-4.81 -4.82,-4.81 -4.77,0z" fill="#263238" id="svg_443"/>
        <path d="m235.84,338.89c-0.04,4.81 4.82,4.81 4.77,0c0.04,-4.81 -4.82,-4.81 -4.77,0z" enable-background="new" fill="#FFFFFF" id="svg_444" opacity="0.5"/>
       </g>
       <g id="svg_445">
        <path d="m235.84,412.21c-0.04,4.81 4.82,4.81 4.77,0c0.04,-4.81 -4.82,-4.81 -4.77,0z" fill="#263238" id="svg_446"/>
        <path d="m235.84,412.21c-0.04,4.81 4.82,4.81 4.77,0c0.04,-4.81 -4.82,-4.81 -4.77,0z" enable-background="new" fill="#FFFFFF" id="svg_447" opacity="0.5"/>
       </g>
      </g>
      <g id="svg_448">
       <g id="svg_449">
        <path d="m76.02,338.89c-0.04,4.81 4.82,4.81 4.77,0c0.04,-4.81 -4.82,-4.81 -4.77,0z" fill="#263238" id="svg_450"/>
        <path d="m76.02,338.89c-0.04,4.81 4.82,4.81 4.77,0c0.04,-4.81 -4.82,-4.81 -4.77,0z" enable-background="new" fill="#FFFFFF" id="svg_451" opacity="0.5"/>
       </g>
       <g id="svg_452">
        <path d="m76.02,412.21c-0.04,4.81 4.82,4.81 4.77,0c0.04,-4.81 -4.82,-4.81 -4.77,0z" fill="#263238" id="svg_453"/>
        <path d="m76.02,412.21c-0.04,4.81 4.82,4.81 4.77,0c0.04,-4.81 -4.82,-4.81 -4.77,0z" enable-background="new" fill="#FFFFFF" id="svg_454" opacity="0.5"/>
       </g>
      </g>
     </g>
     <g id="svg_455">
      <path d="m99.31,371.39l0,5.86l11.26,0l0,8.69l-11.26,0l0,10.93l-9.1,0l0,-34.14l21.94,0l0,8.69l-12.85,0l0.01,-0.01l0,-0.01z" fill="#FFFFFF" id="svg_456"/>
      <path d="m134.11,390.89l-10.26,0l-1.82,5.95l-9.25,0l11.81,-34.14l8.92,0l11.81,34.14l-9.42,0l-1.81,-5.95l0.01,0zm-2.49,-8.28l-2.63,-8.59l-2.62,8.59l5.25,0z" fill="#FFFFFF" id="svg_457"/>
      <path d="m149.43,362.71l9.1,0l0,25.22l12.2,0l0,8.92l-21.28,0l0,-34.14l-0.01,0l-0.01,0z" fill="#FFFFFF" id="svg_458"/>
      <path d="m173.84,394.13l2.92,-8.39c2.54,1.91 5.94,3.12 8.91,3.12c2.58,0 3.5,-0.66 3.5,-1.85c0,-4.28 -14.93,-0.83 -14.93,-13.56c0,-6.33 4.22,-11.52 12.59,-11.52c3.64,0 7.38,0.98 10.17,2.97l-2.73,8.36c-2.66,-1.71 -5.17,-2.55 -7.53,-2.55c-2.65,0 -3.51,0.98 -3.51,2.17c0,4.09 14.93,0.66 14.93,13.25c0,6.26 -4.19,11.52 -12.59,11.52c-4.51,0 -9.06,-1.4 -11.76,-3.49l-0.01,-0.01l0.01,0l0.01,0z" fill="#FFFFFF" id="svg_459"/>
      <path d="m224.32,388.16l0,8.69l-22.46,0l0,-34.14l21.94,0l0,8.69l-12.99,0l0,4l11.42,0l0,8.3l-11.42,0l0,4.48l13.51,0l0,-0.01l0,-0.01z" fill="#FFFFFF" id="svg_460"/>
     </g>
     <path d="m153.28,320.1c23.27,0 46.54,0 69.81,0" fill="none" id="svg_464" stroke="#407BFF" stroke-linecap="round" stroke-linejoin="round" stroke-miterlimit="10"/>
    </g>
   </g>
   <g id="svg_397">
    <g id="svg_398">
     <g id="svg_403">
      <path d="m242.08,240.42l175.13,0.17c0.21,0 0.42,-0.13 0.56,-0.36l28.1,-49.34c0.21,-0.36 0.3,-9.26 0.1,-9.61l-29.35,-40.76c-0.13,-0.22 -0.35,-0.36 -0.56,-0.36l-173.98,0c-0.4,0 -0.74,0.43 -0.74,0.96l0,98.29c0,0.56 0.32,0.99 0.74,0.99l0,0.01l0,0.01z" fill="#407BFF" id="svg_404"/>
      <path d="m242.08,240.42l175.13,0.17c0.21,0 0.42,-0.13 0.56,-0.36l28.1,-49.34c0.21,-0.36 0.3,-9.26 0.1,-9.61l-29.35,-40.76c-0.13,-0.22 -0.35,-0.36 -0.56,-0.36l-173.98,0c-0.4,0 -0.74,0.43 -0.74,0.96l0,98.29c0,0.56 0.32,0.99 0.74,0.99l0,0.01l0,0.01z" id="svg_405" opacity="0.3"/>
      <path d="m242.08,233.13l173.98,0c0.21,0 0.42,-0.15 0.56,-0.38l29.26,-50.52c0.21,-0.38 0.21,-0.9 0,-1.26l-29.26,-50.52c-0.13,-0.25 -0.35,-0.38 -0.56,-0.38l-173.98,0c-0.4,0 -0.74,0.46 -0.74,0.99l0,101.06c0,0.56 0.32,1 0.74,1z" fill="#407BFF" id="svg_406"/>
      <g id="svg_407">
       <g id="svg_408">
        <path d="m252.15,141.78c0,2.18 -1.09,3.93 -2.44,3.93s-2.44,-1.76 -2.44,-3.93s1.09,-3.93 2.44,-3.93s2.44,1.76 2.44,3.93z" fill="#263238" id="svg_409"/>
        <path d="m252.15,141.78c0,2.18 -1.09,3.93 -2.44,3.93s-2.44,-1.76 -2.44,-3.93s1.09,-3.93 2.44,-3.93s2.44,1.76 2.44,3.93z" enable-background="new" fill="#FFFFFF" id="svg_410" opacity="0.5"/>
       </g>
       <g id="svg_411">
        <path d="m252.15,219.56c0,2.18 -1.09,3.93 -2.44,3.93s-2.44,-1.76 -2.44,-3.93s1.09,-3.93 2.44,-3.93s2.44,1.76 2.44,3.93z" fill="#263238" id="svg_412"/>
        <path d="m252.15,219.56c0,2.18 -1.09,3.93 -2.44,3.93s-2.44,-1.76 -2.44,-3.93s1.09,-3.93 2.44,-3.93s2.44,1.76 2.44,3.93z" enable-background="new" fill="#FFFFFF" id="svg_413" opacity="0.5"/>
       </g>
      </g>
      <g id="svg_414">
       <g id="svg_415">
        <path d="m414.88,141.78c0,2.18 -1.09,3.93 -2.44,3.93c-1.35,0 -2.44,-1.76 -2.44,-3.93s1.09,-3.93 2.44,-3.93c1.35,0 2.44,1.76 2.44,3.93z" fill="#263238" id="svg_416"/>
        <path d="m414.88,141.78c0,2.18 -1.09,3.93 -2.44,3.93c-1.35,0 -2.44,-1.76 -2.44,-3.93s1.09,-3.93 2.44,-3.93c1.35,0 2.44,1.76 2.44,3.93z" enable-background="new" fill="#FFFFFF" id="svg_417" opacity="0.5"/>
       </g>
       <g id="svg_418">
        <path d="m414.88,219.56c0,2.18 -1.09,3.93 -2.44,3.93c-1.35,0 -2.44,-1.76 -2.44,-3.93s1.09,-3.93 2.44,-3.93c1.35,0 2.44,1.76 2.44,3.93z" fill="#263238" id="svg_419"/>
        <path d="m414.88,219.56c0,2.18 -1.09,3.93 -2.44,3.93c-1.35,0 -2.44,-1.76 -2.44,-3.93s1.09,-3.93 2.44,-3.93c1.35,0 2.44,1.76 2.44,3.93z" enable-background="new" fill="#FFFFFF" id="svg_420" opacity="0.5"/>
       </g>
      </g>
      <g id="svg_421">
       <path d="m282.22,175.78l-8.77,0l0,-9.46l27.68,0l0,9.46l-8.78,0l0,26.78l-10.11,0l0,-26.78l-0.01,0l-0.01,0z" fill="#FFFFFF" id="svg_422"/>
       <path d="m319.21,193.45l-2.74,0l0,9.12l-10.11,0l0,-36.23l14.44,0c8.35,0 13.68,5.27 13.68,13.66c0,5.22 -2.07,9.15 -5.65,11.4l6.29,11.18l-10.8,0l-5.09,-9.12l-0.01,0l-0.01,0zm0.96,-17.71l-3.69,0l0,8.47l3.69,0c2.77,0 4.12,-1.59 4.12,-4.24s-1.34,-4.24 -4.12,-4.24z" fill="#FFFFFF" id="svg_423"/>
       <path d="m339.36,186.24l0,-19.91l10.11,0l0,19.56c0,5.55 1.74,7.62 4.59,7.62c2.82,0 4.58,-2.07 4.58,-7.62l0,-19.56l9.94,0l0,19.91c0,10.87 -5.4,17.13 -14.6,17.13c-9.22,0 -14.62,-6.26 -14.62,-17.13z" fill="#FFFFFF" id="svg_424"/>
       <path d="m399.11,193.35l0,9.21l-24.92,0l0,-36.23l24.38,0l0,9.21l-14.44,0l0,4.24l12.68,0l0,8.81l-12.68,0l0,4.75l14.98,0l0,0.02l0,0.01z" fill="#FFFFFF" id="svg_425"/>
      </g>
     </g>
     <path d="m249.26,260.21c18.2,0 36.38,0 54.57,0" fill="none" id="svg_430" stroke="#407BFF" stroke-linecap="round" stroke-linejoin="round" stroke-miterlimit="10"/>
    </g>
   </g>
   <g id="svg_510" transform="matrix(0.71106 0.54293 -0.542059 0.712203 323.195 -79.8529)">
    <rect fill="#EBEBEB" height="8.31" id="svg_511" transform="matrix(1.72718 -0.424013 0.442378 1.66408 -370.902 -228.062)" width="8.31" x="286.82" y="389.44"/>
    <ellipse cx="-35.14" cy="369.82" fill="#E0E0E0" id="svg_512" rx="45.81" ry="45.81" transform="matrix(0.0263362 -1.71708 1.78278 0.0275015 -331.844 311.022)"/>
    <ellipse cx="174.31" cy="467.56" fill="#F0F0F0" id="svg_513" rx="39.88" ry="39.88" transform="matrix(1.34316 -1.12766 1.17246 1.29509 -455.84 -27.4183)"/>
    <rect fill="#E0E0E0" height="9.37" id="svg_514" transform="matrix(1.72718 -0.424013 0.442378 1.66408 -368.108 -229.019)" width="14.97" x="281.83" y="382.41"/>
    <path d="m333.22,379.89c0.96,3.58 -1.28,7.2 -5,8.1c-3.71,0.92 -7.48,-1.24 -8.42,-4.81c-0.96,-3.56 1.28,-7.2 5,-8.1c3.69,-0.91 7.48,1.24 8.42,4.81z" fill="#E0E0E0" id="svg_515"/>
    <path d="m307.2,326.92c2.33,4.29 4.36,8.73 6.41,13.14l2.94,6.65l2.81,6.71c1.88,4.47 3.62,8.98 5.32,13.52c1.7,4.54 3.36,9.05 4.92,13.62l-5.42,-1.21c3.12,-2.96 6.26,-5.9 9.44,-8.79c3.18,-2.89 6.42,-5.75 9.68,-8.55c3.25,-2.85 6.6,-5.58 9.95,-8.31c3.39,-2.7 6.8,-5.39 10.37,-7.89c-2.61,3.44 -5.4,6.71 -8.2,9.99c-2.83,3.23 -5.66,6.47 -8.61,9.59c-2.91,3.14 -5.87,6.29 -8.87,9.32c-3,3.08 -6.04,6.12 -9.13,9.12l-3.67,3.57l-1.73,-4.79c-1.65,-4.55 -3.21,-9.12 -4.72,-13.69c-1.52,-4.58 -2.99,-9.18 -4.34,-13.81l-2.02,-6.95l-1.89,-7.02c-1.16,-4.68 -2.36,-9.39 -3.24,-14.16l0,-0.04l-0.01,0.01l0.01,-0.03z" fill="#E0E0E0" id="svg_516"/>
   </g>
  </g>
 </g>
</svg>