<?xml version="1.0"?>
<svg width="500.00000000000006" height="500.00000000000006" xmlns="http://www.w3.org/2000/svg" xmlns:svg="http://www.w3.org/2000/svg" enable-background="new 0 0 500 500" version="1.1" xml:space="preserve">
 <g class="layer">
  <title>Layer 1</title>
  <g id="svg_465" transform="matrix(1 0 0 1 0 0)">
   <g id="svg_466" transform="matrix(1.15873 -0.315202 0.378488 1.18724 -63.4056 12.3481)">
    <g id="svg_467">
     <path d="m-383.45,-53.1c24.1,-10.42 32.71,-40.54 20.81,-62.07c-11.94,-21.5 -40.06,-33.41 -66.75,-32.22c-26.68,1.2 -51.56,13.81 -70.59,30.65c-19.07,-21.1 -57.55,-24.93 -81.31,-8.09c-23.32,16.54 -19.44,50.45 -1.92,72.15c-20.51,9.05 -34.19,31.12 -29.16,51.52c6.17,25.13 39.25,41.8 66.27,33.41c-0.04,32.55 32.27,62.34 68.41,63.07c36.11,0.7 69.85,-27.79 71.37,-60.31c27.57,11.52 64.72,-4.76 71.63,-31.42c6.91,-26.63 -18.37,-56.05 -48.75,-56.71l-0.01,0.02z" fill="#407BFF" id="svg_468"/>
    </g>
    <g id="svg_470" opacity="0.8">
     <path d="m-383.45,-53.1c24.1,-10.42 32.71,-40.54 20.81,-62.07c-11.94,-21.5 -40.06,-33.41 -66.75,-32.22c-26.68,1.2 -51.56,13.81 -70.59,30.65c-19.07,-21.1 -57.55,-24.93 -81.31,-8.09c-23.32,16.54 -19.44,50.45 -1.92,72.15c-20.51,9.05 -34.19,31.12 -29.16,51.52c6.17,25.13 39.25,41.8 66.27,33.41c-0.04,32.55 32.27,62.34 68.41,63.07c36.11,0.7 69.85,-27.79 71.37,-60.31c27.57,11.52 64.72,-4.76 71.63,-31.42c6.91,-26.63 -18.37,-56.05 -48.75,-56.71l-0.01,0.02z" fill="#FFFFFF" id="svg_471"/>
    </g>
    <path d="m-373.91,103.83c0,7.62 -6.87,13.81 -15.37,13.81c-8.46,0 -15.34,-6.16 -15.34,-13.81c0,-7.62 6.87,-13.81 15.34,-13.81c8.5,0 15.37,6.19 15.37,13.81z" fill="#FFFFFF" id="svg_472" opacity="0.8"/>
    <g id="svg_473"/>
   </g>
  </g>
  <g id="Background_complete" transform="matrix(1 0 0 1 0 0)">
   <g id="svg_1">
    <path d="m-444.7,413.93c2.64,-8.9 2.78,-18.52 0.4,-27.49c-3.76,9.37 -9.12,18.09 -15.78,25.67c-1.32,-12.22 -3.55,-24.34 -6.67,-36.22c-4.86,12.25 -6.88,25.61 -5.87,38.74c-7.38,-7.27 -15.38,-13.94 -23.87,-19.89c0.74,11.29 7.42,26.04 22.28,34.39l23.7,0.07c13.13,-3.54 22.99,-16.69 22.72,-30.28c-3.77,6.69 -9.82,12.06 -16.91,15.01z" fill="#E0E0E0" id="svg_2"/>
   </g>
   <g id="svg_3">
    <path d="m-181.19,418.14c1.91,-6.44 2.01,-13.41 0.29,-19.91c-2.72,6.79 -6.61,13.1 -11.43,18.59c-0.95,-8.85 -2.57,-17.63 -4.83,-26.23c-3.52,8.87 -4.98,18.54 -4.25,28.06c-5.35,-5.27 -11.14,-10.1 -17.29,-14.41c0.54,8.18 5.37,18.86 16.14,24.9l17.16,0.05c9.51,-2.56 16.65,-12.08 16.45,-21.92c-2.73,4.84 -7.11,8.73 -12.24,10.87z" fill="#E0E0E0" id="svg_4"/>
   </g>
   <g id="svg_5">
    <g id="svg_6">
     <g id="svg_7">
      <g id="svg_8">
       <g id="svg_9">
        <path d="m-154.08,296.42l-180.75,0c-3.23,0 -5.86,-2.63 -5.86,-5.86l0,-263.28c0,-3.23 2.63,-5.86 5.86,-5.86l180.75,0c3.23,0 5.86,2.63 5.86,5.86l0,263.28c0,3.23 -2.63,5.86 -5.86,5.86zm-180.75,-274.75c-3.09,0 -5.61,2.52 -5.61,5.61l0,263.28c0,3.09 2.52,5.61 5.61,5.61l180.75,0c3.1,0 5.61,-2.52 5.61,-5.61l0,-263.28c0,-3.09 -2.52,-5.61 -5.61,-5.61l-180.75,0z" fill="#E0E0E0" id="svg_10"/>
       </g>
      </g>
      <g id="svg_11">
       <g id="svg_12">
        <path d="m-362.51,296.42l-180.74,0c-3.24,0 -5.87,-2.63 -5.87,-5.86l0,-263.28c0,-3.23 2.63,-5.86 5.87,-5.86l180.74,0c3.24,0 5.87,2.63 5.87,5.86l0,263.28c-0.01,3.23 -2.64,5.86 -5.87,5.86zm-180.74,-274.75c-3.1,0 -5.62,2.52 -5.62,5.61l0,263.28c0,3.09 2.52,5.61 5.62,5.61l180.74,0c3.1,0 5.62,-2.52 5.62,-5.61l0,-263.28c0,-3.09 -2.52,-5.61 -5.62,-5.61l-180.74,0z" fill="#E0E0E0" id="svg_13"/>
       </g>
      </g>
     </g>
     <g id="svg_14">
      <g id="svg_15">
       <rect fill="#E0E0E0" height="0.25" id="svg_16" width="500" x="-598" y="357.49"/>
      </g>
     </g>
    </g>
    <rect fill="#E0E0E0" height="0.25" id="svg_17" width="16.06" x="-546.33" y="371.75"/>
    <rect fill="#E0E0E0" height="0.25" id="svg_18" width="53.53" x="-427.65" y="369.04"/>
    <rect fill="#E0E0E0" height="0.25" id="svg_19" width="36.25" x="-529.27" y="381.04"/>
    <rect fill="#E0E0E0" height="0.25" id="svg_20" width="43.19" x="-219.65" y="368.91"/>
    <rect fill="#E0E0E0" height="0.25" id="svg_21" width="6.33" x="-167.55" y="368.91"/>
    <rect fill="#E0E0E0" height="0.25" id="svg_22" width="53.89" x="-281.79" y="375.14"/>
   </g>
   <g id="svg_23">
    <g id="freepik--background-complete--inject-481_00000003073544920505330140000013180267776658943650_">
     <g id="svg_24">
      <polygon fill="#F0F0F0" id="svg_25" points="-539.5410003662109,222.72500610351562 -539.5410003662109,175.6820068359375 -510.41300201416016,175.6820068359375 -510.41300201416016,186.41000366210938 -490.9980010986328,186.41000366210938 -490.9980010986328,68.89600372314453 -453.6679992675781,68.89600372314453 -453.6679992675781,115.14900207519531 -442.46800231933594,115.14900207519531 -442.46800231933594,92.052001953125 -413.3399963378906,92.052001953125 -413.3399963378906,204.6909942626953 -372.2689971923828,204.6909942626953 -372.2689971923828,164.89500427246094 -346.51600646972656,164.89500427246094 -346.51600646972656,78.60900115966797 -314.7330017089844,78.60900115966797 -314.7330017089844,136.13299560546875 -284.86199951171875,136.13299560546875 -284.86199951171875,260.0559997558594 -261.7179870605469,260.0559997558594 -261.7179870605469,199.71099853515625 -237.81900024414062,199.71099853515625 -237.81900024414062,160.8820037841797 -212.4320068359375,160.8820037841797 -212.4320068359375,131.07000732421875 -184.10699462890625,146.01100158691406 -184.10699462890625,225.77000427246094 -154.23599243164062,225.77000427246094 -154.23599243164062,209.3179931640625 -114.3330078125,209.3179931640625 -114.3330078125,357.45098876953125 -578.795000076294,357.67498779296875 -578.795000076294,222.72500610351562 "/>
      <rect fill="#FAFAFA" height="10.66" id="svg_26" width="9.3" x="-331.3" y="88.79"/>
      <rect fill="#FAFAFA" height="10.66" id="svg_27" width="9.3" x="-331.3" y="106.66"/>
      <rect fill="#FAFAFA" height="10.66" id="svg_28" width="9.3" x="-331.3" y="124.54"/>
      <rect fill="#FAFAFA" height="10.66" id="svg_29" width="9.3" x="-331.3" y="142.41"/>
      <rect fill="#FAFAFA" height="10.66" id="svg_30" width="9.3" x="-331.3" y="160.28"/>
      <rect fill="#FAFAFA" height="10.66" id="svg_31" width="9.3" x="-331.3" y="178.16"/>
      <rect fill="#FAFAFA" height="10.66" id="svg_32" width="9.3" x="-331.3" y="196.03"/>
      <rect fill="#FAFAFA" height="10.66" id="svg_33" width="9.3" x="-331.3" y="213.91"/>
      <rect fill="#FAFAFA" height="10.66" id="svg_34" width="9.3" x="-471.01" y="74.53"/>
      <rect fill="#FAFAFA" height="10.66" id="svg_35" width="9.3" x="-471.01" y="92.39"/>
      <rect fill="#FAFAFA" height="10.66" id="svg_36" width="9.3" x="-471.01" y="110.27"/>
      <rect fill="#FAFAFA" height="10.66" id="svg_37" width="9.3" x="-471.01" y="128.14"/>
      <rect fill="#FAFAFA" height="10.66" id="svg_38" width="9.3" x="-471.01" y="146.02"/>
      <rect fill="#FAFAFA" height="10.66" id="svg_39" width="9.3" x="-471.01" y="163.89"/>
      <rect fill="#FAFAFA" height="10.66" id="svg_40" width="9.3" x="-471.01" y="181.77"/>
      <rect fill="#FAFAFA" height="10.66" id="svg_41" width="9.3" x="-471.01" y="199.64"/>
     </g>
     <g id="svg_42">
      <path d="m-290.22,357.54l0,-171.4l37,0l0,171.38l-37,0.02z" fill="#E0E0E0" id="svg_43"/>
      <rect fill="#FAFAFA" height="9.25" id="svg_44" width="4.49" x="-260.51" y="191.58"/>
      <rect fill="#FAFAFA" height="9.25" id="svg_45" width="4.49" x="-269.48" y="191.58"/>
      <rect fill="#FAFAFA" height="9.25" id="svg_46" width="4.49" x="-278.45" y="191.58"/>
      <rect fill="#FAFAFA" height="9.25" id="svg_47" width="4.49" x="-287.42" y="191.58"/>
      <rect fill="#FAFAFA" height="9.25" id="svg_48" width="4.49" x="-260.51" y="207.1"/>
      <rect fill="#FAFAFA" height="9.25" id="svg_49" width="4.49" x="-269.48" y="207.1"/>
      <rect fill="#FAFAFA" height="9.25" id="svg_50" width="4.49" x="-278.45" y="207.1"/>
      <rect fill="#FAFAFA" height="9.25" id="svg_51" width="4.49" x="-287.42" y="207.1"/>
      <rect fill="#FAFAFA" height="9.25" id="svg_52" width="4.49" x="-260.51" y="222.61"/>
      <rect fill="#FAFAFA" height="9.25" id="svg_53" width="4.49" x="-269.48" y="222.61"/>
      <rect fill="#FAFAFA" height="9.25" id="svg_54" width="4.49" x="-278.45" y="222.61"/>
      <rect fill="#FAFAFA" height="9.25" id="svg_55" width="4.49" x="-287.42" y="222.61"/>
      <rect fill="#FAFAFA" height="9.25" id="svg_56" width="4.49" x="-260.51" y="238.12"/>
      <rect fill="#FAFAFA" height="9.25" id="svg_57" width="4.49" x="-269.48" y="238.12"/>
      <rect fill="#FAFAFA" height="9.25" id="svg_58" width="4.49" x="-278.45" y="238.12"/>
      <rect fill="#FAFAFA" height="9.25" id="svg_59" width="4.49" x="-287.42" y="238.12"/>
      <rect fill="#FAFAFA" height="9.25" id="svg_60" width="4.49" x="-260.51" y="253.62"/>
      <rect fill="#FAFAFA" height="9.25" id="svg_61" width="4.49" x="-269.48" y="253.62"/>
      <rect fill="#FAFAFA" height="9.25" id="svg_62" width="4.49" x="-278.45" y="253.62"/>
      <rect fill="#FAFAFA" height="9.25" id="svg_63" width="4.49" x="-287.42" y="253.62"/>
      <rect fill="#FAFAFA" height="9.25" id="svg_64" width="4.49" x="-260.51" y="269.13"/>
      <rect fill="#FAFAFA" height="9.25" id="svg_65" width="4.49" x="-269.48" y="269.13"/>
      <rect fill="#FAFAFA" height="9.25" id="svg_66" width="4.49" x="-278.45" y="269.13"/>
      <rect fill="#FAFAFA" height="9.25" id="svg_67" width="4.49" x="-287.42" y="269.13"/>
      <rect fill="#FAFAFA" height="9.25" id="svg_68" width="4.49" x="-260.51" y="284.64"/>
      <rect fill="#FAFAFA" height="9.25" id="svg_69" width="4.49" x="-269.48" y="284.64"/>
      <rect fill="#FAFAFA" height="9.25" id="svg_70" width="4.49" x="-278.45" y="284.64"/>
      <rect fill="#FAFAFA" height="9.25" id="svg_71" width="4.49" x="-287.42" y="284.64"/>
      <rect fill="#FAFAFA" height="9.25" id="svg_72" width="4.49" x="-260.51" y="300.16"/>
      <rect fill="#FAFAFA" height="9.25" id="svg_73" width="4.49" x="-269.48" y="300.16"/>
      <rect fill="#FAFAFA" height="9.25" id="svg_74" width="4.49" x="-278.45" y="300.16"/>
      <rect fill="#FAFAFA" height="9.25" id="svg_75" width="4.49" x="-287.42" y="300.16"/>
     </g>
     <g id="svg_76">
      <path d="m-418.79,357.6l0,-191.24l76.71,0l0,191.29c0,0 -76.13,0.03 -76.71,-0.05z" fill="#E6E6E6" id="svg_77"/>
      <rect fill="#E0E0E0" height="10.66" id="svg_78" width="9.3" x="-357.14" y="172.68"/>
      <rect fill="#E0E0E0" height="10.66" id="svg_79" width="9.3" x="-375.75" y="172.68"/>
      <rect fill="#E0E0E0" height="10.66" id="svg_80" width="9.3" x="-394.35" y="172.68"/>
      <rect fill="#E0E0E0" height="10.66" id="svg_81" width="9.3" x="-412.96" y="172.68"/>
      <rect fill="#E0E0E0" height="10.66" id="svg_82" width="9.3" x="-357.14" y="190.56"/>
      <rect fill="#E0E0E0" height="10.66" id="svg_83" width="9.3" x="-375.75" y="190.56"/>
      <rect fill="#E0E0E0" height="10.66" id="svg_84" width="9.3" x="-394.35" y="190.56"/>
      <rect fill="#E0E0E0" height="10.66" id="svg_85" width="9.3" x="-412.96" y="190.56"/>
      <rect fill="#E0E0E0" height="10.66" id="svg_86" width="9.3" x="-357.14" y="208.43"/>
      <rect fill="#E0E0E0" height="10.66" id="svg_87" width="9.3" x="-375.75" y="208.43"/>
      <rect fill="#E0E0E0" height="10.66" id="svg_88" width="9.3" x="-394.35" y="208.43"/>
      <rect fill="#E0E0E0" height="10.66" id="svg_89" width="9.3" x="-412.96" y="208.43"/>
      <rect fill="#E0E0E0" height="10.66" id="svg_90" width="9.3" x="-357.14" y="226.3"/>
      <rect fill="#E0E0E0" height="10.66" id="svg_91" width="9.3" x="-375.75" y="226.3"/>
      <rect fill="#E0E0E0" height="10.66" id="svg_92" width="9.3" x="-394.35" y="226.3"/>
      <rect fill="#E0E0E0" height="10.66" id="svg_93" width="9.3" x="-412.96" y="226.3"/>
      <rect fill="#E0E0E0" height="10.66" id="svg_94" width="9.3" x="-357.14" y="244.18"/>
      <rect fill="#E0E0E0" height="10.66" id="svg_95" width="9.3" x="-375.75" y="244.18"/>
      <rect fill="#E0E0E0" height="10.66" id="svg_96" width="9.3" x="-394.35" y="244.18"/>
      <rect fill="#E0E0E0" height="10.66" id="svg_97" width="9.3" x="-412.96" y="244.18"/>
      <rect fill="#E0E0E0" height="10.66" id="svg_98" width="9.3" x="-357.14" y="262.05"/>
      <rect fill="#E0E0E0" height="10.66" id="svg_99" width="9.3" x="-375.75" y="262.05"/>
      <rect fill="#E0E0E0" height="10.66" id="svg_100" width="9.3" x="-394.35" y="262.05"/>
      <rect fill="#E0E0E0" height="10.66" id="svg_101" width="9.3" x="-412.96" y="262.05"/>
      <rect fill="#E0E0E0" height="10.66" id="svg_102" width="9.3" x="-357.14" y="279.93"/>
      <rect fill="#E0E0E0" height="10.66" id="svg_103" width="9.3" x="-375.75" y="279.93"/>
      <rect fill="#E0E0E0" height="10.66" id="svg_104" width="9.3" x="-394.35" y="279.93"/>
      <rect fill="#E0E0E0" height="10.66" id="svg_105" width="9.3" x="-412.96" y="279.93"/>
      <rect fill="#E0E0E0" height="10.66" id="svg_106" width="9.3" x="-357.14" y="297.8"/>
      <rect fill="#E0E0E0" height="10.66" id="svg_107" width="9.3" x="-375.75" y="297.8"/>
      <rect fill="#E0E0E0" height="10.66" id="svg_108" width="9.3" x="-394.35" y="297.8"/>
      <rect fill="#E0E0E0" height="10.66" id="svg_109" width="9.3" x="-412.96" y="297.8"/>
     </g>
     <g id="svg_110">
      <path d="m-239.77,357.51l0,-204.52l31.74,0l0,204.68c-10.04,-0.24 -31.74,-0.16 -31.74,-0.16z" fill="#E6E6E6" id="svg_111"/>
      <rect fill="#FAFAFA" height="10.66" id="svg_112" width="9.3" x="-222.03" y="156.78"/>
      <rect fill="#FAFAFA" height="10.66" id="svg_113" width="9.3" x="-222.03" y="174.64"/>
      <rect fill="#FAFAFA" height="10.66" id="svg_114" width="9.3" x="-222.03" y="192.52"/>
      <rect fill="#FAFAFA" height="10.66" id="svg_115" width="9.3" x="-222.03" y="210.39"/>
      <rect fill="#FAFAFA" height="10.66" id="svg_116" width="9.3" x="-222.03" y="228.26"/>
      <rect fill="#FAFAFA" height="10.66" id="svg_117" width="9.3" x="-222.03" y="246.14"/>
      <rect fill="#FAFAFA" height="10.66" id="svg_118" width="9.3" x="-222.03" y="264.01"/>
      <rect fill="#FAFAFA" height="10.66" id="svg_119" width="9.3" x="-222.03" y="281.89"/>
      <rect fill="#FAFAFA" height="10.66" id="svg_120" width="9.3" x="-234.47" y="156.78"/>
      <rect fill="#FAFAFA" height="10.66" id="svg_121" width="9.3" x="-234.47" y="174.64"/>
      <rect fill="#FAFAFA" height="10.66" id="svg_122" width="9.3" x="-234.47" y="192.52"/>
      <rect fill="#FAFAFA" height="10.66" id="svg_123" width="9.3" x="-234.47" y="210.39"/>
      <rect fill="#FAFAFA" height="10.66" id="svg_124" width="9.3" x="-234.47" y="228.26"/>
      <rect fill="#FAFAFA" height="10.66" id="svg_125" width="9.3" x="-234.47" y="246.14"/>
      <rect fill="#FAFAFA" height="10.66" id="svg_126" width="9.3" x="-234.47" y="264.01"/>
      <rect fill="#FAFAFA" height="10.66" id="svg_127" width="9.3" x="-234.47" y="281.89"/>
     </g>
     <g id="svg_128">
      <rect fill="#E6E6E6" height="201.04" id="svg_129" width="56.01" x="-543.74" y="156.63"/>
      <rect fill="#FAFAFA" height="10.66" id="svg_130" width="16.42" x="-512.43" y="164.94"/>
      <rect fill="#FAFAFA" height="10.66" id="svg_131" width="16.42" x="-512.43" y="182.82"/>
      <rect fill="#FAFAFA" height="10.66" id="svg_132" width="16.42" x="-512.43" y="200.69"/>
      <rect fill="#FAFAFA" height="10.66" id="svg_133" width="16.42" x="-512.43" y="218.57"/>
      <rect fill="#FAFAFA" height="10.66" id="svg_134" width="16.42" x="-512.43" y="236.44"/>
      <rect fill="#FAFAFA" height="10.66" id="svg_135" width="16.42" x="-512.43" y="254.31"/>
      <rect fill="#FAFAFA" height="10.66" id="svg_136" width="16.42" x="-512.43" y="272.19"/>
      <rect fill="#FAFAFA" height="10.66" id="svg_137" width="16.42" x="-512.43" y="290.06"/>
      <rect fill="#FAFAFA" height="10.66" id="svg_138" width="16.42" x="-534.39" y="164.94"/>
      <rect fill="#FAFAFA" height="10.66" id="svg_139" width="16.42" x="-534.39" y="182.82"/>
      <rect fill="#FAFAFA" height="10.66" id="svg_140" width="16.42" x="-534.39" y="200.69"/>
      <rect fill="#FAFAFA" height="10.66" id="svg_141" width="16.42" x="-534.39" y="218.57"/>
      <rect fill="#FAFAFA" height="10.66" id="svg_142" width="16.42" x="-534.39" y="236.44"/>
      <rect fill="#FAFAFA" height="10.66" id="svg_143" width="16.42" x="-534.39" y="254.31"/>
      <rect fill="#FAFAFA" height="10.66" id="svg_144" width="16.42" x="-534.39" y="272.19"/>
      <rect fill="#FAFAFA" height="10.66" id="svg_145" width="16.42" x="-534.39" y="290.06"/>
     </g>
     <g id="svg_146">
      <path d="m-451.08,357.61l0,-149.18l24.43,0l0,149.17l-24.43,0.01z" fill="#E0E0E0" id="svg_147"/>
      <rect fill="#FAFAFA" height="7.94" id="svg_148" width="2.96" x="-431.47" y="213.15"/>
      <rect fill="#FAFAFA" height="7.94" id="svg_149" width="2.96" x="-437.39" y="213.15"/>
      <rect fill="#FAFAFA" height="7.94" id="svg_150" width="2.96" x="-443.31" y="213.15"/>
      <rect fill="#FAFAFA" height="7.94" id="svg_151" width="2.96" x="-449.23" y="213.15"/>
      <rect fill="#FAFAFA" height="7.94" id="svg_152" width="2.96" x="-431.47" y="226.48"/>
      <rect fill="#FAFAFA" height="7.94" id="svg_153" width="2.96" x="-437.39" y="226.48"/>
      <rect fill="#FAFAFA" height="7.94" id="svg_154" width="2.96" x="-443.31" y="226.48"/>
      <rect fill="#FAFAFA" height="7.94" id="svg_155" width="2.96" x="-449.23" y="226.48"/>
      <rect fill="#FAFAFA" height="7.94" id="svg_156" width="2.96" x="-431.47" y="239.8"/>
      <rect fill="#FAFAFA" height="7.94" id="svg_157" width="2.96" x="-437.39" y="239.8"/>
      <rect fill="#FAFAFA" height="7.94" id="svg_158" width="2.96" x="-443.31" y="239.8"/>
      <rect fill="#FAFAFA" height="7.94" id="svg_159" width="2.96" x="-449.23" y="239.8"/>
      <rect fill="#FAFAFA" height="7.94" id="svg_160" width="2.96" x="-431.47" y="253.13"/>
      <rect fill="#FAFAFA" height="7.94" id="svg_161" width="2.96" x="-437.39" y="253.13"/>
      <rect fill="#FAFAFA" height="7.94" id="svg_162" width="2.96" x="-443.31" y="253.13"/>
      <rect fill="#FAFAFA" height="7.94" id="svg_163" width="2.96" x="-449.23" y="253.13"/>
      <rect fill="#FAFAFA" height="7.94" id="svg_164" width="2.96" x="-431.47" y="266.46"/>
      <rect fill="#FAFAFA" height="7.94" id="svg_165" width="2.96" x="-437.39" y="266.46"/>
      <rect fill="#FAFAFA" height="7.94" id="svg_166" width="2.96" x="-443.31" y="266.46"/>
      <rect fill="#FAFAFA" height="7.94" id="svg_167" width="2.96" x="-449.23" y="266.46"/>
      <rect fill="#FAFAFA" height="7.94" id="svg_168" width="2.96" x="-431.47" y="279.79"/>
      <rect fill="#FAFAFA" height="7.94" id="svg_169" width="2.96" x="-437.39" y="279.79"/>
      <rect fill="#FAFAFA" height="7.94" id="svg_170" width="2.96" x="-443.31" y="279.79"/>
      <rect fill="#FAFAFA" height="7.94" id="svg_171" width="2.96" x="-449.23" y="279.79"/>
      <rect fill="#FAFAFA" height="7.94" id="svg_172" width="2.96" x="-431.47" y="293.11"/>
      <rect fill="#FAFAFA" height="7.94" id="svg_173" width="2.96" x="-437.39" y="293.11"/>
      <rect fill="#FAFAFA" height="7.94" id="svg_174" width="2.96" x="-443.31" y="293.11"/>
      <rect fill="#FAFAFA" height="7.94" id="svg_175" width="2.96" x="-449.23" y="293.11"/>
      <rect fill="#FAFAFA" height="7.94" id="svg_176" width="2.96" x="-431.47" y="306.44"/>
      <rect fill="#FAFAFA" height="7.94" id="svg_177" width="2.96" x="-437.39" y="306.44"/>
      <rect fill="#FAFAFA" height="7.94" id="svg_178" width="2.96" x="-443.31" y="306.44"/>
      <rect fill="#FAFAFA" height="7.94" id="svg_179" width="2.96" x="-449.23" y="306.44"/>
     </g>
     <g id="svg_180">
      <path d="m-210.86,357.68l0,-127.13l65.31,0l0,126.92l-65.31,0.21z" fill="#FAFAFA" id="svg_181"/>
      <rect fill="#E0E0E0" height="6.67" id="svg_182" width="7.92" x="-158.41" y="234.5"/>
      <rect fill="#E0E0E0" height="6.67" id="svg_183" width="7.92" x="-174.25" y="234.5"/>
      <rect fill="#E0E0E0" height="6.67" id="svg_184" width="7.92" x="-190.08" y="234.5"/>
      <rect fill="#E0E0E0" height="6.67" id="svg_185" width="7.92" x="-205.92" y="234.5"/>
      <rect fill="#E0E0E0" height="6.67" id="svg_186" width="7.92" x="-158.41" y="245.68"/>
      <rect fill="#E0E0E0" height="6.67" id="svg_187" width="7.92" x="-174.25" y="245.68"/>
      <rect fill="#E0E0E0" height="6.67" id="svg_188" width="7.92" x="-190.08" y="245.68"/>
      <rect fill="#E0E0E0" height="6.67" id="svg_189" width="7.92" x="-205.92" y="245.68"/>
      <rect fill="#E0E0E0" height="6.67" id="svg_190" width="7.92" x="-158.41" y="256.86"/>
      <rect fill="#E0E0E0" height="6.67" id="svg_191" width="7.92" x="-174.25" y="256.86"/>
      <rect fill="#E0E0E0" height="6.67" id="svg_192" width="7.92" x="-190.08" y="256.86"/>
      <rect fill="#E0E0E0" height="6.67" id="svg_193" width="7.92" x="-205.92" y="256.86"/>
      <rect fill="#E0E0E0" height="6.67" id="svg_194" width="7.92" x="-158.41" y="268.03"/>
      <rect fill="#E0E0E0" height="6.67" id="svg_195" width="7.92" x="-174.25" y="268.03"/>
      <rect fill="#E0E0E0" height="6.67" id="svg_196" width="7.92" x="-190.08" y="268.03"/>
      <rect fill="#E0E0E0" height="6.67" id="svg_197" width="7.92" x="-205.92" y="268.03"/>
      <rect fill="#E0E0E0" height="6.67" id="svg_198" width="7.92" x="-158.41" y="279.2"/>
      <rect fill="#E0E0E0" height="6.67" id="svg_199" width="7.92" x="-174.25" y="279.2"/>
      <rect fill="#E0E0E0" height="6.67" id="svg_200" width="7.92" x="-190.08" y="279.2"/>
      <rect fill="#E0E0E0" height="6.67" id="svg_201" width="7.92" x="-205.92" y="279.2"/>
      <rect fill="#E0E0E0" height="6.67" id="svg_202" width="7.92" x="-158.41" y="290.38"/>
      <rect fill="#E0E0E0" height="6.67" id="svg_203" width="7.92" x="-174.25" y="290.38"/>
      <rect fill="#E0E0E0" height="6.67" id="svg_204" width="7.92" x="-190.08" y="290.38"/>
      <rect fill="#E0E0E0" height="6.67" id="svg_205" width="7.92" x="-205.92" y="290.38"/>
      <rect fill="#E0E0E0" height="6.67" id="svg_206" width="7.92" x="-158.41" y="301.55"/>
      <rect fill="#E0E0E0" height="6.67" id="svg_207" width="7.92" x="-174.25" y="301.55"/>
      <rect fill="#E0E0E0" height="6.67" id="svg_208" width="7.92" x="-190.08" y="301.55"/>
      <rect fill="#E0E0E0" height="6.67" id="svg_209" width="7.92" x="-205.92" y="301.55"/>
     </g>
    </g>
    <g id="svg_210">
     <g id="svg_211">
      <path d="m-295.06,61.97c2.07,-1.57 5.1,-1.75 7.35,-0.43c2.98,-6.02 11.28,-8.68 17.2,-5.51c1.55,-6.48 7.94,-11.47 14.6,-11.39c6.67,0.08 12.94,5.22 14.33,11.74c0.22,1.04 0.37,2.17 1.11,2.93c1.2,1.23 3.21,0.82 4.93,0.68c5.4,-0.42 10.83,3.37 12.3,8.59l-74.36,-0.27c-0.66,-2.52 0.47,-4.77 2.54,-6.34z" fill="#E0E0E0" id="svg_212"/>
     </g>
    </g>
    <g id="svg_213">
     <g id="svg_214">
      <path d="m-381.56,6.5c1.03,-0.77 2.52,-0.86 3.63,-0.21c1.48,-2.98 5.58,-4.29 8.51,-2.72c0.77,-3.21 3.93,-5.68 7.23,-5.64c3.3,0.04 6.4,2.58 7.08,5.81c0.11,0.51 0.18,1.07 0.55,1.45c0.6,0.6 1.59,0.4 2.44,0.33c2.67,-0.2 5.36,1.67 6.09,4.25l-36.79,-0.13c-0.32,-1.25 0.23,-2.36 1.26,-3.14z" fill="#F5F5F5" id="svg_215"/>
     </g>
    </g>
    <g id="svg_216">
     <g id="svg_217">
      <path d="m-195.9,18.95c1.1,-0.83 2.71,-0.93 3.89,-0.23c1.58,-3.19 5.98,-4.6 9.11,-2.92c0.82,-3.43 4.21,-6.07 7.74,-6.03c3.53,0.04 6.85,2.77 7.58,6.22c0.12,0.55 0.2,1.15 0.59,1.55c0.64,0.65 1.7,0.43 2.61,0.36c2.86,-0.22 5.74,1.79 6.51,4.55l-39.38,-0.15c-0.34,-1.33 0.25,-2.52 1.35,-3.35z" fill="#E0E0E0" id="svg_218"/>
     </g>
    </g>
    <g id="svg_219">
     <g id="svg_220">
      <path d="m-570.25,110.34c1.43,-1.07 3.5,-1.2 5.05,-0.29c2.04,-4.14 7.74,-5.96 11.8,-3.78c1.06,-4.46 5.45,-7.88 10.03,-7.82c4.58,0.05 8.88,3.58 9.83,8.06c0.15,0.71 0.25,1.49 0.76,2.01c0.83,0.84 2.21,0.56 3.39,0.47c3.71,-0.29 7.44,2.31 8.44,5.89l-51.05,-0.19c-0.44,-1.72 0.33,-3.27 1.75,-4.35z" fill="#F5F5F5" id="svg_221"/>
     </g>
    </g>
    <g id="svg_222">
     <g id="svg_223">
      <path d="m-210.84,104.22c2.16,-1.63 5.31,-1.82 7.65,-0.45c3.1,-6.27 11.74,-9.04 17.91,-5.73c1.6,-6.76 8.26,-11.95 15.2,-11.86c6.94,0.08 13.47,5.43 14.91,12.22c0.23,1.08 0.38,2.26 1.16,3.05c1.25,1.28 3.34,0.85 5.13,0.71c5.62,-0.44 11.28,3.51 12.81,8.93l-77.42,-0.28c-0.68,-2.62 0.49,-4.96 2.65,-6.59z" fill="#F0F0F0" id="svg_224"/>
     </g>
    </g>
    <g id="svg_225">
     <g id="svg_226">
      <path d="m-531.81,30.32c1.91,-1.45 4.71,-1.61 6.79,-0.4c2.75,-5.56 10.42,-8.02 15.89,-5.09c1.43,-5.99 7.34,-10.6 13.5,-10.53c6.16,0.08 11.96,4.83 13.24,10.86c0.2,0.95 0.34,2 1.02,2.7c1.12,1.14 2.98,0.76 4.56,0.63c4.99,-0.39 10.02,3.12 11.37,7.94l-68.73,-0.25c-0.6,-2.33 0.44,-4.41 2.36,-5.86z" fill="#E0E0E0" id="svg_227"/>
     </g>
    </g>
   </g>
  </g>
  <g display="none" id="Background_simple" transform="matrix(1 0 0 1 0 0)">
   <g display="inline" id="svg_228">
    <path d="m185.77,59.57c-21.57,2.85 -42.36,8.91 -60.81,18.41c-21.73,11.21 -43.94,28.66 -37.38,51.49c12.11,42.15 70.2,42.92 58.61,71.26c-13.14,32.1 -4.33,69.76 54.63,80.23c111.98,19.89 247.35,-96.48 209.33,-160.43c-23.67,-39.81 -109.88,-76.07 -224.38,-60.96z" fill="#407BFF" id="svg_229"/>
    <path d="m185.77,59.57c-21.57,2.85 -42.36,8.91 -60.81,18.41c-21.73,11.21 -43.94,28.66 -37.38,51.49c12.11,42.15 70.2,42.92 58.61,71.26c-13.14,32.1 -4.33,69.76 54.63,80.23c111.98,19.89 247.35,-96.48 209.33,-160.43c-23.67,-39.81 -109.88,-76.07 -224.38,-60.96z" fill="#FFFFFF" id="svg_230" opacity="0.9"/>
   </g>
  </g>
  <g id="Shadow" transform="matrix(1 0 0 1 0 0)">
   <g id="svg_231">
    <g id="svg_232">
     <ellipse cx="-258" cy="540.49" fill="#F5F5F5" id="svg_233" rx="208.88" ry="8.23"/>
    </g>
   </g>
  </g>
  <g id="Sing_2">
   <g id="svg_234">
    <g id="svg_235">
     <rect fill="#263238" height="242.47" id="svg_236" width="12.43" x="1004.66" y="70.95"/>
     <rect fill="#FFFFFF" height="242.47" id="svg_237" opacity="0.5" width="12.43" x="1004.66" y="70.95"/>
    </g>
    <rect height="8.63" id="svg_238" opacity="0.3" width="12.43" x="1004.66" y="74.63"/>
    <g id="svg_239">
     <path d="m953.12,77.89l112.05,0.07c0.14,0 0.27,-0.05 0.36,-0.14l17.98,-19.55c0.14,-0.14 0.19,-3.67 0.06,-3.81l-18.78,-16.15c-0.09,-0.09 -0.22,-0.14 -0.36,-0.14l-111.31,0c-0.26,0 -0.47,0.17 -0.47,0.38l0,38.95c0,0.22 0.21,0.39 0.47,0.39z" fill="#407BFF" id="svg_240"/>
     <path d="m953.12,77.89l112.05,0.07c0.14,0 0.27,-0.05 0.36,-0.14l17.98,-19.55c0.14,-0.14 0.19,-3.67 0.06,-3.81l-18.78,-16.15c-0.09,-0.09 -0.22,-0.14 -0.36,-0.14l-111.31,0c-0.26,0 -0.47,0.17 -0.47,0.38l0,38.95c0,0.22 0.21,0.39 0.47,0.39z" id="svg_241" opacity="0.3"/>
     <path d="m953.12,75l111.31,0c0.14,0 0.27,-0.06 0.36,-0.15l18.72,-20.02c0.14,-0.15 0.14,-0.36 0,-0.5l-18.72,-20.02c-0.09,-0.1 -0.22,-0.15 -0.36,-0.15l-111.31,0c-0.26,0 -0.47,0.18 -0.47,0.39l0,40.05c0,0.22 0.21,0.4 0.47,0.4z" fill="#407BFF" id="svg_242"/>
     <g id="svg_243">
      <g id="svg_244">
       <path d="m959.57,38.8c0,0.86 -0.7,1.56 -1.56,1.56s-1.56,-0.7 -1.56,-1.56s0.7,-1.56 1.56,-1.56s1.56,0.7 1.56,1.56z" fill="#263238" id="svg_245"/>
       <path d="m959.57,38.8c0,0.86 -0.7,1.56 -1.56,1.56s-1.56,-0.7 -1.56,-1.56s0.7,-1.56 1.56,-1.56s1.56,0.7 1.56,1.56z" enable-background="new" fill="#FFFFFF" id="svg_246" opacity="0.5"/>
      </g>
      <g id="svg_247">
       <path d="m959.57,69.62c0,0.86 -0.7,1.56 -1.56,1.56s-1.56,-0.7 -1.56,-1.56s0.7,-1.56 1.56,-1.56s1.56,0.7 1.56,1.56z" fill="#263238" id="svg_248"/>
       <path d="m959.57,69.62c0,0.86 -0.7,1.56 -1.56,1.56s-1.56,-0.7 -1.56,-1.56s0.7,-1.56 1.56,-1.56s1.56,0.7 1.56,1.56z" enable-background="new" fill="#FFFFFF" id="svg_249" opacity="0.5"/>
      </g>
     </g>
     <g id="svg_250">
      <g id="svg_251">
       <path d="m1063.68,38.8c0,0.86 -0.7,1.56 -1.56,1.56c-0.86,0 -1.56,-0.7 -1.56,-1.56s0.7,-1.56 1.56,-1.56c0.86,0 1.56,0.7 1.56,1.56z" fill="#263238" id="svg_252"/>
       <path d="m1063.68,38.8c0,0.86 -0.7,1.56 -1.56,1.56c-0.86,0 -1.56,-0.7 -1.56,-1.56s0.7,-1.56 1.56,-1.56c0.86,0 1.56,0.7 1.56,1.56z" enable-background="new" fill="#FFFFFF" id="svg_253" opacity="0.5"/>
      </g>
      <g id="svg_254">
       <path d="m1063.68,69.62c0,0.86 -0.7,1.56 -1.56,1.56c-0.86,0 -1.56,-0.7 -1.56,-1.56s0.7,-1.56 1.56,-1.56c0.86,0 1.56,0.7 1.56,1.56z" fill="#263238" id="svg_255"/>
       <path d="m1063.68,69.62c0,0.86 -0.7,1.56 -1.56,1.56c-0.86,0 -1.56,-0.7 -1.56,-1.56s0.7,-1.56 1.56,-1.56c0.86,0 1.56,0.7 1.56,1.56z" enable-background="new" fill="#FFFFFF" id="svg_256" opacity="0.5"/>
      </g>
     </g>
     <g id="svg_257">
      <path d="m988.75,51.92l-4.2,0l0,-3.75l13.25,0l0,3.75l-4.21,0l0,10.61l-4.84,0l0,-10.61z" fill="#FFFFFF" id="svg_258"/>
      <path d="m1005.19,58.92l-1.31,0l0,3.61l-4.84,0l0,-14.36l6.91,0c4,0 6.55,2.09 6.55,5.41c0,2.07 -0.99,3.63 -2.71,4.52l3.01,4.43l-5.17,0l-2.44,-3.61zm0.46,-7.02l-1.77,0l0,3.36l1.77,0c1.33,0 1.97,-0.63 1.97,-1.68s-0.64,-1.68 -1.97,-1.68z" fill="#FFFFFF" id="svg_259"/>
      <path d="m1014.19,56.06l0,-7.89l4.84,0l0,7.75c0,2.2 0.84,3.02 2.2,3.02c1.35,0 2.19,-0.82 2.19,-3.02l0,-7.75l4.76,0l0,7.89c0,4.31 -2.59,6.79 -6.99,6.79c-4.41,0 -7,-2.48 -7,-6.79z" fill="#FFFFFF" id="svg_260"/>
      <path d="m1042.32,58.88l0,3.65l-11.93,0l0,-14.36l11.67,0l0,3.65l-6.91,0l0,1.68l6.07,0l0,3.49l-6.07,0l0,1.88l7.17,0l0,0.01z" fill="#FFFFFF" id="svg_261"/>
     </g>
    </g>
    <path d="m1033.68,34.16c0,0 -10.11,5.2 -20.35,11.42c-8.24,5 -25.66,17.41 -18.51,22.53c7.15,5.11 8.91,6.96 8.49,6.94c-0.42,-0.02 -13.81,0 -13.81,0s-4.95,-8.49 0,-15.34c4.95,-6.84 15.59,-13.05 17.24,-19.35c1.65,-6.3 -3.43,-6.34 -3.43,-6.34l30.37,0.14z" fill="#FFFFFF" id="svg_262" opacity="0.2"/>
    <g id="svg_263">
     <polygon fill="#FFFFFF" id="svg_264" opacity="0.2" points="1017.0910034179688,131.71600341796875 1004.6619873046875,148.41000366210938 1004.6619873046875,163.2860107421875 1017.0910034179688,146.67300415039062 "/>
     <polygon fill="#FFFFFF" id="svg_265" opacity="0.2" points="1017.0910034179688,160.21499633789062 1004.6619873046875,176.91000366210938 1004.6619873046875,182.47698974609375 1017.0910034179688,166.343994140625 "/>
    </g>
    <path d="m957.72,85.73c11.64,0 23.28,0 34.91,0" fill="none" id="svg_266" stroke="#407BFF" stroke-linecap="round" stroke-linejoin="round" stroke-miterlimit="10"/>
   </g>
  </g>
  <g id="Sing_1">
   <g id="svg_267">
    <g id="svg_268">
     <rect fill="#263238" height="242.47" id="svg_269" width="12.43" x="830.26" y="85.93"/>
     <rect fill="#FFFFFF" height="242.47" id="svg_270" opacity="0.5" width="12.43" x="830.26" y="85.93"/>
    </g>
    <rect height="8.63" id="svg_271" opacity="0.3" width="12.43" x="830.26" y="89.61"/>
    <g id="svg_272">
     <path d="m894.06,92.87c-0.41,-0.16 -112.13,0.36 -112.42,-0.07c-21.81,-26.05 -26.63,-15.83 0.75,-39.51c0.83,0 111.63,-0.79 112.13,0.24c-0.47,0.4 0.87,39.54 -0.46,39.34z" fill="#407BFF" id="svg_273"/>
     <path d="m894.06,92.87c-0.41,-0.16 -112.13,0.36 -112.42,-0.07c-21.81,-26.05 -26.63,-15.83 0.75,-39.51c0.83,0 111.63,-0.79 112.13,0.24c-0.47,0.4 0.87,39.54 -0.46,39.34z" id="svg_274" opacity="0.3"/>
     <path d="m894.06,89.98c-0.43,-0.17 -111.37,0.3 -111.67,-0.15c0,0 -18.73,-20.02 -18.73,-20.02c-0.73,-0.64 18.71,-20.04 18.73,-20.52c0.78,-0.02 111.69,-0.8 112.13,0.24c-0.43,0.39 0.84,40.65 -0.46,40.45z" fill="#407BFF" id="svg_275"/>
     <g id="svg_276">
      <g id="svg_277">
       <path d="m887.61,53.78c-0.03,2.02 3.14,2.02 3.11,0c0.03,-2.02 -3.14,-2.02 -3.11,0z" fill="#263238" id="svg_278"/>
       <path d="m887.61,53.78c-0.03,2.02 3.14,2.02 3.11,0c0.03,-2.02 -3.14,-2.02 -3.11,0z" enable-background="new" fill="#FFFFFF" id="svg_279" opacity="0.5"/>
      </g>
      <g id="svg_280">
       <path d="m887.61,84.6c-0.03,2.02 3.14,2.02 3.11,0c0.03,-2.02 -3.14,-2.02 -3.11,0z" fill="#263238" id="svg_281"/>
       <path d="m887.61,84.6c-0.03,2.02 3.14,2.02 3.11,0c0.03,-2.02 -3.14,-2.02 -3.11,0z" enable-background="new" fill="#FFFFFF" id="svg_282" opacity="0.5"/>
      </g>
     </g>
     <g id="svg_283">
      <g id="svg_284">
       <path d="m783.5,53.78c-0.03,2.02 3.14,2.02 3.11,0c0.03,-2.02 -3.14,-2.02 -3.11,0z" fill="#263238" id="svg_285"/>
       <path d="m783.5,53.78c-0.03,2.02 3.14,2.02 3.11,0c0.03,-2.02 -3.14,-2.02 -3.11,0z" enable-background="new" fill="#FFFFFF" id="svg_286" opacity="0.5"/>
      </g>
      <g id="svg_287">
       <path d="m783.5,84.6c-0.03,2.02 3.14,2.02 3.11,0c0.03,-2.02 -3.14,-2.02 -3.11,0z" fill="#263238" id="svg_288"/>
       <path d="m783.5,84.6c-0.03,2.02 3.14,2.02 3.11,0c0.03,-2.02 -3.14,-2.02 -3.11,0z" enable-background="new" fill="#FFFFFF" id="svg_289" opacity="0.5"/>
      </g>
     </g>
    </g>
    <g id="svg_290">
     <path d="m807.95,65.56l0,2.46l5.99,0l0,3.65l-5.99,0l0,4.59l-4.84,0l0,-14.35l11.67,0l0,3.65l-6.83,0z" fill="#FFFFFF" id="svg_291"/>
     <path d="m825.58,73.76l-5.45,0l-0.97,2.5l-4.92,0l6.28,-14.35l4.75,0l6.28,14.35l-5.01,0l-0.96,-2.5zm-1.33,-3.48l-1.4,-3.61l-1.39,3.61l2.79,0z" fill="#FFFFFF" id="svg_292"/>
     <path d="m832.32,61.91l4.84,0l0,10.6l6.48,0l0,3.75l-11.32,0l0,-14.35z" fill="#FFFFFF" id="svg_293"/>
     <path d="m844.07,75.12l1.56,-3.53c1.35,0.8 3.16,1.31 4.74,1.31c1.37,0 1.86,-0.28 1.86,-0.78c0,-1.8 -7.94,-0.35 -7.94,-5.7c0,-2.66 2.24,-4.84 6.69,-4.84c1.93,0 3.92,0.41 5.41,1.25l-1.45,3.51c-1.42,-0.72 -2.75,-1.07 -4,-1.07c-1.41,0 -1.87,0.41 -1.87,0.91c0,1.72 7.94,0.28 7.94,5.57c0,2.63 -2.23,4.84 -6.69,4.84c-2.39,0 -4.82,-0.59 -6.25,-1.47z" fill="#FFFFFF" id="svg_294"/>
     <path d="m870.38,72.61l0,3.65l-11.94,0l0,-14.35l11.67,0l0,3.65l-6.91,0l0,1.68l6.07,0l0,3.49l-6.07,0l0,1.88l7.18,0z" fill="#FFFFFF" id="svg_295"/>
    </g>
    <path d="m806.11,49.14c0,0 10.11,5.2 20.36,11.42c8.23,5 25.66,17.41 18.5,22.53c-7.15,5.11 -8.91,6.96 -8.49,6.94c0.42,-0.02 13.81,0 13.81,0s4.95,-8.49 0,-15.34c-4.95,-6.85 -15.59,-13.05 -17.24,-19.35c-1.65,-6.3 3.43,-6.35 3.43,-6.35l-30.37,0.15z" fill="#FFFFFF" id="svg_296" opacity="0.2"/>
    <polygon fill="#FFFFFF" id="svg_297" opacity="0.2" points="842.6940307617188,142.67300415039062 830.2650146484375,159.36801147460938 830.2650146484375,174.24301147460938 842.6940307617188,157.6300048828125 "/>
    <polygon fill="#FFFFFF" id="svg_298" opacity="0.2" points="842.6940307617188,171.1719970703125 830.2650146484375,187.86700439453125 830.2650146484375,193.43399047851562 842.6940307617188,177.30099487304688 "/>
    <path d="m833.83,45.88c15.16,0 30.32,0 45.48,0" fill="none" id="svg_299" stroke="#407BFF" stroke-linecap="round" stroke-linejoin="round" stroke-miterlimit="10"/>
   </g>
  </g>
  <g id="Plants">
   <g id="svg_300">
    <path d="m831.32,569.93c2.64,-8.9 2.78,-18.52 0.4,-27.49c-3.76,9.37 -9.12,18.09 -15.79,25.67c-1.31,-12.22 -3.54,-24.34 -6.67,-36.22c-4.85,12.25 -6.87,25.61 -5.86,38.74c-7.39,-7.27 -15.38,-13.94 -23.87,-19.89c0.73,11.29 7.41,26.04 22.28,34.39l23.7,0.07c13.12,-3.54 22.99,-16.69 22.71,-30.28c-3.76,6.69 -9.81,12.06 -16.9,15.01z" fill="#263238" id="svg_301"/>
   </g>
   <g id="svg_302">
    <g id="svg_303">
     <path d="m552.25,562.61c-0.7,-1.17 -2.24,-2.61 -3.33,-3.42c-1.08,-0.82 -2.57,-1.23 -3.83,-0.71c-1.6,0.65 -2.34,2.62 -2.12,4.34c0.22,1.72 1.04,3.9 2.02,5.33c4.18,6.11 8.04,11.7 14.48,16.25c0,-7.59 -3.37,-15.32 -7.22,-21.79z" fill="#407BFF" id="svg_304"/>
    </g>
    <g id="svg_305">
     <path d="m573.5,563.66c-1.44,-0.79 -4.12,0.33 -5.44,1.32c-2.6,1.95 -4.19,4 -5.78,6.84c-2.02,3.61 -2.25,8.68 -2.51,11.9c5.1,-4.14 10.3,-8.38 13.79,-13.95c0.61,-0.97 1.18,-2.01 1.28,-3.15c0.11,-1.15 -0.34,-2.41 -1.34,-2.96z" fill="#407BFF" id="svg_306"/>
    </g>
    <path d="m553.83,571.5c3.02,4.86 5.19,10.24 6.4,15.83" fill="none" id="svg_307" stroke="#263238" stroke-linecap="round" stroke-linejoin="round" stroke-miterlimit="10" stroke-width="0.5"/>
    <path d="m565.45,573.97c-2.54,3.04 -4.54,6.52 -5.89,10.24" fill="none" id="svg_308" stroke="#263238" stroke-linecap="round" stroke-linejoin="round" stroke-miterlimit="10" stroke-width="0.5"/>
   </g>
  </g>
  <g id="Speech_Bubble" transform="matrix(1 0 0 1 0 0)">
   <g id="svg_309">
    <g id="svg_310">
     <path d="m183.74,109.42c14.87,-7.28 20.18,-28.37 12.85,-43.44c-7.37,-15.05 -24.73,-23.38 -41.19,-22.56c-16.46,0.84 -31.82,9.67 -43.56,21.45c-11.77,-14.77 -35.51,-17.46 -50.18,-5.66c-14.4,11.57 -12,35.32 -1.18,50.51c-12.67,6.33 -21.1,21.78 -18,36.06c3.81,17.6 24.22,29.26 40.9,23.38c-0.03,22.79 19.91,43.63 42.22,44.14c22.28,0.48 43.1,-19.45 44.04,-42.21c17.01,8.06 39.94,-3.34 44.21,-21.99c4.27,-18.64 -11.33,-39.23 -30.09,-39.7l-0.03,0.02l0.01,0z" fill="#407BFF" id="svg_311"/>
    </g>
    <path d="m199.51,199.67c0,5.33 -4.24,9.67 -9.49,9.67c-5.22,0 -9.46,-4.31 -9.46,-9.67c0,-5.33 4.24,-9.67 9.46,-9.67c5.24,0 9.49,4.34 9.49,9.67z" fill="#407BFF" id="svg_312"/>
    <g id="svg_313" opacity="0.8">
     <path d="m183.74,109.42c14.87,-7.28 20.18,-28.37 12.85,-43.44c-7.37,-15.05 -24.73,-23.38 -41.19,-22.56c-16.46,0.84 -31.82,9.67 -43.56,21.45c-11.77,-14.77 -35.51,-17.46 -50.18,-5.66c-14.4,11.57 -12,35.32 -1.18,50.51c-12.67,6.33 -21.1,21.78 -18,36.06c3.81,17.6 24.22,29.26 40.9,23.38c-0.03,22.79 19.91,43.63 42.22,44.14c22.28,0.48 43.1,-19.45 44.04,-42.21c17.01,8.06 39.94,-3.34 44.21,-21.99c4.27,-18.64 -11.33,-39.23 -30.09,-39.7l-0.03,0.02l0.01,0z" fill="#FFFFFF" id="svg_314"/>
    </g>
    <path d="m199.51,199.67c0,5.33 -4.24,9.67 -9.49,9.67c-5.22,0 -9.46,-4.31 -9.46,-9.67c0,-5.33 4.24,-9.67 9.46,-9.67c5.24,0 9.49,4.34 9.49,9.67z" fill="#FFFFFF" id="svg_315" opacity="0.8"/>
    <g id="svg_316">
     <path d="m125.78,131.19c1.32,-2.31 3.23,-4.85 5.77,-7.6c1.87,-2.03 3.22,-3.74 4.1,-5.13c0.87,-1.37 1.31,-2.96 1.31,-4.71c0,-2.5 -0.82,-4.48 -2.49,-5.94s-3.87,-2.17 -6.64,-2.17c-2.64,0 -5,0.66 -7.05,1.98c-2.05,1.31 -3.78,3.15 -5.18,5.52l-10.22,-7.19c2.37,-4.34 5.54,-7.66 9.58,-10.05c4.01,-2.36 8.78,-3.54 14.31,-3.54c6.49,0 11.68,1.65 15.58,4.96c3.9,3.31 5.86,7.89 5.86,13.79c0,2.75 -0.36,5.19 -1.14,7.28c-0.76,2.07 -1.69,3.87 -2.78,5.32c-1.09,1.45 -2.51,3.12 -4.27,5.01c-2.08,2.23 -3.6,4.1 -4.54,5.62c-0.96,1.54 -1.44,3.38 -1.44,5.52l-12.76,0c0,-3.49 0.67,-6.41 1.99,-8.69l0,0.02l0.01,0zm-1.37,30.7c-1.53,-1.61 -2.31,-3.56 -2.31,-5.87c0,-2.28 0.76,-4.21 2.26,-5.76c1.53,-1.54 3.46,-2.31 5.83,-2.31c2.35,0 4.28,0.76 5.82,2.31c1.53,1.54 2.28,3.48 2.28,5.76c0,2.31 -0.77,4.26 -2.32,5.87c-1.55,1.59 -3.46,2.4 -5.77,2.4c-2.31,0 -4.24,-0.81 -5.79,-2.4z" fill="#407BFF" id="svg_317"/>
    </g>
   </g>
  </g>
  <g id="Character" transform="matrix(1 0 0 1 0 0)">
   <g id="svg_318">
    <g id="svg_319">
     <path d="m910.72,496.33c-14.65,0 -28.54,-6.02 -38.09,-16.46c12.04,-9.81 10.66,-37.84 8.46,-53.31l5.17,4.63l24.28,21.83c-1.32,3.51 -2.15,7.18 -2.52,10.88c-0.5,7.93 2.74,15.05 15.08,18.42c2.92,5.2 1.63,14.4 -12.38,14.02l0,-0.01z" fill="#FDBBB5" id="svg_320"/>
     <path d="m910.54,453.01c-1.32,3.51 -2.15,7.18 -2.52,10.88c-12.65,4.19 -23.94,-8.06 -24.78,-21.15c-0.29,-4.55 2.24,-8.92 2.9,-11.51l24.4,21.78z" enable-background="new" id="svg_321" opacity="0.2"/>
     <path d="m941.65,395.32c2.95,8.02 1.97,24.63 -10.16,19.55c-12.13,-5.09 5.12,-33.23 10.16,-19.55z" fill="#263238" id="svg_322"/>
     <path d="m881.87,409.42c-0.66,20.8 -2.2,32.94 7.87,44.39c15.15,17.36 43.24,9.93 50.51,-10.29c6.55,-18.21 6.51,-49.15 -14.15,-59.04c-15.01,-7.18 -33.33,-1.54 -40.95,12.61c-2.06,3.83 -3.17,8.04 -3.29,12.33l0.01,0z" fill="#FDBBB5" id="svg_323"/>
     <path d="m933.33,400.2c15.37,-0.88 26.98,-15.79 7.84,-28.58c-4.51,-2.78 -9.45,-4.8 -14.69,-6c0,0 4.01,5.39 -0.07,9.43c-3.74,-8.55 -13.01,-13.77 -22.79,-12.8c2.58,4.46 -0.68,13.89 -8.03,11.13c-11.13,-4.17 -27.34,-1.85 -25.73,11.11c-14.31,7.18 -6.78,28.22 13.01,38.12c10.43,-8.31 8.59,-27.68 8.59,-27.68c10.52,4.02 27.96,5.91 41.85,5.26l0.02,0.01z" fill="#263238" id="svg_325"/>
     <path d="m872.88,386.16c0,0 -8.8,-5.05 -1.81,-12.06c-9.52,2.72 -6.73,9.85 1.81,12.06z" fill="#263238" id="svg_326"/>
     <path d="m874.18,388.25c0,0 -7.94,-6.21 -12.74,2.29c-0.34,-9.3 7.75,-9.16 12.74,-2.29z" fill="#263238" id="svg_327"/>
     <path d="m870.16,424.39c1.2,5.09 4.49,9.51 9.18,12.29c6.21,3.62 11.45,-1.2 11.45,-7.77c0.05,-5.89 -3.2,-15.01 -10.32,-15.87c-5.31,-0.53 -10.04,3.12 -10.59,8.12c-0.11,1.07 -0.02,2.17 0.27,3.22l0.01,0.01z" fill="#FDBBB5" id="svg_328"/>
     <g id="svg_329">
      <g id="svg_330">
       <path d="m908.37,416.81c-0.2,2.13 0.82,3.96 2.29,4.06c1.5,0.13 2.88,-1.52 3.08,-3.64c0.23,-2.13 -0.82,-3.96 -2.29,-4.06c-1.47,-0.13 -2.86,1.49 -3.08,3.64z" fill="#263238" id="svg_331"/>
       <path d="m931.56,419.67c-0.2,2.13 0.82,3.96 2.29,4.06c1.5,0.13 2.88,-1.49 3.08,-3.64c0.23,-2.13 -0.82,-3.94 -2.29,-4.06c-1.47,-0.13 -2.86,1.52 -3.08,3.64z" fill="#263238" id="svg_332"/>
       <path d="m927.18,417.8c0,0 6.1,11.22 7.96,15.74c-3.42,2.4 -8.73,0.67 -8.73,0.67l0.77,-16.42l0,0.01z" fill="#F7776A" id="svg_333"/>
       <path d="m905.87,410.03c0.29,0.23 0.7,0.32 1.07,0.17c4.47,-1.54 7.66,0.59 7.69,0.61c0.48,0.34 1.16,0.23 1.5,-0.21c0.36,-0.44 0.25,-1.05 -0.23,-1.39c-0.16,-0.11 -4.15,-2.8 -9.7,-0.86c-0.54,0.19 -0.82,0.76 -0.61,1.28c0.07,0.17 0.16,0.29 0.29,0.4l-0.01,0z" fill="#263238" id="svg_334"/>
      </g>
      <path d="m945.34,408.66c0.2,-0.06 0.39,-0.17 0.52,-0.32c0.39,-0.42 0.34,-1.07 -0.11,-1.43c-4.44,-3.6 -9.14,-2.29 -9.34,-2.25c-0.57,0.15 -0.88,0.72 -0.73,1.24c0.16,0.53 0.75,0.84 1.29,0.67c0.2,-0.06 3.83,-1.01 7.39,1.87c0.29,0.23 0.66,0.29 0.97,0.21l0.01,0.01z" fill="#263238" id="svg_335"/>
     </g>
     <g id="svg_336" opacity="0.2">
      <g id="svg_337">
       <path d="m875.67,418.81c2.92,-1.22 6.05,0.25 7.6,2.69c0.75,1.2 1.16,2.61 1.27,4c0.14,1.37 0.02,2.78 -0.91,3.89c-0.29,0.36 -0.07,0.88 0.29,1.09c0.43,0.23 0.88,0.04 1.16,-0.29c1.13,-1.35 1.32,-3.16 1.16,-4.8c-0.16,-1.77 -0.68,-3.54 -1.75,-5.05c-2.13,-3.03 -6.03,-4.42 -9.68,-2.9c-1,0.4 -0.14,1.77 0.86,1.37l0,0z" id="svg_338"/>
      </g>
     </g>
     <g id="svg_339">
      <g id="svg_340">
       <path d="m922.49,440.72c0.57,-0.4 1.2,-0.69 1.9,-0.82c0.25,-0.06 0.43,-0.06 0.7,-0.06c-0.02,0 -0.09,-0.02 -0.02,0c0.02,0 0.05,0 0.09,0c0,0 0.09,0.04 0.02,0.02c-0.07,-0.04 0,0 0.02,0c0.05,0.04 0.07,0.06 0.02,0.02c0.02,0.02 0.05,0.02 0.07,0.04c-0.07,-0.04 0,0.02 0,0.04c0.02,0.04 0.05,0.06 0.07,0.11c0.11,0.23 0.48,0.29 0.7,0.17c0.25,-0.13 0.29,-0.4 0.18,-0.63c-0.16,-0.34 -0.5,-0.61 -0.88,-0.69c-0.34,-0.06 -0.7,-0.02 -1.07,0.04c-0.93,0.15 -1.79,0.57 -2.54,1.12c-0.2,0.15 -0.18,0.51 0,0.65c0.23,0.21 0.52,0.17 0.73,0l0,0l0.01,-0.01z" fill="#263238" id="svg_341"/>
      </g>
     </g>
    </g>
    <g id="svg_342">
     <polygon fill="#263238" id="svg_343" points="782.9184265136719,1106.5496826171875 803.8815307617188,1113.5499267578125 827.0596923828125,1069.7625732421875 797.0842895507812,1059.95849609375 "/>
     <polygon fill="#FFFFFF" id="svg_344" opacity="0.5" points="782.9184265136719,1106.5496826171875 803.8815307617188,1113.5499267578125 827.0596923828125,1069.7625732421875 797.0842895507812,1059.95849609375 "/>
     <polygon fill="#263238" id="svg_345" points="950.1241149902344,1109.3721923828125 972.3251342773438,1108.0755615234375 975.4312744140625,1059.2347412109375 943.7758483886719,1061.2802734375 "/>
     <polygon fill="#FFFFFF" id="svg_346" opacity="0.5" points="950.1241149902344,1109.3721923828125 972.3251342773438,1108.0755615234375 975.4312744140625,1059.2347412109375 943.7758483886719,1061.2802734375 "/>
     <path d="m803.85,1107.49l-24.17,-3.66c-0.88,-0.13 -1.77,0.34 -2.11,1.14l-7.69,17.68c-0.68,1.56 0.09,3.33 1.75,3.98c0.27,0.11 0.59,0.17 0.88,0.21c8.71,1.14 21.33,2.57 32.24,4.25c12.7,1.94 20.97,2.36 35.91,4.61c9.05,1.39 13.1,-6.82 9.43,-8.15c-16.57,-6.15 -27.91,-6.76 -41.24,-17.72c-1.41,-1.2 -3.15,-2 -5.01,-2.34l0.01,0z" fill="#263238" id="svg_347"/>
     <path d="m805.23,1110.2c0,-0.21 0.14,-0.38 0.36,-0.44c1.09,-0.34 10.68,-3.24 13.2,-1.3c0.45,0.34 0.7,0.88 0.63,1.43c-0.09,0.91 -0.61,1.73 -1.41,2.23c-2.79,1.62 -8.96,-0.13 -12.38,-1.33l0,0c-0.29,-0.06 -0.48,-0.32 -0.41,-0.59c0,0 0,0 0,0l0.01,0zm2.2,0.04c4.72,1.49 8.37,1.85 9.95,0.93c0.52,-0.32 0.86,-0.88 0.88,-1.47c0.07,-0.23 -0.02,-0.46 -0.23,-0.59l-0.18,-0.02c-1.54,-0.84 -6.67,0.13 -10.43,1.16l0,0l0.01,-0.01z" fill="#407BFF" id="svg_348"/>
     <path d="m805.36,1110.56c-0.14,-0.11 -0.18,-0.32 -0.11,-0.48c0.75,-2.88 2.45,-5.47 4.83,-7.41c0.91,-0.53 2,-0.67 3.04,-0.42c1.41,0.38 1.7,1.12 1.7,1.66c0,2.42 -6.08,6.08 -8.96,6.78c-0.11,0.04 -0.25,0.02 -0.39,-0.04l-0.11,-0.08l0,-0.01zm7.6,-7.32c-0.75,-0.19 -1.54,-0.08 -2.22,0.29c-1.97,1.54 -3.4,3.6 -4.13,5.91c2.99,-1.12 7.12,-4.08 7.32,-5.49c0,0 0.05,-0.32 -0.41,-0.53c-0.23,-0.11 -0.45,-0.17 -0.68,-0.21l0.11,0.02l0.01,0.01z" fill="#407BFF" id="svg_349"/>
     <path d="m970.13,1104.52l-24.35,0.95c-0.91,0.04 -1.66,0.67 -1.84,1.49l-3.74,18.77c-0.34,1.66 0.79,3.24 2.54,3.56c0.29,0.06 0.59,0.08 0.91,0.04c8.77,-0.48 21.45,-1.45 32.49,-1.85c12.88,-0.48 21.06,-1.62 36.16,-2.21c9.18,-0.34 11.43,-9.13 7.57,-9.77c-17.57,-2.9 -28.79,-1.39 -44.19,-9.62c-1.68,-0.95 -3.6,-1.41 -5.55,-1.37l0,0.01z" fill="#263238" id="svg_350"/>
     <path d="m972.08,1106.94c-0.05,-0.21 0.05,-0.4 0.25,-0.51c1,-0.55 9.79,-5.18 12.65,-3.75c0.52,0.23 0.88,0.72 0.93,1.28c0.16,0.91 -0.18,1.83 -0.91,2.44c-2.38,2.1 -8.77,1.56 -12.38,1.01l0,0c-0.27,-0.04 -0.5,-0.23 -0.54,-0.48l0,0.01zm2.15,-0.36c4.94,0.57 8.64,0.23 9.95,-0.97c0.48,-0.4 0.7,-1.01 0.57,-1.62c0,-0.21 -0.11,-0.42 -0.32,-0.53l-0.2,0.02c-1.7,-0.55 -6.42,1.37 -10,3.09l0,0l0,0.01z" fill="#407BFF" id="svg_351"/>
     <path d="m972.28,1107.25c-0.16,-0.08 -0.23,-0.25 -0.23,-0.44c0.14,-2.97 1.25,-5.81 3.2,-8.17c0.77,-0.69 1.81,-1.05 2.9,-0.99c1.45,0.11 1.88,0.78 2.02,1.33c0.48,2.36 -4.69,7.09 -7.35,8.31c-0.14,0.04 -0.27,0.06 -0.41,0.02l-0.14,-0.06l0.01,0zm5.89,-8.59c-0.79,-0.06 -1.56,0.19 -2.15,0.69c-1.63,1.87 -2.61,4.17 -2.79,6.57c2.7,-1.64 6.1,-5.33 6.01,-6.76c0,0 -0.02,-0.29 -0.5,-0.42l-0.57,-0.08z" fill="#407BFF" id="svg_352"/>
     <path d="m979.15,1085.83l-42.49,2.84c0,0 -10.43,-117.59 -15.58,-182.71c-2.68,-25.91 -6.94,-51.65 -12.79,-77.1c-8,-37.25 -18.25,-77.52 -26.62,-109.07c-8.86,-33.21 -15.67,-56.83 -15.67,-56.83l83.32,-1.45c0,0 29.36,161.96 33.08,225.69c3.74,66.72 -3.26,198.63 -3.26,198.63l0.01,0z" fill="#263238" id="svg_353"/>
     <path d="m908.3,828.86c-8,-37.25 -18.25,-77.52 -26.62,-109.07l8.46,-16.33c18.73,21.87 22.54,88.99 18.16,125.4z" enable-background="new" id="svg_354" opacity="0.2"/>
     <path d="m829.65,646.17c0,0 -10.5,30.35 -6.39,94l41.9,12.14l29,-43.02l55.53,-1.77l-0.39,-31.3l0.86,-16.94l-120.5,-13.11l-0.01,0z" fill="#263238" id="svg_355"/>
     <path d="m901.88,661.02c0,0 -13.26,181.11 -21.56,242.13c-9.07,66.85 -57.25,193.7 -57.25,193.7l-44.89,-5.94c0,0 33.78,-115.76 38.29,-182.57c3.85,-56.87 6.85,-167.94 8.07,-217.74c0.27,-14.27 12.18,-25.93 27.3,-26.75l50.04,-2.84l0,0.01z" fill="#263238" id="svg_356"/>
     <g id="svg_357" opacity="0.2">
      <g id="svg_358">
       <path d="m833.02,688.72c13.65,-2.21 25.28,-11.45 30.11,-23.45c0.39,-0.95 -1.25,-1.35 -1.63,-0.42c-4.65,11.51 -15.89,20.23 -28.93,22.35c-1.09,0.17 -0.63,1.7 0.45,1.52l0,0z" id="svg_359"/>
      </g>
     </g>
     <g id="svg_360" opacity="0.2">
      <g id="svg_361">
       <path d="m951.04,689.31c-6.21,-3.87 -11.25,-9.39 -14.13,-15.83c-0.41,-0.93 -2.06,-0.51 -1.63,0.42c3.04,6.86 8.28,12.65 14.9,16.77c0.93,0.57 1.77,-0.8 0.86,-1.37l0,0l0,0.01z" id="svg_362"/>
      </g>
     </g>
    </g>
    <g id="svg_363">
     <path d="m944.27,486.49l3.67,53.08l-1.7,17.36c4.04,3.51 8.25,6.84 12.65,9.96c16.82,10.08 22.83,11.45 31.36,12.38l1.07,-2.57c0,0 -9.39,-23.55 -25.03,-54.45c-0.02,0.08 -13.29,-34.5 -22.02,-35.76z" fill="#407BFF" id="svg_364"/>
     <path d="m944.27,486.49l3.67,53.08l-1.7,17.36c4.04,3.51 8.25,6.84 12.65,9.96c16.82,10.08 22.83,11.45 31.36,12.38l1.07,-2.57c0,0 -9.39,-23.55 -25.03,-54.45c-0.02,0.08 -13.29,-34.5 -22.02,-35.76z" enable-background="new" fill="#FFFFFF" id="svg_365" opacity="0.5"/>
     <path d="m947.94,539.58l-1.7,17.36c4.04,3.51 8.25,6.84 12.65,9.96c2.99,-15.72 -8.89,-30.56 -8.89,-30.56c-0.86,0.97 -1.54,2.06 -2.06,3.24z" enable-background="new" id="svg_366" opacity="0.2"/>
     <path d="m833.02,483.82c3.36,23.19 4.87,46.58 4.51,69.98c-0.14,16.35 -1.16,31.89 -2.2,45.9c-2.68,32.88 -9.32,51.76 -9.43,60.3l125.79,4.71c7.6,-81.62 -4.26,-176.72 -4.26,-176.72c-9.09,-2.69 -8.21,-2.06 -17.59,-3.66c-2,-0.38 -4.01,-0.65 -6.08,-0.95c-16.8,-1.73 -33.69,-2.53 -50.58,-2.42c-3.24,0 -6.46,0.06 -9.68,0.19c-16.05,0.61 -30.47,2.65 -30.47,2.65l-0.01,0.02z" fill="#407BFF" id="svg_367"/>
     <path d="m833.02,483.82c3.36,23.19 4.87,46.58 4.51,69.98c-0.14,16.35 -1.16,31.89 -2.2,45.9c-2.68,32.88 -9.32,51.76 -9.43,60.3l125.79,4.71c7.6,-81.62 -4.26,-176.72 -4.26,-176.72c-9.09,-2.69 -8.21,-2.06 -17.59,-3.66c-2,-0.38 -4.01,-0.65 -6.08,-0.95c-16.8,-1.73 -33.69,-2.53 -50.58,-2.42c-3.24,0 -6.46,0.06 -9.68,0.19c-16.05,0.61 -30.47,2.65 -30.47,2.65l-0.01,0.02z" enable-background="new" fill="#FFFFFF" id="svg_368" opacity="0.5"/>
     <path d="m868.04,481.06l10.91,-11.45c0.11,-0.32 27.16,13.83 27.16,13.83c0.54,0 5.03,-9.62 5.03,-9.62l18.66,10.54c0,0 -12.15,17.87 -12.76,18.06c-0.59,0.21 -22.79,-1.89 -22.79,-1.89l-26.21,-19.47z" fill="#407BFF" id="svg_369"/>
     <path d="m868.07,481.06l10.91,-11.45c0.11,-0.32 27.16,13.83 27.16,13.83c0.54,0 5.03,-9.62 5.03,-9.62l18.66,10.54c0,0 -12.15,17.87 -12.76,18.06c-0.59,0.21 -22.79,-1.89 -22.79,-1.89l-26.21,-19.47z" enable-background="new" fill="#FFFFFF" id="svg_370" opacity="0.5"/>
     <path d="m913.75,500.64c2.97,10.48 14.4,116.29 17.05,143.31l-13.44,14.35l-13.42,-14.69c-0.25,-25.89 5.89,-129.08 2.92,-142.41l6.89,-0.57l0,0.01z" fill="#407BFF" id="svg_371"/>
     <polygon fill="#407BFF" id="svg_372" points="907.524169921875,502.59686279296875 913.6910705566406,502.25384521484375 915.4911804199219,493.5821533203125 906.0187377929688,487.4425048828125 900.1782531738281,496.261474609375 "/>
     <path d="m868.07,481.06c0,0 27.21,25.43 27.3,25.13c0.11,-0.32 10.66,-18.75 10.66,-18.75l-10.11,13.95l-27.84,-20.33l-0.01,0z" enable-background="new" id="svg_373" opacity="0.2"/>
     <polygon id="svg_374" opacity="0.2" points="906.0187377929688,487.4425048828125 921.8645324707031,497.28228759765625 929.8203125,484.36956787109375 922.3474426269531,500.494140625 "/>
     <g id="svg_375" opacity="0.2">
      <g id="svg_376">
       <path d="m953.66,563.15c-0.34,-17.26 -1.18,-34.5 -1.5,-51.76c-0.02,-1.03 -1.72,-1.03 -1.7,0c0.32,17.26 1.16,34.5 1.5,51.76c0.02,1.01 1.72,1.03 1.7,0l0,0z" id="svg_377"/>
      </g>
     </g>
     <path d="m837.16,568.89c0,0 17.12,30.29 32.67,35.17c15.58,4.86 84.39,-1.6 84.39,-1.6l0.14,-12.04l-76.81,-4.1c0,0 -40.86,-40.26 -40.29,-40.01c0.59,0.27 -0.09,22.58 -0.09,22.58l-0.01,0z" id="svg_378" opacity="0.3"/>
     <path d="m970.09,575.27l25.35,-4.15l0.91,-2.29c0,0 -0.77,-4.46 -12.9,-1.47c-12.13,2.97 -14.87,6.02 -14.87,6.02c0.39,0.72 0.91,1.35 1.52,1.89l-0.01,0z" enable-background="new" id="svg_379" opacity="0.2"/>
     <g id="svg_380" opacity="0.2">
      <g id="svg_381">
       <path d="m840,488.89c10.54,4.9 14.44,16.19 19.09,25.47c5.46,11.01 10.86,22.06 16.19,33.13c1.61,3.35 3.26,6.67 4.81,10.06c0.43,0.93 1.88,0.13 1.47,-0.8c-8.55,-18.8 -17.75,-37.49 -27.43,-55.82c-2.95,-5.6 -7.1,-10.54 -13.26,-13.41c-0.97,-0.46 -1.84,0.91 -0.86,1.37l0,0l-0.01,0z" id="svg_382"/>
      </g>
     </g>
     <g id="svg_386">
      <g id="svg_387">
       <path d="m1000.91,582.87c0,-0.04 -0.02,-0.06 -0.02,-0.11l-3.6,-9.01c-0.02,-0.02 -0.05,-0.06 -0.05,-0.11c-1.7,-3.87 -6.39,-5.72 -10.52,-4.15l-4.85,1.68c0,0 -9.18,2.19 -17.73,7.09c-13.17,-0.21 -26.5,-0.65 -39.47,-1.37c-10.32,-0.51 -20.56,-1.77 -30.7,-3.73c-3.54,-0.59 -6.89,-1.87 -9.89,-3.75c-9.89,-14.71 -25.89,-46.12 -35.17,-62.85l0.14,0.02c-10.52,-18.27 -39.16,-5.05 -30.34,13.95c12.29,23.51 24.65,46.98 42.35,67.54c14.85,15.07 44.14,12.97 63.8,12.21c12.99,-0.93 25.87,-2.65 38.63,-5.05c0.07,0.04 0.14,0.08 0.2,0.13c3.11,1.75 6.94,1.94 10.34,0.84l12.86,-4.19c0.43,0.55 4.33,3.3 7.46,1.54l0.45,-0.13c4.81,-1.33 7.78,-6.15 6.1,-10.59l0.01,0.04z" fill="#FDBBB5" id="svg_388"/>
       <path d="m849.84,578.13l29.54,-16.92l-18.73,-47.08c0,0 -14.42,-37.28 -30.13,-29.45c-27.64,13.85 -13.81,48.66 19.32,93.45z" fill="#407BFF" id="svg_389"/>
       <path d="m849.84,578.13l29.54,-16.92l-18.73,-47.08c0,0 -14.42,-37.28 -30.13,-29.45c-27.64,13.85 -13.81,48.66 19.32,93.45z" enable-background="new" fill="#FFFFFF" id="svg_390" opacity="0.5"/>
       <polygon fill="#407BFF" id="svg_391" points="883.0990295410156,555.9103393554688 842.1341247558594,580.2139892578125 855.8760375976562,590.5673828125 888.3703308105469,565.2996215820312 "/>
       <polygon fill="#FFFFFF" id="svg_392" opacity="0.3" points="883.0990295410156,555.9103393554688 842.1341247558594,580.2139892578125 855.8760375976562,590.5673828125 888.3703308105469,565.2996215820312 "/>
      </g>
      <path d="m987.03,592c0,0 7.26,-2.93 7.01,-2.78c-0.27,0.13 -5.08,4.17 -5.08,4.17s-1.56,-0.51 -1.93,-1.39z" enable-background="new" id="svg_393" opacity="0.2"/>
     </g>
    </g>
   </g>
  </g>
  <g id="svg_431">
   <g id="svg_432">
    <g id="svg_433"/>
    <g id="svg_437">
     <path d="m261.7,442.81c-0.71,-0.43 -192.51,0.96 -193.01,-0.19c-37.44,-69.19 -45.72,-42.04 1.28,-104.95c1.42,0 191.65,-2.09 192.51,0.64c-0.8,1.06 1.49,105.02 -0.79,104.5l0.01,0z" fill="#407BFF" id="svg_438"/>
     <path d="m261.7,442.81c-0.71,-0.43 -192.51,0.96 -193.01,-0.19c-37.44,-69.19 -45.72,-42.04 1.28,-104.95c1.42,0 191.65,-2.09 192.51,0.64c-0.8,1.06 1.49,105.02 -0.79,104.5l0.01,0z" id="svg_439" opacity="0.3"/>
     <path d="m261.7,435.14c-0.74,-0.45 -191.21,0.8 -191.72,-0.39c0,0 -32.16,-53.18 -32.16,-53.18c-1.25,-1.7 32.12,-53.23 32.16,-54.51c1.34,-0.06 191.75,-2.13 192.51,0.64c-0.74,1.04 1.45,107.97 -0.79,107.44z" fill="#407BFF" id="svg_440"/>
     <g id="svg_441">
      <g id="svg_442">
       <path d="m250.62,338.98c-0.05,5.37 5.39,5.37 5.34,0c0.05,-5.37 -5.39,-5.37 -5.34,0z" fill="#263238" id="svg_443"/>
       <path d="m250.62,338.98c-0.05,5.37 5.39,5.37 5.34,0c0.05,-5.37 -5.39,-5.37 -5.34,0z" enable-background="new" fill="#FFFFFF" id="svg_444" opacity="0.5"/>
      </g>
      <g id="svg_445">
       <path d="m250.62,420.85c-0.05,5.37 5.39,5.37 5.34,0c0.05,-5.37 -5.39,-5.37 -5.34,0z" fill="#263238" id="svg_446"/>
       <path d="m250.62,420.85c-0.05,5.37 5.39,5.37 5.34,0c0.05,-5.37 -5.39,-5.37 -5.34,0z" enable-background="new" fill="#FFFFFF" id="svg_447" opacity="0.5"/>
      </g>
     </g>
     <g id="svg_448">
      <g id="svg_449">
       <path d="m71.88,338.98c-0.05,5.37 5.39,5.37 5.34,0c0.05,-5.37 -5.39,-5.37 -5.34,0z" fill="#263238" id="svg_450"/>
       <path d="m71.88,338.98c-0.05,5.37 5.39,5.37 5.34,0c0.05,-5.37 -5.39,-5.37 -5.34,0z" enable-background="new" fill="#FFFFFF" id="svg_451" opacity="0.5"/>
      </g>
      <g id="svg_452">
       <path d="m71.88,420.85c-0.05,5.37 5.39,5.37 5.34,0c0.05,-5.37 -5.39,-5.37 -5.34,0z" fill="#263238" id="svg_453"/>
       <path d="m71.88,420.85c-0.05,5.37 5.39,5.37 5.34,0c0.05,-5.37 -5.39,-5.37 -5.34,0z" enable-background="new" fill="#FFFFFF" id="svg_454" opacity="0.5"/>
      </g>
     </g>
    </g>
    <g id="svg_455">
     <path d="m102.73,375.27l0,6.54l12.59,0l0,9.7l-12.59,0l0,12.2l-10.18,0l0,-38.12l24.54,0l0,9.7l-14.37,0l0.01,-0.01l0,-0.01z" fill="#FFFFFF" id="svg_456"/>
     <path d="m139.82,397.05l-11.47,0l-2.03,6.64l-10.35,0l13.21,-38.12l9.98,0l13.21,38.12l-10.54,0l-2.02,-6.64l0.01,0zm-2.79,-9.25l-2.94,-9.59l-2.93,9.59l5.87,0z" fill="#FFFFFF" id="svg_457"/>
     <path d="m153.98,365.58l10.18,0l0,28.16l13.64,0l0,9.96l-23.8,0l0,-38.12l-0.01,0z" fill="#FFFFFF" id="svg_458"/>
     <path d="m178.69,400.66l3.27,-9.37c2.84,2.13 6.64,3.48 9.97,3.48c2.88,0 3.92,-0.74 3.92,-2.07c0,-4.78 -16.7,-0.93 -16.7,-15.14c0,-7.07 4.72,-12.86 14.08,-12.86c4.07,0 8.25,1.09 11.38,3.32l-3.05,9.33c-2.98,-1.91 -5.78,-2.85 -8.42,-2.85c-2.96,0 -3.93,1.09 -3.93,2.42c0,4.57 16.7,0.74 16.7,14.79c0,6.99 -4.69,12.86 -14.08,12.86c-5.04,0 -10.13,-1.56 -13.15,-3.9l-0.01,-0.01l0.01,0z" fill="#FFFFFF" id="svg_459"/>
     <path d="m234.04,394l0,9.7l-25.12,0l0,-38.12l24.54,0l0,9.7l-14.53,0l0,4.47l12.77,0l0,9.27l-12.77,0l0,5l15.11,0l0,-0.01l0,-0.01z" fill="#FFFFFF" id="svg_460"/>
    </g>
    <path d="m110.69,326.66c0,0 17.36,13.82 34.95,30.33c14.13,13.29 44.05,46.24 31.76,59.84c-12.27,13.57 -15.29,18.49 -14.58,18.44c0.72,-0.06 23.71,0 23.71,0s8.5,-22.56 0,-40.75c-8.5,-18.19 -26.77,-34.66 -29.6,-51.39c-2.84,-16.73 5.89,-16.86 5.89,-16.86l-52.14,0.39l0.01,0z" fill="#FFFFFF" id="svg_461" opacity="0.2"/>
    <path d="m158.29,318c26.03,0 52.05,0 78.08,0" fill="none" id="svg_464" stroke="#407BFF" stroke-linecap="round" stroke-linejoin="round" stroke-miterlimit="10"/>
   </g>
  </g>
  <g id="svg_397">
   <g id="svg_398">
    <g id="svg_403">
     <path d="m251.93,231.03l195.87,0.19c0.24,0 0.47,-0.14 0.63,-0.4l31.43,-55.09c0.24,-0.4 0.33,-10.34 0.11,-10.73l-32.83,-45.51c-0.15,-0.25 -0.39,-0.4 -0.63,-0.4l-194.58,0c-0.45,0 -0.83,0.48 -0.83,1.07l0,109.75c0,0.62 0.36,1.1 0.83,1.1l0,0.01l0,0.01z" fill="#407BFF" id="svg_404"/>
     <path d="m251.93,231.03l195.87,0.19c0.24,0 0.47,-0.14 0.63,-0.4l31.43,-55.09c0.24,-0.4 0.33,-10.34 0.11,-10.73l-32.83,-45.51c-0.15,-0.25 -0.39,-0.4 -0.63,-0.4l-194.58,0c-0.45,0 -0.83,0.48 -0.83,1.07l0,109.75c0,0.62 0.36,1.1 0.83,1.1l0,0.01l0,0.01z" id="svg_405" opacity="0.3"/>
     <path d="m251.93,222.89l194.58,0c0.24,0 0.47,-0.17 0.63,-0.42l32.72,-56.41c0.24,-0.42 0.24,-1.01 0,-1.41l-32.72,-56.41c-0.15,-0.28 -0.39,-0.42 -0.63,-0.42l-194.58,0c-0.45,0 -0.83,0.51 -0.83,1.1l0,112.85c0,0.62 0.36,1.12 0.83,1.12z" fill="#407BFF" id="svg_406"/>
     <g id="svg_407">
      <g id="svg_408">
       <path d="m263.2,120.88c0,2.43 -1.22,4.39 -2.73,4.39s-2.73,-1.97 -2.73,-4.39s1.22,-4.39 2.73,-4.39s2.73,1.97 2.73,4.39z" fill="#263238" id="svg_409"/>
       <path d="m263.2,120.88c0,2.43 -1.22,4.39 -2.73,4.39s-2.73,-1.97 -2.73,-4.39s1.22,-4.39 2.73,-4.39s2.73,1.97 2.73,4.39z" enable-background="new" fill="#FFFFFF" id="svg_410" opacity="0.5"/>
      </g>
      <g id="svg_411">
       <path d="m263.2,207.73c0,2.43 -1.22,4.39 -2.73,4.39s-2.73,-1.97 -2.73,-4.39s1.22,-4.39 2.73,-4.39s2.73,1.97 2.73,4.39z" fill="#263238" id="svg_412"/>
       <path d="m263.2,207.73c0,2.43 -1.22,4.39 -2.73,4.39s-2.73,-1.97 -2.73,-4.39s1.22,-4.39 2.73,-4.39s2.73,1.97 2.73,4.39z" enable-background="new" fill="#FFFFFF" id="svg_413" opacity="0.5"/>
      </g>
     </g>
     <g id="svg_414">
      <g id="svg_415">
       <path d="m445.2,120.88c0,2.43 -1.22,4.39 -2.73,4.39c-1.51,0 -2.73,-1.97 -2.73,-4.39s1.22,-4.39 2.73,-4.39c1.51,0 2.73,1.97 2.73,4.39z" fill="#263238" id="svg_416"/>
       <path d="m445.2,120.88c0,2.43 -1.22,4.39 -2.73,4.39c-1.51,0 -2.73,-1.97 -2.73,-4.39s1.22,-4.39 2.73,-4.39c1.51,0 2.73,1.97 2.73,4.39z" enable-background="new" fill="#FFFFFF" id="svg_417" opacity="0.5"/>
      </g>
      <g id="svg_418">
       <path d="m445.2,207.73c0,2.43 -1.22,4.39 -2.73,4.39c-1.51,0 -2.73,-1.97 -2.73,-4.39s1.22,-4.39 2.73,-4.39c1.51,0 2.73,1.97 2.73,4.39z" fill="#263238" id="svg_419"/>
       <path d="m445.2,207.73c0,2.43 -1.22,4.39 -2.73,4.39c-1.51,0 -2.73,-1.97 -2.73,-4.39s1.22,-4.39 2.73,-4.39c1.51,0 2.73,1.97 2.73,4.39z" enable-background="new" fill="#FFFFFF" id="svg_420" opacity="0.5"/>
      </g>
     </g>
     <g id="svg_421">
      <path d="m295.55,158.85l-10.68,0l0,-10.56l33.71,0l0,10.56l-10.7,0l0,29.9l-12.31,0l0,-29.9l-0.01,0z" fill="#FFFFFF" id="svg_422"/>
      <path d="m337.38,178.58l-3.33,0l0,10.18l-12.31,0l0,-40.46l17.58,0c10.17,0 16.67,5.89 16.67,15.25c0,5.83 -2.52,10.22 -6.88,12.73l7.66,12.48l-13.16,0l-6.2,-10.18l-0.01,0zm1.16,-19.78l-4.5,0l0,9.46l4.5,0c3.38,0 5.02,-1.77 5.02,-4.73s-1.63,-4.73 -5.02,-4.73z" fill="#FFFFFF" id="svg_423"/>
      <path d="m360.29,170.53l0,-22.23l12.31,0l0,21.84c0,6.2 2.13,8.51 5.59,8.51c3.43,0 5.57,-2.31 5.57,-8.51l0,-21.84l12.11,0l0,22.23c0,12.14 -6.58,19.13 -17.79,19.13c-11.22,0 -17.8,-6.99 -17.8,-19.13z" fill="#FFFFFF" id="svg_424"/>
      <path d="m431.86,178.47l0,10.28l-30.35,0l0,-40.46l29.69,0l0,10.28l-17.58,0l0,4.73l15.44,0l0,9.84l-15.44,0l0,5.3l18.24,0l0,0.02l0,0.01z" fill="#FFFFFF" id="svg_425"/>
     </g>
    </g>
    <path d="m392.75,107.81c0,0 -17.67,14.65 -35.57,32.18c-14.4,14.09 -44.85,49.06 -32.36,63.48c12.5,14.4 15.58,19.62 14.84,19.55c-0.74,-0.06 -24.14,0 -24.14,0s-8.65,-23.92 0,-43.23c8.65,-19.28 27.25,-36.77 30.13,-54.52c2.88,-17.76 -6,-17.86 -6,-17.86l53.09,0.4l0.01,0z" fill="#FFFFFF" id="svg_426" opacity="0.2"/>
    <path d="m259.96,253.13c20.35,0 40.69,0 61.03,0" fill="none" id="svg_430" stroke="#407BFF" stroke-linecap="round" stroke-linejoin="round" stroke-miterlimit="10"/>
   </g>
  </g>
  <g id="svg_482" transform="matrix(1 0 0 1 0 0)">
   <g id="svg_483">
    <g id="svg_484">
     <path d="m651.8,92.41c-25.14,4.54 -44.78,12.65 -43.88,18.14l0.42,2.55l0,0c0.91,5.48 22.03,6.25 47.17,1.7c25.14,-4.53 44.79,-12.65 43.88,-18.13l-0.42,-2.55c-0.91,-5.48 -22.03,-6.25 -47.17,-1.71z" fill="#407BFF" id="svg_485"/>
     <ellipse cx="794.27" cy="129.07" fill="#FFFFFF" id="svg_486" opacity="0.2" rx="59.42" ry="12.41" transform="matrix(0.766098 -0.138231 0.132477 0.799369 28.2847 111.504)"/>
     <path d="m653.13,100.38c-22.51,4.06 -40.1,11.33 -39.28,16.24l0.7,4.24l0,0c0.82,4.91 19.72,5.59 42.23,1.53c22.51,-4.06 40.1,-11.33 39.28,-16.23l0,0l-0.7,-4.24c-0.82,-4.91 -19.72,-5.6 -42.23,-1.53l0,-0.01z" fill="#407BFF" id="svg_487"/>
     <path d="m614.54,120.86c0.82,4.91 19.72,5.59 42.23,1.53c22.51,-4.06 40.1,-11.33 39.28,-16.24c-0.81,-4.91 -19.72,-5.59 -42.23,-1.53c-22.51,4.06 -40.1,11.33 -39.28,16.24z" fill="#FFFFFF" id="svg_488" opacity="0.2"/>
    </g>
    <g id="svg_489">
     <path d="m676.63,164.78c-4.2,-2.31 -5.16,-8.1 -1.95,-11.75c9.12,-10.36 20.16,-26.85 17.36,-43.78c-0.61,-3.63 -17.37,-3.63 -37.44,-0.02c-20.08,3.63 -35.86,9.51 -35.27,13.13c2.81,16.93 18.51,28.6 30.44,35.16c4.2,2.3 5.15,8.1 1.95,11.75c-9.13,10.35 -20.17,26.84 -17.36,43.77c0.61,3.63 17.37,3.64 37.44,0.02c20.07,-3.63 35.86,-9.51 35.27,-13.13c-2.81,-16.93 -18.52,-28.6 -30.44,-35.15z" fill="#407BFF" id="svg_490"/>
     <path d="m676.63,164.78c-4.2,-2.31 -5.16,-8.1 -1.95,-11.75c9.12,-10.36 20.16,-26.85 17.36,-43.78c-0.61,-3.63 -17.37,-3.63 -37.44,-0.02c-20.08,3.63 -35.86,9.51 -35.27,13.13c2.81,16.93 18.51,28.6 30.44,35.16c4.2,2.3 5.15,8.1 1.95,11.75c-9.13,10.35 -20.17,26.84 -17.36,43.77c0.61,3.63 17.37,3.64 37.44,0.02c20.07,-3.63 35.86,-9.51 35.27,-13.13c-2.81,-16.93 -18.52,-28.6 -30.44,-35.15z" fill="#FFFFFF" id="svg_491" opacity="0.8"/>
    </g>
    <g id="svg_492">
     <path d="m705.28,200.91c0.36,3.8 -64.31,16.94 -68.61,11.11c-0.75,-1.01 -1.09,-2.51 -0.48,-4.5c0.32,-1.09 0.94,-2.34 1.93,-3.74c2,-2.82 6.41,-4.06 9.39,-5.19c2.01,-0.77 4.05,-1.48 6.07,-2.21c2.18,-0.79 4.42,-0.24 6.31,-1.97c1.14,-1.03 1.98,-2.56 3.44,-2.94c1.07,-0.28 2.23,0.17 3.3,-0.13c1.38,-0.39 2.37,-1.95 3.8,-1.97c0.72,-0.02 1.38,0.37 2.08,0.53c1.24,0.28 2.52,-0.15 3.79,-0.28c1.25,-0.11 2.51,0.09 3.76,0.28c3.86,0.63 7.76,1.47 11.68,1.68c2.89,0.16 6.08,0.09 8.89,0.92c1.1,0.32 2.08,1.31 2.86,2.63l0.01,0.01c0.94,1.6 1.59,3.7 1.79,5.78l-0.01,-0.01z" fill="#263238" id="svg_493"/>
     <path d="m683.84,192.67c0.05,0.03 0.01,0.02 -0.13,-0.03c0.05,0.01 0.09,0.02 0.13,0.03z" fill="#FFFFFF" id="svg_494" opacity="0.2"/>
     <path d="m703.48,195.12c-1.79,-1.69 -5.09,-1.57 -6.04,-1.5c-0.95,0.07 -1.28,-0.77 -2.01,-1.05c-0.71,-0.26 -4.94,0.29 -4.94,0.29s1.59,0.32 1.88,0.85c0.26,0.5 2.1,-0.08 2.33,-0.15c-0.24,0.15 -2.4,1.33 -3.42,0.62c-1.09,-0.76 -1.44,0.62 -2.25,0.96c-0.82,0.35 -3.36,0.01 -3.77,-0.14c-0.4,-0.14 -3.65,-0.02 -3.65,-0.02s1.4,-0.86 2.08,-0.78c0.68,0.08 3.41,-1.42 2.85,-1.31c-0.56,0.1 -1.83,-0.67 -2.83,-1c-0.6,-0.19 -2.53,0.06 -3.62,0.24c1.31,-0.11 3.04,0.37 3.58,0.52c-0.37,-0.02 -1.06,0.37 -2.32,0.77c-1.46,0.46 -1.4,0.25 -2.15,0.38c-0.75,0.14 -1.45,1.17 -1.45,1.17s-1.28,0.33 -2.7,0.49c-1.42,0.15 -2.65,-0.32 -2.65,-0.32l2.46,-0.84c0,0 0,0 -0.84,-0.25c-0.82,-0.25 -0.79,-0.26 -1.77,-0.43c-1,-0.17 -1.41,0.8 -1.65,1.05c-0.25,0.24 -2.4,0.03 -3.01,-0.15c-0.61,-0.19 -5.09,1.74 -5.09,1.74l2.8,-0.5c0,0 0.44,0.29 2.3,0.56c1.87,0.26 2.15,-0.39 2.92,-0.33c0.78,0.06 3.4,0.79 3.4,0.79l-1.01,0.28c0,0 -1.12,0.19 -2.69,-0.02c-1.57,-0.22 -2.39,0.63 -2.86,0.71c-0.47,0.09 -3.15,0.67 -3.65,0.56c-0.5,-0.11 -1.83,0.54 -2.57,1.31c-0.74,0.78 -1.82,1.18 -3.23,0.8c-1.41,-0.39 -3.8,1.42 -3.8,1.42s1.25,-1.73 1.9,-1.85c0.66,-0.11 2.92,-1.53 2.92,-1.53s-0.48,-0.02 -1.04,0.09c-0.57,0.1 -1.17,-0.1 -1.94,-0.66c-0.76,-0.56 -1.55,-0.12 -2.71,0.49c-1.15,0.61 -2.37,1.33 -3.58,0.45c-1.21,-0.88 -4.89,2.38 -4.89,2.38s2.11,-0.58 2.45,-0.88c0.33,-0.29 0.58,0.03 1.67,0.24c1.1,0.2 1.44,-0.56 1.97,-0.86c0.53,-0.3 2.15,0.2 2.15,0.2s-0.62,0.32 -1.21,0.24c-0.59,-0.1 -1.55,1.68 -1.87,1.48c-0.32,-0.2 -2.57,0.11 -3.55,0.64c-0.97,0.51 -2.4,2.29 -3.84,1.74c-1.22,-0.46 -3.97,3.44 -6.39,3.49c0.32,-1.09 0.93,-2.34 1.93,-3.74c2,-2.82 6.4,-4.06 9.39,-5.2c2.01,-0.76 4.04,-1.47 6.07,-2.2c2.17,-0.79 4.41,-0.24 6.31,-1.97c1.14,-1.03 1.97,-2.56 3.44,-2.94c1.08,-0.28 2.24,0.17 3.3,-0.13c1.38,-0.39 2.37,-1.95 3.8,-1.97c0.72,-0.02 1.38,0.37 2.07,0.53c1.25,0.28 2.53,-0.16 3.79,-0.28c1.26,-0.12 2.51,0.09 3.76,0.28c3.87,0.63 7.76,1.46 11.68,1.68c2.89,0.16 6.09,0.09 8.9,0.92c1.1,0.32 2.08,1.31 2.86,2.63l0.03,0.01z" fill="#FFFFFF" id="svg_495" opacity="0.2"/>
    </g>
    <g id="svg_496">
     <path d="m669.62,199.92c-22.51,4.06 -40.1,11.33 -39.29,16.24l0.71,4.24l0,0c0.81,4.91 19.72,5.59 42.23,1.53c22.51,-4.06 40.1,-11.33 39.28,-16.24l0,0l-0.7,-4.23c-0.82,-4.91 -19.72,-5.6 -42.23,-1.53l0,-0.01z" fill="#407BFF" id="svg_497"/>
     <path d="m670.88,207.5c-25.13,4.53 -44.78,12.65 -43.87,18.14l0.42,2.54l0,0c0.91,5.48 22.03,6.25 47.17,1.71c25.13,-4.53 44.78,-12.65 43.87,-18.14l-0.42,-2.54c-0.91,-5.48 -22.03,-6.25 -47.17,-1.71z" fill="#407BFF" id="svg_498"/>
     <g id="svg_499">
      <path d="m641.92,232.79c-0.62,-0.02 -1.23,-0.06 -1.82,-0.09c0.59,0.03 1.2,0.06 1.82,0.09z" fill="#FFFFFF" id="svg_500" opacity="0.2"/>
      <path d="m683.82,228.01c-0.05,0.02 -0.11,0.02 -0.16,0.04c0.05,-0.01 0.11,-0.02 0.16,-0.04z" fill="#FFFFFF" id="svg_501" opacity="0.2"/>
      <path d="m632.23,231.56c0.25,0.07 0.51,0.14 0.78,0.2c-0.26,-0.06 -0.53,-0.13 -0.78,-0.2z" fill="#FFFFFF" id="svg_502" opacity="0.2"/>
      <path d="m670.88,207.5c-25.13,4.53 -44.78,12.65 -43.87,18.14l0.42,2.54c0.13,0.83 0.73,1.53 1.72,2.14c-0.99,-0.61 -1.59,-1.31 -1.72,-2.14c-0.91,-5.48 18.74,-13.6 43.87,-18.13c25.14,-4.53 46.26,-3.77 47.17,1.7l0,0l-0.42,-2.54c-0.91,-5.48 -22.03,-6.25 -47.17,-1.71z" fill="#FFFFFF" id="svg_503" opacity="0.2"/>
     </g>
    </g>
    <g id="svg_504">
     <path d="m667.03,158c-0.5,4.05 -1.91,10.2 -2.55,14.29c-0.65,4.1 1.28,10.45 1.84,12.37c0.57,1.93 4.4,1.61 4.24,3.16c-0.15,1.54 5.71,1.79 5.71,1.79s-27.53,11.36 -30.29,10.63c-2.76,-0.72 5.16,-6.39 6.69,-6.77c1.52,-0.37 2.36,-1.35 3.36,-3.63c1.01,-2.27 2.08,-1.87 3.16,-4.15c0.47,-1.01 1.6,-2.74 2.58,-5.26c1.22,-3.16 2.28,-12.89 1,-13.71c-1.33,-0.84 -0.12,7.46 -1.22,7.73c-1.1,0.28 1.44,-8.18 -1.91,-12.45c-3.35,-4.27 7.39,-4.02 7.39,-4.02l0,0.02z" fill="#263238" id="svg_505"/>
     <path d="m676.29,189.61c0,0 -27.54,11.36 -30.29,10.64c-2.54,-0.67 3.95,-5.52 6.2,-6.59c0.15,1.67 4.46,-0.04 6.17,-1.03c1.69,-0.98 1.84,-0.27 2.47,-0.56c0.64,-0.3 5.4,-4.01 4.91,-3.85c-0.5,0.15 -4.05,2.89 -4.91,2c-0.86,-0.88 -2.27,0.82 -3.33,1.34c-0.92,0.45 -1.15,-0.1 -1.91,-0.79c0.15,-0.28 0.29,-0.58 0.44,-0.92c1,-2.27 2.08,-1.87 3.15,-4.15c0.47,-1.01 1.6,-2.74 2.57,-5.26c1.23,-3.16 2.29,-12.89 1.01,-13.71c-1.33,-0.84 -0.12,7.46 -1.22,7.72c-1.1,0.28 1.43,-8.17 -1.92,-12.44c-3.34,-4.28 7.39,-4.02 7.39,-4.02c-0.49,4.05 -1.91,10.2 -2.55,14.3c-0.42,2.68 0.26,6.33 0.94,9.07c-0.19,0.67 -0.44,1.27 -0.73,1.37c-0.71,0.22 -1.21,2.74 -2.13,2.81c-0.92,0.07 -0.14,1.85 1.14,1.12c0.85,-0.49 2.18,-0.79 3.13,-1.24c1.2,1.11 3.88,1.1 3.76,2.38c-0.16,1.54 5.71,1.79 5.71,1.79l0,0.02z" fill="#FFFFFF" id="svg_506" opacity="0.2"/>
    </g>
    <g id="svg_507">
     <path d="m681.97,139.46c-0.14,0.24 -0.26,0.42 -0.33,0.56c-1.07,2 -2.26,3.94 -3.51,5.82c-1.28,1.91 -2.6,3.95 -4.22,5.57c-1.49,1.5 -3.02,2.21 -3.91,4c-0.2,0.4 -0.37,0.86 -0.51,1.4c-0.33,1.35 -0.43,2.99 -1.56,3.75c-0.26,0.17 -0.57,0.28 -0.8,0.5c-0.57,0.5 -0.54,1.4 -0.68,2.16c-0.16,0.76 -0.86,1.6 -1.52,1.25c-0.56,-0.3 -0.72,-1.31 -1.36,-1.27c-0.16,0.01 -0.3,0.11 -0.46,0.15c-0.64,0.17 -1.23,-0.35 -1.71,-0.8c-0.49,-0.45 -1.2,-0.88 -1.76,-0.53c-1.76,-1.72 -3.61,-3.04 -5.55,-4.24c-1.62,-1.01 -3.3,-1.94 -5.06,-2.93c-3.9,-2.2 -8.4,-4.38 -11.12,-6.62c-1,-0.84 -1.76,-1.66 -2.17,-2.51c-0.16,-0.35 -0.27,-0.69 -0.31,-1.05c-0.45,-4.01 11.44,-5.2 15.56,-8.19c4.11,-2.99 10.53,-1.07 13.23,-1.7c2.71,-0.62 5.74,0.27 8.59,0.04c2.85,-0.23 4.62,-1.08 6.27,0.19c1.65,1.27 3.51,0.88 3.86,1.85c0.2,0.58 -0.5,1.79 -0.98,2.59l0.01,0.01z" fill="#263238" id="svg_508"/>
     <path d="m678.35,138.19c-2.46,-0.49 2.55,-0.59 2.17,-0.89c-0.37,-0.29 -1.61,-1.27 -4.35,-1.18c-2.75,0.1 -5.02,-0.1 -5.6,0c-0.58,0.1 1.9,0.88 1.9,0.88s-4.35,0 -6.43,0c-2.08,0 1.42,-0.88 1.42,-0.88s-1.99,0 -4.28,0l-6.52,0c0.29,0 2.37,1.28 1.14,1.28c-1.23,0 -2.56,0.69 -4.26,1.38c-1.7,0.7 -3.88,1.39 -4.16,1.39c-0.28,0 3.9,-3.25 4.14,-3.46c-0.26,0.11 -3.73,1.59 -5.19,2.07c-1.52,0.49 -5.4,1.88 -5.78,1.98c-0.37,0.1 2.18,0 2.18,0s-2.93,1.58 -4.45,1.78c-1.14,0.15 -3.86,1.12 -4.56,3.18c0.4,0.85 1.17,1.68 2.17,2.51c2.72,2.24 7.21,4.41 11.13,6.62c1.76,0.99 3.44,1.91 5.06,2.93c1.94,1.2 3.78,2.52 5.54,4.23c0.56,-0.35 1.27,0.09 1.76,0.54c0.48,0.45 1.07,0.97 1.71,0.8c0.16,-0.05 0.3,-0.14 0.46,-0.15c0.64,-0.03 0.8,0.97 1.36,1.27c0.66,0.36 1.36,-0.49 1.52,-1.24c0.15,-0.76 0.12,-1.65 0.68,-2.17c0.23,-0.22 0.54,-0.32 0.8,-0.5c1.14,-0.75 1.24,-2.38 1.56,-3.74c0.13,-0.54 0.3,-1.01 0.51,-1.4c0.89,-1.8 2.42,-2.51 3.91,-4c1.62,-1.63 2.95,-3.67 4.22,-5.57c1.25,-1.88 2.45,-3.82 3.51,-5.83c-0.87,-1.53 -0.83,-1.32 -3.29,-1.82l0.02,-0.01zm-35.17,10.47c-0.82,-0.1 1.84,-0.97 1.84,-0.97s-0.64,1.11 -1.84,0.97zm0.5,-3.33c0,0 1.34,-1.11 1.92,-1.04c0.57,0.07 1.63,0 1.63,0s-2.14,1.48 -3.55,1.04zm10.72,8.67c-0.97,-0.19 1.03,-0.82 1.51,-0.67c0.48,0.15 -0.37,0.89 -1.51,0.67zm4.8,-11.34c0,0 -4.12,1.27 -3.29,1.27c0.63,0 1.35,0 1.55,0c-0.29,0 -4.55,0.97 -4.76,0.92c-0.22,-0.04 2.53,-1.49 2.53,-1.49s-0.3,-0.4 -0.29,-0.54c0.02,-0.15 0.96,-0.45 0.96,-0.45c0.33,-0.3 1.83,-0.74 2.39,-0.37c0.57,0.37 2.06,0.37 2.06,0.37l-1.17,0.29l0.02,0zm1.73,8.82c-1.15,-1.09 2.26,0 2.26,0s-1.48,0.74 -2.26,0zm1.85,-11.78c1.55,-1.11 1.94,0 1.94,0s-2.44,0.36 -1.94,0zm5.38,4.3c-0.41,-0.23 -1.2,-0.64 -1.2,-0.64s1,-0.61 1.63,-0.62c1.08,-0.02 1.78,0.34 2.2,0.62c0.43,0.27 -2.22,0.86 -2.64,0.64l0.01,0zm3.06,5.45c0,0 -1.91,-0.05 -2.1,0c-0.18,0.04 1.32,-0.56 2.1,-0.77l0,0.77zm2.97,-8.02c0,0 1.36,-0.31 2,0.43c0.86,0.99 -2,-0.43 -2,-0.43z" fill="#FFFFFF" id="svg_509" opacity="0.2"/>
    </g>
   </g>
  </g>
  <g id="svg_510">
   <rect fill="#EBEBEB" height="8.31" id="svg_511" transform="rotate(-2.1787 386.527 362.216) matrix(1.23034 -0.269292 0.264921 1.25064 -117.181 -76.1426)" width="8.31" x="314.98" y="415.07"/>
   <ellipse cx="-52.49" cy="403.72" fill="#E0E0E0" id="svg_512" rx="45.81" ry="45.81" transform="rotate(-2.1787 401.173 420.328) matrix(0.0672055 -1.27751 1.25677 0.0683145 -102.677 325.693)"/>
   <ellipse cx="187.93" cy="503.13" fill="#F0F0F0" id="svg_513" rx="39.88" ry="39.88" transform="rotate(-2.1787 401.158 420.334) matrix(0.979388 -0.803399 0.790357 0.99555 -180.558 70.426)"/>
   <rect fill="#E0E0E0" height="9.37" id="svg_514" transform="rotate(-2.1787 384.451 353.974) matrix(1.23034 -0.269292 0.264921 1.25064 -115.498 -76.7072)" width="14.97" x="309.99" y="408.04"/>
   <path d="m405.94,419.28c0.57,2.69 -1.11,5.32 -3.75,5.9c-2.64,0.58 -5.24,-1.13 -5.8,-3.81c-0.57,-2.67 1.11,-5.32 3.75,-5.9c2.63,-0.58 5.24,1.13 5.8,3.81z" fill="#E0E0E0" id="svg_515" transform="rotate(-2.1787 401.165 420.327)"/>
   <path d="m388.38,378.87c1.52,3.26 2.83,6.61 4.15,9.95l1.89,5.03l1.79,5.07c1.2,3.38 2.3,6.78 3.37,10.2c1.07,3.42 2.11,6.83 3.08,10.27l-3.79,-1.05c2.28,-2.12 4.58,-4.22 6.91,-6.29c2.33,-2.07 4.69,-4.11 7.07,-6.1c2.37,-2.03 4.81,-3.98 7.25,-5.92c2.47,-1.92 4.95,-3.83 7.54,-5.6c-1.94,2.49 -4,4.85 -6.07,7.22c-2.09,2.33 -4.18,4.66 -6.34,6.91c-2.14,2.26 -4.32,4.52 -6.52,6.7c-2.2,2.21 -4.43,4.39 -6.7,6.54l-2.69,2.56l-1.09,-3.61c-1.03,-3.43 -2,-6.87 -2.94,-10.32c-0.94,-3.45 -1.85,-6.91 -2.67,-10.4l-1.23,-5.23l-1.13,-5.27c-0.69,-3.52 -1.4,-7.05 -1.88,-10.63l0,-0.03z" fill="#E0E0E0" id="svg_516" transform="rotate(-2.1787 408.015 401.6)"/>
  </g>
 </g>
</svg>