<?xml version="1.0"?>
<svg width="500" height="500" xmlns="http://www.w3.org/2000/svg" xmlns:svg="http://www.w3.org/2000/svg" enable-background="new 0 0 500 500" version="1.1" xml:space="preserve">
 <g class="layer">
  <title>Layer 1</title>
  <g id="Background_complete" transform="matrix(1 0 0 1 0 0)">
   <g id="svg_1">
    <path d="m819.3,349.93c2.64,-8.9 2.78,-18.52 0.4,-27.49c-3.76,9.37 -9.12,18.09 -15.78,25.67c-1.32,-12.22 -3.55,-24.34 -6.67,-36.22c-4.86,12.25 -6.88,25.61 -5.87,38.74c-7.38,-7.27 -15.38,-13.94 -23.87,-19.89c0.74,11.29 7.42,26.04 22.28,34.39l23.7,0.07c13.13,-3.54 22.99,-16.69 22.72,-30.28c-3.77,6.69 -9.82,12.06 -16.91,15.01z" fill="#E0E0E0" id="svg_2"/>
   </g>
   <g id="svg_3">
    <path d="m1082.81,354.14c1.91,-6.44 2.01,-13.41 0.29,-19.91c-2.72,6.79 -6.61,13.1 -11.43,18.59c-0.95,-8.85 -2.57,-17.63 -4.83,-26.23c-3.52,8.87 -4.98,18.54 -4.25,28.06c-5.35,-5.27 -11.14,-10.1 -17.29,-14.41c0.54,8.18 5.37,18.86 16.14,24.9l17.16,0.05c9.51,-2.56 16.65,-12.08 16.45,-21.92c-2.73,4.84 -7.11,8.73 -12.24,10.87z" fill="#E0E0E0" id="svg_4"/>
   </g>
   <g id="svg_5">
    <g id="svg_6">
     <g id="svg_7">
      <g id="svg_8">
       <g id="svg_9">
        <path d="m1109.92,232.42l-180.75,0c-3.23,0 -5.86,-2.63 -5.86,-5.86l0,-263.28c0,-3.23 2.63,-5.86 5.86,-5.86l180.75,0c3.23,0 5.86,2.63 5.86,5.86l0,263.28c0,3.23 -2.63,5.86 -5.86,5.86zm-180.75,-274.75c-3.09,0 -5.61,2.52 -5.61,5.61l0,263.28c0,3.09 2.52,5.61 5.61,5.61l180.75,0c3.1,0 5.61,-2.52 5.61,-5.61l0,-263.28c0,-3.09 -2.52,-5.61 -5.61,-5.61l-180.75,0z" fill="#E0E0E0" id="svg_10"/>
       </g>
      </g>
      <g id="svg_11">
       <g id="svg_12">
        <path d="m901.49,232.42l-180.74,0c-3.24,0 -5.87,-2.63 -5.87,-5.86l0,-263.28c0,-3.23 2.63,-5.86 5.87,-5.86l180.74,0c3.24,0 5.87,2.63 5.87,5.86l0,263.28c-0.01,3.23 -2.64,5.86 -5.87,5.86zm-180.74,-274.75c-3.1,0 -5.62,2.52 -5.62,5.61l0,263.28c0,3.09 2.52,5.61 5.62,5.61l180.74,0c3.1,0 5.62,-2.52 5.62,-5.61l0,-263.28c0,-3.09 -2.52,-5.61 -5.62,-5.61l-180.74,0z" fill="#E0E0E0" id="svg_13"/>
       </g>
      </g>
     </g>
     <g id="svg_14">
      <g id="svg_15">
       <rect fill="#E0E0E0" height="0.25" id="svg_16" width="500" x="666" y="293.49"/>
      </g>
     </g>
    </g>
    <rect fill="#E0E0E0" height="0.25" id="svg_17" width="16.06" x="717.67" y="307.75"/>
    <rect fill="#E0E0E0" height="0.25" id="svg_18" width="53.53" x="836.35" y="305.04"/>
    <rect fill="#E0E0E0" height="0.25" id="svg_19" width="36.25" x="734.73" y="317.04"/>
    <rect fill="#E0E0E0" height="0.25" id="svg_20" width="43.19" x="1044.35" y="304.91"/>
    <rect fill="#E0E0E0" height="0.25" id="svg_21" width="6.33" x="1096.45" y="304.91"/>
    <rect fill="#E0E0E0" height="0.25" id="svg_22" width="53.89" x="982.21" y="311.14"/>
   </g>
   <g id="svg_23">
    <g id="freepik--background-complete--inject-481_00000003073544920505330140000013180267776658943650_">
     <g id="svg_24">
      <polygon fill="#F0F0F0" id="svg_25" points="724.458984375,158.72500610351562 724.458984375,111.6820068359375 753.5869750976562,111.6820068359375 753.5869750976562,122.41000366210938 773.0020141601562,122.41000366210938 773.0020141601562,4.896003723144531 810.33203125,4.896003723144531 810.33203125,51.14900207519531 821.531982421875,51.14900207519531 821.531982421875,28.052001953125 850.6600341796875,28.052001953125 850.6600341796875,140.6909942626953 891.7310180664062,140.6909942626953 891.7310180664062,100.89500427246094 917.4840087890625,100.89500427246094 917.4840087890625,14.609001159667969 949.2669677734375,14.609001159667969 949.2669677734375,72.13299560546875 979.1380004882812,72.13299560546875 979.1380004882812,196.05599975585938 1002.281982421875,196.05599975585938 1002.281982421875,135.71099853515625 1026.1810302734375,135.71099853515625 1026.1810302734375,96.88200378417969 1051.5679931640625,96.88200378417969 1051.5679931640625,67.07000732421875 1079.89306640625,82.01100158691406 1079.89306640625,161.77000427246094 1109.7640380859375,161.77000427246094 1109.7640380859375,145.3179931640625 1149.6669921875,145.3179931640625 1149.6669921875,293.45098876953125 685.2050170898438,293.67498779296875 685.2050170898438,158.72500610351562 "/>
      <rect fill="#FAFAFA" height="10.66" id="svg_26" width="9.3" x="932.7" y="24.79"/>
      <rect fill="#FAFAFA" height="10.66" id="svg_27" width="9.3" x="932.7" y="42.66"/>
      <rect fill="#FAFAFA" height="10.66" id="svg_28" width="9.3" x="932.7" y="60.54"/>
      <rect fill="#FAFAFA" height="10.66" id="svg_29" width="9.3" x="932.7" y="78.41"/>
      <rect fill="#FAFAFA" height="10.66" id="svg_30" width="9.3" x="932.7" y="96.28"/>
      <rect fill="#FAFAFA" height="10.66" id="svg_31" width="9.3" x="932.7" y="114.16"/>
      <rect fill="#FAFAFA" height="10.66" id="svg_32" width="9.3" x="932.7" y="132.03"/>
      <rect fill="#FAFAFA" height="10.66" id="svg_33" width="9.3" x="932.7" y="149.91"/>
      <rect fill="#FAFAFA" height="10.66" id="svg_34" width="9.3" x="792.99" y="10.53"/>
      <rect fill="#FAFAFA" height="10.66" id="svg_35" width="9.3" x="792.99" y="28.39"/>
      <rect fill="#FAFAFA" height="10.66" id="svg_36" width="9.3" x="792.99" y="46.27"/>
      <rect fill="#FAFAFA" height="10.66" id="svg_37" width="9.3" x="792.99" y="64.14"/>
      <rect fill="#FAFAFA" height="10.66" id="svg_38" width="9.3" x="792.99" y="82.02"/>
      <rect fill="#FAFAFA" height="10.66" id="svg_39" width="9.3" x="792.99" y="99.89"/>
      <rect fill="#FAFAFA" height="10.66" id="svg_40" width="9.3" x="792.99" y="117.77"/>
      <rect fill="#FAFAFA" height="10.66" id="svg_41" width="9.3" x="792.99" y="135.64"/>
     </g>
     <g id="svg_42">
      <path d="m973.78,293.54l0,-171.4l37,0l0,171.38l-37,0.02z" fill="#E0E0E0" id="svg_43"/>
      <rect fill="#FAFAFA" height="9.25" id="svg_44" width="4.49" x="1003.49" y="127.58"/>
      <rect fill="#FAFAFA" height="9.25" id="svg_45" width="4.49" x="994.52" y="127.58"/>
      <rect fill="#FAFAFA" height="9.25" id="svg_46" width="4.49" x="985.55" y="127.58"/>
      <rect fill="#FAFAFA" height="9.25" id="svg_47" width="4.49" x="976.58" y="127.58"/>
      <rect fill="#FAFAFA" height="9.25" id="svg_48" width="4.49" x="1003.49" y="143.1"/>
      <rect fill="#FAFAFA" height="9.25" id="svg_49" width="4.49" x="994.52" y="143.1"/>
      <rect fill="#FAFAFA" height="9.25" id="svg_50" width="4.49" x="985.55" y="143.1"/>
      <rect fill="#FAFAFA" height="9.25" id="svg_51" width="4.49" x="976.58" y="143.1"/>
      <rect fill="#FAFAFA" height="9.25" id="svg_52" width="4.49" x="1003.49" y="158.61"/>
      <rect fill="#FAFAFA" height="9.25" id="svg_53" width="4.49" x="994.52" y="158.61"/>
      <rect fill="#FAFAFA" height="9.25" id="svg_54" width="4.49" x="985.55" y="158.61"/>
      <rect fill="#FAFAFA" height="9.25" id="svg_55" width="4.49" x="976.58" y="158.61"/>
      <rect fill="#FAFAFA" height="9.25" id="svg_56" width="4.49" x="1003.49" y="174.12"/>
      <rect fill="#FAFAFA" height="9.25" id="svg_57" width="4.49" x="994.52" y="174.12"/>
      <rect fill="#FAFAFA" height="9.25" id="svg_58" width="4.49" x="985.55" y="174.12"/>
      <rect fill="#FAFAFA" height="9.25" id="svg_59" width="4.49" x="976.58" y="174.12"/>
      <rect fill="#FAFAFA" height="9.25" id="svg_60" width="4.49" x="1003.49" y="189.62"/>
      <rect fill="#FAFAFA" height="9.25" id="svg_61" width="4.49" x="994.52" y="189.62"/>
      <rect fill="#FAFAFA" height="9.25" id="svg_62" width="4.49" x="985.55" y="189.62"/>
      <rect fill="#FAFAFA" height="9.25" id="svg_63" width="4.49" x="976.58" y="189.62"/>
      <rect fill="#FAFAFA" height="9.25" id="svg_64" width="4.49" x="1003.49" y="205.13"/>
      <rect fill="#FAFAFA" height="9.25" id="svg_65" width="4.49" x="994.52" y="205.13"/>
      <rect fill="#FAFAFA" height="9.25" id="svg_66" width="4.49" x="985.55" y="205.13"/>
      <rect fill="#FAFAFA" height="9.25" id="svg_67" width="4.49" x="976.58" y="205.13"/>
      <rect fill="#FAFAFA" height="9.25" id="svg_68" width="4.49" x="1003.49" y="220.64"/>
      <rect fill="#FAFAFA" height="9.25" id="svg_69" width="4.49" x="994.52" y="220.64"/>
      <rect fill="#FAFAFA" height="9.25" id="svg_70" width="4.49" x="985.55" y="220.64"/>
      <rect fill="#FAFAFA" height="9.25" id="svg_71" width="4.49" x="976.58" y="220.64"/>
      <rect fill="#FAFAFA" height="9.25" id="svg_72" width="4.49" x="1003.49" y="236.16"/>
      <rect fill="#FAFAFA" height="9.25" id="svg_73" width="4.49" x="994.52" y="236.16"/>
      <rect fill="#FAFAFA" height="9.25" id="svg_74" width="4.49" x="985.55" y="236.16"/>
      <rect fill="#FAFAFA" height="9.25" id="svg_75" width="4.49" x="976.58" y="236.16"/>
     </g>
     <g id="svg_76">
      <path d="m845.21,293.6l0,-191.24l76.71,0l0,191.29c0,0 -76.13,0.03 -76.71,-0.05z" fill="#E6E6E6" id="svg_77"/>
      <rect fill="#E0E0E0" height="10.66" id="svg_78" width="9.3" x="906.86" y="108.68"/>
      <rect fill="#E0E0E0" height="10.66" id="svg_79" width="9.3" x="888.25" y="108.68"/>
      <rect fill="#E0E0E0" height="10.66" id="svg_80" width="9.3" x="869.65" y="108.68"/>
      <rect fill="#E0E0E0" height="10.66" id="svg_81" width="9.3" x="851.04" y="108.68"/>
      <rect fill="#E0E0E0" height="10.66" id="svg_82" width="9.3" x="906.86" y="126.56"/>
      <rect fill="#E0E0E0" height="10.66" id="svg_83" width="9.3" x="888.25" y="126.56"/>
      <rect fill="#E0E0E0" height="10.66" id="svg_84" width="9.3" x="869.65" y="126.56"/>
      <rect fill="#E0E0E0" height="10.66" id="svg_85" width="9.3" x="851.04" y="126.56"/>
      <rect fill="#E0E0E0" height="10.66" id="svg_86" width="9.3" x="906.86" y="144.43"/>
      <rect fill="#E0E0E0" height="10.66" id="svg_87" width="9.3" x="888.25" y="144.43"/>
      <rect fill="#E0E0E0" height="10.66" id="svg_88" width="9.3" x="869.65" y="144.43"/>
      <rect fill="#E0E0E0" height="10.66" id="svg_89" width="9.3" x="851.04" y="144.43"/>
      <rect fill="#E0E0E0" height="10.66" id="svg_90" width="9.3" x="906.86" y="162.3"/>
      <rect fill="#E0E0E0" height="10.66" id="svg_91" width="9.3" x="888.25" y="162.3"/>
      <rect fill="#E0E0E0" height="10.66" id="svg_92" width="9.3" x="869.65" y="162.3"/>
      <rect fill="#E0E0E0" height="10.66" id="svg_93" width="9.3" x="851.04" y="162.3"/>
      <rect fill="#E0E0E0" height="10.66" id="svg_94" width="9.3" x="906.86" y="180.18"/>
      <rect fill="#E0E0E0" height="10.66" id="svg_95" width="9.3" x="888.25" y="180.18"/>
      <rect fill="#E0E0E0" height="10.66" id="svg_96" width="9.3" x="869.65" y="180.18"/>
      <rect fill="#E0E0E0" height="10.66" id="svg_97" width="9.3" x="851.04" y="180.18"/>
      <rect fill="#E0E0E0" height="10.66" id="svg_98" width="9.3" x="906.86" y="198.05"/>
      <rect fill="#E0E0E0" height="10.66" id="svg_99" width="9.3" x="888.25" y="198.05"/>
      <rect fill="#E0E0E0" height="10.66" id="svg_100" width="9.3" x="869.65" y="198.05"/>
      <rect fill="#E0E0E0" height="10.66" id="svg_101" width="9.3" x="851.04" y="198.05"/>
      <rect fill="#E0E0E0" height="10.66" id="svg_102" width="9.3" x="906.86" y="215.93"/>
      <rect fill="#E0E0E0" height="10.66" id="svg_103" width="9.3" x="888.25" y="215.93"/>
      <rect fill="#E0E0E0" height="10.66" id="svg_104" width="9.3" x="869.65" y="215.93"/>
      <rect fill="#E0E0E0" height="10.66" id="svg_105" width="9.3" x="851.04" y="215.93"/>
      <rect fill="#E0E0E0" height="10.66" id="svg_106" width="9.3" x="906.86" y="233.8"/>
      <rect fill="#E0E0E0" height="10.66" id="svg_107" width="9.3" x="888.25" y="233.8"/>
      <rect fill="#E0E0E0" height="10.66" id="svg_108" width="9.3" x="869.65" y="233.8"/>
      <rect fill="#E0E0E0" height="10.66" id="svg_109" width="9.3" x="851.04" y="233.8"/>
     </g>
     <g id="svg_110">
      <path d="m1024.23,293.51l0,-204.52l31.74,0l0,204.68c-10.04,-0.24 -31.74,-0.16 -31.74,-0.16z" fill="#E6E6E6" id="svg_111"/>
      <rect fill="#FAFAFA" height="10.66" id="svg_112" width="9.3" x="1041.97" y="92.78"/>
      <rect fill="#FAFAFA" height="10.66" id="svg_113" width="9.3" x="1041.97" y="110.64"/>
      <rect fill="#FAFAFA" height="10.66" id="svg_114" width="9.3" x="1041.97" y="128.52"/>
      <rect fill="#FAFAFA" height="10.66" id="svg_115" width="9.3" x="1041.97" y="146.39"/>
      <rect fill="#FAFAFA" height="10.66" id="svg_116" width="9.3" x="1041.97" y="164.26"/>
      <rect fill="#FAFAFA" height="10.66" id="svg_117" width="9.3" x="1041.97" y="182.14"/>
      <rect fill="#FAFAFA" height="10.66" id="svg_118" width="9.3" x="1041.97" y="200.01"/>
      <rect fill="#FAFAFA" height="10.66" id="svg_119" width="9.3" x="1041.97" y="217.89"/>
      <rect fill="#FAFAFA" height="10.66" id="svg_120" width="9.3" x="1029.53" y="92.78"/>
      <rect fill="#FAFAFA" height="10.66" id="svg_121" width="9.3" x="1029.53" y="110.64"/>
      <rect fill="#FAFAFA" height="10.66" id="svg_122" width="9.3" x="1029.53" y="128.52"/>
      <rect fill="#FAFAFA" height="10.66" id="svg_123" width="9.3" x="1029.53" y="146.39"/>
      <rect fill="#FAFAFA" height="10.66" id="svg_124" width="9.3" x="1029.53" y="164.26"/>
      <rect fill="#FAFAFA" height="10.66" id="svg_125" width="9.3" x="1029.53" y="182.14"/>
      <rect fill="#FAFAFA" height="10.66" id="svg_126" width="9.3" x="1029.53" y="200.01"/>
      <rect fill="#FAFAFA" height="10.66" id="svg_127" width="9.3" x="1029.53" y="217.89"/>
     </g>
     <g id="svg_128">
      <rect fill="#E6E6E6" height="201.04" id="svg_129" width="56.01" x="720.26" y="92.63"/>
      <rect fill="#FAFAFA" height="10.66" id="svg_130" width="16.42" x="751.57" y="100.94"/>
      <rect fill="#FAFAFA" height="10.66" id="svg_131" width="16.42" x="751.57" y="118.82"/>
      <rect fill="#FAFAFA" height="10.66" id="svg_132" width="16.42" x="751.57" y="136.69"/>
      <rect fill="#FAFAFA" height="10.66" id="svg_133" width="16.42" x="751.57" y="154.57"/>
      <rect fill="#FAFAFA" height="10.66" id="svg_134" width="16.42" x="751.57" y="172.44"/>
      <rect fill="#FAFAFA" height="10.66" id="svg_135" width="16.42" x="751.57" y="190.31"/>
      <rect fill="#FAFAFA" height="10.66" id="svg_136" width="16.42" x="751.57" y="208.19"/>
      <rect fill="#FAFAFA" height="10.66" id="svg_137" width="16.42" x="751.57" y="226.06"/>
      <rect fill="#FAFAFA" height="10.66" id="svg_138" width="16.42" x="729.61" y="100.94"/>
      <rect fill="#FAFAFA" height="10.66" id="svg_139" width="16.42" x="729.61" y="118.82"/>
      <rect fill="#FAFAFA" height="10.66" id="svg_140" width="16.42" x="729.61" y="136.69"/>
      <rect fill="#FAFAFA" height="10.66" id="svg_141" width="16.42" x="729.61" y="154.57"/>
      <rect fill="#FAFAFA" height="10.66" id="svg_142" width="16.42" x="729.61" y="172.44"/>
      <rect fill="#FAFAFA" height="10.66" id="svg_143" width="16.42" x="729.61" y="190.31"/>
      <rect fill="#FAFAFA" height="10.66" id="svg_144" width="16.42" x="729.61" y="208.19"/>
      <rect fill="#FAFAFA" height="10.66" id="svg_145" width="16.42" x="729.61" y="226.06"/>
     </g>
     <g id="svg_146">
      <path d="m812.92,293.61l0,-149.18l24.43,0l0,149.17l-24.43,0.01z" fill="#E0E0E0" id="svg_147"/>
      <rect fill="#FAFAFA" height="7.94" id="svg_148" width="2.96" x="832.53" y="149.15"/>
      <rect fill="#FAFAFA" height="7.94" id="svg_149" width="2.96" x="826.61" y="149.15"/>
      <rect fill="#FAFAFA" height="7.94" id="svg_150" width="2.96" x="820.69" y="149.15"/>
      <rect fill="#FAFAFA" height="7.94" id="svg_151" width="2.96" x="814.77" y="149.15"/>
      <rect fill="#FAFAFA" height="7.94" id="svg_152" width="2.96" x="832.53" y="162.48"/>
      <rect fill="#FAFAFA" height="7.94" id="svg_153" width="2.96" x="826.61" y="162.48"/>
      <rect fill="#FAFAFA" height="7.94" id="svg_154" width="2.96" x="820.69" y="162.48"/>
      <rect fill="#FAFAFA" height="7.94" id="svg_155" width="2.96" x="814.77" y="162.48"/>
      <rect fill="#FAFAFA" height="7.94" id="svg_156" width="2.96" x="832.53" y="175.8"/>
      <rect fill="#FAFAFA" height="7.94" id="svg_157" width="2.96" x="826.61" y="175.8"/>
      <rect fill="#FAFAFA" height="7.94" id="svg_158" width="2.96" x="820.69" y="175.8"/>
      <rect fill="#FAFAFA" height="7.94" id="svg_159" width="2.96" x="814.77" y="175.8"/>
      <rect fill="#FAFAFA" height="7.94" id="svg_160" width="2.96" x="832.53" y="189.13"/>
      <rect fill="#FAFAFA" height="7.94" id="svg_161" width="2.96" x="826.61" y="189.13"/>
      <rect fill="#FAFAFA" height="7.94" id="svg_162" width="2.96" x="820.69" y="189.13"/>
      <rect fill="#FAFAFA" height="7.94" id="svg_163" width="2.96" x="814.77" y="189.13"/>
      <rect fill="#FAFAFA" height="7.94" id="svg_164" width="2.96" x="832.53" y="202.46"/>
      <rect fill="#FAFAFA" height="7.94" id="svg_165" width="2.96" x="826.61" y="202.46"/>
      <rect fill="#FAFAFA" height="7.94" id="svg_166" width="2.96" x="820.69" y="202.46"/>
      <rect fill="#FAFAFA" height="7.94" id="svg_167" width="2.96" x="814.77" y="202.46"/>
      <rect fill="#FAFAFA" height="7.94" id="svg_168" width="2.96" x="832.53" y="215.79"/>
      <rect fill="#FAFAFA" height="7.94" id="svg_169" width="2.96" x="826.61" y="215.79"/>
      <rect fill="#FAFAFA" height="7.94" id="svg_170" width="2.96" x="820.69" y="215.79"/>
      <rect fill="#FAFAFA" height="7.94" id="svg_171" width="2.96" x="814.77" y="215.79"/>
      <rect fill="#FAFAFA" height="7.94" id="svg_172" width="2.96" x="832.53" y="229.11"/>
      <rect fill="#FAFAFA" height="7.94" id="svg_173" width="2.96" x="826.61" y="229.11"/>
      <rect fill="#FAFAFA" height="7.94" id="svg_174" width="2.96" x="820.69" y="229.11"/>
      <rect fill="#FAFAFA" height="7.94" id="svg_175" width="2.96" x="814.77" y="229.11"/>
      <rect fill="#FAFAFA" height="7.94" id="svg_176" width="2.96" x="832.53" y="242.44"/>
      <rect fill="#FAFAFA" height="7.94" id="svg_177" width="2.96" x="826.61" y="242.44"/>
      <rect fill="#FAFAFA" height="7.94" id="svg_178" width="2.96" x="820.69" y="242.44"/>
      <rect fill="#FAFAFA" height="7.94" id="svg_179" width="2.96" x="814.77" y="242.44"/>
     </g>
     <g id="svg_180">
      <path d="m1053.14,293.68l0,-127.13l65.31,0l0,126.92l-65.31,0.21z" fill="#FAFAFA" id="svg_181"/>
      <rect fill="#E0E0E0" height="6.67" id="svg_182" width="7.92" x="1105.59" y="170.5"/>
      <rect fill="#E0E0E0" height="6.67" id="svg_183" width="7.92" x="1089.75" y="170.5"/>
      <rect fill="#E0E0E0" height="6.67" id="svg_184" width="7.92" x="1073.92" y="170.5"/>
      <rect fill="#E0E0E0" height="6.67" id="svg_185" width="7.92" x="1058.08" y="170.5"/>
      <rect fill="#E0E0E0" height="6.67" id="svg_186" width="7.92" x="1105.59" y="181.68"/>
      <rect fill="#E0E0E0" height="6.67" id="svg_187" width="7.92" x="1089.75" y="181.68"/>
      <rect fill="#E0E0E0" height="6.67" id="svg_188" width="7.92" x="1073.92" y="181.68"/>
      <rect fill="#E0E0E0" height="6.67" id="svg_189" width="7.92" x="1058.08" y="181.68"/>
      <rect fill="#E0E0E0" height="6.67" id="svg_190" width="7.92" x="1105.59" y="192.86"/>
      <rect fill="#E0E0E0" height="6.67" id="svg_191" width="7.92" x="1089.75" y="192.86"/>
      <rect fill="#E0E0E0" height="6.67" id="svg_192" width="7.92" x="1073.92" y="192.86"/>
      <rect fill="#E0E0E0" height="6.67" id="svg_193" width="7.92" x="1058.08" y="192.86"/>
      <rect fill="#E0E0E0" height="6.67" id="svg_194" width="7.92" x="1105.59" y="204.03"/>
      <rect fill="#E0E0E0" height="6.67" id="svg_195" width="7.92" x="1089.75" y="204.03"/>
      <rect fill="#E0E0E0" height="6.67" id="svg_196" width="7.92" x="1073.92" y="204.03"/>
      <rect fill="#E0E0E0" height="6.67" id="svg_197" width="7.92" x="1058.08" y="204.03"/>
      <rect fill="#E0E0E0" height="6.67" id="svg_198" width="7.92" x="1105.59" y="215.2"/>
      <rect fill="#E0E0E0" height="6.67" id="svg_199" width="7.92" x="1089.75" y="215.2"/>
      <rect fill="#E0E0E0" height="6.67" id="svg_200" width="7.92" x="1073.92" y="215.2"/>
      <rect fill="#E0E0E0" height="6.67" id="svg_201" width="7.92" x="1058.08" y="215.2"/>
      <rect fill="#E0E0E0" height="6.67" id="svg_202" width="7.92" x="1105.59" y="226.38"/>
      <rect fill="#E0E0E0" height="6.67" id="svg_203" width="7.92" x="1089.75" y="226.38"/>
      <rect fill="#E0E0E0" height="6.67" id="svg_204" width="7.92" x="1073.92" y="226.38"/>
      <rect fill="#E0E0E0" height="6.67" id="svg_205" width="7.92" x="1058.08" y="226.38"/>
      <rect fill="#E0E0E0" height="6.67" id="svg_206" width="7.92" x="1105.59" y="237.55"/>
      <rect fill="#E0E0E0" height="6.67" id="svg_207" width="7.92" x="1089.75" y="237.55"/>
      <rect fill="#E0E0E0" height="6.67" id="svg_208" width="7.92" x="1073.92" y="237.55"/>
      <rect fill="#E0E0E0" height="6.67" id="svg_209" width="7.92" x="1058.08" y="237.55"/>
     </g>
    </g>
    <g id="svg_210">
     <g id="svg_211">
      <path d="m968.94,-2.03c2.07,-1.57 5.1,-1.75 7.35,-0.43c2.98,-6.02 11.28,-8.68 17.2,-5.51c1.55,-6.48 7.94,-11.47 14.6,-11.39c6.67,0.08 12.94,5.22 14.33,11.74c0.22,1.04 0.37,2.17 1.11,2.93c1.2,1.23 3.21,0.82 4.93,0.68c5.4,-0.42 10.83,3.37 12.3,8.59l-74.36,-0.27c-0.66,-2.52 0.47,-4.77 2.54,-6.34z" fill="#E0E0E0" id="svg_212"/>
     </g>
    </g>
    <g id="svg_213">
     <g id="svg_214">
      <path d="m882.44,-57.5c1.03,-0.77 2.52,-0.86 3.63,-0.21c1.48,-2.98 5.58,-4.29 8.51,-2.72c0.77,-3.21 3.93,-5.68 7.23,-5.64c3.3,0.04 6.4,2.58 7.08,5.81c0.11,0.51 0.18,1.07 0.55,1.45c0.6,0.6 1.59,0.4 2.44,0.33c2.67,-0.2 5.36,1.67 6.09,4.25l-36.79,-0.13c-0.32,-1.25 0.23,-2.36 1.26,-3.14z" fill="#F5F5F5" id="svg_215"/>
     </g>
    </g>
    <g id="svg_216">
     <g id="svg_217">
      <path d="m1068.1,-45.05c1.1,-0.83 2.71,-0.93 3.89,-0.23c1.58,-3.19 5.98,-4.6 9.11,-2.92c0.82,-3.43 4.21,-6.07 7.74,-6.03c3.53,0.04 6.85,2.77 7.58,6.22c0.12,0.55 0.2,1.15 0.59,1.55c0.64,0.65 1.7,0.43 2.61,0.36c2.86,-0.22 5.74,1.79 6.51,4.55l-39.38,-0.15c-0.34,-1.33 0.25,-2.52 1.35,-3.35z" fill="#E0E0E0" id="svg_218"/>
     </g>
    </g>
    <g id="svg_219">
     <g id="svg_220">
      <path d="m693.75,46.34c1.43,-1.07 3.5,-1.2 5.05,-0.29c2.04,-4.14 7.74,-5.96 11.8,-3.78c1.06,-4.46 5.45,-7.88 10.03,-7.82c4.58,0.05 8.88,3.58 9.83,8.06c0.15,0.71 0.25,1.49 0.76,2.01c0.83,0.84 2.21,0.56 3.39,0.47c3.71,-0.29 7.44,2.31 8.44,5.89l-51.05,-0.19c-0.44,-1.72 0.33,-3.27 1.75,-4.35z" fill="#F5F5F5" id="svg_221"/>
     </g>
    </g>
    <g id="svg_222">
     <g id="svg_223">
      <path d="m1053.16,40.22c2.16,-1.63 5.31,-1.82 7.65,-0.45c3.1,-6.27 11.74,-9.04 17.91,-5.73c1.6,-6.76 8.26,-11.95 15.2,-11.86c6.94,0.08 13.47,5.43 14.91,12.22c0.23,1.08 0.38,2.26 1.16,3.05c1.25,1.28 3.34,0.85 5.13,0.71c5.62,-0.44 11.28,3.51 12.81,8.93l-77.42,-0.28c-0.68,-2.62 0.49,-4.96 2.65,-6.59z" fill="#F0F0F0" id="svg_224"/>
     </g>
    </g>
    <g id="svg_225">
     <g id="svg_226">
      <path d="m732.19,-33.68c1.91,-1.45 4.71,-1.61 6.79,-0.4c2.75,-5.56 10.42,-8.02 15.89,-5.09c1.43,-5.99 7.34,-10.6 13.5,-10.53c6.16,0.08 11.96,4.83 13.24,10.86c0.2,0.95 0.34,2 1.02,2.7c1.12,1.14 2.98,0.76 4.56,0.63c4.99,-0.39 10.02,3.12 11.37,7.94l-68.73,-0.25c-0.6,-2.33 0.44,-4.41 2.36,-5.86z" fill="#E0E0E0" id="svg_227"/>
     </g>
    </g>
   </g>
  </g>
  <g display="none" id="Background_simple">
   <g display="inline" id="svg_228">
    <path d="m185.77,59.57c-21.57,2.85 -42.36,8.91 -60.81,18.41c-21.73,11.21 -43.94,28.66 -37.38,51.49c12.11,42.15 70.2,42.92 58.61,71.26c-13.14,32.1 -4.33,69.76 54.63,80.23c111.98,19.89 247.35,-96.48 209.33,-160.43c-23.67,-39.81 -109.88,-76.07 -224.38,-60.96z" fill="#407BFF" id="svg_229"/>
    <path d="m185.77,59.57c-21.57,2.85 -42.36,8.91 -60.81,18.41c-21.73,11.21 -43.94,28.66 -37.38,51.49c12.11,42.15 70.2,42.92 58.61,71.26c-13.14,32.1 -4.33,69.76 54.63,80.23c111.98,19.89 247.35,-96.48 209.33,-160.43c-23.67,-39.81 -109.88,-76.07 -224.38,-60.96z" fill="#FFFFFF" id="svg_230" opacity="0.9"/>
   </g>
  </g>
  <g id="Shadow" transform="matrix(1 0 0 1 0 0)">
   <g id="svg_231">
    <g id="svg_232">
     <ellipse cx="875" cy="557.49" fill="#F5F5F5" id="svg_233" rx="208.88" ry="8.23"/>
    </g>
   </g>
  </g>
  <g id="Sing_2" transform="matrix(1 0 0 1 0 0)">
   <g id="svg_234">
    <g id="svg_239">
     <path d="m258.37,404.83l172.78,0.15c0.22,0 0.42,-0.1 0.56,-0.29l27.73,-40.91c0.22,-0.29 0.29,-7.68 0.09,-7.97l-28.96,-33.8c-0.14,-0.19 -0.34,-0.29 -0.56,-0.29l-171.64,0c-0.4,0 -0.72,0.36 -0.72,0.8l0,81.51c0,0.46 0.32,0.82 0.72,0.82z" fill="#407BFF" id="svg_240"/>
     <path d="m258.37,404.83l172.78,0.15c0.22,0 0.42,-0.1 0.56,-0.29l27.73,-40.91c0.22,-0.29 0.29,-7.68 0.09,-7.97l-28.96,-33.8c-0.14,-0.19 -0.34,-0.29 -0.56,-0.29l-171.64,0c-0.4,0 -0.72,0.36 -0.72,0.8l0,81.51c0,0.46 0.32,0.82 0.72,0.82z" id="svg_241" opacity="0.3"/>
     <path d="m258.37,398.78l171.64,0c0.22,0 0.42,-0.13 0.56,-0.31l28.87,-41.9c0.22,-0.31 0.22,-0.75 0,-1.05l-28.87,-41.9c-0.14,-0.21 -0.34,-0.31 -0.56,-0.31l-171.64,0c-0.4,0 -0.72,0.38 -0.72,0.82l0,83.81c0,0.46 0.32,0.84 0.72,0.84z" fill="#407BFF" id="svg_242"/>
     <g id="svg_243">
      <g id="svg_244">
       <path d="m268.32,323.02c0,1.8 -1.08,3.26 -2.41,3.26s-2.41,-1.46 -2.41,-3.26s1.08,-3.26 2.41,-3.26s2.41,1.46 2.41,3.26z" fill="#263238" id="svg_245"/>
       <path d="m268.32,323.02c0,1.8 -1.08,3.26 -2.41,3.26s-2.41,-1.46 -2.41,-3.26s1.08,-3.26 2.41,-3.26s2.41,1.46 2.41,3.26z" enable-background="new" fill="#FFFFFF" id="svg_246" opacity="0.5"/>
      </g>
      <g id="svg_247">
       <path d="m268.32,387.52c0,1.8 -1.08,3.26 -2.41,3.26s-2.41,-1.46 -2.41,-3.26s1.08,-3.26 2.41,-3.26s2.41,1.46 2.41,3.26z" fill="#263238" id="svg_248"/>
       <path d="m268.32,387.52c0,1.8 -1.08,3.26 -2.41,3.26s-2.41,-1.46 -2.41,-3.26s1.08,-3.26 2.41,-3.26s2.41,1.46 2.41,3.26z" enable-background="new" fill="#FFFFFF" id="svg_249" opacity="0.5"/>
      </g>
     </g>
     <g id="svg_250">
      <g id="svg_251">
       <path d="m428.86,323.02c0,1.8 -1.08,3.26 -2.41,3.26c-1.33,0 -2.41,-1.46 -2.41,-3.26s1.08,-3.26 2.41,-3.26c1.33,0 2.41,1.46 2.41,3.26z" fill="#263238" id="svg_252"/>
       <path d="m428.86,323.02c0,1.8 -1.08,3.26 -2.41,3.26c-1.33,0 -2.41,-1.46 -2.41,-3.26s1.08,-3.26 2.41,-3.26c1.33,0 2.41,1.46 2.41,3.26z" enable-background="new" fill="#FFFFFF" id="svg_253" opacity="0.5"/>
      </g>
      <g id="svg_254">
       <path d="m428.86,387.52c0,1.8 -1.08,3.26 -2.41,3.26c-1.33,0 -2.41,-1.46 -2.41,-3.26s1.08,-3.26 2.41,-3.26c1.33,0 2.41,1.46 2.41,3.26z" fill="#263238" id="svg_255"/>
       <path d="m428.86,387.52c0,1.8 -1.08,3.26 -2.41,3.26c-1.33,0 -2.41,-1.46 -2.41,-3.26s1.08,-3.26 2.41,-3.26c1.33,0 2.41,1.46 2.41,3.26z" enable-background="new" fill="#FFFFFF" id="svg_256" opacity="0.5"/>
      </g>
     </g>
     <g id="svg_257">
      <path d="m313.32,350.48l-6.48,0l0,-7.85l20.43,0l0,7.85l-6.49,0l0,22.2l-7.46,0l0,-22.2z" fill="#FFFFFF" id="svg_258"/>
      <path d="m338.67,365.13l-2.02,0l0,7.55l-7.46,0l0,-30.05l10.66,0c6.17,0 10.1,4.37 10.1,11.32c0,4.33 -1.53,7.6 -4.18,9.46l4.64,9.27l-7.97,0l-3.76,-7.55zm0.71,-14.69l-2.73,0l0,7.03l2.73,0c2.05,0 3.04,-1.32 3.04,-3.52s-0.99,-3.52 -3.04,-3.52z" fill="#FFFFFF" id="svg_259"/>
      <path d="m352.54,359.14l0,-16.51l7.46,0l0,16.22c0,4.6 1.3,6.32 3.39,6.32c2.08,0 3.38,-1.72 3.38,-6.32l0,-16.22l7.34,0l0,16.51c0,9.02 -3.99,14.21 -10.78,14.21c-6.8,0 -10.79,-5.19 -10.79,-14.21z" fill="#FFFFFF" id="svg_260"/>
      <path d="m395.92,365.05l0,7.64l-18.4,0l0,-30.05l18,0l0,7.64l-10.66,0l0,3.52l9.36,0l0,7.3l-9.36,0l0,3.93l11.06,0l0,0.02z" fill="#FFFFFF" id="svg_261"/>
     </g>
    </g>
    <path d="m382.6,313.31c0,0 -15.59,10.88 -31.38,23.9c-12.71,10.46 -39.57,36.43 -28.54,47.15c11.03,10.69 13.74,14.57 13.09,14.52c-0.65,-0.04 -21.3,0 -21.3,0s-7.63,-17.77 0,-32.1c7.63,-14.31 24.04,-27.31 26.58,-40.49c2.54,-13.18 -5.29,-13.27 -5.29,-13.27l46.83,0.29z" fill="#FFFFFF" id="svg_262" opacity="0.2"/>
    <g id="svg_263">
     <polygon fill="#FFFFFF" id="svg_264" opacity="0.2" points="357.0182800292969,517.4707641601562 337.85272216796875,552.40673828125 337.85272216796875,583.5381469726562 357.0182800292969,548.7715454101562 "/>
     <polygon fill="#FFFFFF" id="svg_265" opacity="0.2" points="357.0182800292969,577.1112670898438 337.85272216796875,612.04931640625 337.85272216796875,623.6995849609375 357.0182800292969,589.9375 "/>
    </g>
    <path d="m265.47,421.23c17.95,0 35.9,0 53.83,0" fill="none" id="svg_266" stroke="#407BFF" stroke-linecap="round" stroke-linejoin="round" stroke-miterlimit="10"/>
   </g>
  </g>
  <g id="Sing_1">
   <g id="svg_267">
    <g id="svg_272">
     <path d="m224.83,451.79c-0.56,-0.32 -154.03,0.72 -154.43,-0.14c-29.96,-52.06 -36.58,-31.64 1.03,-78.96c1.14,0 153.34,-1.58 154.03,0.48c-0.65,0.8 1.2,79.02 -0.63,78.62z" fill="#407BFF" id="svg_273"/>
     <path d="m224.83,451.79c-0.56,-0.32 -154.03,0.72 -154.43,-0.14c-29.96,-52.06 -36.58,-31.64 1.03,-78.96c1.14,0 153.34,-1.58 154.03,0.48c-0.65,0.8 1.2,79.02 -0.63,78.62z" id="svg_274" opacity="0.3"/>
     <path d="m224.83,446.01c-0.59,-0.34 -152.99,0.6 -153.4,-0.3c0,0 -25.73,-40.01 -25.73,-40.01c-1,-1.28 25.7,-40.05 25.73,-41.01c1.07,-0.04 153.43,-1.6 154.03,0.48c-0.59,0.78 1.15,81.24 -0.63,80.84z" fill="#407BFF" id="svg_275"/>
     <g id="svg_276">
      <g id="svg_277">
       <path d="m215.97,373.67c-0.04,4.04 4.31,4.04 4.27,0c0.04,-4.04 -4.31,-4.04 -4.27,0z" fill="#263238" id="svg_278"/>
       <path d="m215.97,373.67c-0.04,4.04 4.31,4.04 4.27,0c0.04,-4.04 -4.31,-4.04 -4.27,0z" enable-background="new" fill="#FFFFFF" id="svg_279" opacity="0.5"/>
      </g>
      <g id="svg_280">
       <path d="m215.97,435.26c-0.04,4.04 4.31,4.04 4.27,0c0.04,-4.04 -4.31,-4.04 -4.27,0z" fill="#263238" id="svg_281"/>
       <path d="m215.97,435.26c-0.04,4.04 4.31,4.04 4.27,0c0.04,-4.04 -4.31,-4.04 -4.27,0z" enable-background="new" fill="#FFFFFF" id="svg_282" opacity="0.5"/>
      </g>
     </g>
     <g id="svg_283">
      <g id="svg_284">
       <path d="m72.96,373.67c-0.04,4.04 4.31,4.04 4.27,0c0.04,-4.04 -4.31,-4.04 -4.27,0z" fill="#263238" id="svg_285"/>
       <path d="m72.96,373.67c-0.04,4.04 4.31,4.04 4.27,0c0.04,-4.04 -4.31,-4.04 -4.27,0z" enable-background="new" fill="#FFFFFF" id="svg_286" opacity="0.5"/>
      </g>
      <g id="svg_287">
       <path d="m72.96,435.26c-0.04,4.04 4.31,4.04 4.27,0c0.04,-4.04 -4.31,-4.04 -4.27,0z" fill="#263238" id="svg_288"/>
       <path d="m72.96,435.26c-0.04,4.04 4.31,4.04 4.27,0c0.04,-4.04 -4.31,-4.04 -4.27,0z" enable-background="new" fill="#FFFFFF" id="svg_289" opacity="0.5"/>
      </g>
     </g>
    </g>
    <g id="svg_290">
     <path d="m106.55,397.21l0,4.92l8.23,0l0,7.29l-8.23,0l0,9.17l-6.65,0l0,-28.68l16.03,0l0,7.29l-9.38,0z" fill="#FFFFFF" id="svg_291"/>
     <path d="m130.76,413.6l-7.49,0l-1.33,5l-6.76,0l8.63,-28.68l6.52,0l8.63,28.68l-6.88,0l-1.32,-5zm-1.83,-6.95l-1.92,-7.21l-1.91,7.21l3.83,0z" fill="#FFFFFF" id="svg_292"/>
     <path d="m140.02,389.92l6.65,0l0,21.18l8.9,0l0,7.49l-15.55,0l0,-28.68z" fill="#FFFFFF" id="svg_293"/>
     <path d="m156.16,416.32l2.14,-7.05c1.85,1.6 4.34,2.62 6.51,2.62c1.88,0 2.56,-0.56 2.56,-1.56c0,-3.6 -10.91,-0.7 -10.91,-11.39c0,-5.32 3.08,-9.67 9.19,-9.67c2.65,0 5.38,0.82 7.43,2.5l-1.99,7.01c-1.95,-1.44 -3.78,-2.14 -5.49,-2.14c-1.94,0 -2.57,0.82 -2.57,1.82c0,3.44 10.91,0.56 10.91,11.13c0,5.26 -3.06,9.67 -9.19,9.67c-3.28,0 -6.62,-1.18 -8.59,-2.94z" fill="#FFFFFF" id="svg_294"/>
     <path d="m192.3,411.3l0,7.29l-16.4,0l0,-28.68l16.03,0l0,7.29l-9.49,0l0,3.36l8.34,0l0,6.97l-8.34,0l0,3.76l9.86,0z" fill="#FFFFFF" id="svg_295"/>
    </g>
    <path d="m104.02,364.4c0,0 13.89,10.39 27.97,22.82c11.31,9.99 35.25,34.79 25.41,45.03c-9.82,10.21 -12.24,13.91 -11.66,13.87c0.58,-0.04 18.97,0 18.97,0s6.8,-16.97 0,-30.66c-6.8,-13.69 -21.42,-26.08 -23.68,-38.67c-2.27,-12.59 4.71,-12.69 4.71,-12.69l-41.72,0.3z" fill="#FFFFFF" id="svg_296" opacity="0.2"/>
    <polygon fill="#FFFFFF" id="svg_297" opacity="0.2" points="154.27285766601562,551.32177734375 137.19944763183594,584.6868896484375 137.19944763183594,614.4147338867188 154.27285766601562,581.2135009765625 "/>
    <polygon fill="#FFFFFF" id="svg_298" opacity="0.2" points="154.27285766601562,608.2772216796875 137.19944763183594,641.6423950195312 137.19944763183594,652.7681274414062 154.27285766601562,620.5260620117188 "/>
    <path d="m142.1,357.88c20.82,0 41.65,0 62.47,0" fill="none" id="svg_299" stroke="#407BFF" stroke-linecap="round" stroke-linejoin="round" stroke-miterlimit="10"/>
   </g>
  </g>
  <g id="Plants" transform="matrix(1 0 0 1 0 0)">
   <g id="svg_300">
    <path d="m1028.32,498.93c2.64,-8.9 2.78,-18.52 0.4,-27.49c-3.76,9.37 -9.12,18.09 -15.79,25.67c-1.31,-12.22 -3.54,-24.34 -6.67,-36.22c-4.85,12.25 -6.87,25.61 -5.86,38.74c-7.39,-7.27 -15.38,-13.94 -23.87,-19.89c0.73,11.29 7.41,26.04 22.28,34.39l23.7,0.07c13.12,-3.54 22.99,-16.69 22.71,-30.28c-3.76,6.69 -9.81,12.06 -16.9,15.01z" fill="#263238" id="svg_301"/>
   </g>
   <g id="svg_302">
    <g id="svg_303">
     <path d="m749.25,491.61c-0.7,-1.17 -2.24,-2.61 -3.33,-3.42c-1.08,-0.82 -2.57,-1.23 -3.83,-0.71c-1.6,0.65 -2.34,2.62 -2.12,4.34c0.22,1.72 1.04,3.9 2.02,5.33c4.18,6.11 8.04,11.7 14.48,16.25c0,-7.59 -3.37,-15.32 -7.22,-21.79z" fill="#407BFF" id="svg_304"/>
    </g>
    <g id="svg_305">
     <path d="m770.5,492.66c-1.44,-0.79 -4.12,0.33 -5.44,1.32c-2.6,1.95 -4.19,4 -5.78,6.84c-2.02,3.61 -2.25,8.68 -2.51,11.9c5.1,-4.14 10.3,-8.38 13.79,-13.95c0.61,-0.97 1.18,-2.01 1.28,-3.15c0.11,-1.15 -0.34,-2.41 -1.34,-2.96z" fill="#407BFF" id="svg_306"/>
    </g>
    <path d="m750.83,500.5c3.02,4.86 5.19,10.24 6.4,15.83" fill="none" id="svg_307" stroke="#263238" stroke-linecap="round" stroke-linejoin="round" stroke-miterlimit="10" stroke-width="0.5"/>
    <path d="m762.45,502.97c-2.54,3.04 -4.54,6.52 -5.89,10.24" fill="none" id="svg_308" stroke="#263238" stroke-linecap="round" stroke-linejoin="round" stroke-miterlimit="10" stroke-width="0.5"/>
   </g>
  </g>
  <g id="Character">
   <g id="svg_318">
    <g id="svg_319">
     <path d="m-203.32,72.34c-11.86,0 -23.12,-5 -30.85,-13.67c9.75,-8.15 8.63,-31.43 6.85,-44.28l4.19,3.85l19.67,18.13c-1.07,2.92 -1.74,5.96 -2.04,9.04c-0.4,6.59 2.22,12.5 12.21,15.3c2.37,4.32 1.32,11.96 -10.03,11.64z" fill="#FDBBB5" id="svg_320"/>
     <path d="m-203.47,36.37c-1.07,2.92 -1.74,5.96 -2.04,9.04c-10.25,3.48 -19.39,-6.7 -20.07,-17.57c-0.24,-3.78 1.82,-7.41 2.35,-9.56l19.76,18.09z" enable-background="new" id="svg_321" opacity="0.2"/>
     <path d="m-178.27,-11.55c2.39,6.66 1.6,20.45 -8.23,16.24c-9.83,-4.23 4.15,-27.6 8.23,-16.24z" fill="#263238" id="svg_322"/>
     <path d="m-227.98,-1.11c-0.53,17.27 -1.78,27.36 6.37,36.87c12.27,14.42 35.02,8.25 40.92,-8.55c5.31,-15.12 5.27,-40.82 -11.46,-49.03c-12.16,-5.96 -27,-1.28 -33.17,10.47c-1.67,3.18 -2.57,6.68 -2.66,10.24z" fill="#FDBBB5" id="svg_323"/>
     <path d="m-197.68,42.92c-0.75,-0.12 -3.29,-1.94 -2.81,-5.51s10.49,-12.13 14.66,-11.64c4.19,0.49 1.19,5.87 1.19,5.87s-9.86,10.16 -10.38,10.37s-2.66,0.91 -2.66,0.91z" enable-background="new" id="svg_324" opacity="0.2"/>
     <path d="m-185.01,-7.49c12.45,-0.73 21.86,-13.11 6.35,-23.74c-3.65,-2.31 -7.66,-3.99 -11.9,-4.98c0,0 3.25,4.48 -0.06,7.83c-3.03,-7.1 -10.54,-11.43 -18.46,-10.63c2.09,3.71 -0.55,11.54 -6.5,9.25c-9.02,-3.46 -22.15,-1.54 -20.85,9.23c-11.59,5.96 -5.49,23.44 10.54,31.66c8.45,-6.9 6.96,-22.99 6.96,-22.99c8.52,3.34 22.65,4.91 33.9,4.37z" fill="#263238" id="svg_325"/>
     <path d="m-233.97,-19.15c0,0 -7.13,-4.2 -1.47,-10.02c-7.71,2.26 -5.45,8.18 1.47,10.02z" fill="#263238" id="svg_326"/>
     <path d="m-232.92,-17.42c0,0 -6.43,-5.16 -10.32,1.91c-0.28,-7.73 6.28,-7.6 10.32,-1.91z" fill="#263238" id="svg_327"/>
     <path d="m-236.18,12.59c0.97,4.23 3.64,7.9 7.44,10.21c5.03,3.01 9.27,-1 9.27,-6.45c0.04,-4.89 -2.59,-12.46 -8.36,-13.18c-4.3,-0.44 -8.14,2.59 -8.58,6.75c-0.09,0.89 -0.02,1.8 0.22,2.67z" fill="#FDBBB5" id="svg_328"/>
     <g id="svg_329">
      <g id="svg_330">
       <path d="m-205.23,6.3c-0.17,1.77 0.66,3.29 1.85,3.37c1.21,0.1 2.33,-1.26 2.5,-3.02c0.18,-1.77 -0.66,-3.29 -1.85,-3.37c-1.19,-0.1 -2.31,1.24 -2.5,3.02z" fill="#263238" id="svg_331"/>
       <path d="m-186.44,8.68c-0.17,1.77 0.66,3.29 1.85,3.37c1.21,0.1 2.33,-1.24 2.5,-3.02c0.18,-1.77 -0.66,-3.27 -1.85,-3.37c-1.19,-0.1 -2.31,1.26 -2.5,3.02z" fill="#263238" id="svg_332"/>
       <path d="m-189.99,7.12c0,0 4.94,9.32 6.45,13.08c-2.77,1.99 -7.07,0.56 -7.07,0.56l0.62,-13.64z" fill="#F7776A" id="svg_333"/>
       <path d="m-207.25,0.67c0.24,0.19 0.57,0.26 0.86,0.14c3.62,-1.28 6.21,0.49 6.23,0.51c0.39,0.28 0.94,0.19 1.21,-0.17c0.29,-0.37 0.2,-0.87 -0.18,-1.15c-0.13,-0.09 -3.36,-2.32 -7.86,-0.72c-0.44,0.16 -0.66,0.63 -0.5,1.07c0.06,0.14 0.13,0.24 0.24,0.33z" fill="#263238" id="svg_334"/>
      </g>
      <path d="m-175.27,-0.46c0.17,-0.05 0.31,-0.14 0.42,-0.26c0.31,-0.35 0.28,-0.89 -0.09,-1.19c-3.6,-2.99 -7.4,-1.91 -7.57,-1.87c-0.46,0.12 -0.72,0.59 -0.59,1.03c0.13,0.44 0.61,0.7 1.05,0.56c0.17,-0.05 3.1,-0.84 5.99,1.56c0.24,0.19 0.53,0.24 0.79,0.17z" fill="#263238" id="svg_335"/>
     </g>
     <g id="svg_336" opacity="0.2">
      <g id="svg_337">
       <path d="m-231.71,7.96c2.37,-1.01 4.9,0.21 6.15,2.24c0.61,1 0.94,2.17 1.03,3.32c0.11,1.14 0.02,2.31 -0.73,3.23c-0.24,0.3 -0.06,0.73 0.24,0.91c0.35,0.19 0.72,0.03 0.94,-0.24c0.92,-1.12 1.07,-2.62 0.94,-3.99c-0.13,-1.47 -0.55,-2.94 -1.41,-4.2c-1.73,-2.52 -4.89,-3.67 -7.84,-2.41c-0.81,0.33 -0.11,1.47 0.7,1.14l0,0z" id="svg_338"/>
      </g>
     </g>
     <g id="svg_339">
      <g id="svg_340">
       <path d="m-193.79,26.16c0.46,-0.33 0.97,-0.58 1.54,-0.68c0.2,-0.05 0.35,-0.05 0.57,-0.05c-0.02,0 -0.07,-0.02 -0.02,0c0.02,0 0.04,0 0.07,0c0,0 0.07,0.03 0.02,0.02c-0.06,-0.03 0,0 0.02,0c0.04,0.03 0.06,0.05 0.02,0.02c0.02,0.02 0.04,0.02 0.06,0.03c-0.06,-0.03 0,0.02 0,0.03c0.02,0.03 0.04,0.05 0.06,0.09c0.09,0.19 0.39,0.24 0.57,0.14c0.2,-0.1 0.24,-0.33 0.15,-0.52c-0.13,-0.28 -0.4,-0.51 -0.72,-0.58c-0.28,-0.05 -0.57,-0.02 -0.86,0.03c-0.75,0.12 -1.45,0.47 -2.06,0.93c-0.17,0.12 -0.15,0.42 0,0.54c0.18,0.17 0.42,0.14 0.59,0l0,0z" fill="#263238" id="svg_341"/>
      </g>
     </g>
    </g>
    <g id="svg_342">
     <polygon fill="#263238" id="svg_343" points="-306.84837341308594,579.1615600585938 -289.86717224121094,584.9757080078125 -271.09149169921875,548.6082763671875 -295.373291015625,540.4656372070312 "/>
     <polygon fill="#FFFFFF" id="svg_344" opacity="0.5" points="-306.84837341308594,579.1615600585938 -289.86717224121094,584.9757080078125 -271.09149169921875,548.6082763671875 -295.373291015625,540.4656372070312 "/>
     <polygon fill="#263238" id="svg_345" points="-171.40234375,581.5057983398438 -153.41830444335938,580.4288940429688 -150.90216064453125,539.8643798828125 -176.54483032226562,541.5634155273438 "/>
     <polygon fill="#FFFFFF" id="svg_346" opacity="0.5" points="-171.40234375,581.5057983398438 -153.41830444335938,580.4288940429688 -150.90216064453125,539.8643798828125 -176.54483032226562,541.5634155273438 "/>
     <path d="m-289.9,579.94l-19.58,-3.04c-0.72,-0.1 -1.43,0.28 -1.71,0.94l-6.23,14.68c-0.55,1.29 0.07,2.76 1.41,3.3c0.22,0.09 0.48,0.14 0.72,0.17c7.05,0.94 17.28,2.13 26.12,3.53c10.28,1.61 16.99,1.96 29.09,3.83c7.33,1.15 10.62,-5.66 7.64,-6.77c-13.43,-5.1 -22.61,-5.61 -33.41,-14.72c-1.14,-1 -2.55,-1.66 -4.06,-1.94z" fill="#263238" id="svg_347"/>
     <path d="m-288.78,582.19c0,-0.17 0.11,-0.31 0.29,-0.37c0.88,-0.28 8.65,-2.69 10.69,-1.08c0.37,0.28 0.57,0.73 0.51,1.19c-0.07,0.75 -0.5,1.43 -1.14,1.85c-2.26,1.35 -7.25,-0.1 -10.03,-1.1l0,0c-0.24,-0.05 -0.39,-0.26 -0.33,-0.49c0,0 0,0 0,0zm1.78,0.03c3.82,1.24 6.78,1.54 8.06,0.77c0.42,-0.26 0.7,-0.73 0.72,-1.22c0.06,-0.19 -0.02,-0.38 -0.18,-0.49l-0.15,-0.02c-1.25,-0.7 -5.4,0.1 -8.45,0.96l0,0z" fill="#407BFF" id="svg_348"/>
     <path d="m-288.67,582.49c-0.11,-0.09 -0.15,-0.26 -0.09,-0.4c0.61,-2.39 1.98,-4.55 3.91,-6.15c0.73,-0.44 1.62,-0.56 2.46,-0.35c1.14,0.31 1.38,0.93 1.38,1.38c0,2.01 -4.92,5.05 -7.25,5.63c-0.09,0.03 -0.2,0.02 -0.31,-0.03l-0.09,-0.07zm6.15,-6.08c-0.61,-0.16 -1.25,-0.07 -1.8,0.24c-1.6,1.28 -2.75,2.99 -3.34,4.91c2.42,-0.93 5.77,-3.39 5.93,-4.56c0,0 0.04,-0.26 -0.33,-0.44c-0.18,-0.09 -0.37,-0.14 -0.55,-0.17l0.09,0.02z" fill="#407BFF" id="svg_349"/>
     <path d="m-155.2,577.47l-19.73,0.79c-0.73,0.03 -1.34,0.56 -1.49,1.24l-3.03,15.59c-0.28,1.38 0.64,2.69 2.06,2.95c0.24,0.05 0.48,0.07 0.73,0.03c7.11,-0.4 17.37,-1.21 26.32,-1.54c10.43,-0.4 17.06,-1.35 29.29,-1.84c7.44,-0.28 9.26,-7.59 6.13,-8.11c-14.23,-2.41 -23.32,-1.15 -35.8,-7.99c-1.36,-0.79 -2.92,-1.17 -4.5,-1.14z" fill="#263238" id="svg_350"/>
     <path d="m-153.62,579.48c-0.04,-0.17 0.04,-0.33 0.2,-0.42c0.81,-0.45 7.93,-4.3 10.25,-3.11c0.42,0.19 0.72,0.59 0.75,1.07c0.13,0.75 -0.15,1.52 -0.73,2.03c-1.93,1.75 -7.11,1.29 -10.03,0.84l0,0c-0.22,-0.03 -0.4,-0.19 -0.44,-0.4zm1.74,-0.3c4,0.47 7,0.19 8.06,-0.8c0.39,-0.33 0.57,-0.84 0.46,-1.35c0,-0.17 -0.09,-0.35 -0.26,-0.44l-0.17,0.02c-1.38,-0.45 -5.2,1.14 -8.1,2.57l0,0z" fill="#407BFF" id="svg_351"/>
     <path d="m-153.46,579.75c-0.13,-0.07 -0.18,-0.21 -0.18,-0.37c0.11,-2.46 1.01,-4.82 2.59,-6.78c0.62,-0.58 1.47,-0.87 2.35,-0.82c1.18,0.09 1.52,0.65 1.63,1.1c0.39,1.96 -3.8,5.89 -5.95,6.9c-0.11,0.03 -0.22,0.05 -0.33,0.02l-0.11,-0.05zm4.78,-7.13c-0.64,-0.05 -1.27,0.16 -1.74,0.58c-1.32,1.56 -2.11,3.46 -2.26,5.45c2.19,-1.36 4.94,-4.42 4.87,-5.61c0,0 -0.02,-0.24 -0.4,-0.35l-0.46,-0.07z" fill="#407BFF" id="svg_352"/>
     <path d="m-147.89,561.95l-34.42,2.36c0,0 -8.45,-97.67 -12.62,-151.75c-2.17,-21.52 -5.62,-42.9 -10.36,-64.03c-6.48,-30.94 -14.78,-64.38 -21.56,-90.59c-7.18,-27.58 -12.69,-47.2 -12.69,-47.2l67.5,-1.21c0,0 23.78,134.52 26.8,187.45c3.03,55.41 -2.64,164.97 -2.64,164.97z" fill="#263238" id="svg_353"/>
     <path d="m-205.28,348.53c-6.48,-30.94 -14.78,-64.38 -21.56,-90.59l6.85,-13.57c15.17,18.16 18.26,73.91 14.71,104.15z" enable-background="new" id="svg_354" opacity="0.2"/>
     <path d="m-269,196.79c0,0 -8.5,25.21 -5.18,78.07l33.94,10.09l23.49,-35.73l44.98,-1.47l-0.31,-25.99l0.7,-14.07l-97.62,-10.89z" fill="#263238" id="svg_355"/>
     <path d="m-210.48,209.13c0,0 -10.74,150.42 -17.47,201.1c-7.35,55.52 -46.37,160.88 -46.37,160.88l-36.36,-4.93c0,0 27.37,-96.15 31.02,-151.63c3.12,-47.23 5.55,-139.48 6.54,-180.84c0.22,-11.85 9.86,-21.54 22.11,-22.22l40.53,-2.36z" fill="#263238" id="svg_356"/>
     <g id="svg_357" opacity="0.2">
      <g id="svg_358">
       <path d="m-266.26,232.14c11.06,-1.84 20.48,-9.51 24.39,-19.47c0.31,-0.79 -1.01,-1.12 -1.32,-0.35c-3.77,9.56 -12.87,16.8 -23.44,18.56c-0.88,0.14 -0.51,1.42 0.37,1.26l0,0z" id="svg_359"/>
      </g>
     </g>
     <g id="svg_360" opacity="0.2">
      <g id="svg_361">
       <path d="m-170.66,232.63c-5.03,-3.22 -9.11,-7.8 -11.44,-13.15c-0.33,-0.77 -1.67,-0.42 -1.32,0.35c2.46,5.7 6.7,10.51 12.07,13.93c0.75,0.47 1.43,-0.66 0.7,-1.14l0,0z" id="svg_362"/>
      </g>
     </g>
    </g>
    <g id="svg_363">
     <path d="m-176.6,63.25l2.98,44.09l-1.38,14.42c3.27,2.92 6.69,5.68 10.25,8.27c13.63,8.37 18.49,9.51 25.4,10.28l0.86,-2.13c0,0 -7.6,-19.56 -20.28,-45.22c-0.02,0.07 -10.76,-28.65 -17.83,-29.7z" fill="#407BFF" id="svg_364"/>
     <path d="m-176.6,63.25l2.98,44.09l-1.38,14.42c3.27,2.92 6.69,5.68 10.25,8.27c13.63,8.37 18.49,9.51 25.4,10.28l0.86,-2.13c0,0 -7.6,-19.56 -20.28,-45.22c-0.02,0.07 -10.76,-28.65 -17.83,-29.7z" enable-background="new" fill="#FFFFFF" id="svg_365" opacity="0.5"/>
     <path d="m-173.62,107.34l-1.38,14.42c3.27,2.92 6.69,5.68 10.25,8.27c2.42,-13.06 -7.2,-25.38 -7.2,-25.38c-0.7,0.8 -1.25,1.71 -1.67,2.69z" enable-background="new" id="svg_366" opacity="0.2"/>
     <path d="m-266.72,61.03c2.72,19.26 3.95,38.69 3.65,58.12c-0.11,13.58 -0.94,26.48 -1.78,38.13c-2.17,27.31 -7.55,42.99 -7.64,50.08l101.89,3.92c6.15,-67.79 -3.45,-146.77 -3.45,-146.77c-7.36,-2.24 -6.65,-1.71 -14.25,-3.04c-1.62,-0.31 -3.25,-0.54 -4.92,-0.79c-13.61,-1.43 -27.29,-2.1 -40.97,-2.01c-2.63,0 -5.23,0.05 -7.84,0.16c-13,0.51 -24.68,2.2 -24.68,2.2z" fill="#407BFF" id="svg_367"/>
     <path d="m-266.72,61.03c2.72,19.26 3.95,38.69 3.65,58.12c-0.11,13.58 -0.94,26.48 -1.78,38.13c-2.17,27.31 -7.55,42.99 -7.64,50.08l101.89,3.92c6.15,-67.79 -3.45,-146.77 -3.45,-146.77c-7.36,-2.24 -6.65,-1.71 -14.25,-3.04c-1.62,-0.31 -3.25,-0.54 -4.92,-0.79c-13.61,-1.43 -27.29,-2.1 -40.97,-2.01c-2.63,0 -5.23,0.05 -7.84,0.16c-13,0.51 -24.68,2.2 -24.68,2.2z" enable-background="new" fill="#FFFFFF" id="svg_368" opacity="0.5"/>
     <path d="m-238.34,58.74l8.83,-9.51c0.09,-0.26 22,11.48 22,11.48c0.44,0 4.08,-7.99 4.08,-7.99l15.12,8.76c0,0 -9.84,14.84 -10.34,15c-0.48,0.17 -18.46,-1.57 -18.46,-1.57l-21.23,-16.17z" fill="#407BFF" id="svg_369"/>
     <path d="m-238.32,58.74l8.83,-9.51c0.09,-0.26 22,11.48 22,11.48c0.44,0 4.08,-7.99 4.08,-7.99l15.12,8.76c0,0 -9.84,14.84 -10.34,15c-0.48,0.17 -18.46,-1.57 -18.46,-1.57l-21.23,-16.17z" enable-background="new" fill="#FFFFFF" id="svg_370" opacity="0.5"/>
     <path d="m-201.32,75c2.41,8.71 11.66,96.58 13.81,119.03l-10.89,11.92l-10.87,-12.2c-0.2,-21.5 4.78,-107.21 2.37,-118.28l5.58,-0.47z" fill="#407BFF" id="svg_371"/>
     <polygon fill="#407BFF" id="svg_372" points="-206.36209106445312,76.62924194335938 -201.3665771484375,76.34431457519531 -199.9083251953125,69.14212036132812 -207.58160400390625,64.04293823242188 -212.31268310546875,71.36746215820312 "/>
     <path d="m-238.32,58.74c0,0 22.04,21.12 22.11,20.87c0.09,-0.26 8.63,-15.58 8.63,-15.58l-8.19,11.59l-22.55,-16.89z" enable-background="new" id="svg_373" opacity="0.2"/>
     <polygon id="svg_374" opacity="0.2" points="-207.58160400390625,64.04293823242188 -194.74566650390625,72.21527099609375 -188.30093383789062,61.49067687988281 -194.35443115234375,74.88285827636719 "/>
     <g id="svg_375" opacity="0.2">
      <g id="svg_376">
       <path d="m-168.99,126.92c-0.28,-14.33 -0.96,-28.65 -1.21,-42.99c-0.02,-0.86 -1.4,-0.86 -1.38,0c0.26,14.33 0.94,28.65 1.21,42.99c0.02,0.84 1.4,0.86 1.38,0l0,0z" id="svg_377"/>
      </g>
     </g>
     <path d="m-263.36,131.69c0,0 13.87,25.16 26.47,29.21c12.62,4.04 68.36,-1.33 68.36,-1.33l0.11,-10l-62.22,-3.41c0,0 -33.1,-33.44 -32.64,-33.23c0.48,0.23 -0.07,18.76 -0.07,18.76z" id="svg_378" opacity="0.3"/>
     <path d="m-155.68,136.99l20.53,-3.44l0.73,-1.91c0,0 -0.62,-3.71 -10.45,-1.22c-9.83,2.46 -12.05,5 -12.05,5c0.31,0.59 0.73,1.12 1.23,1.57z" enable-background="new" id="svg_379" opacity="0.2"/>
     <g id="svg_380" opacity="0.2">
      <g id="svg_381">
       <path d="m-261.06,65.25c8.54,4.07 11.7,13.44 15.46,21.15c4.43,9.14 8.8,18.32 13.11,27.52c1.3,2.78 2.64,5.54 3.89,8.36c0.35,0.77 1.52,0.1 1.19,-0.66c-6.92,-15.61 -14.38,-31.13 -22.22,-46.36c-2.39,-4.65 -5.75,-8.76 -10.74,-11.14c-0.79,-0.38 -1.49,0.75 -0.7,1.14l0,0z" id="svg_382"/>
      </g>
     </g>
     <g id="svg_383">
      <path d="m-133.88,125.33c-1.41,-10.16 -8.52,-19.88 -12.45,-28.84c-7.53,-16.1 -16.66,-30.47 -22.77,-46.03c-1.12,-2.81 -4.9,-3.69 -7.86,-2.76c-3.6,1.1 -5.56,4.81 -4.41,8.29c3.69,10.93 9.77,24.18 12.84,38.06l11.63,41.38c2.31,4.44 13.63,7.95 19.45,1.64c2.87,-3.25 4.17,-7.52 3.58,-11.73zm-24.52,1.24c0,0.12 0.04,0.24 0.04,0.35c-0.04,0 -0.06,-0.17 -0.04,-0.35z" fill="#FDBBB5" id="svg_384"/>
      <path d="m-180.51,26.74l5.88,3.18c2.2,1.21 3.67,3.37 3.93,5.82l1.25,11.38c0.51,4.56 -1.3,9.07 -4.87,12.1l-2.19,1.89c-10.08,-4.67 -17.52,-16.9 -17.52,-16.9l-2.5,-3.29c-2.22,-2.74 -1.73,-6.7 1.1,-8.85c0.02,-0.02 0.04,-0.03 0.06,-0.05l6.65,-4.88c2.41,-1.7 5.62,-1.85 8.21,-0.4z" fill="#FDBBB5" id="svg_385"/>
     </g>
     <g id="svg_386">
      <g id="svg_387">
       <path d="m-130.72,143.3c0,-0.03 -0.02,-0.05 -0.02,-0.09l-2.92,-7.48c-0.02,-0.02 -0.04,-0.05 -0.04,-0.09c-1.38,-3.22 -5.18,-4.75 -8.52,-3.44l-3.93,1.4c0,0 -7.44,1.82 -14.36,5.89c-10.67,-0.17 -21.47,-0.54 -31.98,-1.14c-8.36,-0.42 -16.66,-1.47 -24.87,-3.09c-2.87,-0.49 -5.58,-1.56 -8.01,-3.11c-8.01,-12.22 -20.97,-38.3 -28.49,-52.2l0.11,0.02c-8.52,-15.17 -31.72,-4.2 -24.57,11.59c9.95,19.53 19.96,39.02 34.31,56.1c12.03,12.52 35.76,10.77 51.68,10.14c10.52,-0.77 20.96,-2.2 31.3,-4.2c0.06,0.03 0.11,0.07 0.17,0.1c2.52,1.45 5.62,1.61 8.37,0.7l10.41,-3.48c0.35,0.45 3.51,2.74 6.04,1.28l0.37,-0.1c3.89,-1.1 6.3,-5.1 4.94,-8.79z" fill="#FDBBB5" id="svg_388"/>
       <path d="m-253.09,139.37l23.93,-14.05l-15.17,-39.1c0,0 -11.68,-30.96 -24.41,-24.46c-22.39,11.5 -11.18,40.42 15.65,77.62z" fill="#407BFF" id="svg_389"/>
       <path d="m-253.09,139.37l23.93,-14.05l-15.17,-39.1c0,0 -11.68,-30.96 -24.41,-24.46c-22.39,11.5 -11.18,40.42 15.65,77.62z" enable-background="new" fill="#FFFFFF" id="svg_390" opacity="0.5"/>
       <polygon fill="#407BFF" id="svg_391" points="-226.14788818359375,120.90850830078125 -259.33168029785156,141.09378051757812 -248.20004272460938,149.69268798828125 -221.87774658203125,128.70675659179688 "/>
       <polygon fill="#FFFFFF" id="svg_392" opacity="0.3" points="-226.14788818359375,120.90850830078125 -259.33168029785156,141.09378051757812 -248.20004272460938,149.69268798828125 -221.87774658203125,128.70675659179688 "/>
      </g>
      <path d="m-141.96,150.89c0,0 5.88,-2.43 5.68,-2.31c-0.22,0.1 -4.11,3.46 -4.11,3.46s-1.27,-0.42 -1.56,-1.15z" enable-background="new" id="svg_393" opacity="0.2"/>
     </g>
    </g>
   </g>
  </g>
  <g id="svg_394" transform="matrix(1 0 0 1 0 0)">
   <path d="m353.79,133.75c-5.7,-12.02 -13.85,-22.81 -24.23,-32.07c-4.18,-3.73 -8.64,-7.13 -13.35,-10.2l5.77,-8.03c2.02,-2.81 1.1,-6.55 -2.05,-8.36c-3.15,-1.8 -7.34,-0.98 -9.36,1.83l-5.76,8.03c-3.61,-1.8 -7.34,-3.44 -11.18,-4.89c-11.87,-4.48 -24.37,-7.08 -37.24,-7.75l0,-8.14l10.28,0c3.74,0 6.78,-2.71 6.78,-6.05c0,-3.34 -3.04,-6.05 -6.78,-6.05l-34.11,0c-3.74,0 -6.78,2.71 -6.78,6.05c0,3.34 3.04,6.05 6.78,6.05l10.28,0l0,8.14c-12.87,0.67 -25.37,3.27 -37.24,7.75c-13.47,5.08 -25.56,12.36 -35.94,21.62c-10.38,9.27 -18.54,20.06 -24.23,32.07c-5.9,12.45 -8.89,25.66 -8.89,39.28c0,13.62 2.99,26.84 8.89,39.28c5.7,12.02 13.85,22.81 24.23,32.07c10.38,9.27 22.47,16.54 35.94,21.62c13.94,5.26 28.75,7.93 44.02,7.93c15.26,0 30.07,-2.67 44.02,-7.93c13.47,-5.08 25.56,-12.36 35.94,-21.62c10.38,-9.26 18.54,-20.06 24.23,-32.07c5.9,-12.44 8.89,-25.66 8.89,-39.28c0,-13.62 -2.99,-26.84 -8.89,-39.28zm-33.82,102.08c-18.8,16.78 -43.79,26.02 -70.37,26.02c-26.58,0 -51.58,-9.24 -70.37,-26.02s-29.15,-39.08 -29.15,-62.8c0,-23.72 10.35,-46.03 29.15,-62.8s43.79,-26.01 70.37,-26.01c19.11,0 37.4,4.77 53.15,13.69c0.17,0.12 0.35,0.24 0.54,0.34c0.16,0.09 0.32,0.17 0.48,0.25c5.78,3.36 11.21,7.28 16.2,11.73c18.8,16.78 29.15,39.08 29.15,62.8c0,23.72 -10.35,46.02 -29.15,62.8z" fill="#5D6FED" id="svg_395"/>
   <path d="m249.6,95.3c-48.1,0 -87.1,34.8 -87.1,77.73s39,77.73 87.1,77.73s87.1,-34.8 87.1,-77.73l-87.1,0l0,-77.73z" fill="#1A1C21" id="svg_396"/>
  </g>
 </g>
</svg>