<?xml version="1.0"?>
<svg width="500" height="500" xmlns="http://www.w3.org/2000/svg" xmlns:svg="http://www.w3.org/2000/svg" enable-background="new 0 0 500 500" version="1.1" xml:space="preserve">
 <g class="layer">
  <title>Layer 1</title>
  <g id="svg_465" transform="matrix(1 0 0 1 0 0)">
   <g id="svg_466">
    <g id="svg_467">
     <path d="m375.88,146.5c35.54,-12.87 48.24,-50.08 30.69,-76.68c-17.6,-26.56 -59.08,-41.28 -98.43,-39.8c-39.35,1.48 -76.03,17.06 -104.1,37.87c-28.12,-26.07 -84.86,-30.79 -119.91,-9.99c-34.39,20.43 -28.67,62.33 -2.83,89.13c-30.25,11.18 -50.42,38.44 -43,63.64c9.1,31.04 57.88,51.64 97.73,41.28c-0.05,40.21 47.58,77.01 100.89,77.91c53.25,0.86 103.01,-34.33 105.25,-74.5c40.66,14.23 95.44,-5.88 105.63,-38.81c10.19,-32.89 -27.09,-69.24 -71.89,-70.06z" fill="#407BFF" id="svg_468"/>
    </g>
    <path d="m413.54,305.77c0,9.42 -10.14,17.06 -22.67,17.06c-12.48,0 -22.62,-7.61 -22.62,-17.06c0,-9.42 10.14,-17.06 22.62,-17.06c12.54,0 22.67,7.65 22.67,17.06z" fill="#407BFF" id="svg_469"/>
    <g id="svg_470" opacity="0.8">
     <path d="m375.88,146.5c35.54,-12.87 48.24,-50.08 30.69,-76.68c-17.6,-26.56 -59.08,-41.28 -98.43,-39.8c-39.35,1.48 -76.03,17.06 -104.1,37.87c-28.12,-26.07 -84.86,-30.79 -119.91,-9.99c-34.39,20.43 -28.67,62.33 -2.83,89.13c-30.25,11.18 -50.42,38.44 -43,63.64c9.1,31.04 57.88,51.64 97.73,41.28c-0.05,40.21 47.58,77.01 100.89,77.91c53.25,0.86 103.01,-34.33 105.25,-74.5c40.66,14.23 95.44,-5.88 105.63,-38.81c10.19,-32.89 -27.09,-69.24 -71.89,-70.06z" fill="#FFFFFF" id="svg_471"/>
    </g>
    <path d="m413.54,305.77c0,9.42 -10.14,17.06 -22.67,17.06c-12.48,0 -22.62,-7.61 -22.62,-17.06c0,-9.42 10.14,-17.06 22.62,-17.06c12.54,0 22.67,7.65 22.67,17.06z" fill="#FFFFFF" id="svg_472" opacity="0.8"/>
    <g id="svg_473"/>
   </g>
  </g>
  <g id="Background_complete" transform="matrix(1 0 0 1 0 0)">
   <g id="svg_1">
    <path d="m-444.7,413.93c2.64,-8.9 2.78,-18.52 0.4,-27.49c-3.76,9.37 -9.12,18.09 -15.78,25.67c-1.32,-12.22 -3.55,-24.34 -6.67,-36.22c-4.86,12.25 -6.88,25.61 -5.87,38.74c-7.38,-7.27 -15.38,-13.94 -23.87,-19.89c0.74,11.29 7.42,26.04 22.28,34.39l23.7,0.07c13.13,-3.54 22.99,-16.69 22.72,-30.28c-3.77,6.69 -9.82,12.06 -16.91,15.01z" fill="#E0E0E0" id="svg_2"/>
   </g>
   <g id="svg_3">
    <path d="m-181.19,418.14c1.91,-6.44 2.01,-13.41 0.29,-19.91c-2.72,6.79 -6.61,13.1 -11.43,18.59c-0.95,-8.85 -2.57,-17.63 -4.83,-26.23c-3.52,8.87 -4.98,18.54 -4.25,28.06c-5.35,-5.27 -11.14,-10.1 -17.29,-14.41c0.54,8.18 5.37,18.86 16.14,24.9l17.16,0.05c9.51,-2.56 16.65,-12.08 16.45,-21.92c-2.73,4.84 -7.11,8.73 -12.24,10.87z" fill="#E0E0E0" id="svg_4"/>
   </g>
   <g id="svg_5">
    <g id="svg_6">
     <g id="svg_7">
      <g id="svg_8">
       <g id="svg_9">
        <path d="m-154.08,296.42l-180.75,0c-3.23,0 -5.86,-2.63 -5.86,-5.86l0,-263.28c0,-3.23 2.63,-5.86 5.86,-5.86l180.75,0c3.23,0 5.86,2.63 5.86,5.86l0,263.28c0,3.23 -2.63,5.86 -5.86,5.86zm-180.75,-274.75c-3.09,0 -5.61,2.52 -5.61,5.61l0,263.28c0,3.09 2.52,5.61 5.61,5.61l180.75,0c3.1,0 5.61,-2.52 5.61,-5.61l0,-263.28c0,-3.09 -2.52,-5.61 -5.61,-5.61l-180.75,0z" fill="#E0E0E0" id="svg_10"/>
       </g>
      </g>
      <g id="svg_11">
       <g id="svg_12">
        <path d="m-362.51,296.42l-180.74,0c-3.24,0 -5.87,-2.63 -5.87,-5.86l0,-263.28c0,-3.23 2.63,-5.86 5.87,-5.86l180.74,0c3.24,0 5.87,2.63 5.87,5.86l0,263.28c-0.01,3.23 -2.64,5.86 -5.87,5.86zm-180.74,-274.75c-3.1,0 -5.62,2.52 -5.62,5.61l0,263.28c0,3.09 2.52,5.61 5.62,5.61l180.74,0c3.1,0 5.62,-2.52 5.62,-5.61l0,-263.28c0,-3.09 -2.52,-5.61 -5.62,-5.61l-180.74,0z" fill="#E0E0E0" id="svg_13"/>
       </g>
      </g>
     </g>
     <g id="svg_14">
      <g id="svg_15">
       <rect fill="#E0E0E0" height="0.25" id="svg_16" width="500" x="-598" y="357.49"/>
      </g>
     </g>
    </g>
    <rect fill="#E0E0E0" height="0.25" id="svg_17" width="16.06" x="-546.33" y="371.75"/>
    <rect fill="#E0E0E0" height="0.25" id="svg_18" width="53.53" x="-427.65" y="369.04"/>
    <rect fill="#E0E0E0" height="0.25" id="svg_19" width="36.25" x="-529.27" y="381.04"/>
    <rect fill="#E0E0E0" height="0.25" id="svg_20" width="43.19" x="-219.65" y="368.91"/>
    <rect fill="#E0E0E0" height="0.25" id="svg_21" width="6.33" x="-167.55" y="368.91"/>
    <rect fill="#E0E0E0" height="0.25" id="svg_22" width="53.89" x="-281.79" y="375.14"/>
   </g>
   <g id="svg_23">
    <g id="freepik--background-complete--inject-481_00000003073544920505330140000013180267776658943650_">
     <g id="svg_24">
      <polygon fill="#F0F0F0" id="svg_25" points="-539.5410003662109,222.72500610351562 -539.5410003662109,175.6820068359375 -510.41300201416016,175.6820068359375 -510.41300201416016,186.41000366210938 -490.9980010986328,186.41000366210938 -490.9980010986328,68.89600372314453 -453.6679992675781,68.89600372314453 -453.6679992675781,115.14900207519531 -442.46800231933594,115.14900207519531 -442.46800231933594,92.052001953125 -413.3399963378906,92.052001953125 -413.3399963378906,204.6909942626953 -372.2689971923828,204.6909942626953 -372.2689971923828,164.89500427246094 -346.51600646972656,164.89500427246094 -346.51600646972656,78.60900115966797 -314.7330017089844,78.60900115966797 -314.7330017089844,136.13299560546875 -284.86199951171875,136.13299560546875 -284.86199951171875,260.0559997558594 -261.7179870605469,260.0559997558594 -261.7179870605469,199.71099853515625 -237.81900024414062,199.71099853515625 -237.81900024414062,160.8820037841797 -212.4320068359375,160.8820037841797 -212.4320068359375,131.07000732421875 -184.10699462890625,146.01100158691406 -184.10699462890625,225.77000427246094 -154.23599243164062,225.77000427246094 -154.23599243164062,209.3179931640625 -114.3330078125,209.3179931640625 -114.3330078125,357.45098876953125 -578.795000076294,357.67498779296875 -578.795000076294,222.72500610351562 "/>
      <rect fill="#FAFAFA" height="10.66" id="svg_26" width="9.3" x="-331.3" y="88.79"/>
      <rect fill="#FAFAFA" height="10.66" id="svg_27" width="9.3" x="-331.3" y="106.66"/>
      <rect fill="#FAFAFA" height="10.66" id="svg_28" width="9.3" x="-331.3" y="124.54"/>
      <rect fill="#FAFAFA" height="10.66" id="svg_29" width="9.3" x="-331.3" y="142.41"/>
      <rect fill="#FAFAFA" height="10.66" id="svg_30" width="9.3" x="-331.3" y="160.28"/>
      <rect fill="#FAFAFA" height="10.66" id="svg_31" width="9.3" x="-331.3" y="178.16"/>
      <rect fill="#FAFAFA" height="10.66" id="svg_32" width="9.3" x="-331.3" y="196.03"/>
      <rect fill="#FAFAFA" height="10.66" id="svg_33" width="9.3" x="-331.3" y="213.91"/>
      <rect fill="#FAFAFA" height="10.66" id="svg_34" width="9.3" x="-471.01" y="74.53"/>
      <rect fill="#FAFAFA" height="10.66" id="svg_35" width="9.3" x="-471.01" y="92.39"/>
      <rect fill="#FAFAFA" height="10.66" id="svg_36" width="9.3" x="-471.01" y="110.27"/>
      <rect fill="#FAFAFA" height="10.66" id="svg_37" width="9.3" x="-471.01" y="128.14"/>
      <rect fill="#FAFAFA" height="10.66" id="svg_38" width="9.3" x="-471.01" y="146.02"/>
      <rect fill="#FAFAFA" height="10.66" id="svg_39" width="9.3" x="-471.01" y="163.89"/>
      <rect fill="#FAFAFA" height="10.66" id="svg_40" width="9.3" x="-471.01" y="181.77"/>
      <rect fill="#FAFAFA" height="10.66" id="svg_41" width="9.3" x="-471.01" y="199.64"/>
     </g>
     <g id="svg_42">
      <path d="m-290.22,357.54l0,-171.4l37,0l0,171.38l-37,0.02z" fill="#E0E0E0" id="svg_43"/>
      <rect fill="#FAFAFA" height="9.25" id="svg_44" width="4.49" x="-260.51" y="191.58"/>
      <rect fill="#FAFAFA" height="9.25" id="svg_45" width="4.49" x="-269.48" y="191.58"/>
      <rect fill="#FAFAFA" height="9.25" id="svg_46" width="4.49" x="-278.45" y="191.58"/>
      <rect fill="#FAFAFA" height="9.25" id="svg_47" width="4.49" x="-287.42" y="191.58"/>
      <rect fill="#FAFAFA" height="9.25" id="svg_48" width="4.49" x="-260.51" y="207.1"/>
      <rect fill="#FAFAFA" height="9.25" id="svg_49" width="4.49" x="-269.48" y="207.1"/>
      <rect fill="#FAFAFA" height="9.25" id="svg_50" width="4.49" x="-278.45" y="207.1"/>
      <rect fill="#FAFAFA" height="9.25" id="svg_51" width="4.49" x="-287.42" y="207.1"/>
      <rect fill="#FAFAFA" height="9.25" id="svg_52" width="4.49" x="-260.51" y="222.61"/>
      <rect fill="#FAFAFA" height="9.25" id="svg_53" width="4.49" x="-269.48" y="222.61"/>
      <rect fill="#FAFAFA" height="9.25" id="svg_54" width="4.49" x="-278.45" y="222.61"/>
      <rect fill="#FAFAFA" height="9.25" id="svg_55" width="4.49" x="-287.42" y="222.61"/>
      <rect fill="#FAFAFA" height="9.25" id="svg_56" width="4.49" x="-260.51" y="238.12"/>
      <rect fill="#FAFAFA" height="9.25" id="svg_57" width="4.49" x="-269.48" y="238.12"/>
      <rect fill="#FAFAFA" height="9.25" id="svg_58" width="4.49" x="-278.45" y="238.12"/>
      <rect fill="#FAFAFA" height="9.25" id="svg_59" width="4.49" x="-287.42" y="238.12"/>
      <rect fill="#FAFAFA" height="9.25" id="svg_60" width="4.49" x="-260.51" y="253.62"/>
      <rect fill="#FAFAFA" height="9.25" id="svg_61" width="4.49" x="-269.48" y="253.62"/>
      <rect fill="#FAFAFA" height="9.25" id="svg_62" width="4.49" x="-278.45" y="253.62"/>
      <rect fill="#FAFAFA" height="9.25" id="svg_63" width="4.49" x="-287.42" y="253.62"/>
      <rect fill="#FAFAFA" height="9.25" id="svg_64" width="4.49" x="-260.51" y="269.13"/>
      <rect fill="#FAFAFA" height="9.25" id="svg_65" width="4.49" x="-269.48" y="269.13"/>
      <rect fill="#FAFAFA" height="9.25" id="svg_66" width="4.49" x="-278.45" y="269.13"/>
      <rect fill="#FAFAFA" height="9.25" id="svg_67" width="4.49" x="-287.42" y="269.13"/>
      <rect fill="#FAFAFA" height="9.25" id="svg_68" width="4.49" x="-260.51" y="284.64"/>
      <rect fill="#FAFAFA" height="9.25" id="svg_69" width="4.49" x="-269.48" y="284.64"/>
      <rect fill="#FAFAFA" height="9.25" id="svg_70" width="4.49" x="-278.45" y="284.64"/>
      <rect fill="#FAFAFA" height="9.25" id="svg_71" width="4.49" x="-287.42" y="284.64"/>
      <rect fill="#FAFAFA" height="9.25" id="svg_72" width="4.49" x="-260.51" y="300.16"/>
      <rect fill="#FAFAFA" height="9.25" id="svg_73" width="4.49" x="-269.48" y="300.16"/>
      <rect fill="#FAFAFA" height="9.25" id="svg_74" width="4.49" x="-278.45" y="300.16"/>
      <rect fill="#FAFAFA" height="9.25" id="svg_75" width="4.49" x="-287.42" y="300.16"/>
     </g>
     <g id="svg_76">
      <path d="m-418.79,357.6l0,-191.24l76.71,0l0,191.29c0,0 -76.13,0.03 -76.71,-0.05z" fill="#E6E6E6" id="svg_77"/>
      <rect fill="#E0E0E0" height="10.66" id="svg_78" width="9.3" x="-357.14" y="172.68"/>
      <rect fill="#E0E0E0" height="10.66" id="svg_79" width="9.3" x="-375.75" y="172.68"/>
      <rect fill="#E0E0E0" height="10.66" id="svg_80" width="9.3" x="-394.35" y="172.68"/>
      <rect fill="#E0E0E0" height="10.66" id="svg_81" width="9.3" x="-412.96" y="172.68"/>
      <rect fill="#E0E0E0" height="10.66" id="svg_82" width="9.3" x="-357.14" y="190.56"/>
      <rect fill="#E0E0E0" height="10.66" id="svg_83" width="9.3" x="-375.75" y="190.56"/>
      <rect fill="#E0E0E0" height="10.66" id="svg_84" width="9.3" x="-394.35" y="190.56"/>
      <rect fill="#E0E0E0" height="10.66" id="svg_85" width="9.3" x="-412.96" y="190.56"/>
      <rect fill="#E0E0E0" height="10.66" id="svg_86" width="9.3" x="-357.14" y="208.43"/>
      <rect fill="#E0E0E0" height="10.66" id="svg_87" width="9.3" x="-375.75" y="208.43"/>
      <rect fill="#E0E0E0" height="10.66" id="svg_88" width="9.3" x="-394.35" y="208.43"/>
      <rect fill="#E0E0E0" height="10.66" id="svg_89" width="9.3" x="-412.96" y="208.43"/>
      <rect fill="#E0E0E0" height="10.66" id="svg_90" width="9.3" x="-357.14" y="226.3"/>
      <rect fill="#E0E0E0" height="10.66" id="svg_91" width="9.3" x="-375.75" y="226.3"/>
      <rect fill="#E0E0E0" height="10.66" id="svg_92" width="9.3" x="-394.35" y="226.3"/>
      <rect fill="#E0E0E0" height="10.66" id="svg_93" width="9.3" x="-412.96" y="226.3"/>
      <rect fill="#E0E0E0" height="10.66" id="svg_94" width="9.3" x="-357.14" y="244.18"/>
      <rect fill="#E0E0E0" height="10.66" id="svg_95" width="9.3" x="-375.75" y="244.18"/>
      <rect fill="#E0E0E0" height="10.66" id="svg_96" width="9.3" x="-394.35" y="244.18"/>
      <rect fill="#E0E0E0" height="10.66" id="svg_97" width="9.3" x="-412.96" y="244.18"/>
      <rect fill="#E0E0E0" height="10.66" id="svg_98" width="9.3" x="-357.14" y="262.05"/>
      <rect fill="#E0E0E0" height="10.66" id="svg_99" width="9.3" x="-375.75" y="262.05"/>
      <rect fill="#E0E0E0" height="10.66" id="svg_100" width="9.3" x="-394.35" y="262.05"/>
      <rect fill="#E0E0E0" height="10.66" id="svg_101" width="9.3" x="-412.96" y="262.05"/>
      <rect fill="#E0E0E0" height="10.66" id="svg_102" width="9.3" x="-357.14" y="279.93"/>
      <rect fill="#E0E0E0" height="10.66" id="svg_103" width="9.3" x="-375.75" y="279.93"/>
      <rect fill="#E0E0E0" height="10.66" id="svg_104" width="9.3" x="-394.35" y="279.93"/>
      <rect fill="#E0E0E0" height="10.66" id="svg_105" width="9.3" x="-412.96" y="279.93"/>
      <rect fill="#E0E0E0" height="10.66" id="svg_106" width="9.3" x="-357.14" y="297.8"/>
      <rect fill="#E0E0E0" height="10.66" id="svg_107" width="9.3" x="-375.75" y="297.8"/>
      <rect fill="#E0E0E0" height="10.66" id="svg_108" width="9.3" x="-394.35" y="297.8"/>
      <rect fill="#E0E0E0" height="10.66" id="svg_109" width="9.3" x="-412.96" y="297.8"/>
     </g>
     <g id="svg_110">
      <path d="m-239.77,357.51l0,-204.52l31.74,0l0,204.68c-10.04,-0.24 -31.74,-0.16 -31.74,-0.16z" fill="#E6E6E6" id="svg_111"/>
      <rect fill="#FAFAFA" height="10.66" id="svg_112" width="9.3" x="-222.03" y="156.78"/>
      <rect fill="#FAFAFA" height="10.66" id="svg_113" width="9.3" x="-222.03" y="174.64"/>
      <rect fill="#FAFAFA" height="10.66" id="svg_114" width="9.3" x="-222.03" y="192.52"/>
      <rect fill="#FAFAFA" height="10.66" id="svg_115" width="9.3" x="-222.03" y="210.39"/>
      <rect fill="#FAFAFA" height="10.66" id="svg_116" width="9.3" x="-222.03" y="228.26"/>
      <rect fill="#FAFAFA" height="10.66" id="svg_117" width="9.3" x="-222.03" y="246.14"/>
      <rect fill="#FAFAFA" height="10.66" id="svg_118" width="9.3" x="-222.03" y="264.01"/>
      <rect fill="#FAFAFA" height="10.66" id="svg_119" width="9.3" x="-222.03" y="281.89"/>
      <rect fill="#FAFAFA" height="10.66" id="svg_120" width="9.3" x="-234.47" y="156.78"/>
      <rect fill="#FAFAFA" height="10.66" id="svg_121" width="9.3" x="-234.47" y="174.64"/>
      <rect fill="#FAFAFA" height="10.66" id="svg_122" width="9.3" x="-234.47" y="192.52"/>
      <rect fill="#FAFAFA" height="10.66" id="svg_123" width="9.3" x="-234.47" y="210.39"/>
      <rect fill="#FAFAFA" height="10.66" id="svg_124" width="9.3" x="-234.47" y="228.26"/>
      <rect fill="#FAFAFA" height="10.66" id="svg_125" width="9.3" x="-234.47" y="246.14"/>
      <rect fill="#FAFAFA" height="10.66" id="svg_126" width="9.3" x="-234.47" y="264.01"/>
      <rect fill="#FAFAFA" height="10.66" id="svg_127" width="9.3" x="-234.47" y="281.89"/>
     </g>
     <g id="svg_128">
      <rect fill="#E6E6E6" height="201.04" id="svg_129" width="56.01" x="-543.74" y="156.63"/>
      <rect fill="#FAFAFA" height="10.66" id="svg_130" width="16.42" x="-512.43" y="164.94"/>
      <rect fill="#FAFAFA" height="10.66" id="svg_131" width="16.42" x="-512.43" y="182.82"/>
      <rect fill="#FAFAFA" height="10.66" id="svg_132" width="16.42" x="-512.43" y="200.69"/>
      <rect fill="#FAFAFA" height="10.66" id="svg_133" width="16.42" x="-512.43" y="218.57"/>
      <rect fill="#FAFAFA" height="10.66" id="svg_134" width="16.42" x="-512.43" y="236.44"/>
      <rect fill="#FAFAFA" height="10.66" id="svg_135" width="16.42" x="-512.43" y="254.31"/>
      <rect fill="#FAFAFA" height="10.66" id="svg_136" width="16.42" x="-512.43" y="272.19"/>
      <rect fill="#FAFAFA" height="10.66" id="svg_137" width="16.42" x="-512.43" y="290.06"/>
      <rect fill="#FAFAFA" height="10.66" id="svg_138" width="16.42" x="-534.39" y="164.94"/>
      <rect fill="#FAFAFA" height="10.66" id="svg_139" width="16.42" x="-534.39" y="182.82"/>
      <rect fill="#FAFAFA" height="10.66" id="svg_140" width="16.42" x="-534.39" y="200.69"/>
      <rect fill="#FAFAFA" height="10.66" id="svg_141" width="16.42" x="-534.39" y="218.57"/>
      <rect fill="#FAFAFA" height="10.66" id="svg_142" width="16.42" x="-534.39" y="236.44"/>
      <rect fill="#FAFAFA" height="10.66" id="svg_143" width="16.42" x="-534.39" y="254.31"/>
      <rect fill="#FAFAFA" height="10.66" id="svg_144" width="16.42" x="-534.39" y="272.19"/>
      <rect fill="#FAFAFA" height="10.66" id="svg_145" width="16.42" x="-534.39" y="290.06"/>
     </g>
     <g id="svg_146">
      <path d="m-451.08,357.61l0,-149.18l24.43,0l0,149.17l-24.43,0.01z" fill="#E0E0E0" id="svg_147"/>
      <rect fill="#FAFAFA" height="7.94" id="svg_148" width="2.96" x="-431.47" y="213.15"/>
      <rect fill="#FAFAFA" height="7.94" id="svg_149" width="2.96" x="-437.39" y="213.15"/>
      <rect fill="#FAFAFA" height="7.94" id="svg_150" width="2.96" x="-443.31" y="213.15"/>
      <rect fill="#FAFAFA" height="7.94" id="svg_151" width="2.96" x="-449.23" y="213.15"/>
      <rect fill="#FAFAFA" height="7.94" id="svg_152" width="2.96" x="-431.47" y="226.48"/>
      <rect fill="#FAFAFA" height="7.94" id="svg_153" width="2.96" x="-437.39" y="226.48"/>
      <rect fill="#FAFAFA" height="7.94" id="svg_154" width="2.96" x="-443.31" y="226.48"/>
      <rect fill="#FAFAFA" height="7.94" id="svg_155" width="2.96" x="-449.23" y="226.48"/>
      <rect fill="#FAFAFA" height="7.94" id="svg_156" width="2.96" x="-431.47" y="239.8"/>
      <rect fill="#FAFAFA" height="7.94" id="svg_157" width="2.96" x="-437.39" y="239.8"/>
      <rect fill="#FAFAFA" height="7.94" id="svg_158" width="2.96" x="-443.31" y="239.8"/>
      <rect fill="#FAFAFA" height="7.94" id="svg_159" width="2.96" x="-449.23" y="239.8"/>
      <rect fill="#FAFAFA" height="7.94" id="svg_160" width="2.96" x="-431.47" y="253.13"/>
      <rect fill="#FAFAFA" height="7.94" id="svg_161" width="2.96" x="-437.39" y="253.13"/>
      <rect fill="#FAFAFA" height="7.94" id="svg_162" width="2.96" x="-443.31" y="253.13"/>
      <rect fill="#FAFAFA" height="7.94" id="svg_163" width="2.96" x="-449.23" y="253.13"/>
      <rect fill="#FAFAFA" height="7.94" id="svg_164" width="2.96" x="-431.47" y="266.46"/>
      <rect fill="#FAFAFA" height="7.94" id="svg_165" width="2.96" x="-437.39" y="266.46"/>
      <rect fill="#FAFAFA" height="7.94" id="svg_166" width="2.96" x="-443.31" y="266.46"/>
      <rect fill="#FAFAFA" height="7.94" id="svg_167" width="2.96" x="-449.23" y="266.46"/>
      <rect fill="#FAFAFA" height="7.94" id="svg_168" width="2.96" x="-431.47" y="279.79"/>
      <rect fill="#FAFAFA" height="7.94" id="svg_169" width="2.96" x="-437.39" y="279.79"/>
      <rect fill="#FAFAFA" height="7.94" id="svg_170" width="2.96" x="-443.31" y="279.79"/>
      <rect fill="#FAFAFA" height="7.94" id="svg_171" width="2.96" x="-449.23" y="279.79"/>
      <rect fill="#FAFAFA" height="7.94" id="svg_172" width="2.96" x="-431.47" y="293.11"/>
      <rect fill="#FAFAFA" height="7.94" id="svg_173" width="2.96" x="-437.39" y="293.11"/>
      <rect fill="#FAFAFA" height="7.94" id="svg_174" width="2.96" x="-443.31" y="293.11"/>
      <rect fill="#FAFAFA" height="7.94" id="svg_175" width="2.96" x="-449.23" y="293.11"/>
      <rect fill="#FAFAFA" height="7.94" id="svg_176" width="2.96" x="-431.47" y="306.44"/>
      <rect fill="#FAFAFA" height="7.94" id="svg_177" width="2.96" x="-437.39" y="306.44"/>
      <rect fill="#FAFAFA" height="7.94" id="svg_178" width="2.96" x="-443.31" y="306.44"/>
      <rect fill="#FAFAFA" height="7.94" id="svg_179" width="2.96" x="-449.23" y="306.44"/>
     </g>
     <g id="svg_180">
      <path d="m-210.86,357.68l0,-127.13l65.31,0l0,126.92l-65.31,0.21z" fill="#FAFAFA" id="svg_181"/>
      <rect fill="#E0E0E0" height="6.67" id="svg_182" width="7.92" x="-158.41" y="234.5"/>
      <rect fill="#E0E0E0" height="6.67" id="svg_183" width="7.92" x="-174.25" y="234.5"/>
      <rect fill="#E0E0E0" height="6.67" id="svg_184" width="7.92" x="-190.08" y="234.5"/>
      <rect fill="#E0E0E0" height="6.67" id="svg_185" width="7.92" x="-205.92" y="234.5"/>
      <rect fill="#E0E0E0" height="6.67" id="svg_186" width="7.92" x="-158.41" y="245.68"/>
      <rect fill="#E0E0E0" height="6.67" id="svg_187" width="7.92" x="-174.25" y="245.68"/>
      <rect fill="#E0E0E0" height="6.67" id="svg_188" width="7.92" x="-190.08" y="245.68"/>
      <rect fill="#E0E0E0" height="6.67" id="svg_189" width="7.92" x="-205.92" y="245.68"/>
      <rect fill="#E0E0E0" height="6.67" id="svg_190" width="7.92" x="-158.41" y="256.86"/>
      <rect fill="#E0E0E0" height="6.67" id="svg_191" width="7.92" x="-174.25" y="256.86"/>
      <rect fill="#E0E0E0" height="6.67" id="svg_192" width="7.92" x="-190.08" y="256.86"/>
      <rect fill="#E0E0E0" height="6.67" id="svg_193" width="7.92" x="-205.92" y="256.86"/>
      <rect fill="#E0E0E0" height="6.67" id="svg_194" width="7.92" x="-158.41" y="268.03"/>
      <rect fill="#E0E0E0" height="6.67" id="svg_195" width="7.92" x="-174.25" y="268.03"/>
      <rect fill="#E0E0E0" height="6.67" id="svg_196" width="7.92" x="-190.08" y="268.03"/>
      <rect fill="#E0E0E0" height="6.67" id="svg_197" width="7.92" x="-205.92" y="268.03"/>
      <rect fill="#E0E0E0" height="6.67" id="svg_198" width="7.92" x="-158.41" y="279.2"/>
      <rect fill="#E0E0E0" height="6.67" id="svg_199" width="7.92" x="-174.25" y="279.2"/>
      <rect fill="#E0E0E0" height="6.67" id="svg_200" width="7.92" x="-190.08" y="279.2"/>
      <rect fill="#E0E0E0" height="6.67" id="svg_201" width="7.92" x="-205.92" y="279.2"/>
      <rect fill="#E0E0E0" height="6.67" id="svg_202" width="7.92" x="-158.41" y="290.38"/>
      <rect fill="#E0E0E0" height="6.67" id="svg_203" width="7.92" x="-174.25" y="290.38"/>
      <rect fill="#E0E0E0" height="6.67" id="svg_204" width="7.92" x="-190.08" y="290.38"/>
      <rect fill="#E0E0E0" height="6.67" id="svg_205" width="7.92" x="-205.92" y="290.38"/>
      <rect fill="#E0E0E0" height="6.67" id="svg_206" width="7.92" x="-158.41" y="301.55"/>
      <rect fill="#E0E0E0" height="6.67" id="svg_207" width="7.92" x="-174.25" y="301.55"/>
      <rect fill="#E0E0E0" height="6.67" id="svg_208" width="7.92" x="-190.08" y="301.55"/>
      <rect fill="#E0E0E0" height="6.67" id="svg_209" width="7.92" x="-205.92" y="301.55"/>
     </g>
    </g>
    <g id="svg_210">
     <g id="svg_211">
      <path d="m-295.06,61.97c2.07,-1.57 5.1,-1.75 7.35,-0.43c2.98,-6.02 11.28,-8.68 17.2,-5.51c1.55,-6.48 7.94,-11.47 14.6,-11.39c6.67,0.08 12.94,5.22 14.33,11.74c0.22,1.04 0.37,2.17 1.11,2.93c1.2,1.23 3.21,0.82 4.93,0.68c5.4,-0.42 10.83,3.37 12.3,8.59l-74.36,-0.27c-0.66,-2.52 0.47,-4.77 2.54,-6.34z" fill="#E0E0E0" id="svg_212"/>
     </g>
    </g>
    <g id="svg_213">
     <g id="svg_214">
      <path d="m-381.56,6.5c1.03,-0.77 2.52,-0.86 3.63,-0.21c1.48,-2.98 5.58,-4.29 8.51,-2.72c0.77,-3.21 3.93,-5.68 7.23,-5.64c3.3,0.04 6.4,2.58 7.08,5.81c0.11,0.51 0.18,1.07 0.55,1.45c0.6,0.6 1.59,0.4 2.44,0.33c2.67,-0.2 5.36,1.67 6.09,4.25l-36.79,-0.13c-0.32,-1.25 0.23,-2.36 1.26,-3.14z" fill="#F5F5F5" id="svg_215"/>
     </g>
    </g>
    <g id="svg_216">
     <g id="svg_217">
      <path d="m-195.9,18.95c1.1,-0.83 2.71,-0.93 3.89,-0.23c1.58,-3.19 5.98,-4.6 9.11,-2.92c0.82,-3.43 4.21,-6.07 7.74,-6.03c3.53,0.04 6.85,2.77 7.58,6.22c0.12,0.55 0.2,1.15 0.59,1.55c0.64,0.65 1.7,0.43 2.61,0.36c2.86,-0.22 5.74,1.79 6.51,4.55l-39.38,-0.15c-0.34,-1.33 0.25,-2.52 1.35,-3.35z" fill="#E0E0E0" id="svg_218"/>
     </g>
    </g>
    <g id="svg_219">
     <g id="svg_220">
      <path d="m-570.25,110.34c1.43,-1.07 3.5,-1.2 5.05,-0.29c2.04,-4.14 7.74,-5.96 11.8,-3.78c1.06,-4.46 5.45,-7.88 10.03,-7.82c4.58,0.05 8.88,3.58 9.83,8.06c0.15,0.71 0.25,1.49 0.76,2.01c0.83,0.84 2.21,0.56 3.39,0.47c3.71,-0.29 7.44,2.31 8.44,5.89l-51.05,-0.19c-0.44,-1.72 0.33,-3.27 1.75,-4.35z" fill="#F5F5F5" id="svg_221"/>
     </g>
    </g>
    <g id="svg_222">
     <g id="svg_223">
      <path d="m-210.84,104.22c2.16,-1.63 5.31,-1.82 7.65,-0.45c3.1,-6.27 11.74,-9.04 17.91,-5.73c1.6,-6.76 8.26,-11.95 15.2,-11.86c6.94,0.08 13.47,5.43 14.91,12.22c0.23,1.08 0.38,2.26 1.16,3.05c1.25,1.28 3.34,0.85 5.13,0.71c5.62,-0.44 11.28,3.51 12.81,8.93l-77.42,-0.28c-0.68,-2.62 0.49,-4.96 2.65,-6.59z" fill="#F0F0F0" id="svg_224"/>
     </g>
    </g>
    <g id="svg_225">
     <g id="svg_226">
      <path d="m-531.81,30.32c1.91,-1.45 4.71,-1.61 6.79,-0.4c2.75,-5.56 10.42,-8.02 15.89,-5.09c1.43,-5.99 7.34,-10.6 13.5,-10.53c6.16,0.08 11.96,4.83 13.24,10.86c0.2,0.95 0.34,2 1.02,2.7c1.12,1.14 2.98,0.76 4.56,0.63c4.99,-0.39 10.02,3.12 11.37,7.94l-68.73,-0.25c-0.6,-2.33 0.44,-4.41 2.36,-5.86z" fill="#E0E0E0" id="svg_227"/>
     </g>
    </g>
   </g>
  </g>
  <g display="none" id="Background_simple" transform="matrix(1 0 0 1 0 0)">
   <g display="inline" id="svg_228">
    <path d="m185.77,59.57c-21.57,2.85 -42.36,8.91 -60.81,18.41c-21.73,11.21 -43.94,28.66 -37.38,51.49c12.11,42.15 70.2,42.92 58.61,71.26c-13.14,32.1 -4.33,69.76 54.63,80.23c111.98,19.89 247.35,-96.48 209.33,-160.43c-23.67,-39.81 -109.88,-76.07 -224.38,-60.96z" fill="#407BFF" id="svg_229"/>
    <path d="m185.77,59.57c-21.57,2.85 -42.36,8.91 -60.81,18.41c-21.73,11.21 -43.94,28.66 -37.38,51.49c12.11,42.15 70.2,42.92 58.61,71.26c-13.14,32.1 -4.33,69.76 54.63,80.23c111.98,19.89 247.35,-96.48 209.33,-160.43c-23.67,-39.81 -109.88,-76.07 -224.38,-60.96z" fill="#FFFFFF" id="svg_230" opacity="0.9"/>
   </g>
  </g>
  <g id="Shadow" transform="matrix(1 0 0 1 0 0)">
   <g id="svg_231">
    <g id="svg_232">
     <ellipse cx="-258" cy="540.49" fill="#F5F5F5" id="svg_233" rx="208.88" ry="8.23"/>
    </g>
   </g>
  </g>
  <g id="Sing_2">
   <g id="svg_234">
    <g id="svg_235">
     <rect fill="#263238" height="242.47" id="svg_236" width="12.43" x="1004.66" y="70.95"/>
     <rect fill="#FFFFFF" height="242.47" id="svg_237" opacity="0.5" width="12.43" x="1004.66" y="70.95"/>
    </g>
    <rect height="8.63" id="svg_238" opacity="0.3" width="12.43" x="1004.66" y="74.63"/>
    <g id="svg_239">
     <path d="m953.12,77.89l112.05,0.07c0.14,0 0.27,-0.05 0.36,-0.14l17.98,-19.55c0.14,-0.14 0.19,-3.67 0.06,-3.81l-18.78,-16.15c-0.09,-0.09 -0.22,-0.14 -0.36,-0.14l-111.31,0c-0.26,0 -0.47,0.17 -0.47,0.38l0,38.95c0,0.22 0.21,0.39 0.47,0.39z" fill="#407BFF" id="svg_240"/>
     <path d="m953.12,77.89l112.05,0.07c0.14,0 0.27,-0.05 0.36,-0.14l17.98,-19.55c0.14,-0.14 0.19,-3.67 0.06,-3.81l-18.78,-16.15c-0.09,-0.09 -0.22,-0.14 -0.36,-0.14l-111.31,0c-0.26,0 -0.47,0.17 -0.47,0.38l0,38.95c0,0.22 0.21,0.39 0.47,0.39z" id="svg_241" opacity="0.3"/>
     <path d="m953.12,75l111.31,0c0.14,0 0.27,-0.06 0.36,-0.15l18.72,-20.02c0.14,-0.15 0.14,-0.36 0,-0.5l-18.72,-20.02c-0.09,-0.1 -0.22,-0.15 -0.36,-0.15l-111.31,0c-0.26,0 -0.47,0.18 -0.47,0.39l0,40.05c0,0.22 0.21,0.4 0.47,0.4z" fill="#407BFF" id="svg_242"/>
     <g id="svg_243">
      <g id="svg_244">
       <path d="m959.57,38.8c0,0.86 -0.7,1.56 -1.56,1.56s-1.56,-0.7 -1.56,-1.56s0.7,-1.56 1.56,-1.56s1.56,0.7 1.56,1.56z" fill="#263238" id="svg_245"/>
       <path d="m959.57,38.8c0,0.86 -0.7,1.56 -1.56,1.56s-1.56,-0.7 -1.56,-1.56s0.7,-1.56 1.56,-1.56s1.56,0.7 1.56,1.56z" enable-background="new" fill="#FFFFFF" id="svg_246" opacity="0.5"/>
      </g>
      <g id="svg_247">
       <path d="m959.57,69.62c0,0.86 -0.7,1.56 -1.56,1.56s-1.56,-0.7 -1.56,-1.56s0.7,-1.56 1.56,-1.56s1.56,0.7 1.56,1.56z" fill="#263238" id="svg_248"/>
       <path d="m959.57,69.62c0,0.86 -0.7,1.56 -1.56,1.56s-1.56,-0.7 -1.56,-1.56s0.7,-1.56 1.56,-1.56s1.56,0.7 1.56,1.56z" enable-background="new" fill="#FFFFFF" id="svg_249" opacity="0.5"/>
      </g>
     </g>
     <g id="svg_250">
      <g id="svg_251">
       <path d="m1063.68,38.8c0,0.86 -0.7,1.56 -1.56,1.56c-0.86,0 -1.56,-0.7 -1.56,-1.56s0.7,-1.56 1.56,-1.56c0.86,0 1.56,0.7 1.56,1.56z" fill="#263238" id="svg_252"/>
       <path d="m1063.68,38.8c0,0.86 -0.7,1.56 -1.56,1.56c-0.86,0 -1.56,-0.7 -1.56,-1.56s0.7,-1.56 1.56,-1.56c0.86,0 1.56,0.7 1.56,1.56z" enable-background="new" fill="#FFFFFF" id="svg_253" opacity="0.5"/>
      </g>
      <g id="svg_254">
       <path d="m1063.68,69.62c0,0.86 -0.7,1.56 -1.56,1.56c-0.86,0 -1.56,-0.7 -1.56,-1.56s0.7,-1.56 1.56,-1.56c0.86,0 1.56,0.7 1.56,1.56z" fill="#263238" id="svg_255"/>
       <path d="m1063.68,69.62c0,0.86 -0.7,1.56 -1.56,1.56c-0.86,0 -1.56,-0.7 -1.56,-1.56s0.7,-1.56 1.56,-1.56c0.86,0 1.56,0.7 1.56,1.56z" enable-background="new" fill="#FFFFFF" id="svg_256" opacity="0.5"/>
      </g>
     </g>
     <g id="svg_257">
      <path d="m988.75,51.92l-4.2,0l0,-3.75l13.25,0l0,3.75l-4.21,0l0,10.61l-4.84,0l0,-10.61z" fill="#FFFFFF" id="svg_258"/>
      <path d="m1005.19,58.92l-1.31,0l0,3.61l-4.84,0l0,-14.36l6.91,0c4,0 6.55,2.09 6.55,5.41c0,2.07 -0.99,3.63 -2.71,4.52l3.01,4.43l-5.17,0l-2.44,-3.61zm0.46,-7.02l-1.77,0l0,3.36l1.77,0c1.33,0 1.97,-0.63 1.97,-1.68s-0.64,-1.68 -1.97,-1.68z" fill="#FFFFFF" id="svg_259"/>
      <path d="m1014.19,56.06l0,-7.89l4.84,0l0,7.75c0,2.2 0.84,3.02 2.2,3.02c1.35,0 2.19,-0.82 2.19,-3.02l0,-7.75l4.76,0l0,7.89c0,4.31 -2.59,6.79 -6.99,6.79c-4.41,0 -7,-2.48 -7,-6.79z" fill="#FFFFFF" id="svg_260"/>
      <path d="m1042.32,58.88l0,3.65l-11.93,0l0,-14.36l11.67,0l0,3.65l-6.91,0l0,1.68l6.07,0l0,3.49l-6.07,0l0,1.88l7.17,0l0,0.01z" fill="#FFFFFF" id="svg_261"/>
     </g>
    </g>
    <path d="m1033.68,34.16c0,0 -10.11,5.2 -20.35,11.42c-8.24,5 -25.66,17.41 -18.51,22.53c7.15,5.11 8.91,6.96 8.49,6.94c-0.42,-0.02 -13.81,0 -13.81,0s-4.95,-8.49 0,-15.34c4.95,-6.84 15.59,-13.05 17.24,-19.35c1.65,-6.3 -3.43,-6.34 -3.43,-6.34l30.37,0.14z" fill="#FFFFFF" id="svg_262" opacity="0.2"/>
    <g id="svg_263">
     <polygon fill="#FFFFFF" id="svg_264" opacity="0.2" points="1017.0910034179688,131.71600341796875 1004.6619873046875,148.41000366210938 1004.6619873046875,163.2860107421875 1017.0910034179688,146.67300415039062 "/>
     <polygon fill="#FFFFFF" id="svg_265" opacity="0.2" points="1017.0910034179688,160.21499633789062 1004.6619873046875,176.91000366210938 1004.6619873046875,182.47698974609375 1017.0910034179688,166.343994140625 "/>
    </g>
    <path d="m957.72,85.73c11.64,0 23.28,0 34.91,0" fill="none" id="svg_266" stroke="#407BFF" stroke-linecap="round" stroke-linejoin="round" stroke-miterlimit="10"/>
   </g>
  </g>
  <g id="Sing_1">
   <g id="svg_267">
    <g id="svg_268">
     <rect fill="#263238" height="242.47" id="svg_269" width="12.43" x="830.26" y="85.93"/>
     <rect fill="#FFFFFF" height="242.47" id="svg_270" opacity="0.5" width="12.43" x="830.26" y="85.93"/>
    </g>
    <rect height="8.63" id="svg_271" opacity="0.3" width="12.43" x="830.26" y="89.61"/>
    <g id="svg_272">
     <path d="m894.06,92.87c-0.41,-0.16 -112.13,0.36 -112.42,-0.07c-21.81,-26.05 -26.63,-15.83 0.75,-39.51c0.83,0 111.63,-0.79 112.13,0.24c-0.47,0.4 0.87,39.54 -0.46,39.34z" fill="#407BFF" id="svg_273"/>
     <path d="m894.06,92.87c-0.41,-0.16 -112.13,0.36 -112.42,-0.07c-21.81,-26.05 -26.63,-15.83 0.75,-39.51c0.83,0 111.63,-0.79 112.13,0.24c-0.47,0.4 0.87,39.54 -0.46,39.34z" id="svg_274" opacity="0.3"/>
     <path d="m894.06,89.98c-0.43,-0.17 -111.37,0.3 -111.67,-0.15c0,0 -18.73,-20.02 -18.73,-20.02c-0.73,-0.64 18.71,-20.04 18.73,-20.52c0.78,-0.02 111.69,-0.8 112.13,0.24c-0.43,0.39 0.84,40.65 -0.46,40.45z" fill="#407BFF" id="svg_275"/>
     <g id="svg_276">
      <g id="svg_277">
       <path d="m887.61,53.78c-0.03,2.02 3.14,2.02 3.11,0c0.03,-2.02 -3.14,-2.02 -3.11,0z" fill="#263238" id="svg_278"/>
       <path d="m887.61,53.78c-0.03,2.02 3.14,2.02 3.11,0c0.03,-2.02 -3.14,-2.02 -3.11,0z" enable-background="new" fill="#FFFFFF" id="svg_279" opacity="0.5"/>
      </g>
      <g id="svg_280">
       <path d="m887.61,84.6c-0.03,2.02 3.14,2.02 3.11,0c0.03,-2.02 -3.14,-2.02 -3.11,0z" fill="#263238" id="svg_281"/>
       <path d="m887.61,84.6c-0.03,2.02 3.14,2.02 3.11,0c0.03,-2.02 -3.14,-2.02 -3.11,0z" enable-background="new" fill="#FFFFFF" id="svg_282" opacity="0.5"/>
      </g>
     </g>
     <g id="svg_283">
      <g id="svg_284">
       <path d="m783.5,53.78c-0.03,2.02 3.14,2.02 3.11,0c0.03,-2.02 -3.14,-2.02 -3.11,0z" fill="#263238" id="svg_285"/>
       <path d="m783.5,53.78c-0.03,2.02 3.14,2.02 3.11,0c0.03,-2.02 -3.14,-2.02 -3.11,0z" enable-background="new" fill="#FFFFFF" id="svg_286" opacity="0.5"/>
      </g>
      <g id="svg_287">
       <path d="m783.5,84.6c-0.03,2.02 3.14,2.02 3.11,0c0.03,-2.02 -3.14,-2.02 -3.11,0z" fill="#263238" id="svg_288"/>
       <path d="m783.5,84.6c-0.03,2.02 3.14,2.02 3.11,0c0.03,-2.02 -3.14,-2.02 -3.11,0z" enable-background="new" fill="#FFFFFF" id="svg_289" opacity="0.5"/>
      </g>
     </g>
    </g>
    <g id="svg_290">
     <path d="m807.95,65.56l0,2.46l5.99,0l0,3.65l-5.99,0l0,4.59l-4.84,0l0,-14.35l11.67,0l0,3.65l-6.83,0z" fill="#FFFFFF" id="svg_291"/>
     <path d="m825.58,73.76l-5.45,0l-0.97,2.5l-4.92,0l6.28,-14.35l4.75,0l6.28,14.35l-5.01,0l-0.96,-2.5zm-1.33,-3.48l-1.4,-3.61l-1.39,3.61l2.79,0z" fill="#FFFFFF" id="svg_292"/>
     <path d="m832.32,61.91l4.84,0l0,10.6l6.48,0l0,3.75l-11.32,0l0,-14.35z" fill="#FFFFFF" id="svg_293"/>
     <path d="m844.07,75.12l1.56,-3.53c1.35,0.8 3.16,1.31 4.74,1.31c1.37,0 1.86,-0.28 1.86,-0.78c0,-1.8 -7.94,-0.35 -7.94,-5.7c0,-2.66 2.24,-4.84 6.69,-4.84c1.93,0 3.92,0.41 5.41,1.25l-1.45,3.51c-1.42,-0.72 -2.75,-1.07 -4,-1.07c-1.41,0 -1.87,0.41 -1.87,0.91c0,1.72 7.94,0.28 7.94,5.57c0,2.63 -2.23,4.84 -6.69,4.84c-2.39,0 -4.82,-0.59 -6.25,-1.47z" fill="#FFFFFF" id="svg_294"/>
     <path d="m870.38,72.61l0,3.65l-11.94,0l0,-14.35l11.67,0l0,3.65l-6.91,0l0,1.68l6.07,0l0,3.49l-6.07,0l0,1.88l7.18,0z" fill="#FFFFFF" id="svg_295"/>
    </g>
    <path d="m806.11,49.14c0,0 10.11,5.2 20.36,11.42c8.23,5 25.66,17.41 18.5,22.53c-7.15,5.11 -8.91,6.96 -8.49,6.94c0.42,-0.02 13.81,0 13.81,0s4.95,-8.49 0,-15.34c-4.95,-6.85 -15.59,-13.05 -17.24,-19.35c-1.65,-6.3 3.43,-6.35 3.43,-6.35l-30.37,0.15z" fill="#FFFFFF" id="svg_296" opacity="0.2"/>
    <polygon fill="#FFFFFF" id="svg_297" opacity="0.2" points="842.6940307617188,142.67300415039062 830.2650146484375,159.36801147460938 830.2650146484375,174.24301147460938 842.6940307617188,157.6300048828125 "/>
    <polygon fill="#FFFFFF" id="svg_298" opacity="0.2" points="842.6940307617188,171.1719970703125 830.2650146484375,187.86700439453125 830.2650146484375,193.43399047851562 842.6940307617188,177.30099487304688 "/>
    <path d="m833.83,45.88c15.16,0 30.32,0 45.48,0" fill="none" id="svg_299" stroke="#407BFF" stroke-linecap="round" stroke-linejoin="round" stroke-miterlimit="10"/>
   </g>
  </g>
  <g id="Plants" transform="matrix(1 0 0 1 0 0)">
   <g id="svg_300">
    <path d="m831.32,569.93c2.64,-8.9 2.78,-18.52 0.4,-27.49c-3.76,9.37 -9.12,18.09 -15.79,25.67c-1.31,-12.22 -3.54,-24.34 -6.67,-36.22c-4.85,12.25 -6.87,25.61 -5.86,38.74c-7.39,-7.27 -15.38,-13.94 -23.87,-19.89c0.73,11.29 7.41,26.04 22.28,34.39l23.7,0.07c13.12,-3.54 22.99,-16.69 22.71,-30.28c-3.76,6.69 -9.81,12.06 -16.9,15.01z" fill="#263238" id="svg_301"/>
   </g>
   <g id="svg_302">
    <g id="svg_303">
     <path d="m552.25,562.61c-0.7,-1.17 -2.24,-2.61 -3.33,-3.42c-1.08,-0.82 -2.57,-1.23 -3.83,-0.71c-1.6,0.65 -2.34,2.62 -2.12,4.34c0.22,1.72 1.04,3.9 2.02,5.33c4.18,6.11 8.04,11.7 14.48,16.25c0,-7.59 -3.37,-15.32 -7.22,-21.79z" fill="#407BFF" id="svg_304"/>
    </g>
    <g id="svg_305">
     <path d="m573.5,563.66c-1.44,-0.79 -4.12,0.33 -5.44,1.32c-2.6,1.95 -4.19,4 -5.78,6.84c-2.02,3.61 -2.25,8.68 -2.51,11.9c5.1,-4.14 10.3,-8.38 13.79,-13.95c0.61,-0.97 1.18,-2.01 1.28,-3.15c0.11,-1.15 -0.34,-2.41 -1.34,-2.96z" fill="#407BFF" id="svg_306"/>
    </g>
    <path d="m553.83,571.5c3.02,4.86 5.19,10.24 6.4,15.83" fill="none" id="svg_307" stroke="#263238" stroke-linecap="round" stroke-linejoin="round" stroke-miterlimit="10" stroke-width="0.5"/>
    <path d="m565.45,573.97c-2.54,3.04 -4.54,6.52 -5.89,10.24" fill="none" id="svg_308" stroke="#263238" stroke-linecap="round" stroke-linejoin="round" stroke-miterlimit="10" stroke-width="0.5"/>
   </g>
  </g>
  <g id="Speech_Bubble">
   <g id="svg_309">
    <g id="svg_310">
     <path d="m694.05,30.72c6.52,-3.13 8.85,-12.18 5.63,-18.65c-3.23,-6.46 -10.84,-10.04 -18.06,-9.68c-7.22,0.36 -13.95,4.15 -19.1,9.21c-5.16,-6.34 -15.57,-7.49 -22,-2.43c-6.31,4.97 -5.26,15.16 -0.52,21.68c-5.55,2.72 -9.25,9.35 -7.89,15.48c1.67,7.55 10.62,12.56 17.93,10.04c-0.01,9.78 8.73,18.73 18.51,18.95c9.77,0.21 18.9,-8.35 19.31,-18.12c7.46,3.46 17.51,-1.43 19.38,-9.44c1.87,-8 -4.97,-16.84 -13.19,-17.04z" fill="#407BFF" id="svg_311"/>
    </g>
    <path d="m700.96,69.46c0,2.29 -1.86,4.15 -4.16,4.15c-2.29,0 -4.15,-1.85 -4.15,-4.15c0,-2.29 1.86,-4.15 4.15,-4.15c2.3,0 4.16,1.86 4.16,4.15z" fill="#407BFF" id="svg_312"/>
    <g id="svg_313" opacity="0.8">
     <path d="m694.05,30.72c6.52,-3.13 8.85,-12.18 5.63,-18.65c-3.23,-6.46 -10.84,-10.04 -18.06,-9.68c-7.22,0.36 -13.95,4.15 -19.1,9.21c-5.16,-6.34 -15.57,-7.49 -22,-2.43c-6.31,4.97 -5.26,15.16 -0.52,21.68c-5.55,2.72 -9.25,9.35 -7.89,15.48c1.67,7.55 10.62,12.56 17.93,10.04c-0.01,9.78 8.73,18.73 18.51,18.95c9.77,0.21 18.9,-8.35 19.31,-18.12c7.46,3.46 17.51,-1.43 19.38,-9.44c1.87,-8 -4.97,-16.84 -13.19,-17.04z" fill="#FFFFFF" id="svg_314"/>
    </g>
    <path d="m700.96,69.46c0,2.29 -1.86,4.15 -4.16,4.15c-2.29,0 -4.15,-1.85 -4.15,-4.15c0,-2.29 1.86,-4.15 4.15,-4.15c2.3,0 4.16,1.86 4.16,4.15z" fill="#FFFFFF" id="svg_315" opacity="0.8"/>
    <g id="svg_316">
     <path d="m668.64,40.07c0.58,-0.99 1.42,-2.08 2.53,-3.26c0.82,-0.87 1.41,-1.61 1.8,-2.2c0.38,-0.59 0.57,-1.27 0.57,-2.02c0,-1.07 -0.36,-1.92 -1.09,-2.55s-1.7,-0.93 -2.91,-0.93c-1.16,0 -2.19,0.28 -3.09,0.85c-0.9,0.56 -1.66,1.35 -2.27,2.37l-4.48,-3.09c1.04,-1.86 2.43,-3.29 4.2,-4.31c1.76,-1.01 3.85,-1.52 6.27,-1.52c2.84,0 5.12,0.71 6.83,2.13c1.71,1.42 2.57,3.39 2.57,5.92c0,1.18 -0.16,2.23 -0.5,3.13c-0.33,0.89 -0.74,1.66 -1.22,2.28c-0.48,0.62 -1.1,1.34 -1.87,2.15c-0.91,0.96 -1.58,1.76 -1.99,2.41c-0.42,0.66 -0.63,1.45 -0.63,2.37l-5.59,0c0,-1.5 0.29,-2.75 0.87,-3.73zm-0.6,13.18c-0.67,-0.69 -1.01,-1.53 -1.01,-2.52c0,-0.98 0.33,-1.81 0.99,-2.47c0.67,-0.66 1.52,-0.99 2.56,-0.99c1.03,0 1.88,0.33 2.55,0.99c0.67,0.66 1,1.49 1,2.47c0,0.99 -0.34,1.83 -1.02,2.52c-0.68,0.68 -1.52,1.03 -2.53,1.03c-1.01,0 -1.86,-0.35 -2.54,-1.03z" fill="#407BFF" id="svg_317"/>
    </g>
   </g>
  </g>
  <g id="Character" transform="matrix(1 0 0 1 0 0)">
   <g id="svg_318">
    <g id="svg_319">
     <path d="m348.44,377.87c-13.08,0 -25.5,-5.61 -34.03,-15.33c10.76,-9.13 9.52,-35.25 7.56,-49.65l4.62,4.31l21.69,20.33c-1.17,3.27 -1.92,6.68 -2.25,10.13c-0.45,7.39 2.45,14.02 13.47,17.15c2.61,4.84 1.46,13.41 -11.06,13.06z" fill="#FDBBB5" id="svg_320"/>
     <path d="m348.27,337.53c-1.17,3.27 -1.92,6.68 -2.25,10.13c-11.3,3.9 -21.39,-7.51 -22.14,-19.7c-0.26,-4.23 2.01,-8.31 2.59,-10.72l21.79,20.29z" enable-background="new" id="svg_321" opacity="0.2"/>
     <path d="m376.06,283.8c2.63,7.47 1.76,22.94 -9.07,18.21c-10.84,-4.74 4.58,-30.95 9.07,-18.21z" fill="#263238" id="svg_322"/>
     <path d="m321.23,295.5c-0.59,19.37 -1.96,30.68 7.03,41.34c13.53,16.17 38.63,9.25 45.13,-9.59c5.85,-16.96 5.81,-45.77 -12.64,-54.99c-13.41,-6.68 -29.78,-1.43 -36.58,11.74c-1.84,3.57 -2.84,7.49 -2.94,11.49z" fill="#FDBBB5" id="svg_323"/>
     <path d="m354.66,344.88c-0.83,-0.14 -3.63,-2.18 -3.1,-6.17s11.57,-13.6 16.16,-13.06c4.62,0.55 1.32,6.59 1.32,6.59s-10.88,11.39 -11.44,11.62s-2.94,1.02 -2.94,1.02z" enable-background="new" id="svg_324" opacity="0.2"/>
     <path d="m368.63,288.35c13.73,-0.82 24.1,-14.7 7.01,-26.62c-4.03,-2.59 -8.45,-4.47 -13.13,-5.59c0,0 3.59,5.02 -0.06,8.78c-3.34,-7.96 -11.63,-12.82 -20.36,-11.92c2.31,4.16 -0.61,12.94 -7.17,10.37c-9.95,-3.88 -24.43,-1.73 -22.99,10.35c-12.78,6.68 -6.06,26.29 11.63,35.5c9.32,-7.74 7.68,-25.78 7.68,-25.78c9.4,3.74 24.97,5.51 37.39,4.9z" fill="#263238" id="svg_325"/>
     <path d="m314.63,275.27c0,0 -7.86,-4.7 -1.62,-11.23c-8.51,2.53 -6.02,9.17 1.62,11.23z" fill="#263238" id="svg_326"/>
     <path d="m315.79,277.21c0,0 -7.09,-5.78 -11.38,2.14c-0.3,-8.66 6.93,-8.53 11.38,-2.14z" fill="#263238" id="svg_327"/>
     <path d="m312.2,310.87c1.07,4.74 4.01,8.86 8.2,11.45c5.55,3.37 10.23,-1.12 10.23,-7.23c0.04,-5.49 -2.86,-13.98 -9.22,-14.78c-4.74,-0.49 -8.97,2.9 -9.46,7.57c-0.1,1 -0.02,2.02 0.24,3z" fill="#FDBBB5" id="svg_328"/>
     <g id="svg_329">
      <g id="svg_330">
       <path d="m346.33,303.81c-0.18,1.98 0.73,3.69 2.05,3.78c1.34,0.12 2.57,-1.41 2.75,-3.39c0.2,-1.98 -0.73,-3.69 -2.05,-3.78c-1.32,-0.12 -2.55,1.39 -2.75,3.39z" fill="#263238" id="svg_331"/>
       <path d="m367.05,306.48c-0.18,1.98 0.73,3.69 2.05,3.78c1.34,0.12 2.57,-1.39 2.75,-3.39c0.2,-1.98 -0.73,-3.67 -2.05,-3.78c-1.32,-0.12 -2.55,1.41 -2.75,3.39z" fill="#263238" id="svg_332"/>
       <path d="m363.14,304.73c0,0 5.45,10.45 7.11,14.66c-3.06,2.23 -7.8,0.63 -7.8,0.63l0.69,-15.29z" fill="#F7776A" id="svg_333"/>
       <path d="m344.1,297.5c0.26,0.22 0.63,0.29 0.95,0.16c3.99,-1.43 6.85,0.55 6.87,0.57c0.43,0.31 1.03,0.22 1.34,-0.2c0.32,-0.41 0.22,-0.98 -0.2,-1.29c-0.14,-0.1 -3.71,-2.61 -8.67,-0.8c-0.49,0.18 -0.73,0.71 -0.55,1.2c0.06,0.16 0.14,0.27 0.26,0.37z" fill="#263238" id="svg_334"/>
      </g>
      <path d="m379.37,296.23c0.18,-0.06 0.34,-0.16 0.47,-0.29c0.34,-0.39 0.3,-1 -0.1,-1.33c-3.97,-3.35 -8.16,-2.14 -8.35,-2.1c-0.51,0.14 -0.79,0.67 -0.65,1.16c0.14,0.49 0.67,0.78 1.15,0.63c0.18,-0.06 3.42,-0.94 6.6,1.74c0.26,0.22 0.59,0.27 0.87,0.2z" fill="#263238" id="svg_335"/>
     </g>
     <g id="svg_336" opacity="0.2">
      <g id="svg_337">
       <path d="m317.12,305.68c2.61,-1.14 5.41,0.24 6.79,2.51c0.67,1.12 1.03,2.43 1.13,3.72c0.12,1.27 0.02,2.59 -0.81,3.63c-0.26,0.33 -0.06,0.82 0.26,1.02c0.38,0.22 0.79,0.04 1.03,-0.27c1.01,-1.25 1.17,-2.94 1.03,-4.47c-0.14,-1.65 -0.61,-3.29 -1.56,-4.7c-1.9,-2.82 -5.39,-4.12 -8.65,-2.71c-0.89,0.37 -0.12,1.65 0.77,1.27l0,0z" id="svg_338"/>
      </g>
     </g>
     <g id="svg_339">
      <g id="svg_340">
       <path d="m358.95,326.08c0.51,-0.37 1.07,-0.65 1.7,-0.76c0.22,-0.06 0.38,-0.06 0.63,-0.06c-0.02,0 -0.08,-0.02 -0.02,0c0.02,0 0.04,0 0.08,0c0,0 0.08,0.04 0.02,0.02c-0.06,-0.04 0,0 0.02,0c0.04,0.04 0.06,0.06 0.02,0.02c0.02,0.02 0.04,0.02 0.06,0.04c-0.06,-0.04 0,0.02 0,0.04c0.02,0.04 0.04,0.06 0.06,0.1c0.1,0.22 0.43,0.27 0.63,0.16c0.22,-0.12 0.26,-0.37 0.16,-0.59c-0.14,-0.31 -0.45,-0.57 -0.79,-0.65c-0.3,-0.06 -0.63,-0.02 -0.95,0.04c-0.83,0.14 -1.6,0.53 -2.27,1.04c-0.18,0.14 -0.16,0.47 0,0.61c0.2,0.2 0.47,0.16 0.65,0l0,0z" fill="#263238" id="svg_341"/>
      </g>
     </g>
    </g>
    <g id="svg_342">
     <polygon fill="#263238" id="svg_343" points="234.25843811035156,946.2079467773438 252.9863739013672,952.727783203125 273.6932373046875,911.946044921875 246.91387939453125,902.8150024414062 "/>
     <polygon fill="#FFFFFF" id="svg_344" opacity="0.5" points="234.25843811035156,946.2079467773438 252.9863739013672,952.727783203125 273.6932373046875,911.946044921875 246.91387939453125,902.8150024414062 "/>
     <polygon fill="#263238" id="svg_345" points="383.63629150390625,948.836669921875 403.4701843261719,947.6290893554688 406.2451477050781,902.1408081054688 377.9648742675781,904.0460205078125 "/>
     <polygon fill="#FFFFFF" id="svg_346" opacity="0.5" points="383.63629150390625,948.836669921875 403.4701843261719,947.6290893554688 406.2451477050781,902.1408081054688 377.9648742675781,904.0460205078125 "/>
     <path d="m252.95,947.08l-21.59,-3.41c-0.79,-0.12 -1.58,0.31 -1.88,1.06l-6.87,16.47c-0.61,1.45 0.08,3.1 1.56,3.7c0.24,0.1 0.53,0.16 0.79,0.2c7.78,1.06 19.06,2.39 28.8,3.96c11.34,1.8 18.74,2.2 32.08,4.29c8.08,1.29 11.71,-6.35 8.43,-7.59c-14.81,-5.72 -24.93,-6.29 -36.84,-16.51c-1.26,-1.12 -2.82,-1.86 -4.48,-2.18z" fill="#263238" id="svg_347"/>
     <path d="m254.19,949.61c0,-0.2 0.12,-0.35 0.32,-0.41c0.97,-0.31 9.54,-3.02 11.79,-1.22c0.41,0.31 0.63,0.82 0.57,1.33c-0.08,0.84 -0.55,1.61 -1.26,2.08c-2.49,1.51 -8,-0.12 -11.06,-1.23l0,0c-0.26,-0.06 -0.43,-0.29 -0.36,-0.55c0,0 0,0 0,0zm1.96,0.04c4.21,1.39 7.47,1.73 8.89,0.86c0.47,-0.29 0.77,-0.82 0.79,-1.37c0.06,-0.22 -0.02,-0.43 -0.2,-0.55l-0.16,-0.02c-1.38,-0.78 -5.96,0.12 -9.32,1.08l0,0z" fill="#407BFF" id="svg_348"/>
     <path d="m254.31,949.94c-0.12,-0.1 -0.16,-0.29 -0.1,-0.45c0.67,-2.69 2.19,-5.1 4.31,-6.9c0.81,-0.49 1.78,-0.63 2.71,-0.39c1.26,0.35 1.52,1.04 1.52,1.55c0,2.25 -5.43,5.67 -8,6.31c-0.1,0.04 -0.22,0.02 -0.34,-0.04l-0.1,-0.08zm6.79,-6.82c-0.67,-0.18 -1.38,-0.08 -1.99,0.27c-1.76,1.43 -3.04,3.35 -3.69,5.51c2.67,-1.04 6.36,-3.8 6.54,-5.12c0,0 0.04,-0.29 -0.36,-0.49c-0.2,-0.1 -0.41,-0.16 -0.61,-0.2l0.1,0.02z" fill="#407BFF" id="svg_349"/>
     <path d="m401.51,944.32l-21.75,0.88c-0.81,0.04 -1.48,0.63 -1.64,1.39l-3.34,17.49c-0.3,1.55 0.71,3.02 2.27,3.31c0.26,0.06 0.53,0.08 0.81,0.04c7.84,-0.45 19.16,-1.35 29.03,-1.73c11.5,-0.45 18.82,-1.51 32.31,-2.06c8.2,-0.31 10.21,-8.51 6.77,-9.1c-15.7,-2.71 -25.72,-1.29 -39.48,-8.96c-1.5,-0.88 -3.22,-1.31 -4.96,-1.27z" fill="#263238" id="svg_350"/>
     <path d="m403.25,946.57c-0.04,-0.2 0.04,-0.37 0.22,-0.47c0.89,-0.51 8.75,-4.82 11.3,-3.49c0.47,0.22 0.79,0.67 0.83,1.2c0.14,0.84 -0.16,1.71 -0.81,2.27c-2.13,1.96 -7.84,1.45 -11.06,0.94l0,0c-0.24,-0.04 -0.45,-0.22 -0.49,-0.45zm1.92,-0.33c4.42,0.53 7.72,0.22 8.89,-0.9c0.43,-0.37 0.63,-0.94 0.51,-1.51c0,-0.2 -0.1,-0.39 -0.28,-0.49l-0.18,0.02c-1.52,-0.51 -5.73,1.27 -8.93,2.88l0,0z" fill="#407BFF" id="svg_351"/>
     <path d="m403.43,946.86c-0.14,-0.08 -0.2,-0.24 -0.2,-0.41c0.12,-2.76 1.11,-5.41 2.86,-7.61c0.69,-0.65 1.62,-0.98 2.59,-0.92c1.3,0.1 1.68,0.73 1.8,1.23c0.43,2.2 -4.19,6.61 -6.56,7.74c-0.12,0.04 -0.24,0.06 -0.36,0.02l-0.12,-0.06zm5.27,-8c-0.71,-0.06 -1.4,0.18 -1.92,0.65c-1.46,1.74 -2.33,3.88 -2.49,6.12c2.41,-1.53 5.45,-4.96 5.37,-6.29c0,0 -0.02,-0.27 -0.45,-0.39l-0.51,-0.08z" fill="#407BFF" id="svg_352"/>
     <path d="m409.57,926.91l-37.96,2.65c0,0 -9.32,-109.52 -13.92,-170.17c-2.39,-24.13 -6.2,-48.11 -11.42,-71.81c-7.15,-34.7 -16.31,-72.2 -23.78,-101.58c-7.92,-30.93 -14,-52.93 -14,-52.93l74.44,-1.35c0,0 26.23,150.84 29.55,210.2c3.34,62.14 -2.92,184.99 -2.92,184.99z" fill="#263238" id="svg_353"/>
     <path d="m346.27,687.58c-7.15,-34.7 -16.31,-72.2 -23.78,-101.58l7.56,-15.21c16.73,20.37 20.13,82.88 16.22,116.79z" enable-background="new" id="svg_354" opacity="0.2"/>
     <path d="m276,517.43c0,0 -9.38,28.27 -5.71,87.55l37.43,11.31l25.91,-40.07l49.6,-1.65l-0.34,-29.15l0.77,-15.78l-107.66,-12.21z" fill="#263238" id="svg_355"/>
     <path d="m340.54,531.26c0,0 -11.85,168.68 -19.26,225.51c-8.1,62.26 -51.14,180.4 -51.14,180.4l-40.11,-5.53c0,0 30.18,-107.82 34.21,-170.04c3.44,-52.97 6.12,-156.41 7.21,-202.79c0.24,-13.29 10.88,-24.15 24.39,-24.92l44.7,-2.65z" fill="#263238" id="svg_356"/>
     <g id="svg_357" opacity="0.2">
      <g id="svg_358">
       <path d="m279.02,557.06c12.19,-2.06 22.58,-10.66 26.9,-21.84c0.34,-0.88 -1.11,-1.25 -1.46,-0.39c-4.15,10.72 -14.2,18.84 -25.85,20.82c-0.97,0.16 -0.57,1.59 0.41,1.41l0,0z" id="svg_359"/>
      </g>
     </g>
     <g id="svg_360" opacity="0.2">
      <g id="svg_361">
       <path d="m384.45,557.61c-5.55,-3.61 -10.05,-8.74 -12.62,-14.74c-0.36,-0.86 -1.84,-0.47 -1.46,0.39c2.71,6.39 7.39,11.78 13.31,15.62c0.83,0.53 1.58,-0.74 0.77,-1.27l0,0z" id="svg_362"/>
      </g>
     </g>
    </g>
    <g id="svg_363">
     <path d="m377.91,367.68l3.28,49.44l-1.52,16.17c3.61,3.27 7.37,6.37 11.3,9.27c15.03,9.39 20.4,10.66 28.01,11.53l0.95,-2.39c0,0 -8.39,-21.94 -22.36,-50.71c-0.02,0.08 -11.87,-32.13 -19.67,-33.31z" fill="#407BFF" id="svg_364"/>
     <path d="m377.91,367.68l3.28,49.44l-1.52,16.17c3.61,3.27 7.37,6.37 11.3,9.27c15.03,9.39 20.4,10.66 28.01,11.53l0.95,-2.39c0,0 -8.39,-21.94 -22.36,-50.71c-0.02,0.08 -11.87,-32.13 -19.67,-33.31z" enable-background="new" fill="#FFFFFF" id="svg_365" opacity="0.5"/>
     <path d="m381.19,417.12l-1.52,16.17c3.61,3.27 7.37,6.37 11.3,9.27c2.67,-14.64 -7.94,-28.46 -7.94,-28.46c-0.77,0.9 -1.38,1.92 -1.84,3.02z" enable-background="new" id="svg_366" opacity="0.2"/>
     <path d="m278.52,365.19c3,21.6 4.35,43.38 4.03,65.18c-0.12,15.23 -1.03,29.7 -1.96,42.75c-2.39,30.62 -8.32,48.2 -8.43,56.16l112.38,4.39c6.79,-76.02 -3.81,-164.59 -3.81,-164.59c-8.12,-2.51 -7.33,-1.92 -15.72,-3.41c-1.78,-0.35 -3.59,-0.61 -5.43,-0.88c-15.01,-1.61 -30.1,-2.35 -45.19,-2.25c-2.9,0 -5.77,0.06 -8.65,0.18c-14.34,0.57 -27.22,2.47 -27.22,2.47z" fill="#407BFF" id="svg_367"/>
     <path d="m278.52,365.19c3,21.6 4.35,43.38 4.03,65.18c-0.12,15.23 -1.03,29.7 -1.96,42.75c-2.39,30.62 -8.32,48.2 -8.43,56.16l112.38,4.39c6.79,-76.02 -3.81,-164.59 -3.81,-164.59c-8.12,-2.51 -7.33,-1.92 -15.72,-3.41c-1.78,-0.35 -3.59,-0.61 -5.43,-0.88c-15.01,-1.61 -30.1,-2.35 -45.19,-2.25c-2.9,0 -5.77,0.06 -8.65,0.18c-14.34,0.57 -27.22,2.47 -27.22,2.47z" enable-background="new" fill="#FFFFFF" id="svg_368" opacity="0.5"/>
     <path d="m309.81,362.62l9.74,-10.66c0.1,-0.29 24.27,12.88 24.27,12.88c0.49,0 4.5,-8.96 4.5,-8.96l16.67,9.82c0,0 -10.86,16.64 -11.4,16.82c-0.53,0.2 -20.36,-1.76 -20.36,-1.76l-23.41,-18.13z" fill="#407BFF" id="svg_369"/>
     <path d="m309.83,362.62l9.74,-10.66c0.1,-0.29 24.27,12.88 24.27,12.88c0.49,0 4.5,-8.96 4.5,-8.96l16.67,9.82c0,0 -10.86,16.64 -11.4,16.82c-0.53,0.2 -20.36,-1.76 -20.36,-1.76l-23.41,-18.13z" enable-background="new" fill="#FFFFFF" id="svg_370" opacity="0.5"/>
     <path d="m350.64,380.85c2.65,9.76 12.86,108.31 15.23,133.48l-12.01,13.37l-11.99,-13.68c-0.22,-24.11 5.27,-120.22 2.61,-132.63l6.16,-0.53z" fill="#407BFF" id="svg_371"/>
     <polygon fill="#407BFF" id="svg_372" points="345.08062744140625,382.6772155761719 350.59002685546875,382.3576965332031 352.1982116699219,374.28131103515625 343.73565673828125,368.5631408691406 338.5179443359375,376.7767333984375 "/>
     <path d="m309.83,362.62c0,0 24.31,23.68 24.39,23.41c0.1,-0.29 9.52,-17.47 9.52,-17.47l-9.03,13l-24.87,-18.94z" enable-background="new" id="svg_373" opacity="0.2"/>
     <polygon id="svg_374" opacity="0.2" points="343.73565673828125,368.5631408691406 357.8919982910156,377.72747802734375 364.99951171875,365.7010803222656 358.32342529296875,380.7188720703125 "/>
     <g id="svg_375" opacity="0.2">
      <g id="svg_376">
       <path d="m386.29,439.07c-0.3,-16.07 -1.05,-32.13 -1.34,-48.2c-0.02,-0.96 -1.54,-0.96 -1.52,0c0.28,16.07 1.03,32.13 1.34,48.2c0.02,0.94 1.54,0.96 1.52,0l0,0z" id="svg_377"/>
      </g>
     </g>
     <path d="m282.22,444.42c0,0 15.29,28.21 29.19,32.76c13.92,4.53 75.39,-1.49 75.39,-1.49l0.12,-11.21l-68.62,-3.82c0,0 -36.5,-37.5 -35.99,-37.27c0.53,0.25 -0.08,21.03 -0.08,21.03z" id="svg_378" opacity="0.3"/>
     <path d="m400.98,450.36l22.65,-3.86l0.81,-2.14c0,0 -0.69,-4.16 -11.53,-1.37c-10.84,2.76 -13.29,5.61 -13.29,5.61c0.34,0.67 0.81,1.25 1.36,1.76z" enable-background="new" id="svg_379" opacity="0.2"/>
     <g id="svg_380" opacity="0.2">
      <g id="svg_381">
       <path d="m284.75,369.91c9.42,4.57 12.9,15.07 17.05,23.72c4.88,10.25 9.7,20.54 14.46,30.85c1.44,3.12 2.92,6.21 4.29,9.37c0.38,0.86 1.68,0.12 1.32,-0.74c-7.64,-17.51 -15.86,-34.91 -24.51,-51.99c-2.63,-5.21 -6.34,-9.82 -11.85,-12.49c-0.87,-0.43 -1.64,0.84 -0.77,1.27l0,0z" id="svg_382"/>
      </g>
     </g>
     <g id="svg_383">
      <path d="m425.02,437.29c-1.56,-11.39 -9.4,-22.29 -13.73,-32.34c-8.3,-18.05 -18.37,-34.17 -25.12,-51.61c-1.24,-3.16 -5.41,-4.14 -8.67,-3.1c-3.97,1.23 -6.14,5.39 -4.86,9.29c4.07,12.25 10.78,27.11 14.16,42.68l12.82,46.4c2.55,4.98 15.03,8.92 21.45,1.84c3.16,-3.65 4.6,-8.43 3.95,-13.15zm-27.04,1.39c0,0.14 0.04,0.27 0.04,0.39c-0.04,0 -0.06,-0.2 -0.04,-0.39z" fill="#FDBBB5" id="svg_384"/>
      <path d="m373.59,326.73l6.48,3.57c2.43,1.35 4.05,3.78 4.33,6.53l1.38,12.76c0.57,5.12 -1.44,10.17 -5.37,13.57l-2.41,2.12c-11.12,-5.23 -19.32,-18.96 -19.32,-18.96l-2.75,-3.69c-2.45,-3.08 -1.9,-7.51 1.22,-9.92c0.02,-0.02 0.04,-0.04 0.06,-0.06l7.33,-5.47c2.65,-1.9 6.2,-2.08 9.05,-0.45z" fill="#FDBBB5" id="svg_385"/>
     </g>
     <g id="svg_386">
      <g id="svg_387">
       <path d="m428.51,457.44c0,-0.04 -0.02,-0.06 -0.02,-0.1l-3.22,-8.39c-0.02,-0.02 -0.04,-0.06 -0.04,-0.1c-1.52,-3.61 -5.71,-5.33 -9.4,-3.86l-4.33,1.57c0,0 -8.2,2.04 -15.84,6.61c-11.77,-0.2 -23.68,-0.61 -35.26,-1.27c-9.22,-0.47 -18.37,-1.65 -27.43,-3.47c-3.16,-0.55 -6.16,-1.74 -8.83,-3.49c-8.83,-13.7 -23.13,-42.95 -31.42,-58.53l0.12,0.02c-9.4,-17.02 -34.98,-4.7 -27.1,13c10.98,21.9 22.02,43.75 37.84,62.91c13.27,14.04 39.44,12.08 57,11.37c11.61,-0.86 23.11,-2.47 34.51,-4.7c0.06,0.04 0.12,0.08 0.18,0.12c2.77,1.63 6.2,1.8 9.24,0.78l11.48,-3.9c0.38,0.51 3.87,3.08 6.66,1.43l0.41,-0.12c4.29,-1.23 6.95,-5.72 5.45,-9.86z" fill="#FDBBB5" id="svg_388"/>
       <path d="m293.55,453.03l26.39,-15.76l-16.73,-43.85c0,0 -12.88,-34.72 -26.92,-27.42c-24.69,12.9 -12.34,45.32 17.26,87.04z" fill="#407BFF" id="svg_389"/>
       <path d="m293.55,453.03l26.39,-15.76l-16.73,-43.85c0,0 -12.88,-34.72 -26.92,-27.42c-24.69,12.9 -12.34,45.32 17.26,87.04z" enable-background="new" fill="#FFFFFF" id="svg_390" opacity="0.5"/>
       <polygon fill="#407BFF" id="svg_391" points="323.25970458984375,432.3311767578125 286.66261291503906,454.9665832519531 298.9393005371094,464.6092224121094 327.9690246582031,441.0760192871094 "/>
       <polygon fill="#FFFFFF" id="svg_392" opacity="0.3" points="323.25970458984375,432.3311767578125 286.66261291503906,454.9665832519531 298.9393005371094,464.6092224121094 327.9690246582031,441.0760192871094 "/>
      </g>
      <path d="m416.11,465.95c0,0 6.48,-2.72 6.26,-2.59c-0.24,0.12 -4.54,3.88 -4.54,3.88s-1.4,-0.47 -1.72,-1.29z" enable-background="new" id="svg_393" opacity="0.2"/>
     </g>
    </g>
   </g>
  </g>
  <g id="svg_431" transform="matrix(1 0 0 1 0 0)">
   <g id="svg_432">
    <g id="svg_433"/>
    <g id="svg_437">
     <path d="m234.21,287c-0.65,-0.37 -177.12,0.83 -177.58,-0.16c-34.45,-59.79 -42.06,-36.33 1.18,-90.69c1.31,0 176.33,-1.81 177.12,0.55c-0.74,0.92 1.37,90.75 -0.73,90.3z" fill="#407BFF" id="svg_438"/>
     <path d="m234.21,287c-0.65,-0.37 -177.12,0.83 -177.58,-0.16c-34.45,-59.79 -42.06,-36.33 1.18,-90.69c1.31,0 176.33,-1.81 177.12,0.55c-0.74,0.92 1.37,90.75 -0.73,90.3z" id="svg_439" opacity="0.3"/>
     <path d="m234.21,280.36c-0.68,-0.39 -175.92,0.69 -176.39,-0.34c0,0 -29.59,-45.95 -29.59,-45.95c-1.15,-1.47 29.55,-46 29.59,-47.1c1.23,-0.05 176.42,-1.84 177.12,0.55c-0.68,0.9 1.33,93.3 -0.73,92.84z" fill="#407BFF" id="svg_440"/>
     <g id="svg_441">
      <g id="svg_442">
       <path d="m224.02,197.27c-0.05,4.64 4.96,4.64 4.91,0c0.05,-4.64 -4.96,-4.64 -4.91,0z" fill="#263238" id="svg_443"/>
       <path d="m224.02,197.27c-0.05,4.64 4.96,4.64 4.91,0c0.05,-4.64 -4.96,-4.64 -4.91,0z" enable-background="new" fill="#FFFFFF" id="svg_444" opacity="0.5"/>
      </g>
      <g id="svg_445">
       <path d="m224.02,268.01c-0.05,4.64 4.96,4.64 4.91,0c0.05,-4.64 -4.96,-4.64 -4.91,0z" fill="#263238" id="svg_446"/>
       <path d="m224.02,268.01c-0.05,4.64 4.96,4.64 4.91,0c0.05,-4.64 -4.96,-4.64 -4.91,0z" enable-background="new" fill="#FFFFFF" id="svg_447" opacity="0.5"/>
      </g>
     </g>
     <g id="svg_448">
      <g id="svg_449">
       <path d="m59.57,197.27c-0.05,4.64 4.96,4.64 4.91,0c0.05,-4.64 -4.96,-4.64 -4.91,0z" fill="#263238" id="svg_450"/>
       <path d="m59.57,197.27c-0.05,4.64 4.96,4.64 4.91,0c0.05,-4.64 -4.96,-4.64 -4.91,0z" enable-background="new" fill="#FFFFFF" id="svg_451" opacity="0.5"/>
      </g>
      <g id="svg_452">
       <path d="m59.57,268.01c-0.05,4.64 4.96,4.64 4.91,0c0.05,-4.64 -4.96,-4.64 -4.91,0z" fill="#263238" id="svg_453"/>
       <path d="m59.57,268.01c-0.05,4.64 4.96,4.64 4.91,0c0.05,-4.64 -4.96,-4.64 -4.91,0z" enable-background="new" fill="#FFFFFF" id="svg_454" opacity="0.5"/>
      </g>
     </g>
    </g>
    <g id="svg_455">
     <path d="m98.19,224.31l0,5.65l9.46,0l0,8.38l-9.46,0l0,10.54l-7.65,0l0,-32.94l18.43,0l0,8.38l-10.79,0z" fill="#FFFFFF" id="svg_456"/>
     <path d="m126.04,243.13l-8.61,0l-1.53,5.74l-7.77,0l9.92,-32.94l7.5,0l9.92,32.94l-7.91,0l-1.52,-5.74zm-2.1,-7.99l-2.21,-8.29l-2.2,8.29l4.41,0z" fill="#FFFFFF" id="svg_457"/>
     <path d="m136.68,215.93l7.65,0l0,24.33l10.24,0l0,8.61l-17.88,0l0,-32.94z" fill="#FFFFFF" id="svg_458"/>
     <path d="m155.24,246.26l2.46,-8.1c2.13,1.84 4.99,3.01 7.49,3.01c2.16,0 2.94,-0.64 2.94,-1.79c0,-4.13 -12.54,-0.8 -12.54,-13.08c0,-6.11 3.54,-11.11 10.57,-11.11c3.05,0 6.19,0.94 8.55,2.87l-2.29,8.06c-2.24,-1.65 -4.34,-2.46 -6.32,-2.46c-2.23,0 -2.95,0.94 -2.95,2.09c0,3.95 12.54,0.64 12.54,12.78c0,6.04 -3.52,11.11 -10.57,11.11c-3.78,0 -7.61,-1.35 -9.87,-3.37z" fill="#FFFFFF" id="svg_459"/>
     <path d="m196.8,240.49l0,8.38l-18.86,0l0,-32.94l18.43,0l0,8.38l-10.91,0l0,3.86l9.59,0l0,8.01l-9.59,0l0,4.32l11.34,0z" fill="#FFFFFF" id="svg_460"/>
    </g>
    <path d="m95.28,186.62c0,0 15.97,11.94 32.16,26.21c13,11.48 40.53,39.96 29.22,51.71c-11.29,11.73 -14.07,15.98 -13.41,15.93c0.66,-0.05 21.81,0 21.81,0s7.82,-19.49 0,-35.21c-7.82,-15.72 -24.63,-29.95 -27.23,-44.41c-2.61,-14.46 5.42,-14.57 5.42,-14.57l-47.97,0.34z" fill="#FFFFFF" id="svg_461" opacity="0.2"/>
    <path d="m139.07,179.14c23.95,0 47.89,0 71.84,0" fill="none" id="svg_464" stroke="#407BFF" stroke-linecap="round" stroke-linejoin="round" stroke-miterlimit="10"/>
   </g>
  </g>
  <g id="svg_397">
   <g id="svg_398">
    <g id="svg_403">
     <path d="m247.85,169.11l177.91,0.16c0.22,0 0.43,-0.12 0.57,-0.33l28.55,-45.64c0.22,-0.33 0.3,-8.57 0.1,-8.89l-29.82,-37.7c-0.14,-0.21 -0.35,-0.33 -0.57,-0.33l-176.74,0c-0.41,0 -0.75,0.4 -0.75,0.89l0,90.92c0,0.51 0.33,0.91 0.75,0.91z" fill="#407BFF" id="svg_404"/>
     <path d="m247.85,169.11l177.91,0.16c0.22,0 0.43,-0.12 0.57,-0.33l28.55,-45.64c0.22,-0.33 0.3,-8.57 0.1,-8.89l-29.82,-37.7c-0.14,-0.21 -0.35,-0.33 -0.57,-0.33l-176.74,0c-0.41,0 -0.75,0.4 -0.75,0.89l0,90.92c0,0.51 0.33,0.91 0.75,0.91z" id="svg_405" opacity="0.3"/>
     <path d="m247.85,162.36l176.74,0c0.22,0 0.43,-0.14 0.57,-0.35l29.72,-46.73c0.22,-0.35 0.22,-0.84 0,-1.17l-29.72,-46.73c-0.14,-0.23 -0.35,-0.35 -0.57,-0.35l-176.74,0c-0.41,0 -0.75,0.42 -0.75,0.91l0,93.49c0,0.51 0.33,0.93 0.75,0.93z" fill="#407BFF" id="svg_406"/>
     <g id="svg_407">
      <g id="svg_408">
       <path d="m258.09,77.86c0,2.01 -1.11,3.64 -2.48,3.64s-2.48,-1.63 -2.48,-3.64s1.11,-3.64 2.48,-3.64s2.48,1.63 2.48,3.64z" fill="#263238" id="svg_409"/>
       <path d="m258.09,77.86c0,2.01 -1.11,3.64 -2.48,3.64s-2.48,-1.63 -2.48,-3.64s1.11,-3.64 2.48,-3.64s2.48,1.63 2.48,3.64z" enable-background="new" fill="#FFFFFF" id="svg_410" opacity="0.5"/>
      </g>
      <g id="svg_411">
       <path d="m258.09,149.8c0,2.01 -1.11,3.64 -2.48,3.64s-2.48,-1.63 -2.48,-3.64s1.11,-3.64 2.48,-3.64s2.48,1.63 2.48,3.64z" fill="#263238" id="svg_412"/>
       <path d="m258.09,149.8c0,2.01 -1.11,3.64 -2.48,3.64s-2.48,-1.63 -2.48,-3.64s1.11,-3.64 2.48,-3.64s2.48,1.63 2.48,3.64z" enable-background="new" fill="#FFFFFF" id="svg_413" opacity="0.5"/>
      </g>
     </g>
     <g id="svg_414">
      <g id="svg_415">
       <path d="m423.4,77.86c0,2.01 -1.11,3.64 -2.48,3.64c-1.37,0 -2.48,-1.63 -2.48,-3.64s1.11,-3.64 2.48,-3.64c1.37,0 2.48,1.63 2.48,3.64z" fill="#263238" id="svg_416"/>
       <path d="m423.4,77.86c0,2.01 -1.11,3.64 -2.48,3.64c-1.37,0 -2.48,-1.63 -2.48,-3.64s1.11,-3.64 2.48,-3.64c1.37,0 2.48,1.63 2.48,3.64z" enable-background="new" fill="#FFFFFF" id="svg_417" opacity="0.5"/>
      </g>
      <g id="svg_418">
       <path d="m423.4,149.8c0,2.01 -1.11,3.64 -2.48,3.64c-1.37,0 -2.48,-1.63 -2.48,-3.64s1.11,-3.64 2.48,-3.64c1.37,0 2.48,1.63 2.48,3.64z" fill="#263238" id="svg_419"/>
       <path d="m423.4,149.8c0,2.01 -1.11,3.64 -2.48,3.64c-1.37,0 -2.48,-1.63 -2.48,-3.64s1.11,-3.64 2.48,-3.64c1.37,0 2.48,1.63 2.48,3.64z" enable-background="new" fill="#FFFFFF" id="svg_420" opacity="0.5"/>
      </g>
     </g>
     <g id="svg_421">
      <path d="m304.42,108.49l-6.67,0l0,-8.75l21.04,0l0,8.75l-6.68,0l0,24.77l-7.68,0l0,-24.77z" fill="#FFFFFF" id="svg_422"/>
      <path d="m330.53,124.83l-2.08,0l0,8.43l-7.68,0l0,-33.52l10.97,0c6.35,0 10.4,4.88 10.4,12.63c0,4.83 -1.57,8.47 -4.3,10.55l4.78,10.34l-8.21,0l-3.87,-8.43zm0.73,-16.39l-2.81,0l0,7.84l2.81,0c2.11,0 3.13,-1.47 3.13,-3.92s-1.02,-3.92 -3.13,-3.92z" fill="#FFFFFF" id="svg_423"/>
      <path d="m344.82,118.15l0,-18.42l7.68,0l0,18.09c0,5.14 1.33,7.05 3.49,7.05c2.14,0 3.48,-1.91 3.48,-7.05l0,-18.09l7.56,0l0,18.42c0,10.06 -4.11,15.85 -11.1,15.85c-7,0 -11.11,-5.79 -11.11,-15.85z" fill="#FFFFFF" id="svg_424"/>
      <path d="m389.48,124.73l0,8.52l-18.94,0l0,-33.52l18.53,0l0,8.52l-10.97,0l0,3.92l9.64,0l0,8.15l-9.64,0l0,4.39l11.38,0l0,0.02z" fill="#FFFFFF" id="svg_425"/>
     </g>
    </g>
    <path d="m375.76,67.03c0,0 -16.05,12.14 -32.31,26.66c-13.08,11.67 -40.74,40.64 -29.39,52.59c11.35,11.93 14.15,16.25 13.48,16.2c-0.67,-0.05 -21.93,0 -21.93,0s-7.86,-19.82 0,-35.81c7.86,-15.97 24.75,-30.46 27.37,-45.17c2.62,-14.71 -5.45,-14.8 -5.45,-14.8l48.22,0.33z" fill="#FFFFFF" id="svg_426" opacity="0.2"/>
    <path d="m255.15,187.41c18.48,0 36.96,0 55.43,0" fill="none" id="svg_430" stroke="#407BFF" stroke-linecap="round" stroke-linejoin="round" stroke-miterlimit="10"/>
   </g>
  </g>
 </g>
</svg>