<?xml version="1.0"?>
<svg width="500" height="500" xmlns="http://www.w3.org/2000/svg" xmlns:svg="http://www.w3.org/2000/svg" enable-background="new 0 0 500 500" version="1.1" xml:space="preserve">
 <g class="layer">
  <title>Layer 1</title>
  <g id="svg_591">
   <g id="Background_Complete">
    <g id="svg_1">
     <rect fill="#EBEBEB" height="0.3" id="svg_2" width="575" x="-36" y="416.03"/>
     <rect fill="#EBEBEB" height="0.3" id="svg_3" width="38.09" x="443.3" y="435.11"/>
     <rect fill="#EBEBEB" height="0.3" id="svg_4" width="10" x="334.91" y="438.33"/>
     <rect fill="#EBEBEB" height="0.3" id="svg_5" width="22.07" x="420.07" y="424.11"/>
     <rect fill="#EBEBEB" height="0.3" id="svg_6" width="49.67" x="24.33" y="426.1"/>
     <rect fill="#EBEBEB" height="0.3" id="svg_7" width="7.28" x="84.24" y="426.1"/>
     <rect fill="#EBEBEB" height="0.3" id="svg_8" width="107.73" x="115.19" y="431.1"/>
     <path d="m236.56,363.18l-222.06,0c-3.61,0 -6.55,-3.03 -6.55,-6.77l0,-321.69c0,-3.73 2.94,-6.77 6.55,-6.77l222.06,0c3.62,0 6.57,3.03 6.57,6.77l0,321.69c0,3.73 -2.94,6.77 -6.57,6.77zm-222.06,-334.93c-3.46,0 -6.27,2.9 -6.27,6.47l0,321.69c0,3.57 2.81,6.47 6.27,6.47l222.06,0c3.46,0 6.28,-2.9 6.28,-6.47l0,-321.69c0,-3.57 -2.82,-6.47 -6.28,-6.47l-222.06,0z" fill="#EBEBEB" id="svg_9"/>
     <path d="m485.31,363.18l-222.06,0c-3.62,0 -6.57,-3.03 -6.57,-6.77l0,-321.69c0,-3.73 2.96,-6.77 6.57,-6.77l222.06,0c3.62,0 6.57,3.03 6.57,6.77l0,321.69c0,3.73 -2.94,6.77 -6.57,6.77zm-222.06,-334.93c-3.46,0 -6.28,2.9 -6.28,6.47l0,321.69c0,3.57 2.82,6.47 6.28,6.47l222.06,0c3.46,0 6.28,-2.9 6.28,-6.47l0,-321.69c0,-3.57 -2.82,-6.47 -6.28,-6.47l-222.06,0z" fill="#EBEBEB" id="svg_10"/>
    </g>
    <g id="svg_11">
     <g id="svg_12">
      <g id="svg_13">
       <polygon fill="#E0E0E0" id="svg_14" points="197.69956970214844,138.77377319335938 235.91407775878906,115.8630599975586 265.3563537597656,115.8630599975586 304.2033996582031,137.68814086914062 304.2033996582031,286.17694091796875 197.69956970214844,286.17694091796875 "/>
      </g>
      <g id="svg_15">
       <g id="svg_16">
        <g id="svg_17">
         <path d="m305.3,286.18l-107.59,0l0,-147.4l1.09,-1.09c14.21,-14.07 32.92,-21.82 52.7,-21.82c0,0 0,0 0,0c19.78,0 38.49,7.75 52.7,21.82l1.09,1.09l0,147.4zm-100.46,-7.36l93.33,0l0,-136.89c-12.74,-12.08 -29.24,-18.71 -46.67,-18.71c-17.42,0 -33.92,6.64 -46.67,18.71l0,136.89z" fill="#FAFAFA" id="svg_18"/>
        </g>
       </g>
       <polygon fill="#F0F0F0" id="svg_19" points="248.823974609375,279.7070617675781 254.17724609375,279.7070617675781 254.17724609375,230.4272918701172 299.51483154296875,230.4272918701172 299.51483154296875,224.9102783203125 254.17724609375,224.9102783203125 254.17724609375,174.5081329345703 299.51483154296875,174.5081329345703 299.51483154296875,168.99110412597656 254.17724609375,168.99110412597656 254.17724609375,122.2665786743164 248.823974609375,122.2665786743164 248.823974609375,168.99110412597656 203.4852294921875,168.99110412597656 203.4852294921875,174.5081329345703 248.823974609375,174.5081329345703 248.823974609375,224.9102783203125 203.4852294921875,224.9102783203125 203.4852294921875,230.4272918701172 248.823974609375,230.4272918701172 "/>
       <g id="svg_20">
        <path d="m308.87,289.85l-114.75,0l0,-152.58l1.05,-1.08c31.06,-32 81.59,-32 112.65,0l1.05,1.08l0,152.58zm-107.61,-7.35l100.46,0l0,-142.16c-28,-27.73 -72.46,-27.73 -100.46,0l0,142.16z" fill="#F0F0F0" id="svg_21"/>
       </g>
      </g>
     </g>
     <g id="svg_22">
      <rect fill="#F5F5F5" height="10.12" id="svg_23" width="24.84" x="428.15" y="406.62"/>
      <rect fill="#F5F5F5" height="10.12" id="svg_24" width="11.33" x="455.16" y="406.62"/>
      <rect fill="#F5F5F5" height="10.12" id="svg_25" width="24.84" x="401.14" y="406.62"/>
      <rect fill="#F5F5F5" height="10.12" id="svg_26" width="24.84" x="374.13" y="406.62"/>
      <rect fill="#F5F5F5" height="10.12" id="svg_27" width="24.84" x="347.12" y="406.62"/>
      <rect fill="#F5F5F5" height="10.12" id="svg_28" width="24.84" x="320.11" y="406.62"/>
      <rect fill="#F5F5F5" height="10.12" id="svg_29" width="24.84" x="293.1" y="406.62"/>
      <rect fill="#F5F5F5" height="10.12" id="svg_30" width="24.84" x="266.09" y="406.62"/>
      <rect fill="#F5F5F5" height="10.12" id="svg_31" width="24.84" x="239.08" y="406.62"/>
      <rect fill="#F5F5F5" height="10.12" id="svg_32" width="24.84" x="212.07" y="406.62"/>
      <rect fill="#F5F5F5" height="10.12" id="svg_33" width="24.84" x="185.06" y="406.62"/>
      <rect fill="#F5F5F5" height="10.12" id="svg_34" width="24.84" x="158.05" y="406.62"/>
      <rect fill="#F5F5F5" height="10.12" id="svg_35" width="24.84" x="131.04" y="406.62"/>
      <rect fill="#F5F5F5" height="10.12" id="svg_36" width="24.84" x="104.03" y="406.62"/>
      <rect fill="#F5F5F5" height="10.12" id="svg_37" width="24.84" x="77.02" y="406.62"/>
      <rect fill="#F5F5F5" height="10.12" id="svg_38" width="24.84" x="50.01" y="406.62"/>
      <rect fill="#F5F5F5" height="10.12" id="svg_39" width="11.33" x="36.51" y="406.62"/>
      <rect fill="#F5F5F5" height="10.12" id="svg_40" width="24.84" x="441.65" y="393.93"/>
      <rect fill="#F5F5F5" height="10.12" id="svg_41" width="24.84" x="414.64" y="393.93"/>
      <rect fill="#F5F5F5" height="10.12" id="svg_42" width="24.84" x="387.63" y="393.93"/>
      <rect fill="#F5F5F5" height="10.12" id="svg_43" width="24.84" x="360.62" y="393.93"/>
      <rect fill="#F5F5F5" height="10.12" id="svg_44" width="24.84" x="333.62" y="393.93"/>
      <rect fill="#F5F5F5" height="10.12" id="svg_45" width="24.84" x="306.61" y="393.93"/>
      <rect fill="#F5F5F5" height="10.12" id="svg_46" width="24.84" x="279.6" y="393.93"/>
      <rect fill="#F5F5F5" height="10.12" id="svg_47" width="24.84" x="252.59" y="393.93"/>
      <rect fill="#F5F5F5" height="10.12" id="svg_48" width="24.84" x="225.58" y="393.93"/>
      <rect fill="#F5F5F5" height="10.12" id="svg_49" width="24.84" x="198.57" y="393.93"/>
      <rect fill="#F5F5F5" height="10.12" id="svg_50" width="24.84" x="171.56" y="393.93"/>
      <rect fill="#F5F5F5" height="10.12" id="svg_51" width="24.84" x="144.55" y="393.93"/>
      <rect fill="#F5F5F5" height="10.12" id="svg_52" width="24.84" x="117.54" y="393.93"/>
      <rect fill="#F5F5F5" height="10.12" id="svg_53" width="24.84" x="90.53" y="393.93"/>
      <rect fill="#F5F5F5" height="10.12" id="svg_54" width="24.84" x="63.52" y="393.93"/>
      <rect fill="#F5F5F5" height="10.12" id="svg_55" width="24.84" x="36.51" y="393.93"/>
      <rect fill="#F5F5F5" height="10.12" id="svg_56" width="24.84" x="428.15" y="381.25"/>
      <rect fill="#F5F5F5" height="10.12" id="svg_57" width="11.33" x="455.16" y="381.25"/>
      <rect fill="#F5F5F5" height="10.12" id="svg_58" width="24.84" x="401.14" y="381.25"/>
      <rect fill="#F5F5F5" height="10.12" id="svg_59" width="24.84" x="374.13" y="381.25"/>
      <rect fill="#F5F5F5" height="10.12" id="svg_60" width="24.84" x="347.12" y="381.25"/>
      <rect fill="#F5F5F5" height="10.12" id="svg_61" width="24.84" x="320.11" y="381.25"/>
      <rect fill="#F5F5F5" height="10.12" id="svg_62" width="24.84" x="293.1" y="381.25"/>
      <rect fill="#F5F5F5" height="10.12" id="svg_63" width="24.84" x="266.09" y="381.25"/>
      <rect fill="#F5F5F5" height="10.12" id="svg_64" width="24.84" x="239.08" y="381.25"/>
      <rect fill="#F5F5F5" height="10.12" id="svg_65" width="24.84" x="212.07" y="381.25"/>
      <rect fill="#F5F5F5" height="10.12" id="svg_66" width="24.84" x="185.06" y="381.25"/>
      <rect fill="#F5F5F5" height="10.12" id="svg_67" width="24.84" x="158.05" y="381.25"/>
      <rect fill="#F5F5F5" height="10.12" id="svg_68" width="24.84" x="131.04" y="381.25"/>
      <rect fill="#F5F5F5" height="10.12" id="svg_69" width="24.84" x="104.03" y="381.25"/>
      <rect fill="#F5F5F5" height="10.12" id="svg_70" width="24.84" x="77.02" y="381.25"/>
      <rect fill="#F5F5F5" height="10.12" id="svg_71" width="24.84" x="50.01" y="381.25"/>
      <rect fill="#F5F5F5" height="10.12" id="svg_72" width="11.33" x="36.51" y="381.25"/>
      <rect fill="#F5F5F5" height="10.12" id="svg_73" width="24.84" x="441.65" y="368.57"/>
      <rect fill="#F5F5F5" height="10.12" id="svg_74" width="24.84" x="414.64" y="368.57"/>
      <rect fill="#F5F5F5" height="10.12" id="svg_75" width="24.84" x="387.63" y="368.57"/>
      <rect fill="#F5F5F5" height="10.12" id="svg_76" width="24.84" x="360.62" y="368.57"/>
      <rect fill="#F5F5F5" height="10.12" id="svg_77" width="24.84" x="333.62" y="368.57"/>
      <rect fill="#F5F5F5" height="10.12" id="svg_78" width="24.84" x="306.61" y="368.57"/>
      <rect fill="#F5F5F5" height="10.12" id="svg_79" width="24.84" x="279.6" y="368.57"/>
      <rect fill="#F5F5F5" height="10.12" id="svg_80" width="24.84" x="252.59" y="368.57"/>
      <rect fill="#F5F5F5" height="10.12" id="svg_81" width="24.84" x="225.58" y="368.57"/>
      <rect fill="#F5F5F5" height="10.12" id="svg_82" width="24.84" x="198.57" y="368.57"/>
      <rect fill="#F5F5F5" height="10.12" id="svg_83" width="24.84" x="171.56" y="368.57"/>
      <rect fill="#F5F5F5" height="10.12" id="svg_84" width="24.84" x="144.55" y="368.57"/>
      <rect fill="#F5F5F5" height="10.12" id="svg_85" width="24.84" x="117.54" y="368.57"/>
      <rect fill="#F5F5F5" height="10.12" id="svg_86" width="24.84" x="90.53" y="368.57"/>
      <rect fill="#F5F5F5" height="10.12" id="svg_87" width="24.84" x="63.52" y="368.57"/>
      <rect fill="#F5F5F5" height="10.12" id="svg_88" width="24.84" x="36.51" y="368.57"/>
      <rect fill="#F5F5F5" height="10.12" id="svg_89" width="24.84" x="428.15" y="355.89"/>
      <rect fill="#F5F5F5" height="10.12" id="svg_90" width="11.33" x="455.16" y="355.89"/>
      <rect fill="#F5F5F5" height="10.12" id="svg_91" width="24.84" x="401.14" y="355.89"/>
      <rect fill="#F5F5F5" height="10.12" id="svg_92" width="24.84" x="374.13" y="355.89"/>
      <rect fill="#F5F5F5" height="10.12" id="svg_93" width="24.84" x="347.12" y="355.89"/>
      <rect fill="#F5F5F5" height="10.12" id="svg_94" width="24.84" x="320.11" y="355.89"/>
      <rect fill="#F5F5F5" height="10.12" id="svg_95" width="24.84" x="293.1" y="355.89"/>
      <rect fill="#F5F5F5" height="10.12" id="svg_96" width="24.84" x="266.09" y="355.89"/>
      <rect fill="#F5F5F5" height="10.12" id="svg_97" width="24.84" x="239.08" y="355.89"/>
      <rect fill="#F5F5F5" height="10.12" id="svg_98" width="24.84" x="212.07" y="355.89"/>
      <rect fill="#F5F5F5" height="10.12" id="svg_99" width="24.84" x="185.06" y="355.89"/>
      <rect fill="#F5F5F5" height="10.12" id="svg_100" width="24.84" x="158.05" y="355.89"/>
      <rect fill="#F5F5F5" height="10.12" id="svg_101" width="24.84" x="131.04" y="355.89"/>
      <rect fill="#F5F5F5" height="10.12" id="svg_102" width="24.84" x="104.03" y="355.89"/>
      <rect fill="#F5F5F5" height="10.12" id="svg_103" width="24.84" x="77.02" y="355.89"/>
      <rect fill="#F5F5F5" height="10.12" id="svg_104" width="24.84" x="50.01" y="355.89"/>
      <rect fill="#F5F5F5" height="10.12" id="svg_105" width="11.33" x="36.51" y="355.89"/>
      <rect fill="#F5F5F5" height="10.12" id="svg_106" width="24.84" x="441.65" y="343.21"/>
      <rect fill="#F5F5F5" height="10.12" id="svg_107" width="24.84" x="414.64" y="343.21"/>
      <rect fill="#F5F5F5" height="10.12" id="svg_108" width="24.84" x="387.63" y="343.21"/>
      <rect fill="#F5F5F5" height="10.12" id="svg_109" width="24.84" x="360.62" y="343.21"/>
      <rect fill="#F5F5F5" height="10.12" id="svg_110" width="24.84" x="333.62" y="343.21"/>
      <rect fill="#F5F5F5" height="10.12" id="svg_111" width="24.84" x="306.61" y="343.21"/>
      <rect fill="#F5F5F5" height="10.12" id="svg_112" width="24.84" x="279.6" y="343.21"/>
      <rect fill="#F5F5F5" height="10.12" id="svg_113" width="24.84" x="252.59" y="343.21"/>
      <rect fill="#F5F5F5" height="10.12" id="svg_114" width="24.84" x="225.58" y="343.21"/>
      <rect fill="#F5F5F5" height="10.12" id="svg_115" width="24.84" x="198.57" y="343.21"/>
      <rect fill="#F5F5F5" height="10.12" id="svg_116" width="24.84" x="171.56" y="343.21"/>
      <rect fill="#F5F5F5" height="10.12" id="svg_117" width="24.84" x="144.55" y="343.21"/>
      <rect fill="#F5F5F5" height="10.12" id="svg_118" width="24.84" x="117.54" y="343.21"/>
      <rect fill="#F5F5F5" height="10.12" id="svg_119" width="24.84" x="90.53" y="343.21"/>
      <rect fill="#F5F5F5" height="10.12" id="svg_120" width="24.84" x="63.52" y="343.21"/>
      <rect fill="#F5F5F5" height="10.12" id="svg_121" width="24.84" x="36.51" y="343.21"/>
     </g>
    </g>
   </g>
   <g display="none" id="Background_Simple">
    <g display="inline" id="svg_122">
     <path d="m63.97,108.68c32.11,-70.46 146.12,-60.52 190.12,-10.96c44,49.54 58.3,81.3 97.99,62.79c39.69,-18.51 90.3,-13.56 93.2,45.23c2.9,58.8 -43.6,128.32 -117.4,148.88c-73.81,20.56 -73.78,93.34 -171.46,78.66c-53.26,-8.01 -54.48,-67.39 -46.95,-116.5c7.53,-49.11 -82.72,-126.38 -45.48,-208.09z" fill="#407BFF" id="svg_123"/>
     <path d="m63.97,108.68c32.11,-70.46 146.12,-60.52 190.12,-10.96c44,49.54 58.3,81.3 97.99,62.79c39.69,-18.51 90.3,-13.56 93.2,45.23c2.9,58.8 -43.6,128.32 -117.4,148.88c-73.81,20.56 -73.78,93.34 -171.46,78.66c-53.26,-8.01 -54.48,-67.39 -46.95,-116.5c7.53,-49.11 -82.72,-126.38 -45.48,-208.09z" fill="#FFFFFF" id="svg_124" opacity="0.9"/>
    </g>
   </g>
   <g id="Shadow_1_">
    <ellipse cx="251.5" cy="456.14" fill="#F5F5F5" id="_x3C_Path_x3E__359_" rx="222.97" ry="13.42"/>
   </g>
   <g id="Speech_bubble_2">
    <g id="svg_125">
     <ellipse cx="276.86" cy="197.09" fill="#407BFF" id="svg_126" rx="17.95" ry="17.95" transform="matrix(0.813165 -0.838041 0.813165 0.838041 -100.46 202.638)"/>
     <g id="svg_127">
      <path d="m282.46,145.24c0,-1.37 1.06,-2.45 2.52,-2.45c1.43,0 2.45,1.08 2.45,2.45c0,1.37 -1.02,2.5 -2.45,2.5c-1.46,0 -2.52,-1.13 -2.52,-2.5zm0.22,-20.11l4.59,0l-0.77,14.97l-3.07,0l-0.75,-14.97z" fill="#FFFFFF" id="svg_128"/>
     </g>
     <polygon fill="#407BFF" id="svg_129" points="289.1441345214844,153.84808349609375 296.47076416015625,161.53160095214844 294.7963562011719,151.1505889892578 "/>
    </g>
   </g>
   <g id="Speech_bubble_1">
    <g id="svg_130">
     <ellipse cx="220.46" cy="225.23" fill="#407BFF" id="svg_131" rx="17.95" ry="17.95" transform="matrix(0.813165 -0.838041 0.813165 0.838041 -142.339 165.139)"/>
     <g id="svg_132">
      <path d="m223.41,165.11c0,-1.61 -1.33,-2.7 -3.48,-2.7c-2.07,0 -3.58,0.81 -4.55,2.22l-2.7,-1.81c1.56,-2.19 4.07,-3.51 7.57,-3.51c4.11,0 6.84,1.93 6.84,5.24c0,4.69 -4.78,5.12 -4.78,8.51l-3.54,0c0,-4.25 4.66,-5.06 4.66,-7.94zm-5.11,12.57c0,-1.23 0.92,-2.2 2.23,-2.2c1.29,0 2.21,0.97 2.21,2.2c0,1.24 -0.92,2.25 -2.21,2.25c-1.31,0 -2.23,-1.01 -2.23,-2.25z" fill="#FFFFFF" id="svg_133"/>
     </g>
     <polygon fill="#407BFF" id="svg_134" points="215.8799285888672,187.19667053222656 208.55328369140625,194.88136291503906 210.2276611328125,184.5003662109375 "/>
    </g>
   </g>
   <g id="Character_2">
    <g id="svg_135">
     <g id="svg_136">
      <path d="m324,446.25l8.77,-0.25c0.33,0 0.62,0.23 0.71,0.55l1.84,7.29c0.2,0.76 -0.34,1.49 -1.1,1.51c-3.17,0.04 -7.76,-0.04 -11.74,0.08c-4.66,0.12 -7.61,-0.11 -13.08,0.04c-3.3,0.09 -4.34,-3.31 -2.97,-3.65c6.24,-1.59 10.33,-1.27 15.64,-4.86c0.57,-0.39 1.22,-0.68 1.92,-0.7z" fill="#263238" id="svg_137"/>
      <g id="svg_138" opacity="0.4">
       <path d="m324,446.25l8.77,-0.25c0.33,0 0.62,0.23 0.71,0.55l1.84,7.29c0.2,0.76 -0.34,1.49 -1.1,1.51c-3.17,0.04 -7.76,-0.04 -11.74,0.08c-4.66,0.12 -7.61,-0.11 -13.08,0.04c-3.3,0.09 -4.34,-3.31 -2.97,-3.65c6.24,-1.59 10.33,-1.27 15.64,-4.86c0.57,-0.39 1.22,-0.68 1.92,-0.7z" fill="#FFFFFF" id="svg_139"/>
      </g>
     </g>
     <g id="svg_140">
      <path d="m369.82,446.25l8.79,-0.25c0.32,0 0.62,0.23 0.7,0.55l1.85,7.29c0.18,0.76 -0.36,1.49 -1.12,1.51c-3.16,0.04 -7.75,-0.04 -11.73,0.08c-4.66,0.12 -7.62,-0.11 -13.08,0.04c-3.3,0.09 -4.34,-3.31 -2.97,-3.65c6.24,-1.59 10.32,-1.27 15.64,-4.86c0.57,-0.39 1.22,-0.68 1.91,-0.7z" fill="#263238" id="svg_141"/>
      <g id="svg_142" opacity="0.4">
       <path d="m369.82,446.25l8.79,-0.25c0.32,0 0.62,0.23 0.7,0.55l1.85,7.29c0.18,0.76 -0.36,1.49 -1.12,1.51c-3.16,0.04 -7.75,-0.04 -11.73,0.08c-4.66,0.12 -7.62,-0.11 -13.08,0.04c-3.3,0.09 -4.34,-3.31 -2.97,-3.65c6.24,-1.59 10.32,-1.27 15.64,-4.86c0.57,-0.39 1.22,-0.68 1.91,-0.7z" fill="#FFFFFF" id="svg_143"/>
      </g>
     </g>
     <path d="m359.97,267.23c6.73,18.09 20.17,178.76 20.17,178.76l-13.8,1.54l-23.28,-133.82l-7.65,132.46l-13.64,-0.13c-3.25,-96.31 -1.24,-159.82 -1.24,-159.82l-1,-7.16l40.43,-11.83z" fill="#263238" id="svg_144"/>
     <g id="svg_145">
      <path d="m359.84,266.98c-5.92,1.73 -28.26,8.27 -40.43,11.83c-20.94,-41.15 -18.41,-64.96 -18.41,-64.96s7.15,-5.25 14.94,-9.67c13.25,-7.51 24.92,-12.34 24.92,-12.34c0.3,3.67 1.06,8.45 2.01,13.39c0.82,4.34 1.77,8.81 2.66,12.78c0.64,2.83 1.24,5.43 1.72,7.53c1.41,6.14 3.02,11.91 4.6,17.09c3.69,12.15 7.22,21.14 7.99,24.36z" fill="#407BFF" id="svg_146"/>
     </g>
     <g id="svg_147">
      <path d="m324.95,199.79c0,0 -6.46,10.63 -9.18,11.59c-1.91,0.68 -5.77,-1.51 -5.77,-1.51c1.14,-1.24 1.82,-2.43 2.13,-3.54c0.95,-3.34 -1.25,-6.16 -3.81,-8.55l3.97,-14.21c0.9,2.23 2.23,5.11 3.86,7.82c0,0.01 0,0.01 0,0.01c2.41,4.07 5.51,7.76 8.8,8.38z" fill="#E4897B" id="svg_148"/>
      <path d="m316.15,191.4c0,0.01 0,0.01 0,0.01c0.9,5.24 0.77,11.7 -4.02,14.92c0.95,-3.34 -1.25,-6.16 -3.81,-8.55l3.98,-14.21c0.9,2.22 2.23,5.11 3.85,7.82z" id="svg_149" opacity="0.2"/>
     </g>
     <g id="svg_150">
      <g id="svg_151">
       <path d="m315.77,211.38c0,0 2.9,1.26 6.09,2.31c2.3,-3.18 7.41,-11.14 5.14,-14.91c-0.98,-0.92 -4.25,-0.15 -4.25,-0.15s-1.12,5.89 -6.98,12.75z" fill="#407BFF" id="svg_152"/>
      </g>
      <g id="svg_153">
       <path d="m315.77,211.38c0,0 -1.47,3.15 -1.85,6.39c-2.99,-0.34 -5.4,-8.27 -4.97,-9.52c1.25,-2.03 3.38,-3.05 3.38,-3.05s0.01,4.17 3.44,6.17z" fill="#407BFF" id="svg_154"/>
      </g>
      <g id="svg_155" opacity="0.5">
       <g id="svg_156">
        <path d="m315.77,211.38c0,0 2.9,1.26 6.09,2.31c2.3,-3.18 7.41,-11.14 5.14,-14.91c-0.98,-0.92 -4.25,-0.15 -4.25,-0.15s-1.12,5.89 -6.98,12.75z" fill="#FFFFFF" id="svg_157"/>
       </g>
       <g id="svg_158">
        <path d="m315.77,211.38c0,0 -1.47,3.15 -1.85,6.39c-2.99,-0.34 -5.4,-8.27 -4.97,-9.52c1.25,-2.03 3.38,-3.05 3.38,-3.05s0.01,4.17 3.44,6.17z" fill="#FFFFFF" id="svg_159"/>
       </g>
      </g>
     </g>
     <path d="m341.96,340.46l1.09,-26.74l-2.77,-13.67c0,0 -3.12,24.84 1.68,40.4z" id="svg_160" opacity="0.2"/>
     <g id="svg_161">
      <path d="m292.99,178.47c-0.51,3.43 1.05,10.05 5.15,7.16c4.11,-2.88 -4.28,-13.05 -5.15,-7.16z" fill="#263238" id="svg_162"/>
      <path d="m316.5,179.24c1.75,8.32 3.19,13.11 0.31,18.43c-4.34,8.01 -15.2,7.02 -19.33,-0.63c-3.73,-6.87 -5.96,-19.32 0.95,-24.76c6.81,-5.36 16.32,-1.36 18.07,6.96z" fill="#E4897B" id="svg_163"/>
      <path d="m306.18,184.9c0.18,0.66 -0.01,1.3 -0.44,1.42c-0.43,0.12 -0.92,-0.32 -1.1,-1c-0.17,-0.66 0.02,-1.29 0.45,-1.41c0.41,-0.13 0.91,0.32 1.09,0.98z" fill="#263238" id="svg_164"/>
      <path d="m298.85,186.95c0.18,0.66 -0.01,1.3 -0.44,1.42c-0.43,0.12 -0.92,-0.32 -1.1,-1c-0.18,-0.66 0.01,-1.29 0.44,-1.41c0.43,-0.12 0.92,0.32 1.1,0.98z" fill="#263238" id="svg_165"/>
      <path d="m300.11,186.63c0,0 -0.49,4.12 -1.64,6.38c1.41,0.72 3.23,-0.32 3.23,-0.32l-1.59,-6.06z" fill="#DE5753" id="svg_166"/>
      <path d="m306.63,181.85c-0.13,0.05 -0.28,0.04 -0.4,-0.06c-1.4,-1.1 -2.78,-0.63 -2.79,-0.63c-0.21,0.08 -0.44,-0.04 -0.51,-0.25c-0.08,-0.2 0.03,-0.44 0.24,-0.51c0.07,-0.02 1.79,-0.63 3.54,0.75c0.17,0.13 0.21,0.39 0.08,0.57c-0.05,0.06 -0.1,0.09 -0.16,0.13z" fill="#263238" id="svg_167"/>
      <path d="m293.82,185.25c-0.07,0.04 -0.15,0.04 -0.23,0.02c-0.21,-0.04 -0.36,-0.25 -0.31,-0.47c0.38,-2.2 2.06,-2.93 2.13,-2.96c0.21,-0.09 0.44,0.01 0.53,0.21c0.08,0.21 -0.01,0.45 -0.22,0.53c-0.07,0.02 -1.35,0.59 -1.67,2.37c-0.02,0.14 -0.11,0.25 -0.23,0.3z" fill="#263238" id="svg_168"/>
      <path d="m302.27,176.12c0,0 1.78,-2.23 3.23,-0.76c1.45,1.46 2.6,6.14 2.6,6.14l0.23,-0.95c0,0 5.53,9.59 8.95,5.84c3.43,-3.75 6.72,-15.94 -4.27,-18.65c0,0 -1.67,-2.23 -8.33,-1.71c-6.66,0.52 -13.26,6.66 -13.45,11.34c-0.18,4.67 2.28,6.57 2.28,6.57c-0.06,-1.66 0.55,-2.89 0.55,-2.89c0.52,1.35 2.1,1.55 2.1,1.55c-0.48,-1.69 -0.15,-2.69 -0.15,-2.69c0.36,0.89 1.6,1.78 1.6,1.78c-0.7,-4.56 2,-6.28 2.93,-6.51c1.15,-0.27 1.72,0.94 1.72,0.94z" fill="#263238" id="svg_169"/>
      <path d="m321.43,185.16c-0.06,2.29 -1.15,4.34 -2.51,5.59c-2.04,1.91 -4.3,0.33 -4.78,-2.31c-0.43,-2.38 0.11,-6.23 2.66,-7.12c2.52,-0.88 4.7,1.22 4.63,3.84z" fill="#E4897B" id="svg_170"/>
      <path d="m303.02,196.17c-0.11,0 -0.23,-0.07 -0.26,-0.19c-0.06,-0.15 0.02,-0.32 0.17,-0.38c0.03,-0.01 3.6,-1.39 4.06,-4.78c0.02,-0.17 0.17,-0.27 0.32,-0.25c0.16,0.01 0.26,0.17 0.24,0.33c-0.51,3.75 -4.27,5.19 -4.43,5.25c-0.03,0.01 -0.07,0.01 -0.1,0.01z" fill="#263238" id="svg_171"/>
     </g>
     <polygon fill="#263238" id="svg_172" points="319.8341369628906,281.2098693847656 318.41851806640625,276.8353576660156 359.578125,264.36962890625 361.2893371582031,272.14678955078125 "/>
     <g id="svg_173">
      <polygon id="svg_174" points="321.9133605957031,277.0250244140625 322.6228942871094,279.4676513671875 319.3166809082031,280.3707275390625 318.5760498046875,277.95660400390625 "/>
      <polygon id="svg_175" points="344.9375305175781,270.6143493652344 345.6758117675781,273.1826477050781 324.1121520996094,279.0635070800781 323.4002990722656,276.61016845703125 "/>
      <polygon id="svg_176" points="360.8673095703125,269.0380554199219 347.1754455566406,272.7772521972656 346.4256286621094,270.2102355957031 360.2497863769531,266.35833740234375 "/>
      <path d="m331.89,277.22c-0.46,0 -0.9,-0.31 -1.06,-0.78l-0.28,-0.84l0,0c-0.1,-0.3 -0.08,-0.63 0.07,-0.91c0.14,-0.27 0.39,-0.49 0.69,-0.57l3.62,-1.01c0.29,-0.08 0.6,-0.05 0.85,0.12c0.26,0.15 0.45,0.39 0.52,0.7l0.23,0.88c0.08,0.3 0.03,0.6 -0.11,0.88c-0.15,0.26 -0.39,0.45 -0.68,0.52l-3.56,0.97c-0.1,0.04 -0.2,0.05 -0.29,0.05zm-0.79,-1.81l0.29,0.84c0.08,0.27 0.37,0.43 0.64,0.36l3.56,-0.97c0.14,-0.04 0.26,-0.13 0.33,-0.26c0.07,-0.13 0.09,-0.27 0.06,-0.41l-0.23,-0.89c-0.03,-0.14 -0.13,-0.26 -0.25,-0.33c-0.13,-0.08 -0.26,-0.09 -0.4,-0.06l-3.63,1.01c-0.15,0.05 -0.26,0.14 -0.33,0.27c-0.07,0.14 -0.08,0.3 -0.03,0.45l0,0z" fill="#FFFFFF" id="svg_177"/>
      <path d="m334.25,275.19c-0.13,0 -0.24,-0.08 -0.28,-0.23c-0.03,-0.15 0.06,-0.32 0.21,-0.36l1.13,-0.31c0.16,-0.04 0.31,0.06 0.36,0.21c0.03,0.17 -0.06,0.32 -0.21,0.37l-1.13,0.3c-0.02,0.01 -0.05,0.01 -0.08,0.01z" fill="#FFFFFF" id="svg_178"/>
     </g>
     <path d="m319.65,155.71l2.64,-1.05c1,-0.4 2.12,-0.28 3.01,0.32l4.17,2.82c1.68,1.13 2.71,3.02 2.79,5.07l0.05,1.28c-4.28,2.07 -10.38,1.07 -10.38,1.07l-1.77,-0.09c-1.58,-0.07 -2.75,-1.34 -2.69,-2.92l0.11,-3.61c0.05,-1.26 0.86,-2.39 2.06,-2.88z" fill="#E4897B" id="svg_179"/>
     <path d="m345.67,218.94c-4.12,-3.78 -7.39,-11.66 -7.39,-11.66c1.64,-1.22 3.25,-1.49 4.74,-1.11c0.82,4.34 1.77,8.81 2.66,12.78z" id="svg_180" opacity="0.2"/>
     <path d="m335.05,196.22c4.83,-2.67 10.76,-5.57 14.16,-9.85c0.01,0 0.06,0.33 0.07,0.25c-0.17,-0.96 -0.84,-1.96 -1.55,-3.02c-5.68,-7.51 -13.34,-13.71 -20.4,-19.91c0,0 2.94,-4.65 2.94,-4.65c8.99,5.13 17.69,10.62 24.74,18.56c11.74,12.87 -4.92,23.86 -15.42,28.81c0,0 -4.53,-10.19 -4.53,-10.19l0,0z" fill="#DC897C" id="svg_181"/>
     <polyline fill="#407BFF" id="svg_182" points="330.3382568359375,197.5444793701172 338.19854736328125,213.84068298339844 352.479248046875,205.2066650390625 347.77801513671875,187.33058166503906 329.6195068359375,197.5444793701172 "/>
     <g id="svg_183">
      <path d="m309.94,224.9c-3.76,7.45 -7.6,15.27 -10.27,23.19c-0.99,3.02 -1.77,5.81 -1.66,8.32c-0.29,-0.49 -1.13,-1.2 -1.64,-1.13c2.36,0.09 5.27,-1.46 7.61,-2.49c4.89,-2.37 9.86,-5.31 14.7,-8.24l3.31,4.37c-6.05,5.72 -23.48,22.28 -31.54,13.83c-7.88,-8.89 5.24,-34.17 9.98,-43.31c0,0 9.51,5.44 9.51,5.44l0,0z" fill="#DC897C" id="svg_184"/>
      <g id="svg_185">
       <path d="m315.87,248.84l-0.1,-10.77l9.05,1.42c0,0 1.09,7.53 -4.2,10.64l-4.75,-1.29z" fill="#E4897B" id="svg_186"/>
       <polygon fill="#E4897B" id="svg_187" points="319.20281982421875,231.25926208496094 325.6957092285156,233.98045349121094 324.80908203125,239.4879913330078 320.3355407714844,241.9969940185547 315.7688903808594,238.06814575195312 "/>
      </g>
      <path d="m310.44,231.94l-2.81,4.88c0,0 0,0 0,0.01l-1.97,3.44l-3.55,6.19l-13.37,-6.46c0,0 4.82,-18.05 12.27,-26.16c-0.01,0 15.63,10.84 9.43,18.1z" fill="#407BFF" id="svg_188"/>
     </g>
    </g>
   </g>
   <g id="Character_1">
    <g id="svg_189">
     <path d="m181.44,246.73c-1.79,-5.38 -4.71,-17.84 0,-32.44c4.73,-14.6 14.12,-12.78 14.12,-12.78s4.04,-6.47 10.28,-3.37s17.47,11.6 11.41,26.81c-6.07,15.22 -4.92,18.18 -2.76,22.72c2.15,4.53 -2.43,8.05 -2.27,11.52c0.17,3.48 1.79,4.46 1.79,4.46s-14.72,7.4 -32.71,-1.79c0,0 2.25,-8.77 0.13,-15.13z" fill="#263238" id="svg_190"/>
     <path d="m155.23,329.15c0,0 -0.17,1.4 -0.51,3.95c-0.25,1.96 -0.61,4.6 -1.06,7.8c-0.29,2.1 -0.62,4.44 -0.99,7c-0.02,0.15 -0.03,0.31 -0.06,0.49c-0.47,3.24 -1.01,6.81 -1.59,10.64c-3.77,24.69 -9.83,60.09 -17.34,88.07l-5.3,-0.41c0,0 -1.61,-39.61 6.5,-65.47l0.49,-22.19l0.18,-8.27l0.05,-2.38l0.17,-7.09l0.11,-5.06l0.18,-8.26l19.15,1.19z" fill="#EBB376" id="svg_191"/>
     <path d="m136.09,327.97l19.15,1.19c0,0 -0.17,1.4 -0.51,3.95c-0.25,1.96 -0.61,4.6 -1.06,7.8l-17.88,0.39l0.11,-5.06l0.18,-8.26z" enable-background="new" id="svg_192" opacity="0.2"/>
     <g id="svg_193">
      <path d="m127.4,444.96c0.01,-0.69 8.18,-0.15 8.18,-0.15s5.04,5.27 9.91,6.46c4.89,1.19 2.15,4.21 -3.3,4.21c-5.46,0 -9.63,0 -13.5,0c-3.88,0 -1.46,-3.41 -1.29,-10.51z" fill="#263238" id="svg_194"/>
      <g id="svg_195">
       <path d="m139.88,446.96c-1.14,0 -2.96,-0.85 -3.38,-1.07c-0.03,-0.01 -0.06,-0.04 -0.08,-0.06l0,0l0,0c-0.01,-0.01 -0.01,-0.02 -0.02,-0.04c-0.02,-0.06 -0.03,-0.12 -0.01,-0.18c0.03,-0.08 0.71,-2.05 1.83,-2.52c0.34,-0.15 0.7,-0.14 1.06,0.04c0.37,0.18 0.55,0.41 0.53,0.7c-0.02,0.45 -0.6,0.89 -1.26,1.26c0.69,-0.07 1.39,-0.05 1.83,0.2c0.23,0.14 0.38,0.33 0.44,0.57c0.13,0.51 -0.03,0.77 -0.2,0.9c-0.17,0.14 -0.43,0.2 -0.72,0.2zm-2.63,-1.21c1.2,0.53 2.7,1 3.08,0.66c0.03,-0.02 0.14,-0.11 0.06,-0.44c-0.03,-0.13 -0.11,-0.23 -0.24,-0.3c-0.59,-0.34 -1.99,-0.13 -2.9,0.07zm1.46,-2.31c-0.11,0 -0.22,0.02 -0.33,0.07c-0.6,0.26 -1.12,1.17 -1.4,1.8c1.22,-0.47 2.38,-1.13 2.4,-1.51c0,-0.12 -0.18,-0.23 -0.29,-0.27c-0.13,-0.07 -0.25,-0.09 -0.38,-0.09z" fill="#407BFF" id="svg_196"/>
      </g>
     </g>
     <path d="m178.65,446.99l-5.28,0.52c0,0 -8.14,-38.74 -4.42,-65.65l-2.67,-18.5l-1.58,-10.86l-0.28,-1.88l-1.43,-9.93l-0.94,-6.53l-0.72,-4.98l19.07,-2.18c0,0 0.07,1.43 0.16,4.07c0.07,2.26 0.17,5.4 0.28,9.24c0.07,2.29 0.13,4.8 0.18,7.54c0.03,1.49 0.06,3.03 0.09,4.65c0.07,3.39 0.13,7.03 0.16,10.87c0.25,24.5 -0.07,57.05 -2.63,83.63z" fill="#EBB376" id="svg_197"/>
     <path d="m180.84,340.32l-17.84,0.38l-0.94,-6.53l-0.72,-4.98l19.07,-2.18c0,0 0.07,1.43 0.16,4.07c0.07,2.26 0.17,5.4 0.28,9.24z" enable-background="new" id="svg_198" opacity="0.2"/>
     <g id="svg_199">
      <path d="m171.99,444.96c0.01,-0.69 8.19,-0.15 8.19,-0.15s5.03,5.27 9.9,6.46c4.89,1.19 2.16,4.21 -3.3,4.21c-5.45,0 -9.63,0 -13.5,0c-3.88,0 -1.45,-3.41 -1.29,-10.51z" fill="#263238" id="svg_200"/>
      <g id="svg_201">
       <path d="m184.48,446.96c-1.15,0 -2.97,-0.85 -3.39,-1.07c-0.02,-0.01 -0.06,-0.04 -0.07,-0.06l0,0l0,0c-0.01,-0.01 -0.02,-0.02 -0.03,-0.04c-0.02,-0.06 -0.02,-0.12 0,-0.18c0.02,-0.08 0.71,-2.05 1.82,-2.52c0.36,-0.15 0.71,-0.14 1.06,0.04c0.37,0.18 0.55,0.41 0.54,0.7c-0.02,0.45 -0.61,0.89 -1.28,1.26c0.69,-0.07 1.4,-0.05 1.83,0.2c0.23,0.14 0.38,0.33 0.44,0.57c0.13,0.51 -0.03,0.77 -0.2,0.9c-0.17,0.14 -0.43,0.2 -0.71,0.2zm-2.64,-1.21c1.21,0.53 2.7,1 3.08,0.66c0.03,-0.02 0.14,-0.11 0.06,-0.44c-0.03,-0.13 -0.1,-0.23 -0.23,-0.3c-0.59,-0.34 -1.99,-0.13 -2.91,0.07zm1.46,-2.31c-0.1,0 -0.22,0.02 -0.33,0.07c-0.6,0.26 -1.12,1.17 -1.39,1.8c1.21,-0.47 2.37,-1.13 2.39,-1.51c0.01,-0.12 -0.17,-0.23 -0.29,-0.27c-0.13,-0.07 -0.25,-0.09 -0.38,-0.09z" fill="#407BFF" id="svg_202"/>
      </g>
     </g>
     <path d="m195.02,252.81c-1.63,2.54 -13.05,22.02 -19.42,29.76l-30.81,-7.12c3.06,-3.86 10.76,-21.21 13.88,-27.91c1.03,-2.22 1.82,-4.81 2.86,-7.61c0.72,-1.96 1.59,-3.99 2.73,-6.08c0.21,-0.37 0.4,-0.73 0.61,-1.08c3.82,-6.6 6.96,-8.75 6.96,-8.75c7.44,3.45 15.72,6.79 19.16,9.8c1.14,1.01 2.29,2.07 3.37,3.12c0.74,0.72 1.32,1.56 1.77,2.5c1.93,4.03 1.28,9.66 -1.1,13.37z" fill="#407BFF" id="svg_203"/>
     <path d="m146.56,271.05c0,0 -15.82,25.11 -11.91,66.32l20.93,1.24l3.42,-20.27l1.15,20.33l21.3,-0.58c-0.97,-33.05 -4.23,-48.54 -4.23,-48.54l0.78,-11.01l-31.43,-7.49z" fill="#263238" id="svg_204"/>
     <g id="svg_205">
      <g id="svg_206" opacity="0.2">
       <polygon fill="#FFFFFF" id="svg_207" points="155.36117553710938,280.1182556152344 172.20062255859375,283.8598937988281 173.11141967773438,278.4448547363281 156.2777099609375,274.6688232421875 "/>
       <polygon fill="#FFFFFF" id="svg_208" points="154.79766845703125,274.3370056152344 146.3532257080078,272.4430847167969 144.67996215820312,277.7455749511719 153.88111877441406,279.7900085449219 "/>
       <polygon fill="#FFFFFF" id="svg_209" points="174.3982696533203,278.73284912109375 173.48863220214844,284.1455383300781 177.2686767578125,284.98590087890625 178.1771697998047,279.5814208984375 "/>
      </g>
      <g id="svg_210">
       <path d="m171.47,278.57c-0.33,-0.49 -0.84,-0.85 -1.39,-0.97l-3.98,-0.89c-1.02,-0.23 -1.93,0.37 -2.1,1.39l-0.43,2.52c-0.09,0.55 0.06,1.14 0.39,1.64c0.31,0.45 0.75,0.78 1.23,0.94c0.06,0.01 0.11,0.04 0.17,0.05l3.98,0.88c1.02,0.23 1.93,-0.37 2.09,-1.39l0.43,-2.51c0.09,-0.55 -0.05,-1.15 -0.39,-1.65zm-2.05,4.52l-3.98,-0.89c-0.28,-0.06 -0.51,-0.23 -0.68,-0.47c-0.16,-0.24 -0.23,-0.52 -0.18,-0.79l0.41,-2.51c0.09,-0.5 0.53,-0.78 1.02,-0.68l3.98,0.89c0.02,0.01 0.06,0.01 0.08,0.02c0.24,0.07 0.45,0.24 0.6,0.45c0.16,0.25 0.23,0.53 0.18,0.79l-0.07,0.38c-0.05,-0.02 -0.09,-0.05 -0.15,-0.06l-1.1,-0.26c-0.37,-0.08 -0.7,0.15 -0.74,0.52c-0.03,0.38 0.24,0.76 0.61,0.84l1.12,0.26c0.01,0.01 0.03,0 0.05,0l-0.14,0.83c-0.08,0.5 -0.52,0.78 -1.01,0.68z" fill="#FFFFFF" id="svg_211"/>
      </g>
     </g>
     <path d="m158.99,318.35c4.76,-6.85 8.25,-12.55 8.25,-12.55s-2.41,19.05 -7.1,32.88l-1.15,-20.33z" enable-background="new" id="svg_212" opacity="0.2"/>
     <path d="m194.63,219.77l-0.06,2.43l-0.2,9.37c-0.75,0.4 -1.47,0.85 -2.12,1.36c-0.1,0.08 -0.21,0.17 -0.3,0.25c-1.84,1.59 -0.24,3 -0.24,3s0,3.21 -5.35,6.78c-1.72,-9.9 -5.06,-13.81 -5.06,-13.81c2.08,0.25 5.51,-1.15 7.79,-3.19c0.17,-0.15 0.33,-0.3 0.49,-0.46c1.26,-1.17 2.46,-2.5 3.47,-3.75c0.59,-0.7 1.1,-1.39 1.56,-1.99z" fill="#EBB376" id="svg_213"/>
     <path d="m194.63,219.77l-0.06,2.43l-0.2,9.37c-0.75,0.4 -1.47,0.85 -2.12,1.36c-1.95,-2.1 -2.53,-5.25 -2.67,-7.43c1.26,-1.17 2.46,-2.5 3.47,-3.75c0.59,-0.7 1.1,-1.39 1.56,-1.99z" id="svg_214" opacity="0.2"/>
     <g id="svg_215">
      <path d="m206.26,206.24c6.95,3.61 7.31,8.6 4.21,16.25c-3.89,9.55 -9.07,15.08 -16.8,8.58c-10.49,-8.81 1.06,-30.84 12.59,-24.83z" fill="#EBB376" id="svg_216"/>
      <path d="m206.17,219.75c0,0 0.05,2.37 0.56,4.03c0,0 -1.07,0.66 -2.22,-0.15l1.66,-3.88z" fill="#D58745" id="svg_217"/>
      <g id="svg_218">
       <path d="m202.2,216.95c-0.28,0.6 -0.8,0.92 -1.2,0.73c-0.38,-0.19 -0.47,-0.82 -0.2,-1.41c0.28,-0.6 0.82,-0.92 1.2,-0.75c0.38,0.19 0.47,0.83 0.2,1.42z" fill="#263238" id="svg_219"/>
       <path d="m201.83,215.48l1.48,0.11c0,0.01 -1.13,0.79 -1.48,-0.11z" fill="#263238" id="svg_220"/>
      </g>
      <g id="svg_221">
       <path d="m209.43,220.35c-0.26,0.59 -0.8,0.92 -1.18,0.73c-0.39,-0.19 -0.48,-0.83 -0.21,-1.42c0.28,-0.59 0.82,-0.92 1.2,-0.73c0.39,0.19 0.47,0.83 0.2,1.42z" fill="#263238" id="svg_222"/>
       <path d="m209.07,218.88l1.49,0.11c0,0 -1.14,0.78 -1.49,-0.11z" fill="#263238" id="svg_223"/>
      </g>
      <path d="m204.56,212.3c-0.07,0 -0.13,-0.01 -0.18,-0.06c-0.01,-0.01 -1.7,-1.16 -3.23,-0.45c-0.16,0.07 -0.34,0 -0.43,-0.17c-0.07,-0.17 0,-0.37 0.16,-0.44c1.86,-0.87 3.78,0.45 3.86,0.51c0.14,0.11 0.18,0.31 0.08,0.46c-0.06,0.09 -0.16,0.14 -0.26,0.14z" fill="#263238" id="svg_224"/>
      <path d="m212.23,216.65c-0.1,0 -0.22,-0.06 -0.28,-0.17c-0.92,-1.67 -2.18,-1.85 -2.24,-1.86c-0.17,-0.02 -0.3,-0.19 -0.28,-0.37c0.02,-0.18 0.18,-0.3 0.36,-0.3c0.07,0.01 1.63,0.21 2.73,2.2c0.08,0.15 0.03,0.36 -0.13,0.45c-0.05,0.02 -0.1,0.04 -0.16,0.04z" fill="#263238" id="svg_225"/>
      <path d="m192.76,214.36c0,0 6.13,-4.2 7.87,-9c0,0 16.61,1.37 10.22,16.13c0,0 7.61,-12.09 -4.19,-18.6c-11.79,-6.48 -20.57,11.53 -17.03,20.11c0,0 -0.68,-6.02 3.13,-8.65z" fill="#263238" id="svg_226"/>
      <path d="m202.3,226.74c-0.02,0 -0.05,0 -0.07,0c-3.56,-0.73 -3.45,-4.24 -3.45,-4.28c0.01,-0.18 0.17,-0.31 0.33,-0.31c0.18,0 0.32,0.15 0.31,0.34c0,0.12 -0.08,2.97 2.93,3.59c0.17,0.04 0.29,0.2 0.25,0.39c-0.02,0.15 -0.16,0.26 -0.31,0.26z" fill="#263238" id="svg_227"/>
      <g id="svg_228">
       <g id="svg_229">
        <path d="m191.75,212.61c-0.05,0.09 -0.01,0.2 0.07,0.26c0.02,0.01 0.03,0.02 0.06,0.04l7.15,3.12c-0.47,1.36 -0.01,2.95 1.29,3.91c1.64,1.22 4,1 5.24,-0.51c0.13,-0.14 0.22,-0.3 0.31,-0.46c0.45,-0.19 0.79,-0.23 1.01,-0.11c0.28,0.15 0.31,0.5 0.31,0.52c-0.46,1.35 0,2.93 1.3,3.89c1.64,1.22 3.99,0.98 5.24,-0.51c1.24,-1.51 0.92,-3.71 -0.72,-4.93c-1.64,-1.22 -4,-1 -5.24,0.51c-0.13,0.14 -0.22,0.3 -0.31,0.46c-0.08,-0.12 -0.18,-0.24 -0.33,-0.32c-0.28,-0.14 -0.61,-0.17 -1,-0.07c0.48,-1.36 0.02,-2.94 -1.28,-3.91c-1.64,-1.21 -4,-0.98 -5.26,0.51c-0.16,0.19 -0.29,0.4 -0.4,0.62l-7.13,-3.12c-0.11,-0.05 -0.25,0 -0.31,0.11zm16.4,6c1.08,-1.32 3.14,-1.51 4.58,-0.44c1.44,1.07 1.72,3 0.63,4.3c-1.09,1.32 -3.15,1.52 -4.59,0.45c-1.44,-1.07 -1.71,-3 -0.62,-4.31zm-8.18,-3.32c1.09,-1.32 3.15,-1.52 4.59,-0.45c1.44,1.07 1.71,3 0.62,4.31c-1.08,1.3 -3.14,1.51 -4.58,0.44c-1.44,-1.07 -1.72,-3 -0.63,-4.3z" fill="#263238" id="svg_230"/>
       </g>
       <g id="svg_231" opacity="0.3">
        <path d="m191.75,212.61c-0.05,0.09 -0.01,0.2 0.07,0.26c0.02,0.01 0.03,0.02 0.06,0.04l7.15,3.12c-0.47,1.36 -0.01,2.95 1.29,3.91c1.64,1.22 4,1 5.24,-0.51c0.13,-0.14 0.22,-0.3 0.31,-0.46c0.45,-0.19 0.79,-0.23 1.01,-0.11c0.28,0.15 0.31,0.5 0.31,0.52c-0.46,1.35 0,2.93 1.3,3.89c1.64,1.22 3.99,0.98 5.24,-0.51c1.24,-1.51 0.92,-3.71 -0.72,-4.93c-1.64,-1.22 -4,-1 -5.24,0.51c-0.13,0.14 -0.22,0.3 -0.31,0.46c-0.08,-0.12 -0.18,-0.24 -0.33,-0.32c-0.28,-0.14 -0.61,-0.17 -1,-0.07c0.48,-1.36 0.02,-2.94 -1.28,-3.91c-1.64,-1.21 -4,-0.98 -5.26,0.51c-0.16,0.19 -0.29,0.4 -0.4,0.62l-7.13,-3.12c-0.11,-0.05 -0.25,0 -0.31,0.11zm16.4,6c1.08,-1.32 3.14,-1.51 4.58,-0.44c1.44,1.07 1.72,3 0.63,4.3c-1.09,1.32 -3.15,1.52 -4.59,0.45c-1.44,-1.07 -1.71,-3 -0.62,-4.31zm-8.18,-3.32c1.09,-1.32 3.15,-1.52 4.59,-0.45c1.44,1.07 1.71,3 0.62,4.31c-1.08,1.3 -3.14,1.51 -4.58,0.44c-1.44,-1.07 -1.72,-3 -0.63,-4.3z" fill="#FFFFFF" id="svg_232"/>
       </g>
      </g>
      <path d="m193.15,216.45c0.53,-1.17 0.32,-3.73 -1.87,-4.57c-2.27,-0.88 -5.52,3.14 -0.7,7.02c0.69,0.56 1.49,0.01 2.58,-2.44z" fill="#EBB376" id="svg_233"/>
     </g>
     <g id="svg_234">
      <path d="m197.65,245.75c3.83,9.11 7.2,17.51 8.62,27.64c0.83,5.67 -1.28,11.88 -8.08,10.87c-4.59,-0.85 -8.37,-3.76 -11.86,-6.53c-1.85,-1.49 -3.54,-3.09 -5.21,-4.84c-0.89,-0.92 -0.87,-2.42 0.02,-3.32c0.76,-0.77 1.9,-0.89 2.77,-0.34c5,2.63 9.81,6.01 15.16,6.84c0.24,0 0.36,-0.07 0.14,-0.06c-0.13,0.04 -0.25,0.04 -0.56,0.25c-0.31,0.23 -0.52,0.49 -0.6,0.63c-0.18,0.32 -0.11,0.23 -0.11,-0.01c-0.16,-4.82 -2.18,-10.04 -3.75,-14.73c-1.53,-4.2 -3.2,-8.49 -4.9,-12.6c-2.17,-5.72 5.73,-9.32 8.36,-3.79l0,0z" fill="#E9B376" id="svg_235"/>
      <g id="svg_236">
       <path d="m185.64,271.11l1.13,-8.37l-7.73,1.54c0,0 0.16,8.02 2.55,8.47l4.05,-1.65z" fill="#EBB376" id="svg_237"/>
       <polygon fill="#EBB376" id="svg_238" points="181.9940185546875,257.0013732910156 176.88687133789062,259.51275634765625 179.03506469726562,264.28314208984375 186.7699737548828,262.739990234375 "/>
      </g>
     </g>
     <path d="m204.2,261.73l-10.91,3.15l-0.91,-1.33l-3.65,-5.21l-1.97,-13.08l8.61,-7.1c6.28,5.74 8.82,23.57 8.82,23.57z" fill="#407BFF" id="svg_239"/>
     <path d="m192.38,263.55l-2.08,-2.99c2.47,-3.99 4.34,-8.28 4.34,-8.28s0.4,7.43 -2.25,11.27z" id="svg_240" opacity="0.2"/>
     <path d="m169.6,237.48c0,0 -4.13,3.51 -8.06,2.45c0.72,-1.96 1.59,-3.99 2.73,-6.08c0.21,-0.37 0.4,-0.73 0.61,-1.08c1.7,0.51 3.43,1.92 4.73,4.71z" id="svg_241" opacity="0.2"/>
     <g id="svg_242">
      <path d="m181.8,196.29l-1.69,-1.53c-0.63,-0.58 -1.49,-0.81 -2.32,-0.6l-3.84,0.92c-1.54,0.37 -2.82,1.48 -3.42,2.99l-0.37,0.94c2.63,2.74 7.43,3.7 7.43,3.7l1.33,0.43c1.2,0.39 2.4,-0.23 2.78,-1.41l0.86,-2.73c0.29,-0.94 -0.01,-2.01 -0.77,-2.7z" fill="#EBB376" id="svg_243"/>
      <path d="m167.31,232.32c-6.31,-4.91 -25.35,-19.34 -18.41,-28.56c1.87,-2.16 3.93,-2.87 6.12,-3.76c6.87,-2.44 13.83,-3.54 20.98,-4.28c2.68,-0.23 3.43,3.73 0.87,4.56c-6.9,2.55 -15.05,4.63 -21.27,8.49c-0.28,0.2 -0.47,0.45 -0.3,0.28c0.31,-0.34 0.4,-0.76 0.43,-0.91c3.7,6.41 11.1,11.73 16.93,16.55c4.75,3.78 -0.33,11.07 -5.34,7.63l0,0z" fill="#E9B376" id="svg_244"/>
     </g>
     <path d="m178.89,227.18l-16.34,-11.83l-5.37,13.62c0,0 4.78,7.91 10.88,8.64c6.11,0.73 10.83,-10.43 10.83,-10.43z" fill="#407BFF" id="svg_245"/>
    </g>
   </g>
   <g id="Wall_2">
    <g id="svg_246">
     <rect fill="#407BFF" height="404.11" id="svg_247" width="112.08" x="326.2" y="51.35"/>
     <rect fill="#FFFFFF" height="404.11" id="svg_248" opacity="0.5" width="112.08" x="326.2" y="51.35"/>
     <g id="svg_249">
      <g id="svg_250" opacity="0.3">
       <rect fill="#FFFFFF" height="10.25" id="svg_251" width="34.64" x="383.42" y="116.31"/>
       <rect fill="#FFFFFF" height="10.25" id="svg_252" width="34.64" x="346.42" y="116.31"/>
       <rect fill="#FFFFFF" height="10.25" id="svg_253" width="16.14" x="327.92" y="116.31"/>
       <rect fill="#FFFFFF" height="10.25" id="svg_254" width="16.14" x="420.42" y="116.31"/>
      </g>
      <g id="svg_255" opacity="0.3">
       <rect fill="#FFFFFF" height="10.25" id="svg_256" width="34.64" x="364.92" y="128.88"/>
       <rect fill="#FFFFFF" height="10.25" id="svg_257" width="34.64" x="327.92" y="128.88"/>
       <rect fill="#FFFFFF" height="10.25" id="svg_258" width="34.64" x="401.92" y="128.88"/>
      </g>
      <g id="svg_259" opacity="0.3">
       <rect fill="#FFFFFF" height="10.25" id="svg_260" width="34.64" x="383.42" y="91.18"/>
       <rect fill="#FFFFFF" height="10.25" id="svg_261" width="34.64" x="346.42" y="91.18"/>
       <rect fill="#FFFFFF" height="10.25" id="svg_262" width="16.14" x="327.92" y="91.18"/>
       <rect fill="#FFFFFF" height="10.25" id="svg_263" width="16.14" x="420.42" y="91.18"/>
      </g>
      <g id="svg_264" opacity="0.3">
       <rect fill="#FFFFFF" height="10.25" id="svg_265" width="34.64" x="364.92" y="103.74"/>
       <rect fill="#FFFFFF" height="10.25" id="svg_266" width="34.64" x="327.92" y="103.74"/>
       <rect fill="#FFFFFF" height="10.25" id="svg_267" width="34.64" x="401.92" y="103.74"/>
      </g>
      <g id="svg_268" opacity="0.3">
       <rect fill="#FFFFFF" height="10.25" id="svg_269" width="34.64" x="383.42" y="66.04"/>
       <rect fill="#FFFFFF" height="10.25" id="svg_270" width="34.64" x="346.42" y="66.04"/>
       <rect fill="#FFFFFF" height="10.25" id="svg_271" width="16.14" x="327.92" y="66.04"/>
       <rect fill="#FFFFFF" height="10.25" id="svg_272" width="16.14" x="420.42" y="66.04"/>
      </g>
      <g id="svg_273" opacity="0.3">
       <rect fill="#FFFFFF" height="10.25" id="svg_274" width="34.64" x="364.92" y="78.61"/>
       <rect fill="#FFFFFF" height="10.25" id="svg_275" width="34.64" x="327.92" y="78.61"/>
       <rect fill="#FFFFFF" height="10.25" id="svg_276" width="34.64" x="401.92" y="78.61"/>
      </g>
      <g id="svg_277" opacity="0.3">
       <rect fill="#FFFFFF" height="10.25" id="svg_278" width="34.64" x="364.92" y="53.47"/>
       <rect fill="#FFFFFF" height="10.25" id="svg_279" width="34.64" x="327.92" y="53.47"/>
       <rect fill="#FFFFFF" height="10.25" id="svg_280" width="34.64" x="401.92" y="53.47"/>
      </g>
      <g id="svg_281" opacity="0.3">
       <rect fill="#FFFFFF" height="10.25" id="svg_282" width="34.64" x="383.42" y="141.45"/>
       <rect fill="#FFFFFF" height="10.25" id="svg_283" width="34.64" x="346.42" y="141.45"/>
       <rect fill="#FFFFFF" height="10.25" id="svg_284" width="16.14" x="327.92" y="141.45"/>
       <rect fill="#FFFFFF" height="10.25" id="svg_285" width="16.14" x="420.42" y="141.45"/>
      </g>
      <g id="svg_286" opacity="0.3">
       <rect fill="#FFFFFF" height="10.25" id="svg_287" width="34.64" x="364.92" y="154.02"/>
       <rect fill="#FFFFFF" height="10.25" id="svg_288" width="34.64" x="327.92" y="154.02"/>
       <rect fill="#FFFFFF" height="10.25" id="svg_289" width="34.64" x="401.92" y="154.02"/>
      </g>
      <g id="svg_290" opacity="0.3">
       <rect fill="#FFFFFF" height="10.25" id="svg_291" width="34.64" x="383.42" y="166.59"/>
       <rect fill="#FFFFFF" height="10.25" id="svg_292" width="34.64" x="346.42" y="166.59"/>
       <rect fill="#FFFFFF" height="10.25" id="svg_293" width="16.14" x="327.92" y="166.59"/>
       <rect fill="#FFFFFF" height="10.25" id="svg_294" width="16.14" x="420.42" y="166.59"/>
      </g>
      <g id="svg_295" opacity="0.3">
       <rect fill="#FFFFFF" height="10.25" id="svg_296" width="34.64" x="364.92" y="179.16"/>
       <rect fill="#FFFFFF" height="10.25" id="svg_297" width="34.64" x="327.92" y="179.16"/>
       <rect fill="#FFFFFF" height="10.25" id="svg_298" width="34.64" x="401.92" y="179.16"/>
      </g>
      <g id="svg_299" opacity="0.3">
       <rect fill="#FFFFFF" height="10.25" id="svg_300" width="34.64" x="383.42" y="191.72"/>
       <rect fill="#FFFFFF" height="10.25" id="svg_301" width="34.64" x="346.42" y="191.72"/>
       <rect fill="#FFFFFF" height="10.25" id="svg_302" width="16.14" x="327.92" y="191.72"/>
       <rect fill="#FFFFFF" height="10.25" id="svg_303" width="16.14" x="420.42" y="191.72"/>
      </g>
      <g id="svg_304" opacity="0.3">
       <rect fill="#FFFFFF" height="10.25" id="svg_305" width="34.64" x="364.92" y="204.29"/>
       <rect fill="#FFFFFF" height="10.25" id="svg_306" width="34.64" x="327.92" y="204.29"/>
       <rect fill="#FFFFFF" height="10.25" id="svg_307" width="34.64" x="401.92" y="204.29"/>
      </g>
      <g id="svg_308" opacity="0.3">
       <rect fill="#FFFFFF" height="10.25" id="svg_309" width="34.64" x="383.42" y="216.86"/>
       <rect fill="#FFFFFF" height="10.25" id="svg_310" width="34.64" x="346.42" y="216.86"/>
       <rect fill="#FFFFFF" height="10.25" id="svg_311" width="16.14" x="327.92" y="216.86"/>
       <rect fill="#FFFFFF" height="10.25" id="svg_312" width="16.14" x="420.42" y="216.86"/>
      </g>
      <g id="svg_313" opacity="0.3">
       <rect fill="#FFFFFF" height="10.25" id="svg_314" width="34.64" x="364.92" y="229.43"/>
       <rect fill="#FFFFFF" height="10.25" id="svg_315" width="34.64" x="327.92" y="229.43"/>
       <rect fill="#FFFFFF" height="10.25" id="svg_316" width="34.64" x="401.92" y="229.43"/>
      </g>
      <g id="svg_317" opacity="0.3">
       <rect fill="#FFFFFF" height="10.25" id="svg_318" width="34.64" x="383.42" y="242"/>
       <rect fill="#FFFFFF" height="10.25" id="svg_319" width="34.64" x="346.42" y="242"/>
       <rect fill="#FFFFFF" height="10.25" id="svg_320" width="16.14" x="327.92" y="242"/>
       <rect fill="#FFFFFF" height="10.25" id="svg_321" width="16.14" x="420.42" y="242"/>
      </g>
      <g id="svg_322" opacity="0.3">
       <rect fill="#FFFFFF" height="10.25" id="svg_323" width="34.64" x="364.92" y="254.57"/>
       <rect fill="#FFFFFF" height="10.25" id="svg_324" width="34.64" x="327.92" y="254.57"/>
       <rect fill="#FFFFFF" height="10.25" id="svg_325" width="34.64" x="401.92" y="254.57"/>
      </g>
      <g id="svg_326" opacity="0.3">
       <rect fill="#FFFFFF" height="10.25" id="svg_327" width="34.64" x="383.42" y="267.13"/>
       <rect fill="#FFFFFF" height="10.25" id="svg_328" width="34.64" x="346.42" y="267.13"/>
       <rect fill="#FFFFFF" height="10.25" id="svg_329" width="16.14" x="327.92" y="267.13"/>
       <rect fill="#FFFFFF" height="10.25" id="svg_330" width="16.14" x="420.42" y="267.13"/>
      </g>
      <g id="svg_331" opacity="0.3">
       <rect fill="#FFFFFF" height="10.25" id="svg_332" width="34.64" x="364.92" y="279.7"/>
       <rect fill="#FFFFFF" height="10.25" id="svg_333" width="34.64" x="327.92" y="279.7"/>
       <rect fill="#FFFFFF" height="10.25" id="svg_334" width="34.64" x="401.92" y="279.7"/>
      </g>
      <g id="svg_335" opacity="0.3">
       <rect fill="#FFFFFF" height="10.25" id="svg_336" width="34.64" x="383.42" y="292.27"/>
       <rect fill="#FFFFFF" height="10.25" id="svg_337" width="34.64" x="346.42" y="292.27"/>
       <rect fill="#FFFFFF" height="10.25" id="svg_338" width="16.14" x="327.92" y="292.27"/>
       <rect fill="#FFFFFF" height="10.25" id="svg_339" width="16.14" x="420.42" y="292.27"/>
      </g>
      <g id="svg_340" opacity="0.3">
       <rect fill="#FFFFFF" height="10.25" id="svg_341" width="34.64" x="364.92" y="304.84"/>
       <rect fill="#FFFFFF" height="10.25" id="svg_342" width="34.64" x="327.92" y="304.84"/>
       <rect fill="#FFFFFF" height="10.25" id="svg_343" width="34.64" x="401.92" y="304.84"/>
      </g>
      <g id="svg_344" opacity="0.3">
       <rect fill="#FFFFFF" height="10.25" id="svg_345" width="34.64" x="383.42" y="317.41"/>
       <rect fill="#FFFFFF" height="10.25" id="svg_346" width="34.64" x="346.42" y="317.41"/>
       <rect fill="#FFFFFF" height="10.25" id="svg_347" width="16.14" x="327.92" y="317.41"/>
       <rect fill="#FFFFFF" height="10.25" id="svg_348" width="16.14" x="420.42" y="317.41"/>
      </g>
      <g id="svg_349" opacity="0.3">
       <rect fill="#FFFFFF" height="10.25" id="svg_350" width="34.64" x="364.92" y="329.98"/>
       <rect fill="#FFFFFF" height="10.25" id="svg_351" width="34.64" x="327.92" y="329.98"/>
       <rect fill="#FFFFFF" height="10.25" id="svg_352" width="34.64" x="401.92" y="329.98"/>
      </g>
      <g id="svg_353" opacity="0.3">
       <rect fill="#FFFFFF" height="10.25" id="svg_354" width="34.64" x="383.42" y="342.55"/>
       <rect fill="#FFFFFF" height="10.25" id="svg_355" width="34.64" x="346.42" y="342.55"/>
       <rect fill="#FFFFFF" height="10.25" id="svg_356" width="16.14" x="327.92" y="342.55"/>
       <rect fill="#FFFFFF" height="10.25" id="svg_357" width="16.14" x="420.42" y="342.55"/>
      </g>
      <g id="svg_358" opacity="0.3">
       <rect fill="#FFFFFF" height="10.25" id="svg_359" width="34.64" x="364.92" y="355.11"/>
       <rect fill="#FFFFFF" height="10.25" id="svg_360" width="34.64" x="327.92" y="355.11"/>
       <rect fill="#FFFFFF" height="10.25" id="svg_361" width="34.64" x="401.92" y="355.11"/>
      </g>
      <g id="svg_362" opacity="0.3">
       <rect fill="#FFFFFF" height="10.25" id="svg_363" width="34.64" x="383.42" y="367.68"/>
       <rect fill="#FFFFFF" height="10.25" id="svg_364" width="34.64" x="346.42" y="367.68"/>
       <rect fill="#FFFFFF" height="10.25" id="svg_365" width="16.14" x="327.92" y="367.68"/>
       <rect fill="#FFFFFF" height="10.25" id="svg_366" width="16.14" x="420.42" y="367.68"/>
      </g>
      <g id="svg_367" opacity="0.3">
       <rect fill="#FFFFFF" height="10.25" id="svg_368" width="34.64" x="364.92" y="380.25"/>
       <rect fill="#FFFFFF" height="10.25" id="svg_369" width="34.64" x="327.92" y="380.25"/>
       <rect fill="#FFFFFF" height="10.25" id="svg_370" width="34.64" x="401.92" y="380.25"/>
      </g>
      <g id="svg_371" opacity="0.3">
       <rect fill="#FFFFFF" height="10.25" id="svg_372" width="34.64" x="383.42" y="392.82"/>
       <rect fill="#FFFFFF" height="10.25" id="svg_373" width="34.64" x="346.42" y="392.82"/>
       <rect fill="#FFFFFF" height="10.25" id="svg_374" width="16.14" x="327.92" y="392.82"/>
       <rect fill="#FFFFFF" height="10.25" id="svg_375" width="16.14" x="420.42" y="392.82"/>
      </g>
      <g id="svg_376" opacity="0.3">
       <rect fill="#FFFFFF" height="10.25" id="svg_377" width="34.64" x="364.92" y="405.39"/>
       <rect fill="#FFFFFF" height="10.25" id="svg_378" width="34.64" x="327.92" y="405.39"/>
       <rect fill="#FFFFFF" height="10.25" id="svg_379" width="34.64" x="401.92" y="405.39"/>
      </g>
      <g id="svg_380" opacity="0.3">
       <rect fill="#FFFFFF" height="10.25" id="svg_381" width="34.64" x="383.42" y="417.96"/>
       <rect fill="#FFFFFF" height="10.25" id="svg_382" width="34.64" x="346.42" y="417.96"/>
       <rect fill="#FFFFFF" height="10.25" id="svg_383" width="16.14" x="327.92" y="417.96"/>
       <rect fill="#FFFFFF" height="10.25" id="svg_384" width="16.14" x="420.42" y="417.96"/>
      </g>
      <g id="svg_385" opacity="0.3">
       <rect fill="#FFFFFF" height="10.25" id="svg_386" width="34.64" x="364.92" y="430.52"/>
       <rect fill="#FFFFFF" height="10.25" id="svg_387" width="34.64" x="327.92" y="430.52"/>
       <rect fill="#FFFFFF" height="10.25" id="svg_388" width="34.64" x="401.92" y="430.52"/>
      </g>
      <g id="svg_389" opacity="0.3">
       <rect fill="#FFFFFF" height="10.25" id="svg_390" width="34.64" x="383.42" y="443.09"/>
       <rect fill="#FFFFFF" height="10.25" id="svg_391" width="34.64" x="346.42" y="443.09"/>
       <rect fill="#FFFFFF" height="10.25" id="svg_392" width="16.14" x="327.92" y="443.09"/>
       <rect fill="#FFFFFF" height="10.25" id="svg_393" width="16.14" x="420.42" y="443.09"/>
      </g>
     </g>
    </g>
   </g>
   <g id="Wall_1">
    <g id="svg_394">
     <rect fill="#407BFF" height="340.97" id="svg_395" transform="matrix(-1.15 0 0 -1.18518 240.578 499.259)" width="97.46" x="54.22" y="36.95"/>
     <rect fill="#FFFFFF" height="340.97" id="svg_396" opacity="0.5" transform="matrix(-1.15 0 0 -1.18518 240.578 499.259)" width="97.46" x="54.22" y="36.95"/>
     <g id="svg_397">
      <g id="svg_398" opacity="0.3">
       <rect fill="#FFFFFF" height="8.65" id="svg_399" transform="matrix(-1.15 0 0 -1.18518 203.577 235.321)" width="30.12" x="71.8" y="91.77"/>
       <rect fill="#FFFFFF" height="8.65" id="svg_400" transform="matrix(-1.15 0 0 -1.18518 277.579 235.321)" width="30.12" x="103.98" y="91.77"/>
       <rect fill="#FFFFFF" height="8.65" id="svg_401" transform="matrix(-1.15 0 0 -1.18518 333.081 235.321)" width="14.03" x="136.15" y="91.77"/>
       <rect fill="#FFFFFF" height="8.65" id="svg_402" transform="matrix(-1.15 0 0 -1.18518 148.076 235.321)" width="14.03" x="55.72" y="91.77"/>
      </g>
      <g id="svg_403" opacity="0.3">
       <rect fill="#FFFFFF" height="8.65" id="svg_404" transform="matrix(-1.15 0 0 -1.18518 240.578 260.458)" width="30.12" x="87.89" y="102.37"/>
       <rect fill="#FFFFFF" height="8.65" id="svg_405" transform="matrix(-1.15 0 0 -1.18518 314.58 260.458)" width="30.12" x="120.07" y="102.37"/>
       <rect fill="#FFFFFF" height="8.65" id="svg_406" transform="matrix(-1.15 0 0 -1.18518 166.576 260.458)" width="30.12" x="55.72" y="102.37"/>
      </g>
      <g id="svg_407" opacity="0.3">
       <rect fill="#FFFFFF" height="8.65" id="svg_408" transform="matrix(-1.15 0 0 -1.18518 203.577 185.047)" width="30.12" x="71.8" y="70.56"/>
       <rect fill="#FFFFFF" height="8.65" id="svg_409" transform="matrix(-1.15 0 0 -1.18518 277.579 185.047)" width="30.12" x="103.98" y="70.56"/>
       <rect fill="#FFFFFF" height="8.65" id="svg_410" transform="matrix(-1.15 0 0 -1.18518 333.081 185.047)" width="14.03" x="136.15" y="70.56"/>
       <rect fill="#FFFFFF" height="8.65" id="svg_411" transform="matrix(-1.15 0 0 -1.18518 148.076 185.047)" width="14.03" x="55.72" y="70.56"/>
      </g>
      <g id="svg_412" opacity="0.3">
       <rect fill="#FFFFFF" height="8.65" id="svg_413" transform="matrix(-1.15 0 0 -1.18518 240.578 210.184)" width="30.12" x="87.89" y="81.16"/>
       <rect fill="#FFFFFF" height="8.65" id="svg_414" transform="matrix(-1.15 0 0 -1.18518 314.58 210.184)" width="30.12" x="120.07" y="81.16"/>
       <rect fill="#FFFFFF" height="8.65" id="svg_415" transform="matrix(-1.15 0 0 -1.18518 166.576 210.184)" width="30.12" x="55.72" y="81.16"/>
      </g>
      <g id="svg_416" opacity="0.3">
       <rect fill="#FFFFFF" height="8.65" id="svg_417" transform="matrix(-1.15 0 0 -1.18518 203.577 134.773)" width="30.12" x="71.8" y="49.35"/>
       <rect fill="#FFFFFF" height="8.65" id="svg_418" transform="matrix(-1.15 0 0 -1.18518 277.579 134.773)" width="30.12" x="103.98" y="49.35"/>
       <rect fill="#FFFFFF" height="8.65" id="svg_419" transform="matrix(-1.15 0 0 -1.18518 333.081 134.773)" width="14.03" x="136.15" y="49.35"/>
       <rect fill="#FFFFFF" height="8.65" id="svg_420" transform="matrix(-1.15 0 0 -1.18518 148.076 134.773)" width="14.03" x="55.72" y="49.35"/>
      </g>
      <g id="svg_421" opacity="0.3">
       <rect fill="#FFFFFF" height="8.65" id="svg_422" transform="matrix(-1.15 0 0 -1.18518 240.578 159.91)" width="30.12" x="87.89" y="59.95"/>
       <rect fill="#FFFFFF" height="8.65" id="svg_423" transform="matrix(-1.15 0 0 -1.18518 314.58 159.91)" width="30.12" x="120.07" y="59.95"/>
       <rect fill="#FFFFFF" height="8.65" id="svg_424" transform="matrix(-1.15 0 0 -1.18518 166.576 159.91)" width="30.12" x="55.72" y="59.95"/>
      </g>
      <g id="svg_425" opacity="0.3">
       <rect fill="#FFFFFF" height="8.65" id="svg_426" transform="matrix(-1.15 0 0 -1.18518 240.578 109.636)" width="30.12" x="87.89" y="38.74"/>
       <rect fill="#FFFFFF" height="8.65" id="svg_427" transform="matrix(-1.15 0 0 -1.18518 314.58 109.636)" width="30.12" x="120.07" y="38.74"/>
       <rect fill="#FFFFFF" height="8.65" id="svg_428" transform="matrix(-1.15 0 0 -1.18518 166.576 109.636)" width="30.12" x="55.72" y="38.74"/>
      </g>
      <g id="svg_429" opacity="0.3">
       <rect fill="#FFFFFF" height="8.65" id="svg_430" transform="matrix(-1.15 0 0 -1.18518 203.577 285.595)" width="30.12" x="71.8" y="112.98"/>
       <rect fill="#FFFFFF" height="8.65" id="svg_431" transform="matrix(-1.15 0 0 -1.18518 277.579 285.595)" width="30.12" x="103.98" y="112.98"/>
       <rect fill="#FFFFFF" height="8.65" id="svg_432" transform="matrix(-1.15 0 0 -1.18518 333.081 285.595)" width="14.03" x="136.15" y="112.98"/>
       <rect fill="#FFFFFF" height="8.65" id="svg_433" transform="matrix(-1.15 0 0 -1.18518 148.076 285.595)" width="14.03" x="55.72" y="112.98"/>
      </g>
      <g id="svg_434" opacity="0.3">
       <rect fill="#FFFFFF" height="8.65" id="svg_435" transform="matrix(-1.15 0 0 -1.18518 240.578 310.732)" width="30.12" x="87.89" y="123.58"/>
       <rect fill="#FFFFFF" height="8.65" id="svg_436" transform="matrix(-1.15 0 0 -1.18518 314.58 310.732)" width="30.12" x="120.07" y="123.58"/>
       <rect fill="#FFFFFF" height="8.65" id="svg_437" transform="matrix(-1.15 0 0 -1.18518 166.576 310.732)" width="30.12" x="55.72" y="123.58"/>
      </g>
      <g id="svg_438" opacity="0.3">
       <rect fill="#FFFFFF" height="8.65" id="svg_439" transform="matrix(-1.15 0 0 -1.18518 203.577 335.869)" width="30.12" x="71.8" y="134.19"/>
       <rect fill="#FFFFFF" height="8.65" id="svg_440" transform="matrix(-1.15 0 0 -1.18518 277.579 335.869)" width="30.12" x="103.98" y="134.19"/>
       <rect fill="#FFFFFF" height="8.65" id="svg_441" transform="matrix(-1.15 0 0 -1.18518 333.081 335.869)" width="14.03" x="136.15" y="134.19"/>
       <rect fill="#FFFFFF" height="8.65" id="svg_442" transform="matrix(-1.15 0 0 -1.18518 148.076 335.869)" width="14.03" x="55.72" y="134.19"/>
      </g>
      <g id="svg_443" opacity="0.3">
       <rect fill="#FFFFFF" height="8.65" id="svg_444" transform="matrix(-1.15 0 0 -1.18518 240.578 361.006)" width="30.12" x="87.89" y="144.79"/>
       <rect fill="#FFFFFF" height="8.65" id="svg_445" transform="matrix(-1.15 0 0 -1.18518 314.58 361.006)" width="30.12" x="120.07" y="144.79"/>
       <rect fill="#FFFFFF" height="8.65" id="svg_446" transform="matrix(-1.15 0 0 -1.18518 166.576 361.006)" width="30.12" x="55.72" y="144.79"/>
      </g>
      <g id="svg_447" opacity="0.3">
       <rect fill="#FFFFFF" height="8.65" id="svg_448" transform="matrix(-1.15 0 0 -1.18518 203.577 386.143)" width="30.12" x="71.8" y="155.4"/>
       <rect fill="#FFFFFF" height="8.65" id="svg_449" transform="matrix(-1.15 0 0 -1.18518 277.579 386.143)" width="30.12" x="103.98" y="155.4"/>
       <rect fill="#FFFFFF" height="8.65" id="svg_450" transform="matrix(-1.15 0 0 -1.18518 333.081 386.143)" width="14.03" x="136.15" y="155.4"/>
       <rect fill="#FFFFFF" height="8.65" id="svg_451" transform="matrix(-1.15 0 0 -1.18518 148.076 386.143)" width="14.03" x="55.72" y="155.4"/>
      </g>
      <g id="svg_452" opacity="0.3">
       <rect fill="#FFFFFF" height="8.65" id="svg_453" transform="matrix(-1.15 0 0 -1.18518 240.578 411.28)" width="30.12" x="87.89" y="166"/>
       <rect fill="#FFFFFF" height="8.65" id="svg_454" transform="matrix(-1.15 0 0 -1.18518 314.58 411.28)" width="30.12" x="120.07" y="166"/>
       <rect fill="#FFFFFF" height="8.65" id="svg_455" transform="matrix(-1.15 0 0 -1.18518 166.576 411.28)" width="30.12" x="55.72" y="166"/>
      </g>
      <g id="svg_456" opacity="0.3">
       <rect fill="#FFFFFF" height="8.65" id="svg_457" transform="matrix(-1.15 0 0 -1.18518 203.577 436.417)" width="30.12" x="71.8" y="176.6"/>
       <rect fill="#FFFFFF" height="8.65" id="svg_458" transform="matrix(-1.15 0 0 -1.18518 277.579 436.417)" width="30.12" x="103.98" y="176.6"/>
       <rect fill="#FFFFFF" height="8.65" id="svg_459" transform="matrix(-1.15 0 0 -1.18518 333.081 436.417)" width="14.03" x="136.15" y="176.6"/>
       <rect fill="#FFFFFF" height="8.65" id="svg_460" transform="matrix(-1.15 0 0 -1.18518 148.076 436.417)" width="14.03" x="55.72" y="176.6"/>
      </g>
      <g id="svg_461" opacity="0.3">
       <rect fill="#FFFFFF" height="8.65" id="svg_462" transform="matrix(-1.15 0 0 -1.18518 240.578 461.554)" width="30.12" x="87.89" y="187.21"/>
       <rect fill="#FFFFFF" height="8.65" id="svg_463" transform="matrix(-1.15 0 0 -1.18518 314.58 461.554)" width="30.12" x="120.07" y="187.21"/>
       <rect fill="#FFFFFF" height="8.65" id="svg_464" transform="matrix(-1.15 0 0 -1.18518 166.576 461.554)" width="30.12" x="55.72" y="187.21"/>
      </g>
      <g id="svg_465" opacity="0.3">
       <rect fill="#FFFFFF" height="8.65" id="svg_466" transform="matrix(-1.15 0 0 -1.18518 203.577 486.691)" width="30.12" x="71.8" y="197.81"/>
       <rect fill="#FFFFFF" height="8.65" id="svg_467" transform="matrix(-1.15 0 0 -1.18518 277.579 486.691)" width="30.12" x="103.98" y="197.81"/>
       <rect fill="#FFFFFF" height="8.65" id="svg_468" transform="matrix(-1.15 0 0 -1.18518 333.081 486.691)" width="14.03" x="136.15" y="197.81"/>
       <rect fill="#FFFFFF" height="8.65" id="svg_469" transform="matrix(-1.15 0 0 -1.18518 148.076 486.691)" width="14.03" x="55.72" y="197.81"/>
      </g>
      <g id="svg_470" opacity="0.3">
       <rect fill="#FFFFFF" height="8.65" id="svg_471" transform="matrix(-1.15 0 0 -1.18518 240.578 511.828)" width="30.12" x="87.89" y="208.42"/>
       <rect fill="#FFFFFF" height="8.65" id="svg_472" transform="matrix(-1.15 0 0 -1.18518 314.58 511.828)" width="30.12" x="120.07" y="208.42"/>
       <rect fill="#FFFFFF" height="8.65" id="svg_473" transform="matrix(-1.15 0 0 -1.18518 166.576 511.828)" width="30.12" x="55.72" y="208.42"/>
      </g>
      <g id="svg_474" opacity="0.3">
       <rect fill="#FFFFFF" height="8.65" id="svg_475" transform="matrix(-1.15 0 0 -1.18518 203.577 536.965)" width="30.12" x="71.8" y="219.02"/>
       <rect fill="#FFFFFF" height="8.65" id="svg_476" transform="matrix(-1.15 0 0 -1.18518 277.579 536.965)" width="30.12" x="103.98" y="219.02"/>
       <rect fill="#FFFFFF" height="8.65" id="svg_477" transform="matrix(-1.15 0 0 -1.18518 333.081 536.965)" width="14.03" x="136.15" y="219.02"/>
       <rect fill="#FFFFFF" height="8.65" id="svg_478" transform="matrix(-1.15 0 0 -1.18518 148.076 536.965)" width="14.03" x="55.72" y="219.02"/>
      </g>
      <g id="svg_479" opacity="0.3">
       <rect fill="#FFFFFF" height="8.65" id="svg_480" transform="matrix(-1.15 0 0 -1.18518 240.578 562.102)" width="30.12" x="87.89" y="229.63"/>
       <rect fill="#FFFFFF" height="8.65" id="svg_481" transform="matrix(-1.15 0 0 -1.18518 314.58 562.102)" width="30.12" x="120.07" y="229.63"/>
       <rect fill="#FFFFFF" height="8.65" id="svg_482" transform="matrix(-1.15 0 0 -1.18518 166.576 562.102)" width="30.12" x="55.72" y="229.63"/>
      </g>
      <g id="svg_483" opacity="0.3">
       <rect fill="#FFFFFF" height="8.65" id="svg_484" transform="matrix(-1.15 0 0 -1.18518 203.577 587.239)" width="30.12" x="71.8" y="240.23"/>
       <rect fill="#FFFFFF" height="8.65" id="svg_485" transform="matrix(-1.15 0 0 -1.18518 277.579 587.239)" width="30.12" x="103.98" y="240.23"/>
       <rect fill="#FFFFFF" height="8.65" id="svg_486" transform="matrix(-1.15 0 0 -1.18518 333.081 587.239)" width="14.03" x="136.15" y="240.23"/>
       <rect fill="#FFFFFF" height="8.65" id="svg_487" transform="matrix(-1.15 0 0 -1.18518 148.076 587.239)" width="14.03" x="55.72" y="240.23"/>
      </g>
      <g id="svg_488" opacity="0.3">
       <rect fill="#FFFFFF" height="8.65" id="svg_489" transform="matrix(-1.15 0 0 -1.18518 240.578 612.376)" width="30.12" x="87.89" y="250.84"/>
       <rect fill="#FFFFFF" height="8.65" id="svg_490" transform="matrix(-1.15 0 0 -1.18518 314.58 612.376)" width="30.12" x="120.07" y="250.84"/>
       <rect fill="#FFFFFF" height="8.65" id="svg_491" transform="matrix(-1.15 0 0 -1.18518 166.576 612.376)" width="30.12" x="55.72" y="250.84"/>
      </g>
      <g id="svg_492" opacity="0.3">
       <rect fill="#FFFFFF" height="8.65" id="svg_493" transform="matrix(-1.15 0 0 -1.18518 203.577 637.513)" width="30.12" x="71.8" y="261.44"/>
       <rect fill="#FFFFFF" height="8.65" id="svg_494" transform="matrix(-1.15 0 0 -1.18518 277.579 637.513)" width="30.12" x="103.98" y="261.44"/>
       <rect fill="#FFFFFF" height="8.65" id="svg_495" transform="matrix(-1.15 0 0 -1.18518 333.081 637.513)" width="14.03" x="136.15" y="261.44"/>
       <rect fill="#FFFFFF" height="8.65" id="svg_496" transform="matrix(-1.15 0 0 -1.18518 148.076 637.513)" width="14.03" x="55.72" y="261.44"/>
      </g>
      <g id="svg_497" opacity="0.3">
       <rect fill="#FFFFFF" height="8.65" id="svg_498" transform="matrix(-1.15 0 0 -1.18518 240.578 662.65)" width="30.12" x="87.89" y="272.05"/>
       <rect fill="#FFFFFF" height="8.65" id="svg_499" transform="matrix(-1.15 0 0 -1.18518 314.58 662.65)" width="30.12" x="120.07" y="272.05"/>
       <rect fill="#FFFFFF" height="8.65" id="svg_500" transform="matrix(-1.15 0 0 -1.18518 166.576 662.65)" width="30.12" x="55.72" y="272.05"/>
      </g>
      <g id="svg_501" opacity="0.3">
       <rect fill="#FFFFFF" height="8.65" id="svg_502" transform="matrix(-1.15 0 0 -1.18518 203.577 687.787)" width="30.12" x="71.8" y="282.65"/>
       <rect fill="#FFFFFF" height="8.65" id="svg_503" transform="matrix(-1.15 0 0 -1.18518 277.579 687.787)" width="30.12" x="103.98" y="282.65"/>
       <rect fill="#FFFFFF" height="8.65" id="svg_504" transform="matrix(-1.15 0 0 -1.18518 333.081 687.787)" width="14.03" x="136.15" y="282.65"/>
       <rect fill="#FFFFFF" height="8.65" id="svg_505" transform="matrix(-1.15 0 0 -1.18518 148.076 687.787)" width="14.03" x="55.72" y="282.65"/>
      </g>
      <g id="svg_506" opacity="0.3">
       <rect fill="#FFFFFF" height="8.65" id="svg_507" transform="matrix(-1.15 0 0 -1.18518 240.578 712.924)" width="30.12" x="87.89" y="293.26"/>
       <rect fill="#FFFFFF" height="8.65" id="svg_508" transform="matrix(-1.15 0 0 -1.18518 314.58 712.924)" width="30.12" x="120.07" y="293.26"/>
       <rect fill="#FFFFFF" height="8.65" id="svg_509" transform="matrix(-1.15 0 0 -1.18518 166.576 712.924)" width="30.12" x="55.72" y="293.26"/>
      </g>
      <g id="svg_510" opacity="0.3">
       <rect fill="#FFFFFF" height="8.65" id="svg_511" transform="matrix(-1.15 0 0 -1.18518 203.577 738.061)" width="30.12" x="71.8" y="303.86"/>
       <rect fill="#FFFFFF" height="8.65" id="svg_512" transform="matrix(-1.15 0 0 -1.18518 277.579 738.061)" width="30.12" x="103.98" y="303.86"/>
       <rect fill="#FFFFFF" height="8.65" id="svg_513" transform="matrix(-1.15 0 0 -1.18518 333.081 738.061)" width="14.03" x="136.15" y="303.86"/>
       <rect fill="#FFFFFF" height="8.65" id="svg_514" transform="matrix(-1.15 0 0 -1.18518 148.076 738.061)" width="14.03" x="55.72" y="303.86"/>
      </g>
      <g id="svg_515" opacity="0.3">
       <rect fill="#FFFFFF" height="8.65" id="svg_516" transform="matrix(-1.15 0 0 -1.18518 240.578 763.198)" width="30.12" x="87.89" y="314.47"/>
       <rect fill="#FFFFFF" height="8.65" id="svg_517" transform="matrix(-1.15 0 0 -1.18518 314.58 763.198)" width="30.12" x="120.07" y="314.47"/>
       <rect fill="#FFFFFF" height="8.65" id="svg_518" transform="matrix(-1.15 0 0 -1.18518 166.576 763.198)" width="30.12" x="55.72" y="314.47"/>
      </g>
      <g id="svg_519" opacity="0.3">
       <rect fill="#FFFFFF" height="8.65" id="svg_520" transform="matrix(-1.15 0 0 -1.18518 203.577 788.335)" width="30.12" x="71.8" y="325.07"/>
       <rect fill="#FFFFFF" height="8.65" id="svg_521" transform="matrix(-1.15 0 0 -1.18518 277.579 788.335)" width="30.12" x="103.98" y="325.07"/>
       <rect fill="#FFFFFF" height="8.65" id="svg_522" transform="matrix(-1.15 0 0 -1.18518 333.081 788.335)" width="14.03" x="136.15" y="325.07"/>
       <rect fill="#FFFFFF" height="8.65" id="svg_523" transform="matrix(-1.15 0 0 -1.18518 148.076 788.335)" width="14.03" x="55.72" y="325.07"/>
      </g>
      <g id="svg_524" opacity="0.3">
       <rect fill="#FFFFFF" height="8.65" id="svg_525" transform="matrix(-1.15 0 0 -1.18518 240.578 813.472)" width="30.12" x="87.89" y="335.68"/>
       <rect fill="#FFFFFF" height="8.65" id="svg_526" transform="matrix(-1.15 0 0 -1.18518 314.58 813.472)" width="30.12" x="120.07" y="335.68"/>
       <rect fill="#FFFFFF" height="8.65" id="svg_527" transform="matrix(-1.15 0 0 -1.18518 166.576 813.472)" width="30.12" x="55.72" y="335.68"/>
      </g>
      <g id="svg_528" opacity="0.3">
       <rect fill="#FFFFFF" height="8.65" id="svg_529" transform="matrix(-1.15 0 0 -1.18518 203.577 838.609)" width="30.12" x="71.8" y="346.28"/>
       <rect fill="#FFFFFF" height="8.65" id="svg_530" transform="matrix(-1.15 0 0 -1.18518 277.579 838.609)" width="30.12" x="103.98" y="346.28"/>
       <rect fill="#FFFFFF" height="8.65" id="svg_531" transform="matrix(-1.15 0 0 -1.18518 333.081 838.609)" width="14.03" x="136.15" y="346.28"/>
       <rect fill="#FFFFFF" height="8.65" id="svg_532" transform="matrix(-1.15 0 0 -1.18518 148.076 838.609)" width="14.03" x="55.72" y="346.28"/>
      </g>
      <g id="svg_533" opacity="0.3">
       <rect fill="#FFFFFF" height="8.65" id="svg_534" transform="matrix(-1.15 0 0 -1.18518 240.578 863.746)" width="30.12" x="87.89" y="356.88"/>
       <rect fill="#FFFFFF" height="8.65" id="svg_535" transform="matrix(-1.15 0 0 -1.18518 314.58 863.746)" width="30.12" x="120.07" y="356.88"/>
       <rect fill="#FFFFFF" height="8.65" id="svg_536" transform="matrix(-1.15 0 0 -1.18518 166.576 863.746)" width="30.12" x="55.72" y="356.88"/>
      </g>
      <g id="svg_537" opacity="0.3">
       <rect fill="#FFFFFF" height="8.65" id="svg_538" transform="matrix(-1.15 0 0 -1.18518 203.577 888.883)" width="30.12" x="71.8" y="367.49"/>
       <rect fill="#FFFFFF" height="8.65" id="svg_539" transform="matrix(-1.15 0 0 -1.18518 277.579 888.883)" width="30.12" x="103.98" y="367.49"/>
       <rect fill="#FFFFFF" height="8.65" id="svg_540" transform="matrix(-1.15 0 0 -1.18518 333.081 888.883)" width="14.03" x="136.15" y="367.49"/>
       <rect fill="#FFFFFF" height="8.65" id="svg_541" transform="matrix(-1.15 0 0 -1.18518 148.076 888.883)" width="14.03" x="55.72" y="367.49"/>
      </g>
     </g>
    </g>
   </g>
   <g id="Plant_2">
    <g id="svg_542">
     <g id="svg_543">
      <path d="m429.42,416c-0.02,-0.41 -1.4,-42.73 -8.07,-49.41c-6.46,-6.48 -13.89,-0.24 -14.2,0.02l-0.74,-0.9c0.08,-0.08 8.54,-7.18 15.74,0.02c6.99,7.02 8.36,48.47 8.42,50.23l-1.15,0.04z" fill="#263238" id="svg_544"/>
      <path d="m429.99,424.33c-0.05,-0.51 -4.57,-50.84 13.27,-71.95l0.86,0.78c-17.51,20.72 -13.04,70.55 -12.99,71.05l-1.14,0.12z" fill="#263238" id="svg_545"/>
      <path d="m429.43,419l-1.14,-0.07c0.03,-0.57 3.48,-57.17 -9.58,-69.56l0.78,-0.87c13.47,12.75 10.09,68.15 9.94,70.49z" fill="#263238" id="svg_546"/>
      <path d="m431.13,418.98l-1.15,-0.01c0.02,-1.56 0.44,-38.28 10.58,-44.28c2.25,-1.34 4.47,-1.55 6.59,-0.65c6.13,2.61 9.17,13.85 9.29,14.33l-1.1,0.31c-0.03,-0.11 -3.01,-11.15 -8.64,-13.55c-1.76,-0.75 -3.63,-0.55 -5.58,0.59c-9.57,5.65 -9.98,42.88 -9.99,43.26z" fill="#263238" id="svg_547"/>
      <path d="m427.2,419l-1.15,-0.07c0.02,-0.28 1.53,-28.98 -5.98,-39.08c-1.81,-2.43 -3.77,-3.58 -5.84,-3.44c-4.9,0.34 -9.02,7.75 -9.05,7.82l-1,-0.58c0.17,-0.33 4.45,-8.04 9.97,-8.43c2.48,-0.17 4.77,1.14 6.83,3.91c7.77,10.44 6.29,38.66 6.22,39.86z" fill="#263238" id="svg_548"/>
      <path d="m428.74,422.9c-0.21,-2.79 -4.91,-68.35 3.38,-79.9l0.93,0.7c-8.05,11.21 -3.21,78.45 -3.16,79.12l-1.15,0.08z" fill="#263238" id="svg_549"/>
     </g>
     <g id="svg_550">
      <path d="m449.38,380.72c0,0 -4.97,1.9 -3.5,6.35c1.48,4.46 17.19,11.79 17.19,11.79s6.59,-6.21 0.54,-16.33c-6.05,-10.11 -14.1,-5 -14.24,-1.81z" fill="#407BFF" id="svg_551"/>
      <path d="m449.38,380.72c0,0 -4.97,1.9 -3.5,6.35c1.48,4.46 17.19,11.79 17.19,11.79s6.59,-6.21 0.54,-16.33c-6.05,-10.11 -14.1,-5 -14.24,-1.81z" enable-background="new" fill="#FFFFFF" id="svg_552" opacity="0.2"/>
     </g>
     <g id="svg_553">
      <path d="m427.77,372.23c0,0 5.29,-0.23 5.59,4.48c0.3,4.69 -11.47,17.71 -11.47,17.71s-8.39,-3.13 -6.59,-14.86c1.79,-11.73 11.14,-10.22 12.47,-7.32z" fill="#407BFF" id="svg_554"/>
      <path d="m427.77,372.23c0,0 5.29,-0.23 5.59,4.48c0.3,4.69 -11.47,17.71 -11.47,17.71s-8.39,-3.13 -6.59,-14.86c1.79,-11.73 11.14,-10.22 12.47,-7.32z" enable-background="new" fill="#FFFFFF" id="svg_555" opacity="0.2"/>
     </g>
     <g id="svg_556">
      <path d="m423.29,349.73c0,0 3.53,-0.39 3.24,-2.61c-0.29,-2.22 -13.72,-7.92 -21.64,1.3c0,0 5.07,8.98 12.41,9.1c7.34,0.12 5.99,-7.8 5.99,-7.8z" fill="#407BFF" id="svg_557"/>
      <path d="m423.29,349.73c0,0 3.53,-0.39 3.24,-2.61c-0.29,-2.22 -13.72,-7.92 -21.64,1.3c0,0 5.07,8.98 12.41,9.1c7.34,0.12 5.99,-7.8 5.99,-7.8z" enable-background="new" fill="#FFFFFF" id="svg_558" opacity="0.2"/>
     </g>
     <g id="svg_559">
      <path d="m429.87,344.35c0,0 -3.2,1.6 -4.09,-0.44c-0.9,-2.04 7.58,-14.2 19.04,-10.69c0,0 0.3,10.39 -5.86,14.48c-6.16,4.1 -9.08,-3.35 -9.08,-3.35z" fill="#407BFF" id="svg_560"/>
      <path d="m429.87,344.35c0,0 -3.2,1.6 -4.09,-0.44c-0.9,-2.04 7.58,-14.2 19.04,-10.69c0,0 0.3,10.39 -5.86,14.48c-6.16,4.1 -9.08,-3.35 -9.08,-3.35z" enable-background="new" fill="#FFFFFF" id="svg_561" opacity="0.2"/>
     </g>
     <g id="svg_562">
      <path d="m413.16,378.93c0,0 2.44,-2.03 -0.2,-3.01c-2.62,-1 -15.52,-0.71 -15.66,12.46c0,0 15.03,2.57 16.88,-2.44c1.86,-5.01 -1.02,-7 -1.02,-7z" fill="#407BFF" id="svg_563"/>
      <path d="m413.16,378.93c0,0 2.44,-2.03 -0.2,-3.01c-2.62,-1 -15.52,-0.71 -15.66,12.46c0,0 15.03,2.57 16.88,-2.44c1.86,-5.01 -1.02,-7 -1.02,-7z" enable-background="new" fill="#FFFFFF" id="svg_564" opacity="0.2"/>
     </g>
     <g id="svg_565">
      <path d="m443.78,349.41c0,0 -2.43,-2.03 0.2,-3.02c2.63,-0.98 15.52,-0.71 15.66,12.46c0,0 -15.02,2.57 -16.88,-2.44c-1.86,-5.01 1.02,-6.99 1.02,-6.99z" fill="#407BFF" id="svg_566"/>
      <path d="m443.78,349.41c0,0 -2.43,-2.03 0.2,-3.02c2.63,-0.98 15.52,-0.71 15.66,12.46c0,0 -15.02,2.57 -16.88,-2.44c-1.86,-5.01 1.02,-6.99 1.02,-6.99z" enable-background="new" fill="#FFFFFF" id="svg_567" opacity="0.2"/>
     </g>
     <g id="svg_568">
      <path d="m435.85,360c0,0 -0.22,-2.45 1.71,-1.49c1.93,0.97 8.66,8.44 1.68,15.54c0,0 -9.37,-7.16 -7.68,-10.89c1.69,-3.73 4.29,-3.15 4.29,-3.15z" fill="#407BFF" id="svg_569"/>
      <path d="m435.85,360c0,0 -0.22,-2.45 1.71,-1.49c1.93,0.97 8.66,8.44 1.68,15.54c0,0 -9.37,-7.16 -7.68,-10.89c1.69,-3.73 4.29,-3.15 4.29,-3.15z" enable-background="new" fill="#FFFFFF" id="svg_570" opacity="0.2"/>
     </g>
     <g id="svg_571">
      <path d="m410.98,363.52c0,0 1.45,-1.97 -0.68,-2.22c-2.14,-0.25 -11.7,2.38 -9.46,12.22c0,0 11.64,-0.9 12.14,-4.99c0.49,-4.08 -2,-5.01 -2,-5.01z" fill="#407BFF" id="svg_572"/>
      <path d="m410.98,363.52c0,0 1.45,-1.97 -0.68,-2.22c-2.14,-0.25 -11.7,2.38 -9.46,12.22c0,0 11.64,-0.9 12.14,-4.99c0.49,-4.08 -2,-5.01 -2,-5.01z" enable-background="new" fill="#FFFFFF" id="svg_573" opacity="0.2"/>
     </g>
     <polygon fill="#407BFF" id="svg_574" points="450.3074035644531,455.4632873535156 410.36328125,455.4632873535156 406.0542297363281,410.3920593261719 454.616455078125,410.3920593261719 "/>
     <polygon id="svg_575" opacity="0.2" points="450.3074035644531,455.4632873535156 410.36328125,455.4632873535156 406.0542297363281,410.3920593261719 454.616455078125,410.3920593261719 "/>
     <rect fill="#407BFF" height="9.94" id="svg_576" width="52.83" x="403.92" y="405.42"/>
    </g>
   </g>
   <g id="Plant_1">
    <g id="svg_577">
     <path d="m69.92,414.45c0,0 -4.53,-26.45 1.45,-52.4c5.97,-25.94 4.38,-31.34 9.38,-36.73c0,0 -0.23,4.5 0,11.28c0.23,6.77 -1.37,24.46 -1.37,42.23c0,17.75 1.08,44.34 -9.46,35.61z" fill="#407BFF" id="svg_578"/>
     <path d="m69.92,414.45c0,0 -4.53,-26.45 1.45,-52.4c5.97,-25.94 4.38,-31.34 9.38,-36.73c0,0 -0.23,4.5 0,11.28c0.23,6.77 -1.37,24.46 -1.37,42.23c0,17.75 1.08,44.34 -9.46,35.61z" enable-background="new" fill="#FFFFFF" id="svg_579" opacity="0.2"/>
     <path d="m66.65,417.38c0,0 -3.65,0.53 -6.98,-17.71c-3.33,-18.24 -5.82,-29.18 -10.5,-40.75c-4.67,-11.57 -2.13,-26.88 -2.13,-26.88s1.4,8.44 5.35,15c3.94,6.57 9.41,19.03 14.26,33.59c4.84,14.55 7.58,34.87 0,36.74z" fill="#407BFF" id="svg_580"/>
     <path d="m76.71,413.76c-4.57,-2.36 2.22,-34.32 10.18,-47.31c7.96,-12.99 6.74,-21.38 9.86,-23.75c0,0 0.75,2.79 0,9.59c-0.76,6.79 -0.53,18.01 -5.3,28.35c-4.78,10.33 -6.03,37.64 -14.73,33.13z" fill="#407BFF" id="svg_581"/>
     <path d="m66.65,417.38c0,0 -3.65,0.53 -6.98,-17.71c-3.33,-18.24 -5.82,-29.18 -10.5,-40.75c-4.67,-11.57 -2.13,-26.88 -2.13,-26.88s1.4,8.44 5.35,15c3.94,6.57 9.41,19.03 14.26,33.59c4.84,14.55 7.58,34.87 0,36.74z" enable-background="new" fill="#FFFFFF" id="svg_582" opacity="0.3"/>
     <path d="m76.71,413.76c-4.57,-2.36 2.22,-34.32 10.18,-47.31c7.96,-12.99 6.74,-21.38 9.86,-23.75c0,0 0.75,2.79 0,9.59c-0.76,6.79 -0.53,18.01 -5.3,28.35c-4.78,10.33 -6.03,37.64 -14.73,33.13z" enable-background="new" fill="#FFFFFF" id="svg_583" opacity="0.3"/>
     <path d="m69.92,414.45c0.87,-6.15 -15.33,-21.49 -18.73,-24.83c-3.42,-3.34 -7.28,-12.72 -7.28,-12.72s-0.77,11.67 3.14,16.38c3.91,4.72 8.81,9.97 11.82,17.54c3,7.57 9.76,12.59 11.05,3.63z" fill="#407BFF" id="svg_584"/>
     <path d="m77.33,416.17c-5.43,-3.86 1.95,-10.71 9.17,-17.26c7.21,-6.54 8.04,-11.77 10.25,-16.31c2.2,-4.53 7.38,-5.7 7.38,-5.7s-3.22,3.67 -3.75,5.7c-0.53,2.03 -8.95,18.92 -10.99,25.71c-2.04,6.8 -7.27,11.25 -12.05,7.86z" fill="#407BFF" id="svg_585"/>
     <path d="m69.92,414.45c0.87,-6.15 -15.33,-21.49 -18.73,-24.83c-3.42,-3.34 -7.28,-12.72 -7.28,-12.72s-0.77,11.67 3.14,16.38c3.91,4.72 8.81,9.97 11.82,17.54c3,7.57 9.76,12.59 11.05,3.63z" enable-background="new" fill="#FFFFFF" id="svg_586" opacity="0.4"/>
     <path d="m77.33,416.17c-5.43,-3.86 1.95,-10.71 9.17,-17.26c7.21,-6.54 8.04,-11.77 10.25,-16.31c2.2,-4.53 7.38,-5.7 7.38,-5.7s-3.22,3.67 -3.75,5.7c-0.53,2.03 -8.95,18.92 -10.99,25.71c-2.04,6.8 -7.27,11.25 -12.05,7.86z" enable-background="new" fill="#FFFFFF" id="svg_587" opacity="0.4"/>
     <polygon fill="#407BFF" id="svg_588" points="93.42792510986328,455.4632873535156 53.483829498291016,455.4632873535156 49.17363357543945,410.3920593261719 97.73697662353516,410.3920593261719 "/>
     <polygon id="svg_589" opacity="0.2" points="93.42792510986328,455.4632873535156 53.483829498291016,455.4632873535156 49.17363357543945,410.3920593261719 97.73697662353516,410.3920593261719 "/>
     <rect fill="#407BFF" height="9.94" id="svg_590" width="52.83" x="47.04" y="405.42"/>
    </g>
   </g>
  </g>
 </g>
</svg>