<?xml version="1.0"?>
<svg width="500" height="500" xmlns="http://www.w3.org/2000/svg" xmlns:svg="http://www.w3.org/2000/svg" enable-background="new 0 0 500 500" version="1.1" xml:space="preserve">
 <g class="layer">
  <title>Layer 1</title>
  <g display="none" id="Background_Simple" transform="matrix(1 0 0 1 0 0)">
   <g id="svg_24">
    <path d="m-208.15,115.74c40.56,102.15 -47.11,102.81 -72.68,143.22c-25.62,40.49 -98.49,61.87 -132.13,-26.23c-28.08,-73.55 49.26,-55.19 92.45,-82.29c35.41,-22.22 71.81,-136.84 112.36,-34.7z" display="inline" fill="#407BFF" id="svg_25"/>
    <path d="m-208.15,115.74c40.56,102.15 -47.11,102.81 -72.68,143.22c-25.62,40.49 -98.49,61.87 -132.13,-26.23c-28.08,-73.55 49.26,-55.19 92.45,-82.29c35.41,-22.22 71.81,-136.84 112.36,-34.7z" display="inline" fill="#FFFFFF" id="svg_26" opacity="0.9"/>
   </g>
   <g display="inline" id="svg_27">
    <ellipse cx="-308.27" cy="184.04" fill="#407BFF" id="svg_28" rx="155.12" ry="154.63"/>
    <ellipse cx="-308.27" cy="184.04" fill="#FFFFFF" id="svg_29" opacity="0.9" rx="155.12" ry="154.63"/>
   </g>
  </g>
  <g id="Character">
   <path d="m439.07,339.72c-6.56,-12.54 -15.1,-21.11 -24.13,-26.99c5.95,-52.56 -41.35,-141.17 -75.37,-161.55c68.26,-142.62 -206.3,-228.92 -166.5,0.95c-43.43,26.5 -91.66,98.5 -89.38,159.86c-82.78,54.94 -9.08,131.05 48.75,154.24c164.76,66.73 350.93,-26.7 306.62,-126.51z" fill="#407BFF" id="svg_31" opacity="0.1"/>
   <path d="m248.77,465.45c-37.45,0 -73.77,-7.02 -107.96,-20.88c-32.14,-12.88 -68.49,-44.17 -71.27,-72.29c-0.52,-5.38 -2.13,-21.7 26.53,-40.73l10.85,-7.2l-0.49,-13.22c-1.89,-51.05 39.77,-115.47 78.29,-138.97l13.51,-8.23l-2.75,-15.86c-7.59,-43.89 -3.27,-77.27 12.51,-96.57c12.2,-14.89 28.89,-18.01 40.74,-18.01c26.96,0 55.56,16.04 69.56,39.01c12.32,20.23 12.62,43.89 0.87,68.44l-9.31,19.44l18.25,10.91c10.13,6.07 28.17,27.15 43.82,59.05c14.98,30.57 22.63,60.35 20.44,79.71l-1.64,14.5l12.02,7.85c6.65,4.32 11.86,10.11 15.94,17.67c6.98,16.27 5.49,31.99 -4.57,48.01c-24.95,39.67 -92.93,67.38 -165.32,67.38c0,0 0,0 0,0z" fill="#407BFF" id="svg_32" opacity="0.1"/>
   <g id="svg_33">
    <path d="m213.34,227.71l-5.9,6.34l-5.95,6.54c-3.94,4.41 -7.87,8.8 -11.69,13.3c-7.68,8.94 -15.05,18.1 -21.75,27.47l-2.47,3.53l-0.61,0.88l-0.45,0.7c-0.28,0.43 -0.59,0.82 -0.84,1.31c-1.1,1.83 -2.13,3.92 -3.01,6.24c-1.77,4.59 -3.1,9.86 -4.02,15.34c-0.98,5.5 -1.56,11.24 -1.96,17.08c-0.17,2.9 -0.35,5.86 -0.42,8.8c-0.1,2.92 -0.14,6.02 -0.17,8.74l-14.14,2.54c-1.01,-3.35 -1.77,-6.38 -2.47,-9.6c-0.65,-3.17 -1.26,-6.38 -1.7,-9.62c-0.93,-6.49 -1.43,-13.1 -1.36,-19.89c0.05,-3.4 0.23,-6.83 0.61,-10.34c0.4,-3.49 1.03,-7.02 1.91,-10.63c0.89,-3.58 2.06,-7.26 3.78,-10.88c0.37,-0.91 0.89,-1.83 1.35,-2.74c0.23,-0.41 0.49,-0.95 0.7,-1.29l0.59,-1.06l2.47,-4.23c3.31,-5.57 6.84,-10.95 10.52,-16.16c3.62,-5.25 7.51,-10.27 11.39,-15.25c3.94,-4.95 8,-9.77 12.16,-14.46c2.1,-2.37 4.2,-4.69 6.37,-6.99c2.19,-2.33 4.32,-4.5 6.75,-6.88l20.32,21.22z" fill="#CE7A63" id="svg_34"/>
    <path d="m203.08,194.86c19.06,-6.16 29.75,21.61 14.72,42.49c-8.26,11.5 -20.42,23.49 -28.89,32.74l-33.63,-27.76c12.14,-16.5 35.05,-43.35 47.81,-47.47z" fill="#407BFF" id="svg_35"/>
    <path d="m207.32,229.64c-9.41,5.84 -15.57,23.03 -16.97,38.9c5.49,-5.93 12.27,-12.87 18.5,-20.02l-1.52,-18.89z" id="svg_36" opacity="0.2"/>
    <path d="m299.43,285.86c-1.57,38.78 0.45,68.72 0.1,78.6l-104.29,0c-6.63,-101.3 7.28,-163.48 7.84,-169.59c1.08,-0.32 4.72,-1.33 10.22,-2.47c5.23,-1.02 11.76,-2.17 18.43,-2.81c11.53,-1.04 30.45,-0.63 43.5,0c7.61,0.38 15.35,1.34 21.52,2.26c7.44,1.11 12.63,2.2 12.63,2.2c-0.49,2.11 -1.08,4.16 -1.43,6.33c-4.81,29.64 -7.47,59.44 -8.52,85.5z" fill="#407BFF" id="svg_37"/>
    <path d="m290.78,223.78c-3.81,10.11 3.32,35.52 9.08,52.88c0.56,-10.95 1.43,-22.44 2.61,-34.24l-11.69,-18.64z" id="svg_38" opacity="0.2"/>
    <path d="m274.32,139.61l-11.65,9.89l-15.85,13.49c0.47,2.19 0.84,4.41 1.01,6.56c0.86,8.8 -1.36,16.81 -14.02,19.87c0,0 -13.04,11.25 11.18,12.26s31.93,-11.99 31.93,-11.99c-9.48,-9.57 -5.84,-35.71 -2.61,-50.09z" fill="#CE7A63" id="svg_39"/>
    <path d="m246.81,163c0.47,2.19 0.84,4.41 1.01,6.56c5.91,-1.22 13.81,-7.67 14.63,-13.85c0.31,-2.33 0.37,-4.59 0.21,-6.2l-15.85,13.49z" id="svg_40" opacity="0.2"/>
    <path d="m236.82,90.01c-9.55,3.23 -17.29,22.36 -5.81,32.88c11.46,10.52 20.49,-37.86 5.81,-32.88z" fill="#263238" id="svg_41"/>
    <path d="m279.11,118.97c-4.04,19.07 -5.46,30.39 -16.47,39.1c-16.54,13.08 -38.44,1.45 -40.05,-18.26c-1.43,-17.74 5.42,-45.93 25.01,-51.34c19.28,-5.3 35.56,11.45 31.51,30.5z" fill="#CE7A63" id="svg_42"/>
    <path d="m268.28,105.14c-19.41,1.7 -45.95,-1.45 -45.86,-24.12c0.07,-22.65 41.96,-22.54 47.05,-7.51c8.75,-6.9 27.8,3.39 22.61,20.23c5.67,6.07 15.5,23.08 3.55,28.49c-12.72,5.75 -18.71,12.24 -18.71,12.24l-11.08,-1.45c0,0 -0.63,-17.1 2.43,-27.88z" fill="#263238" id="svg_43"/>
    <path d="m283.4,138.86c-3.32,4.1 -7.91,6.5 -11.81,7.2c-5.86,1.02 -7.19,-4.55 -4.2,-9.93c2.68,-4.84 8.96,-11.22 14.21,-9.78c5.16,1.4 5.62,7.83 1.8,12.51z" fill="#CE7A63" id="svg_44"/>
    <path d="m237.82,120.21c0,0 -4.85,8.58 -9.34,12.47c2.33,2.92 7.12,2.29 7.12,2.29l2.22,-14.77z" fill="#BA4D3C" id="svg_45"/>
    <path d="m241.05,139.65c6.07,0.47 9.73,-3.15 9.9,-3.32c0.17,-0.18 0.17,-0.47 0,-0.66c-0.17,-0.18 -0.45,-0.18 -0.63,0c-0.05,0.04 -4.23,4.16 -10.88,2.83c-0.24,-0.05 -0.49,0.11 -0.52,0.36c-0.05,0.25 0.1,0.5 0.35,0.56c0.61,0.11 1.21,0.2 1.78,0.23z" fill="#263238" id="svg_46"/>
    <path d="m257.8,116.8c0.16,0 0.3,-0.04 0.44,-0.11c0.44,-0.25 0.59,-0.82 0.35,-1.27c-2.4,-4.43 -6.6,-4.68 -6.77,-4.69c-0.47,-0.07 -0.93,0.38 -0.94,0.88c-0.03,0.52 0.35,0.95 0.86,0.97c0.17,0.02 3.39,0.27 5.28,3.76c0.16,0.3 0.47,0.47 0.79,0.47z" fill="#263238" id="svg_47"/>
    <path d="m246.69,120.92c-0.1,0.04 -0.21,0.09 -0.3,0.18c-0.28,0.25 -0.3,0.7 -0.05,0.99c2.54,2.83 5.69,2.28 5.81,2.24c0.37,-0.04 0.63,-0.43 0.54,-0.82c-0.07,-0.38 -0.42,-0.63 -0.79,-0.56c-0.14,0.02 -2.55,0.41 -4.55,-1.81c-0.17,-0.2 -0.42,-0.27 -0.66,-0.22z" fill="#263238" id="svg_48"/>
    <path d="m227.76,116.84c-0.1,0.02 -0.21,0.07 -0.3,0.16c-0.28,0.27 -0.3,0.72 -0.03,1c2.57,2.8 5.7,2.19 5.84,2.15c0.35,-0.04 0.61,-0.45 0.52,-0.82c-0.07,-0.38 -0.44,-0.63 -0.8,-0.54c-0.12,0.02 -2.54,0.45 -4.57,-1.76c-0.17,-0.2 -0.42,-0.27 -0.66,-0.2z" fill="#263238" id="svg_49"/>
    <path d="m225.88,111.77c0.3,0 0.58,-0.14 0.75,-0.39c2.33,-3.49 5.7,-3.57 5.74,-3.57c0.49,0 0.89,-0.41 0.89,-0.93c0,-0.5 -0.4,-0.91 -0.91,-0.91c0,0 0,0 0,0c-0.17,0 -4.37,0.07 -7.21,4.35c-0.3,0.43 -0.17,1 0.23,1.29c0.16,0.11 0.33,0.16 0.51,0.16z" fill="#263238" id="svg_50"/>
    <path d="m245.87,364.45l-50.62,0c-15.71,-7.47 -50.52,-12.65 -66.13,-11.2c-15.63,1.45 -24.87,3.26 -30.18,13.46c-5.32,10.18 8.77,22.88 30.36,39.12c21.59,16.24 68.58,30.05 117.1,30.43c0,-16.74 -0.52,-71.8 -0.52,-71.8z" fill="#263238" id="svg_51"/>
    <path d="m245.87,364.45l53.67,0c15.71,-7.47 49,-15.11 64.62,-13.64c15.63,1.45 24.85,3.26 30.18,13.44c5.32,10.18 -12.56,32.99 -35.1,46.86c-22.54,13.87 -64.32,24.77 -112.85,25.14c0,-16.74 -0.52,-71.8 -0.52,-71.8z" fill="#263238" id="svg_52"/>
    <path d="m315.35,370.42c-14.37,3.53 -34.05,12.6 -48.31,20.34c0,-0.18 -0.05,-0.36 -0.09,-0.56c-1.54,-6.93 -0.66,-13.24 7.65,-13.26c14.35,-0.05 24.34,-8.76 30.13,-7.67c2.12,-2.42 9.17,-3.06 10.62,1.15z" fill="#CE7A63" id="svg_53"/>
    <path d="m217.17,382.12c0.03,-7.13 -2.13,-13.1 -10.25,-11.27c-14.02,3.15 -25.62,-3.14 -31.06,-0.77c-2.55,-1.92 -9.59,-0.99 -10.13,3.46c-0.19,1.72 3.04,1.06 7.63,2.04c7.3,1.58 17.99,4.77 23.71,8.78c5.04,3.55 11.41,14.23 11.41,14.23l12.72,-8.8c-0.02,0 -4.06,-2.06 -4.02,-7.67z" fill="#CE7A63" id="svg_54"/>
    <path d="m314.21,206.49c2.29,2.51 4.27,4.73 6.28,7.17c2.03,2.37 3.97,4.78 5.9,7.22c3.83,4.87 7.54,9.86 11.11,14.96c3.52,5.16 7.03,10.32 10.24,15.77c1.66,2.65 3.2,5.47 4.79,8.19c1.49,2.83 3.04,5.57 4.43,8.51l2.13,4.37l1.22,2.81l1.01,2.83c1.26,3.73 1.98,7.42 2.5,11c1.05,7.19 0.91,14 0.42,20.61c-0.59,6.61 -1.63,12.99 -3.08,19.23c-1.47,6.29 -3.18,12.22 -5.58,18.42l-13.93,-3.67c0.19,-2.71 0.4,-5.73 0.52,-8.6c0.17,-2.89 0.23,-5.79 0.31,-8.67c0.09,-5.75 0,-11.43 -0.44,-16.93c-0.42,-5.47 -1.21,-10.79 -2.47,-15.48c-0.63,-2.35 -1.43,-4.52 -2.29,-6.43l-0.66,-1.38l-0.72,-1.24l-2.15,-3.58c-5.81,-9.59 -12.49,-18.94 -19.42,-28.13c-3.46,-4.61 -7.05,-9.14 -10.66,-13.65l-5.46,-6.7l-5.39,-6.5l21.37,-20.11z" fill="#CE7A63" id="svg_55"/>
    <path d="m309.37,194.04c-19.18,-3.78 -33.79,18.67 -22.17,40.75c6.39,12.2 14.33,24.19 21.26,34.12l41.31,-21.11c-9.43,-17.49 -27.56,-51.23 -40.4,-53.76z" fill="#407BFF" id="svg_56"/>
    <path d="m341.74,340.33l-15.01,12.49l23.06,7.28c0,0 11.34,-13.49 4.06,-18.91l-12.11,-0.86z" fill="#CE7A63" id="svg_57"/>
    <polygon fill="#CE7A63" id="svg_58" points="325.74787390232086,371.2542216181755 345.06598913669586,376.32737225294113 349.78180944919586,360.10279339551926 326.72611486911774,352.82017010450363 "/>
    <path d="m153.23,342.21l8.36,15.68l-21.07,2.04c0,0 -8.07,-14.93 0.45,-18.94l12.25,1.22z" fill="#CE7A63" id="svg_59"/>
    <polygon fill="#CE7A63" id="svg_60" points="157.87121069431305,372.9871012568474 140.5234476327896,372.8042704463005 140.5234476327896,359.9414774775505 161.59835302829742,357.89686077833176 "/>
    <g id="svg_61" opacity="0.2">
     <path d="m261.82,315.84c-0.1,-0.02 -0.23,0 -0.33,0.04c-0.37,0.13 -0.56,0.52 -0.44,0.9c1.21,3.64 4.3,4.41 4.43,4.44c0.35,0.11 0.73,-0.14 0.82,-0.52c0.09,-0.39 -0.14,-0.77 -0.51,-0.86c-0.12,-0.02 -2.5,-0.66 -3.45,-3.53c-0.07,-0.25 -0.28,-0.41 -0.52,-0.47z" id="svg_62"/>
     <path d="m244.22,334.6c-0.05,0.09 -0.09,0.22 -0.09,0.34c0,0.38 0.31,0.7 0.7,0.7c3.74,0 5.46,-2.76 5.53,-2.89c0.23,-0.29 0.1,-0.75 -0.23,-0.97c-0.31,-0.2 -0.73,-0.09 -0.94,0.23c-0.07,0.13 -1.42,2.2 -4.36,2.22c-0.26,0 -0.49,0.14 -0.61,0.36z" id="svg_63"/>
     <path d="m231.1,351.16c-0.05,0.09 -0.09,0.22 -0.09,0.34c0,0.38 0.3,0.7 0.68,0.7c3.76,0 5.46,-2.76 5.53,-2.89c0.23,-0.29 0.1,-0.75 -0.21,-0.97c-0.33,-0.2 -0.75,-0.09 -0.94,0.23c-0.07,0.11 -1.42,2.2 -4.37,2.2c-0.26,0.02 -0.49,0.16 -0.59,0.38z" id="svg_64"/>
     <path d="m280.08,354.76c-0.07,0.09 -0.09,0.22 -0.09,0.34c0,0.38 0.3,0.7 0.68,0.7c3.76,0 5.46,-2.76 5.53,-2.89c0.23,-0.29 0.1,-0.75 -0.23,-0.97c-0.31,-0.2 -0.73,-0.09 -0.94,0.23c-0.07,0.11 -1.42,2.2 -4.36,2.2c-0.26,0 -0.49,0.16 -0.59,0.38z" id="svg_65"/>
     <path d="m231.97,324.35c-0.05,0.11 -0.09,0.22 -0.09,0.34c0,0.39 0.31,0.7 0.68,0.7c3.76,0 5.48,-2.76 5.55,-2.87c0.21,-0.3 0.09,-0.77 -0.23,-0.97c-0.33,-0.22 -0.75,-0.11 -0.94,0.22c-0.07,0.13 -1.42,2.22 -4.37,2.22c-0.24,0 -0.47,0.14 -0.59,0.36z" id="svg_66"/>
     <path d="m207.72,321.44c-0.05,0.09 -0.09,0.22 -0.09,0.34c0,0.38 0.31,0.7 0.7,0.7c3.74,0 5.46,-2.76 5.53,-2.89c0.21,-0.29 0.1,-0.75 -0.23,-0.97c-0.31,-0.2 -0.73,-0.09 -0.94,0.23c-0.07,0.11 -1.42,2.2 -4.36,2.2c-0.26,0.02 -0.49,0.16 -0.61,0.38z" id="svg_67"/>
     <path d="m229.68,268.9c-0.12,-0.02 -0.23,-0.02 -0.35,0.04c-0.37,0.13 -0.56,0.52 -0.44,0.9c1.21,3.64 4.3,4.41 4.43,4.44c0.35,0.11 0.75,-0.14 0.84,-0.52c0.09,-0.39 -0.16,-0.77 -0.52,-0.86c-0.12,-0.02 -2.48,-0.66 -3.43,-3.53c-0.09,-0.25 -0.3,-0.41 -0.52,-0.47z" id="svg_68"/>
     <path d="m217.08,288.38c-0.1,0.04 -0.19,0.09 -0.28,0.2c-0.26,0.29 -0.23,0.73 0.05,0.99c2.8,2.56 5.86,1.68 6,1.63c0.35,-0.05 0.56,-0.48 0.45,-0.86c-0.1,-0.38 -0.49,-0.59 -0.84,-0.48c-0.14,0.04 -2.5,0.68 -4.71,-1.34c-0.19,-0.16 -0.45,-0.22 -0.68,-0.13z" id="svg_69"/>
     <path d="m203.71,279.4c-0.07,0.11 -0.09,0.22 -0.09,0.34c0,0.39 0.3,0.7 0.68,0.7c3.74,0 5.46,-2.76 5.53,-2.87c0.23,-0.3 0.1,-0.77 -0.23,-0.97c-0.31,-0.22 -0.73,-0.11 -0.94,0.22c-0.07,0.13 -1.42,2.22 -4.36,2.22c-0.26,0 -0.49,0.14 -0.59,0.36z" id="svg_70"/>
     <path d="m245.46,282.97c-0.1,-0.02 -0.23,-0.02 -0.35,0.04c-0.35,0.13 -0.54,0.52 -0.42,0.88c1.21,3.66 4.29,4.43 4.43,4.46c0.33,0.11 0.73,-0.14 0.82,-0.54c0.09,-0.38 -0.14,-0.75 -0.51,-0.84c-0.14,-0.02 -2.5,-0.66 -3.45,-3.53c-0.09,-0.25 -0.28,-0.41 -0.52,-0.47z" id="svg_71"/>
     <path d="m221.49,332.63c-0.1,-0.04 -0.23,-0.02 -0.33,0.02c-0.37,0.13 -0.56,0.52 -0.44,0.9c1.21,3.64 4.3,4.41 4.43,4.44c0.35,0.13 0.73,-0.14 0.82,-0.52c0.09,-0.38 -0.14,-0.75 -0.51,-0.84c-0.12,-0.04 -2.5,-0.68 -3.45,-3.53c-0.07,-0.25 -0.28,-0.43 -0.52,-0.47z" id="svg_72"/>
     <path d="m203.68,297.99c-0.1,-0.02 -0.23,-0.02 -0.33,0.02c-0.37,0.13 -0.56,0.54 -0.44,0.9c1.21,3.64 4.3,4.43 4.43,4.44c0.35,0.13 0.75,-0.14 0.82,-0.52c0.09,-0.38 -0.14,-0.75 -0.51,-0.84c-0.12,-0.04 -2.48,-0.66 -3.43,-3.53c-0.09,-0.25 -0.3,-0.43 -0.54,-0.47z" id="svg_73"/>
     <path d="m266.3,294.78c-0.1,-0.02 -0.23,-0.02 -0.35,0.04c-0.35,0.13 -0.54,0.52 -0.42,0.88c1.21,3.66 4.3,4.43 4.43,4.46c0.33,0.11 0.73,-0.14 0.82,-0.54c0.09,-0.38 -0.14,-0.75 -0.51,-0.84c-0.12,-0.02 -2.5,-0.66 -3.45,-3.53c-0.07,-0.25 -0.28,-0.41 -0.52,-0.47z" id="svg_74"/>
     <path d="m257.94,343.06c-0.1,-0.02 -0.23,-0.02 -0.35,0.02c-0.35,0.13 -0.54,0.52 -0.42,0.9c1.21,3.64 4.3,4.43 4.43,4.44c0.33,0.13 0.73,-0.14 0.82,-0.52c0.09,-0.38 -0.14,-0.75 -0.51,-0.84c-0.12,-0.04 -2.5,-0.68 -3.45,-3.53c-0.07,-0.25 -0.28,-0.43 -0.52,-0.47z" id="svg_75"/>
     <path d="m241.6,307.74c-0.07,0.09 -0.12,0.2 -0.14,0.32c-0.07,0.39 0.17,0.75 0.54,0.82c3.69,0.73 5.88,-1.65 5.97,-1.76c0.26,-0.23 0.24,-0.72 -0.03,-0.99c-0.28,-0.27 -0.72,-0.25 -0.98,0.04c-0.09,0.11 -1.78,1.9 -4.69,1.33c-0.26,-0.05 -0.51,0.05 -0.66,0.23z" id="svg_76"/>
     <path d="m226.86,303.26c0.02,0.11 0.05,0.23 0.12,0.32c0.23,0.32 0.65,0.39 0.96,0.18c3.06,-2.22 2.92,-5.48 2.9,-5.61c0.02,-0.38 -0.35,-0.7 -0.72,-0.66c-0.38,0.02 -0.66,0.34 -0.65,0.73c0,0.14 0.07,2.63 -2.33,4.39c-0.21,0.14 -0.31,0.39 -0.3,0.65z" id="svg_77"/>
     <path d="m279.08,274.17c0.02,0.13 0.05,0.23 0.12,0.34c0.21,0.3 0.65,0.39 0.96,0.16c3.06,-2.22 2.9,-5.48 2.9,-5.61c0,-0.38 -0.35,-0.68 -0.73,-0.66c-0.38,0.02 -0.66,0.36 -0.65,0.73c0.02,0.14 0.09,2.65 -2.33,4.39c-0.21,0.14 -0.31,0.39 -0.28,0.65z" id="svg_78"/>
     <path d="m190.05,215.11c0.02,0.11 0.05,0.23 0.12,0.32c0.21,0.32 0.65,0.39 0.94,0.18c3.08,-2.22 2.92,-5.48 2.92,-5.61c0,-0.38 -0.35,-0.7 -0.73,-0.66c-0.38,0.02 -0.66,0.36 -0.65,0.73c0,0.14 0.09,2.63 -2.33,4.39c-0.21,0.14 -0.31,0.39 -0.28,0.65z" id="svg_79"/>
     <path d="m207.95,260.14c0.02,0.13 0.05,0.23 0.12,0.34c0.23,0.32 0.65,0.39 0.96,0.16c3.06,-2.2 2.92,-5.47 2.9,-5.61c0.02,-0.36 -0.35,-0.68 -0.72,-0.66c-0.38,0.02 -0.66,0.36 -0.65,0.75c0,0.13 0.07,2.63 -2.33,4.37c-0.21,0.16 -0.31,0.41 -0.3,0.65z" id="svg_80"/>
     <path d="m271.62,253.85c-0.12,-0.04 -0.23,-0.02 -0.35,0.02c-0.37,0.13 -0.56,0.52 -0.44,0.9c1.21,3.64 4.3,4.41 4.43,4.44c0.35,0.13 0.75,-0.14 0.84,-0.52c0.07,-0.38 -0.16,-0.75 -0.52,-0.84c-0.12,-0.04 -2.48,-0.68 -3.43,-3.53c-0.09,-0.25 -0.3,-0.43 -0.52,-0.47z" id="svg_81"/>
     <path d="m258.85,275.66c-0.05,0.09 -0.09,0.22 -0.09,0.34c0,0.39 0.31,0.7 0.68,0.7c3.76,0 5.48,-2.76 5.53,-2.89c0.23,-0.29 0.1,-0.75 -0.21,-0.95c-0.33,-0.22 -0.75,-0.11 -0.94,0.22c-0.07,0.11 -1.42,2.2 -4.37,2.22c-0.26,0 -0.49,0.14 -0.59,0.36z" id="svg_82"/>
     <path d="m276.59,333.92c-0.07,0.09 -0.12,0.2 -0.14,0.32c-0.07,0.38 0.17,0.75 0.54,0.82c3.69,0.72 5.88,-1.65 5.97,-1.76c0.26,-0.25 0.24,-0.73 -0.03,-0.99c-0.28,-0.27 -0.72,-0.25 -0.98,0.04c-0.09,0.09 -1.8,1.88 -4.69,1.33c-0.26,-0.05 -0.51,0.04 -0.66,0.23z" id="svg_83"/>
     <path d="m208.96,348.43c-0.1,-0.04 -0.23,-0.02 -0.35,0.02c-0.35,0.13 -0.54,0.52 -0.42,0.9c1.19,3.64 4.29,4.41 4.43,4.44c0.33,0.13 0.73,-0.14 0.82,-0.52c0.09,-0.38 -0.14,-0.77 -0.51,-0.84c-0.14,-0.04 -2.5,-0.68 -3.45,-3.53c-0.09,-0.25 -0.28,-0.43 -0.52,-0.47z" id="svg_84"/>
     <path d="m281.21,315.35c-0.07,0.09 -0.12,0.2 -0.14,0.32c-0.05,0.39 0.21,0.75 0.59,0.79c3.71,0.54 5.77,-1.94 5.86,-2.04c0.26,-0.27 0.21,-0.75 -0.09,-1c-0.3,-0.25 -0.72,-0.2 -0.96,0.09c-0.09,0.11 -1.71,1.99 -4.62,1.58c-0.26,-0.04 -0.51,0.07 -0.65,0.27z" id="svg_85"/>
     <path d="m259.73,222.42c-0.12,-0.02 -0.23,-0.02 -0.35,0.02c-0.37,0.13 -0.56,0.54 -0.44,0.9c1.21,3.64 4.3,4.43 4.43,4.44c0.35,0.13 0.75,-0.14 0.84,-0.52c0.07,-0.38 -0.16,-0.75 -0.52,-0.84c-0.12,-0.04 -2.48,-0.66 -3.43,-3.53c-0.09,-0.25 -0.3,-0.43 -0.52,-0.47z" id="svg_86"/>
     <path d="m304.89,213.85c-0.12,-0.02 -0.23,-0.02 -0.35,0.02c-0.35,0.13 -0.54,0.54 -0.42,0.9c1.19,3.64 4.29,4.43 4.43,4.44c0.33,0.13 0.73,-0.14 0.82,-0.52c0.09,-0.38 -0.14,-0.75 -0.51,-0.84c-0.14,-0.04 -2.5,-0.66 -3.45,-3.53c-0.09,-0.25 -0.3,-0.43 -0.52,-0.47z" id="svg_87"/>
     <path d="m242.12,244.8c-0.05,0.09 -0.09,0.22 -0.09,0.34c0,0.38 0.31,0.7 0.68,0.7c3.76,0 5.46,-2.76 5.53,-2.89c0.23,-0.29 0.1,-0.75 -0.21,-0.97c-0.33,-0.2 -0.75,-0.09 -0.94,0.23c-0.07,0.11 -1.42,2.2 -4.37,2.22c-0.26,-0.02 -0.47,0.14 -0.59,0.36z" id="svg_88"/>
     <path d="m322.11,228.75c-0.05,0.11 -0.09,0.22 -0.09,0.34c0,0.39 0.31,0.7 0.7,0.7c3.74,0 5.46,-2.76 5.53,-2.87c0.21,-0.3 0.1,-0.77 -0.23,-0.97c-0.31,-0.22 -0.75,-0.11 -0.94,0.22c-0.07,0.13 -1.42,2.22 -4.36,2.22c-0.26,0 -0.49,0.14 -0.61,0.36z" id="svg_89"/>
     <path d="m229.86,230c-0.05,0.09 -0.09,0.22 -0.09,0.34c0,0.38 0.31,0.7 0.7,0.7c3.74,0 5.46,-2.76 5.53,-2.89c0.21,-0.29 0.1,-0.75 -0.23,-0.97c-0.31,-0.2 -0.73,-0.09 -0.94,0.23c-0.07,0.11 -1.42,2.2 -4.36,2.2c-0.26,0 -0.49,0.16 -0.61,0.38z" id="svg_90"/>
     <path d="m212.02,202.69c-0.05,0.09 -0.09,0.22 -0.09,0.34c0,0.38 0.31,0.7 0.7,0.7c3.74,-0.02 5.46,-2.76 5.53,-2.89c0.23,-0.29 0.1,-0.75 -0.23,-0.97c-0.31,-0.2 -0.73,-0.09 -0.94,0.23c-0.07,0.11 -1.42,2.2 -4.36,2.2c-0.26,0 -0.49,0.16 -0.61,0.38z" id="svg_91"/>
     <path d="m205.62,228.01c-0.05,0.11 -0.09,0.22 -0.09,0.34c0,0.39 0.3,0.72 0.68,0.72c3.76,-0.02 5.46,-2.76 5.53,-2.89c0.23,-0.29 0.1,-0.75 -0.21,-0.97c-0.33,-0.2 -0.75,-0.11 -0.94,0.23c-0.07,0.11 -1.42,2.2 -4.37,2.2c-0.26,0 -0.47,0.14 -0.59,0.36z" id="svg_92"/>
     <path d="m185.79,231.97c-0.05,0.11 -0.09,0.22 -0.09,0.34c0,0.39 0.3,0.7 0.68,0.7c3.76,0 5.46,-2.76 5.53,-2.87c0.23,-0.3 0.1,-0.77 -0.21,-0.97c-0.33,-0.22 -0.75,-0.11 -0.94,0.22c-0.07,0.13 -1.42,2.22 -4.37,2.22c-0.26,0 -0.49,0.14 -0.59,0.36z" id="svg_93"/>
     <path d="m219.39,239.19c-0.1,-0.02 -0.23,-0.02 -0.35,0.04c-0.35,0.13 -0.54,0.52 -0.42,0.88c1.19,3.66 4.29,4.43 4.43,4.46c0.33,0.11 0.73,-0.14 0.82,-0.54c0.09,-0.38 -0.14,-0.75 -0.51,-0.84c-0.14,-0.02 -2.5,-0.66 -3.45,-3.53c-0.09,-0.25 -0.3,-0.41 -0.52,-0.47z" id="svg_94"/>
     <path d="m232.92,212.78c-0.07,0.09 -0.12,0.2 -0.16,0.32c-0.07,0.38 0.17,0.75 0.56,0.82c3.67,0.73 5.86,-1.65 5.95,-1.76c0.28,-0.23 0.24,-0.72 -0.03,-0.99c-0.28,-0.27 -0.72,-0.25 -0.96,0.04c-0.09,0.11 -1.8,1.9 -4.71,1.33c-0.24,-0.05 -0.49,0.05 -0.65,0.23z" id="svg_95"/>
     <path d="m273.72,237.9c-0.07,0.09 -0.12,0.2 -0.14,0.32c-0.07,0.38 0.16,0.75 0.54,0.82c3.67,0.72 5.88,-1.65 5.97,-1.76c0.26,-0.23 0.23,-0.72 -0.05,-0.99c-0.26,-0.27 -0.7,-0.25 -0.96,0.04c-0.09,0.11 -1.8,1.9 -4.69,1.33c-0.26,-0.05 -0.51,0.05 -0.66,0.23z" id="svg_96"/>
     <path d="m299.29,237.9c-0.07,0.09 -0.12,0.2 -0.16,0.32c-0.07,0.38 0.17,0.75 0.54,0.82c3.69,0.72 5.88,-1.65 5.97,-1.76c0.28,-0.23 0.24,-0.72 -0.03,-0.99c-0.28,-0.27 -0.72,-0.25 -0.96,0.04c-0.09,0.11 -1.8,1.9 -4.71,1.33c-0.24,-0.05 -0.49,0.05 -0.65,0.23z" id="svg_97"/>
     <path d="m279.1,216.99c-0.07,0.09 -0.1,0.22 -0.12,0.34c-0.05,0.38 0.21,0.73 0.58,0.79c3.73,0.54 5.79,-1.95 5.88,-2.06c0.24,-0.27 0.19,-0.75 -0.09,-0.99c-0.3,-0.25 -0.73,-0.22 -0.98,0.09c-0.09,0.09 -1.7,1.97 -4.62,1.56c-0.26,-0.04 -0.51,0.07 -0.65,0.27z" id="svg_98"/>
     <path d="m308.69,250.88c-0.1,0.05 -0.19,0.14 -0.26,0.23c-0.21,0.32 -0.12,0.77 0.19,0.99c3.15,2.11 6.05,0.79 6.18,0.72c0.33,-0.11 0.49,-0.57 0.33,-0.93c-0.16,-0.34 -0.56,-0.5 -0.91,-0.34c-0.12,0.05 -2.38,1.04 -4.83,-0.63c-0.23,-0.14 -0.49,-0.14 -0.7,-0.04z" id="svg_99"/>
     <path d="m281.21,200.56c-0.07,0.09 -0.12,0.2 -0.14,0.32c-0.05,0.39 0.21,0.73 0.59,0.79c3.71,0.54 5.77,-1.95 5.86,-2.06c0.26,-0.25 0.21,-0.73 -0.09,-0.99c-0.3,-0.25 -0.72,-0.2 -0.96,0.09c-0.09,0.11 -1.71,1.99 -4.62,1.58c-0.26,-0.04 -0.51,0.07 -0.65,0.27z" id="svg_100"/>
     <path d="m330.59,242.38c0.05,0.11 0.12,0.2 0.21,0.27c0.31,0.23 0.75,0.16 0.96,-0.16c2.19,-3.12 1,-6.15 0.94,-6.27c-0.1,-0.36 -0.56,-0.54 -0.91,-0.38c-0.35,0.14 -0.51,0.56 -0.37,0.91c0.05,0.13 0.93,2.46 -0.79,4.93c-0.14,0.22 -0.16,0.48 -0.05,0.7z" id="svg_101"/>
     <path d="m284.63,287.29c-0.07,0.11 -0.09,0.22 -0.09,0.34c0,0.39 0.3,0.72 0.68,0.7c3.76,0 5.46,-2.76 5.53,-2.87c0.23,-0.29 0.1,-0.77 -0.23,-0.97c-0.31,-0.2 -0.73,-0.11 -0.94,0.23c-0.07,0.11 -1.42,2.2 -4.36,2.2c-0.26,0 -0.49,0.14 -0.59,0.36z" id="svg_102"/>
     <path d="m172.11,235.57c0,0.11 0.05,0.22 0.1,0.32c0.23,0.32 0.65,0.39 0.96,0.18c3.06,-2.22 2.92,-5.48 2.9,-5.63c0.02,-0.36 -0.35,-0.68 -0.72,-0.66c-0.38,0.04 -0.66,0.36 -0.65,0.75c0,0.13 0.09,2.63 -2.33,4.37c-0.21,0.16 -0.31,0.41 -0.28,0.66z" id="svg_103"/>
     <path d="m177.64,248.69c-0.05,0.09 -0.09,0.22 -0.09,0.34c0,0.39 0.31,0.7 0.68,0.7c3.76,0 5.48,-2.76 5.55,-2.87c0.21,-0.3 0.09,-0.77 -0.23,-0.97c-0.33,-0.22 -0.75,-0.11 -0.94,0.22c-0.07,0.13 -1.42,2.2 -4.37,2.22c-0.24,0 -0.47,0.14 -0.59,0.36z" id="svg_104"/>
     <path d="m245.64,264.33c-0.05,0.11 -0.07,0.22 -0.07,0.34c0,0.39 0.3,0.7 0.68,0.7c3.74,0 5.46,-2.76 5.53,-2.87c0.23,-0.29 0.1,-0.77 -0.23,-0.97c-0.31,-0.22 -0.73,-0.11 -0.94,0.23c-0.07,0.11 -1.42,2.2 -4.36,2.2c-0.26,0 -0.49,0.14 -0.61,0.36z" id="svg_105"/>
    </g>
   </g>
  </g>
 </g>
</svg>