<?xml version="1.0"?>
<svg width="500" height="500" xmlns="http://www.w3.org/2000/svg" xmlns:svg="http://www.w3.org/2000/svg" enable-background="new 0 0 500 500" version="1.1" xml:space="preserve">
 <g class="layer">
  <title>Layer 1</title>
  <g display="none" id="Background_Simple" transform="matrix(1 0 0 1 0 0)">
   <g id="svg_24">
    <path d="m-208.15,115.74c40.56,102.15 -47.11,102.81 -72.68,143.22c-25.62,40.49 -98.49,61.87 -132.13,-26.23c-28.08,-73.55 49.26,-55.19 92.45,-82.29c35.41,-22.22 71.81,-136.84 112.36,-34.7z" display="inline" fill="#407BFF" id="svg_25"/>
    <path d="m-208.15,115.74c40.56,102.15 -47.11,102.81 -72.68,143.22c-25.62,40.49 -98.49,61.87 -132.13,-26.23c-28.08,-73.55 49.26,-55.19 92.45,-82.29c35.41,-22.22 71.81,-136.84 112.36,-34.7z" display="inline" fill="#FFFFFF" id="svg_26" opacity="0.9"/>
   </g>
   <g display="inline" id="svg_27">
    <ellipse cx="-308.27" cy="184.04" fill="#407BFF" id="svg_28" rx="155.12" ry="154.63"/>
    <ellipse cx="-308.27" cy="184.04" fill="#FFFFFF" id="svg_29" opacity="0.9" rx="155.12" ry="154.63"/>
   </g>
  </g>
  <g id="Shadow_1_" transform="matrix(1 0 0 1 0 0)">
   <ellipse cx="254.5" cy="453.24" fill="#F5F5F5" id="_x3C_Path_x3E__47_" rx="209.39" ry="16.32"/>
  </g>
  <g id="Character">
   <path d="m408.31,297.08c-5.66,-10.38 -13.02,-17.47 -20.8,-22.33c5.13,-43.5 -35.65,-116.83 -64.98,-133.7c58.85,-118.04 -177.87,-189.46 -143.55,0.79c-37.44,21.93 -79.02,81.52 -77.06,132.3c-71.37,45.47 -7.83,108.46 42.03,127.65c142.05,55.23 302.56,-22.1 264.36,-104.7z" fill="#407BFF" id="svg_31" opacity="0.1"/>
   <path d="m244.25,401.13c-32.29,0 -63.6,-5.81 -93.08,-17.28c-27.71,-10.66 -59.05,-36.56 -61.45,-59.83c-0.45,-4.45 -1.84,-17.96 22.87,-33.71l9.35,-5.96l-0.42,-10.94c-1.63,-42.25 34.29,-95.57 67.5,-115.01l11.65,-6.81l-2.37,-13.12c-6.55,-36.32 -2.82,-63.95 10.79,-79.92c10.52,-12.32 24.91,-14.9 35.12,-14.9c23.25,0 47.9,13.27 59.97,32.29c10.62,16.74 10.88,36.32 0.75,56.64l-8.03,16.09l15.74,9.03c8.74,5.03 24.29,22.47 37.78,48.87c12.91,25.3 19.51,49.95 17.62,65.97l-1.42,12l10.36,6.5c5.73,3.57 10.23,8.36 13.74,14.62c6.02,13.47 4.74,26.47 -3.94,39.73c-21.51,32.83 -80.12,55.76 -142.54,55.76c0,0 0,0 0,0z" fill="#407BFF" id="svg_32" opacity="0.1"/>
   <g id="svg_33">
    <path d="m213.7,204.37l-5.08,5.25l-5.13,5.41c-3.39,3.65 -6.79,7.28 -10.08,11c-6.62,7.4 -12.97,14.98 -18.75,22.74l-2.13,2.92l-0.53,0.73l-0.39,0.58c-0.24,0.36 -0.51,0.68 -0.72,1.08c-0.95,1.51 -1.84,3.25 -2.59,5.16c-1.52,3.8 -2.67,8.16 -3.47,12.69c-0.84,4.55 -1.34,9.3 -1.69,14.13c-0.15,2.4 -0.3,4.85 -0.36,7.28c-0.09,2.42 -0.12,4.98 -0.15,7.24l-12.19,2.11c-0.88,-2.77 -1.52,-5.28 -2.13,-7.95c-0.56,-2.62 -1.09,-5.28 -1.46,-7.96c-0.8,-5.37 -1.24,-10.84 -1.18,-16.46c0.05,-2.82 0.2,-5.65 0.53,-8.56c0.35,-2.89 0.89,-5.81 1.64,-8.79c0.77,-2.97 1.78,-6.01 3.26,-9c0.32,-0.76 0.77,-1.51 1.16,-2.27c0.2,-0.34 0.42,-0.79 0.6,-1.07l0.51,-0.87l2.13,-3.5c2.85,-4.61 5.9,-9.06 9.07,-13.38c3.12,-4.35 6.47,-8.5 9.82,-12.62c3.39,-4.09 6.89,-8.08 10.49,-11.97c1.81,-1.96 3.62,-3.89 5.49,-5.78c1.89,-1.93 3.73,-3.72 5.82,-5.69l17.52,17.56z" fill="#CE7A63" id="svg_34"/>
    <path d="m204.86,177.19c16.43,-5.1 25.65,17.89 12.69,35.16c-7.12,9.52 -17.61,19.44 -24.91,27.1l-29,-22.97c10.47,-13.66 30.22,-35.87 41.22,-39.29z" fill="#407BFF" id="svg_35"/>
    <path d="m208.51,205.98c-8.12,4.83 -13.43,19.06 -14.63,32.2c4.74,-4.91 10.58,-10.65 15.95,-16.57l-1.31,-15.63z" id="svg_36" opacity="0.2"/>
    <path d="m287.92,252.5c-1.36,32.09 0.39,56.87 0.09,65.05l-89.92,0c-5.72,-83.84 6.28,-135.3 6.76,-140.36c0.94,-0.27 4.07,-1.1 8.81,-2.05c4.51,-0.85 10.14,-1.79 15.89,-2.33c9.94,-0.86 26.25,-0.52 37.51,0c6.56,0.31 13.23,1.11 18.56,1.87c6.41,0.92 10.89,1.82 10.89,1.82c-0.42,1.75 -0.94,3.44 -1.24,5.24c-4.15,24.53 -6.44,49.19 -7.35,70.76z" fill="#407BFF" id="svg_37"/>
    <path d="m280.47,201.13c-3.29,8.36 2.87,29.39 7.83,43.76c0.48,-9.06 1.24,-18.57 2.25,-28.34l-10.08,-15.42z" id="svg_38" opacity="0.2"/>
    <path d="m266.27,131.47l-10.05,8.19l-13.67,11.17c0.41,1.81 0.72,3.65 0.88,5.43c0.74,7.28 -1.18,13.91 -12.08,16.45c0,0 -11.24,9.31 9.64,10.14s27.53,-9.92 27.53,-9.92c-8.18,-7.92 -5.04,-29.56 -2.25,-41.45z" fill="#CE7A63" id="svg_39"/>
    <path d="m242.56,150.82c0.41,1.81 0.72,3.65 0.88,5.43c5.1,-1.01 11.9,-6.35 12.61,-11.46c0.27,-1.93 0.32,-3.8 0.18,-5.13l-13.67,11.17z" id="svg_40" opacity="0.2"/>
    <path d="m233.94,90.42c-8.24,2.67 -14.91,18.51 -5.01,27.21c9.88,8.71 17.67,-31.34 5.01,-27.21z" fill="#263238" id="svg_41"/>
    <path d="m270.41,114.38c-3.48,15.78 -4.71,25.15 -14.2,32.36c-14.26,10.83 -33.15,1.2 -34.53,-15.11c-1.24,-14.68 4.68,-38.01 21.56,-42.49c16.63,-4.39 30.66,9.48 27.17,25.24z" fill="#CE7A63" id="svg_42"/>
    <path d="m261.07,102.93c-16.73,1.41 -39.62,-1.2 -39.54,-19.96c0.06,-18.75 36.18,-18.66 40.57,-6.21c7.54,-5.71 23.97,2.8 19.49,16.74c4.89,5.03 13.37,19.1 3.06,23.58c-10.97,4.76 -16.13,10.13 -16.13,10.13l-9.55,-1.2c0,0 -0.54,-14.15 2.1,-23.08z" fill="#263238" id="svg_43"/>
    <path d="m274.1,130.84c-2.87,3.4 -6.82,5.38 -10.18,5.96c-5.05,0.85 -6.2,-3.77 -3.62,-8.22c2.31,-4 7.72,-9.28 12.25,-8.1c4.45,1.16 4.84,6.48 1.55,10.35z" fill="#CE7A63" id="svg_44"/>
    <path d="m234.8,115.41c0,0 -4.18,7.1 -8.06,10.32c2.01,2.42 6.14,1.9 6.14,1.9l1.92,-12.22z" fill="#BA4D3C" id="svg_45"/>
    <path d="m237.59,131.5c5.24,0.39 8.39,-2.61 8.54,-2.74c0.15,-0.15 0.15,-0.39 0,-0.55c-0.15,-0.15 -0.39,-0.15 -0.54,0c-0.05,0.03 -3.65,3.44 -9.38,2.34c-0.21,-0.04 -0.42,0.09 -0.45,0.3c-0.05,0.21 0.09,0.42 0.3,0.46c0.53,0.09 1.04,0.16 1.54,0.19z" fill="#263238" id="svg_46"/>
    <path d="m252.03,112.59c0.14,0 0.26,-0.03 0.38,-0.09c0.38,-0.21 0.51,-0.68 0.3,-1.05c-2.07,-3.66 -5.69,-3.87 -5.84,-3.89c-0.41,-0.06 -0.8,0.31 -0.81,0.73c-0.03,0.43 0.3,0.79 0.74,0.8c0.15,0.01 2.93,0.22 4.56,3.11c0.14,0.25 0.41,0.39 0.68,0.39z" fill="#263238" id="svg_47"/>
    <path d="m242.45,116c-0.09,0.03 -0.18,0.07 -0.26,0.15c-0.24,0.21 -0.26,0.58 -0.05,0.82c2.19,2.34 4.9,1.88 5.01,1.85c0.32,-0.03 0.54,-0.36 0.47,-0.68c-0.06,-0.31 -0.36,-0.52 -0.68,-0.46c-0.12,0.01 -2.2,0.34 -3.92,-1.5c-0.15,-0.16 -0.36,-0.22 -0.57,-0.18z" fill="#263238" id="svg_48"/>
    <path d="m226.13,112.62c-0.09,0.01 -0.18,0.06 -0.26,0.13c-0.24,0.22 -0.26,0.59 -0.03,0.83c2.22,2.31 4.92,1.81 5.04,1.78c0.3,-0.03 0.53,-0.37 0.45,-0.68c-0.06,-0.31 -0.38,-0.52 -0.69,-0.44c-0.11,0.01 -2.19,0.37 -3.94,-1.45c-0.15,-0.16 -0.36,-0.22 -0.57,-0.16z" fill="#263238" id="svg_49"/>
    <path d="m224.51,108.42c0.26,0 0.5,-0.12 0.65,-0.33c2.01,-2.89 4.92,-2.95 4.95,-2.95c0.42,0 0.77,-0.34 0.77,-0.77c0,-0.42 -0.35,-0.76 -0.78,-0.76c0,0 0,0 0,0c-0.15,0 -3.77,0.06 -6.22,3.6c-0.26,0.36 -0.15,0.83 0.2,1.07c0.14,0.09 0.29,0.13 0.44,0.13z" fill="#263238" id="svg_50"/>
    <path d="m241.74,317.55l-43.65,0c-13.55,-6.18 -43.55,-10.47 -57.01,-9.27c-13.47,1.2 -21.44,2.7 -26.02,11.14c-4.59,8.42 7.56,18.94 26.18,32.37c18.62,13.44 59.12,24.87 100.96,25.18c0,-13.85 -0.45,-59.43 -0.45,-59.43z" fill="#263238" id="svg_51"/>
    <path d="m241.74,317.55l46.27,0c13.55,-6.18 42.24,-12.5 55.71,-11.29c13.47,1.2 21.42,2.7 26.02,11.12c4.59,8.42 -10.83,27.3 -30.26,38.78c-19.43,11.48 -55.46,20.5 -97.29,20.81c0,-13.85 -0.45,-59.43 -0.45,-59.43z" fill="#263238" id="svg_52"/>
    <path d="m301.65,322.48c-12.39,2.92 -29.36,10.43 -41.65,16.83c0,-0.15 -0.05,-0.3 -0.08,-0.46c-1.33,-5.74 -0.57,-10.96 6.59,-10.97c12.37,-0.04 20.99,-7.25 25.98,-6.35c1.83,-2 7.91,-2.54 9.16,0.95z" fill="#CE7A63" id="svg_53"/>
    <path d="m217,332.17c0.03,-5.9 -1.84,-10.84 -8.84,-9.33c-12.08,2.61 -22.09,-2.6 -26.78,-0.64c-2.2,-1.59 -8.27,-0.82 -8.74,2.86c-0.17,1.42 2.63,0.87 6.58,1.69c6.29,1.31 15.51,3.94 20.44,7.27c4.34,2.94 9.84,11.78 9.84,11.78l10.97,-7.28c-0.02,0 -3.5,-1.71 -3.47,-6.35z" fill="#CE7A63" id="svg_54"/>
    <path d="m300.67,186.81c1.98,2.08 3.68,3.92 5.42,5.93c1.75,1.96 3.42,3.96 5.08,5.98c3.3,4.03 6.5,8.16 9.58,12.38c3.03,4.27 6.06,8.54 8.83,13.05c1.43,2.19 2.76,4.52 4.13,6.78c1.28,2.34 2.63,4.61 3.82,7.04l1.84,3.62l1.06,2.33l0.88,2.34c1.09,3.08 1.7,6.14 2.16,9.11c0.91,5.95 0.78,11.58 0.36,17.06c-0.51,5.47 -1.4,10.75 -2.66,15.91c-1.27,5.21 -2.75,10.11 -4.81,15.25l-12.01,-3.04c0.17,-2.24 0.35,-4.75 0.45,-7.12c0.15,-2.39 0.2,-4.79 0.27,-7.18c0.08,-4.76 0,-9.46 -0.38,-14.01c-0.36,-4.52 -1.04,-8.93 -2.13,-12.81c-0.54,-1.94 -1.24,-3.74 -1.98,-5.32l-0.57,-1.14l-0.62,-1.02l-1.86,-2.97c-5.01,-7.93 -10.77,-15.68 -16.75,-23.28c-2.99,-3.81 -6.08,-7.56 -9.19,-11.3l-4.71,-5.55l-4.65,-5.38l18.42,-16.64z" fill="#CE7A63" id="svg_55"/>
    <path d="m296.49,176.51c-16.53,-3.13 -29.13,15.45 -19.11,33.72c5.51,10.1 12.36,20.02 18.33,28.24l35.62,-17.47c-8.13,-14.47 -23.76,-42.4 -34.83,-44.49z" fill="#407BFF" id="svg_56"/>
    <path d="m324.4,297.58l-12.94,10.34l19.88,6.02c0,0 9.78,-11.17 3.5,-15.65l-10.44,-0.71z" fill="#CE7A63" id="svg_57"/>
    <polygon fill="#CE7A63" id="svg_58" points="310.6133117675781,323.1753845214844 327.2688903808594,327.3739013671875 331.3347473144531,313.94635009765625 311.4567565917969,307.9192199707031 "/>
    <path d="m161.87,299.14l7.21,12.98l-18.16,1.69c0,0 -6.95,-12.35 0.39,-15.68l10.56,1.01z" fill="#CE7A63" id="svg_59"/>
    <polygon fill="#CE7A63" id="svg_60" points="165.87448120117188,324.6094970703125 150.9176788330078,324.45819091796875 150.9176788330078,313.8128662109375 169.08792114257812,312.1207275390625 "/>
    <g id="svg_61" opacity="0.2">
     <path d="m255.5,277.31c-0.09,-0.01 -0.2,0 -0.29,0.03c-0.32,0.1 -0.48,0.43 -0.38,0.74c1.04,3.01 3.71,3.65 3.82,3.68c0.3,0.09 0.63,-0.12 0.71,-0.43c0.08,-0.33 -0.12,-0.64 -0.44,-0.71c-0.11,-0.01 -2.16,-0.55 -2.97,-2.92c-0.06,-0.21 -0.24,-0.34 -0.45,-0.39z" id="svg_62"/>
     <path d="m240.32,292.84c-0.05,0.07 -0.08,0.18 -0.08,0.28c0,0.31 0.27,0.58 0.6,0.58c3.23,0 4.71,-2.28 4.77,-2.39c0.2,-0.24 0.09,-0.62 -0.2,-0.8c-0.27,-0.16 -0.63,-0.07 -0.81,0.19c-0.06,0.1 -1.22,1.82 -3.76,1.84c-0.23,0 -0.42,0.12 -0.53,0.3z" id="svg_63"/>
     <path d="m229.01,306.54c-0.05,0.07 -0.08,0.18 -0.08,0.28c0,0.31 0.26,0.58 0.59,0.58c3.24,0 4.71,-2.28 4.77,-2.39c0.2,-0.24 0.09,-0.62 -0.18,-0.8c-0.29,-0.16 -0.65,-0.07 -0.81,0.19c-0.06,0.09 -1.22,1.82 -3.77,1.82c-0.23,0.01 -0.42,0.13 -0.51,0.31z" id="svg_64"/>
     <path d="m271.24,309.52c-0.06,0.07 -0.08,0.18 -0.08,0.28c0,0.31 0.26,0.58 0.59,0.58c3.24,0 4.71,-2.28 4.77,-2.39c0.2,-0.24 0.09,-0.62 -0.2,-0.8c-0.27,-0.16 -0.63,-0.07 -0.81,0.19c-0.06,0.09 -1.22,1.82 -3.76,1.82c-0.23,0 -0.42,0.13 -0.51,0.31z" id="svg_65"/>
     <path d="m229.76,284.36c-0.05,0.09 -0.08,0.18 -0.08,0.28c0,0.33 0.27,0.58 0.59,0.58c3.24,0 4.72,-2.28 4.78,-2.37c0.18,-0.25 0.08,-0.64 -0.2,-0.8c-0.29,-0.18 -0.65,-0.09 -0.81,0.18c-0.06,0.1 -1.22,1.84 -3.77,1.84c-0.21,0 -0.41,0.12 -0.51,0.3z" id="svg_66"/>
     <path d="m208.85,281.95c-0.05,0.07 -0.08,0.18 -0.08,0.28c0,0.31 0.27,0.58 0.6,0.58c3.23,0 4.71,-2.28 4.77,-2.39c0.18,-0.24 0.09,-0.62 -0.2,-0.8c-0.27,-0.16 -0.63,-0.07 -0.81,0.19c-0.06,0.09 -1.22,1.82 -3.76,1.82c-0.23,0.01 -0.42,0.13 -0.53,0.31z" id="svg_67"/>
     <path d="m227.79,238.47c-0.11,-0.01 -0.2,-0.01 -0.3,0.03c-0.32,0.1 -0.48,0.43 -0.38,0.74c1.04,3.01 3.71,3.65 3.82,3.68c0.3,0.09 0.65,-0.12 0.72,-0.43c0.08,-0.33 -0.14,-0.64 -0.45,-0.71c-0.11,-0.01 -2.14,-0.55 -2.96,-2.92c-0.08,-0.21 -0.26,-0.34 -0.45,-0.39z" id="svg_68"/>
     <path d="m216.92,254.59c-0.09,0.03 -0.17,0.07 -0.24,0.16c-0.23,0.24 -0.2,0.61 0.05,0.82c2.41,2.12 5.05,1.39 5.17,1.35c0.3,-0.04 0.48,-0.4 0.39,-0.71c-0.09,-0.31 -0.42,-0.49 -0.72,-0.4c-0.12,0.03 -2.16,0.56 -4.06,-1.11c-0.17,-0.13 -0.39,-0.18 -0.59,-0.1z" id="svg_69"/>
     <path d="m205.4,247.16c-0.06,0.09 -0.08,0.18 -0.08,0.28c0,0.33 0.26,0.58 0.59,0.58c3.23,0 4.71,-2.28 4.77,-2.37c0.2,-0.25 0.09,-0.64 -0.2,-0.8c-0.27,-0.18 -0.63,-0.09 -0.81,0.18c-0.06,0.1 -1.22,1.84 -3.76,1.84c-0.23,0 -0.42,0.12 -0.51,0.3z" id="svg_70"/>
     <path d="m241.39,250.11c-0.09,-0.01 -0.2,-0.01 -0.3,0.03c-0.3,0.1 -0.47,0.43 -0.36,0.73c1.04,3.03 3.7,3.66 3.82,3.69c0.29,0.09 0.63,-0.12 0.71,-0.44c0.08,-0.31 -0.12,-0.62 -0.44,-0.7c-0.12,-0.01 -2.16,-0.55 -2.97,-2.92c-0.08,-0.21 -0.24,-0.34 -0.45,-0.39z" id="svg_71"/>
     <path d="m220.73,291.21c-0.09,-0.03 -0.2,-0.01 -0.29,0.01c-0.32,0.1 -0.48,0.43 -0.38,0.74c1.04,3.01 3.71,3.65 3.82,3.68c0.3,0.1 0.63,-0.12 0.71,-0.43c0.08,-0.31 -0.12,-0.62 -0.44,-0.7c-0.11,-0.03 -2.16,-0.56 -2.97,-2.92c-0.06,-0.21 -0.24,-0.36 -0.45,-0.39z" id="svg_72"/>
     <path d="m205.37,262.54c-0.09,-0.01 -0.2,-0.01 -0.29,0.01c-0.32,0.1 -0.48,0.44 -0.38,0.74c1.04,3.01 3.71,3.66 3.82,3.68c0.3,0.1 0.65,-0.12 0.71,-0.43c0.08,-0.31 -0.12,-0.62 -0.44,-0.7c-0.11,-0.03 -2.14,-0.55 -2.96,-2.92c-0.08,-0.21 -0.26,-0.36 -0.47,-0.39z" id="svg_73"/>
     <path d="m259.36,259.88c-0.09,-0.01 -0.2,-0.01 -0.3,0.03c-0.3,0.1 -0.47,0.43 -0.36,0.73c1.04,3.03 3.71,3.66 3.82,3.69c0.29,0.09 0.63,-0.12 0.71,-0.44c0.08,-0.31 -0.12,-0.62 -0.44,-0.7c-0.11,-0.01 -2.16,-0.55 -2.97,-2.92c-0.06,-0.21 -0.24,-0.34 -0.45,-0.39z" id="svg_74"/>
     <path d="m252.15,299.84c-0.09,-0.01 -0.2,-0.01 -0.3,0.01c-0.3,0.1 -0.47,0.43 -0.36,0.74c1.04,3.01 3.71,3.66 3.82,3.68c0.29,0.1 0.63,-0.12 0.71,-0.43c0.08,-0.31 -0.12,-0.62 -0.44,-0.7c-0.11,-0.03 -2.16,-0.56 -2.97,-2.92c-0.06,-0.21 -0.24,-0.36 -0.45,-0.39z" id="svg_75"/>
     <path d="m238.06,270.61c-0.06,0.07 -0.11,0.16 -0.12,0.27c-0.06,0.33 0.15,0.62 0.47,0.68c3.18,0.61 5.07,-1.36 5.14,-1.45c0.23,-0.19 0.21,-0.59 -0.03,-0.82c-0.24,-0.22 -0.62,-0.21 -0.84,0.03c-0.08,0.09 -1.54,1.57 -4.04,1.1c-0.23,-0.04 -0.44,0.04 -0.57,0.19z" id="svg_76"/>
     <path d="m225.36,266.9c0.02,0.09 0.05,0.19 0.11,0.27c0.2,0.27 0.56,0.33 0.83,0.15c2.64,-1.84 2.52,-4.54 2.5,-4.64c0.02,-0.31 -0.3,-0.58 -0.62,-0.55c-0.33,0.01 -0.57,0.28 -0.56,0.61c0,0.12 0.06,2.18 -2.01,3.63c-0.18,0.12 -0.27,0.33 -0.26,0.53z" id="svg_77"/>
     <path d="m270.38,242.83c0.02,0.1 0.05,0.19 0.11,0.28c0.18,0.25 0.56,0.33 0.83,0.13c2.64,-1.84 2.5,-4.54 2.5,-4.64c0,-0.31 -0.3,-0.56 -0.63,-0.55c-0.33,0.01 -0.57,0.3 -0.56,0.61c0.02,0.12 0.08,2.19 -2.01,3.63c-0.18,0.12 -0.27,0.33 -0.24,0.53z" id="svg_78"/>
     <path d="m193.62,193.95c0.02,0.09 0.05,0.19 0.11,0.27c0.18,0.27 0.56,0.33 0.81,0.15c2.66,-1.84 2.52,-4.54 2.52,-4.64c0,-0.31 -0.3,-0.58 -0.63,-0.55c-0.33,0.01 -0.57,0.3 -0.56,0.61c0,0.12 0.08,2.18 -2.01,3.63c-0.18,0.12 -0.27,0.33 -0.24,0.53z" id="svg_79"/>
     <path d="m209.05,231.22c0.02,0.1 0.05,0.19 0.11,0.28c0.2,0.27 0.56,0.33 0.83,0.13c2.64,-1.82 2.52,-4.52 2.5,-4.64c0.02,-0.3 -0.3,-0.56 -0.62,-0.55c-0.33,0.01 -0.57,0.3 -0.56,0.62c0,0.1 0.06,2.18 -2.01,3.62c-0.18,0.13 -0.27,0.34 -0.26,0.53z" id="svg_80"/>
     <path d="m263.95,226.01c-0.11,-0.03 -0.2,-0.01 -0.3,0.01c-0.32,0.1 -0.48,0.43 -0.38,0.74c1.04,3.01 3.71,3.65 3.82,3.68c0.3,0.1 0.65,-0.12 0.72,-0.43c0.06,-0.31 -0.14,-0.62 -0.45,-0.7c-0.11,-0.03 -2.14,-0.56 -2.96,-2.92c-0.08,-0.21 -0.26,-0.36 -0.45,-0.39z" id="svg_81"/>
     <path d="m252.94,244.06c-0.05,0.07 -0.08,0.18 -0.08,0.28c0,0.33 0.27,0.58 0.59,0.58c3.24,0 4.72,-2.28 4.77,-2.39c0.2,-0.24 0.09,-0.62 -0.18,-0.79c-0.29,-0.18 -0.65,-0.09 -0.81,0.18c-0.06,0.09 -1.22,1.82 -3.77,1.84c-0.23,0 -0.42,0.12 -0.51,0.3z" id="svg_82"/>
     <path d="m268.23,292.27c-0.06,0.07 -0.11,0.16 -0.12,0.27c-0.06,0.31 0.15,0.62 0.47,0.68c3.18,0.59 5.07,-1.36 5.14,-1.45c0.23,-0.21 0.21,-0.61 -0.03,-0.82c-0.24,-0.22 -0.62,-0.21 -0.84,0.03c-0.08,0.07 -1.55,1.56 -4.04,1.1c-0.23,-0.04 -0.44,0.03 -0.57,0.19z" id="svg_83"/>
     <path d="m209.92,304.29c-0.09,-0.03 -0.2,-0.01 -0.3,0.01c-0.3,0.1 -0.47,0.43 -0.36,0.74c1.03,3.01 3.7,3.65 3.82,3.68c0.29,0.1 0.63,-0.12 0.71,-0.43c0.08,-0.31 -0.12,-0.64 -0.44,-0.7c-0.12,-0.03 -2.16,-0.56 -2.97,-2.92c-0.08,-0.21 -0.24,-0.36 -0.45,-0.39z" id="svg_84"/>
     <path d="m272.22,276.91c-0.06,0.07 -0.11,0.16 -0.12,0.27c-0.05,0.33 0.18,0.62 0.51,0.65c3.2,0.44 4.98,-1.6 5.05,-1.69c0.23,-0.22 0.18,-0.62 -0.08,-0.83c-0.26,-0.21 -0.62,-0.16 -0.83,0.07c-0.08,0.09 -1.48,1.65 -3.98,1.31c-0.23,-0.03 -0.44,0.06 -0.56,0.22z" id="svg_85"/>
     <path d="m253.69,200c-0.11,-0.01 -0.2,-0.01 -0.3,0.01c-0.32,0.1 -0.48,0.44 -0.38,0.74c1.04,3.01 3.71,3.66 3.82,3.68c0.3,0.1 0.65,-0.12 0.72,-0.43c0.06,-0.31 -0.14,-0.62 -0.45,-0.7c-0.11,-0.03 -2.14,-0.55 -2.96,-2.92c-0.08,-0.21 -0.26,-0.36 -0.45,-0.39z" id="svg_86"/>
     <path d="m292.63,192.91c-0.11,-0.01 -0.2,-0.01 -0.3,0.01c-0.3,0.1 -0.47,0.44 -0.36,0.74c1.03,3.01 3.7,3.66 3.82,3.68c0.29,0.1 0.63,-0.12 0.71,-0.43c0.08,-0.31 -0.12,-0.62 -0.44,-0.7c-0.12,-0.03 -2.16,-0.55 -2.97,-2.92c-0.08,-0.21 -0.26,-0.36 -0.45,-0.39z" id="svg_87"/>
     <path d="m238.51,218.52c-0.05,0.07 -0.08,0.18 -0.08,0.28c0,0.31 0.27,0.58 0.59,0.58c3.24,0 4.71,-2.28 4.77,-2.39c0.2,-0.24 0.09,-0.62 -0.18,-0.8c-0.29,-0.16 -0.65,-0.07 -0.81,0.19c-0.06,0.09 -1.22,1.82 -3.77,1.84c-0.23,-0.01 -0.41,0.12 -0.51,0.3z" id="svg_88"/>
     <path d="m307.47,205.23c-0.05,0.09 -0.08,0.18 -0.08,0.28c0,0.33 0.27,0.58 0.6,0.58c3.23,0 4.71,-2.28 4.77,-2.37c0.18,-0.25 0.09,-0.64 -0.2,-0.8c-0.27,-0.18 -0.65,-0.09 -0.81,0.18c-0.06,0.1 -1.22,1.84 -3.76,1.84c-0.23,0 -0.42,0.12 -0.53,0.3z" id="svg_89"/>
     <path d="m227.94,206.27c-0.05,0.07 -0.08,0.18 -0.08,0.28c0,0.31 0.27,0.58 0.6,0.58c3.23,0 4.71,-2.28 4.77,-2.39c0.18,-0.24 0.09,-0.62 -0.2,-0.8c-0.27,-0.16 -0.63,-0.07 -0.81,0.19c-0.06,0.09 -1.22,1.82 -3.76,1.82c-0.23,0 -0.42,0.13 -0.53,0.31z" id="svg_90"/>
     <path d="m212.56,183.67c-0.05,0.07 -0.08,0.18 -0.08,0.28c0,0.31 0.27,0.58 0.6,0.58c3.23,-0.01 4.71,-2.28 4.77,-2.39c0.2,-0.24 0.09,-0.62 -0.2,-0.8c-0.27,-0.16 -0.63,-0.07 -0.81,0.19c-0.06,0.09 -1.22,1.82 -3.76,1.82c-0.23,0 -0.42,0.13 -0.53,0.31z" id="svg_91"/>
     <path d="m207.04,204.63c-0.05,0.09 -0.08,0.18 -0.08,0.28c0,0.33 0.26,0.59 0.59,0.59c3.24,-0.01 4.71,-2.28 4.77,-2.39c0.2,-0.24 0.09,-0.62 -0.18,-0.8c-0.29,-0.16 -0.65,-0.09 -0.81,0.19c-0.06,0.09 -1.22,1.82 -3.77,1.82c-0.23,0 -0.41,0.12 -0.51,0.3z" id="svg_92"/>
     <path d="m189.95,207.9c-0.05,0.09 -0.08,0.18 -0.08,0.28c0,0.33 0.26,0.58 0.59,0.58c3.24,0 4.71,-2.28 4.77,-2.37c0.2,-0.25 0.09,-0.64 -0.18,-0.8c-0.29,-0.18 -0.65,-0.09 -0.81,0.18c-0.06,0.1 -1.22,1.84 -3.77,1.84c-0.23,0 -0.42,0.12 -0.51,0.3z" id="svg_93"/>
     <path d="m218.92,213.88c-0.09,-0.01 -0.2,-0.01 -0.3,0.03c-0.3,0.1 -0.47,0.43 -0.36,0.73c1.03,3.03 3.7,3.66 3.82,3.69c0.29,0.09 0.63,-0.12 0.71,-0.44c0.08,-0.31 -0.12,-0.62 -0.44,-0.7c-0.12,-0.01 -2.16,-0.55 -2.97,-2.92c-0.08,-0.21 -0.26,-0.34 -0.45,-0.39z" id="svg_94"/>
     <path d="m230.58,192.02c-0.06,0.07 -0.11,0.16 -0.14,0.27c-0.06,0.31 0.15,0.62 0.48,0.68c3.17,0.61 5.05,-1.36 5.13,-1.45c0.24,-0.19 0.21,-0.59 -0.03,-0.82c-0.24,-0.22 -0.62,-0.21 -0.83,0.03c-0.08,0.09 -1.55,1.57 -4.06,1.1c-0.21,-0.04 -0.42,0.04 -0.56,0.19z" id="svg_95"/>
     <path d="m265.76,212.81c-0.06,0.07 -0.11,0.16 -0.12,0.27c-0.06,0.31 0.14,0.62 0.47,0.68c3.17,0.59 5.07,-1.36 5.14,-1.45c0.23,-0.19 0.2,-0.59 -0.05,-0.82c-0.23,-0.22 -0.6,-0.21 -0.83,0.03c-0.08,0.09 -1.55,1.57 -4.04,1.1c-0.23,-0.04 -0.44,0.04 -0.57,0.19z" id="svg_96"/>
     <path d="m287.8,212.81c-0.06,0.07 -0.11,0.16 -0.14,0.27c-0.06,0.31 0.15,0.62 0.47,0.68c3.18,0.59 5.07,-1.36 5.14,-1.45c0.24,-0.19 0.21,-0.59 -0.03,-0.82c-0.24,-0.22 -0.62,-0.21 -0.83,0.03c-0.08,0.09 -1.55,1.57 -4.06,1.1c-0.21,-0.04 -0.42,0.04 -0.56,0.19z" id="svg_97"/>
     <path d="m270.39,195.51c-0.06,0.07 -0.09,0.18 -0.11,0.28c-0.05,0.31 0.18,0.61 0.5,0.65c3.21,0.44 4.99,-1.62 5.07,-1.71c0.21,-0.22 0.17,-0.62 -0.08,-0.82c-0.26,-0.21 -0.63,-0.18 -0.84,0.07c-0.08,0.07 -1.46,1.63 -3.98,1.29c-0.23,-0.03 -0.44,0.06 -0.56,0.22z" id="svg_98"/>
     <path d="m295.9,223.55c-0.09,0.04 -0.17,0.12 -0.23,0.19c-0.18,0.27 -0.11,0.64 0.17,0.82c2.72,1.75 5.22,0.65 5.33,0.59c0.29,-0.09 0.42,-0.47 0.29,-0.77c-0.14,-0.28 -0.48,-0.42 -0.78,-0.28c-0.11,0.04 -2.05,0.86 -4.16,-0.52c-0.2,-0.12 -0.42,-0.12 -0.6,-0.03z" id="svg_99"/>
     <path d="m272.22,181.91c-0.06,0.07 -0.11,0.16 -0.12,0.27c-0.05,0.33 0.18,0.61 0.51,0.65c3.2,0.44 4.98,-1.62 5.05,-1.71c0.23,-0.21 0.18,-0.61 -0.08,-0.82c-0.26,-0.21 -0.62,-0.16 -0.83,0.07c-0.08,0.09 -1.48,1.65 -3.98,1.31c-0.23,-0.03 -0.44,0.06 -0.56,0.22z" id="svg_100"/>
     <path d="m314.79,216.52c0.05,0.09 0.11,0.16 0.18,0.22c0.27,0.19 0.65,0.13 0.83,-0.13c1.89,-2.58 0.86,-5.09 0.81,-5.19c-0.09,-0.3 -0.48,-0.44 -0.78,-0.31c-0.3,0.12 -0.44,0.46 -0.32,0.76c0.05,0.1 0.8,2.03 -0.68,4.08c-0.12,0.18 -0.14,0.4 -0.05,0.58z" id="svg_101"/>
     <path d="m275.16,253.69c-0.06,0.09 -0.08,0.18 -0.08,0.28c0,0.33 0.26,0.59 0.59,0.58c3.24,0 4.71,-2.28 4.77,-2.37c0.2,-0.24 0.09,-0.64 -0.2,-0.8c-0.27,-0.16 -0.63,-0.09 -0.81,0.19c-0.06,0.09 -1.22,1.82 -3.76,1.82c-0.23,0 -0.42,0.12 -0.51,0.3z" id="svg_102"/>
     <path d="m178.15,210.88c0,0.09 0.05,0.18 0.09,0.27c0.2,0.27 0.56,0.33 0.83,0.15c2.64,-1.84 2.52,-4.54 2.5,-4.66c0.02,-0.3 -0.3,-0.56 -0.62,-0.55c-0.33,0.03 -0.57,0.3 -0.56,0.62c0,0.1 0.08,2.18 -2.01,3.62c-0.18,0.13 -0.27,0.34 -0.24,0.55z" id="svg_103"/>
     <path d="m182.92,221.74c-0.05,0.07 -0.08,0.18 -0.08,0.28c0,0.33 0.27,0.58 0.59,0.58c3.24,0 4.72,-2.28 4.78,-2.37c0.18,-0.25 0.08,-0.64 -0.2,-0.8c-0.29,-0.18 -0.65,-0.09 -0.81,0.18c-0.06,0.1 -1.22,1.82 -3.77,1.84c-0.21,0 -0.41,0.12 -0.51,0.3z" id="svg_104"/>
     <path d="m241.55,234.69c-0.05,0.09 -0.06,0.18 -0.06,0.28c0,0.33 0.26,0.58 0.59,0.58c3.23,0 4.71,-2.28 4.77,-2.37c0.2,-0.24 0.09,-0.64 -0.2,-0.8c-0.27,-0.18 -0.63,-0.09 -0.81,0.19c-0.06,0.09 -1.22,1.82 -3.76,1.82c-0.23,0 -0.42,0.12 -0.53,0.3z" id="svg_105"/>
    </g>
   </g>
  </g>
 </g>
</svg>