<?xml version="1.0" encoding="utf-8"?>
<!-- Generator: Adobe Illustrator 27.5.0, SVG Export Plug-In . SVG Version: 6.00 Build 0)  -->
<svg version="1.1" xmlns="http://www.w3.org/2000/svg" xmlns:xlink="http://www.w3.org/1999/xlink" x="0px" y="0px"
	 viewBox="0 0 500 500" style="enable-background:new 0 0 500 500;" xml:space="preserve">
<g id="Background_Complete">
	<g>
		<rect y="382.398" style="fill:#EBEBEB;" width="500" height="0.25"/>
		<rect x="416.779" y="398.494" style="fill:#EBEBEB;" width="33.122" height="0.25"/>
		<rect x="322.527" y="401.208" style="fill:#EBEBEB;" width="8.693" height="0.25"/>
		<rect x="396.586" y="389.208" style="fill:#EBEBEB;" width="19.192" height="0.25"/>
		<rect x="52.459" y="390.888" style="fill:#EBEBEB;" width="43.193" height="0.25"/>
		<rect x="104.556" y="390.888" style="fill:#EBEBEB;" width="6.333" height="0.25"/>
		<rect x="131.471" y="395.111" style="fill:#EBEBEB;" width="93.676" height="0.25"/>
		<path style="fill:#EBEBEB;" d="M237.014,337.8H43.915c-3.147,0-5.708-2.561-5.708-5.708V60.66c0-3.147,2.561-5.708,5.708-5.708
			h193.099c3.146,0,5.707,2.561,5.707,5.708v271.432C242.721,335.239,240.16,337.8,237.014,337.8z M43.915,55.203
			c-3.01,0-5.458,2.448-5.458,5.458v271.432c0,3.01,2.448,5.458,5.458,5.458h193.099c3.009,0,5.457-2.448,5.457-5.458V60.66
			c0-3.009-2.448-5.458-5.457-5.458H43.915z"/>
		<path style="fill:#EBEBEB;" d="M453.31,337.8H260.212c-3.147,0-5.707-2.561-5.707-5.708V60.66c0-3.147,2.561-5.708,5.707-5.708
			H453.31c3.148,0,5.708,2.561,5.708,5.708v271.432C459.019,335.239,456.458,337.8,453.31,337.8z M260.212,55.203
			c-3.009,0-5.457,2.448-5.457,5.458v271.432c0,3.01,2.448,5.458,5.457,5.458H453.31c3.01,0,5.458-2.448,5.458-5.458V60.66
			c0-3.009-2.448-5.458-5.458-5.458H260.212z"/>
	</g>
	<g>
		<path style="fill:#F5F5F5;" d="M161.054,70.685l-0.845,1.713c-0.099,0.202-0.292,0.341-0.514,0.374l-1.89,0.275
			c-0.56,0.081-0.784,0.77-0.379,1.165l1.368,1.333c0.161,0.157,0.235,0.383,0.196,0.605l-0.323,1.882
			c-0.096,0.558,0.49,0.984,0.991,0.72l1.69-0.889c0.199-0.105,0.437-0.105,0.636,0l1.691,0.889c0.501,0.264,1.087-0.162,0.991-0.72
			l-0.323-1.882c-0.038-0.222,0.035-0.448,0.197-0.605l1.368-1.333c0.406-0.395,0.182-1.084-0.379-1.165l-1.89-0.275
			c-0.223-0.032-0.415-0.172-0.514-0.374l-0.845-1.713C162.029,70.177,161.305,70.177,161.054,70.685z"/>
		<path style="fill:#F0F0F0;" d="M368.281,175.094l-0.845,1.713c-0.099,0.202-0.292,0.342-0.514,0.374l-1.89,0.275
			c-0.561,0.081-0.784,0.77-0.379,1.165l1.368,1.333c0.161,0.157,0.234,0.383,0.197,0.605l-0.323,1.882
			c-0.096,0.558,0.49,0.984,0.991,0.72l1.691-0.889c0.199-0.105,0.437-0.105,0.636,0l1.69,0.889c0.501,0.264,1.087-0.162,0.991-0.72
			l-0.323-1.882c-0.038-0.222,0.035-0.448,0.197-0.605l1.368-1.333c0.406-0.395,0.182-1.084-0.379-1.165l-1.89-0.275
			c-0.223-0.032-0.415-0.172-0.514-0.374l-0.845-1.713C369.255,174.586,368.531,174.586,368.281,175.094z"/>
		<path style="fill:#F0F0F0;" d="M399.424,129.753c-8.748,2.919-18.201-1.805-21.12-10.552c-0.12-0.361-0.228-0.72-0.317-1.079
			c4.592,2.114,9.956,2.551,15.129,0.825c7.383-2.463,12.441-8.691,13.757-15.841c1.342,1.581,2.412,3.439,3.108,5.526
			C412.901,117.38,408.172,126.835,399.424,129.753z"/>
		<path style="fill:#F0F0F0;" d="M310.302,76.242l-0.441,0.894c-0.052,0.105-0.152,0.178-0.269,0.195l-0.987,0.143
			c-0.293,0.043-0.41,0.402-0.198,0.609l0.714,0.696c0.084,0.082,0.122,0.2,0.103,0.316l-0.169,0.983
			c-0.05,0.292,0.256,0.514,0.518,0.376l0.883-0.464c0.104-0.055,0.228-0.055,0.332,0l0.883,0.464
			c0.262,0.138,0.568-0.085,0.518-0.376l-0.169-0.983c-0.02-0.116,0.018-0.234,0.103-0.316l0.714-0.696
			c0.212-0.206,0.095-0.566-0.198-0.609l-0.987-0.143c-0.116-0.017-0.217-0.09-0.269-0.195l-0.441-0.894
			C310.811,75.977,310.433,75.977,310.302,76.242z"/>
		<path style="fill:#F0F0F0;" d="M184.975,156.012l-0.505,1.024c-0.059,0.121-0.174,0.204-0.307,0.224l-1.13,0.164
			c-0.335,0.049-0.469,0.46-0.226,0.697l0.817,0.797c0.096,0.094,0.14,0.229,0.118,0.361l-0.193,1.125
			c-0.057,0.334,0.293,0.588,0.593,0.431l1.01-0.531c0.119-0.063,0.261-0.063,0.38,0l1.011,0.531c0.3,0.157,0.65-0.097,0.592-0.431
			l-0.193-1.125c-0.023-0.133,0.021-0.268,0.118-0.361l0.817-0.797c0.242-0.236,0.109-0.648-0.226-0.697l-1.13-0.164
			c-0.133-0.019-0.248-0.103-0.307-0.224l-0.505-1.024C185.558,155.709,185.125,155.709,184.975,156.012z"/>
		<circle style="fill:#F0F0F0;" cx="74.056" cy="90.875" r="1.327"/>
		<circle style="fill:#F0F0F0;" cx="80.937" cy="170.709" r="3.696"/>
		<path style="fill:#F5F5F5;" d="M372.778,348.493c-25.58-10.747-37.419-21.282-68.517-5.779
			c-13.995-4.791-26.294-9.585-35.247-14.105c-48.449-24.46-97.162-9.408-136.718,7.213C92.739,352.442,47,382.398,47,382.398
			h149.847H449.61h9.158C458.769,382.398,398.512,359.306,372.778,348.493z"/>
		<g>
			<path style="fill:#F0F0F0;" d="M284.973,357.127c-13.255-8.059-19.342-15.966-35.577-4.106
				c-15.44,11.28-55.04,29.377-55.04,29.377h134.909C329.264,382.398,298.228,365.186,284.973,357.127z"/>
		</g>
		<path style="fill:#F5F5F5;" d="M408.969,280.578c-1.279,0.072-2.217,0.556-2.775,1.327c-6.112-4.611-13.205-7.445-19.128-7.131
			c-3.011,0.153-5.375,1.103-7.032,2.655c-6.508-6.961-14.903-11.895-21.084-11.895c-3.512,0-5.735,1.597-6.578,4.261
			c-6.742-4.673-13.716-7.544-19.398-7.544c-9.061,0-12.188,7.293-8.74,17.537c-4.274,0.183-7.871,4.227-4.801,7.858h100.068
			c-0.121-0.224-0.242-0.448-0.379-0.682C416.924,283.26,412.382,280.399,408.969,280.578z"/>
		<path style="fill:#F5F5F5;" d="M114.133,281.021c-0.549,0.033-0.939,0.291-1.16,0.705c-2.705-2.453-5.789-3.958-8.307-3.791
			c-1.286,0.081-2.275,0.59-2.946,1.415c-0.003,0.005-0.004,0-0.004,0c-2.915-3.696-6.6-6.316-9.241-6.316
			c-1.503,0-2.419,0.848-2.721,2.263c-2.973-2.486-6.008-4.01-8.436-4.01c-3.01,0-4.398,2.343-4.074,5.949
			c-1.424-1.048-2.832-1.667-3.992-1.667c-1.607,0-2.39,1.186-2.307,3.044c-0.142,0-0.282,0.009-0.42,0.028
			c-2.46,0.31-3.461,2.71-2.351,5.454h50.25C117.37,282.284,115.51,280.931,114.133,281.021z"/>
	</g>
</g>
<g id="Background_Simple" style="display:none;">
	<g>
		<path style="display:inline;fill:#407BFF;" d="M350.854,167.743c40.557,102.146-47.114,102.811-72.688,143.221
			c-25.619,40.483-98.486,61.863-132.121-26.234c-28.082-73.552,49.257-55.194,92.446-82.289
			C273.905,180.223,310.297,65.597,350.854,167.743z"/>
		<path style="display:inline;opacity:0.9;fill:#FFFFFF;" d="M350.854,167.743c40.557,102.146-47.114,102.811-72.688,143.221
			c-25.619,40.483-98.486,61.863-132.121-26.234c-28.082-73.552,49.257-55.194,92.446-82.289
			C273.905,180.223,310.297,65.597,350.854,167.743z"/>
	</g>
	<g style="display:inline;">
		<ellipse style="fill:#407BFF;" cx="250.728" cy="236.037" rx="155.118" ry="154.627"/>
		<ellipse style="opacity:0.9;fill:#FFFFFF;" cx="250.728" cy="236.037" rx="155.118" ry="154.627"/>
	</g>
</g>
<g id="Shadow_1_">
	<ellipse id="_x3C_Path_x3E__47_" style="fill:#F5F5F5;" cx="250" cy="416.238" rx="193.889" ry="11.323"/>
</g>
<g id="Character">
	<g>
		<path style="opacity:0.1;fill:#407BFF;" d="M360.237,285.248c-3.751-7.001-8.623-11.774-13.784-15.059
			c3.393-29.325-23.632-78.781-43.074-90.147c39.009-79.589-117.903-127.756-95.145,0.533
			c-24.829,14.782-52.387,54.967-51.084,89.208c-47.315,30.654-5.195,73.128,27.859,86.071
			C279.168,393.089,385.557,340.951,360.237,285.248z"/>
		<path style="opacity:0.1;fill:#407BFF;" d="M251.486,355.411c-21.4-0.001-42.158-3.919-61.698-11.646
			c-18.37-7.193-39.136-24.653-40.723-40.346c-0.303-2.996-1.226-12.114,15.153-22.725l6.203-4.019l-0.281-7.386
			c-1.084-28.49,22.729-64.437,44.744-77.544l7.719-4.596l-1.569-8.845c-4.345-24.494-1.874-43.128,7.146-53.889
			c6.968-8.313,16.507-10.058,23.281-10.058c15.409,0,31.753,8.953,39.747,21.773c7.039,11.289,7.211,24.495,0.498,38.191
			l-5.317,10.847l10.429,6.097c5.794,3.388,16.102,15.144,25.044,32.95c8.562,17.051,12.927,33.679,11.678,44.48l-0.936,8.088
			l6.869,4.373c3.794,2.415,6.775,5.643,9.104,9.86c3.997,9.088,3.141,17.855-2.611,26.789
			c-14.259,22.143-53.106,37.606-94.471,37.606C251.491,355.411,251.489,355.411,251.486,355.411z"/>
		<g>
			<path style="fill:#CE7A63;" d="M231.235,222.738l-3.361,3.543l-3.403,3.652c-2.248,2.458-4.506,4.912-6.683,7.42
				c-4.385,4.989-8.597,10.097-12.431,15.328l-1.407,1.971l-0.352,0.493l-0.262,0.385c-0.157,0.244-0.337,0.46-0.481,0.733
				c-0.623,1.018-1.216,2.189-1.719,3.473c-1.003,2.565-1.767,5.499-2.298,8.564c-0.558,3.065-0.886,6.273-1.12,9.526
				c-0.097,1.627-0.201,3.27-0.24,4.917c-0.059,1.625-0.079,3.353-0.094,4.875l-8.087,1.426c-0.575-1.872-1.009-3.562-1.407-5.36
				c-0.373-1.778-0.724-3.567-0.974-5.377c-0.53-3.619-0.819-7.308-0.778-11.099c0.034-1.895,0.134-3.812,0.349-5.763
				c0.228-1.951,0.59-3.925,1.095-5.932c0.506-2.003,1.175-4.049,2.153-6.078c0.219-0.508,0.511-1.014,0.774-1.52
				c0.13-0.238,0.285-0.539,0.397-0.724l0.349-0.589l1.4-2.359c1.896-3.109,3.914-6.114,6.014-9.019
				c2.07-2.938,4.288-5.732,6.515-8.51c2.246-2.763,4.563-5.451,6.951-8.078c1.194-1.314,2.397-2.617,3.64-3.893
				c1.244-1.302,2.463-2.508,3.851-3.841L231.235,222.738z"/>
			<path style="fill:#407BFF;" d="M225.379,204.411c10.894-3.437,17,12.058,8.415,23.704c-4.725,6.428-11.671,13.115-16.512,18.277
				l-19.219-15.496C204.998,221.69,218.092,206.712,225.379,204.411z"/>
			<path style="opacity:0.2;" d="M227.802,223.817c-5.381,3.263-8.899,12.856-9.702,21.718c3.141-3.311,7.012-7.183,10.567-11.176
				L227.802,223.817z"/>
			<path style="fill:#407BFF;" d="M280.443,255.189c-0.901,21.646,0.256,38.348,0.061,43.863h-59.604
				c-3.786-56.537,4.163-91.233,4.48-94.642c0.621-0.183,2.702-0.743,5.843-1.376c2.983-0.572,6.72-1.217,10.531-1.57
				c6.586-0.584,17.397-0.353,24.859,0c4.347,0.207,8.766,0.743,12.296,1.254c4.249,0.621,7.22,1.23,7.22,1.23
				c-0.28,1.181-0.621,2.325-0.816,3.531C282.561,224.023,281.039,240.654,280.443,255.189z"/>
			<path style="opacity:0.2;" d="M275.5,220.554c-2.179,5.637,1.899,19.82,5.186,29.51c0.329-6.111,0.828-12.527,1.497-19.114
				L275.5,220.554z"/>
			<path style="fill:#CE7A63;" d="M266.087,173.584l-6.654,5.518l-9.059,7.524c0.266,1.225,0.473,2.465,0.576,3.66
				c0.487,4.912-0.782,9.383-8.011,11.094c0,0-7.447,6.279,6.392,6.844s18.246-6.697,18.246-6.697
				C262.163,196.187,264.243,181.596,266.087,173.584z"/>
			<path style="opacity:0.2;" d="M250.374,186.626c0.266,1.225,0.472,2.464,0.576,3.66c3.378-0.679,7.893-4.279,8.365-7.731
				c0.177-1.298,0.207-2.552,0.118-3.452L250.374,186.626z"/>
			<path style="fill:#263238;" d="M244.661,145.898c-5.461,1.807-9.876,12.486-3.322,18.351
				C247.894,170.115,253.049,143.123,244.661,145.898z"/>
			<path style="fill:#CE7A63;" d="M268.831,162.062c-2.313,10.636-3.125,16.96-9.408,21.813c-9.45,7.301-21.974,0.815-22.891-10.186
				c-0.826-9.902,3.095-25.632,14.284-28.644C261.84,142.078,271.144,151.426,268.831,162.062z"/>
			<path style="fill:#263238;" d="M262.644,154.342c-11.092,0.947-26.263-0.812-26.219-13.459
				c0.044-12.648,23.987-12.58,26.895-4.193c5.005-3.855,15.894,1.894,12.918,11.295c3.246,3.382,8.86,12.871,2.029,15.894
				c-7.264,3.215-10.691,6.831-10.691,6.831l-6.331-0.812C261.246,169.898,260.886,160.361,262.644,154.342z"/>
			<path style="fill:#CE7A63;" d="M271.281,173.161c-1.902,2.285-4.52,3.634-6.75,4.014c-3.354,0.573-4.109-2.535-2.405-5.537
				c1.534-2.702,5.128-6.255,8.123-5.463C273.201,166.957,273.456,170.548,271.281,173.161z"/>
			<path style="fill:#BA4D3C;" d="M245.228,162.748c0,0-2.768,4.796-5.336,6.964c1.328,1.625,4.064,1.28,4.064,1.28L245.228,162.748
				z"/>
			<path style="fill:#263238;" d="M247.079,173.603c3.466,0.258,5.565-1.759,5.66-1.853c0.102-0.1,0.104-0.264,0.003-0.366
				c-0.1-0.103-0.264-0.103-0.366-0.003c-0.024,0.023-2.411,2.322-6.217,1.576c-0.142-0.029-0.276,0.064-0.303,0.205
				c-0.028,0.14,0.064,0.276,0.205,0.303C246.411,173.534,246.751,173.579,247.079,173.603z"/>
			<path style="fill:#263238;" d="M256.652,160.855c0.085,0,0.171-0.021,0.251-0.065c0.25-0.139,0.341-0.455,0.202-0.705
				c-1.374-2.476-3.774-2.619-3.875-2.624c-0.268-0.04-0.529,0.205-0.542,0.492c-0.014,0.286,0.206,0.528,0.491,0.542
				c0.099,0.007,1.941,0.147,3.02,2.092C256.293,160.759,256.47,160.855,256.652,160.855z"/>
			<path style="fill:#263238;" d="M250.301,163.153c-0.063,0.015-0.122,0.045-0.173,0.092c-0.16,0.146-0.171,0.395-0.025,0.555
				c1.449,1.583,3.243,1.266,3.318,1.252c0.205-0.018,0.354-0.244,0.313-0.458c-0.04-0.213-0.245-0.353-0.458-0.313
				c-0.074,0.013-1.456,0.233-2.594-1.011C250.582,163.16,250.435,163.121,250.301,163.153z"/>
			<path style="fill:#263238;" d="M239.481,160.867c-0.062,0.016-0.122,0.047-0.172,0.094c-0.158,0.148-0.166,0.397-0.017,0.555
				c1.469,1.564,3.259,1.224,3.334,1.208c0.204-0.021,0.35-0.249,0.307-0.462c-0.043-0.213-0.249-0.35-0.462-0.307
				c-0.074,0.014-1.453,0.252-2.607-0.976C239.762,160.871,239.615,160.833,239.481,160.867z"/>
			<path style="fill:#263238;" d="M238.413,158.042c0.166,0,0.328-0.079,0.429-0.226c1.327-1.947,3.255-1.982,3.273-1.982
				c0.287-0.001,0.517-0.235,0.515-0.521c-0.001-0.285-0.233-0.515-0.518-0.515c-0.001,0-0.002,0-0.003,0
				c-0.102,0.001-2.495,0.043-4.124,2.434c-0.161,0.236-0.1,0.559,0.136,0.72C238.211,158.013,238.313,158.042,238.413,158.042z"/>
			<path style="fill:#263238;" d="M249.826,299.049h-28.929c-8.978-4.164-28.862-7.062-37.79-6.251
				c-8.928,0.812-14.203,1.826-17.247,7.507c-3.044,5.681,5.013,12.772,17.352,21.835c12.339,9.063,39.186,16.773,66.918,16.976
				C250.13,329.784,249.826,299.049,249.826,299.049z"/>
			<path style="fill:#263238;" d="M249.826,299.049H280.5c8.978-4.164,28-8.425,36.928-7.614c8.928,0.812,14.203,1.826,17.247,7.507
				c3.044,5.681-7.177,18.406-20.057,26.145c-12.88,7.739-36.755,13.826-64.487,14.029
				C250.13,329.784,249.826,299.049,249.826,299.049z"/>
			<path style="fill:#CE7A63;" d="M289.537,302.376c-8.205,1.972-19.454,7.037-27.611,11.358c0-0.109-0.024-0.207-0.049-0.316
				c-0.877-3.872-0.377-7.39,4.37-7.402c8.206-0.024,13.915-4.882,17.226-4.273C284.679,300.392,288.709,300.027,289.537,302.376z"
				/>
			<path style="fill:#CE7A63;" d="M233.43,308.912c0.019-3.978-1.225-7.308-5.862-6.292c-8.013,1.755-14.639-1.753-17.745-0.435
				c-1.467-1.062-5.488-0.543-5.789,1.933c-0.116,0.958,1.731,0.589,4.359,1.144c4.166,0.88,10.279,2.657,13.543,4.899
				c2.885,1.982,6.521,7.935,6.521,7.935l7.268-4.903C235.725,313.193,233.415,312.037,233.43,308.912z"/>
			<path style="fill:#CE7A63;" d="M288.893,210.904c1.308,1.394,2.438,2.64,3.592,3.991c1.153,1.322,2.261,2.673,3.362,4.031
				c2.196,2.719,4.313,5.502,6.353,8.355c2.014,2.876,4.02,5.759,5.854,8.795c0.949,1.487,1.824,3.05,2.734,4.572
				c0.857,1.58,1.738,3.117,2.533,4.749l1.218,2.439l0.7,1.579l0.584,1.571c0.714,2.087,1.131,4.147,1.429,6.147
				c0.594,4.004,0.518,7.811,0.236,11.5c-0.334,3.684-0.923,7.252-1.756,10.731c-0.839,3.506-1.82,6.817-3.196,10.272l-7.952-2.05
				c0.106-1.501,0.223-3.193,0.299-4.792c0.1-1.617,0.13-3.237,0.175-4.841c0.057-3.211,0.005-6.384-0.248-9.449
				c-0.235-3.055-0.689-6.024-1.406-8.647c-0.361-1.309-0.823-2.519-1.312-3.585l-0.382-0.768l-0.408-0.696l-1.227-1.993
				c-3.321-5.351-7.145-10.577-11.1-15.706c-1.987-2.565-4.031-5.098-6.093-7.615l-3.118-3.748l-3.08-3.624L288.893,210.904z"/>
			<path style="fill:#407BFF;" d="M286.123,203.947c-10.966-2.111-19.308,10.419-12.672,22.748
				c3.65,6.804,8.189,13.492,12.149,19.031l23.615-11.78C303.824,224.191,293.457,205.361,286.123,203.947z"/>
			<path style="fill:#CE7A63;" d="M304.624,285.592l-8.584,6.966l13.176,4.064c0,0,6.485-7.534,2.323-10.555L304.624,285.592z"/>
			<polygon style="fill:#CE7A63;" points="295.481,302.846 306.521,305.677 309.216,296.623 296.04,292.559 			"/>
			<path style="fill:#CE7A63;" d="M196.887,286.636l4.785,8.756l-12.044,1.14c0,0-4.611-8.334,0.266-10.57L196.887,286.636z"/>
			<polygon style="fill:#CE7A63;" points="199.542,303.813 189.628,303.711 189.628,296.533 201.672,295.392 			"/>
			<g style="opacity:0.2;">
				<path d="M258.952,271.923c-0.063-0.012-0.13-0.008-0.196,0.014c-0.205,0.07-0.316,0.292-0.246,0.498
					c0.688,2.033,2.457,2.466,2.531,2.483c0.194,0.066,0.422-0.081,0.471-0.293c0.049-0.211-0.082-0.422-0.292-0.471
					c-0.073-0.018-1.427-0.374-1.966-1.97C259.206,272.043,259.087,271.948,258.952,271.923z"/>
				<path d="M248.894,282.388c-0.031,0.056-0.049,0.121-0.049,0.19c0,0.217,0.176,0.393,0.393,0.392
					c2.146-0.002,3.122-1.54,3.162-1.605c0.125-0.163,0.058-0.426-0.127-0.54c-0.185-0.114-0.426-0.057-0.54,0.127
					c-0.041,0.064-0.81,1.233-2.495,1.234C249.089,282.185,248.961,282.267,248.894,282.388z"/>
				<path d="M241.387,291.628c-0.031,0.056-0.049,0.121-0.049,0.19c0,0.217,0.176,0.393,0.393,0.392
					c2.146-0.002,3.122-1.54,3.162-1.605c0.125-0.163,0.058-0.426-0.127-0.54c-0.184-0.114-0.426-0.057-0.54,0.126
					c-0.041,0.064-0.81,1.233-2.495,1.234C241.583,291.425,241.454,291.507,241.387,291.628z"/>
				<path d="M269.375,293.636c-0.031,0.056-0.049,0.121-0.049,0.19c0,0.217,0.176,0.393,0.393,0.392
					c2.146-0.002,3.122-1.54,3.162-1.605c0.125-0.163,0.058-0.426-0.127-0.54c-0.185-0.114-0.426-0.057-0.54,0.126
					c-0.041,0.064-0.81,1.233-2.495,1.234C269.57,293.434,269.442,293.516,269.375,293.636z"/>
				<path d="M241.889,276.671c-0.031,0.056-0.049,0.121-0.049,0.19c0,0.217,0.176,0.393,0.393,0.392
					c2.146-0.002,3.122-1.54,3.162-1.605c0.125-0.163,0.058-0.426-0.127-0.54c-0.184-0.114-0.426-0.057-0.54,0.127
					c-0.041,0.064-0.81,1.233-2.495,1.234C242.085,276.468,241.956,276.55,241.889,276.671z"/>
				<path d="M228.033,275.048c-0.031,0.056-0.049,0.121-0.049,0.19c0,0.217,0.176,0.393,0.393,0.392
					c2.146-0.002,3.122-1.54,3.162-1.605c0.125-0.163,0.058-0.426-0.127-0.54c-0.184-0.114-0.426-0.057-0.54,0.126
					c-0.041,0.064-0.81,1.232-2.495,1.234C228.229,274.845,228.1,274.927,228.033,275.048z"/>
				<path d="M240.576,245.733c-0.063-0.012-0.13-0.008-0.196,0.014c-0.205,0.07-0.316,0.292-0.246,0.498
					c0.688,2.033,2.457,2.466,2.531,2.483c0.194,0.066,0.422-0.081,0.471-0.293c0.049-0.211-0.082-0.422-0.292-0.471
					c-0.073-0.018-1.427-0.374-1.966-1.97C240.831,245.853,240.712,245.758,240.576,245.733z"/>
				<path d="M233.382,256.597c-0.061,0.021-0.117,0.057-0.163,0.109c-0.144,0.162-0.131,0.41,0.031,0.554
					c1.599,1.431,3.352,0.938,3.426,0.915c0.202-0.038,0.327-0.278,0.266-0.487c-0.061-0.208-0.279-0.327-0.486-0.266
					c-0.073,0.02-1.426,0.377-2.682-0.747C233.663,256.577,233.513,256.552,233.382,256.597z"/>
				<path d="M225.735,251.589c-0.031,0.056-0.049,0.121-0.049,0.19c0,0.217,0.176,0.393,0.393,0.392
					c2.146-0.002,3.122-1.54,3.162-1.605c0.125-0.163,0.058-0.426-0.127-0.54c-0.185-0.114-0.426-0.057-0.54,0.127
					c-0.041,0.063-0.81,1.232-2.495,1.234C225.93,251.386,225.801,251.468,225.735,251.589z"/>
				<path d="M249.6,253.583c-0.063-0.011-0.13-0.008-0.196,0.014c-0.205,0.07-0.316,0.292-0.246,0.498
					c0.688,2.033,2.457,2.466,2.531,2.483c0.194,0.066,0.422-0.081,0.471-0.293c0.049-0.211-0.082-0.422-0.292-0.471
					c-0.073-0.018-1.427-0.374-1.966-1.97C249.854,253.703,249.736,253.608,249.6,253.583z"/>
				<path d="M235.903,281.286c-0.063-0.012-0.13-0.008-0.196,0.014c-0.205,0.07-0.316,0.292-0.246,0.498
					c0.688,2.033,2.457,2.466,2.531,2.483c0.194,0.066,0.422-0.081,0.471-0.293c0.049-0.211-0.082-0.422-0.292-0.471
					c-0.073-0.018-1.427-0.374-1.966-1.97C236.157,281.407,236.039,281.311,235.903,281.286z"/>
				<path d="M225.725,261.96c-0.063-0.012-0.13-0.008-0.196,0.014c-0.205,0.07-0.316,0.293-0.246,0.498
					c0.688,2.033,2.457,2.466,2.531,2.483c0.194,0.066,0.422-0.081,0.471-0.293c0.049-0.211-0.082-0.422-0.292-0.471
					c-0.073-0.018-1.427-0.374-1.966-1.97C225.979,262.08,225.861,261.984,225.725,261.96z"/>
				<path d="M261.511,260.172c-0.063-0.011-0.13-0.008-0.196,0.014c-0.205,0.07-0.316,0.292-0.246,0.498
					c0.688,2.033,2.457,2.466,2.531,2.483c0.194,0.066,0.422-0.081,0.471-0.293c0.049-0.211-0.082-0.422-0.292-0.471
					c-0.073-0.018-1.427-0.374-1.966-1.97C261.766,260.293,261.647,260.197,261.511,260.172z"/>
				<path d="M256.731,287.108c-0.063-0.012-0.13-0.008-0.196,0.014c-0.205,0.07-0.316,0.292-0.246,0.498
					c0.688,2.033,2.457,2.466,2.531,2.483c0.194,0.066,0.422-0.081,0.471-0.293c0.049-0.211-0.082-0.422-0.292-0.471
					c-0.073-0.018-1.427-0.374-1.966-1.97C256.985,287.229,256.867,287.133,256.731,287.108z"/>
				<path d="M247.394,267.405c-0.041,0.049-0.071,0.109-0.084,0.177c-0.041,0.213,0.099,0.419,0.311,0.46
					c2.107,0.405,3.357-0.921,3.409-0.977c0.153-0.137,0.138-0.407-0.022-0.555c-0.16-0.147-0.407-0.137-0.554,0.022
					c-0.052,0.055-1.029,1.057-2.684,0.738C247.624,267.243,247.483,267.299,247.394,267.405z"/>
				<path d="M238.975,264.899c0.007,0.064,0.03,0.127,0.069,0.184c0.125,0.177,0.37,0.22,0.547,0.095
					c1.753-1.237,1.666-3.056,1.661-3.133c0.008-0.205-0.198-0.382-0.415-0.369c-0.217,0.013-0.381,0.198-0.369,0.414
					c0.003,0.075,0.047,1.474-1.33,2.445C239.018,264.621,238.96,264.761,238.975,264.899z"/>
				<path d="M268.809,248.672c0.007,0.064,0.03,0.127,0.069,0.184c0.125,0.177,0.37,0.22,0.547,0.095
					c1.754-1.237,1.666-3.056,1.661-3.133c0.008-0.205-0.198-0.382-0.415-0.369c-0.217,0.013-0.381,0.198-0.369,0.414
					c0.003,0.075,0.047,1.474-1.33,2.445C268.852,248.394,268.794,248.535,268.809,248.672z"/>
				<path d="M217.929,215.71c0.007,0.064,0.03,0.127,0.069,0.184c0.125,0.177,0.37,0.22,0.547,0.095
					c1.753-1.237,1.666-3.056,1.661-3.133c0.008-0.205-0.198-0.382-0.415-0.369c-0.217,0.013-0.381,0.198-0.369,0.414
					c0.003,0.075,0.047,1.474-1.33,2.445C217.972,215.432,217.914,215.573,217.929,215.71z"/>
				<path d="M228.165,240.845c0.007,0.064,0.03,0.127,0.069,0.184c0.125,0.177,0.37,0.22,0.547,0.095
					c1.753-1.237,1.666-3.056,1.661-3.133c0.008-0.205-0.198-0.382-0.415-0.369c-0.217,0.013-0.381,0.198-0.369,0.414
					c0.003,0.075,0.047,1.474-1.33,2.445C228.208,240.567,228.15,240.707,228.165,240.845z"/>
				<path d="M264.545,237.326c-0.063-0.012-0.13-0.008-0.196,0.014c-0.205,0.07-0.316,0.292-0.246,0.498
					c0.688,2.033,2.457,2.466,2.531,2.483c0.194,0.066,0.422-0.081,0.471-0.293c0.049-0.211-0.082-0.422-0.292-0.471
					c-0.073-0.018-1.427-0.374-1.966-1.97C264.8,237.446,264.681,237.35,264.545,237.326z"/>
				<path d="M257.249,249.498c-0.031,0.056-0.049,0.121-0.049,0.19c0,0.217,0.176,0.393,0.393,0.392
					c2.146-0.002,3.122-1.54,3.162-1.605c0.125-0.163,0.058-0.426-0.127-0.54c-0.185-0.114-0.426-0.057-0.54,0.126
					c-0.041,0.063-0.81,1.232-2.495,1.234C257.444,249.296,257.315,249.377,257.249,249.498z"/>
				<path d="M267.392,282.009c-0.041,0.049-0.071,0.109-0.084,0.177c-0.041,0.213,0.098,0.419,0.311,0.46
					c2.107,0.406,3.358-0.919,3.409-0.975c0.153-0.136,0.138-0.407-0.022-0.555c-0.159-0.147-0.407-0.137-0.554,0.022
					c-0.052,0.055-1.029,1.056-2.684,0.737C267.622,281.847,267.481,281.903,267.392,282.009z"/>
				<path d="M228.739,290.105c-0.063-0.012-0.13-0.008-0.196,0.014c-0.205,0.07-0.316,0.293-0.246,0.498
					c0.688,2.033,2.457,2.466,2.531,2.483c0.194,0.066,0.422-0.081,0.471-0.293c0.049-0.211-0.082-0.422-0.292-0.471
					c-0.073-0.018-1.427-0.374-1.966-1.97C228.994,290.226,228.875,290.13,228.739,290.105z"/>
				<path d="M270.027,271.651c-0.039,0.052-0.065,0.113-0.075,0.181c-0.03,0.215,0.12,0.414,0.334,0.443
					c2.125,0.297,3.306-1.09,3.355-1.15c0.146-0.144,0.117-0.414-0.051-0.553c-0.167-0.139-0.414-0.116-0.552,0.05
					c-0.049,0.057-0.974,1.108-2.643,0.874C270.248,271.477,270.11,271.54,270.027,271.651z"/>
				<path d="M257.746,219.79c-0.063-0.011-0.13-0.008-0.196,0.014c-0.205,0.07-0.316,0.292-0.246,0.498
					c0.688,2.033,2.457,2.466,2.531,2.483c0.194,0.066,0.422-0.081,0.471-0.293c0.049-0.211-0.082-0.422-0.292-0.471
					c-0.073-0.018-1.427-0.374-1.966-1.97C258.001,219.91,257.882,219.814,257.746,219.79z"/>
				<path d="M283.557,215.01c-0.063-0.012-0.13-0.008-0.196,0.014c-0.205,0.07-0.316,0.292-0.246,0.498
					c0.688,2.033,2.457,2.466,2.531,2.483c0.194,0.066,0.422-0.081,0.471-0.293c0.049-0.211-0.082-0.422-0.292-0.471
					c-0.073-0.018-1.427-0.374-1.966-1.97C283.811,215.13,283.693,215.035,283.557,215.01z"/>
				<path d="M247.689,232.277c-0.031,0.056-0.049,0.121-0.049,0.19c0,0.217,0.176,0.393,0.393,0.392
					c2.146-0.002,3.122-1.54,3.162-1.605c0.125-0.163,0.058-0.426-0.127-0.54c-0.185-0.114-0.426-0.057-0.54,0.127
					c-0.041,0.063-0.81,1.232-2.495,1.234C247.884,232.075,247.756,232.157,247.689,232.277z"/>
				<path d="M293.402,223.32c-0.031,0.056-0.049,0.121-0.049,0.19c0,0.217,0.176,0.393,0.393,0.392
					c2.146-0.002,3.122-1.54,3.162-1.605c0.125-0.163,0.058-0.426-0.127-0.54c-0.185-0.114-0.426-0.057-0.54,0.127
					c-0.041,0.063-0.81,1.232-2.495,1.234C293.598,223.118,293.469,223.2,293.402,223.32z"/>
				<path d="M240.684,224.016c-0.031,0.056-0.049,0.121-0.049,0.19c0,0.217,0.176,0.393,0.393,0.392
					c2.146-0.002,3.122-1.54,3.162-1.605c0.125-0.163,0.058-0.426-0.127-0.54c-0.185-0.114-0.426-0.057-0.54,0.127
					c-0.041,0.063-0.81,1.232-2.495,1.234C240.879,223.814,240.751,223.895,240.684,224.016z"/>
				<path d="M230.494,208.775c-0.031,0.056-0.049,0.121-0.049,0.19c0,0.217,0.176,0.393,0.393,0.392
					c2.146-0.002,3.122-1.54,3.162-1.605c0.125-0.163,0.058-0.426-0.127-0.54c-0.185-0.114-0.426-0.057-0.54,0.127
					c-0.041,0.063-0.81,1.232-2.495,1.234C230.689,208.573,230.561,208.655,230.494,208.775z"/>
				<path d="M226.828,222.914c-0.031,0.056-0.049,0.121-0.049,0.19c0,0.217,0.176,0.393,0.393,0.392
					c2.146-0.002,3.122-1.54,3.162-1.605c0.125-0.163,0.058-0.426-0.127-0.54c-0.185-0.114-0.426-0.057-0.54,0.126
					c-0.041,0.064-0.81,1.232-2.495,1.234C227.023,222.711,226.895,222.793,226.828,222.914z"/>
				<path d="M215.498,225.119c-0.031,0.056-0.049,0.121-0.049,0.19c0,0.217,0.176,0.393,0.393,0.392
					c2.146-0.002,3.122-1.54,3.162-1.605c0.125-0.163,0.058-0.426-0.127-0.54c-0.185-0.114-0.426-0.057-0.54,0.126
					c-0.041,0.064-0.81,1.233-2.495,1.234C215.693,224.916,215.565,224.998,215.498,225.119z"/>
				<path d="M234.698,229.153c-0.063-0.011-0.13-0.008-0.196,0.014c-0.205,0.07-0.316,0.292-0.246,0.498
					c0.688,2.033,2.457,2.466,2.531,2.483c0.194,0.066,0.422-0.081,0.471-0.293c0.049-0.211-0.082-0.422-0.292-0.471
					c-0.073-0.018-1.427-0.374-1.966-1.97C234.952,229.273,234.833,229.178,234.698,229.153z"/>
				<path d="M242.428,214.415c-0.041,0.049-0.071,0.109-0.084,0.177c-0.041,0.213,0.099,0.419,0.311,0.46
					c2.107,0.405,3.357-0.921,3.409-0.977c0.153-0.136,0.138-0.407-0.022-0.554c-0.16-0.147-0.407-0.137-0.554,0.022
					c-0.052,0.055-1.029,1.057-2.684,0.738C242.658,214.253,242.516,214.309,242.428,214.415z"/>
				<path d="M265.751,228.432c-0.041,0.049-0.071,0.109-0.084,0.177c-0.041,0.213,0.098,0.419,0.311,0.46
					c2.107,0.406,3.358-0.919,3.409-0.975c0.153-0.137,0.138-0.407-0.022-0.555c-0.159-0.147-0.407-0.137-0.554,0.022
					c-0.052,0.055-1.029,1.056-2.684,0.737C265.981,228.27,265.84,228.326,265.751,228.432z"/>
				<path d="M280.358,228.432c-0.041,0.049-0.071,0.109-0.084,0.177c-0.041,0.213,0.098,0.419,0.311,0.46
					c2.107,0.406,3.358-0.919,3.409-0.975c0.153-0.137,0.138-0.407-0.022-0.555c-0.16-0.147-0.407-0.137-0.554,0.022
					c-0.052,0.055-1.03,1.056-2.685,0.737C280.588,228.27,280.446,228.326,280.358,228.432z"/>
				<path d="M268.822,216.764c-0.039,0.051-0.065,0.113-0.075,0.181c-0.03,0.215,0.12,0.413,0.334,0.443
					c2.125,0.297,3.306-1.09,3.355-1.15c0.146-0.144,0.117-0.414-0.051-0.553c-0.167-0.139-0.414-0.116-0.552,0.05
					c-0.049,0.057-0.974,1.108-2.643,0.874C269.043,216.59,268.905,216.653,268.822,216.764z"/>
				<path d="M285.73,235.672c-0.057,0.03-0.107,0.074-0.146,0.131c-0.119,0.181-0.07,0.425,0.111,0.544
					c1.79,1.183,3.453,0.439,3.522,0.407c0.194-0.067,0.284-0.323,0.192-0.521c-0.091-0.197-0.323-0.283-0.52-0.193
					c-0.069,0.03-1.356,0.581-2.762-0.349C286.005,235.61,285.853,235.608,285.73,235.672z"/>
				<path d="M270.027,207.589c-0.039,0.052-0.065,0.113-0.075,0.181c-0.03,0.215,0.12,0.413,0.334,0.443
					c2.125,0.297,3.306-1.09,3.355-1.149c0.146-0.144,0.117-0.414-0.051-0.553c-0.167-0.139-0.414-0.116-0.552,0.05
					c-0.049,0.057-0.974,1.108-2.643,0.874C270.248,207.416,270.11,207.479,270.027,207.589z"/>
				<path d="M298.247,230.933c0.028,0.058,0.07,0.11,0.126,0.15c0.176,0.126,0.422,0.085,0.548-0.091
					c1.247-1.746,0.565-3.435,0.535-3.505c-0.06-0.196-0.313-0.295-0.513-0.211c-0.2,0.084-0.294,0.313-0.211,0.513
					c0.028,0.07,0.531,1.376-0.449,2.747C298.196,230.656,298.188,230.808,298.247,230.933z"/>
				<path d="M271.975,255.993c-0.031,0.056-0.049,0.121-0.049,0.19c0,0.217,0.176,0.393,0.393,0.392
					c2.146-0.002,3.122-1.54,3.162-1.605c0.125-0.163,0.058-0.426-0.127-0.54c-0.184-0.114-0.426-0.057-0.54,0.126
					c-0.041,0.064-0.81,1.232-2.495,1.234C272.17,255.791,272.042,255.872,271.975,255.993z"/>
				<path d="M207.675,227.127c0.007,0.064,0.03,0.127,0.069,0.184c0.125,0.177,0.37,0.22,0.547,0.095
					c1.753-1.237,1.666-3.056,1.661-3.133c0.008-0.205-0.198-0.382-0.415-0.369c-0.217,0.013-0.381,0.198-0.369,0.414
					c0.003,0.075,0.047,1.474-1.33,2.445C207.718,226.849,207.66,226.989,207.675,227.127z"/>
				<path d="M210.84,234.448c-0.031,0.056-0.049,0.121-0.049,0.19c0,0.217,0.176,0.393,0.393,0.392
					c2.146-0.002,3.122-1.54,3.162-1.605c0.125-0.163,0.058-0.426-0.127-0.54c-0.185-0.114-0.426-0.057-0.54,0.126
					c-0.041,0.064-0.81,1.232-2.495,1.234C211.036,234.245,210.907,234.327,210.84,234.448z"/>
				<path d="M249.704,243.182c-0.031,0.056-0.049,0.121-0.049,0.19c0,0.217,0.176,0.393,0.393,0.392
					c2.146-0.002,3.122-1.54,3.162-1.605c0.125-0.163,0.058-0.426-0.127-0.54c-0.184-0.114-0.426-0.057-0.54,0.126
					c-0.041,0.063-0.81,1.232-2.495,1.234C249.899,242.979,249.77,243.061,249.704,243.182z"/>
			</g>
		</g>
	</g>
</g>
</svg>
