<?xml version="1.0"?>
<svg width="499.99999999999994" height="499.99999999999994" xmlns="http://www.w3.org/2000/svg" xmlns:svg="http://www.w3.org/2000/svg" enable-background="new 0 0 500 500" version="1.1" xml:space="preserve">
 <g class="layer">
  <title>Layer 1</title>
  <g id="Background_Complete" transform="matrix(1 0 0 1 0 0)">
   <g id="svg_11">
    <path d="m173.09,193.15c-38.13,7.28 -94.41,-26.24 -104.56,10.6c-10.15,36.82 2.9,81.54 -4.51,132.86c-7.4,51.33 -18.95,110.43 68.18,92.72c87.14,-17.71 102.26,14.75 166.14,-1.23c69.44,-17.38 148.6,28.36 135.55,-61.44c-9.34,-64.28 9.41,-82.52 8.88,-120.98c-0.64,-47.3 -16.54,-69.52 -49.67,-57.1c-24.88,9.34 -104.81,-13.93 -126.99,3.04c-22.18,16.95 -59.72,-4.8 -93.02,1.55z" fill="#F5F5F5" id="svg_12"/>
    <path d="m97.39,221.46c0.02,2.61 -1.56,4.76 -3.53,4.8c-1.98,0.03 -3.6,-2.07 -3.62,-4.7c-0.02,-2.61 1.56,-4.76 3.53,-4.79c1.98,-0.04 3.6,2.06 3.62,4.68z" fill="#FFFFFF" id="svg_13"/>
    <path d="m105.67,233.96c0.01,1.62 -0.97,2.96 -2.19,2.97c-1.23,0.03 -2.24,-1.29 -2.25,-2.9c-0.01,-1.63 0.97,-2.96 2.19,-2.98c1.23,-0.01 2.23,1.29 2.25,2.92z" fill="#FFFFFF" id="svg_14"/>
    <path d="m146.2,266.81c0.01,1.63 -0.97,2.97 -2.19,2.98c-1.23,0.01 -2.23,-1.29 -2.25,-2.9c-0.01,-1.63 0.97,-2.96 2.2,-2.98c1.22,-0.01 2.23,1.29 2.24,2.9z" fill="#FFFFFF" id="svg_15"/>
    <path d="m96.9,243.26c-0.5,1.84 -2.04,2.8 -3.43,2.14c-1.4,-0.68 -2.12,-2.72 -1.61,-4.56c0.51,-1.86 2.05,-2.81 3.44,-2.14c1.39,0.68 2.11,2.72 1.6,4.56z" fill="#FFFFFF" id="svg_16"/>
    <path d="m100.23,254.95c-0.31,1.15 -1.27,1.75 -2.14,1.33c-0.86,-0.41 -1.31,-1.68 -0.99,-2.83s1.27,-1.75 2.13,-1.33c0.87,0.41 1.31,1.68 1,2.83z" fill="#FFFFFF" id="svg_17"/>
    <path d="m138.68,281.12c-0.31,1.14 -1.27,1.74 -2.13,1.31c-0.87,-0.41 -1.31,-1.68 -1,-2.83c0.31,-1.15 1.27,-1.74 2.13,-1.33s1.32,1.68 1,2.84z" fill="#FFFFFF" id="svg_18"/>
    <path d="m340.18,370.55c0.02,2.24 -1.34,4.07 -3.02,4.1c-1.69,0.03 -3.07,-1.76 -3.09,-4.01s1.33,-4.07 3.02,-4.1s3.07,1.76 3.09,4.01z" fill="#FFFFFF" id="svg_19"/>
    <path d="m329.83,390.23c-0.44,1.58 -1.75,2.39 -2.94,1.82c-1.19,-0.57 -1.81,-2.32 -1.38,-3.9c0.44,-1.58 1.75,-2.4 2.94,-1.82c1.19,0.57 1.81,2.31 1.38,3.9z" fill="#FFFFFF" id="svg_20"/>
    <path d="m115.54,306.41c0.01,1.62 -0.97,2.96 -2.2,2.97c-1.22,0.03 -2.23,-1.29 -2.24,-2.9c-0.01,-1.63 0.97,-2.96 2.19,-2.98c1.23,-0.01 2.23,1.29 2.25,2.92z" fill="#FFFFFF" id="svg_21"/>
    <path d="m108.02,320.71c-0.31,1.14 -1.27,1.74 -2.14,1.31c-0.86,-0.41 -1.31,-1.68 -0.99,-2.83c0.31,-1.15 1.27,-1.74 2.13,-1.33c0.87,0.41 1.31,1.68 1,2.84z" fill="#FFFFFF" id="svg_22"/>
    <path d="m95.21,263.72c-0.21,0.76 -0.83,1.14 -1.4,0.86c-0.57,-0.27 -0.86,-1.1 -0.66,-1.86c0.21,-0.74 0.84,-1.14 1.41,-0.86c0.56,0.28 0.85,1.1 0.65,1.86z" fill="#FFFFFF" id="svg_23"/>
    <path d="m109.51,247.33c-0.2,0.76 -0.83,1.14 -1.4,0.86c-0.56,-0.27 -0.86,-1.1 -0.65,-1.86c0.21,-0.74 0.83,-1.14 1.4,-0.86c0.57,0.28 0.86,1.1 0.65,1.86z" fill="#FFFFFF" id="svg_24"/>
    <path d="m401.29,206.44c0.02,2.98 -1.78,5.44 -4.03,5.46c-2.25,0.04 -4.1,-2.35 -4.12,-5.35c-0.03,-2.98 1.77,-5.43 4.03,-5.46c2.25,-0.03 4.09,2.36 4.12,5.35z" fill="#FFFFFF" id="svg_25"/>
    <path d="m408.97,229.27c0.02,1.86 -1.1,3.37 -2.5,3.4c-1.4,0.01 -2.54,-1.47 -2.56,-3.32c-0.02,-1.86 1.1,-3.38 2.5,-3.4c1.4,-0.03 2.55,1.46 2.56,3.32z" fill="#FFFFFF" id="svg_26"/>
    <path d="m394.53,245.27c-0.58,2.11 -2.34,3.2 -3.93,2.43c-1.58,-0.77 -2.4,-3.09 -1.83,-5.2c0.58,-2.11 2.34,-3.2 3.92,-2.43c1.59,0.77 2.41,3.09 1.84,5.2z" fill="#FFFFFF" id="svg_27"/>
    <path d="m407.32,266.4c-0.36,1.31 -1.45,1.99 -2.44,1.51c-0.98,-0.48 -1.49,-1.92 -1.14,-3.24c0.36,-1.3 1.45,-1.98 2.44,-1.5c0.99,0.48 1.5,1.92 1.14,3.22z" fill="#FFFFFF" id="svg_28"/>
    <path d="m394.95,281.07c-0.23,0.85 -0.94,1.3 -1.59,0.98c-0.65,-0.31 -0.98,-1.26 -0.75,-2.12c0.24,-0.85 0.95,-1.3 1.6,-0.98c0.65,0.31 0.98,1.26 0.74,2.12z" fill="#FFFFFF" id="svg_29"/>
    <path d="m415.85,240.34c-0.23,0.86 -0.95,1.3 -1.6,0.99c-0.64,-0.32 -0.98,-1.26 -0.74,-2.12c0.23,-0.85 0.95,-1.3 1.6,-0.98c0.64,0.31 0.98,1.26 0.74,2.11z" fill="#FFFFFF" id="svg_30"/>
    <path d="m353.89,282.76c0.02,1.86 1.17,3.34 2.56,3.32c1.4,-0.03 2.52,-1.54 2.51,-3.4c-0.02,-1.86 -1.17,-3.34 -2.56,-3.32c-1.4,0.03 -2.52,1.54 -2.51,3.4z" fill="#FFFFFF" id="svg_31"/>
    <path d="m359.46,305.84c0.62,2.08 2.39,3.12 3.96,2.31c1.58,-0.81 2.36,-3.17 1.74,-5.25c-0.61,-2.1 -2.38,-3.12 -3.96,-2.31c-1.57,0.81 -2.35,3.17 -1.74,5.25z" fill="#FFFFFF" id="svg_32"/>
    <path d="m355.84,334.6c0.38,1.3 1.48,1.95 2.46,1.43c0.98,-0.5 1.46,-1.96 1.08,-3.26c-0.38,-1.29 -1.49,-1.94 -2.46,-1.43c-0.98,0.5 -1.46,1.98 -1.08,3.26z" fill="#FFFFFF" id="svg_33"/>
    <path d="m394.05,372.09c0.38,1.3 1.49,1.94 2.46,1.43c0.98,-0.5 1.47,-1.96 1.08,-3.26c-0.38,-1.3 -1.48,-1.94 -2.46,-1.43c-0.97,0.5 -1.46,1.96 -1.08,3.26z" fill="#FFFFFF" id="svg_34"/>
    <path d="m346.69,317.33c0.25,0.85 0.97,1.27 1.61,0.94c0.64,-0.33 0.96,-1.29 0.71,-2.14c-0.25,-0.86 -0.97,-1.27 -1.62,-0.94s-0.95,1.29 -0.7,2.14z" fill="#FFFFFF" id="svg_35"/>
    <path d="m401.59,385.59c0.25,0.85 0.97,1.27 1.61,0.94c0.64,-0.33 0.96,-1.3 0.71,-2.15c-0.25,-0.85 -0.97,-1.27 -1.61,-0.94c-0.64,0.33 -0.96,1.3 -0.71,2.15z" fill="#FFFFFF" id="svg_36"/>
    <path d="m145.95,297.21c-0.2,0.76 -0.83,1.14 -1.4,0.88c-0.57,-0.28 -0.86,-1.11 -0.65,-1.86c0.2,-0.76 0.83,-1.14 1.4,-0.88c0.57,0.28 0.86,1.11 0.65,1.86z" fill="#FFFFFF" id="svg_37"/>
    <path d="m110.32,339.47c-0.2,0.74 -0.83,1.14 -1.4,0.86c-0.57,-0.28 -0.86,-1.1 -0.65,-1.86c0.2,-0.76 0.83,-1.14 1.4,-0.86c0.57,0.27 0.86,1.1 0.65,1.86z" fill="#FFFFFF" id="svg_38"/>
   </g>
  </g>
  <g display="none" id="Background_Simple">
   <g display="inline" id="svg_39">
    <path d="m254.86,173.16c36.03,-14.61 66.09,-39.88 107.74,-24.15c32.84,12.41 51.12,47.54 45.49,81.84c-6.57,40.03 -41.64,57.48 -66.4,84.98c-22.05,24.5 -47.01,62.57 -85.98,52.11c-33.13,-8.88 -40.23,-53.42 -77.4,-62.02c-38.43,-8.89 -65.88,-0.27 -82.87,-48.2c-12.64,-35.63 -1.31,-77.4 39.19,-86.69c40.18,-9.22 78.73,18.94 120.23,2.13z" fill="#407BFF" id="svg_40"/>
    <path d="m254.86,173.16c36.03,-14.61 66.09,-39.88 107.74,-24.15c32.84,12.41 51.12,47.54 45.49,81.84c-6.57,40.03 -41.64,57.48 -66.4,84.98c-22.05,24.5 -47.01,62.57 -85.98,52.11c-33.13,-8.88 -40.23,-53.42 -77.4,-62.02c-38.43,-8.89 -65.88,-0.27 -82.87,-48.2c-12.64,-35.63 -1.31,-77.4 39.19,-86.69c40.18,-9.22 78.73,18.94 120.23,2.13z" fill="#FFFFFF" id="svg_41" opacity="0.9"/>
   </g>
  </g>
  <g id="Shadow_1_" transform="matrix(1 0 0 1 0 0)">
   <ellipse cx="-309.91" cy="306.47" fill="#F5F5F5" id="_x3C_Path_x3E__25_" rx="167.53" ry="11.18"/>
  </g>
  <g id="Fishes">
   <g id="svg_42">
    <path d="m326.92,348.23c0.06,1.32 1.22,1.98 2.39,1.54c1.17,-0.44 2.34,-0.85 2.34,-0.85s-0.34,-0.41 -0.37,-0.78c0,-0.04 0.05,-0.06 0.08,-0.04c0.66,0.62 2.55,0.67 2.55,0.67s-0.4,-0.44 -0.25,-0.85c0.02,-0.07 0.11,-0.08 0.16,-0.03c1.33,1.41 4.43,1.6 4.87,3.04c-0.57,1.33 -3.48,1.99 -5.42,1.7c-0.32,-0.05 -0.64,-0.07 -0.95,-0.04c-0.39,0.04 -0.77,0.12 -1.06,0.27c-0.1,0.05 -0.21,-0.06 -0.16,-0.16c0.13,-0.28 0.37,-0.52 0.37,-0.52s-1.12,-0.53 -2.23,-1.1c-1.12,-0.56 -2.11,-0.07 -1.9,1.23c-0.88,-0.21 -0.66,-1.99 -0.66,-1.99s-0.58,-1.71 0.24,-2.09z" fill="#407BFF" id="svg_43"/>
    <path d="m311.43,350.3c-0.32,1.28 0.61,2.24 1.85,2.15c1.25,-0.1 2.49,-0.17 2.49,-0.17s-0.21,-0.48 -0.13,-0.85c0,-0.04 0.06,-0.05 0.08,-0.01c0.46,0.77 2.26,1.35 2.26,1.35s-0.26,-0.53 0,-0.88c0.04,-0.06 0.13,-0.05 0.16,0.02c0.88,1.72 3.81,2.77 3.83,4.28c-0.92,1.11 -3.9,0.94 -5.68,0.11c-0.29,-0.14 -0.59,-0.25 -0.91,-0.3c-0.37,-0.07 -0.77,-0.1 -1.08,-0.04c-0.11,0.02 -0.19,-0.12 -0.12,-0.2c0.21,-0.23 0.51,-0.39 0.51,-0.39s-0.93,-0.83 -1.84,-1.68c-0.92,-0.86 -2,-0.67 -2.16,0.64c-0.79,-0.44 -0.08,-2.1 -0.08,-2.1s-0.08,-1.79 0.82,-1.93z" fill="#407BFF" id="svg_44"/>
    <path d="m303.75,338.81c-0.21,1.44 0.9,2.4 2.27,2.16c1.36,-0.24 2.71,-0.44 2.71,-0.44s-0.28,-0.52 -0.24,-0.92c0.01,-0.05 0.07,-0.06 0.09,-0.03c0.59,0.8 2.63,1.25 2.63,1.25s-0.34,-0.56 -0.09,-0.97c0.04,-0.07 0.14,-0.07 0.18,0c1.15,1.8 4.48,2.65 4.66,4.3c-0.89,1.33 -4.19,1.45 -6.23,0.73c-0.34,-0.12 -0.68,-0.21 -1.03,-0.24c-0.42,-0.03 -0.85,-0.03 -1.19,0.07c-0.13,0.04 -0.23,-0.1 -0.15,-0.21c0.2,-0.27 0.51,-0.48 0.51,-0.48s-1.1,-0.81 -2.2,-1.65c-1.1,-0.84 -2.27,-0.52 -2.3,0.94c-0.92,-0.4 -0.32,-2.3 -0.32,-2.3s-0.27,-1.97 0.7,-2.21z" fill="#407BFF" id="svg_45"/>
    <path d="m126.05,292.02c-0.42,1.25 -1.71,1.57 -2.72,0.82c-1,-0.75 -2.01,-1.47 -2.01,-1.47s0.44,-0.3 0.57,-0.64c0.01,-0.04 -0.03,-0.08 -0.07,-0.06c-0.8,0.41 -2.63,-0.07 -2.63,-0.07s0.5,-0.3 0.47,-0.74c-0.01,-0.07 -0.09,-0.11 -0.15,-0.07c-1.66,0.99 -4.7,0.31 -5.51,1.58c0.17,1.43 2.79,2.87 4.74,3.12c0.31,0.04 0.63,0.11 0.92,0.23c0.36,0.14 0.71,0.32 0.94,0.54c0.08,0.08 0.22,0.01 0.2,-0.11c-0.05,-0.3 -0.22,-0.59 -0.22,-0.59s1.23,-0.21 2.46,-0.44c1.23,-0.24 2.04,0.5 1.48,1.69c0.9,0.05 1.19,-1.72 1.19,-1.72s1.02,-1.49 0.34,-2.07z" fill="#407BFF" id="svg_46"/>
    <path d="m133.35,308.18c-0.38,1.13 -1.55,1.43 -2.46,0.75c-0.91,-0.68 -1.83,-1.33 -1.83,-1.33s0.4,-0.27 0.52,-0.59c0.01,-0.03 -0.03,-0.06 -0.06,-0.05c-0.73,0.37 -2.39,-0.06 -2.39,-0.06s0.46,-0.27 0.43,-0.67c0,-0.06 -0.08,-0.1 -0.13,-0.07c-1.51,0.9 -4.26,0.29 -5,1.43c0.16,1.3 2.53,2.61 4.3,2.84c0.28,0.03 0.57,0.1 0.83,0.2c0.33,0.13 0.64,0.3 0.85,0.5c0.08,0.07 0.21,0 0.19,-0.1c-0.05,-0.28 -0.2,-0.54 -0.2,-0.54s1.11,-0.19 2.22,-0.4c1.12,-0.22 1.86,0.46 1.35,1.54c0.81,0.04 1.07,-1.57 1.07,-1.57s0.93,-1.34 0.31,-1.88z" fill="#407BFF" id="svg_47"/>
    <path d="m140.37,298.28c-0.05,1.32 -1.2,1.99 -2.38,1.55c-1.17,-0.43 -2.34,-0.84 -2.34,-0.84s0.34,-0.41 0.36,-0.78c0.01,-0.04 -0.04,-0.06 -0.07,-0.04c-0.66,0.62 -2.55,0.68 -2.55,0.68s0.4,-0.44 0.25,-0.85c-0.03,-0.07 -0.12,-0.08 -0.17,-0.03c-1.31,1.42 -4.42,1.62 -4.85,3.06c0.57,1.33 3.49,1.98 5.43,1.68c0.31,-0.05 0.63,-0.08 0.95,-0.04c0.38,0.03 0.77,0.11 1.05,0.26c0.1,0.05 0.22,-0.06 0.17,-0.16c-0.14,-0.28 -0.38,-0.52 -0.38,-0.52s1.12,-0.54 2.23,-1.11c1.12,-0.56 2.11,-0.08 1.9,1.22c0.88,-0.2 0.66,-1.99 0.66,-1.99s0.56,-1.71 -0.26,-2.09z" fill="#407BFF" id="svg_48"/>
    <path d="m150.93,289.36c-0.2,1.44 -1.54,2.05 -2.78,1.45s-2.49,-1.18 -2.49,-1.18s0.42,-0.41 0.48,-0.82c0.01,-0.04 -0.04,-0.07 -0.08,-0.05c-0.78,0.61 -2.87,0.47 -2.87,0.47s0.48,-0.43 0.36,-0.9c-0.02,-0.07 -0.12,-0.1 -0.18,-0.05c-1.6,1.42 -5.03,1.31 -5.66,2.85c0.49,1.52 3.63,2.54 5.79,2.42c0.35,-0.03 0.71,-0.02 1.05,0.05c0.42,0.09 0.83,0.21 1.13,0.4c0.11,0.07 0.24,-0.04 0.2,-0.16c-0.12,-0.32 -0.36,-0.6 -0.36,-0.6s1.29,-0.47 2.57,-0.98c1.29,-0.51 2.33,0.13 1.96,1.53c0.99,-0.13 0.93,-2.12 0.93,-2.12s0.81,-1.82 -0.05,-2.31z" fill="#407BFF" id="svg_49"/>
    <path d="m152.58,208.18c-0.2,1.44 -1.54,2.06 -2.78,1.45c-1.24,-0.6 -2.49,-1.18 -2.49,-1.18s0.42,-0.41 0.49,-0.81c0,-0.05 -0.05,-0.08 -0.09,-0.05c-0.78,0.61 -2.87,0.47 -2.87,0.47s0.49,-0.44 0.36,-0.9c-0.02,-0.08 -0.11,-0.11 -0.17,-0.05c-1.6,1.41 -5.04,1.31 -5.67,2.84c0.49,1.52 3.63,2.55 5.79,2.42c0.36,-0.02 0.71,-0.01 1.05,0.06c0.42,0.08 0.83,0.21 1.13,0.4c0.11,0.06 0.25,-0.04 0.2,-0.16c-0.11,-0.32 -0.36,-0.61 -0.36,-0.61s1.29,-0.47 2.57,-0.98c1.29,-0.51 2.33,0.13 1.96,1.54c0.99,-0.13 0.94,-2.12 0.94,-2.12s0.8,-1.82 -0.06,-2.32z" fill="#407BFF" id="svg_50"/>
    <path d="m128.42,318.23c-0.12,1.31 -1.31,1.92 -2.46,1.42c-1.15,-0.5 -2.29,-0.97 -2.29,-0.97s0.36,-0.39 0.4,-0.76c0.01,-0.04 -0.04,-0.07 -0.07,-0.04c-0.69,0.58 -2.58,0.53 -2.58,0.53s0.42,-0.41 0.29,-0.83c-0.02,-0.07 -0.11,-0.09 -0.16,-0.04c-1.39,1.35 -4.5,1.38 -5.01,2.79c0.5,1.36 3.37,2.17 5.33,1.97c0.31,-0.03 0.63,-0.04 0.95,0.01c0.37,0.06 0.76,0.16 1.03,0.32c0.1,0.06 0.22,-0.04 0.18,-0.15c-0.12,-0.29 -0.35,-0.53 -0.35,-0.53s1.14,-0.48 2.29,-0.99c1.14,-0.51 2.1,0.03 1.82,1.32c0.89,-0.16 0.77,-1.96 0.77,-1.96s0.66,-1.67 -0.14,-2.09z" fill="#407BFF" id="svg_51"/>
    <path d="m139.21,332.32c-0.12,1.18 -1.19,1.73 -2.23,1.28c-1.04,-0.45 -2.08,-0.88 -2.08,-0.88s0.32,-0.35 0.36,-0.69c0.01,-0.03 -0.04,-0.06 -0.06,-0.03c-0.63,0.52 -2.34,0.48 -2.34,0.48s0.38,-0.37 0.26,-0.75c-0.02,-0.06 -0.1,-0.08 -0.14,-0.04c-1.27,1.22 -4.08,1.25 -4.55,2.53c0.45,1.23 3.06,1.97 4.83,1.79c0.29,-0.03 0.58,-0.04 0.87,0.01c0.34,0.05 0.68,0.14 0.93,0.29c0.09,0.05 0.2,-0.04 0.16,-0.14c-0.1,-0.26 -0.31,-0.48 -0.31,-0.48s1.03,-0.44 2.07,-0.9c1.04,-0.46 1.91,0.03 1.66,1.2c0.8,-0.14 0.69,-1.77 0.69,-1.77s0.6,-1.52 -0.12,-1.9z" fill="#407BFF" id="svg_52"/>
    <path d="m187.09,293c0.16,1.18 -0.77,1.96 -1.88,1.76c-1.12,-0.21 -2.23,-0.39 -2.23,-0.39s0.24,-0.41 0.2,-0.75c0,-0.04 -0.05,-0.05 -0.07,-0.02c-0.49,0.66 -2.17,1 -2.17,1s0.29,-0.45 0.09,-0.79c-0.03,-0.06 -0.12,-0.06 -0.15,0c-0.95,1.47 -3.69,2.14 -3.85,3.5c0.72,1.09 3.42,1.21 5.11,0.63c0.27,-0.09 0.55,-0.16 0.84,-0.18c0.35,-0.03 0.7,-0.02 0.98,0.06c0.1,0.03 0.18,-0.08 0.12,-0.16c-0.16,-0.23 -0.42,-0.4 -0.42,-0.4s0.92,-0.66 1.82,-1.34c0.91,-0.69 1.87,-0.41 1.89,0.78c0.75,-0.32 0.27,-1.88 0.27,-1.88s0.24,-1.62 -0.55,-1.82z" fill="#407BFF" id="svg_53"/>
    <path d="m143.79,321.08c0.25,1.3 -0.72,2.21 -1.96,2.05c-1.24,-0.16 -2.47,-0.29 -2.47,-0.29s0.23,-0.48 0.17,-0.84c0,-0.04 -0.06,-0.05 -0.08,-0.02c-0.5,0.75 -2.33,1.24 -2.33,1.24s0.29,-0.52 0.05,-0.88c-0.04,-0.06 -0.13,-0.06 -0.17,0c-0.96,1.68 -3.93,2.58 -4.03,4.09c0.86,1.16 3.85,1.13 5.67,0.4c0.29,-0.12 0.6,-0.22 0.91,-0.26c0.38,-0.05 0.78,-0.06 1.09,0.02c0.11,0.02 0.2,-0.11 0.12,-0.2c-0.19,-0.24 -0.48,-0.41 -0.48,-0.41s0.96,-0.78 1.92,-1.59c0.96,-0.81 2.03,-0.56 2.13,0.75c0.81,-0.4 0.18,-2.09 0.18,-2.09s0.17,-1.79 -0.72,-1.97z" fill="#407BFF" id="svg_54"/>
    <path d="m152.05,309.99c0.13,1.45 -1.03,2.35 -2.38,2.05c-1.35,-0.31 -2.69,-0.59 -2.69,-0.59s0.31,-0.49 0.28,-0.9c0,-0.05 -0.06,-0.07 -0.09,-0.03c-0.62,0.77 -2.69,1.11 -2.69,1.11s0.37,-0.54 0.15,-0.96c-0.04,-0.07 -0.14,-0.08 -0.18,-0.01c-1.24,1.74 -4.61,2.42 -4.87,4.06c0.82,1.37 4.11,1.65 6.19,1.04c0.33,-0.1 0.68,-0.17 1.03,-0.18c0.43,-0.02 0.86,0.01 1.19,0.13c0.12,0.04 0.23,-0.1 0.16,-0.2c-0.18,-0.29 -0.49,-0.51 -0.49,-0.51s1.15,-0.75 2.29,-1.54c1.13,-0.79 2.29,-0.4 2.25,1.05c0.93,-0.35 0.43,-2.28 0.43,-2.28s0.37,-1.95 -0.58,-2.24z" fill="#407BFF" id="svg_55"/>
    <path d="m164.27,327.63c-0.11,1.19 -1.19,1.74 -2.23,1.28c-1.04,-0.45 -2.08,-0.88 -2.08,-0.88s0.33,-0.35 0.37,-0.68c0.01,-0.04 -0.04,-0.06 -0.07,-0.04c-0.62,0.53 -2.33,0.49 -2.33,0.49s0.38,-0.38 0.26,-0.76c-0.02,-0.06 -0.1,-0.08 -0.15,-0.03c-1.26,1.22 -4.08,1.25 -4.54,2.53c0.45,1.23 3.06,1.96 4.83,1.78c0.29,-0.03 0.58,-0.03 0.86,0.01c0.34,0.06 0.69,0.14 0.94,0.29c0.09,0.05 0.2,-0.04 0.16,-0.14c-0.11,-0.26 -0.32,-0.48 -0.32,-0.48s1.04,-0.43 2.08,-0.89c1.03,-0.46 1.91,0.03 1.65,1.19c0.81,-0.14 0.7,-1.77 0.7,-1.77s0.6,-1.52 -0.13,-1.9z" fill="#407BFF" id="svg_56"/>
    <path d="m143.12,216.99c-0.3,1.15 -1.45,1.53 -2.4,0.92c-0.96,-0.61 -1.92,-1.19 -1.92,-1.19s0.38,-0.3 0.47,-0.63c0.01,-0.03 -0.03,-0.06 -0.06,-0.04c-0.7,0.42 -2.39,0.11 -2.39,0.11s0.43,-0.31 0.38,-0.7c-0.01,-0.07 -0.09,-0.1 -0.14,-0.06c-1.44,1.01 -4.23,0.6 -4.88,1.79c0.25,1.29 2.71,2.42 4.49,2.52c0.29,0.01 0.57,0.05 0.85,0.14c0.33,0.11 0.66,0.25 0.88,0.43c0.08,0.07 0.2,-0.01 0.18,-0.11c-0.06,-0.27 -0.24,-0.52 -0.24,-0.52s1.1,-0.27 2.19,-0.56c1.1,-0.3 1.88,0.32 1.45,1.43c0.82,-0.01 0.96,-1.64 0.96,-1.64s0.84,-1.41 0.18,-1.89z" fill="#407BFF" id="svg_57"/>
    <path d="m168.86,316.4c0.25,1.29 -0.72,2.2 -1.96,2.05c-1.25,-0.17 -2.48,-0.3 -2.48,-0.3s0.24,-0.47 0.18,-0.84c-0.01,-0.04 -0.06,-0.05 -0.08,-0.01c-0.5,0.75 -2.33,1.23 -2.33,1.23s0.29,-0.51 0.05,-0.88c-0.04,-0.06 -0.13,-0.05 -0.17,0.01c-0.96,1.68 -3.94,2.58 -4.03,4.08c0.86,1.16 3.84,1.14 5.66,0.4c0.3,-0.12 0.6,-0.21 0.92,-0.25c0.38,-0.05 0.77,-0.07 1.08,0.01c0.12,0.03 0.2,-0.1 0.13,-0.19c-0.19,-0.25 -0.49,-0.42 -0.49,-0.42s0.97,-0.78 1.93,-1.58c0.95,-0.81 2.03,-0.56 2.12,0.75c0.81,-0.4 0.19,-2.09 0.19,-2.09c0,0 0.17,-1.8 -0.72,-1.97z" fill="#407BFF" id="svg_58"/>
    <path d="m166.27,294.81c0.24,1.29 -0.73,2.21 -1.97,2.05c-1.24,-0.16 -2.47,-0.29 -2.47,-0.29s0.24,-0.48 0.18,-0.84c-0.01,-0.05 -0.07,-0.06 -0.09,-0.02c-0.5,0.75 -2.33,1.23 -2.33,1.23s0.29,-0.51 0.05,-0.88c-0.04,-0.06 -0.13,-0.05 -0.16,0.01c-0.97,1.68 -3.94,2.58 -4.04,4.08c0.86,1.17 3.85,1.14 5.67,0.4c0.29,-0.12 0.6,-0.21 0.92,-0.25c0.38,-0.05 0.77,-0.07 1.08,0.01c0.11,0.03 0.2,-0.1 0.13,-0.19c-0.2,-0.24 -0.49,-0.42 -0.49,-0.42s0.97,-0.78 1.92,-1.58s2.03,-0.56 2.13,0.75c0.81,-0.4 0.18,-2.09 0.18,-2.09s0.17,-1.79 -0.71,-1.97z" fill="#407BFF" id="svg_59"/>
    <path d="m177.11,305.31c0.14,1.44 -1.03,2.35 -2.37,2.04c-1.35,-0.31 -2.7,-0.58 -2.7,-0.58s0.32,-0.5 0.29,-0.91c0,-0.04 -0.06,-0.06 -0.09,-0.03c-0.63,0.77 -2.69,1.11 -2.69,1.11s0.37,-0.53 0.15,-0.96c-0.04,-0.07 -0.14,-0.07 -0.19,-0.01c-1.23,1.75 -4.6,2.42 -4.86,4.06c0.82,1.37 4.11,1.66 6.18,1.04c0.34,-0.1 0.69,-0.17 1.04,-0.18c0.42,-0.02 0.86,0.01 1.19,0.13c0.12,0.04 0.23,-0.09 0.16,-0.2c-0.19,-0.29 -0.49,-0.51 -0.49,-0.51s1.14,-0.75 2.28,-1.54s2.29,-0.4 2.26,1.05c0.93,-0.35 0.43,-2.27 0.43,-2.27s0.37,-1.95 -0.59,-2.24z" fill="#407BFF" id="svg_60"/>
   </g>
  </g>
  <g id="Iceberg">
   <g id="svg_61">
    <g id="svg_62">
     <g id="svg_63">
      <path d="m338.66,175.74c-29.55,0 -29.55,8 -59.11,8c-29.56,0 -29.56,-8 -59.11,-8c-29.56,0 -29.56,8 -59.11,8l4.34,-18.11l24.33,-16.33l19.67,-46.5l27.66,-10.17l30,-26.67l34.33,31l8,33l24.34,32l4.66,13.78z" fill="#407BFF" id="svg_64"/>
      <path d="m338.66,175.74c-29.55,0 -29.55,8 -59.11,8c-29.56,0 -29.56,-8 -59.11,-8c-29.56,0 -29.56,8 -59.11,8l4.34,-18.11l24.33,-16.33l19.67,-46.5l27.66,-10.17l30,-26.67l34.33,31l8,33l24.34,32l4.66,13.78z" fill="#FFFFFF" id="svg_65" opacity="0.7"/>
     </g>
     <g id="svg_66">
      <polygon fill="#FFFFFF" id="svg_67" opacity="0.8" points="209.66700744628906,102.796910405159 212,134.13090240955353 235,107.96391022205353 237.33099365234375,92.62991058826447 "/>
      <polygon fill="#FFFFFF" id="svg_68" opacity="0.5" points="237.33099365234375,149.29690277576447 212,134.13090240955353 235,107.96391022205353 255.33299255371094,107.96391022205353 "/>
      <polygon fill="#FFFFFF" id="svg_69" opacity="0.7" points="237.33099365234375,149.29690277576447 212,134.13090240955353 200.99899291992188,144.63090240955353 193.5,164.79690277576447 "/>
      <polygon fill="#FFFFFF" id="svg_70" opacity="0.4" points="237.33099365234375,149.29690277576447 259.4649963378906,148.65290558338165 239.88900756835938,168.85290253162384 193.5,164.79690277576447 "/>
      <polygon fill="#FFFFFF" id="svg_71" opacity="0.2" points="281.10699462890625,160.54191315174103 259.4649963378906,148.65290558338165 245.1929931640625,163.37991058826447 274.3330078125,173.51890289783478 "/>
      <polygon fill="#FFFFFF" id="svg_72" opacity="0.6" points="237.33099365234375,149.29690277576447 270.77801513671875,134.13090240955353 267.33099365234375,65.96391022205353 255.33299255371094,107.96391022205353 "/>
      <polygon fill="#FFFFFF" id="svg_73" points="237.33099365234375,149.29690277576447 270.77801513671875,134.13090240955353 300.9159851074219,158.96391022205353 271.6669921875,148.29690277576447 "/>
      <polygon fill="#FFFFFF" id="svg_74" opacity="0.4" points="259.4649963378906,148.65290558338165 304.73199462890625,173.51890289783478 300.9159851074219,158.96391022205353 271.6669921875,148.29690277576447 "/>
      <polygon fill="#FFFFFF" id="svg_75" opacity="0.8" points="292.1669921875,103.796910405159 268.81298828125,95.27290832996368 267.33099365234375,65.96391022205353 301.66400146484375,96.96391022205353 "/>
      <polygon fill="#FFFFFF" id="svg_76" points="292.1669921875,103.796910405159 268.81298828125,95.27290832996368 269.9440002441406,117.63290894031525 304.73199462890625,122.58691132068634 "/>
      <polygon fill="#FFFFFF" id="svg_77" opacity="0.3" points="300.9159851074219,158.96391022205353 270.77801513671875,134.13090240955353 269.9440002441406,117.63290894031525 304.73199462890625,122.58691132068634 "/>
      <polygon fill="#FFFFFF" id="svg_78" opacity="0.6" points="301.614013671875,152.3029147386551 334,161.96391022205353 309.66400146484375,129.96391022205353 304.73199462890625,122.58691132068634 "/>
      <polygon fill="#FFFFFF" id="svg_79" opacity="0.6" points="301.6650085449219,96.96391022205353 292.1669921875,103.796910405159 309.6650085449219,129.96391022205353 "/>
      <polygon fill="#FFFFFF" id="svg_80" opacity="0.3" points="267.33099365234375,65.96391022205353 237.33099365234375,92.62991058826447 235,107.96391022205353 255.33299255371094,107.96391022205353 "/>
      <polygon fill="#FFFFFF" id="svg_81" opacity="0.5" points="209.66700744628906,102.796910405159 189.9980010986328,149.29690277576447 193.5,164.79690277576447 200.99899291992188,144.63090240955353 212,134.13090240955353 "/>
      <polygon fill="#FFFFFF" id="svg_82" opacity="0.8" points="165.6649932861328,165.63090240955353 193.5,164.79690277576447 189.9980010986328,149.29690277576447 "/>
     </g>
    </g>
    <g id="svg_83">
     <g id="svg_84">
      <path d="m338.66,175.74c-29.55,0 -29.55,8 -59.11,8c-29.56,0 -29.56,-8 -59.11,-8c-29.56,0 -29.56,8 -59.11,8l4.34,103.11l24.33,72.45l25.45,12.66l22.33,0l31.44,10.89l25.34,-17.33l15.1,-25.56l18.23,-42.89l10.77,-121.33z" fill="#407BFF" id="svg_85"/>
      <path d="m338.66,175.74c-29.55,0 -29.55,8 -59.11,8c-29.56,0 -29.56,-8 -59.11,-8c-29.56,0 -29.56,8 -59.11,8l4.34,103.11l24.33,72.45l25.45,12.66l22.33,0l31.44,10.89l25.34,-17.33l15.1,-25.56l18.23,-42.89l10.77,-121.33z" id="svg_86" opacity="0.2"/>
     </g>
     <g id="svg_87">
      <polygon id="svg_88" opacity="0.4" points="165.6649932861328,286.85290253162384 193.5,263.62991058826447 200.99899291992188,350.62991058826447 189.9980010986328,359.29690277576447 "/>
      <polygon id="svg_89" opacity="0.3" points="224.27200317382812,249.8119021654129 193.5,263.62991058826447 200.99899291992188,350.62991058826447 261.22198486328125,315.96389496326447 "/>
      <polygon id="svg_90" opacity="0.5" points="224.27200317382812,249.8119021654129 275,282.62991058826447 284.6300048828125,318.47192108631134 261.22198486328125,315.96389496326447 "/>
      <polygon id="svg_91" opacity="0.3" points="276.08099365234375,216.73591339588165 275,282.62991058826447 284.6300048828125,318.47192108631134 313.0299987792969,282.8879061937332 "/>
      <polygon id="svg_92" opacity="0.2" points="276.08099365234375,216.73591339588165 317.8070068359375,209.96391022205353 333.07000732421875,238.72691071033478 313.0299987792969,282.8879061937332 "/>
      <polygon id="svg_93" opacity="0.1" points="317.8070068359375,209.96391022205353 333.07000732421875,238.72691071033478 336.2550048828125,202.86691009998322 "/>
      <polygon id="svg_94" opacity="0.2" points="276.08099365234375,216.73591339588165 275,282.62991058826447 224.27200317382812,249.8119021654129 252.67300415039062,214.22790253162384 "/>
      <polygon id="svg_95" opacity="0.1" points="190.53799438476562,201.70890533924103 193.5,263.62991058826447 224.27200317382812,249.8119021654129 252.67300415039062,214.22790253162384 "/>
      <polygon id="svg_96" opacity="0.05" points="190.53799438476562,201.70890533924103 176.16200256347656,187.63090240955353 227.91400146484375,188.99790680408478 252.67300415039062,214.22790253162384 "/>
      <polygon id="svg_97" opacity="0.1" points="276.08099365234375,216.73591339588165 317.8070068359375,209.96391022205353 227.91400146484375,188.99790680408478 252.67300415039062,214.22790253162384 "/>
      <polygon id="svg_98" opacity="0.05" points="336.2550048828125,202.86691009998322 317.8070068359375,209.96391022205353 261.9670104980469,196.93990814685822 321.5,184.79690277576447 "/>
      <polygon id="svg_99" opacity="0.2" points="190.53799438476562,201.70890533924103 193.5,263.62991058826447 165.6649932861328,286.85290253162384 163.6219940185547,238.27790558338165 "/>
      <polygon id="svg_100" opacity="0.1" points="190.53799438476562,201.70890533924103 176.16200256347656,187.63090240955353 161.78599548339844,194.6049166917801 163.6219940185547,238.27790558338165 "/>
      <polygon id="svg_101" opacity="0.4" points="327.8890075683594,297.0749179124832 297,319.79690277576447 284.6300048828125,318.47192108631134 313.0299987792969,282.8879061937332 "/>
      <polygon id="svg_102" opacity="0.5" points="297,319.79690277576447 309.6650085449219,339.96389496326447 327.8890075683594,297.0749179124832 "/>
      <polygon id="svg_103" opacity="0.3" points="313.0299987792969,282.8879061937332 333.07000732421875,238.72691071033478 327.8890075683594,297.0749179124832 "/>
      <polygon id="svg_104" opacity="0.5" points="215.44400024414062,371.96389496326447 261.22198486328125,315.96389496326447 200.99899291992188,350.62991058826447 189.9980010986328,359.29690277576447 "/>
      <polygon id="svg_105" opacity="0.7" points="215.44400024414062,371.96389496326447 261.22198486328125,315.96389496326447 275,357.51891815662384 236.7779998779297,371.96389496326447 "/>
      <polygon id="svg_106" opacity="0.4" points="297,319.79690277576447 261.22198486328125,315.96389496326447 275,357.51891815662384 309.66400146484375,339.96389496326447 "/>
      <polygon id="svg_107" opacity="0.5" points="275,357.51891815662384 294.5559997558594,365.51891815662384 309.6650085449219,339.96389496326447 "/>
      <polygon id="svg_108" opacity="0.8" points="269.22198486328125,382.85290253162384 294.5559997558594,365.51891815662384 275,357.51891815662384 236.7779998779297,371.96389496326447 "/>
     </g>
    </g>
    <g id="svg_109">
     <path d="m155.41,160.03l0,-0.25c4.65,-0.04 16.35,-4.44 16.35,-14.62l0.25,0c0,9.68 -10.8,14.83 -16.6,14.87z" fill="#407BFF" id="svg_110"/>
     <path d="m162.54,165.23c-0.71,0 -1.28,-0.58 -1.28,-1.29l0,-2.01l-8.59,0l0,3.3l-0.95,0l0,-3.16l-0.8,0c-0.69,0 -1.25,0.56 -1.25,1.25l0,2.95c0,0.69 0.56,1.24 1.25,1.24l0.14,0l0,0.19l1.61,0l8.59,7.76l3.69,0l0,-8.48c0,-0.97 -0.79,-1.75 -1.76,-1.75l-0.65,0z" fill="#263238" id="svg_111"/>
     <path d="m144.87,159.91l0,17.12l19.58,0l0,-17.12l-19.58,0zm18.54,6.26c0,0.64 -0.52,1.16 -1.16,1.16l-11.21,0c-0.64,0 -1.16,-0.52 -1.16,-1.16l0,-2.75c0,-0.64 0.52,-1.16 1.16,-1.16l11.21,0c0.64,0 1.16,0.52 1.16,1.16l0,2.75z" fill="#407BFF" id="svg_112"/>
     <g id="svg_113">
      <path d="m171.89,162.49l0,0c-0.53,0 -0.95,0.43 -0.95,0.95l0,14.93c0,0.53 0.42,0.95 0.95,0.95l0,0c0.52,0 0.95,-0.42 0.95,-0.95l0,-14.93c0,-0.52 -0.43,-0.95 -0.95,-0.95z" fill="#407BFF" id="svg_114"/>
     </g>
     <g id="svg_115">
      <path d="m171.89,143.59l0,0c-0.19,0 -0.34,0.16 -0.34,0.34l0,25.3c0,0.19 0.15,0.34 0.34,0.34l0,0c0.19,0 0.34,-0.15 0.34,-0.34l0,-25.3c0,-0.18 -0.15,-0.34 -0.34,-0.34z" fill="#407BFF" id="svg_116"/>
     </g>
     <g id="svg_117">
      <path d="m139.53,159.45l0,0c-0.19,0 -0.34,0.15 -0.34,0.34l0,17.36c0,0.19 0.15,0.34 0.34,0.34l0,0c0.19,0 0.34,-0.15 0.34,-0.34l0,-17.36c0,-0.19 -0.15,-0.34 -0.34,-0.34z" fill="#407BFF" id="svg_118"/>
     </g>
     <path d="m158.93,171.1c1.26,0 2.28,1.02 2.28,2.28c0,1.26 -1.02,2.28 -2.28,2.28s-2.28,-1.02 -2.28,-2.28c0,-1.26 1.02,-2.28 2.28,-2.28m0,-1c-1.82,0 -3.28,1.47 -3.28,3.28c0,1.82 1.46,3.28 3.28,3.28s3.28,-1.46 3.28,-3.28c0,-1.81 -1.47,-3.28 -3.28,-3.28l0,0z" fill="#FFFFFF" id="svg_119"/>
     <path d="m162.25,162.26c0.64,0 1.16,0.52 1.16,1.16l0,2.75c0,0.64 -0.52,1.16 -1.16,1.16l-11.21,0c-0.64,0 -1.16,-0.52 -1.16,-1.16l0,-2.75c0,-0.64 0.52,-1.16 1.16,-1.16l11.21,0m0,-0.5l-11.21,0c-0.92,0 -1.66,0.74 -1.66,1.66l0,2.75c0,0.91 0.74,1.66 1.66,1.66l11.21,0c0.92,0 1.66,-0.75 1.66,-1.66l0,-2.75c0,-0.92 -0.74,-1.66 -1.66,-1.66l0,0z" fill="#FFFFFF" id="svg_120" opacity="0.4"/>
     <rect fill="#FFFFFF" height="17.12" id="svg_121" opacity="0.4" width="3.97" x="144.87" y="159.91"/>
     <g id="svg_122">
      <path d="m128.67,170.85c6.89,10.22 14.53,12.89 36,12.89c9.45,0 23.67,-2.67 23.67,-12.89c-3.94,2.78 -11.29,5.83 -24.95,5.83c-14.94,0 -22.27,-8.55 -34.72,-5.83z" fill="#407BFF" id="svg_123"/>
      <path d="m128.67,170.85c6.89,10.22 14.53,12.89 36,12.89c9.45,0 23.67,-2.67 23.67,-12.89c-3.94,2.78 -11.29,5.83 -24.95,5.83c-14.94,0 -22.27,-8.55 -34.72,-5.83z" fill="#FFFFFF" id="svg_124" opacity="0.4"/>
     </g>
     <path d="m163.39,177.68c-7.06,0 -12.56,-1.9 -17.4,-3.57c-5.73,-1.98 -10.68,-3.69 -17.1,-2.28c-0.54,0.12 -1.08,-0.22 -1.19,-0.76c-0.12,-0.54 0.22,-1.08 0.76,-1.2c6.97,-1.52 12.42,0.36 18.18,2.35c4.93,1.7 10.02,3.46 16.75,3.46c13.52,0 20.72,-3.07 24.37,-5.65c0.46,-0.31 1.08,-0.21 1.4,0.25c0.32,0.45 0.21,1.07 -0.24,1.39c-5.67,3.99 -14.26,6.01 -25.53,6.01z" fill="#407BFF" id="svg_125"/>
     <path d="m164.69,160.45l-20.06,0c-0.3,0 -0.54,-0.24 -0.54,-0.54l0,0c0,-0.3 0.24,-0.54 0.54,-0.54l20.06,0c0.3,0 0.54,0.24 0.54,0.54l0,0c0,0.3 -0.24,0.54 -0.54,0.54z" fill="#263238" id="svg_126"/>
     <path d="m173.31,144.74l-2.84,0c-0.1,0 -0.17,-0.07 -0.17,-0.17l0,0c0,-0.09 0.07,-0.16 0.17,-0.16l2.84,0c0.1,0 0.17,0.07 0.17,0.16l0,0c0,0.1 -0.08,0.17 -0.17,0.17z" fill="#407BFF" id="svg_127"/>
     <path d="m181.14,173.61c-2.41,0 -4.3,-1.14 -5.53,-2.18c-2.37,-2.02 -3.85,-5.02 -3.85,-6.64l0.25,0c0,1.57 1.44,4.48 3.77,6.45c1.39,1.19 3.67,2.5 6.6,2.02l0.04,0.25c-0.44,0.07 -0.87,0.1 -1.28,0.1z" fill="#407BFF" id="svg_128"/>
    </g>
    <path d="m397.78,184.24c-14.85,0 -22.39,-2.04 -29.69,-4.02c-7.23,-1.96 -14.71,-3.98 -29.43,-3.98c-14.71,0 -22.19,2.02 -29.42,3.98c-7.3,1.98 -14.84,4.02 -29.69,4.02c-14.84,0 -22.39,-2.04 -29.69,-4.02c-7.23,-1.96 -14.71,-3.98 -29.42,-3.98c-14.71,0 -22.19,2.02 -29.42,3.98c-7.3,1.98 -14.85,4.02 -29.69,4.02c-14.84,0 -22.39,-2.04 -29.68,-4.02c-7.24,-1.96 -14.72,-3.98 -29.43,-3.98c-0.27,0 -0.5,-0.22 -0.5,-0.5c0,-0.28 0.23,-0.5 0.5,-0.5c14.85,0 22.39,2.04 29.69,4.02c7.23,1.96 14.71,3.98 29.42,3.98c14.71,0 22.19,-2.02 29.42,-3.98c7.3,-1.98 14.85,-4.02 29.69,-4.02c14.84,0 22.39,2.04 29.69,4.02c7.23,1.96 14.71,3.98 29.42,3.98c14.71,0 22.19,-2.02 29.43,-3.98c7.29,-1.98 14.84,-4.02 29.68,-4.02s22.39,2.04 29.69,4.02c7.24,1.96 14.72,3.98 29.43,3.98c0.27,0 0.5,0.22 0.5,0.5c0,0.28 -0.23,0.5 -0.5,0.5z" fill="#407BFF" id="svg_129"/>
    <path d="m320.13,192.3c-2.66,0 -4.01,-0.37 -5.32,-0.72c-1.3,-0.36 -2.53,-0.69 -5.05,-0.69c-2.53,0 -3.75,0.33 -5.05,0.69c-1.31,0.35 -2.66,0.72 -5.32,0.72c-2.66,0 -4.01,-0.37 -5.31,-0.72c-1.3,-0.36 -2.53,-0.69 -5.05,-0.69c-0.28,0 -0.5,-0.22 -0.5,-0.5c0,-0.27 0.22,-0.5 0.5,-0.5c2.66,0 4.01,0.37 5.31,0.72c1.3,0.35 2.53,0.69 5.05,0.69s3.76,-0.34 5.05,-0.69c1.31,-0.35 2.66,-0.72 5.32,-0.72s4.01,0.37 5.31,0.72c1.3,0.35 2.53,0.69 5.06,0.69c0.27,0 0.5,0.22 0.5,0.5c0,0.27 -0.23,0.5 -0.5,0.5z" fill="#FFFFFF" id="svg_130"/>
    <path d="m197.05,194.75c-1.36,0 -2.05,-0.18 -2.72,-0.36c-0.64,-0.17 -1.24,-0.34 -2.46,-0.34c-1.23,0 -1.83,0.17 -2.47,0.34c-0.66,0.18 -1.36,0.36 -2.72,0.36c-1.36,0 -2.05,-0.18 -2.72,-0.36c-0.63,-0.17 -1.23,-0.34 -2.46,-0.34c-0.28,0 -0.5,-0.22 -0.5,-0.5c0,-0.27 0.22,-0.5 0.5,-0.5c1.36,0 2.05,0.19 2.72,0.37c0.63,0.17 1.23,0.33 2.46,0.33c1.23,0 1.83,-0.16 2.46,-0.33c0.67,-0.18 1.36,-0.37 2.73,-0.37s2.05,0.19 2.72,0.37c0.63,0.17 1.23,0.33 2.46,0.33c0.28,0 0.5,0.23 0.5,0.5c0,0.28 -0.23,0.5 -0.5,0.5z" fill="#FFFFFF" id="svg_131"/>
    <path d="m229.46,186c-2.66,0 -4.01,-0.37 -5.32,-0.72c-1.3,-0.35 -2.52,-0.69 -5.05,-0.69c-0.28,0 -0.5,-0.22 -0.5,-0.5c0,-0.27 0.22,-0.5 0.5,-0.5c2.66,0 4.01,0.37 5.31,0.72c1.3,0.36 2.53,0.69 5.06,0.69c2.52,0 3.75,-0.33 5.05,-0.69c1.3,-0.35 2.65,-0.72 5.31,-0.72c0.28,0 0.5,0.23 0.5,0.5c0,0.28 -0.22,0.5 -0.5,0.5c-2.52,0 -3.75,0.34 -5.05,0.69c-1.31,0.35 -2.66,0.72 -5.31,0.72z" fill="#FFFFFF" id="svg_132"/>
   </g>
  </g>
  <g id="Killer_Whale">
   <g id="svg_133">
    <path d="m300.52,235.02c4.85,-1.67 5.51,-4.13 5.73,-6.16s3.23,2.08 2.93,4.61c-0.31,2.53 5.09,6.92 14.15,3.47c5.24,-1.99 10.24,-5.56 15.79,-9.61c-1.73,-3.01 -10.01,-0.91 -5.97,-3.97c4.8,-3.63 10.47,-1.33 21.97,-6.89c9.48,-5.92 12.22,-7.9 20.81,-7.88c4.7,-1.15 8.53,-1.17 7.88,3.43c-0.43,3.12 -2.9,9.81 -10.06,16.99c0.02,0.74 0.04,1.58 0.04,2.61c0.03,4.84 -4.13,13.64 -5.72,11.27c-1.3,-1.93 0.64,-6.34 0.67,-9.43c-2.49,1.97 -5.36,3.92 -8.67,5.81c-18.04,10.29 -35.29,10.65 -42.99,7.84c-8.47,-3.08 -10.85,-10.98 -14.74,-9.25c-3.89,1.73 -4.26,6.6 -13.14,4.43c-3.02,-0.74 6.47,-5.61 11.32,-7.27z" fill="#263238" id="svg_134"/>
    <g id="svg_135">
     <path d="m321.53,242.83c4.71,-2.08 11.08,7.1 29.5,-2.49c18.43,-9.6 13.15,-13.59 12.24,-18.08c-0.91,-4.49 2.47,-8.88 3.09,-7.36c0.61,1.54 2.94,-0.24 7.91,-3.64c2.72,-1.85 5.76,-3.2 8.44,-2.74c0.11,0.07 0.22,0.16 0.32,0.24c0.11,0.11 0.22,0.22 0.32,0.36c0.07,0.08 0.12,0.16 0.17,0.26c0.34,0.63 0.47,1.48 0.3,2.64c-0.18,1.29 -0.71,3.2 -1.79,5.5c-0.22,0.51 -0.49,1.05 -0.79,1.6c-0.96,1.81 -2.24,3.79 -3.89,5.87c-0.7,0.89 -1.49,1.8 -2.34,2.73c-1.72,1.84 -3.74,3.73 -6.11,5.62c-0.83,0.67 -1.72,1.34 -2.66,2c-0.92,0.66 -1.91,1.32 -2.93,1.98c-1.04,0.66 -2.11,1.31 -3.24,1.95c-11.75,6.7 -23.17,9.19 -31.84,9.32c-3.15,-2.71 -9.96,-4.31 -6.7,-5.76z" fill="#FFFFFF" id="svg_136"/>
     <path d="m328.23,248.85c-0.06,0 -0.12,-0.02 -0.16,-0.07c-1.16,-0.99 -2.83,-1.84 -4.31,-2.59c-1.95,-1 -3.36,-1.71 -3.34,-2.55c0.01,-0.4 0.34,-0.74 1.01,-1.04c0,0 0,0 0,0c1.61,-0.71 3.39,-0.18 5.64,0.5c4.58,1.37 11.49,3.45 23.85,-2.99c15.46,-8.05 14.07,-11.96 12.72,-15.75c-0.23,-0.67 -0.48,-1.36 -0.62,-2.05c-0.74,-3.67 1.33,-7.52 2.7,-7.93c0.39,-0.11 0.71,0.05 0.87,0.43c0.11,0.27 0.25,0.34 0.35,0.37c0.81,0.25 2.88,-1.16 6,-3.31l1.18,-0.81c3.32,-2.26 6.22,-3.2 8.63,-2.79c0.04,0.01 0.07,0.02 0.1,0.04c0.11,0.08 0.23,0.17 0.34,0.26c0.12,0.12 0.25,0.24 0.36,0.4c0.08,0.1 0.14,0.19 0.19,0.31c0.39,0.69 0.49,1.61 0.33,2.78c-0.13,0.91 -0.54,2.84 -1.81,5.56c-0.21,0.47 -0.46,0.99 -0.8,1.62c-1.05,1.96 -2.37,3.95 -3.92,5.91c-0.67,0.85 -1.47,1.78 -2.35,2.74c-1.79,1.92 -3.85,3.82 -6.13,5.64c-0.84,0.67 -1.74,1.35 -2.67,2.01c-0.96,0.68 -1.95,1.35 -2.95,1.99c-1.12,0.72 -2.18,1.35 -3.25,1.96c-13.89,7.92 -25.98,9.26 -31.96,9.35c0,0.01 0,0.01 0,0.01zm-6.6,-5.79c-0.45,0.2 -0.7,0.41 -0.71,0.59c-0.01,0.52 1.55,1.32 3.07,2.09c1.47,0.75 3.13,1.6 4.33,2.6c5.96,-0.1 17.9,-1.46 31.63,-9.29c1.06,-0.6 2.11,-1.23 3.22,-1.94c0.99,-0.63 1.98,-1.3 2.93,-1.97c0.93,-0.66 1.82,-1.33 2.65,-2c2.26,-1.8 4.3,-3.69 6.07,-5.59c0.88,-0.95 1.66,-1.86 2.33,-2.71c1.53,-1.93 2.83,-3.89 3.87,-5.84c0.33,-0.62 0.58,-1.12 0.78,-1.58c1.25,-2.67 1.65,-4.55 1.77,-5.43c0.15,-1.06 0.07,-1.87 -0.27,-2.48c-0.04,-0.1 -0.08,-0.16 -0.15,-0.23c-0.09,-0.14 -0.2,-0.25 -0.29,-0.34c-0.07,-0.05 -0.15,-0.12 -0.24,-0.18c-2.28,-0.37 -5.04,0.55 -8.21,2.71l-1.18,0.81c-3.48,2.39 -5.39,3.71 -6.44,3.39c-0.3,-0.1 -0.53,-0.32 -0.67,-0.67c-0.06,-0.16 -0.14,-0.17 -0.25,-0.13c-1.02,0.3 -3.06,3.86 -2.36,7.35c0.14,0.65 0.36,1.3 0.61,1.97c1.34,3.81 2.87,8.12 -12.97,16.37c-12.54,6.53 -19.57,4.42 -24.23,3.02c-2.23,-0.67 -3.85,-1.16 -5.29,-0.52l0,0z" fill="#263238" id="svg_137"/>
    </g>
    <path d="m327.39,248.83c-4.39,0 -7.97,-0.6 -10.39,-1.48c-4.25,-1.55 -6.95,-4.25 -9.12,-6.42c-2.11,-2.12 -3.63,-3.64 -5.44,-2.84c-1.13,0.5 -1.94,1.27 -2.8,2.08c-2.04,1.93 -4.16,3.92 -10.5,2.36c-0.62,-0.15 -0.76,-0.46 -0.77,-0.7c-0.08,-1.78 8.34,-5.77 12.07,-7.05l0,0c4.5,-1.55 5.33,-3.77 5.56,-5.94c0.04,-0.38 0.18,-0.63 0.41,-0.73c0.22,-0.1 0.5,-0.03 0.8,0.19c1.03,0.76 2.44,3.34 2.21,5.2c-0.1,0.81 0.5,1.83 1.55,2.66c1.05,0.82 5.05,3.29 12.27,0.55c4.99,-1.89 9.6,-5.11 15.54,-9.45c-0.84,-1.14 -2.86,-1.4 -4.5,-1.6c-1.34,-0.17 -2.3,-0.3 -2.46,-0.88c-0.11,-0.42 0.24,-0.91 1.18,-1.62c2.29,-1.74 4.78,-2.14 7.93,-2.66c3.56,-0.58 7.99,-1.31 14.08,-4.26l1.27,-0.8c8.48,-5.3 11.37,-7.1 19.54,-7.1c0.04,0 0.07,0 0.11,0c3.79,-0.93 6.05,-0.86 7.26,0.24c0.8,0.72 1.09,1.89 0.87,3.47c-0.52,3.72 -3.47,10.41 -10.06,17.06c0.02,0.72 0.04,1.53 0.04,2.51c0.02,4.15 -2.99,11.25 -5.02,11.87c-0.46,0.14 -0.87,-0.02 -1.16,-0.46c-0.87,-1.29 -0.41,-3.47 0.07,-5.78c0.23,-1.11 0.46,-2.25 0.54,-3.26c-2.52,1.95 -5.3,3.8 -8.28,5.5c-12.3,7.01 -24.13,9.34 -32.8,9.34zm-23.96,-11.46c1.61,0 3.06,1.45 4.81,3.2c2.13,2.14 4.79,4.8 8.93,6.31c7.12,2.6 24.39,2.66 42.78,-7.83c3.12,-1.78 6.03,-3.73 8.64,-5.79c0.08,-0.06 0.18,-0.07 0.26,-0.03c0.09,0.05 0.15,0.14 0.14,0.23c-0.01,1.19 -0.29,2.56 -0.57,3.89c-0.44,2.11 -0.89,4.29 -0.14,5.41c0.22,0.32 0.43,0.3 0.59,0.25c1.67,-0.51 4.69,-7.29 4.67,-11.38c0,-1.03 -0.02,-1.88 -0.04,-2.61c-0.01,-0.07 0.02,-0.13 0.07,-0.18c6.56,-6.59 9.49,-13.2 10,-16.86c0.2,-1.43 -0.03,-2.42 -0.71,-3.03c-1.06,-0.97 -3.25,-1 -6.87,-0.12c-0.02,0 -0.04,0 -0.06,0c-8.13,0 -10.97,1.78 -19.38,7.04l-1.3,0.81c-6.17,2.99 -10.65,3.72 -14.24,4.31c-3.08,0.51 -5.51,0.91 -7.71,2.57c-1.02,0.77 -1.01,1.04 -1,1.09c0.07,0.26 1.17,0.4 2.04,0.51c1.84,0.23 4.12,0.52 5,2.04c0.06,0.11 0.03,0.25 -0.07,0.33c-6.07,4.43 -10.75,7.71 -15.85,9.65c-7.47,2.83 -11.65,0.24 -12.75,-0.63c-1.21,-0.94 -1.87,-2.11 -1.74,-3.11c0.19,-1.61 -1.1,-4.06 -2.02,-4.73c-0.18,-0.14 -0.28,-0.15 -0.3,-0.14c-0.02,0.01 -0.09,0.09 -0.11,0.32c-0.25,2.34 -1.14,4.72 -5.9,6.36l0,0c-4.68,1.61 -11.79,5.4 -11.73,6.55c0,0.13 0.24,0.21 0.39,0.25c6.08,1.48 8.09,-0.41 10.03,-2.24c0.86,-0.81 1.74,-1.64 2.95,-2.18c0.41,-0.18 0.8,-0.26 1.19,-0.26zm-2.91,-2.35l0,0l0,0z" fill="#263238" id="svg_138"/>
    <path d="m355.45,234.04c-2.11,2.86 -1.94,3.85 -3.17,8.53s-7.51,12.1 -8.43,9.41c-0.93,-2.69 3.8,-7.73 3.24,-10.81c-0.55,-3.07 0.33,-5.6 0.33,-5.6l8.03,-1.53z" fill="#263238" id="svg_139"/>
    <path d="m362.35,216.13c0.12,2.24 -0.99,5.76 -5.13,6.76c-4.14,1 -2.72,-1.21 -0.6,-2.7c2.13,-1.5 5.61,-6.39 5.73,-4.06z" fill="#FFFFFF" id="svg_140"/>
   </g>
  </g>
  <g id="Sky">
   <g id="svg_141">
    <circle cx="190.54" cy="60.75" fill="#407BFF" id="svg_142" opacity="0.05" r="16.1"/>
    <circle cx="190.54" cy="60.75" fill="#407BFF" id="svg_143" opacity="0.05" r="21.46"/>
    <circle cx="190.54" cy="60.75" fill="#407BFF" id="svg_144" r="10.66"/>
    <circle cx="190.54" cy="60.75" fill="#FFFFFF" id="svg_145" opacity="0.8" r="10.66"/>
   </g>
   <g id="svg_146">
    <path d="m163.03,102.13c-0.58,-3.49 -3.19,-6.29 -6.59,-7.12c-1.61,-4.47 -5.88,-7.67 -10.91,-7.67c-1.49,0 -2.9,0.29 -4.21,0.8c-2.51,-5.42 -7.97,-9.18 -14.33,-9.18c-6.21,0 -11.58,3.6 -14.15,8.82c-1,-0.28 -2.05,-0.44 -3.14,-0.44c-4.78,0 -8.89,2.9 -10.66,7.03c-1.39,-0.91 -3.05,-1.45 -4.84,-1.45c-4.87,0 -8.81,3.95 -8.81,8.81c0,1.12 0.21,2.18 0.59,3.16c-7.29,1.86 -13.56,5.31 -10.61,8.26l0,0l0,0l96.69,0l0,0c3.94,-7.49 -2.93,-9.98 -9.03,-11.02z" fill="#f7f8ff" id="svg_147"/>
    <path d="m163.03,102.13c-0.58,-3.49 -3.19,-6.29 -6.59,-7.12c-1.61,-4.47 -5.88,-7.67 -10.91,-7.67c-1.49,0 -2.9,0.29 -4.21,0.8c-2.51,-5.42 -7.97,-9.18 -14.33,-9.18c-6.21,0 -11.58,3.6 -14.15,8.82c-1,-0.28 -2.05,-0.44 -3.14,-0.44c-4.78,0 -8.89,2.9 -10.66,7.03c-1.39,-0.91 -3.05,-1.45 -4.84,-1.45c-4.87,0 -8.81,3.95 -8.81,8.81c0,1.12 0.21,2.18 0.59,3.16c-7.29,1.86 -13.56,5.31 -10.61,8.26l0,0l0,0l96.69,0l0,0c3.94,-7.49 -2.93,-9.98 -9.03,-11.02z" fill="#f7f8ff" id="svg_148" opacity="0.7"/>
   </g>
   <g id="svg_149">
    <path d="m333.95,68.04c0.19,-1.09 1.01,-1.97 2.08,-2.24c0.51,-1.4 1.85,-2.41 3.43,-2.41c0.47,0 0.92,0.09 1.33,0.25c0.79,-1.71 2.51,-2.89 4.51,-2.89c1.96,0 3.65,1.13 4.46,2.78c0.31,-0.09 0.64,-0.14 0.99,-0.14c1.5,0 2.8,0.91 3.35,2.21c0.44,-0.28 0.96,-0.45 1.53,-0.45c1.53,0 2.77,1.24 2.77,2.77c0,0.35 -0.07,0.69 -0.18,1c2.29,0.58 4.27,1.67 3.34,2.6l0,0l0,0l-30.45,0l0,0c-1.24,-2.37 0.93,-3.15 2.84,-3.48z" fill="#f7f8ff" id="svg_150"/>
    <path d="m333.95,67.13c0.19,-1.09 1.01,-1.97 2.08,-2.24c0.51,-1.4 1.85,-2.41 3.43,-2.41c0.47,0 0.92,0.09 1.33,0.25c0.79,-1.71 2.51,-2.89 4.51,-2.89c1.96,0 3.65,1.13 4.46,2.78c0.31,-0.09 0.64,-0.14 0.99,-0.14c1.5,0 2.8,0.91 3.35,2.21c0.44,-0.28 0.96,-0.45 1.53,-0.45c1.53,0 2.77,1.24 2.77,2.77c0,0.35 -0.07,0.69 -0.18,1c2.29,0.58 4.27,1.67 3.34,2.6l0,0l0,0l-30.45,0l0,0c-1.24,-2.37 0.93,-3.15 2.84,-3.48z" fill="#f7f8ff" id="svg_151" opacity="0.7"/>
   </g>
   <g id="svg_152">
    <path d="m401.22,125.24c0.11,-0.41 0.17,-0.84 0.17,-1.29c0,-2.75 -2.23,-4.98 -4.98,-4.98c-0.59,0 -1.16,0.11 -1.68,0.3c-1.09,-2.3 -3.42,-3.9 -6.13,-3.9c-1.45,0 -2.78,0.46 -3.88,1.23c-1.42,-1.99 -3.74,-3.3 -6.38,-3.3c-4.31,0 -7.81,3.5 -7.81,7.82c0,0.09 0.01,0.17 0.01,0.26c-0.07,0 -0.13,-0.01 -0.2,-0.01c-2.09,0 -3.78,1.69 -3.78,3.78c0,0.67 0.18,1.3 0.48,1.85c-2.34,0.83 -3.96,2.01 -2.92,3.05l0,0l0,0l41.51,0l0,0c1.8,-3.43 -1.69,-4.42 -4.41,-4.81z" fill="#f7f8ff" id="svg_153"/>
    <path d="m401.22,125.24c0.11,-0.41 0.17,-0.84 0.17,-1.29c0,-2.75 -2.23,-4.98 -4.98,-4.98c-0.59,0 -1.16,0.11 -1.68,0.3c-1.09,-2.3 -3.42,-3.9 -6.13,-3.9c-1.45,0 -2.78,0.46 -3.88,1.23c-1.42,-1.99 -3.74,-3.3 -6.38,-3.3c-4.31,0 -7.81,3.5 -7.81,7.82c0,0.09 0.01,0.17 0.01,0.26c-0.07,0 -0.13,-0.01 -0.2,-0.01c-2.09,0 -3.78,1.69 -3.78,3.78c0,0.67 0.18,1.3 0.48,1.85c-2.34,0.83 -3.96,2.01 -2.92,3.05l0,0l0,0l41.51,0l0,0c1.8,-3.43 -1.69,-4.42 -4.41,-4.81z" fill="#f7f8ff" id="svg_154" opacity="0.7"/>
   </g>
   <path d="m313.65,40.22c-8.51,-5.67 -13.59,-3.2 -15.96,-0.93c4.43,-0.32 12.82,0.18 15.96,2.18c3.31,-1.27 11.51,0.12 15.85,1.44c-2.08,-2.78 -6.81,-6.36 -15.85,-2.69z" fill="#407BFF" id="svg_155"/>
   <path d="m397.81,94.63c-5.88,-3.92 -9.4,-2.21 -11.03,-0.64c3.06,-0.22 8.86,0.12 11.03,1.51c2.3,-0.88 7.97,0.08 10.97,0.99c-1.44,-1.92 -4.71,-4.4 -10.97,-1.86z" fill="#407BFF" id="svg_156"/>
   <path d="m131.29,139.64c-6.19,-2.56 -9.14,-0.33 -10.37,1.43c2.8,-0.77 8.26,-1.52 10.53,-0.63c1.97,-1.23 7.41,-1.38 10.37,-1.09c-1.69,-1.52 -5.19,-3.22 -10.53,0.29z" fill="#407BFF" id="svg_157"/>
  </g>
  <text fill="#2e5dc5" font-family="Cursive" font-size="18" font-weight="normal" id="svg_158" stroke="#000000" stroke-width="0" text-anchor="middle" transform="matrix(1.19725 0 0 1.07465 -29.9592 -25.3178)" x="238.35" xml:space="preserve" y="406.48">Dive deeper</text>
 </g>
</svg>