<?xml version="1.0" encoding="utf-8"?>
<!-- Generator: Adobe Illustrator 27.5.0, SVG Export Plug-In . SVG Version: 6.00 Build 0)  -->
<svg version="1.1" xmlns="http://www.w3.org/2000/svg" xmlns:xlink="http://www.w3.org/1999/xlink" x="0px" y="0px"
	 viewBox="0 0 500 500" style="enable-background:new 0 0 500 500;" xml:space="preserve">
<g id="Background_Complete">
	<g>
		<rect y="382.398" style="fill:#EBEBEB;" width="500" height="0.25"/>
		<rect x="300.713" y="391.069" style="fill:#EBEBEB;" width="33.122" height="0.25"/>
		<rect x="395.196" y="399.152" style="fill:#EBEBEB;" width="8.693" height="0.25"/>
		<rect x="335.588" y="395.402" style="fill:#EBEBEB;" width="19.192" height="0.25"/>
		<rect x="52.459" y="390.888" style="fill:#EBEBEB;" width="43.193" height="0.25"/>
		<rect x="244.667" y="390.888" style="fill:#EBEBEB;" width="6.333" height="0.25"/>
		<rect x="141.693" y="395.236" style="fill:#EBEBEB;" width="45.306" height="0.25"/>
		<path style="fill:#EBEBEB;" d="M237.014,337.8H43.915c-3.147,0-5.708-2.561-5.708-5.708V60.66c0-3.147,2.561-5.708,5.708-5.708
			h193.099c3.146,0,5.707,2.561,5.707,5.708v271.432C242.721,335.239,240.16,337.8,237.014,337.8z M43.915,55.203
			c-3.01,0-5.458,2.448-5.458,5.458v271.432c0,3.01,2.448,5.458,5.458,5.458h193.099c3.009,0,5.457-2.448,5.457-5.458V60.66
			c0-3.009-2.448-5.458-5.457-5.458H43.915z"/>
		<path style="fill:#EBEBEB;" d="M453.31,337.8H260.212c-3.147,0-5.707-2.561-5.707-5.708V60.66c0-3.147,2.561-5.708,5.707-5.708
			H453.31c3.148,0,5.708,2.561,5.708,5.708v271.432C459.019,335.239,456.458,337.8,453.31,337.8z M260.212,55.203
			c-3.009,0-5.457,2.448-5.457,5.458v271.432c0,3.01,2.448,5.458,5.457,5.458H453.31c3.01,0,5.458-2.448,5.458-5.458V60.66
			c0-3.009-2.448-5.458-5.458-5.458H260.212z"/>
	</g>
	<g>
		<path style="fill:#F5F5F5;" d="M174.911,195.732c-38.13,5.488-94.414-19.781-104.561,7.985
			c-10.147,27.766,2.899,61.472-4.505,100.167c-7.404,38.695-18.954,83.242,68.179,69.895
			c87.132-13.346,102.261,11.118,166.14-0.931c69.438-13.097,148.592,21.386,135.543-46.319c-9.34-48.458,9.415-62.213,8.888-91.206
			c-0.649-35.659-16.541-52.413-49.671-43.049c-24.887,7.034-104.813-10.499-126.993,2.285
			C245.749,207.343,208.209,190.939,174.911,195.732z"/>
		<path style="fill:#FFFFFF;" d="M99.211,217.069c0.023,1.974-1.559,3.593-3.533,3.616c-1.974,0.023-3.593-1.559-3.616-3.533
			c-0.023-1.974,1.559-3.593,3.533-3.616C97.569,213.514,99.188,215.095,99.211,217.069z"/>
		<path style="fill:#FFFFFF;" d="M107.489,226.496c0.014,1.226-0.968,2.231-2.194,2.245c-1.226,0.014-2.231-0.968-2.245-2.194
			c-0.014-1.226,0.968-2.231,2.194-2.245C106.47,224.288,107.475,225.271,107.489,226.496z"/>
		<path style="fill:#FFFFFF;" d="M148.02,251.265c0.014,1.226-0.968,2.231-2.194,2.245c-1.226,0.014-2.231-0.968-2.245-2.194
			c-0.014-1.226,0.968-2.231,2.194-2.245C147.001,249.057,148.006,250.04,148.02,251.265z"/>
		<path style="fill:#FFFFFF;" d="M98.725,233.51c-0.506,1.393-2.046,2.112-3.439,1.606c-1.393-0.506-2.112-2.046-1.606-3.439
			c0.506-1.393,2.046-2.112,3.439-1.606C98.512,230.577,99.231,232.117,98.725,233.51z"/>
		<path style="fill:#FFFFFF;" d="M102.049,242.324c-0.314,0.865-1.27,1.312-2.135,0.997c-0.865-0.314-1.312-1.27-0.997-2.135
			s1.27-1.312,2.135-0.997C101.916,240.503,102.363,241.459,102.049,242.324z"/>
		<path style="fill:#FFFFFF;" d="M140.502,262.045c-0.314,0.865-1.27,1.312-2.135,0.997c-0.865-0.314-1.312-1.27-0.997-2.135
			c0.314-0.865,1.27-1.312,2.135-0.997S140.816,261.18,140.502,262.045z"/>
		<path style="fill:#FFFFFF;" d="M341.996,329.468c0.02,1.687-1.332,3.071-3.019,3.09c-1.687,0.02-3.071-1.332-3.09-3.019
			s1.332-3.071,3.019-3.09S341.976,327.78,341.996,329.468z"/>
		<path style="fill:#FFFFFF;" d="M331.647,344.305c-0.432,1.191-1.748,1.805-2.939,1.373c-1.191-0.432-1.805-1.748-1.373-2.939
			c0.432-1.191,1.748-1.806,2.939-1.373C331.465,341.798,332.079,343.114,331.647,344.305z"/>
		<path style="fill:#FFFFFF;" d="M117.358,281.117c0.014,1.226-0.968,2.231-2.194,2.245c-1.226,0.014-2.231-0.968-2.245-2.194
			c-0.014-1.226,0.968-2.231,2.194-2.245C116.338,278.909,117.344,279.891,117.358,281.117z"/>
		<path style="fill:#FFFFFF;" d="M109.84,291.896c-0.314,0.865-1.27,1.312-2.135,0.997c-0.865-0.314-1.312-1.27-0.997-2.135
			c0.314-0.865,1.27-1.312,2.135-0.997C109.707,290.075,110.154,291.031,109.84,291.896z"/>
		<path style="fill:#FFFFFF;" d="M97.029,248.93c-0.206,0.567-0.833,0.86-1.4,0.654c-0.567-0.206-0.86-0.833-0.654-1.4
			c0.206-0.567,0.832-0.86,1.4-0.654C96.942,247.737,97.235,248.363,97.029,248.93z"/>
		<path style="fill:#FFFFFF;" d="M111.335,236.58c-0.206,0.567-0.833,0.86-1.4,0.654c-0.567-0.206-0.86-0.832-0.654-1.4
			c0.206-0.567,0.832-0.86,1.4-0.654C111.248,235.386,111.541,236.013,111.335,236.58z"/>
		<path style="fill:#FFFFFF;" d="M403.107,205.751c0.026,2.251-1.777,4.096-4.028,4.122c-2.251,0.026-4.096-1.777-4.122-4.028
			c-0.026-2.251,1.777-4.096,4.028-4.122C401.235,201.697,403.081,203.5,403.107,205.751z"/>
		<path style="fill:#FFFFFF;" d="M410.792,222.958c0.016,1.398-1.104,2.544-2.501,2.56c-1.397,0.016-2.544-1.104-2.56-2.501
			c-0.016-1.398,1.104-2.544,2.501-2.56C409.63,220.441,410.776,221.561,410.792,222.958z"/>
		<path style="fill:#FFFFFF;" d="M396.345,235.021c-0.577,1.588-2.332,2.408-3.921,1.831c-1.588-0.577-2.408-2.332-1.831-3.921
			c0.577-1.588,2.332-2.408,3.921-1.831C396.102,231.678,396.922,233.433,396.345,235.021z"/>
		<path style="fill:#FFFFFF;" d="M409.137,250.952c-0.358,0.986-1.448,1.495-2.435,1.137c-0.986-0.358-1.496-1.448-1.137-2.435
			c0.358-0.986,1.448-1.495,2.435-1.137C408.986,248.875,409.495,249.965,409.137,250.952z"/>
		<path style="fill:#FFFFFF;" d="M396.775,262.006c-0.235,0.646-0.949,0.98-1.596,0.745c-0.647-0.235-0.98-0.949-0.745-1.596
			c0.235-0.647,0.949-0.98,1.596-0.745C396.676,260.645,397.01,261.359,396.775,262.006z"/>
		<path style="fill:#FFFFFF;" d="M417.671,231.315c-0.235,0.646-0.949,0.98-1.596,0.745c-0.647-0.235-0.98-0.949-0.745-1.596
			c0.235-0.646,0.949-0.98,1.596-0.745C417.572,229.954,417.906,230.668,417.671,231.315z"/>
		<path style="fill:#FFFFFF;" d="M355.715,263.29c0.016,1.398,1.162,2.517,2.56,2.501c1.398-0.016,2.517-1.162,2.501-2.56
			c-0.016-1.398-1.162-2.517-2.56-2.501C356.819,260.746,355.699,261.893,355.715,263.29z"/>
		<path style="fill:#FFFFFF;" d="M361.282,280.69c0.614,1.575,2.388,2.353,3.962,1.74c1.575-0.614,2.354-2.388,1.74-3.962
			c-0.614-1.574-2.387-2.353-3.962-1.74C361.447,277.341,360.668,279.115,361.282,280.69z"/>
		<path style="fill:#FFFFFF;" d="M357.658,302.374c0.381,0.978,1.483,1.461,2.46,1.08c0.978-0.381,1.461-1.483,1.08-2.46
			c-0.381-0.978-1.483-1.461-2.46-1.08C357.76,300.294,357.277,301.396,357.658,302.374z"/>
		<path style="fill:#FFFFFF;" d="M395.874,330.63c0.381,0.978,1.483,1.461,2.46,1.08c0.978-0.381,1.462-1.482,1.08-2.46
			c-0.381-0.978-1.483-1.461-2.46-1.08C395.977,328.55,395.493,329.652,395.874,330.63z"/>
		<path style="fill:#FFFFFF;" d="M348.506,289.35c0.25,0.641,0.972,0.958,1.613,0.708c0.641-0.25,0.958-0.972,0.708-1.613
			c-0.25-0.641-0.972-0.958-1.613-0.708S348.257,288.71,348.506,289.35z"/>
		<path style="fill:#FFFFFF;" d="M403.41,340.807c0.25,0.641,0.972,0.958,1.613,0.708c0.641-0.25,0.958-0.972,0.708-1.613
			c-0.25-0.641-0.972-0.958-1.613-0.708C403.478,339.444,403.161,340.166,403.41,340.807z"/>
		<path style="fill:#FFFFFF;" d="M147.772,274.184c-0.206,0.567-0.833,0.86-1.4,0.654c-0.567-0.206-0.86-0.833-0.654-1.4
			c0.206-0.567,0.833-0.86,1.4-0.654C147.686,272.991,147.978,273.617,147.772,274.184z"/>
		<path style="fill:#FFFFFF;" d="M112.142,306.035c-0.206,0.567-0.832,0.86-1.4,0.654c-0.567-0.206-0.86-0.833-0.654-1.4
			c0.206-0.567,0.833-0.86,1.4-0.654C112.055,304.841,112.348,305.468,112.142,306.035z"/>
	</g>
</g>
<g id="Background_Simple" style="display:none;">
	<g style="display:inline;">
		<path style="fill:#407BFF;" d="M254.859,174.066c36.031-14.605,66.092-39.877,107.741-24.142
			c32.839,12.407,51.123,47.539,45.491,81.836c-6.574,40.032-41.643,57.475-66.399,84.979
			c-22.052,24.499-47.015,62.568-85.98,52.115c-33.13-8.888-40.236-53.426-77.399-62.023c-38.429-8.89-65.883-0.272-82.877-48.202
			c-12.634-35.632-1.31-77.394,39.19-86.689C174.805,162.719,213.359,190.883,254.859,174.066z"/>
		<path style="opacity:0.9;fill:#FFFFFF;" d="M254.859,174.066c36.031-14.605,66.092-39.877,107.741-24.142
			c32.839,12.407,51.123,47.539,45.491,81.836c-6.574,40.032-41.643,57.475-66.399,84.979
			c-22.052,24.499-47.015,62.568-85.98,52.115c-33.13-8.888-40.236-53.426-77.399-62.023c-38.429-8.89-65.883-0.272-82.877-48.202
			c-12.634-35.632-1.31-77.394,39.19-86.689C174.805,162.719,213.359,190.883,254.859,174.066z"/>
	</g>
</g>
<g id="Shadow_1_">
	<ellipse id="_x3C_Path_x3E__25_" style="fill:#F5F5F5;" cx="250" cy="416.238" rx="193.889" ry="11.323"/>
</g>
<g id="Fishes">
	<g>
		<path style="fill:#407BFF;" d="M326.924,349.142c0.058,1.315,1.212,1.981,2.384,1.539c1.172-0.442,2.342-0.854,2.342-0.854
			s-0.342-0.407-0.368-0.777c-0.003-0.041,0.047-0.065,0.077-0.036c0.658,0.615,2.549,0.663,2.549,0.663s-0.398-0.434-0.249-0.843
			c0.025-0.069,0.113-0.085,0.163-0.032c1.324,1.412,4.428,1.601,4.866,3.041c-0.567,1.328-3.481,1.991-5.421,1.695
			c-0.315-0.048-0.634-0.07-0.951-0.036c-0.381,0.04-0.767,0.118-1.051,0.265c-0.102,0.053-0.217-0.055-0.168-0.159
			c0.132-0.28,0.376-0.515,0.376-0.515s-1.119-0.535-2.236-1.1c-1.117-0.565-2.105-0.077-1.893,1.223
			c-0.88-0.201-0.665-1.99-0.665-1.99S326.103,349.518,326.924,349.142z"/>
		<path style="fill:#407BFF;" d="M311.426,351.212c-0.312,1.279,0.61,2.241,1.859,2.144c1.248-0.097,2.487-0.164,2.487-0.164
			s-0.214-0.486-0.136-0.849c0.009-0.04,0.063-0.049,0.084-0.013c0.46,0.774,2.261,1.35,2.261,1.35s-0.261-0.527-0.003-0.878
			c0.043-0.059,0.133-0.05,0.166,0.015c0.876,1.726,3.803,2.776,3.821,4.28c-0.916,1.117-3.899,0.938-5.679,0.111
			c-0.289-0.134-0.589-0.244-0.903-0.301c-0.377-0.068-0.769-0.101-1.083-0.04c-0.113,0.022-0.193-0.114-0.116-0.2
			c0.205-0.232,0.505-0.389,0.505-0.389s-0.925-0.826-1.84-1.682c-0.915-0.855-1.999-0.662-2.159,0.645
			c-0.789-0.439-0.082-2.097-0.082-2.097S310.533,351.345,311.426,351.212z"/>
		<path style="fill:#407BFF;" d="M303.746,339.72c-0.207,1.439,0.909,2.399,2.271,2.16c1.362-0.239,2.717-0.445,2.717-0.445
			s-0.287-0.512-0.24-0.919c0.005-0.045,0.064-0.06,0.091-0.024c0.588,0.802,2.63,1.244,2.63,1.244s-0.343-0.552-0.097-0.965
			c0.041-0.069,0.14-0.069,0.184-0.001c1.146,1.804,4.476,2.648,4.656,4.3c-0.888,1.325-4.187,1.445-6.232,0.725
			c-0.332-0.117-0.674-0.206-1.024-0.235c-0.422-0.035-0.856-0.029-1.195,0.071c-0.122,0.036-0.224-0.104-0.149-0.207
			c0.201-0.277,0.514-0.481,0.514-0.481s-1.105-0.81-2.201-1.653c-1.097-0.843-2.268-0.516-2.305,0.938
			c-0.914-0.399-0.313-2.296-0.313-2.296S302.778,339.96,303.746,339.72z"/>
		<path style="fill:#407BFF;" d="M126.048,292.927c-0.419,1.248-1.712,1.569-2.716,0.821c-1.004-0.748-2.015-1.467-2.015-1.467
			s0.441-0.297,0.568-0.646c0.014-0.039-0.027-0.075-0.064-0.056c-0.803,0.409-2.633-0.066-2.633-0.066s0.502-0.307,0.471-0.741
			c-0.005-0.073-0.085-0.113-0.148-0.076c-1.662,0.992-4.698,0.317-5.516,1.58c0.178,1.433,2.797,2.874,4.743,3.125
			c0.316,0.041,0.629,0.108,0.924,0.227c0.355,0.144,0.704,0.325,0.937,0.544c0.084,0.079,0.224,0.007,0.205-0.107
			c-0.05-0.306-0.22-0.599-0.22-0.599s1.223-0.205,2.453-0.44c1.23-0.235,2.044,0.507,1.482,1.698
			c0.901,0.05,1.189-1.729,1.189-1.729S126.732,293.515,126.048,292.927z"/>
		<path style="fill:#407BFF;" d="M133.352,309.093c-0.38,1.131-1.552,1.422-2.462,0.744c-0.91-0.678-1.827-1.329-1.827-1.329
			s0.4-0.269,0.515-0.585c0.013-0.035-0.025-0.068-0.058-0.051c-0.728,0.371-2.387-0.059-2.387-0.059s0.455-0.278,0.427-0.672
			c-0.005-0.066-0.077-0.103-0.134-0.069c-1.507,0.899-4.258,0.287-5,1.432c0.161,1.299,2.535,2.605,4.299,2.833
			c0.286,0.037,0.57,0.098,0.838,0.206c0.322,0.13,0.638,0.295,0.849,0.493c0.076,0.072,0.203,0.006,0.186-0.097
			c-0.045-0.277-0.199-0.543-0.199-0.543s1.109-0.186,2.224-0.399c1.115-0.213,1.853,0.46,1.343,1.539
			c0.817,0.045,1.078-1.567,1.078-1.567S133.973,309.627,133.352,309.093z"/>
		<path style="fill:#407BFF;" d="M140.372,299.194c-0.053,1.315-1.205,1.986-2.378,1.548c-1.173-0.437-2.345-0.844-2.345-0.844
			s0.34-0.408,0.365-0.779c0.003-0.041-0.047-0.064-0.077-0.036c-0.656,0.617-2.546,0.673-2.546,0.673s0.396-0.435,0.245-0.843
			c-0.025-0.069-0.113-0.085-0.163-0.031c-1.318,1.417-4.421,1.618-4.854,3.06c0.572,1.326,3.489,1.977,5.428,1.674
			c0.315-0.049,0.634-0.072,0.951-0.04c0.381,0.039,0.767,0.115,1.052,0.26c0.103,0.052,0.216-0.056,0.167-0.16
			c-0.133-0.28-0.378-0.513-0.378-0.513s1.117-0.539,2.232-1.108c1.115-0.569,2.104-0.085,1.897,1.215
			c0.879-0.204,0.658-1.993,0.658-1.993S141.194,299.567,140.372,299.194z"/>
		<path style="fill:#407BFF;" d="M150.926,290.267c-0.198,1.441-1.536,2.055-2.779,1.449s-2.488-1.177-2.488-1.177
			s0.417-0.413,0.484-0.817c0.007-0.045-0.045-0.076-0.081-0.048c-0.787,0.609-2.871,0.47-2.871,0.47s0.482-0.436,0.359-0.901
			c-0.021-0.078-0.116-0.105-0.176-0.052c-1.6,1.418-5.033,1.31-5.662,2.848c0.488,1.519,3.626,2.544,5.79,2.417
			c0.351-0.021,0.704-0.012,1.049,0.057c0.415,0.083,0.831,0.208,1.129,0.398c0.107,0.068,0.244-0.039,0.201-0.158
			c-0.117-0.322-0.361-0.604-0.361-0.604s1.285-0.474,2.572-0.982c1.287-0.508,2.323,0.13,1.957,1.538
			c0.988-0.131,0.935-2.121,0.935-2.121S151.79,290.765,150.926,290.267z"/>
		<path style="fill:#407BFF;" d="M152.578,209.092c-0.198,1.441-1.536,2.055-2.779,1.449c-1.243-0.606-2.488-1.177-2.488-1.177
			s0.417-0.413,0.484-0.817c0.007-0.045-0.045-0.076-0.081-0.048c-0.787,0.609-2.871,0.47-2.871,0.47s0.482-0.436,0.359-0.901
			c-0.021-0.078-0.116-0.105-0.176-0.052c-1.6,1.418-5.033,1.31-5.662,2.848c0.488,1.519,3.626,2.544,5.79,2.417
			c0.351-0.021,0.704-0.012,1.049,0.057c0.415,0.083,0.831,0.208,1.129,0.398c0.107,0.068,0.244-0.039,0.201-0.158
			c-0.117-0.322-0.361-0.604-0.361-0.604s1.285-0.474,2.572-0.982c1.287-0.508,2.323,0.13,1.957,1.538
			c0.989-0.131,0.935-2.121,0.935-2.121S153.442,209.59,152.578,209.092z"/>
		<path style="fill:#407BFF;" d="M128.421,319.141c-0.124,1.311-1.311,1.917-2.459,1.416c-1.148-0.501-2.295-0.971-2.295-0.971
			s0.362-0.389,0.407-0.758c0.005-0.041-0.044-0.067-0.075-0.04c-0.689,0.581-2.579,0.534-2.579,0.534s0.419-0.413,0.291-0.829
			c-0.022-0.07-0.109-0.091-0.161-0.04c-1.393,1.343-4.503,1.375-5.013,2.791c0.499,1.355,3.376,2.164,5.329,1.967
			c0.317-0.032,0.637-0.038,0.951,0.012c0.378,0.059,0.76,0.157,1.036,0.317c0.1,0.058,0.219-0.044,0.175-0.151
			c-0.118-0.287-0.35-0.533-0.35-0.533s1.145-0.477,2.289-0.985c1.145-0.508,2.106,0.03,1.828,1.317
			c0.889-0.156,0.765-1.954,0.765-1.954S129.221,319.559,128.421,319.141z"/>
		<path style="fill:#407BFF;" d="M139.206,333.227c-0.113,1.188-1.189,1.738-2.229,1.284c-1.04-0.454-2.081-0.88-2.081-0.88
			s0.328-0.353,0.369-0.687c0.005-0.037-0.04-0.061-0.068-0.036c-0.624,0.526-2.338,0.484-2.338,0.484s0.38-0.374,0.264-0.751
			c-0.02-0.063-0.099-0.082-0.146-0.036c-1.263,1.217-4.082,1.247-4.545,2.53c0.452,1.229,3.06,1.962,4.83,1.783
			c0.287-0.029,0.577-0.034,0.863,0.011c0.343,0.054,0.689,0.142,0.939,0.288c0.09,0.052,0.199-0.04,0.159-0.137
			c-0.107-0.26-0.317-0.483-0.317-0.483s1.038-0.433,2.075-0.893c1.037-0.46,1.909,0.027,1.657,1.194
			c0.806-0.142,0.694-1.771,0.694-1.771S139.932,333.606,139.206,333.227z"/>
		<path style="fill:#407BFF;" d="M187.085,293.909c0.16,1.182-0.762,1.962-1.878,1.757c-1.116-0.205-2.226-0.383-2.226-0.383
			s0.239-0.418,0.203-0.753c-0.004-0.037-0.053-0.05-0.075-0.02c-0.488,0.655-2.166,1.003-2.166,1.003s0.285-0.451,0.086-0.792
			c-0.034-0.057-0.115-0.058-0.151-0.002c-0.953,1.473-3.691,2.143-3.85,3.498c0.72,1.094,3.426,1.214,5.109,0.637
			c0.273-0.094,0.554-0.164,0.842-0.186c0.346-0.026,0.703-0.018,0.98,0.066c0.1,0.03,0.185-0.084,0.124-0.169
			c-0.163-0.229-0.419-0.398-0.419-0.398s0.912-0.658,1.817-1.342c0.906-0.684,1.865-0.408,1.886,0.785
			c0.753-0.321,0.272-1.882,0.272-1.882S187.878,294.112,187.085,293.909z"/>
		<path style="fill:#407BFF;" d="M143.794,321.992c0.247,1.293-0.723,2.207-1.964,2.048c-1.242-0.16-2.475-0.29-2.475-0.29
			s0.238-0.475,0.179-0.841c-0.007-0.041-0.061-0.052-0.084-0.018c-0.499,0.75-2.327,1.234-2.327,1.234s0.287-0.514,0.047-0.877
			c-0.04-0.061-0.13-0.057-0.166,0.007c-0.962,1.679-3.938,2.58-4.033,4.082c0.858,1.162,3.847,1.133,5.666,0.398
			c0.295-0.119,0.601-0.214,0.917-0.255c0.38-0.049,0.773-0.062,1.084,0.015c0.112,0.028,0.198-0.104,0.126-0.194
			c-0.193-0.242-0.485-0.414-0.485-0.414s0.965-0.779,1.922-1.586c0.957-0.808,2.03-0.56,2.124,0.753
			c0.81-0.399,0.188-2.09,0.188-2.09S144.679,322.17,143.794,321.992z"/>
		<path style="fill:#407BFF;" d="M152.046,310.903c0.134,1.448-1.029,2.35-2.377,2.043c-1.349-0.307-2.691-0.582-2.691-0.582
			s0.313-0.497,0.286-0.906c-0.003-0.045-0.061-0.064-0.09-0.028c-0.628,0.772-2.689,1.109-2.689,1.109s0.37-0.534,0.145-0.959
			c-0.038-0.072-0.137-0.076-0.183-0.01c-1.236,1.744-4.604,2.418-4.867,4.059c0.82,1.368,4.109,1.655,6.187,1.039
			c0.337-0.1,0.683-0.172,1.035-0.183c0.423-0.014,0.857,0.014,1.19,0.132c0.12,0.042,0.229-0.093,0.16-0.2
			c-0.187-0.287-0.489-0.507-0.489-0.507s1.144-0.753,2.282-1.54c1.138-0.786,2.292-0.4,2.255,1.053
			c0.933-0.352,0.429-2.278,0.429-2.278S153,311.192,152.046,310.903z"/>
		<path style="fill:#407BFF;" d="M164.273,328.541c-0.113,1.188-1.189,1.738-2.229,1.284c-1.04-0.454-2.081-0.88-2.081-0.88
			s0.328-0.353,0.369-0.687c0.005-0.037-0.04-0.06-0.068-0.036c-0.624,0.526-2.338,0.484-2.338,0.484s0.38-0.374,0.264-0.751
			c-0.02-0.063-0.098-0.082-0.146-0.036c-1.263,1.217-4.082,1.247-4.545,2.53c0.452,1.229,3.06,1.962,4.83,1.783
			c0.287-0.029,0.577-0.034,0.862,0.011c0.343,0.054,0.689,0.142,0.939,0.288c0.09,0.052,0.199-0.04,0.159-0.137
			c-0.107-0.26-0.317-0.483-0.317-0.483s1.038-0.433,2.075-0.893c1.037-0.46,1.909,0.027,1.658,1.194
			c0.806-0.142,0.694-1.771,0.694-1.771S164.999,328.92,164.273,328.541z"/>
		<path style="fill:#407BFF;" d="M143.117,217.898c-0.296,1.156-1.444,1.532-2.402,0.921c-0.957-0.61-1.918-1.193-1.918-1.193
			s0.379-0.298,0.471-0.621c0.01-0.036-0.03-0.066-0.062-0.047c-0.699,0.423-2.385,0.114-2.385,0.114s0.434-0.311,0.377-0.701
			c-0.01-0.066-0.085-0.097-0.139-0.059c-1.437,1.006-4.226,0.596-4.883,1.792c0.255,1.284,2.718,2.414,4.494,2.513
			c0.288,0.016,0.575,0.056,0.85,0.145c0.33,0.106,0.658,0.248,0.883,0.43c0.081,0.066,0.202-0.009,0.178-0.11
			c-0.065-0.273-0.238-0.527-0.238-0.527s1.092-0.266,2.189-0.559c1.097-0.293,1.882,0.324,1.452,1.437
			c0.818-0.015,0.961-1.642,0.961-1.642S143.775,218.385,143.117,217.898z"/>
		<path style="fill:#407BFF;" d="M168.861,317.307c0.247,1.293-0.723,2.207-1.965,2.048c-1.242-0.16-2.475-0.29-2.475-0.29
			s0.238-0.475,0.179-0.841c-0.007-0.041-0.061-0.052-0.084-0.018c-0.499,0.75-2.327,1.234-2.327,1.234s0.287-0.514,0.047-0.877
			c-0.04-0.061-0.13-0.057-0.166,0.007c-0.962,1.679-3.938,2.58-4.033,4.082c0.858,1.162,3.847,1.134,5.666,0.398
			c0.295-0.119,0.601-0.214,0.917-0.255c0.38-0.049,0.773-0.062,1.084,0.015c0.112,0.028,0.198-0.104,0.126-0.194
			c-0.193-0.242-0.485-0.414-0.485-0.414s0.965-0.779,1.922-1.586c0.957-0.808,2.03-0.56,2.124,0.753
			c0.81-0.399,0.188-2.09,0.188-2.09C169.58,319.278,169.747,317.484,168.861,317.307z"/>
		<path style="fill:#407BFF;" d="M166.267,295.719c0.247,1.293-0.723,2.207-1.965,2.048c-1.242-0.16-2.475-0.29-2.475-0.29
			s0.239-0.475,0.179-0.841c-0.007-0.041-0.061-0.052-0.084-0.018c-0.499,0.75-2.327,1.234-2.327,1.234s0.287-0.514,0.047-0.877
			c-0.04-0.061-0.13-0.057-0.166,0.007c-0.962,1.679-3.938,2.58-4.033,4.082c0.858,1.162,3.847,1.133,5.666,0.398
			c0.295-0.119,0.601-0.214,0.917-0.255c0.38-0.049,0.773-0.062,1.084,0.015c0.112,0.028,0.198-0.104,0.126-0.194
			c-0.193-0.242-0.485-0.414-0.485-0.414s0.965-0.779,1.922-1.586s2.03-0.56,2.124,0.753c0.81-0.399,0.188-2.09,0.188-2.09
			S167.152,295.896,166.267,295.719z"/>
		<path style="fill:#407BFF;" d="M177.113,306.217c0.134,1.448-1.029,2.35-2.377,2.042c-1.348-0.307-2.691-0.582-2.691-0.582
			s0.313-0.497,0.286-0.906c-0.003-0.045-0.061-0.064-0.09-0.028c-0.628,0.772-2.689,1.109-2.689,1.109s0.37-0.534,0.145-0.959
			c-0.038-0.071-0.137-0.076-0.183-0.01c-1.236,1.744-4.604,2.418-4.867,4.059c0.82,1.368,4.109,1.655,6.187,1.039
			c0.337-0.1,0.683-0.172,1.035-0.183c0.423-0.013,0.857,0.014,1.19,0.131c0.12,0.042,0.229-0.093,0.16-0.2
			c-0.187-0.287-0.489-0.507-0.489-0.507s1.144-0.753,2.282-1.54s2.292-0.4,2.255,1.053c0.933-0.352,0.429-2.278,0.429-2.278
			S178.067,306.506,177.113,306.217z"/>
	</g>
</g>
<g id="Iceberg">
	<g>
		<g>
			<g>
				<path style="fill:#407BFF;" d="M338.664,176.651c-29.557,0-29.557,8-59.114,8c-29.556,0-29.556-8-59.111-8
					c-29.555,0-29.555,8-59.11,8l4.336-18.111l24.333-16.333l19.669-46.5l27.665-10.167l30-26.667l34.333,31l8,33l24.336,32
					L338.664,176.651z"/>
				<path style="opacity:0.7;fill:#FFFFFF;" d="M338.664,176.651c-29.557,0-29.557,8-59.114,8c-29.556,0-29.556-8-59.111-8
					c-29.555,0-29.555,8-59.11,8l4.336-18.111l24.333-16.333l19.669-46.5l27.665-10.167l30-26.667l34.333,31l8,33l24.336,32
					L338.664,176.651z"/>
			</g>
			<g>
				<polygon style="opacity:0.8;fill:#FFFFFF;" points="209.667,103.706 212,135.04 235,108.873 237.331,93.539 				"/>
				<polygon style="opacity:0.5;fill:#FFFFFF;" points="237.331,150.206 212,135.04 235,108.873 255.333,108.873 				"/>
				<polygon style="opacity:0.7;fill:#FFFFFF;" points="237.331,150.206 212,135.04 200.999,145.54 193.5,165.706 				"/>
				<polygon style="opacity:0.4;fill:#FFFFFF;" points="237.331,150.206 259.465,149.562 239.889,169.762 193.5,165.706 				"/>
				<polygon style="opacity:0.2;fill:#FFFFFF;" points="281.107,161.451 259.465,149.562 245.193,164.289 274.333,174.428 				"/>
				<polygon style="opacity:0.6;fill:#FFFFFF;" points="237.331,150.206 270.778,135.04 267.331,66.873 255.333,108.873 				"/>
				<polygon style="fill:#FFFFFF;" points="237.331,150.206 270.778,135.04 300.916,159.873 271.667,149.206 				"/>
				<polygon style="opacity:0.4;fill:#FFFFFF;" points="259.465,149.562 304.732,174.428 300.916,159.873 271.667,149.206 				"/>
				<polygon style="opacity:0.8;fill:#FFFFFF;" points="292.167,104.706 268.813,96.182 267.331,66.873 301.664,97.873 				"/>
				<polygon style="fill:#FFFFFF;" points="292.167,104.706 268.813,96.182 269.944,118.542 304.732,123.496 				"/>
				<polygon style="opacity:0.3;fill:#FFFFFF;" points="300.916,159.873 270.778,135.04 269.944,118.542 304.732,123.496 				"/>
				<polygon style="opacity:0.6;fill:#FFFFFF;" points="301.614,153.212 334,162.873 309.664,130.873 304.732,123.496 				"/>
				<polygon style="opacity:0.6;fill:#FFFFFF;" points="301.665,97.873 292.167,104.706 309.665,130.873 				"/>
				<polygon style="opacity:0.3;fill:#FFFFFF;" points="267.331,66.873 237.331,93.539 235,108.873 255.333,108.873 				"/>
				<polygon style="opacity:0.5;fill:#FFFFFF;" points="209.667,103.706 189.998,150.206 193.5,165.706 200.999,145.54 212,135.04 
									"/>
				<polygon style="opacity:0.8;fill:#FFFFFF;" points="165.665,166.54 193.5,165.706 189.998,150.206 				"/>
			</g>
		</g>
		<g>
			<g>
				<path style="fill:#407BFF;" d="M338.664,176.651c-29.557,0-29.557,8-59.114,8c-29.556,0-29.556-8-59.111-8
					c-29.555,0-29.555,8-59.11,8l4.336,103.111l24.333,72.445l25.447,12.667h22.333l31.444,10.889l25.333-17.333l15.109-25.556
					l18.224-42.889L338.664,176.651z"/>
				<path style="opacity:0.2;" d="M338.664,176.651c-29.557,0-29.557,8-59.114,8c-29.556,0-29.556-8-59.111-8
					c-29.555,0-29.555,8-59.11,8l4.336,103.111l24.333,72.445l25.447,12.667h22.333l31.444,10.889l25.333-17.333l15.109-25.556
					l18.224-42.889L338.664,176.651z"/>
			</g>
			<g>
				<polygon style="opacity:0.4;" points="165.665,287.762 193.5,264.539 200.999,351.539 189.998,360.206 				"/>
				<polygon style="opacity:0.3;" points="224.272,250.721 193.5,264.539 200.999,351.539 261.222,316.873 				"/>
				<polygon style="opacity:0.5;" points="224.272,250.721 275,283.539 284.63,319.381 261.222,316.873 				"/>
				<polygon style="opacity:0.3;" points="276.081,217.645 275,283.539 284.63,319.381 313.03,283.797 				"/>
				<polygon style="opacity:0.2;" points="276.081,217.645 317.807,210.873 333.07,239.636 313.03,283.797 				"/>
				<polygon style="opacity:0.1;" points="317.807,210.873 333.07,239.636 336.255,203.776 				"/>
				<polygon style="opacity:0.2;" points="276.081,217.645 275,283.539 224.272,250.721 252.673,215.137 				"/>
				<polygon style="opacity:0.1;" points="190.538,202.618 193.5,264.539 224.272,250.721 252.673,215.137 				"/>
				<polygon style="opacity:0.05;" points="190.538,202.618 176.162,188.54 227.914,189.907 252.673,215.137 				"/>
				<polygon style="opacity:0.1;" points="276.081,217.645 317.807,210.873 227.914,189.907 252.673,215.137 				"/>
				<polygon style="opacity:0.05;" points="336.255,203.776 317.807,210.873 261.967,197.849 321.5,185.706 				"/>
				<polygon style="opacity:0.2;" points="190.538,202.618 193.5,264.539 165.665,287.762 163.622,239.187 				"/>
				<polygon style="opacity:0.1;" points="190.538,202.618 176.162,188.54 161.786,195.514 163.622,239.187 				"/>
				<polygon style="opacity:0.4;" points="327.889,297.984 297,320.706 284.63,319.381 313.03,283.797 				"/>
				<polygon style="opacity:0.5;" points="297,320.706 309.665,340.873 327.889,297.984 				"/>
				<polygon style="opacity:0.3;" points="313.03,283.797 333.07,239.636 327.889,297.984 				"/>
				<polygon style="opacity:0.5;" points="215.444,372.873 261.222,316.873 200.999,351.539 189.998,360.206 				"/>
				<polygon style="opacity:0.7;" points="215.444,372.873 261.222,316.873 275,358.428 236.778,372.873 				"/>
				<polygon style="opacity:0.4;" points="297,320.706 261.222,316.873 275,358.428 309.664,340.873 				"/>
				<polygon style="opacity:0.5;" points="275,358.428 294.556,366.428 309.665,340.873 				"/>
				<polygon style="opacity:0.8;" points="269.222,383.762 294.556,366.428 275,358.428 236.778,372.873 				"/>
			</g>
		</g>
		<g>
			<path style="fill:#407BFF;" d="M155.411,160.942l-0.002-0.25c4.655-0.038,16.355-4.443,16.355-14.625h0.25
				C172.014,155.746,161.205,160.895,155.411,160.942z"/>
			<path style="fill:#263238;" d="M162.541,166.137c-0.71,0-1.285-0.575-1.285-1.285v-2.007h-8.583v3.292h-0.958v-3.156h-0.797
				c-0.688,0-1.245,0.557-1.245,1.245v2.952c0,0.687,0.558,1.245,1.245,1.245h0.145v0.186h1.611l8.583,7.764h3.695v-8.479
				c0-0.97-0.787-1.757-1.757-1.757H162.541z"/>
			<path style="fill:#407BFF;" d="M144.868,160.817v17.12h19.585v-17.12H144.868z M163.413,167.077c0,0.64-0.52,1.16-1.16,1.16
				h-11.215c-0.64,0-1.16-0.52-1.16-1.16v-2.75c0-0.64,0.52-1.16,1.16-1.16h11.215c0.64,0,1.16,0.52,1.16,1.16V167.077z"/>
			<g>
				<path style="fill:#407BFF;" d="M171.889,163.401L171.889,163.401c-0.525,0-0.951,0.426-0.951,0.951v14.93
					c0,0.525,0.426,0.951,0.951,0.951l0,0c0.525,0,0.951-0.426,0.951-0.951v-14.93C172.84,163.827,172.414,163.401,171.889,163.401z
					"/>
			</g>
			<g>
				<path style="fill:#407BFF;" d="M171.889,144.505L171.889,144.505c-0.188,0-0.34,0.152-0.34,0.34v25.299
					c0,0.188,0.152,0.34,0.34,0.34l0,0c0.188,0,0.34-0.152,0.34-0.34v-25.299C172.229,144.657,172.077,144.505,171.889,144.505z"/>
			</g>
			<g>
				<path style="fill:#407BFF;" d="M139.528,160.356L139.528,160.356c-0.188,0-0.34,0.152-0.34,0.34v17.364
					c0,0.188,0.152,0.34,0.34,0.34l0,0c0.188,0,0.34-0.152,0.34-0.34v-17.364C139.868,160.508,139.716,160.356,139.528,160.356z"/>
			</g>
			<path style="fill:#FFFFFF;" d="M158.927,172.012c1.258,0,2.281,1.023,2.281,2.281c0,1.258-1.023,2.281-2.281,2.281
				s-2.281-1.023-2.281-2.281C156.646,173.035,157.669,172.012,158.927,172.012 M158.927,171.012c-1.812,0-3.281,1.469-3.281,3.281
				c0,1.812,1.469,3.281,3.281,3.281s3.281-1.469,3.281-3.281C162.208,172.481,160.739,171.012,158.927,171.012L158.927,171.012z"/>
			<path style="opacity:0.4;fill:#FFFFFF;" d="M162.252,163.167c0.64,0,1.16,0.52,1.16,1.16v2.75c0,0.64-0.52,1.16-1.16,1.16
				h-11.214c-0.64,0-1.16-0.52-1.16-1.16v-2.75c0-0.64,0.52-1.16,1.16-1.16H162.252 M162.252,162.667h-11.214
				c-0.915,0-1.66,0.745-1.66,1.66v2.75c0,0.915,0.745,1.66,1.66,1.66h11.214c0.916,0,1.66-0.745,1.66-1.66v-2.75
				C163.913,163.412,163.168,162.667,162.252,162.667L162.252,162.667z"/>
			<rect x="144.868" y="160.817" style="opacity:0.4;fill:#FFFFFF;" width="3.972" height="17.121"/>
			<g>
				<path style="fill:#407BFF;" d="M128.674,171.762c6.889,10.222,14.528,12.889,36,12.889c9.444,0,23.667-2.667,23.667-12.889
					c-3.944,2.778-11.295,5.83-24.947,5.83C148.449,177.592,141.118,169.04,128.674,171.762z"/>
				<path style="opacity:0.4;fill:#FFFFFF;" d="M128.674,171.762c6.889,10.222,14.528,12.889,36,12.889
					c9.444,0,23.667-2.667,23.667-12.889c-3.944,2.778-11.295,5.83-24.947,5.83C148.449,177.592,141.118,169.04,128.674,171.762z"/>
			</g>
			<path style="fill:#407BFF;" d="M163.393,178.592c-7.067,0-12.561-1.898-17.407-3.572c-5.727-1.978-10.672-3.688-17.098-2.281
				c-0.539,0.118-1.073-0.224-1.19-0.763c-0.118-0.54,0.224-1.073,0.763-1.191c6.974-1.526,12.416,0.355,18.178,2.345
				c4.928,1.702,10.023,3.462,16.754,3.462c13.515,0,20.713-3.071,24.372-5.648c0.451-0.319,1.076-0.21,1.393,0.242
				c0.318,0.452,0.21,1.075-0.242,1.393C183.251,176.569,174.663,178.592,163.393,178.592z"/>
			<path style="fill:#263238;" d="M164.688,161.359h-20.055c-0.298,0-0.542-0.244-0.542-0.542l0,0c0-0.298,0.244-0.542,0.542-0.542
				h20.055c0.298,0,0.542,0.244,0.542,0.542l0,0C165.229,161.115,164.986,161.359,164.688,161.359z"/>
			<path style="fill:#407BFF;" d="M173.313,145.651h-2.847c-0.092,0-0.167-0.075-0.167-0.167l0,0c0-0.092,0.075-0.167,0.167-0.167
				h2.847c0.092,0,0.167,0.075,0.167,0.167l0,0C173.479,145.576,173.404,145.651,173.313,145.651z"/>
			<path style="fill:#407BFF;" d="M181.142,174.521c-2.408,0-4.301-1.139-5.529-2.182c-2.377-2.019-3.849-5.017-3.849-6.637h0.25
				c0,1.564,1.438,4.474,3.761,6.447c1.397,1.187,3.678,2.502,6.601,2.021l0.041,0.247
				C181.977,174.488,181.552,174.521,181.142,174.521z"/>
		</g>
		<path style="fill:#407BFF;" d="M397.778,185.15c-14.845,0-22.391-2.043-29.688-4.018c-7.234-1.958-14.714-3.982-29.426-3.982
			c-14.712,0-22.192,2.024-29.426,3.982c-7.297,1.975-14.842,4.018-29.688,4.018c-14.844,0-22.389-2.043-29.686-4.018
			c-7.234-1.958-14.714-3.982-29.425-3.982c-14.711,0-22.191,2.024-29.424,3.982c-7.297,1.975-14.842,4.018-29.685,4.018
			c-14.843,0-22.388-2.043-29.684-4.018c-7.233-1.958-14.713-3.982-29.423-3.982c-0.276,0-0.5-0.224-0.5-0.5
			c0-0.276,0.224-0.5,0.5-0.5c14.843,0,22.388,2.042,29.684,4.018c7.233,1.958,14.713,3.982,29.423,3.982
			c14.711,0,22.191-2.024,29.424-3.982c7.297-1.975,14.841-4.018,29.685-4.018c14.844,0,22.389,2.042,29.686,4.018
			c7.234,1.958,14.714,3.982,29.425,3.982c14.712,0,22.192-2.024,29.426-3.982c7.297-1.975,14.843-4.018,29.688-4.018
			s22.39,2.042,29.687,4.018c7.234,1.958,14.715,3.982,29.427,3.982c0.276,0,0.5,0.224,0.5,0.5
			C398.278,184.927,398.054,185.15,397.778,185.15z"/>
		<path style="fill:#FFFFFF;" d="M320.125,193.206c-2.658,0-4.008-0.365-5.314-0.719c-1.3-0.352-2.527-0.684-5.052-0.684
			c-2.525,0-3.753,0.332-5.052,0.684c-1.306,0.354-2.656,0.719-5.314,0.719c-2.658,0-4.008-0.365-5.313-0.719
			c-1.3-0.352-2.527-0.684-5.052-0.684c-0.276,0-0.5-0.224-0.5-0.5c0-0.276,0.224-0.5,0.5-0.5c2.658,0,4.008,0.365,5.313,0.719
			c1.3,0.352,2.527,0.684,5.052,0.684s3.753-0.332,5.052-0.684c1.306-0.354,2.656-0.719,5.314-0.719s4.008,0.365,5.314,0.719
			c1.3,0.352,2.527,0.684,5.053,0.684c0.276,0,0.5,0.224,0.5,0.5C320.625,192.982,320.401,193.206,320.125,193.206z"/>
		<path style="fill:#FFFFFF;" d="M197.049,195.665c-1.362,0-2.053-0.187-2.722-0.368c-0.633-0.171-1.232-0.333-2.461-0.333
			c-1.229,0-1.828,0.162-2.461,0.333c-0.669,0.181-1.36,0.368-2.722,0.368c-1.362,0-2.054-0.187-2.722-0.368
			c-0.633-0.171-1.231-0.333-2.461-0.333c-0.276,0-0.5-0.224-0.5-0.5c0-0.276,0.224-0.5,0.5-0.5c1.362,0,2.053,0.187,2.722,0.368
			c0.633,0.171,1.232,0.333,2.461,0.333c1.229,0,1.828-0.162,2.461-0.333c0.669-0.181,1.36-0.368,2.722-0.368
			s2.053,0.187,2.722,0.368c0.633,0.171,1.231,0.333,2.461,0.333c0.276,0,0.5,0.224,0.5,0.5
			C197.549,195.441,197.325,195.665,197.049,195.665z"/>
		<path style="fill:#FFFFFF;" d="M229.455,186.908c-2.658,0-4.008-0.365-5.313-0.719c-1.3-0.352-2.527-0.684-5.052-0.684
			c-0.276,0-0.5-0.224-0.5-0.5c0-0.276,0.224-0.5,0.5-0.5c2.658,0,4.008,0.365,5.313,0.719c1.3,0.352,2.527,0.684,5.052,0.684
			c2.525,0,3.752-0.332,5.052-0.684c1.306-0.354,2.656-0.719,5.314-0.719c0.276,0,0.5,0.224,0.5,0.5c0,0.276-0.224,0.5-0.5,0.5
			c-2.525,0-3.753,0.332-5.052,0.684C233.463,186.542,232.113,186.908,229.455,186.908z"/>
	</g>
</g>
<g id="Killer_Whale">
	<g>
		<path style="fill:#263238;" d="M300.516,235.926c4.851-1.667,5.518-4.125,5.735-6.153s3.229,2.073,2.924,4.603
			c-0.306,2.53,5.097,6.919,14.155,3.478c5.242-1.992,10.24-5.564,15.793-9.618c-1.734-3.004-10.012-0.907-5.973-3.964
			c4.802-3.634,10.468-1.329,21.969-6.895c9.482-5.918,12.22-7.898,20.811-7.882c4.702-1.143,8.527-1.167,7.885,3.434
			c-0.435,3.118-2.905,9.806-10.068,16.994c0.021,0.735,0.043,1.581,0.048,2.611c0.021,4.833-4.137,13.633-5.724,11.27
			c-1.296-1.93,0.644-6.342,0.674-9.436c-2.49,1.967-5.361,3.925-8.673,5.813c-18.042,10.285-35.287,10.65-42.991,7.842
			c-8.467-3.087-10.853-10.98-14.741-9.254c-3.888,1.727-4.263,6.601-13.142,4.431C286.181,242.464,295.665,237.594,300.516,235.926
			z"/>
		<g>
			<path style="fill:#FFFFFF;" d="M321.533,243.742c4.703-2.081,11.076,7.103,29.5-2.495c18.423-9.598,13.144-13.585,12.236-18.075
				c-0.907-4.49,2.469-8.88,3.086-7.358c0.61,1.537,2.94-0.241,7.91-3.639c2.725-1.858,5.767-3.2,8.449-2.743
				c0.109,0.07,0.212,0.154,0.315,0.238c0.111,0.106,0.225,0.222,0.322,0.357c0.067,0.085,0.119,0.163,0.168,0.267
				c0.345,0.627,0.468,1.479,0.302,2.64c-0.181,1.287-0.709,3.195-1.788,5.493c-0.227,0.517-0.496,1.049-0.794,1.603
				c-0.963,1.809-2.24,3.791-3.892,5.871c-0.699,0.891-1.486,1.802-2.342,2.726c-1.712,1.847-3.737,3.733-6.101,5.619
				c-0.836,0.674-1.723,1.342-2.66,2.005c-0.927,0.658-1.911,1.324-2.935,1.981c-1.035,0.66-2.109,1.311-3.238,1.945
				c-11.751,6.708-23.172,9.194-31.84,9.328C325.082,246.794,318.273,245.187,321.533,243.742z"/>
			<path style="fill:#263238;" d="M328.23,249.756c-0.06,0-0.118-0.021-0.163-0.061c-1.155-0.995-2.828-1.846-4.304-2.597
				c-1.954-0.994-3.365-1.711-3.342-2.55c0.011-0.4,0.341-0.738,1.011-1.035c0,0,0,0,0,0c1.611-0.713,3.387-0.18,5.635,0.495
				c4.579,1.376,11.497,3.453,23.85-2.983c15.458-8.053,14.07-11.969,12.727-15.756c-0.236-0.666-0.48-1.355-0.621-2.048
				c-0.742-3.671,1.33-7.516,2.7-7.928c0.382-0.115,0.708,0.044,0.863,0.427c0.109,0.273,0.253,0.345,0.352,0.375
				c0.815,0.243,2.88-1.169,6.006-3.318l1.179-0.809c3.313-2.258,6.216-3.196,8.631-2.783c0.033,0.006,0.064,0.018,0.093,0.036
				c0.117,0.075,0.229,0.165,0.339,0.256c0.125,0.119,0.253,0.248,0.366,0.405c0.078,0.098,0.137,0.191,0.19,0.304
				c0.384,0.697,0.492,1.611,0.324,2.783c-0.128,0.911-0.533,2.846-1.81,5.564c-0.205,0.468-0.46,0.983-0.8,1.616
				c-1.047,1.966-2.365,3.954-3.916,5.907c-0.674,0.859-1.466,1.781-2.354,2.74c-1.784,1.924-3.846,3.823-6.128,5.645
				c-0.835,0.673-1.734,1.351-2.672,2.013c-0.957,0.68-1.947,1.349-2.943,1.988c-1.119,0.714-2.182,1.352-3.251,1.953
				c-13.89,7.929-25.985,9.268-31.958,9.36C328.233,249.756,328.231,249.756,328.23,249.756z M321.634,243.971
				c-0.455,0.202-0.709,0.412-0.714,0.591c-0.014,0.522,1.553,1.319,3.069,2.09c1.471,0.749,3.134,1.594,4.331,2.602
				c5.957-0.104,17.903-1.46,31.625-9.294c1.063-0.596,2.118-1.23,3.228-1.938c0.988-0.634,1.972-1.298,2.923-1.974
				c0.93-0.657,1.821-1.328,2.649-1.996c2.264-1.807,4.308-3.688,6.074-5.594c0.879-0.949,1.663-1.861,2.329-2.71
				c1.534-1.93,2.835-3.893,3.868-5.834c0.335-0.621,0.584-1.125,0.786-1.586c1.251-2.665,1.646-4.544,1.77-5.427
				c0.152-1.062,0.063-1.874-0.273-2.484c-0.044-0.092-0.083-0.154-0.146-0.232c-0.095-0.132-0.204-0.241-0.298-0.331
				c-0.07-0.057-0.15-0.123-0.236-0.182c-2.277-0.368-5.037,0.546-8.214,2.712l-1.178,0.808c-3.474,2.387-5.391,3.706-6.435,3.384
				c-0.306-0.093-0.531-0.317-0.67-0.667c-0.065-0.16-0.138-0.172-0.255-0.134c-1.021,0.307-3.058,3.865-2.354,7.35
				c0.133,0.658,0.36,1.3,0.602,1.979c1.348,3.803,2.877,8.113-12.967,16.367c-12.534,6.53-19.569,4.418-24.225,3.019
				C324.69,243.817,323.075,243.333,321.634,243.971L321.634,243.971z"/>
		</g>
		<path style="fill:#263238;" d="M327.388,249.738c-4.39,0-7.969-0.595-10.393-1.479c-4.242-1.547-6.942-4.251-9.112-6.423
			c-2.11-2.113-3.635-3.639-5.441-2.837c-1.128,0.501-1.943,1.27-2.806,2.084c-2.041,1.924-4.152,3.913-10.497,2.361
			c-0.617-0.15-0.76-0.468-0.771-0.707c-0.081-1.776,8.341-5.766,12.067-7.047l0,0c4.501-1.548,5.336-3.771,5.567-5.943
			c0.04-0.38,0.177-0.624,0.404-0.724c0.229-0.102,0.5-0.037,0.806,0.191c1.024,0.761,2.435,3.333,2.21,5.191
			c-0.099,0.817,0.496,1.838,1.551,2.664c1.052,0.823,5.044,3.294,12.267,0.551c4.986-1.894,9.601-5.112,15.542-9.446
			c-0.842-1.141-2.863-1.399-4.503-1.608c-1.337-0.17-2.303-0.294-2.459-0.878c-0.113-0.422,0.24-0.905,1.178-1.615
			c2.297-1.738,4.782-2.146,7.928-2.663c3.562-0.584,7.996-1.313,14.082-4.258l1.275-0.799c8.482-5.305,11.364-7.107,19.54-7.107
			c0.035,0,0.07,0,0.105,0c3.792-0.93,6.051-0.858,7.266,0.242c0.796,0.72,1.087,1.89,0.866,3.477
			c-0.518,3.719-3.465,10.41-10.063,17.06c0.02,0.712,0.04,1.527,0.044,2.51c0.019,4.144-2.986,11.242-5.023,11.867
			c-0.456,0.139-0.867-0.023-1.158-0.457c-0.868-1.292-0.414-3.474,0.067-5.784c0.23-1.107,0.468-2.246,0.541-3.26
			c-2.519,1.954-5.3,3.803-8.275,5.499C347.89,247.414,336.059,249.738,327.388,249.738z M303.425,238.277
			c1.611,0,3.063,1.454,4.811,3.205c2.135,2.138,4.792,4.798,8.93,6.307c7.124,2.598,24.396,2.658,42.781-7.824
			c3.124-1.781,6.031-3.73,8.642-5.792c0.076-0.06,0.179-0.07,0.265-0.028c0.086,0.042,0.141,0.131,0.14,0.227
			c-0.011,1.187-0.298,2.562-0.574,3.891c-0.439,2.106-0.892,4.285-0.142,5.403c0.218,0.324,0.434,0.308,0.596,0.257
			c1.665-0.511,4.688-7.291,4.67-11.387c-0.005-1.028-0.027-1.871-0.047-2.605c-0.002-0.068,0.024-0.135,0.073-0.183
			c6.564-6.587,9.488-13.195,9.998-16.853c0.2-1.433-0.031-2.426-0.707-3.037c-1.064-0.963-3.249-1.001-6.872-0.119
			c-0.019,0-0.038,0-0.056,0c-8.13,0-10.975,1.78-19.383,7.039l-1.299,0.811c-6.175,2.991-10.648,3.725-14.242,4.315
			c-3.078,0.505-5.51,0.904-7.708,2.567c-1.019,0.771-1.009,1.042-0.996,1.088c0.069,0.259,1.161,0.398,2.039,0.51
			c1.836,0.234,4.12,0.526,4.995,2.042c0.064,0.111,0.034,0.251-0.069,0.327c-6.066,4.428-10.753,7.713-15.851,9.65
			c-7.468,2.836-11.649,0.239-12.753-0.625c-1.21-0.947-1.861-2.112-1.739-3.117c0.194-1.61-1.098-4.051-2.012-4.73
			c-0.186-0.139-0.286-0.147-0.307-0.135c-0.022,0.009-0.083,0.085-0.108,0.318c-0.249,2.336-1.137,4.724-5.902,6.363l0,0
			c-4.676,1.607-11.783,5.401-11.73,6.551c0.006,0.131,0.247,0.209,0.39,0.245c6.083,1.487,8.092-0.408,10.035-2.24
			c0.856-0.807,1.741-1.641,2.946-2.177C302.647,238.36,303.041,238.277,303.425,238.277z M300.516,235.926h0.006H300.516z"/>
		<path style="fill:#263238;" d="M355.448,234.948c-2.109,2.858-1.941,3.853-3.166,8.528s-7.513,12.105-8.436,9.413
			c-0.923-2.692,3.801-7.729,3.245-10.805c-0.556-3.076,0.332-5.604,0.332-5.604L355.448,234.948z"/>
		<path style="fill:#FFFFFF;" d="M362.354,217.038c0.121,2.239-0.995,5.758-5.135,6.757c-4.139,1-2.721-1.204-0.598-2.699
			C358.746,219.601,362.228,214.708,362.354,217.038z"/>
	</g>
</g>
<g id="Sky">
	<g>
		<circle style="opacity:0.05;fill:#407BFF;" cx="190.538" cy="62.569" r="16.101"/>
		<circle style="opacity:0.05;fill:#407BFF;" cx="190.538" cy="62.569" r="21.462"/>
		<circle style="fill:#407BFF;" cx="190.538" cy="62.569" r="10.663"/>
		<circle style="opacity:0.8;fill:#FFFFFF;" cx="190.538" cy="62.569" r="10.663"/>
	</g>
	<g>
		<path style="fill:#407BFF;" d="M163.028,103.948c-0.574-3.49-3.192-6.283-6.588-7.114c-1.611-4.473-5.88-7.677-10.909-7.677
			c-1.488,0-2.904,0.29-4.212,0.8c-2.505-5.414-7.971-9.179-14.328-9.179c-6.216,0-11.577,3.599-14.155,8.819
			c-0.998-0.279-2.046-0.44-3.132-0.44c-4.787,0-8.894,2.899-10.669,7.036c-1.389-0.915-3.05-1.451-4.837-1.451
			c-4.867,0-8.812,3.945-8.812,8.812c0,1.114,0.215,2.175,0.592,3.156c-7.288,1.865-13.559,5.306-10.609,8.257l0,0l0,0h96.695h0
			C176.001,107.476,169.126,104.987,163.028,103.948z"/>
		<path style="opacity:0.7;fill:#FFFFFF;" d="M163.028,103.948c-0.574-3.49-3.192-6.283-6.588-7.114
			c-1.611-4.473-5.88-7.677-10.909-7.677c-1.488,0-2.904,0.29-4.212,0.8c-2.505-5.414-7.971-9.179-14.328-9.179
			c-6.216,0-11.577,3.599-14.155,8.819c-0.998-0.279-2.046-0.44-3.132-0.44c-4.787,0-8.894,2.899-10.669,7.036
			c-1.389-0.915-3.05-1.451-4.837-1.451c-4.867,0-8.812,3.945-8.812,8.812c0,1.114,0.215,2.175,0.592,3.156
			c-7.288,1.865-13.559,5.306-10.609,8.257l0,0l0,0h96.695h0C176.001,107.476,169.126,104.987,163.028,103.948z"/>
	</g>
	<g>
		<path style="fill:#407BFF;" d="M333.955,69.864c0.181-1.099,1.005-1.978,2.074-2.24c0.507-1.409,1.852-2.417,3.435-2.417
			c0.468,0,0.915,0.091,1.326,0.252c0.789-1.705,2.51-2.89,4.512-2.89c1.957,0,3.645,1.133,4.457,2.777
			c0.314-0.088,0.644-0.138,0.986-0.138c1.507,0,2.801,0.913,3.359,2.216c0.437-0.288,0.96-0.457,1.523-0.457
			c1.533,0,2.775,1.242,2.775,2.775c0,0.351-0.068,0.685-0.186,0.994c2.295,0.587,4.269,1.671,3.34,2.6l0,0l0,0H331.11l0,0
			C329.87,70.975,332.035,70.191,333.955,69.864z"/>
		<path style="opacity:0.7;fill:#FFFFFF;" d="M333.955,69.864c0.181-1.099,1.005-1.978,2.074-2.24
			c0.507-1.409,1.852-2.417,3.435-2.417c0.468,0,0.915,0.091,1.326,0.252c0.789-1.705,2.51-2.89,4.512-2.89
			c1.957,0,3.645,1.133,4.457,2.777c0.314-0.088,0.644-0.138,0.986-0.138c1.507,0,2.801,0.913,3.359,2.216
			c0.437-0.288,0.96-0.457,1.523-0.457c1.533,0,2.775,1.242,2.775,2.775c0,0.351-0.068,0.685-0.186,0.994
			c2.295,0.587,4.269,1.671,3.34,2.6l0,0l0,0H331.11l0,0C329.87,70.975,332.035,70.191,333.955,69.864z"/>
	</g>
	<g>
		<path style="fill:#407BFF;" d="M401.219,127.057c0.109-0.41,0.173-0.84,0.173-1.284c0-2.751-2.23-4.982-4.982-4.982
			c-0.591,0-1.155,0.108-1.681,0.297c-1.085-2.299-3.418-3.894-6.128-3.894c-1.446,0-2.783,0.456-3.884,1.227
			c-1.417-1.995-3.74-3.3-6.372-3.3c-4.317,0-7.817,3.5-7.817,7.817c0,0.088,0.01,0.174,0.013,0.261
			c-0.066-0.003-0.132-0.01-0.199-0.01c-2.089,0-3.783,1.694-3.783,3.783c0,0.672,0.177,1.301,0.484,1.848
			c-2.342,0.833-3.964,2.013-2.926,3.051l0,0l0,0h41.509h0C407.432,128.435,403.941,127.45,401.219,127.057z"/>
		<path style="opacity:0.7;fill:#FFFFFF;" d="M401.219,127.057c0.109-0.41,0.173-0.84,0.173-1.284c0-2.751-2.23-4.982-4.982-4.982
			c-0.591,0-1.155,0.108-1.681,0.297c-1.085-2.299-3.418-3.894-6.128-3.894c-1.446,0-2.783,0.456-3.884,1.227
			c-1.417-1.995-3.74-3.3-6.372-3.3c-4.317,0-7.817,3.5-7.817,7.817c0,0.088,0.01,0.174,0.013,0.261
			c-0.066-0.003-0.132-0.01-0.199-0.01c-2.089,0-3.783,1.694-3.783,3.783c0,0.672,0.177,1.301,0.484,1.848
			c-2.342,0.833-3.964,2.013-2.926,3.051l0,0l0,0h41.509h0C407.432,128.435,403.941,127.45,401.219,127.057z"/>
	</g>
	<path style="fill:#407BFF;" d="M313.646,42.04c-8.509-5.667-13.591-3.198-15.954-0.933c4.432-0.317,12.822,0.183,15.954,2.183
		c3.318-1.266,11.515,0.12,15.854,1.435C327.424,41.954,322.689,38.369,313.646,42.04z"/>
	<path style="fill:#407BFF;" d="M397.812,96.453c-5.885-3.92-9.4-2.212-11.035-0.645c3.065-0.22,8.868,0.126,11.035,1.51
		c2.295-0.876,7.965,0.083,10.965,0.993C407.342,96.394,404.067,93.914,397.812,96.453z"/>
	<path style="fill:#407BFF;" d="M131.289,141.458c-6.189-2.561-9.142-0.329-10.373,1.428c2.808-0.767,8.265-1.512,10.532-0.625
		c1.972-1.236,7.417-1.386,10.372-1.092C140.134,139.652,136.635,137.95,131.289,141.458z"/>
</g>
</svg>
