<?xml version="1.0"?>
<svg width="500" height="500" xmlns="http://www.w3.org/2000/svg" xmlns:svg="http://www.w3.org/2000/svg" enable-background="new 0 0 500 500" version="1.1" xml:space="preserve">
 <g class="layer">
  <title>Layer 1</title>
  <g id="Shadow_1_" transform="matrix(1 0 0 1 0 0)">
   <ellipse cx="-226.32" cy="291.5" fill="#F5F5F5" id="_x3C_Path_x3E__359_" rx="193.89" ry="11.32"/>
  </g>
  <g id="Table" transform="matrix(1 0 0 1 0 0)">
   <g id="svg_71">
    <g id="svg_72">
     <g id="svg_73">
      <polygon fill="#407BFF" id="svg_74" points="628.0313110351562,358.2724380493164 633.5332946777344,358.2724380493164 634.4313049316406,220.65943145751953 627.13330078125,220.65943145751953 "/>
      <polygon fill="#FFFFFF" id="svg_75" opacity="0.4" points="627.1293029785156,220.8814468383789 627.2733154296875,243.0844497680664 628.0273132324219,358.2724380493164 633.5323181152344,358.2724380493164 634.2863159179688,243.0844497680664 634.4302978515625,220.8814468383789 "/>
      <polygon id="svg_76" opacity="0.2" points="627.1293029785156,220.8814468383789 627.2733154296875,243.33142852783203 634.2863159179688,243.33142852783203 634.4302978515625,220.8814468383789 "/>
     </g>
     <g id="svg_77">
      <polygon fill="#407BFF" id="svg_78" points="569.6262969970703,358.2724380493164 575.1273040771484,358.2724380493164 585.0113067626953,220.65943145751953 577.7133026123047,220.65943145751953 "/>
      <polygon fill="#FFFFFF" id="svg_79" opacity="0.5" points="569.6222991943359,358.2724380493164 575.1273040771484,358.2724380493164 584.529296875,227.49542999267578 585.0142974853516,220.8814468383789 577.7133026123047,220.8814468383789 577.3182983398438,227.49542999267578 "/>
      <polygon id="svg_80" opacity="0.2" points="577.3182983398438,227.16742706298828 584.529296875,227.16742706298828 585.0142974853516,220.8814468383789 577.7133026123047,220.8814468383789 "/>
     </g>
     <g id="svg_81">
      <polygon fill="#407BFF" id="svg_82" points="686.4373168945312,358.2724380493164 691.9382934570312,358.2724380493164 683.851318359375,220.65943145751953 676.5533142089844,220.65943145751953 "/>
      <polygon fill="#FFFFFF" id="svg_83" opacity="0.5" points="676.5542907714844,220.8814468383789 677.039306640625,227.49542999267578 686.4413146972656,358.2724380493164 691.9363098144531,358.2724380493164 684.2503051757812,227.49542999267578 683.8543090820312,220.8814468383789 "/>
      <polygon id="svg_84" opacity="0.2" points="683.8543090820312,220.8814468383789 676.5542907714844,220.8814468383789 677.039306640625,227.16742706298828 684.2503051757812,227.16742706298828 "/>
     </g>
     <g id="svg_85">
      <path d="m574.09,224.1l113.38,0c1.2,0 2.16,-0.96 2.16,-2.16l0,-4.73l-117.7,0l0,4.73c0,1.2 0.97,2.16 2.16,2.16z" fill="#407BFF" id="svg_86"/>
      <path d="m574.09,224.1l113.38,0c1.2,0 2.16,-0.96 2.16,-2.16l0,-4.73l-117.7,0l0,4.73c0,1.2 0.97,2.16 2.16,2.16z" enable-background="new" fill="#FFFFFF" id="svg_87" opacity="0.6"/>
     </g>
     <rect height="3.45" id="svg_88" opacity="0.2" transform="matrix(-1 -1.22465e-16 1.22465e-16 -1 596.642 559.329)" width="117.71" x="-92.99" y="338.67"/>
     <g id="svg_89">
      <path d="m568.52,218.11l124.52,0c1.08,0 1.95,-0.87 1.95,-1.94l0,0c0,-1.07 -0.87,-1.94 -1.95,-1.94l-124.52,0c-1.08,0 -1.94,0.87 -1.94,1.94l0,0c0,1.07 0.87,1.94 1.94,1.94z" fill="#407BFF" id="svg_90"/>
      <path d="m568.52,218.11l124.52,0c1.08,0 1.95,-0.87 1.95,-1.94l0,0c0,-1.07 -0.87,-1.94 -1.95,-1.94l-124.52,0c-1.08,0 -1.94,0.87 -1.94,1.94l0,0c0,1.07 0.87,1.94 1.94,1.94z" enable-background="new" fill="#FFFFFF" id="svg_91" opacity="0.6"/>
     </g>
    </g>
    <g id="svg_92">
     <path d="m639.71,210.42l0,2.81l-1.05,0l0,1l28.05,0c0.67,0 1.26,-0.27 1.69,-0.7c0.44,-0.43 0.71,-1.03 0.71,-1.7c0,-1.33 -1.08,-2.41 -2.41,-2.41l-28.04,0l0,1l1.05,0z" fill="#407BFF" id="svg_93"/>
     <path d="m639.71,210.42l0,2.81l-1.05,0l0,1l15.45,0c0.66,0 1.26,-0.27 1.7,-0.7c0.43,-0.43 0.7,-1.03 0.7,-1.7c0,-1.33 -1.08,-2.41 -2.4,-2.41l-15.45,0l0,1l1.05,0z" enable-background="new" fill="#FFFFFF" id="svg_94" opacity="0.2"/>
     <path d="m654.11,210.42l-14.41,0l0,2.81l14.41,0c0.77,0 1.4,-0.63 1.4,-1.4c0.01,-0.78 -0.63,-1.41 -1.4,-1.41z" enable-background="new" fill="#FFFFFF" id="svg_95" opacity="0.5"/>
    </g>
    <g id="svg_96">
     <path d="m642.94,205.61l0,2.81l-1.04,0l0,1l28.04,0c0.67,0 1.27,-0.27 1.7,-0.7c0.44,-0.43 0.71,-1.03 0.71,-1.7c0,-1.33 -1.08,-2.41 -2.41,-2.41l-28.04,0l0,1l1.04,0z" fill="#263238" id="svg_97"/>
     <path d="m642.94,205.61l0,2.81l-1.04,0l0,1l15.45,0c0.66,0 1.26,-0.27 1.7,-0.7c0.43,-0.43 0.7,-1.03 0.7,-1.7c0,-1.33 -1.08,-2.41 -2.4,-2.41l-15.45,0l0,1l1.04,0z" enable-background="new" fill="#FFFFFF" id="svg_98" opacity="0.2"/>
     <path d="m657.35,205.61l-14.41,0l0,2.81l14.41,0c0.77,0 1.4,-0.63 1.4,-1.4c0,-0.78 -0.63,-1.41 -1.4,-1.41z" enable-background="new" fill="#FFFFFF" id="svg_99" opacity="0.5"/>
    </g>
    <g id="svg_100">
     <path d="m672.65,198.8l0,-2.81l1.04,0l0,-1l-28.04,0c-0.67,0 -1.27,0.27 -1.7,0.7c-0.44,0.43 -0.71,1.03 -0.71,1.7c0,1.33 1.08,2.41 2.41,2.41l28.04,0l0,-1l-1.04,0z" fill="#407BFF" id="svg_101"/>
     <path d="m672.65,198.8l0,-2.81l1.04,0l0,-1l-15.45,0c-0.66,0 -1.26,0.27 -1.7,0.7c-0.43,0.43 -0.7,1.03 -0.7,1.7c0,1.33 1.08,2.41 2.4,2.41l15.45,0l0,-1l-1.04,0z" enable-background="new" id="svg_102" opacity="0.2"/>
     <path d="m658.24,198.8l14.41,0l0,-2.81l-14.41,0c-0.77,0 -1.4,0.63 -1.4,1.4c0,0.78 0.63,1.41 1.4,1.41z" enable-background="new" fill="#FFFFFF" id="svg_103" opacity="0.5"/>
    </g>
    <g id="svg_104">
     <path d="m666.37,200.8l0,2.81l1.04,0l0,1l-28.04,0c-0.67,0 -1.27,-0.27 -1.7,-0.7c-0.44,-0.43 -0.71,-1.03 -0.71,-1.7c0,-1.33 1.08,-2.41 2.41,-2.41l28.04,0l0,1l-1.04,0z" fill="#407BFF" id="svg_105"/>
     <path d="m666.37,200.8l0,2.81l1.04,0l0,1l-28.04,0c-0.67,0 -1.27,-0.27 -1.7,-0.7c-0.44,-0.43 -0.71,-1.03 -0.71,-1.7c0,-1.33 1.08,-2.41 2.41,-2.41l28.04,0l0,1l-1.04,0z" enable-background="new" fill="#FFFFFF" id="svg_106" opacity="0.5"/>
     <path d="m666.37,200.8l0,2.81l1.04,0l0,1l-15.45,0c-0.66,0 -1.26,-0.27 -1.7,-0.7c-0.43,-0.43 -0.7,-1.03 -0.7,-1.7c0,-1.33 1.08,-2.41 2.4,-2.41l15.45,0l0,1l-1.04,0z" enable-background="new" id="svg_107" opacity="0.2"/>
     <path d="m651.96,200.8l14.41,0l0,2.81l-14.41,0c-0.77,0 -1.4,-0.63 -1.4,-1.4c0,-0.78 0.63,-1.41 1.4,-1.41z" enable-background="new" fill="#FFFFFF" id="svg_108" opacity="0.5"/>
    </g>
    <path d="m648.51,206.02l0,1.4l-0.55,0c0.31,0 0.55,-0.63 0.55,-1.4z" enable-background="new" fill="#FFFFFF" id="svg_109" opacity="0.5"/>
    <g id="svg_110">
     <line fill="none" id="svg_111" stroke="#263238" stroke-linecap="round" stroke-linejoin="round" stroke-miterlimit="10" stroke-width="0.5" x1="617.66" x2="610.68" y1="204.91" y2="193.28"/>
     <circle cx="617.66" cy="204.91" fill="#407BFF" id="svg_112" r="1.4"/>
     <line fill="none" id="svg_113" stroke="#263238" stroke-linecap="round" stroke-linejoin="round" stroke-miterlimit="10" stroke-width="0.5" x1="597.14" x2="597.14" y1="207.01" y2="193.38"/>
     <line fill="none" id="svg_114" stroke="#263238" stroke-linecap="round" stroke-linejoin="round" stroke-miterlimit="10" stroke-width="0.5" x1="599.95" x2="599.95" y1="207.01" y2="193.38"/>
     <line fill="none" id="svg_115" stroke="#263238" stroke-linecap="round" stroke-linejoin="round" stroke-miterlimit="10" stroke-width="0.5" x1="602.76" x2="602.76" y1="207.01" y2="193.38"/>
     <line fill="none" id="svg_116" stroke="#263238" stroke-linecap="round" stroke-linejoin="round" stroke-miterlimit="10" stroke-width="0.5" x1="605.57" x2="605.57" y1="207.01" y2="193.38"/>
     <line fill="none" id="svg_117" stroke="#263238" stroke-linecap="round" stroke-linejoin="round" stroke-miterlimit="10" stroke-width="0.5" x1="608.38" x2="608.38" y1="207.01" y2="193.38"/>
     <polyline fill="none" id="svg_118" points="590.0343017578125,213.22945404052734 590.0343017578125,193.38245391845703 615.4803161621094,193.38245391845703 615.4803161621094,213.22945404052734 " stroke="#263238" stroke-linecap="round" stroke-linejoin="round" stroke-miterlimit="10"/>
     <polyline fill="none" id="svg_119" opacity="0.5" points="590.0343017578125,213.22945404052734 590.0343017578125,193.38245391845703 615.4803161621094,193.38245391845703 615.4803161621094,213.22945404052734 " stroke="#FFFFFF" stroke-miterlimit="10"/>
     <path d="m617.67,212.68l-29.83,0c-0.86,0 -1.55,0.69 -1.55,1.55l0,0l32.93,0l0,0c0,-0.86 -0.69,-1.55 -1.55,-1.55z" fill="#263238" id="svg_120"/>
     <circle cx="597.14" cy="207.01" fill="#407BFF" id="svg_121" r="1.4"/>
     <circle cx="599.95" cy="207.01" fill="#407BFF" id="svg_122" r="1.4"/>
     <circle cx="602.76" cy="207.01" fill="#407BFF" id="svg_123" r="1.4"/>
     <circle cx="605.57" cy="207.01" fill="#407BFF" id="svg_124" r="1.4"/>
     <circle cx="608.38" cy="207.01" fill="#407BFF" id="svg_125" r="1.4"/>
    </g>
   </g>
  </g>
  <g id="Plant" transform="matrix(1 0 0 1 0 0)">
   <g id="svg_126">
    <path d="m733.1,361.26c0,0 -5.61,-12.23 0.8,-24.29c6.41,-12.06 8.26,-14.9 4.18,-17.37s-5.96,9.65 -5.96,9.65s-3.44,-8.34 -0.6,-17.06c2.85,-8.73 4.63,-22.94 0.75,-24.46c-3.89,-1.53 -0.75,17.72 -4.11,24.29c0,0 -2.83,-7.31 -3.3,-14.32c-0.46,-7.01 0.26,-18.2 -2.8,-21.07s-5.03,-0.88 -2.02,14.59s2.99,28.03 2.99,28.03s-6.65,-20.28 -11.12,-20.88c-4.46,-0.59 -4.46,5.98 -0.63,11.68c3.82,5.7 11.19,15.91 12.4,21.16c0,0 -7.3,-15.27 -13.87,-10.59c-6.57,4.68 5.71,13.9 11.19,17.23c5.48,3.34 9.28,24.22 9.28,24.22l2.82,-0.81z" fill="#407BFF" id="svg_127"/>
    <path d="m733.1,361.26c0,0 -5.61,-12.23 0.8,-24.29c6.41,-12.06 8.26,-14.9 4.18,-17.37s-5.96,9.65 -5.96,9.65s-3.44,-8.34 -0.6,-17.06c2.85,-8.73 4.63,-22.94 0.75,-24.46c-3.89,-1.53 -0.75,17.72 -4.11,24.29c0,0 -2.83,-7.31 -3.3,-14.32c-0.46,-7.01 0.26,-18.2 -2.8,-21.07s-5.03,-0.88 -2.02,14.59s2.99,28.03 2.99,28.03s-6.65,-20.28 -11.12,-20.88c-4.46,-0.59 -4.46,5.98 -0.63,11.68c3.82,5.7 11.19,15.91 12.4,21.16c0,0 -7.3,-15.27 -13.87,-10.59c-6.57,4.68 5.71,13.9 11.19,17.23c5.48,3.34 9.28,24.22 9.28,24.22l2.82,-0.81z" enable-background="new" id="svg_128" opacity="0.2"/>
    <path d="m728.68,366.28c0,0 5.46,-12.31 -1.1,-24.28c-6.55,-11.96 -8.44,-14.77 -4.38,-17.31c4.05,-2.53 6.07,9.56 6.07,9.56s3.34,-8.38 0.39,-17.07c-2.94,-8.68 -4.89,-22.86 -1.03,-24.44c3.86,-1.59 0.95,17.71 4.4,24.22c0,0 2.74,-7.34 3.12,-14.36c0.38,-7.01 -0.48,-18.19 2.55,-21.11c3.03,-2.91 5.02,-0.95 2.19,14.55c-2.82,15.51 -2.65,28.08 -2.65,28.08s6.41,-20.38 10.87,-21.04s4.53,5.91 0.77,11.67c-3.75,5.75 -11,16.07 -12.15,21.34c0,0 7.12,-15.38 13.75,-10.8c6.62,4.59 -5.55,13.99 -10.99,17.4c-5.43,3.41 -8.99,24.36 -8.99,24.36l-2.82,-0.77z" fill="#407BFF" id="svg_129"/>
    <g id="svg_130">
     <polygon fill="#263238" id="svg_131" points="753.8627319335938,357.5020124912262 708.7597351074219,357.5020124912262 712.4097595214844,389.77700638771057 750.2117309570312,389.77700638771057 "/>
    </g>
   </g>
  </g>
  <g id="svg_278">
   <g display="none" id="Background_Simple">
    <g display="inline" id="svg_68">
     <path d="m-111.96,219.51c38.23,-101.67 141.69,-102.34 232.57,-91.37c54.28,6.55 107.46,-2.22 157.31,-24.53c66.68,-29.83 148.06,-57.82 220.4,-31.86c85.38,30.66 115.91,120.41 92.17,203.97c-19.51,68.61 -67.42,123.26 -94.88,188.14c-21.69,51.3 -27.72,107.66 -36.34,162.25c-10.53,66.89 -53.87,131.29 -117.22,157.69c-70.48,29.34 -140.7,-6.06 -184.43,-64.37c-33.74,-44.98 -43.84,-94.82 -60.59,-146.86c-12.49,-38.78 -45.68,-66.89 -77.12,-90.33c-58.24,-43.45 -124.88,-100.75 -139.6,-176.27c-5.66,-28.92 -2.58,-59.07 7.73,-86.45z" fill="#407BFF" id="svg_69"/>
     <path d="m-111.96,219.51c38.23,-101.67 141.69,-102.34 232.57,-91.37c54.28,6.55 107.46,-2.22 157.31,-24.53c66.68,-29.83 148.06,-57.82 220.4,-31.86c85.38,30.66 115.91,120.41 92.17,203.97c-19.51,68.61 -67.42,123.26 -94.88,188.14c-21.69,51.3 -27.72,107.66 -36.34,162.25c-10.53,66.89 -53.87,131.29 -117.22,157.69c-70.48,29.34 -140.7,-6.06 -184.43,-64.37c-33.74,-44.98 -43.84,-94.82 -60.59,-146.86c-12.49,-38.78 -45.68,-66.89 -77.12,-90.33c-58.24,-43.45 -124.88,-100.75 -139.6,-176.27c-5.66,-28.92 -2.58,-59.07 7.73,-86.45z" fill="#FFFFFF" id="svg_70" opacity="0.9"/>
    </g>
   </g>
   <g id="Thoughts_2">
    <g id="svg_206">
     <g id="svg_207">
      <g id="svg_208">
       <ellipse cx="172.83" cy="175.89" fill="#407BFF" id="svg_209" rx="14.85" ry="14.85" transform="matrix(0.528577 -2.25184 2.23852 0.531723 -84.7814 682.191)"/>
       <ellipse cx="198.47" cy="305.26" fill="none" id="svg_210" rx="17.85" ry="17.85" stroke="#407BFF" stroke-dasharray="5,3,10,3,2,15" stroke-linecap="round" stroke-linejoin="round" stroke-miterlimit="10" stroke-width="0.5" transform="matrix(2.12512 -0.885511 0.880272 2.13777 -290.159 -90.3483)"/>
       <ellipse cx="172.83" cy="175.89" fill="#FFFFFF" id="svg_211" opacity="0.8" rx="14.85" ry="14.85" transform="matrix(0.528577 -2.25184 2.23852 0.531723 -84.7814 682.191)"/>
      </g>
      <g id="svg_212">
       <path d="m418.6,373.57l0,21.7c0,0 -11.2,-0.46 -17.85,2.18c-0.16,0.05 -0.3,0.12 -0.44,0.16c-0.16,-0.05 -0.3,-0.12 -0.46,-0.16c-6.67,-2.64 -17.85,-2.18 -17.85,-2.18l0,-21.7c-0.46,0.02 -0.9,0.02 -1.36,0.07l0,24.53c0,0 12.03,-0.49 19.18,2.31c0.16,0.07 0.32,0.14 0.48,0.19c0.14,-0.05 0.3,-0.14 0.46,-0.19c7.15,-2.8 19.18,-2.31 19.18,-2.31l0,-24.53c-0.46,-0.05 -0.9,-0.05 -1.36,-0.07z" fill="#407BFF" id="svg_213"/>
       <path d="m400.31,374.77c-1.68,-0.72 -8.14,-3.12 -18.31,-2.34l0,22.84c0,0 11.2,-0.46 17.85,2.18c0.16,0.05 0.3,0.12 0.46,0.16c0.14,-0.05 0.28,-0.12 0.44,-0.16c6.65,-2.64 17.85,-2.18 17.85,-2.18l0,-22.84c-10.12,-0.79 -16.58,1.6 -18.29,2.34z" fill="none" id="svg_214" stroke="#407BFF" stroke-linecap="round" stroke-linejoin="round" stroke-miterlimit="10" stroke-width="0.5"/>
       <line fill="none" id="svg_215" stroke="#407BFF" stroke-linecap="round" stroke-linejoin="round" stroke-miterlimit="10" stroke-width="0.5" x1="400.31" x2="400.31" y1="374.77" y2="397.62"/>
      </g>
     </g>
     <g id="svg_216">
      <g id="svg_217">
       <ellipse cx="32.69" cy="59.13" fill="#407BFF" id="svg_218" rx="14.85" ry="14.85" transform="matrix(0.528577 -2.25184 2.23852 0.531723 -71.6758 158.518)"/>
       <g id="svg_219">
        <path d="m58.99,152.94c-20.06,-10.53 -27.9,-35.52 -17.44,-55.72c10.44,-20.2 35.28,-28.07 55.36,-17.54c20.08,10.5 27.9,35.49 17.46,55.69c-10.47,20.2 -35.31,28.07 -55.39,17.56z" fill="none" id="svg_220" stroke="#407BFF" stroke-dasharray="4.9161,2.9497,9.8323,2.9497,1.9664,14.7484" stroke-linecap="round" stroke-linejoin="round" stroke-width="0.5"/>
       </g>
       <ellipse cx="32.69" cy="59.13" fill="#FFFFFF" id="svg_221" opacity="0.8" rx="14.85" ry="14.85" transform="matrix(0.528577 -2.25184 2.23852 0.531723 -71.6758 158.518)"/>
      </g>
      <g id="svg_222">
       <g id="svg_223">
        <path d="m75,105.33c0,-1.5 1.17,-2.66 2.94,-2.66c1.77,0 2.97,1.09 2.97,2.57c0,1.6 -1.2,2.75 -2.97,2.75c-1.77,0.02 -2.94,-1.16 -2.94,-2.66zm0.58,4.97l4.76,0l0,16.52l-4.76,0l0,-16.52z" fill="#407BFF" id="svg_224"/>
       </g>
       <path d="m97.36,114.47c0,-9.79 -8.69,-17.72 -19.39,-17.72c-10.7,0 -19.39,7.94 -19.39,17.72s8.69,17.72 19.39,17.72c0.81,0 1.61,-0.07 2.39,-0.14l-0.09,0l5.18,6.71l0,-7.94l-0.02,0c6.99,-2.66 11.94,-8.98 11.94,-16.36z" fill="none" id="svg_225" stroke="#407BFF" stroke-linecap="round" stroke-linejoin="round" stroke-miterlimit="10" stroke-width="0.5"/>
      </g>
     </g>
     <g id="svg_226">
      <g id="svg_227">
       <ellipse cx="184.52" cy="57.67" fill="#407BFF" id="svg_228" rx="14.85" ry="14.85" transform="matrix(0.528577 -2.25184 2.23852 0.531723 200.594 497.824)"/>
       <path d="m406.91,148.83c-19.69,-11.25 -26.59,-36.51 -15.41,-56.32c11.2,-19.78 36.3,-26.75 55.99,-15.48c19.67,11.25 26.59,36.51 15.41,56.3c-11.2,19.81 -36.32,26.75 -55.99,15.5z" fill="none" id="svg_229" stroke="#407BFF" stroke-dasharray="5,3,10,3,2,15" stroke-linecap="round" stroke-linejoin="round" stroke-miterlimit="10" stroke-width="0.5"/>
       <ellipse cx="184.52" cy="57.67" fill="#FFFFFF" id="svg_230" opacity="0.8" rx="14.85" ry="14.85" transform="matrix(0.528577 -2.25184 2.23852 0.531723 200.594 497.824)"/>
      </g>
      <g id="svg_231">
       <path d="m430.58,116.36c-1.4,-1.25 -1.82,-2.55 -1.91,-3.45c0.09,-0.88 0.51,-2.18 1.91,-3.42c2.39,-2.13 2.51,-4.77 2.51,-4.77l-5.73,0l-0.32,0l-5.75,0c0,0 0.14,2.64 2.53,4.77c1.4,1.25 1.79,2.55 1.91,3.42c-0.12,0.9 -0.51,2.2 -1.91,3.45c-2.39,2.13 -2.53,4.77 -2.53,4.77l5.75,0l0.32,0l5.73,0c0,0 -0.12,-2.64 -2.51,-4.77z" fill="none" id="svg_232" stroke="#407BFF" stroke-linecap="round" stroke-linejoin="round" stroke-miterlimit="10" stroke-width="0.5"/>
       <g id="svg_233">
        <path d="m434.51,104.91l-14.63,0c-0.28,0 -0.51,-0.23 -0.51,-0.51l0,-2.22c0,-0.28 0.23,-0.51 0.51,-0.51l14.63,0c0.28,0 0.51,0.23 0.51,0.51l0,2.22c0,0.28 -0.23,0.51 -0.51,0.51z" fill="#407BFF" id="svg_234"/>
        <path d="m434.51,124.18l-14.63,0c-0.28,0 -0.51,-0.23 -0.51,-0.51l0,-2.22c0,-0.28 0.23,-0.51 0.51,-0.51l14.63,0c0.28,0 0.51,0.23 0.51,0.51l0,2.22c0,0.28 -0.23,0.51 -0.51,0.51z" fill="#407BFF" id="svg_235"/>
       </g>
      </g>
      <g id="svg_236">
       <g id="svg_237">
        <path d="m418.71,96.83c6.28,-3.42 14.26,-2.92 20.13,1.92c7.77,6.36 8.95,17.89 2.6,25.71" fill="none" id="svg_238" stroke="#407BFF" stroke-linecap="round" stroke-linejoin="round" stroke-miterlimit="10" stroke-width="0.5"/>
        <polyline fill="none" id="svg_239" points="440.2065632343292,121.35826110839844 440.9472553730011,125.20848083496094 444.648152589798,124.48424530029297 " stroke="#407BFF" stroke-linecap="round" stroke-linejoin="round" stroke-miterlimit="10" stroke-width="0.5"/>
       </g>
       <g id="svg_240">
        <path d="m435.69,129.02c-6.28,3.42 -14.26,2.92 -20.13,-1.92c-7.77,-6.36 -8.95,-17.89 -2.6,-25.71" fill="none" id="svg_241" stroke="#407BFF" stroke-linecap="round" stroke-linejoin="round" stroke-miterlimit="10" stroke-width="0.5"/>
        <polyline fill="none" id="svg_242" points="414.18718457221985,104.49490356445312 413.446492433548,100.64461517333984 409.7456257343292,101.36885833740234 " stroke="#407BFF" stroke-linecap="round" stroke-linejoin="round" stroke-miterlimit="10" stroke-width="0.5"/>
       </g>
      </g>
     </g>
     <g id="svg_243">
      <g id="svg_244">
       <line fill="none" id="svg_245" stroke="#407BFF" stroke-linecap="round" stroke-linejoin="round" stroke-width="0.5" x1="112.82" x2="117.71" y1="138.12" y2="141.18"/>
       <line fill="none" id="svg_246" stroke="#407BFF" stroke-dasharray="6.3295,3.7977" stroke-linecap="round" stroke-linejoin="round" stroke-width="0.5" x1="125.12" x2="141.19" y1="145.82" y2="155.87"/>
       <line fill="none" id="svg_247" stroke="#407BFF" stroke-linecap="round" stroke-linejoin="round" stroke-width="0.5" x1="144.9" x2="149.79" y1="158.19" y2="161.25"/>
      </g>
     </g>
     <g id="svg_248">
      <g id="svg_249">
       <line fill="none" id="svg_250" stroke="#407BFF" stroke-linecap="round" stroke-linejoin="round" stroke-width="0.5" x1="340.36" x2="345.37" y1="161.45" y2="158.6"/>
       <line fill="none" id="svg_251" stroke="#407BFF" stroke-dasharray="5.3542,3.2125" stroke-linecap="round" stroke-linejoin="round" stroke-width="0.5" x1="351.8" x2="382.9" y1="154.94" y2="137.27"/>
       <line fill="none" id="svg_252" stroke="#407BFF" stroke-linecap="round" stroke-linejoin="round" stroke-width="0.5" x1="386.11" x2="391.12" y1="135.44" y2="132.59"/>
      </g>
     </g>
     <path d="m151.69,161.25c0,1.06 -0.85,1.9 -1.91,1.9s-1.89,-0.83 -1.89,-1.9c0,-1.04 0.85,-1.9 1.89,-1.9s1.91,0.83 1.91,1.9z" fill="#407BFF" id="svg_253"/>
     <path d="m114.72,138.11c0,1.06 -0.85,1.92 -1.91,1.92s-1.89,-0.86 -1.89,-1.92c0,-1.04 0.85,-1.9 1.89,-1.9s1.91,0.86 1.91,1.9z" fill="#407BFF" id="svg_254"/>
     <path d="m342.25,161.44c0,1.06 -0.85,1.92 -1.89,1.92c-1.06,0 -1.91,-0.86 -1.91,-1.92s0.85,-1.9 1.91,-1.9c1.04,0 1.89,0.86 1.89,1.9z" fill="#407BFF" id="svg_255"/>
     <path d="m393.02,132.58c0,1.06 -0.85,1.92 -1.91,1.92c-1.04,0 -1.89,-0.86 -1.89,-1.92s0.85,-1.9 1.89,-1.9c1.06,0 1.91,0.86 1.91,1.9z" fill="#407BFF" id="svg_256"/>
     <path d="m322.22,302.47c0,1.06 -0.85,1.9 -1.89,1.9c-1.06,0 -1.91,-0.83 -1.91,-1.9s0.85,-1.9 1.91,-1.9c1.04,0 1.89,0.86 1.89,1.9z" fill="#407BFF" id="svg_257"/>
     <path d="m373.05,357.1c0,1.06 -0.85,1.92 -1.91,1.92s-1.89,-0.86 -1.89,-1.92c0,-1.04 0.85,-1.9 1.89,-1.9s1.91,0.83 1.91,1.9z" fill="#407BFF" id="svg_258"/>
     <g id="svg_259">
      <g id="svg_260">
       <line fill="none" id="svg_261" stroke="#407BFF" stroke-linecap="round" stroke-linejoin="round" stroke-width="0.5" x1="370.85" x2="366.92" y1="356.72" y2="352.5"/>
       <line fill="none" id="svg_262" stroke="#407BFF" stroke-dasharray="5.0236,3.0142" stroke-linecap="round" stroke-linejoin="round" stroke-width="0.5" x1="362.18" x2="326.63" y1="347.41" y2="309.23"/>
       <line fill="none" id="svg_263" stroke="#407BFF" stroke-linecap="round" stroke-linejoin="round" stroke-width="0.5" x1="324.26" x2="320.33" y1="306.69" y2="302.47"/>
      </g>
     </g>
     <ellipse cx="147.1" cy="250.49" fill="none" id="svg_264" rx="48.49" ry="48.49" stroke="#407BFF" stroke-dasharray="5,3,15,10,2,15" stroke-linecap="round" stroke-linejoin="round" stroke-miterlimit="10" stroke-width="0.5" transform="matrix(2.24013 -0.525244 0.522136 2.25346 -215.285 -267.513)"/>
    </g>
   </g>
   <g id="Thoughts_1">
    <g id="svg_265">
     <circle cx="245.01" cy="219.69" fill="#407BFF" id="svg_266" r="86.25"/>
     <g id="svg_267">
      <path d="m236.33,174.32l0,8.21l4.21,0.39c0.58,2.75 1.66,5.32 3.13,7.59l-2.69,3.29l5.77,5.81l3.27,-2.73c2.25,1.5 4.78,2.59 7.52,3.17l0.41,4.21l8.17,0l0.39,-4.21c2.74,-0.58 5.29,-1.67 7.54,-3.17l3.27,2.73l5.77,-5.81l-2.71,-3.29c1.5,-2.29 2.58,-4.84 3.15,-7.59l4.19,-0.39l0,-8.21l-4.19,-0.42c-0.58,-2.75 -1.66,-5.3 -3.15,-7.59l2.71,-3.26l-5.77,-5.81l-3.27,2.71c-2.28,-1.48 -4.81,-2.59 -7.54,-3.15l-0.39,-4.23l-8.17,0l-0.41,4.23c-2.74,0.56 -5.27,1.67 -7.52,3.15l-3.27,-2.71l-5.77,5.81l2.69,3.26c-1.47,2.29 -2.58,4.84 -3.13,7.59l-4.21,0.42zm25.69,-7.03c6.12,0 11.06,5 11.06,11.13c0,6.15 -4.95,11.13 -11.06,11.13s-11.04,-4.97 -11.04,-11.13c0,-6.13 4.95,-11.13 11.04,-11.13z" fill="#F5F5F5" id="svg_268"/>
      <path d="m241.6,234.25c2.16,-0.44 4.14,-1.3 5.91,-2.48l2.55,2.13l4.53,-4.54l-2.12,-2.59c1.17,-1.78 2.02,-3.77 2.46,-5.95l3.29,-0.3l0,-6.43l-3.29,-0.32c-0.44,-2.15 -1.29,-4.16 -2.46,-5.95l2.12,-2.57l-4.53,-4.56l-2.55,2.13c-1.77,-1.16 -3.75,-2.01 -5.91,-2.45l-0.3,-3.33l-6.39,0l-0.32,3.33c-2.14,0.44 -4.14,1.3 -5.91,2.45l-2.55,-2.13l-4.53,4.56l2.12,2.57c-1.15,1.78 -2,3.79 -2.46,5.95l-3.29,0.32l0,6.43l3.29,0.3c0.46,2.18 1.31,4.16 2.46,5.95l-2.12,2.59l4.53,4.54l2.55,-2.13c1.77,1.18 3.77,2.04 5.91,2.48l0.32,3.31l6.39,0l0.3,-3.31zm-12.17,-16.94c0,-4.81 3.89,-8.72 8.67,-8.72c4.78,0 8.65,3.91 8.65,8.72c0,4.81 -3.86,8.7 -8.65,8.7c-4.78,0 -8.67,-3.89 -8.67,-8.7z" fill="#F5F5F5" id="svg_269"/>
      <path d="m224.95,197.95l1.79,2.15l4.44,-3.05l-1.36,-2.45c1.24,-1.3 2.25,-2.8 2.94,-4.51l2.78,0.25l0.99,-5.32l-2.67,-0.76c-0.05,-1.85 -0.44,-3.66 -1.1,-5.3l2.14,-1.78l-3.04,-4.47l-2.44,1.34c-1.29,-1.23 -2.78,-2.24 -4.49,-2.96l0.25,-2.78l-5.29,-1.02l-0.76,2.68c-1.84,0.05 -3.61,0.44 -5.27,1.13l-1.77,-2.18l-4.44,3.05l1.33,2.45c-1.22,1.3 -2.23,2.82 -2.94,4.54l-2.76,-0.28l-1.01,5.32l2.69,0.76c0.02,1.85 0.41,3.66 1.1,5.3l-2.16,1.8l3.04,4.47l2.44,-1.37c1.29,1.25 2.81,2.27 4.51,2.96l-0.25,2.78l5.27,1.02l0.78,-2.68c1.82,-0.02 3.61,-0.42 5.24,-1.11zm-12.67,-14.79c0.74,-3.98 4.55,-6.57 8.49,-5.83c3.96,0.74 6.56,4.58 5.8,8.54c-0.74,3.98 -4.53,6.59 -8.49,5.85c-3.96,-0.76 -6.56,-4.58 -5.8,-8.56z" fill="#F5F5F5" id="svg_270"/>
     </g>
     <g id="svg_271">
      <path d="m296.21,273.4l-102.38,0c-3.89,0 -7.04,-3.17 -7.04,-7.1l0,0c0,-3.91 3.15,-7.08 7.04,-7.08l102.38,0c3.89,0 7.04,3.17 7.04,7.08l0,0c0,3.91 -3.15,7.1 -7.04,7.1z" enable-background="new" id="svg_272" opacity="0.4"/>
      <path d="m193.82,271.09c-2.62,0 -4.74,-2.15 -4.74,-4.79c0,-2.64 2.12,-4.77 4.74,-4.77l63.28,0c2.62,0 4.74,2.13 4.74,4.77c0,2.64 -2.12,4.79 -4.74,4.79l-63.28,0z" fill="#F5F5F5" id="svg_273"/>
     </g>
     <g id="svg_274">
      <circle cx="203.25" cy="338.04" fill="#407BFF" id="svg_275" r="13.06"/>
      <path d="m188.72,357.86c0,5 -4.03,9.05 -8.97,9.05s-8.99,-4.05 -8.99,-9.05c0,-4.97 4.03,-9.02 8.99,-9.02s8.97,4.03 8.97,9.02z" fill="#407BFF" id="svg_276"/>
      <path d="m165.42,360.98c0,2.71 -2.21,4.93 -4.9,4.93c-2.71,0 -4.92,-2.22 -4.92,-4.93c0,-2.73 2.21,-4.95 4.92,-4.95c2.69,0 4.9,2.22 4.9,4.95z" fill="#407BFF" id="svg_277"/>
     </g>
    </g>
   </g>
  </g>
 </g>
</svg>