<?xml version="1.0"?>
<svg width="500" height="500" xmlns="http://www.w3.org/2000/svg" xmlns:svg="http://www.w3.org/2000/svg" enable-background="new 0 0 500 500" version="1.1" xml:space="preserve">
 <g class="layer">
  <title>Layer 1</title>
  <g id="Background_Complete">
   <g id="svg_1">
    <g id="svg_2">
     <rect fill="#EBEBEB" height="0.25" id="svg_3" width="93.14" x="1031.76" y="348.89"/>
     <rect fill="#EBEBEB" height="0.25" id="svg_4" width="42.23" x="952.21" y="353.11"/>
     <g id="svg_5">
      <path d="m912,295.8l-193.09,0c-3.15,0 -5.7,-2.56 -5.7,-5.71l0,-271.43c0.03,-3.13 2.57,-5.66 5.7,-5.66l193.09,0c3.15,0 5.71,2.56 5.71,5.71l0,0l0,271.38c0,3.15 -2.56,5.71 -5.71,5.71zm-193.09,-282.6c-3.01,0.01 -5.45,2.45 -5.45,5.46l0,271.43c0,3.01 2.44,5.45 5.45,5.46l193.09,0c3.01,-0.01 5.45,-2.45 5.46,-5.46l0,-271.43c-0.01,-3.01 -2.45,-5.45 -5.46,-5.46l-193.09,0z" fill="#EBEBEB" id="svg_6"/>
      <path d="m1128.31,295.8l-193.1,0c-3.15,0 -5.7,-2.56 -5.71,-5.71l0,-271.43c0.03,-3.13 2.58,-5.66 5.71,-5.66l193.1,0c3.13,0.01 5.66,2.53 5.69,5.66l0,271.43c0,3.15 -2.54,5.7 -5.69,5.71zm-193.1,-282.6c-3.01,0.01 -5.45,2.45 -5.46,5.46l0,271.43c0,3.01 2.45,5.45 5.46,5.46l193.1,0c3.01,-0.01 5.45,-2.45 5.46,-5.46l0,-271.43c-0.01,-3.01 -2.45,-5.45 -5.46,-5.46l-193.1,0z" fill="#EBEBEB" id="svg_7"/>
      <g id="svg_8">
       <rect fill="#EBEBEB" height="0.25" id="svg_9" width="500" x="675" y="340.4"/>
       <rect fill="#EBEBEB" height="0.25" id="svg_10" width="33.12" x="779.54" y="347.21"/>
       <rect fill="#EBEBEB" height="0.25" id="svg_11" width="40.75" x="846.14" y="356.37"/>
       <rect fill="#EBEBEB" height="0.25" id="svg_12" width="51.08" x="727.46" y="353.24"/>
       <rect fill="#EBEBEB" height="0.25" id="svg_13" width="93.14" x="1031.76" y="348.89"/>
       <rect fill="#EBEBEB" height="0.25" id="svg_14" width="42.23" x="952.21" y="353.11"/>
       <path d="m912,295.8l-193.09,0c-3.15,0 -5.7,-2.56 -5.7,-5.71l0,-271.43c0.03,-3.13 2.57,-5.66 5.7,-5.66l193.09,0c3.15,0 5.71,2.56 5.71,5.71l0,0l0,271.38c0,3.15 -2.56,5.71 -5.71,5.71zm-193.09,-282.6c-3.01,0.01 -5.45,2.45 -5.45,5.46l0,271.43c0,3.01 2.44,5.45 5.45,5.46l193.09,0c3.01,-0.01 5.45,-2.45 5.46,-5.46l0,-271.43c-0.01,-3.01 -2.45,-5.45 -5.46,-5.46l-193.09,0z" fill="#EBEBEB" id="svg_15"/>
       <path d="m1128.31,295.8l-193.1,0c-3.15,0 -5.7,-2.56 -5.71,-5.71l0,-271.43c0.03,-3.13 2.58,-5.66 5.71,-5.66l193.1,0c3.13,0.01 5.66,2.53 5.69,5.66l0,271.43c0,3.15 -2.54,5.7 -5.69,5.71zm-193.1,-282.6c-3.01,0.01 -5.45,2.45 -5.46,5.46l0,271.43c0,3.01 2.45,5.45 5.46,5.46l193.1,0c3.01,-0.01 5.45,-2.45 5.46,-5.46l0,-271.43c-0.01,-3.01 -2.45,-5.45 -5.46,-5.46l-193.1,0z" fill="#EBEBEB" id="svg_16"/>
      </g>
     </g>
    </g>
    <g id="svg_17">
     <rect fill="#E0E0E0" height="108.94" id="svg_18" width="149.44" x="971.15" y="27.85"/>
     <rect fill="#F0F0F0" height="108.94" id="svg_19" width="149.44" x="967.95" y="27.85"/>
     <rect fill="#FAFAFA" height="94.19" id="svg_20" width="135.42" x="975.55" y="35.06"/>
     <rect fill="#E0E0E0" height="94.19" id="svg_21" width="1.94" x="975.55" y="35.06"/>
     <polygon fill="#FFFFFF" id="svg_22" points="1109.7160034179688,35.06199645996094 1051.3160400390625,129.2519989013672 1027.2960205078125,129.2519989013672 1084.176025390625,35.06199645996094 "/>
     <polygon fill="#FFFFFF" id="svg_23" points="1076.696044921875,35.06199645996094 1018.2960205078125,129.2519989013672 994.2760009765625,129.2519989013672 1051.156005859375,35.06199645996094 "/>
    </g>
    <g id="svg_24">
     <g id="svg_25">
      <rect fill="#E0E0E0" height="79.93" id="svg_26" width="187.61" x="949.22" y="260.47"/>
      <rect fill="#F0F0F0" height="79.93" id="svg_27" width="187.61" x="937.95" y="260.47"/>
      <rect fill="#FAFAFA" height="29.02" id="svg_28" width="172.49" x="946.4" y="266.81"/>
      <rect fill="#FAFAFA" height="29.02" id="svg_29" width="172.49" x="946.4" y="303.92"/>
     </g>
     <rect fill="#E0E0E0" height="6.4" id="svg_30" width="204.31" x="935.28" y="254.07"/>
     <rect height="6.4" id="svg_31" opacity="0.05" width="14.04" x="1125.55" y="254.07"/>
    </g>
    <g id="svg_32">
     <polygon fill="#EBEBEB" id="svg_33" points="1082.0570068359375,218.09201049804688 1114.64599609375,218.09201049804688 1110.3389892578125,253.80499267578125 1077.446044921875,253.80499267578125 "/>
     <polygon fill="#F5F5F5" id="svg_34" points="1086.0590209960938,223.20001220703125 1109.3250122070312,223.20001220703125 1106.25,248.69699096679688 1082.7669677734375,248.69699096679688 "/>
     <polygon fill="#E0E0E0" id="svg_35" points="1113.2640380859375,229.5469970703125 1114.64599609375,253.80499267578125 1110.3389892578125,253.80499267578125 "/>
     <polygon fill="#E0E0E0" id="svg_36" points="1087.3510131835938,223.20001220703125 1084.06396484375,248.69699096679688 1082.7669677734375,248.69699096679688 1086.0590209960938,223.20001220703125 "/>
    </g>
    <g id="svg_37">
     <rect fill="#E0E0E0" height="73.23" id="svg_38" width="59.23" x="731.15" y="119.85"/>
     <rect fill="#F0F0F0" height="73.23" id="svg_39" width="59.23" x="726.59" y="119.85"/>
     <rect fill="#FAFAFA" height="58.32" id="svg_40" width="47.17" x="732.63" y="127.31"/>
     <rect fill="#E0E0E0" height="58.32" id="svg_41" width="1.92" x="732.63" y="127.31"/>
     <ellipse cx="588.21" cy="644.74" fill="#E0E0E0" id="svg_42" rx="11.29" ry="11.29" transform="matrix(0.7071 -0.7071 0.7071 0.7071 -115.612 115.165)"/>
    </g>
    <g id="Character--inject-374">
     <path d="m727.54,256.02l-0.63,84.75l67.09,0.5c1.91,-0.04 3.43,-1.61 3.41,-3.53l0.2,-27.05c-0.03,-9.28 1.1,-18.52 3.39,-27.5c0.59,-2.24 0.83,-4.56 0.7,-6.87c-0.56,-10.48 -8.62,-19.04 -18.66,-19.84c-0.49,-0.04 -0.96,-0.04 -1.42,-0.05l0,0l-54.08,-0.41z" enable-background="new" fill="#E0E0E0" id="svg_43"/>
     <path d="m707.77,282.46c2.11,8.42 3.12,17.09 3,25.78l-0.21,28.64c-0.06,1.92 1.44,3.51 3.35,3.58l26,0.19c1.91,-0.04 3.44,-1.61 3.41,-3.52l0.21,-27.06c-0.04,-9.27 1.1,-18.51 3.38,-27.5c0.59,-2.24 0.83,-4.56 0.7,-6.87c-0.56,-10.47 -8.62,-19.04 -18.66,-19.83c-11.84,-0.94 -21.77,8.76 -21.86,20.91c-0.02,1.91 0.21,3.82 0.68,5.68z" fill="#F5F5F5" id="svg_44"/>
     <rect fill="#EBEBEB" height="85.54" id="svg_45" transform="matrix(0.0075 -1 1 0.0075 -235.844 477.819)" width="51.43" x="144.13" y="989.6"/>
     <path d="m902.47,244.45l-0.44,57.57l-17.3,-0.13l-108.47,-0.82l0.43,-57.56c0.06,-7.97 6.06,-14.51 13.77,-15.43c0.66,-0.08 1.33,-0.12 2.01,-0.12l94.44,0.71c0.01,0 0.01,0 0.01,0c8.65,0.07 15.61,7.13 15.55,15.78z" enable-background="new" fill="#E0E0E0" id="svg_46"/>
     <path d="m885.16,244.45l-0.43,57.44l-108.47,-0.82l0.43,-57.56c0.06,-7.97 6.06,-14.51 13.77,-15.43l79.15,0.59l0.01,0c8.65,0.07 15.61,7.13 15.54,15.78z" enable-background="new" fill="#EBEBEB" id="svg_47"/>
     <path d="m835.94,287.73c0.76,0.02 1.36,0.66 1.33,1.42l-0.14,18.81l0,0c-0.01,0.77 -0.63,1.38 -1.39,1.37l-79.54,-0.6c-2.55,-0.01 -4.6,-2.1 -4.58,-4.65l0.09,-12.37c0.02,-2.55 2.1,-4.6 4.65,-4.58l79.54,0.6c0.01,0 0.03,0 0.04,0z" enable-background="new" fill="#F0F0F0" id="svg_48"/>
     <path d="m835.8,256.39l-0.64,84.75l82.36,0.61c1.91,-0.03 3.44,-1.61 3.41,-3.52l0.2,-27.06c-0.03,-9.27 1.11,-18.51 3.39,-27.5c0.6,-2.24 0.83,-4.56 0.7,-6.87c-0.55,-10.47 -8.62,-19.04 -18.66,-19.83c-0.48,-0.05 -0.95,-0.05 -1.43,-0.06l0,0l-69.33,-0.52z" enable-background="new" fill="#E0E0E0" id="svg_49"/>
     <path d="m820.28,283.3c2.1,8.43 3.09,17.1 2.95,25.78l-0.22,28.65c-0.05,1.91 1.45,3.5 3.36,3.57l26,0.2c1.91,-0.04 3.44,-1.61 3.41,-3.53l0.2,-27.06c-0.03,-9.27 1.11,-18.51 3.39,-27.49c0.6,-2.24 0.83,-4.56 0.7,-6.87c-0.56,-10.48 -8.62,-19.04 -18.66,-19.84c-11.84,-0.93 -21.77,8.76 -21.86,20.91c-0.01,1.92 0.24,3.83 0.73,5.68z" fill="#F5F5F5" id="svg_50"/>
    </g>
    <g id="svg_51">
     <g id="svg_52">
      <rect fill="#E0E0E0" height="5.68" id="svg_53" width="163.7" x="727.46" y="78.2"/>
      <rect fill="#F0F0F0" height="5.68" id="svg_54" width="151.18" x="727.46" y="78.2"/>
      <polygon fill="#EBEBEB" id="svg_55" points="727.4580078125,83.87799835205078 739.9749755859375,96.16200256347656 743.3709716796875,96.16200256347656 739.9749755859375,83.87799835205078 "/>
      <polygon fill="#E0E0E0" id="svg_56" points="730.85498046875,83.87799835205078 743.3709716796875,96.16200256347656 743.3709716796875,83.87799835205078 "/>
      <g id="svg_57">
       <ellipse cx="728.4" cy="331.56" fill="#EBEBEB" id="svg_58" rx="12.3" ry="12.3" transform="matrix(0.9214 -0.3887 0.3887 0.9214 -34.8523 43.538)"/>
       <polygon fill="#EBEBEB" id="svg_59" points="752.8690185546875,65.9000015258789 752.3690185546875,53.599998474121094 777.4700317382812,53.599998474121094 777.4700317382812,65.9000015258789 "/>
      </g>
      <g id="svg_60">
       <rect fill="#F0F0F0" height="51.59" id="svg_61" width="7.44" x="786.79" y="26.61"/>
       <rect fill="#F0F0F0" height="51.59" id="svg_62" width="7.45" x="795.6" y="26.61"/>
       <rect fill="#F0F0F0" height="51.59" id="svg_63" width="7.45" x="804.7" y="26.61"/>
       <rect fill="#E0E0E0" height="2.77" id="svg_64" width="7.44" x="786.79" y="70.64"/>
       <rect fill="#E0E0E0" height="2.77" id="svg_65" width="7.45" x="795.6" y="70.64"/>
       <rect fill="#E0E0E0" height="2.77" id="svg_66" width="7.45" x="804.7" y="70.64"/>
       <rect fill="#E0E0E0" height="2.77" id="svg_67" width="7.44" x="786.79" y="32.18"/>
       <rect fill="#E0E0E0" height="2.77" id="svg_68" width="7.45" x="795.6" y="32.18"/>
       <rect fill="#E0E0E0" height="2.77" id="svg_69" width="7.45" x="804.7" y="32.18"/>
       <rect fill="#E0E0E0" height="20.09" id="svg_70" width="2.92" x="797.87" y="41.19"/>
       <rect fill="#E0E0E0" height="20.09" id="svg_71" width="2.92" x="789.05" y="41.19"/>
       <rect fill="#E0E0E0" height="20.09" id="svg_72" width="2.92" x="806.97" y="41.19"/>
      </g>
      <g id="svg_73">
       <rect fill="#F0F0F0" height="51.59" id="svg_74" width="7.44" x="813.42" y="26.61"/>
       <rect fill="#F0F0F0" height="51.59" id="svg_75" width="7.45" x="822.24" y="26.61"/>
       <rect fill="#F0F0F0" height="51.59" id="svg_76" width="7.45" x="831.34" y="26.61"/>
       <rect fill="#E0E0E0" height="2.77" id="svg_77" width="7.44" x="813.42" y="70.64"/>
       <rect fill="#E0E0E0" height="2.77" id="svg_78" width="7.45" x="822.24" y="70.64"/>
       <rect fill="#E0E0E0" height="2.77" id="svg_79" width="7.45" x="831.34" y="70.64"/>
       <rect fill="#E0E0E0" height="2.77" id="svg_80" width="7.44" x="813.42" y="32.18"/>
       <rect fill="#E0E0E0" height="2.77" id="svg_81" width="7.45" x="822.24" y="32.18"/>
       <rect fill="#E0E0E0" height="2.77" id="svg_82" width="7.45" x="831.34" y="32.18"/>
       <rect fill="#E0E0E0" height="20.09" id="svg_83" width="2.92" x="824.51" y="41.19"/>
       <rect fill="#E0E0E0" height="20.09" id="svg_84" width="2.92" x="815.68" y="41.19"/>
       <rect fill="#E0E0E0" height="20.09" id="svg_85" width="2.92" x="833.61" y="41.19"/>
      </g>
     </g>
     <polygon fill="#EBEBEB" id="svg_86" points="875.2420043945312,83.87799835205078 887.7579956054688,96.16200256347656 891.1539916992188,96.16200256347656 887.7579956054688,83.87799835205078 "/>
     <polygon fill="#E0E0E0" id="svg_87" points="878.6380004882812,83.87799835205078 891.1539916992188,96.16200256347656 891.1539916992188,83.87799835205078 "/>
    </g>
   </g>
  </g>
  <g display="none" id="Background_Simple">
   <g display="inline" id="svg_88">
    <path d="m355.47,143.31c-29.49,-22.39 -56.12,-49.04 -88.87,-66.32c-32.74,-17.28 -74.6,-23.63 -105.93,-3.91c-16.08,10.12 -27.76,26.08 -36.19,43.1c-7.69,15.5 -13.04,32.46 -13.12,49.76c-0.08,17.9 5.47,35.4 12.82,51.72c14.47,32.11 36.69,61.4 66.5,80.16c16.04,10.1 33.91,16.97 52.05,22.47c56.49,17.15 118.92,21.16 173.72,-0.79c20.65,-8.27 40.14,-20.33 54.56,-37.26c14.43,-16.93 23.43,-39.06 21.99,-61.26c-1.43,-22.19 -14.23,-43.98 -34.26,-53.66c-17.52,-8.47 -34.1,-6.45 -52.4,-4.02c-19.32,2.58 -36.06,-8.74 -50.87,-19.99z" fill="#407BFF" id="svg_89"/>
    <path d="m355.47,143.31c-29.49,-22.39 -56.12,-49.04 -88.87,-66.32c-32.74,-17.28 -74.6,-23.63 -105.93,-3.91c-16.08,10.12 -27.76,26.08 -36.19,43.1c-7.69,15.5 -13.04,32.46 -13.12,49.76c-0.08,17.9 5.47,35.4 12.82,51.72c14.47,32.11 36.69,61.4 66.5,80.16c16.04,10.1 33.91,16.97 52.05,22.47c56.49,17.15 118.92,21.16 173.72,-0.79c20.65,-8.27 40.14,-20.33 54.56,-37.26c14.43,-16.93 23.43,-39.06 21.99,-61.26c-1.43,-22.19 -14.23,-43.98 -34.26,-53.66c-17.52,-8.47 -34.1,-6.45 -52.4,-4.02c-19.32,2.58 -36.06,-8.74 -50.87,-19.99z" fill="#FFFFFF" id="svg_90" opacity="0.9"/>
   </g>
  </g>
  <g id="Shape_1_">
   <ellipse cx="797" cy="508.24" fill="#F5F5F5" id="shape" rx="193.89" ry="11.32"/>
  </g>
  <g id="Music" transform="rotate(9.1604 161.844 192.52)">
   <g id="svg_91" transform="matrix(0.91272 0.658234 -0.614688 0.977376 143.987 -43.2056)">
    <path d="m231.15,206.73l-0.9,0.45c-7,-13.9 -21.41,-24.66 -39.52,-29.52c-16.87,-4.53 -34.36,-3.76 -50.76,-2.26c-3.79,0.34 -7.65,0.74 -11.39,1.13c-13.02,1.35 -26.48,2.74 -39.78,2.16c-23.77,-1.04 -46.71,-8.68 -64.56,-21.51c-6.56,-4.71 -12.49,-10.17 -17.66,-16.18l0.55,-0.89c5.17,6.04 11.11,11.53 17.69,16.26c17.7,12.72 40.44,20.29 64.03,21.32c13.22,0.58 26.64,-0.81 39.63,-2.16c3.74,-0.38 7.6,-0.78 11.4,-1.13c16.49,-1.51 34.09,-2.27 51.1,2.29c18.39,4.94 33.03,15.89 40.17,30.04z" fill="#407BFF" id="svg_92"/>
   </g>
   <g id="svg_93" transform="matrix(0.91272 0.658234 -0.614688 0.977376 143.987 -43.2056)">
    <path d="m233.04,197.19l-0.9,0.45c-7,-13.9 -21.41,-24.66 -39.52,-29.52c-16.87,-4.53 -34.36,-3.77 -50.76,-2.27c-3.79,0.35 -7.65,0.75 -11.39,1.13c-13.02,1.35 -26.48,2.75 -39.78,2.17c-23.24,-1.02 -47.51,-10.99 -66.59,-27.36c-4.07,-3.49 -7.82,-7.18 -11.22,-11.05l0.45,-0.73c19.87,22.67 49.8,36.93 77.41,38.14c13.22,0.58 26.65,-0.81 39.63,-2.16c3.74,-0.39 7.6,-0.79 11.4,-1.14c16.49,-1.5 34.09,-2.27 51.1,2.3c18.39,4.94 33.03,15.88 40.17,30.04z" fill="#407BFF" id="svg_94"/>
   </g>
   <g id="svg_95" transform="matrix(0.91272 0.658234 -0.614688 0.977376 143.987 -43.2056)">
    <path d="m233.04,187.79l-0.9,0.45c-7,-13.9 -21.41,-24.66 -39.52,-29.53c-16.87,-4.52 -34.36,-3.76 -50.76,-2.26c-4.03,0.37 -8.14,0.81 -12.11,1.23c-12.79,1.38 -26.01,2.79 -39.06,2.07c-28.85,-1.61 -53.76,-18.01 -70.95,-40.16l0.54,-0.89c17.03,22.07 41.78,38.45 70.46,40.05c12.97,0.72 26.16,-0.69 38.9,-2.06c3.98,-0.43 8.09,-0.87 12.13,-1.24c16.49,-1.5 34.09,-2.27 51.1,2.3c18.39,4.93 33.03,15.88 40.17,30.04z" fill="#407BFF" id="svg_96"/>
   </g>
   <g id="svg_97" transform="matrix(0.91272 0.658234 -0.614688 0.977376 143.987 -43.2056)">
    <path d="m235.31,177.98l-0.9,0.45c-7,-13.9 -21.41,-24.67 -39.52,-29.53c-16.87,-4.53 -34.37,-3.76 -50.76,-2.26c-4.03,0.37 -8.14,0.81 -12.11,1.23c-12.79,1.37 -26.01,2.79 -39.06,2.06c-26.04,-1.45 -50.36,-17.21 -67.15,-40.22l0.55,-0.91c16.63,22.96 40.78,38.69 66.65,40.14c12.97,0.72 26.15,-0.69 38.9,-2.06c3.98,-0.43 8.09,-0.87 12.13,-1.24c15.7,-1.43 34.04,-2.28 51.1,2.3c18.39,4.93 33.03,15.88 40.17,30.04z" fill="#407BFF" id="svg_98"/>
   </g>
   <g id="svg_99" transform="matrix(0.91272 0.658234 -0.614688 0.977376 143.987 -43.2056)">
    <path d="m237.69,166.48l-0.89,0.45c-7.01,-13.9 -21.42,-24.66 -39.53,-29.52c-16.87,-4.53 -34.36,-3.77 -50.75,-2.27c-4.04,0.37 -8.15,0.81 -12.12,1.24c-12.79,1.37 -26.01,2.79 -39.06,2.06c-26.7,-1.49 -48.12,-17.66 -62.57,-40.07l0.58,-0.93c14.28,22.36 35.53,38.52 62.05,40c12.97,0.72 26.15,-0.69 38.9,-2.06c3.97,-0.42 8.08,-0.86 12.13,-1.23c15.69,-1.44 34.03,-2.29 51.1,2.29c18.39,4.94 33.02,15.89 40.16,30.04z" fill="#407BFF" id="svg_100"/>
   </g>
   <g id="svg_101" transform="matrix(0.91272 0.658234 -0.614688 0.977376 143.987 -43.2056)">
    <path d="m177.78,145.95c0,1.85 -2.19,3.35 -4.9,3.35s-4.9,-1.5 -4.9,-3.35s2.19,-3.35 4.9,-3.35s4.9,1.5 4.9,3.35z" fill="#263238" id="svg_102"/>
    <g id="svg_103">
     <polygon fill="#263238" id="svg_104" points="177.6054983139038,146.7731590270996 176.6334981918335,146.54215621948242 181.1435079574585,127.97014999389648 181.96250820159912,128.4331398010254 "/>
    </g>
    <path d="m189.46,154.61c0,1.85 -2.2,3.35 -4.9,3.35s-4.9,-1.5 -4.9,-3.35c0,-1.84 2.19,-3.34 4.9,-3.34s4.9,1.5 4.9,3.34z" fill="#263238" id="svg_105"/>
    <g id="svg_106">
     <polygon fill="#263238" id="svg_107" points="189.28350734710693,155.44115829467773 188.31251430511475,155.2021598815918 193.42350673675537,134.42515182495117 194.274489402771,134.85314559936523 "/>
    </g>
    <polygon fill="#263238" id="svg_108" points="191.82049465179443,142.59714889526367 179.66049098968506,135.9631462097168 180.222487449646,133.59614944458008 192.39149379730225,140.19614791870117 "/>
    <polygon fill="#263238" id="svg_109" points="193.87950038909912,134.6651496887207 181.1435079574585,127.97014999389648 180.763503074646,131.31715774536133 193.02950954437256,137.51015853881836 "/>
   </g>
   <g id="svg_110" transform="matrix(0.91272 0.658234 -0.614688 0.977376 143.987 -43.2056)">
    <path d="m81.6,161.16c-0.55,1.97 -3.29,2.93 -6.13,2.14c-2.83,-0.8 -4.68,-3.03 -4.13,-5c0.55,-1.97 3.29,-2.92 6.12,-2.13c2.83,0.79 4.69,3.03 4.14,4.99z" fill="#263238" id="svg_111"/>
    <g id="svg_112">
     <path d="m74.02,136.46l-1.79,22.7l-1,-0.08l1.3,-16.51l0.4,-5.09c0.42,-0.26 0.79,-0.59 1.09,-1.02z" fill="#263238" id="svg_113"/>
    </g>
    <path d="m74.02,136.46l-1.02,5.72c-0.15,0.14 -0.3,0.27 -0.47,0.39c-1.18,0.92 -2.69,1.39 -4.18,1.62c-1.01,0.16 -2.04,0.23 -3.04,0.47c-1.96,0.49 -3.79,1.59 -4.99,3.22c0.4,-2.52 0.93,-5.26 2.86,-6.94c1.51,-1.32 3.58,-1.71 5.53,-2.18c1.44,-0.35 3.02,-0.54 4.22,-1.28c0.42,-0.26 0.79,-0.59 1.09,-1.02z" fill="#263238" id="svg_114"/>
   </g>
  </g>
  <g id="Character" transform="matrix(1 0 0 1 0 0)">
   <g id="svg_115">
    <g id="svg_116">
     <g id="svg_117">
      <g id="svg_118">
       <path d="m-128.05,97.32c-1.61,4.11 -4.52,7.63 -5.94,11.82c-2.91,8.56 -4.36,15.73 -11.86,21.68c-14.75,11.72 -30.62,13.97 -45.88,1.79c-4.48,-3.57 -8.56,-7.8 -11.1,-12.93c-4.24,-8.53 -3.3,-21.05 6.09,-25.78c5.66,-2.85 12.72,-1.75 18.3,-4.76c5.45,-2.96 8.23,-9.12 12.55,-13.58c3.87,-3.96 9.43,-6.36 15.1,-6.88c1.99,-0.18 4,-0.15 5.95,0.13c2.69,0.39 5.29,1.24 7.63,2.58c8.26,4.74 12.86,16.45 9.16,25.93z" fill="#263238" id="svg_119"/>
       <path d="m-121.44,117.04c0,0 21.84,-15.32 24.91,-18.58c3.06,-3.27 7.96,-30.02 7.96,-34.71l-2.66,-5.72l2.66,-7.96l6.53,1.22l0,6.74l-1.43,5.31c0,0 1.47,24.53 -5.84,39.53c-0.72,1.49 -1.76,2.8 -3.05,3.85c-5.38,4.43 -21.79,17.75 -28.06,21.14c-7.56,4.08 -1.02,-10.82 -1.02,-10.82z" fill="#CE7A63" id="svg_120"/>
       <path d="m-151.22,123.99c0,0 -13.87,-13.13 -27.03,-27.9c0,0 -7.17,-20.54 -8.08,-33.29l3.08,-6.85l-1.86,-10.89l-7.16,1.99l-3.53,10.05l2.74,5.67c0,0 0.66,24.51 7.72,41.5c0,0 16.2,21.48 30.6,31.23c0,0 8.48,1.15 3.52,-11.51z" fill="#CE7A63" id="svg_121"/>
       <polygon fill="#CE7A63" id="svg_122" points="-139.07200622558594,355.4070129394531 -142.8820037841797,379.552001953125 -151.281005859375,377.3819885253906 -149.11000061035156,352.8900146484375 "/>
       <polygon fill="#CE7A63" id="svg_123" points="-220.11499786376953,241.42800903320312 -231.58300018310547,228.0780029296875 -227.78500366210938,222.20199584960938 -213.13500213623047,232.51199340820312 "/>
       <path d="m-122.13,278.19c-1.95,16.82 -9.35,60.87 -11.25,72.07c-0.29,1.69 -0.44,2.63 -0.44,2.63l-18.45,-2.25l0.31,-2.7l8.68,-76.05c-0.62,-5.33 -1.14,-12.66 -1.55,-19.83c-0.71,-12.08 -1.12,-23.72 -1.15,-24.65c0.01,-0.02 0.01,-0.04 0,-0.06c0,0 0,0.09 -0.01,0.25c-0.03,0.67 -0.07,1.25 -0.1,1.71c0,0.11 -0.01,0.23 -0.02,0.36c0,0.05 -0.01,0.11 -0.01,0.17c-0.79,11.76 -4.93,61.18 -19.21,59.61c-14,-1.56 -43.79,-34.7 -51.61,-43.67c-1.24,-1.41 -1.92,-2.23 -1.92,-2.23l7.19,-9.91c1,0.64 2,1.3 3.02,2c16.05,10.99 33.88,28.61 33.88,28.61s1.8,-30.15 2.7,-50.85c0.89,-20.7 13.46,-38.15 13.46,-38.15l37.82,0c0,0 0.92,83.59 -1.34,102.94z" fill="#263238" id="svg_124"/>
       <polygon fill="#407BFF" id="svg_125" points="-154.71600341796875,347.6000061035156 -154.71600341796875,356.77099609375 -134.0070037841797,360.3210144042969 -131.04800415039062,350.5589904785156 "/>
       <polygon fill="#407BFF" id="svg_126" points="-218.86900329589844,248.12799072265625 -206.48799896240234,232.99099731445312 -212.8270034790039,228.0780029296875 -225.15699768066406,243.39498901367188 "/>
       <path d="m-151.51,373.93l9.13,1.77c0,0 0.55,5.24 6.75,7.31c6.19,2.06 7.15,1.43 6.99,3.49c-0.16,2.07 -5.61,3.02 -9.56,1.11c-3.95,-1.9 -13.48,-3.17 -15.87,-4.13c-2.38,-0.95 2.56,-9.55 2.56,-9.55z" fill="#263238" id="svg_127"/>
       <path d="m-101.18,120.42l-12.33,8.04l-2.98,1.94c0,0 -3.43,35.83 -4.29,44.85l-37.83,0l-3.51,-34.29l-1.26,-12.4l-9.36,-8.01l9.19,-15.27l13.88,10.09l17.82,0.21l21.13,-10.3l9.54,15.14z" fill="#407BFF" id="svg_128"/>
       <path d="m-128.52,99.44c-3.3,4.42 -10,5.83 -10,5.83c-3.74,0.07 -12.94,-0.52 -13.46,-16.26c-0.02,-0.57 -0.02,-1.13 0,-1.67c0.57,-14.21 14.77,-15.95 14.77,-15.95s0.29,0.14 0.79,0.48c1.41,0.96 4.49,3.08 7.32,8.46c3.82,7.27 3.88,14.68 0.58,19.11z" fill="#CE7A63" id="svg_129"/>
       <path d="m-139.46,93.53c0,0 2.66,1.84 6.06,0.59" fill="none" id="svg_130" stroke="#263238" stroke-linecap="round" stroke-linejoin="round" stroke-miterlimit="10"/>
       <path d="m-142.64,83.97c0,0 0.52,-2.21 3.47,-2.28" fill="none" id="svg_131" stroke="#263238" stroke-linecap="round" stroke-linejoin="round" stroke-miterlimit="10"/>
       <path d="m-133.7,78.32c0,0 1.63,-1.33 3.7,-0.37" fill="none" id="svg_132" stroke="#263238" stroke-linecap="round" stroke-linejoin="round" stroke-miterlimit="10"/>
       <path d="m-138.57,85.73c0.31,0.64 0.22,1.32 -0.21,1.53c-0.42,0.2 -1.01,-0.15 -1.32,-0.79c-0.31,-0.65 -0.22,-1.33 0.21,-1.53c0.42,-0.21 1.01,0.15 1.32,0.79z" fill="#263238" id="svg_133"/>
       <path d="m-130.43,82.67c0.31,0.65 0.21,1.33 -0.21,1.53c-0.42,0.21 -1.02,-0.15 -1.33,-0.79s-0.21,-1.32 0.21,-1.53c0.42,-0.2 1.02,0.15 1.33,0.79z" fill="#263238" id="svg_134"/>
       <path d="m-139.89,84.94l1.35,-1.28c0,0 0.33,1.49 -1.35,1.28z" fill="#263238" id="svg_135"/>
       <path d="m-131.89,82.03l1.35,-1.28c0,0 0.33,1.5 -1.35,1.28z" fill="#263238" id="svg_136"/>
       <path d="m-133.7,85.48l1.64,4.81c0,0 1.07,0.07 2.49,-1.32l-4.13,-3.49z" fill="#BA4D3C" id="svg_137"/>
       <path d="m-137.41,104.25c-0.21,0.3 -1.23,5.92 0.51,8.37c1.73,2.45 5.05,2.96 5.05,2.96s3.61,9.08 -1.85,10.92c-5.45,1.84 -14.33,-3.67 -15.97,-11.13c0,0 3.31,-1.03 2.32,-13.53c-0.99,-12.5 9.94,2.41 9.94,2.41z" fill="#CE7A63" id="svg_138"/>
       <path d="m-136.42,71.87c0.21,13.02 -14.93,15.38 -15.56,15.47c0.57,-14.21 13.47,-16.58 13.47,-16.58s1.59,0.77 2.09,1.11z" fill="#263238" id="svg_139"/>
       <path d="m-149.47,90.43c-1.2,-2.64 -4.44,-5.15 -6.32,-3.32c-2.63,2.55 0.75,6.97 3.19,7.35c1.05,0.16 2.52,0.23 3.2,-0.77c0.59,-0.86 0.46,-2.07 -0.07,-3.26z" fill="#CE7A63" id="svg_140"/>
       <polygon id="svg_141" opacity="0.2" points="-159.23599243164062,124.1199951171875 -162.11700439453125,140.96499633789062 -163.38299560546875,128.5659942626953 "/>
       <polygon id="svg_142" opacity="0.2" points="-113.51400756835938,128.46299743652344 -116.49000549316406,130.4040069580078 -117.24200439453125,124.1199951171875 "/>
       <g id="svg_143">
        <polygon fill="#FFFFFF" id="svg_144" points="-120.44900512695312,171.80799865722656 -120.78199768066406,175.2449951171875 -158.61199951171875,175.2449951171875 -158.96200561523438,171.80799865722656 " stroke="#FFFFFF" stroke-miterlimit="10"/>
        <g id="svg_145">
         <polygon fill="#407BFF" id="svg_146" points="-153.26699829101562,175.2449951171875 -154.1219940185547,175.2449951171875 -154.38699340820312,171.80799865722656 -153.53199768066406,171.80799865722656 "/>
        </g>
        <g id="svg_147">
         <polygon fill="#407BFF" id="svg_148" points="-146.46099853515625,175.2449951171875 -147.3159942626953,175.2449951171875 -147.41000366210938,171.80799865722656 -146.55499267578125,171.80799865722656 "/>
        </g>
        <g id="svg_149">
         <polygon fill="#407BFF" id="svg_150" points="-138.55099487304688,171.80799865722656 -138.7310028076172,175.2449951171875 -139.593994140625,175.2449951171875 -139.406005859375,171.80799865722656 "/>
        </g>
        <g id="svg_151">
         <polygon fill="#407BFF" id="svg_152" points="-130.71800231933594,171.80799865722656 -131.0260009765625,175.2449951171875 -131.88099670410156,175.2449951171875 -131.57400512695312,171.80799865722656 "/>
        </g>
        <g id="svg_153">
         <polygon fill="#407BFF" id="svg_154" points="-123.68099975585938,171.80799865722656 -124.06599426269531,175.2449951171875 -124.92100524902344,175.2449951171875 -124.53599548339844,171.80799865722656 "/>
        </g>
       </g>
      </g>
      <path d="m-229.73,230.86l4.79,-7.42c0,0 -4.1,-7.44 -5.47,-7.26c-1.36,0.18 -14.95,13.39 -16.13,16.98c-0.85,2.58 0.32,3.54 1.81,3.5c1.49,-0.04 8.87,-6.47 15,-5.8z" fill="#263238" id="svg_155"/>
     </g>
     <g id="svg_156">
      <path d="m-144.84,68.81l0,0.01c-9.51,2.32 -10.23,12.61 -10.17,16.39c0,0.21 0,0.4 0.01,0.57c0.02,0.52 0.05,0.81 0.05,0.81l-2.84,0.75c-0.08,-0.55 -0.14,-1.08 -0.19,-1.6c-1.03,-10.69 3.91,-15.24 7.19,-17.06c1.99,-0.18 4,-0.15 5.95,0.13z" fill="#407BFF" id="svg_157"/>
      <g id="svg_158">
       <path d="m-152.65,97.69c-0.33,0.12 -0.66,0.2 -1,0.23c-0.02,0.01 -0.03,0.01 -0.03,0.01c-2.38,0.23 -4.92,-1.65 -6.02,-4.62c-1.15,-3.07 -0.37,-6.26 1.72,-7.57c0.23,-0.15 0.47,-0.27 0.73,-0.37c0.47,-0.17 0.96,-0.25 1.45,-0.25c0.26,0 0.53,0.03 0.79,0.09c1.99,0.37 3.9,2.08 4.82,4.55c1.27,3.4 0.17,6.96 -2.46,7.93z" fill="#407BFF" id="svg_159"/>
       <path d="m-155.01,85.21c1.99,0.37 3.9,2.08 4.82,4.55c1.27,3.4 0.17,6.96 -2.46,7.93c-0.33,0.12 -0.66,0.2 -1,0.23c0.37,-0.17 3.49,-1.72 2.84,-6.8c-0.22,-1.68 -1.41,-4.16 -4.19,-5.34c-0.25,-0.11 -0.53,-0.21 -0.81,-0.3c0,0 0,-0.13 0.01,-0.36c0.08,-2.38 0.98,-15.55 10.96,-16.31l0,0.01c-9.51,2.32 -10.23,12.61 -10.17,16.39z" fill="#FFFFFF" id="svg_160"/>
      </g>
     </g>
    </g>
    <path d="m-144.83,252.06c-0.71,-12.09 -1.12,-23.72 -1.15,-24.65c0.01,-0.02 0.01,-0.04 0,-0.06c0.38,-5.71 1.14,-17.11 1.14,-17.11s2.65,27.33 0.01,41.82z" id="svg_161" opacity="0.2"/>
   </g>
  </g>
  <g id="Mobile" transform="matrix(1.12836 0.299485 -0.328303 1.01789 2.4797 -117.951)">
   <g id="svg_162">
    <path d="m343.63,136.64l106.81,0.03c8.13,0 14.57,6.89 14.02,15l-16.96,252.64c-0.5,7.38 -6.63,13.11 -14.03,13.11l-105.91,-0.03c-8.11,0 -14.54,-6.86 -14.02,-14.95l16.05,-252.64c0.47,-7.4 6.62,-13.16 14.04,-13.16z" fill="#407BFF" id="svg_163"/>
    <path d="m343.63,136.64l106.81,0.03c8.13,0 14.57,6.89 14.02,15l-16.96,252.64c-0.5,7.38 -6.63,13.11 -14.03,13.11l-105.91,-0.03c-8.11,0 -14.54,-6.86 -14.02,-14.95l16.05,-252.64c0.47,-7.4 6.62,-13.16 14.04,-13.16z" id="svg_164" opacity="0.2"/>
    <path d="m340.99,136.64l103.8,0.03c9,0 16.11,7.61 15.51,16.59l-16.76,249.65c-0.55,8.17 -7.33,14.51 -15.52,14.51l-102.91,-0.03c-8.97,-0.01 -16.08,-7.58 -15.51,-16.54l15.87,-249.65c0.52,-8.19 7.32,-14.56 15.52,-14.56z" fill="#407BFF" id="svg_165"/>
    <path d="m414.23,152.47l-30.13,-0.01c-1.55,0 -2.81,-1.26 -2.81,-2.8l0,0c0,-1.55 1.26,-2.81 2.81,-2.81l30.14,0.01c1.54,0 2.8,1.27 2.8,2.81l0,0c0,1.54 -1.26,2.8 -2.81,2.8z" id="svg_166" opacity="0.2"/>
    <path d="m368.75,149.65c0,2.18 -1.76,3.94 -3.93,3.94c-2.17,-0.01 -3.93,-1.77 -3.93,-3.94c0,-2.17 1.76,-3.93 3.93,-3.93c2.17,0 3.93,1.76 3.93,3.93z" id="svg_167" opacity="0.2"/>
    <ellipse cx="361.12" cy="427.88" id="svg_168" opacity="0.2" rx="9.06" ry="9.06" transform="matrix(0.7071 -0.7071 0.7071 0.7071 -185.933 352.623)"/>
    <polygon fill="#FFFFFF" id="svg_169" points="323.8320093154907,385.05077362060547 431.3069543838501,385.0837631225586 448.35596561431885,161.62377166748047 337.5929651260376,161.5887680053711 "/>
    <polygon id="svg_170" opacity="0.2" points="323.8320093154907,385.05077362060547 320.8749780654907,385.05077362060547 334.3799829483032,161.5887680053711 337.5929651260376,161.5887680053711 "/>
    <g id="svg_171">
     <path d="m419.07,286.54l-68.22,0c-4.02,0 -7.31,-3.29 -7.31,-7.31l0,0c0,-4.02 3.29,-7.31 7.31,-7.31l68.22,0c4.02,0 7.31,3.29 7.31,7.31l0,0c0,4.02 -3.29,7.31 -7.31,7.31z" fill="#407BFF" id="svg_172"/>
     <path d="m426.54,186.99l-68.22,0c-4.02,0 -7.31,-3.28 -7.31,-7.3l0,0c0,-4.02 3.29,-7.31 7.31,-7.31l68.22,0c4.02,0 7.31,3.29 7.31,7.31l0,0c0,4.02 -3.29,7.3 -7.31,7.3z" fill="#407BFF" id="svg_173"/>
     <g id="svg_174">
      <path d="m420.09,371.51l-82.09,0c-0.3,0 -0.54,-0.24 -0.54,-0.54l0,-1.53c0,-0.3 0.24,-0.54 0.54,-0.54l82.09,0c0.3,0 0.54,0.24 0.54,0.54l0,1.53c0,0.3 -0.24,0.54 -0.54,0.54z" fill="#263238" id="svg_175"/>
      <g id="svg_176">
       <circle cx="341.27" cy="370.21" fill="#407BFF" id="svg_177" r="3.82"/>
       <path d="m343.41,370.21c0,1.17 -0.96,2.13 -2.14,2.13c-1.17,0 -2.13,-0.96 -2.13,-2.13c0,-1.18 0.96,-2.14 2.13,-2.14c1.18,0 2.14,0.96 2.14,2.14z" fill="#FFFFFF" id="svg_178"/>
      </g>
     </g>
     <g id="svg_179">
      <path d="m354.69,198.27l69.25,0.21c3.77,0.01 6.74,3.18 6.5,6.94l-3,47.77c-0.22,3.44 -3.07,6.12 -6.52,6.12l-69.2,0c-3.76,0 -6.75,-3.17 -6.52,-6.93l2.96,-47.97c0.21,-3.46 3.08,-6.14 6.53,-6.14z" fill="#407BFF" id="svg_180"/>
      <path d="m354.69,198.27l69.25,0.21c3.77,0.01 6.74,3.18 6.5,6.94l-3,47.77c-0.22,3.44 -3.07,6.12 -6.52,6.12l-69.2,0c-3.76,0 -6.75,-3.17 -6.52,-6.93l2.96,-47.97c0.21,-3.46 3.08,-6.14 6.53,-6.14z" id="svg_181" opacity="0.2"/>
     </g>
     <path d="m388.95,205.82c-11.52,-0.66 -21.43,8.81 -22.14,21.16c-0.71,12.35 8.05,22.89 19.57,23.56c11.52,0.66 21.43,-8.81 22.14,-21.16c0.71,-12.35 -8.05,-22.9 -19.57,-23.56zm-1.58,27.45c-2.63,-0.15 -4.62,-2.55 -4.46,-5.37c0.16,-2.81 2.42,-4.97 5.05,-4.82c2.63,0.15 4.62,2.55 4.46,5.37c-0.16,2.82 -2.42,4.98 -5.05,4.82z" fill="#FFFFFF" id="svg_182"/>
     <g id="svg_183">
      <g id="svg_184">
       <path d="m424.01,317.62l-56.75,0c-0.74,0 -1.34,-0.6 -1.34,-1.35c0,-0.74 0.6,-1.34 1.34,-1.34l56.75,0c0.74,0 1.34,0.6 1.34,1.34c0,0.75 -0.6,1.35 -1.34,1.35z" fill="#407BFF" id="svg_185"/>
       <path d="m424.01,317.62l-56.75,0c-0.74,0 -1.34,-0.6 -1.34,-1.35c0,-0.74 0.6,-1.34 1.34,-1.34l56.75,0c0.74,0 1.34,0.6 1.34,1.34c0,0.75 -0.6,1.35 -1.34,1.35z" fill="#FFFFFF" id="svg_186" opacity="0.5"/>
      </g>
      <g id="svg_187">
       <path d="m422.23,345.24l-57.02,0c-0.74,0 -1.35,-0.6 -1.35,-1.34c0,-0.75 0.61,-1.35 1.35,-1.35l57.02,0c0.75,0 1.35,0.6 1.35,1.35c0,0.74 -0.6,1.34 -1.35,1.34z" fill="#407BFF" id="svg_188"/>
       <path d="m422.23,345.24l-57.02,0c-0.74,0 -1.35,-0.6 -1.35,-1.34c0,-0.75 0.61,-1.35 1.35,-1.35l57.02,0c0.75,0 1.35,0.6 1.35,1.35c0,0.74 -0.6,1.34 -1.35,1.34z" fill="#FFFFFF" id="svg_189" opacity="0.5"/>
      </g>
      <g id="svg_190">
       <ellipse cx="347.71" cy="329.43" fill="#407BFF" id="svg_191" rx="8.38" ry="8.38" transform="matrix(0.9428 -0.3334 0.3334 0.9428 -87.9851 121.604)"/>
       <ellipse cx="319.13" cy="382.57" fill="#407BFF" id="svg_192" rx="8.38" ry="8.38" transform="matrix(0.255 -0.9669 0.9669 0.255 -103.79 554.927)"/>
       <polygon fill="#FFFFFF" id="svg_193" points="346.15198612213135,339.4387741088867 346.15198612213135,347.70577239990234 351.17994022369385,343.57176971435547 "/>
       <polygon fill="#FFFFFF" id="svg_194" points="348.12696170806885,312.14476776123047 348.12696170806885,320.41075897216797 353.1559534072876,316.2777633666992 "/>
      </g>
     </g>
    </g>
   </g>
  </g>
 </g>
</svg>