<?xml version="1.0"?>
<svg width="500" height="500" xmlns="http://www.w3.org/2000/svg" xmlns:svg="http://www.w3.org/2000/svg" enable-background="new 0 0 500 500" version="1.1" xml:space="preserve">
 <g class="layer">
  <title>Layer 1</title>
  <g id="Background_Complete" transform="matrix(1 0 0 1 0 0)">
   <g id="svg_11">
    <path d="m74.26,84.61l-21.89,-7.78c0,0 3.91,-5.37 5.93,-5.93c5.9,-1.63 30.79,-1.12 30.79,-1.12l-14.83,14.83z" fill="#E0E0E0" id="svg_12"/>
    <path d="m92.15,102.5l7.78,21.88c0,0 5.36,-3.91 5.92,-5.93c1.64,-5.89 1.13,-30.78 1.13,-30.78l-14.83,14.83z" fill="#E0E0E0" id="svg_13"/>
    <path d="m90.66,106.15l-19.94,-19.94c0,0 24.71,-35.05 39.97,-44.06c7.57,-4.46 33.75,-9.72 33.75,-9.72s-5.26,26.19 -9.72,33.75c-9.01,15.26 -44.06,39.97 -44.06,39.97z" fill="#F0F0F0" id="svg_14"/>
    <path d="m76.21,100.66c0,0 6.9,-17.39 12.02,-20.32c1.81,-1.03 8.3,0 8.3,0s1.03,6.49 0,8.3c-2.92,5.12 -20.32,12.02 -20.32,12.02z" fill="#E0E0E0" id="svg_15"/>
    <path d="m127.53,67.36c-4.98,4.98 -13.05,4.98 -18.03,0c-4.97,-4.97 -4.97,-13.04 0,-18.02c4.98,-4.97 13.05,-4.97 18.03,0c4.97,4.98 4.97,13.05 0,18.02z" fill="#E0E0E0" id="svg_16"/>
    <circle cx="118.52" cy="58.36" fill="#F5F5F5" id="svg_17" r="8.02"/>
   </g>
   <path d="m420.73,89.09c-3.75,-8.3 -13.79,-9.12 -24.68,-7.76c-2.69,-4.03 -7.27,-6.68 -12.48,-6.68c-7.16,0 -13.14,5.02 -14.63,11.73c-4.69,0.62 -8.11,0.43 -9.21,-1.59c-4.73,-8.64 36.1,-31.95 36.1,-31.95s-54.24,24.2 -47.67,38.56c2.58,5.64 11.24,5.23 21.34,3.4c2.1,5.74 7.6,9.85 14.07,9.85c8.29,0 15,-6.72 15,-15c0,-0.01 0,-0.01 0,-0.02c5.06,-0.19 9.09,0.63 11.15,3.42c8.97,12.11 -49.98,37.67 -49.98,37.67s70.21,-21.24 60.99,-41.63z" fill="#F0F0F0" id="svg_18"/>
   <g id="svg_19">
    <path d="m164.62,339.91c7.35,12.41 3.25,28.43 -9.15,35.79c-12.41,7.35 -28.43,3.25 -35.79,-9.16c-7.35,-12.4 -3.25,-28.42 9.16,-35.78c12.4,-7.35 28.42,-3.25 35.78,9.15z" fill="#F0F0F0" id="svg_20"/>
    <path d="m161.45,335.63c0.81,0.89 1.57,1.86 2.27,2.88c10.43,-5.04 17.74,-7.5 18.67,-5.92c1.52,2.57 -14.62,14.96 -36.07,27.67c-21.45,12.71 -40.07,20.93 -41.6,18.35c-0.93,-1.57 4.74,-6.8 14.17,-13.53c-0.57,-1.11 -1.05,-2.23 -1.44,-3.37c-22.64,14.85 -37.57,27.35 -35.7,30.51c2.43,4.1 32.07,-8.98 66.2,-29.21s59.83,-39.94 57.41,-44.04c-1.88,-3.16 -20.01,3.93 -43.91,16.66z" fill="#E0E0E0" id="svg_21"/>
   </g>
  </g>
  <g display="none" id="Background_Simple">
   <g display="inline" id="svg_22">
    <path d="m118.78,339.11c-44.07,-25.86 -76.82,-59.89 -59.45,-123.33c10.38,-37.91 43.38,-56.64 107.89,-56.64c75.06,0 117.53,84.01 158.23,69.5c66.26,-23.63 44.64,-128.93 79.15,-119.36c51.98,14.43 40.11,158.47 -32.75,213.31c-106.8,80.38 -225.31,32.81 -253.07,16.52z" fill="#407BFF" id="svg_23"/>
    <path d="m118.78,339.11c-44.07,-25.86 -76.82,-59.89 -59.45,-123.33c10.38,-37.91 43.38,-56.64 107.89,-56.64c75.06,0 117.53,84.01 158.23,69.5c66.26,-23.63 44.64,-128.93 79.15,-119.36c51.98,14.43 40.11,158.47 -32.75,213.31c-106.8,80.38 -225.31,32.81 -253.07,16.52z" fill="#FFFFFF" id="svg_24" opacity="0.9"/>
   </g>
  </g>
  <g id="Shadow">
   <ellipse cx="251.95" cy="421.39" fill="#F5F5F5" id="_x3C_Path_x3E__1_" rx="142.42" ry="20.32"/>
  </g>
  <g id="Stars">
   <path d="m203.17,64.47c0,0 0.98,2.26 1.55,2.83s2.83,1.54 2.83,1.54s-2.26,0.98 -2.83,1.55c-0.57,0.57 -1.55,2.83 -1.55,2.83s-0.98,-2.26 -1.55,-2.83c-0.57,-0.57 -2.83,-1.55 -2.83,-1.55s2.26,-0.97 2.83,-1.54c0.57,-0.58 1.55,-2.83 1.55,-2.83zm199.46,154.47c-0.57,0.56 -2.83,1.54 -2.83,1.54s2.26,0.98 2.83,1.55c0.57,0.57 1.55,2.83 1.55,2.83s0.98,-2.26 1.55,-2.83c0.57,-0.57 2.83,-1.55 2.83,-1.55s-2.26,-0.98 -2.83,-1.54c-0.57,-0.57 -1.55,-2.84 -1.55,-2.84s-0.98,2.27 -1.55,2.84zm23.46,-54.2c-0.78,0.78 -3.85,2.11 -3.85,2.11s3.07,1.33 3.85,2.1s2.11,3.85 2.11,3.85s1.33,-3.07 2.1,-3.85c0.78,-0.77 3.85,-2.1 3.85,-2.1s-3.07,-1.33 -3.85,-2.11c-0.77,-0.77 -2.1,-3.84 -2.1,-3.84s-1.33,3.07 -2.11,3.84zm-97.65,-79.88c-0.57,0.57 -2.83,1.55 -2.83,1.55s2.26,0.97 2.83,1.54c0.57,0.57 1.55,2.83 1.55,2.83s0.97,-2.26 1.54,-2.83c0.57,-0.57 2.84,-1.54 2.84,-1.54s-2.26,-0.98 -2.84,-1.55c-0.57,-0.57 -1.54,-2.83 -1.54,-2.83s-0.98,2.26 -1.55,2.83zm24.5,265.66c-0.57,0.57 -2.83,1.54 -2.83,1.54s2.26,0.98 2.83,1.55c0.57,0.57 1.55,2.83 1.55,2.83s0.98,-2.26 1.55,-2.83c0.57,-0.57 2.83,-1.55 2.83,-1.55s-2.26,-0.97 -2.83,-1.54c-0.57,-0.57 -1.55,-2.84 -1.55,-2.84s-0.98,2.26 -1.55,2.84zm82.58,-283.22c-0.57,0.57 -2.83,1.54 -2.83,1.54s2.26,0.98 2.83,1.55c0.57,0.57 1.55,2.83 1.55,2.83s0.98,-2.26 1.55,-2.83c0.57,-0.57 2.83,-1.55 2.83,-1.55s-2.26,-0.97 -2.83,-1.54c-0.57,-0.57 -1.55,-2.84 -1.55,-2.84s-0.98,2.26 -1.55,2.84zm-364.88,145.86c-0.65,0.64 -3.2,1.75 -3.2,1.75s2.55,1.1 3.2,1.75c0.64,0.64 1.75,3.2 1.75,3.2s1.1,-2.56 1.75,-3.2c0.64,-0.65 3.2,-1.75 3.2,-1.75s-2.56,-1.11 -3.2,-1.75c-0.65,-0.65 -1.75,-3.2 -1.75,-3.2s-1.11,2.55 -1.75,3.2zm79.07,95.1c-0.64,0.65 -3.2,1.75 -3.2,1.75s2.56,1.11 3.2,1.75s1.75,3.2 1.75,3.2s1.1,-2.55 1.75,-3.2c0.64,-0.64 3.2,-1.75 3.2,-1.75s-2.56,-1.1 -3.2,-1.75c-0.65,-0.64 -1.75,-3.2 -1.75,-3.2s-1.11,2.56 -1.75,3.2zm-49.21,-129.88c-0.47,0.47 -2.32,1.27 -2.32,1.27s1.85,0.8 2.32,1.27c0.46,0.47 1.26,2.32 1.26,2.32s0.8,-1.85 1.27,-2.32c0.47,-0.47 2.32,-1.27 2.32,-1.27s-1.85,-0.8 -2.32,-1.27c-0.47,-0.47 -1.27,-2.32 -1.27,-2.32s-0.8,1.85 -1.26,2.32zm38.98,44.11c-0.46,0.47 -2.32,1.27 -2.32,1.27s1.86,0.8 2.32,1.26c0.47,0.47 1.27,2.32 1.27,2.32s0.8,-1.85 1.27,-2.32c0.47,-0.46 2.32,-1.26 2.32,-1.26s-1.85,-0.8 -2.32,-1.27c-0.47,-0.47 -1.27,-2.32 -1.27,-2.32s-0.8,1.85 -1.27,2.32zm300.7,15c-0.47,0.47 -2.32,1.27 -2.32,1.27s1.85,0.8 2.32,1.27c0.46,0.47 1.27,2.32 1.27,2.32s0.8,-1.85 1.26,-2.32c0.47,-0.47 2.32,-1.27 2.32,-1.27s-1.85,-0.8 -2.32,-1.27c-0.46,-0.46 -1.26,-2.31 -1.26,-2.31s-0.8,1.85 -1.27,2.31zm-400.85,45.58c-0.47,0.46 -2.32,1.27 -2.32,1.27s1.85,0.8 2.32,1.26c0.46,0.47 1.27,2.32 1.27,2.32s0.8,-1.85 1.26,-2.32c0.47,-0.46 2.32,-1.26 2.32,-1.26s-1.85,-0.81 -2.32,-1.27c-0.46,-0.47 -1.26,-2.32 -1.26,-2.32s-0.8,1.85 -1.27,2.32zm416.17,-19.9c-0.47,0.46 -2.32,1.26 -2.32,1.26s1.85,0.81 2.32,1.27c0.47,0.47 1.27,2.32 1.27,2.32s0.8,-1.85 1.27,-2.32c0.46,-0.46 2.31,-1.27 2.31,-1.27s-1.85,-0.8 -2.31,-1.26c-0.47,-0.47 -1.27,-2.32 -1.27,-2.32s-0.8,1.85 -1.27,2.32zm-190.53,-150.41c-0.46,0.46 -2.31,1.26 -2.31,1.26s1.85,0.81 2.31,1.27s1.27,2.32 1.27,2.32s0.8,-1.85 1.27,-2.32c0.47,-0.46 2.32,-1.27 2.32,-1.27s-1.85,-0.8 -2.32,-1.26c-0.47,-0.47 -1.27,-2.32 -1.27,-2.32s-0.8,1.85 -1.27,2.32zm76.91,-52.11c-0.47,0.47 -2.32,1.27 -2.32,1.27s1.85,0.8 2.32,1.27c0.47,0.46 1.27,2.31 1.27,2.31s0.8,-1.85 1.27,-2.31c0.46,-0.47 2.31,-1.27 2.31,-1.27s-1.85,-0.8 -2.31,-1.27c-0.47,-0.47 -1.27,-2.32 -1.27,-2.32s-0.8,1.85 -1.27,2.32zm-116.21,27.66c-0.46,0.47 -2.31,1.27 -2.31,1.27s1.85,0.8 2.31,1.27c0.47,0.47 1.27,2.32 1.27,2.32s0.8,-1.85 1.27,-2.32c0.47,-0.47 2.32,-1.27 2.32,-1.27s-1.85,-0.8 -2.32,-1.27c-0.47,-0.46 -1.27,-2.31 -1.27,-2.31s-0.8,1.84 -1.27,2.31zm-97.32,263.32c-0.47,0.46 -2.32,1.26 -2.32,1.26s1.85,0.8 2.32,1.27s1.26,2.32 1.26,2.32s0.8,-1.85 1.27,-2.32c0.47,-0.47 2.32,-1.27 2.32,-1.27s-1.85,-0.8 -2.32,-1.26c-0.47,-0.47 -1.27,-2.32 -1.27,-2.32s-0.8,1.85 -1.26,2.32zm52.85,-17.7c-0.46,0.47 -2.31,1.27 -2.31,1.27s1.85,0.8 2.31,1.27s1.27,2.31 1.27,2.31s0.8,-1.85 1.27,-2.31c0.47,-0.47 2.32,-1.27 2.32,-1.27s-1.85,-0.8 -2.32,-1.27c-0.47,-0.47 -1.27,-2.32 -1.27,-2.32s-0.8,1.85 -1.27,2.32zm201.43,-12.22c-0.47,0.47 -2.32,1.27 -2.32,1.27s1.85,0.8 2.32,1.26c0.47,0.47 1.27,2.32 1.27,2.32s0.8,-1.85 1.27,-2.32c0.46,-0.46 2.31,-1.26 2.31,-1.26s-1.85,-0.8 -2.31,-1.27c-0.47,-0.47 -1.27,-2.32 -1.27,-2.32s-0.8,1.85 -1.27,2.32zm-333.72,-164.69c-0.57,0.57 -2.83,1.55 -2.83,1.55s2.26,0.98 2.83,1.55c0.57,0.57 1.55,2.83 1.55,2.83s0.98,-2.26 1.55,-2.83c0.57,-0.57 2.83,-1.55 2.83,-1.55s-2.26,-0.98 -2.83,-1.55c-0.57,-0.57 -1.55,-2.83 -1.55,-2.83s-0.98,2.26 -1.55,2.83z" fill="#407BFF" id="svg_25"/>
   <g id="svg_26">
    <path d="m203.17,64.47c0,0 0.98,2.26 1.55,2.83s2.83,1.54 2.83,1.54s-2.26,0.98 -2.83,1.55c-0.57,0.57 -1.55,2.83 -1.55,2.83s-0.98,-2.26 -1.55,-2.83c-0.57,-0.57 -2.83,-1.55 -2.83,-1.55s2.26,-0.97 2.83,-1.54c0.57,-0.58 1.55,-2.83 1.55,-2.83z" fill="#FFFFFF" id="svg_27" opacity="0.8"/>
    <path d="m402.63,218.94c-0.57,0.56 -2.83,1.54 -2.83,1.54s2.26,0.98 2.83,1.55c0.57,0.57 1.55,2.83 1.55,2.83s0.98,-2.26 1.55,-2.83c0.57,-0.57 2.83,-1.55 2.83,-1.55s-2.26,-0.98 -2.83,-1.54c-0.57,-0.57 -1.55,-2.84 -1.55,-2.84s-0.98,2.27 -1.55,2.84z" fill="#FFFFFF" id="svg_28" opacity="0.6"/>
    <path d="m426.09,164.74c-0.78,0.78 -3.85,2.11 -3.85,2.11s3.07,1.33 3.85,2.1s2.11,3.85 2.11,3.85s1.33,-3.07 2.1,-3.85c0.78,-0.77 3.85,-2.1 3.85,-2.1s-3.07,-1.33 -3.85,-2.11c-0.77,-0.77 -2.1,-3.84 -2.1,-3.84s-1.33,3.07 -2.11,3.84z" fill="#FFFFFF" id="svg_29" opacity="0.4"/>
    <path d="m328.44,84.86c-0.57,0.57 -2.83,1.55 -2.83,1.55s2.26,0.97 2.83,1.54c0.57,0.57 1.55,2.83 1.55,2.83s0.97,-2.26 1.54,-2.83c0.57,-0.57 2.84,-1.54 2.84,-1.54s-2.26,-0.98 -2.84,-1.55c-0.57,-0.57 -1.54,-2.83 -1.54,-2.83s-0.98,2.26 -1.55,2.83z" fill="#FFFFFF" id="svg_30" opacity="0.6"/>
    <path d="m352.94,350.52c-0.57,0.57 -2.83,1.54 -2.83,1.54s2.26,0.98 2.83,1.55c0.57,0.57 1.55,2.83 1.55,2.83s0.98,-2.26 1.55,-2.83c0.57,-0.57 2.83,-1.55 2.83,-1.55s-2.26,-0.97 -2.83,-1.54c-0.57,-0.57 -1.55,-2.83 -1.55,-2.83s-0.98,2.25 -1.55,2.83z" fill="#FFFFFF" id="svg_31" opacity="0.4"/>
    <path d="m435.52,67.3c-0.57,0.57 -2.83,1.54 -2.83,1.54s2.26,0.98 2.83,1.55c0.57,0.57 1.55,2.83 1.55,2.83s0.98,-2.26 1.55,-2.83c0.57,-0.57 2.83,-1.55 2.83,-1.55s-2.26,-0.97 -2.83,-1.54c-0.57,-0.57 -1.55,-2.83 -1.55,-2.83s-0.98,2.25 -1.55,2.83z" fill="#FFFFFF" id="svg_32" opacity="0.8"/>
    <path d="m70.64,213.16c-0.64,0.64 -3.2,1.75 -3.2,1.75s2.56,1.1 3.2,1.75c0.64,0.64 1.75,3.2 1.75,3.2s1.1,-2.56 1.75,-3.2c0.64,-0.65 3.2,-1.75 3.2,-1.75s-2.56,-1.11 -3.2,-1.75c-0.65,-0.65 -1.75,-3.2 -1.75,-3.2s-1.11,2.55 -1.75,3.2z" fill="#FFFFFF" id="svg_33" opacity="0.4"/>
    <path d="m149.71,308.26c-0.64,0.65 -3.2,1.75 -3.2,1.75s2.56,1.11 3.2,1.75s1.75,3.2 1.75,3.2s1.1,-2.55 1.75,-3.2c0.64,-0.64 3.2,-1.75 3.2,-1.75s-2.56,-1.1 -3.2,-1.75c-0.65,-0.64 -1.75,-3.2 -1.75,-3.2s-1.11,2.56 -1.75,3.2z" fill="#FFFFFF" id="svg_34" opacity="0.4"/>
    <path d="m100.5,178.38c-0.47,0.47 -2.32,1.27 -2.32,1.27s1.85,0.8 2.32,1.27c0.46,0.47 1.26,2.32 1.26,2.32s0.8,-1.85 1.27,-2.32c0.47,-0.47 2.32,-1.27 2.32,-1.27s-1.85,-0.8 -2.32,-1.27c-0.47,-0.47 -1.27,-2.32 -1.27,-2.32s-0.8,1.85 -1.26,2.32z" fill="#FFFFFF" id="svg_35" opacity="0.6"/>
    <path d="m139.48,222.49c-0.46,0.47 -2.32,1.27 -2.32,1.27s1.86,0.8 2.32,1.26c0.47,0.47 1.27,2.32 1.27,2.32s0.8,-1.85 1.27,-2.32c0.47,-0.46 2.32,-1.26 2.32,-1.26s-1.85,-0.8 -2.32,-1.27c-0.47,-0.47 -1.27,-2.32 -1.27,-2.32s-0.8,1.85 -1.27,2.32z" fill="#FFFFFF" id="svg_36" opacity="0.6"/>
    <path d="m440.18,237.49c-0.47,0.47 -2.32,1.27 -2.32,1.27s1.85,0.8 2.32,1.27c0.46,0.47 1.27,2.32 1.27,2.32s0.8,-1.85 1.26,-2.32c0.47,-0.47 2.32,-1.27 2.32,-1.27s-1.85,-0.8 -2.32,-1.27c-0.46,-0.46 -1.26,-2.31 -1.26,-2.31s-0.8,1.85 -1.27,2.31z" fill="#FFFFFF" id="svg_37" opacity="0.8"/>
    <path d="m39.33,283.07c-0.47,0.46 -2.32,1.27 -2.32,1.27s1.85,0.8 2.32,1.26c0.47,0.47 1.27,2.32 1.27,2.32s0.8,-1.85 1.26,-2.32c0.47,-0.46 2.32,-1.26 2.32,-1.26s-1.85,-0.81 -2.32,-1.27c-0.46,-0.47 -1.26,-2.32 -1.26,-2.32s-0.8,1.85 -1.27,2.32z" fill="#FFFFFF" id="svg_38" opacity="0.8"/>
    <path d="m455.5,263.17c-0.47,0.46 -2.32,1.26 -2.32,1.26s1.85,0.81 2.32,1.27c0.47,0.47 1.27,2.32 1.27,2.32s0.8,-1.85 1.27,-2.32c0.46,-0.46 2.31,-1.27 2.31,-1.27s-1.85,-0.8 -2.31,-1.26c-0.47,-0.47 -1.27,-2.32 -1.27,-2.32s-0.8,1.85 -1.27,2.32z" fill="#FFFFFF" id="svg_39" opacity="0.6"/>
    <path d="m264.97,112.76c-0.46,0.46 -2.31,1.26 -2.31,1.26s1.85,0.81 2.31,1.27s1.27,2.32 1.27,2.32s0.8,-1.85 1.27,-2.32c0.47,-0.46 2.32,-1.27 2.32,-1.27s-1.85,-0.8 -2.32,-1.26c-0.47,-0.47 -1.27,-2.32 -1.27,-2.32s-0.8,1.85 -1.27,2.32z" fill="#FFFFFF" id="svg_40" opacity="0.4"/>
    <path d="m341.88,60.65c-0.47,0.47 -2.32,1.27 -2.32,1.27s1.85,0.8 2.32,1.27c0.47,0.46 1.27,2.31 1.27,2.31s0.8,-1.85 1.27,-2.31c0.46,-0.47 2.31,-1.27 2.31,-1.27s-1.85,-0.8 -2.31,-1.27c-0.47,-0.47 -1.27,-2.32 -1.27,-2.32s-0.8,1.85 -1.27,2.32z" fill="#FFFFFF" id="svg_41" opacity="0.4"/>
    <path d="m225.67,88.31c-0.46,0.47 -2.31,1.27 -2.31,1.27s1.85,0.8 2.31,1.27c0.47,0.47 1.27,2.32 1.27,2.32s0.8,-1.85 1.27,-2.32c0.47,-0.47 2.32,-1.27 2.32,-1.27s-1.85,-0.8 -2.32,-1.27c-0.47,-0.46 -1.27,-2.31 -1.27,-2.31s-0.8,1.84 -1.27,2.31z" fill="#FFFFFF" id="svg_42" opacity="0.6"/>
    <path d="m128.35,351.63c-0.47,0.46 -2.32,1.26 -2.32,1.26s1.85,0.8 2.32,1.27s1.26,2.32 1.26,2.32s0.8,-1.85 1.27,-2.32c0.47,-0.47 2.32,-1.27 2.32,-1.27s-1.85,-0.8 -2.32,-1.26c-0.47,-0.47 -1.27,-2.32 -1.27,-2.32s-0.8,1.85 -1.26,2.32z" fill="#FFFFFF" id="svg_43" opacity="0.8"/>
    <path d="m181.2,333.93c-0.46,0.47 -2.31,1.27 -2.31,1.27s1.85,0.8 2.31,1.27s1.27,2.31 1.27,2.31s0.8,-1.85 1.27,-2.31c0.47,-0.47 2.32,-1.27 2.32,-1.27s-1.85,-0.8 -2.32,-1.27c-0.47,-0.47 -1.27,-2.32 -1.27,-2.32s-0.8,1.85 -1.27,2.32z" fill="#FFFFFF" id="svg_44" opacity="0.6"/>
    <path d="m382.63,321.71c-0.47,0.47 -2.32,1.27 -2.32,1.27s1.85,0.8 2.32,1.26c0.47,0.47 1.27,2.32 1.27,2.32s0.8,-1.85 1.27,-2.32c0.46,-0.46 2.31,-1.26 2.31,-1.26s-1.85,-0.8 -2.31,-1.27c-0.47,-0.47 -1.27,-2.32 -1.27,-2.32s-0.8,1.85 -1.27,2.32z" fill="#FFFFFF" id="svg_45" opacity="0.6"/>
    <path d="m48.91,157.02c-0.57,0.57 -2.83,1.55 -2.83,1.55s2.26,0.98 2.83,1.55c0.57,0.57 1.55,2.83 1.55,2.83s0.98,-2.26 1.55,-2.83c0.57,-0.57 2.83,-1.55 2.83,-1.55s-2.26,-0.98 -2.83,-1.55c-0.57,-0.57 -1.55,-2.83 -1.55,-2.83s-0.98,2.26 -1.55,2.83z" fill="#FFFFFF" id="svg_46" opacity="0.6"/>
   </g>
  </g>
  <g id="Character" transform="matrix(1 0 0 1 0 0)">
   <g id="svg_47">
    <g id="svg_48">
     <g id="svg_49">
      <g id="svg_50">
       <polygon fill="#407BFF" id="svg_51" points="311.71600341796875,346.822998046875 299.8450012207031,326.8380126953125 311.2179870605469,306.8699951171875 317.40301513671875,336.8389892578125 "/>
       <polygon fill="#407BFF" id="svg_52" points="301.2340087890625,301.1830139160156 289.8609924316406,321.1510009765625 266.614990234375,321.135009765625 272.302001953125,311.1510009765625 "/>
      </g>
      <g id="svg_53">
       <path d="m284.79,341.67c-2.76,-1.57 -5.16,-3.39 -7.1,-5.3c5.7,-5.55 11.19,-8.9 14.2,-7.18c3.01,1.71 2.94,8.15 1.07,15.88c-2.63,-0.7 -5.42,-1.83 -8.17,-3.4z" fill="#263238" id="svg_54"/>
       <path d="m306.01,255.57c-15.81,27.76 -27.07,69.39 -15.47,76c11.6,6.61 41.66,-24.32 57.47,-52.07c15.82,-27.77 -0.21,-48.46 -0.21,-48.46s-25.98,-3.23 -41.79,24.53z" fill="#263238" id="svg_55"/>
       <path d="m306.01,255.57c-15.81,27.76 -27.07,69.39 -15.47,76c11.6,6.61 41.66,-24.32 57.47,-52.07c15.82,-27.77 -0.21,-48.46 -0.21,-48.46s-25.98,-3.23 -41.79,24.53z" fill="#FFFFFF" id="svg_56" opacity="0.7"/>
       <path d="m332.7,257.55c-7.18,-4.09 -13.16,-9.02 -17.47,-14.05c15.03,-14.63 32.57,-12.46 32.57,-12.46s10.81,13.98 5.89,34.37c-6.53,-1.14 -13.82,-3.78 -20.99,-7.86z" fill="#407BFF" id="svg_57"/>
       <g id="svg_58" opacity="0.3">
        <path d="m339.38,267.15c1.32,-2.61 2.46,-5.22 3.43,-7.84l5.13,2.11c-1.02,2.75 -2.22,5.5 -3.61,8.23c-6.37,12.58 -15.04,26.13 -24.4,38.16l-4.38,-3.41c9.15,-11.76 17.62,-24.99 23.83,-37.25z" fill="#FFFFFF" id="svg_59"/>
        <path d="m344.63,253.63c0.72,-2.67 1.26,-5.33 1.61,-7.97l5.18,2.94c-0.44,2.62 -1.05,5.24 -1.82,7.86l-4.97,-2.83z" fill="#FFFFFF" id="svg_60"/>
       </g>
       <g id="svg_61">
        <path d="m292.67,346.22c-5.95,-1.71 -11.32,-4.76 -15.82,-9.01c-1.12,-1.05 0.57,-2.73 1.68,-1.68c4.2,3.96 9.18,6.79 14.73,8.39c1.47,0.42 0.88,2.73 -0.59,2.3l0,0z" fill="#407BFF" id="svg_62"/>
       </g>
      </g>
     </g>
     <g id="svg_63">
      <path d="m249.98,223.81c0,0 -25.48,0.74 -34.19,-25.97c0,0 0.01,-18.92 -11.84,-13.39c-12.74,5.93 -13.05,20.39 -6.21,27.91c0,0 2.5,24.3 40.71,34.24c0,0 21.53,-11.11 11.53,-22.79z" fill="#407BFF" id="svg_64"/>
      <path d="m249.98,223.81c0,0 -25.48,0.74 -34.19,-25.97c0,0 0.01,-18.92 -11.84,-13.39c-12.74,5.93 -13.05,20.39 -6.21,27.91c0,0 2.5,24.3 40.71,34.24c0,0 21.53,-11.11 11.53,-22.79z" fill="#FFFFFF" id="svg_65" opacity="0.7"/>
      <path d="m203.95,184.45c11.85,-5.53 11.84,13.39 11.84,13.39s-3.97,11.75 -18.05,14.52c-6.84,-7.52 -6.53,-21.98 6.21,-27.91z" fill="#407BFF" id="svg_66"/>
      <path d="m203.95,184.45c11.85,-5.53 11.84,13.39 11.84,13.39s-3.97,11.75 -18.05,14.52c-6.84,-7.52 -6.53,-21.98 6.21,-27.91z" fill="#FFFFFF" id="svg_67" opacity="0.3"/>
      <path d="m206.94,229.56c4.15,-1.8 12.65,-6.62 17.09,-17.21c3.84,4.18 8.18,6.83 12.19,8.52c0.44,3.09 0.11,10.58 -9.02,22.03c-9.45,-3.87 -15.88,-8.68 -20.26,-13.34z" fill="#407BFF" id="svg_68"/>
      <path d="m206.94,229.56c4.15,-1.8 12.65,-6.62 17.09,-17.21c3.84,4.18 8.18,6.83 12.19,8.52c0.44,3.09 0.11,10.58 -9.02,22.03c-9.45,-3.87 -15.88,-8.68 -20.26,-13.34z" fill="#FFFFFF" id="svg_69" opacity="0.4"/>
      <path d="m248.27,223.76c-0.77,4.18 -2.44,9.3 -6.03,13.49c-4.36,5.1 -9.9,6.16 -13.74,6.17c3.01,1.17 6.32,2.24 9.95,3.18c0,0 21.53,-11.11 11.53,-22.79c0,0 -0.62,0.02 -1.71,-0.05z" id="svg_70" opacity="0.2"/>
      <g id="svg_71">
       <path d="m237.74,245.4c6.91,-3.6 18.07,-12.2 11.25,-20.6c-1.12,-1.39 0.84,-3.38 1.98,-1.98c8.21,10.12 -2.96,20.38 -11.82,24.99c-1.59,0.83 -3.01,-1.58 -1.41,-2.41l0,0z" fill="#407BFF" id="svg_72"/>
      </g>
      <g id="svg_73">
       <path d="m206.24,228.35c7.52,-3.32 13.29,-9.17 16.58,-16.71c0.72,-1.64 3.13,-0.22 2.42,1.41c-3.46,7.9 -9.7,14.23 -17.59,17.71c-1.63,0.72 -3.06,-1.69 -1.41,-2.41l0,0z" fill="#407BFF" id="svg_74"/>
      </g>
     </g>
     <g id="svg_75">
      <g id="svg_76">
       <path d="m233.21,256.33c0,0 -39.91,-25.44 -45.21,7.76c0,0 -18.22,-8.01 -24.43,2.26c-6.21,10.28 33.92,34.42 40.97,21.85c8.14,-14.51 31.8,-3.93 31.8,-3.93l-3.13,-27.94z" fill="#407BFF" id="svg_77"/>
       <path d="m233.21,256.33c0,0 -39.91,-25.44 -45.21,7.76c0,0 -18.22,-8.01 -24.43,2.26c-6.21,10.28 33.92,34.42 40.97,21.85c8.14,-14.51 31.8,-3.93 31.8,-3.93l-3.13,-27.94z" fill="#FFFFFF" id="svg_78" opacity="0.7"/>
      </g>
      <path d="m163.57,266.35c2.59,-4.27 7.25,-5.38 11.82,-5.22c0.8,1.29 1.74,3.86 0.81,8.25c0,0 14.08,5.34 21.74,15.51l7.6,1.76c-0.35,0.49 -0.69,1 -1,1.55c-7.05,12.57 -47.18,-11.57 -40.97,-21.85z" fill="#263238" id="svg_79"/>
      <path d="m165.3,270.55c-1,1.6 4.98,7.15 13.37,12.39c8.39,5.25 16,8.2 17.01,6.59c1,-1.6 -4.99,-7.16 -13.37,-12.4c-8.39,-5.24 -16.01,-8.19 -17.01,-6.58z" fill="#407BFF" id="svg_80"/>
      <g id="svg_81" opacity="0.3">
       <path d="m178.75,275.02c1.16,0.65 2.35,1.36 3.56,2.11c0.03,0.03 0.07,0.05 0.11,0.07l-8.65,2.46c-1.11,-0.81 -2.14,-1.6 -3.08,-2.36l8.06,-2.28z" fill="#FFFFFF" id="svg_82"/>
       <path d="m186.12,279.65c1.13,0.79 2.19,1.57 3.17,2.33l-8.32,2.36c-0.76,-0.45 -1.52,-0.91 -2.3,-1.4c-0.43,-0.27 -0.86,-0.54 -1.29,-0.81l8.74,-2.48z" fill="#FFFFFF" id="svg_83"/>
       <path d="m169.89,270.85c1.33,0.46 2.88,1.11 4.59,1.93l-6.74,1.91c-1.01,-1 -1.75,-1.89 -2.17,-2.61l4.32,-1.23z" fill="#FFFFFF" id="svg_84"/>
       <path d="m189.31,288.56c-1.31,-0.54 -2.76,-1.21 -4.31,-2.01l7.28,-2.07c1.02,0.93 1.85,1.79 2.44,2.54l-5.41,1.54z" fill="#FFFFFF" id="svg_85"/>
      </g>
     </g>
     <g id="svg_86">
      <path d="m315.33,235.5c0,0 -18.13,109.76 -66.42,65.77c-5.61,-5.11 -16.98,-16.9 -25.57,-25.92c-4.51,-4.75 -3.65,-12.38 1.76,-16.07c7.27,-4.95 17.32,-15.23 29.29,-36.44l60.94,12.66z" fill="#407BFF" id="svg_87"/>
      <path d="m315.33,235.5c0,0 -18.13,109.76 -66.42,65.77c-5.61,-5.11 -16.98,-16.9 -25.57,-25.92c-4.51,-4.75 -3.65,-12.38 1.76,-16.07c7.27,-4.95 17.32,-15.23 29.29,-36.44l60.94,12.66z" fill="#FFFFFF" id="svg_88" opacity="0.7"/>
      <path d="m240.12,282.14c-2.16,-2.81 -7.01,-8.55 -8.14,-4.8c-0.65,2.14 -1.31,3.86 -1.84,5.11c7.09,7.37 14.55,14.98 18.77,18.82c0.3,0.27 0.59,0.51 0.89,0.77l19.87,-2.79l5.84,-4.55c0,0 -15.18,-17.19 -35.39,-12.56z" id="svg_89" opacity="0.2"/>
     </g>
     <path d="m259.69,233.37c8.2,19.15 36.2,17.31 36.2,17.31s9.12,4.36 -3.22,33.8c-12.26,29.25 -40.74,19.2 -41.12,19.06c46.32,37.69 63.78,-68.04 63.78,-68.04l-50.23,-10.43c-4.76,1.72 -7.09,4.36 -5.41,8.3z" id="svg_90" opacity="0.3"/>
     <path d="m247.64,259.1c-3.7,-1.89 -4.81,-7.14 -2.47,-11.73c2.33,-4.58 7.23,-6.78 10.93,-4.89l2.18,1.11c3.7,1.88 4.81,7.13 2.47,11.72c-2.33,4.59 -7.23,6.78 -10.93,4.9l-2.18,-1.11z" fill="#263238" id="svg_91"/>
     <path d="m247.64,259.1c-3.7,-1.89 -4.81,-7.14 -2.47,-11.73c2.33,-4.58 7.23,-6.78 10.93,-4.89l2.18,1.11c3.7,1.88 4.81,7.13 2.47,11.72c-2.33,4.59 -7.23,6.78 -10.93,4.9l-2.18,-1.11z" fill="#FFFFFF" id="svg_92" opacity="0.5"/>
     <path d="m266.54,251.18l2.13,1.29l3.32,2.01l2.13,1.28c1.65,0.99 2.19,3.14 1.19,4.79l-3.29,5.46c-1,1.65 -3.15,2.18 -4.8,1.18l-2.12,-1.28l-3.33,-2.01l-2.13,-1.28c-1.65,-1 -2.18,-3.14 -1.19,-4.79l3.3,-5.46c0.99,-1.65 3.14,-2.18 4.79,-1.19z" fill="#263238" id="svg_93"/>
     <path d="m266.54,251.18l2.13,1.29l3.32,2.01l2.13,1.28c1.65,0.99 2.19,3.14 1.19,4.79l-3.29,5.46c-1,1.65 -3.15,2.18 -4.8,1.18l-2.12,-1.28l-3.33,-2.01l-2.13,-1.28c-1.65,-1 -2.18,-3.14 -1.19,-4.79l3.3,-5.46c0.99,-1.65 3.14,-2.18 4.79,-1.19z" fill="#FFFFFF" id="svg_94" opacity="0.6"/>
     <path d="m261.46,263.72l1.81,1.09c2.66,1.61 6.12,0.75 7.72,-1.91l1.09,-1.81c1.61,-2.66 0.75,-6.11 -1.91,-7.71l-1.81,-1.1c-2.66,-1.6 -6.11,-0.75 -7.72,1.91l-1.09,1.81c-1.6,2.66 -0.74,6.12 1.91,7.72z" fill="#FFFFFF" id="svg_95" opacity="0.3"/>
     <path d="m262.82,256.74l5.72,3.45c0.72,0.44 1.66,0.2 2.1,-0.52l0,0c0.43,-0.72 0.2,-1.66 -0.52,-2.09l-5.72,-3.45c-0.72,-0.44 -1.66,-0.2 -2.09,0.52l0,0c-0.44,0.72 -0.21,1.66 0.51,2.09z" fill="#407BFF" id="svg_96"/>
     <path d="m262.82,256.74l5.72,3.45c0.72,0.44 1.66,0.2 2.1,-0.52l0,0c0.43,-0.72 0.2,-1.66 -0.52,-2.09l-5.72,-3.45c-0.72,-0.44 -1.66,-0.2 -2.09,0.52l0,0c-0.44,0.72 -0.21,1.66 0.51,2.09z" fill="#FFFFFF" id="svg_97" opacity="0.3"/>
     <path d="m211.85,281.85c-3.47,-19.91 -14.64,-25.46 -20.76,-26.99c5.51,-9.37 16.29,-8.85 25.56,-6.06c14.12,12.91 8.08,27.5 5.75,31.88c-3.53,-0.32 -7.25,-0.12 -10.55,1.17z" fill="#407BFF" id="svg_98"/>
     <path d="m211.85,281.85c-3.47,-19.91 -14.64,-25.46 -20.76,-26.99c5.51,-9.37 16.29,-8.85 25.56,-6.06c14.12,12.91 8.08,27.5 5.75,31.88c-3.53,-0.32 -7.25,-0.12 -10.55,1.17z" fill="#FFFFFF" id="svg_99" opacity="0.4"/>
     <g id="svg_100">
      <path d="m217.64,247.81c9.55,9.01 12.08,21.88 5.97,33.58c-0.84,1.59 -3.25,0.18 -2.42,-1.42c5.53,-10.58 3.09,-22.05 -5.53,-30.18c-1.31,-1.23 0.67,-3.21 1.98,-1.98l0,0z" fill="#407BFF" id="svg_101"/>
     </g>
     <g id="svg_102">
      <path d="m269.81,290.04c-9.86,-4.54 -33.5,-12.9 -42.97,6.26c-7.22,14.58 1.99,25.65 1.99,25.65s-21.82,9.04 -14.73,22.19c7.09,13.15 41.67,-3.84 39.55,-15.85c-2.13,-12.02 -0.48,-13.74 3.15,-14.8c6.43,-1.88 53.89,-4.61 13.01,-23.45z" fill="#407BFF" id="svg_103"/>
      <path d="m269.81,290.04c-9.86,-4.54 -33.5,-12.9 -42.97,6.26c-7.22,14.58 1.99,25.65 1.99,25.65s-21.82,9.04 -14.73,22.19c7.09,13.15 41.67,-3.84 39.55,-15.85c-2.13,-12.02 -0.48,-13.74 3.15,-14.8c6.43,-1.88 53.89,-4.61 13.01,-23.45z" fill="#FFFFFF" id="svg_104" opacity="0.7"/>
      <path d="m224.5,303.2c0.41,-2.19 1.14,-4.49 2.34,-6.9c4.52,-9.14 12.26,-12.02 20.2,-12.03c13.87,3.34 15.32,28.21 15.32,28.21c-2.53,0.4 -4.55,0.72 -5.56,1.01c-1.73,0.51 -3.01,1.17 -3.65,3.02c-20.19,-1.01 -26.63,-8.24 -28.65,-13.31z" fill="#407BFF" id="svg_105"/>
      <path d="m224.5,303.2c0.41,-2.19 1.14,-4.49 2.34,-6.9c4.52,-9.14 12.26,-12.02 20.2,-12.03c13.87,3.34 15.32,28.21 15.32,28.21c-2.53,0.4 -4.55,0.72 -5.56,1.01c-1.73,0.51 -3.01,1.17 -3.65,3.02c-20.19,-1.01 -26.63,-8.24 -28.65,-13.31z" fill="#FFFFFF" id="svg_106" opacity="0.4"/>
      <g id="svg_107">
       <path d="m247.41,282.92c11.87,3.17 15.69,18.84 16.35,29.56c0.11,1.8 -2.69,1.79 -2.8,0c-0.57,-9.42 -3.81,-24.06 -14.29,-26.86c-1.74,-0.47 -1,-3.17 0.74,-2.7l0,0z" fill="#407BFF" id="svg_108"/>
      </g>
      <path d="m214.98,332.24c7.1,-1.09 11.75,13.13 11.75,13.13c17.95,-4.26 24.49,-13.65 26.71,-18.34c0.06,0.41 0.13,0.82 0.21,1.26c2.12,12.01 -32.46,29 -39.55,15.85c-2.44,-4.52 -1.46,-8.56 0.88,-11.9z" fill="#263238" id="svg_109"/>
     </g>
     <g id="svg_110">
      <g id="svg_111">
       <path d="m288.49,248.32c10.5,0 20.8,-2.5 30.06,-7.26c2.11,-1.09 2.84,-3.76 1.61,-5.8l-0.54,-0.9c-1.13,-1.86 -3.5,-2.53 -5.43,-1.54c-7.92,4.05 -16.73,6.18 -25.7,6.18c-14.29,0 -28.11,-5.49 -38.51,-15.19c-1.59,-1.49 -4.06,-1.5 -5.65,-0.02l-0.77,0.72c-1.75,1.63 -1.76,4.41 -0.01,6.04c12.12,11.34 28.26,17.77 44.94,17.77z" fill="#407BFF" id="svg_112"/>
      </g>
      <g id="svg_113" opacity="0.3">
       <path d="m288.49,248.32c10.5,0 20.8,-2.5 30.06,-7.26c2.11,-1.09 2.84,-3.76 1.61,-5.8l-0.54,-0.9c-1.13,-1.86 -3.5,-2.53 -5.43,-1.54c-7.92,4.05 -16.73,6.18 -25.7,6.18c-14.29,0 -28.11,-5.49 -38.51,-15.19c-1.59,-1.49 -4.06,-1.5 -5.65,-0.02l-0.77,0.72c-1.75,1.63 -1.76,4.41 -0.01,6.04c12.12,11.34 28.26,17.77 44.94,17.77z" id="svg_114"/>
      </g>
     </g>
     <g id="svg_115">
      <g id="svg_116">
       <g id="svg_117">
        <ellipse cx="298.47" cy="168.51" fill="#407BFF" id="svg_118" rx="61.06" ry="61.06" transform="matrix(0.7071 -0.7071 0.7071 0.7071 -41.7126 274.493)"/>
        <ellipse cx="298.47" cy="168.51" fill="#FFFFFF" id="svg_119" opacity="0.7" rx="61.06" ry="61.06" transform="matrix(0.7071 -0.7071 0.7071 0.7071 -41.7126 274.493)"/>
       </g>
       <path d="m246.57,138.21c9.82,-7.95 22.31,-12.72 35.92,-12.72c31.54,0 57.11,25.57 57.11,57.11s-25.57,57.1 -57.11,57.1c-13.61,0 -26.1,-4.77 -35.92,-12.72c-11.78,-11.13 -19.15,-26.89 -19.15,-44.38c0,-17.49 7.37,-33.26 19.15,-44.39z" fill="#407BFF" id="svg_120"/>
       <circle cx="282.49" cy="182.6" fill="#263238" id="svg_121" r="53.51"/>
       <path d="m308.43,166.36c0.78,4.56 4.6,7.71 8.54,7.04c3.93,-0.67 6.49,-4.92 5.72,-9.47c-0.78,-4.56 -4.61,-7.71 -8.54,-7.04c-3.94,0.67 -6.5,4.91 -5.72,9.47z" fill="#FFFFFF" id="svg_122" opacity="0.5"/>
       <path d="m317.85,183.2c-0.25,2.23 1.1,4.21 3.02,4.43c1.93,0.22 3.69,-1.41 3.94,-3.64c0.25,-2.23 -1.1,-4.21 -3.03,-4.43c-1.92,-0.21 -3.68,1.42 -3.93,3.64z" fill="#FFFFFF" id="svg_123" opacity="0.5"/>
       <g id="svg_124" opacity="0.5">
        <path d="m243.94,183.13c-0.52,1.69 -3.03,1.34 -3.04,-0.44c0,-0.03 0,-0.06 0,-0.09c0,-16.82 9.99,-31.3 24.36,-37.85c0.83,-0.38 1.81,0.02 2.12,0.88l1.49,4.06c0.25,0.7 -0.02,1.46 -0.65,1.86c-11.46,7.21 -20.19,18.37 -24.28,31.58z" fill="#FFFFFF" id="svg_125"/>
        <path d="m287.79,142.51l0,0c0.07,0.73 -0.43,1.39 -1.15,1.54c-3.43,0.74 -6.74,1.78 -9.91,3.1c-0.72,0.3 -1.55,-0.01 -1.88,-0.72l-1.22,-2.65c-0.39,-0.85 0.12,-1.85 1.05,-2.03c2.53,-0.48 5.14,-0.74 7.81,-0.74c1.36,0 2.7,0.07 4.02,0.2c0.68,0.06 1.21,0.61 1.28,1.3z" fill="#FFFFFF" id="svg_126"/>
       </g>
       <path d="m248.59,203.53c11.33,9.18 25.75,14.68 41.46,14.68c15.87,0 30.43,-5.6 41.81,-14.95c-8.09,19.29 -27.14,32.85 -49.37,32.85c-29.55,0 -53.51,-23.96 -53.51,-53.51c0,-3.08 0.28,-6.1 0.78,-9.04c3.66,11.57 10.22,21.84 18.83,29.97z" id="svg_127" opacity="0.6"/>
      </g>
      <g id="svg_128">
       <path d="m333,215.58c-7.09,-2.23 -10.29,-12.14 -7.16,-22.16c3.14,-10.02 11.43,-16.34 18.52,-14.12l3.99,1.25c7.09,2.22 10.29,12.14 7.16,22.16c-3.14,10.02 -11.43,16.34 -18.52,14.12l-3.99,-1.25z" fill="#263238" id="svg_129"/>
       <path d="m333,215.58c-7.09,-2.23 -10.29,-12.14 -7.16,-22.16c3.14,-10.02 11.43,-16.34 18.52,-14.12l3.99,1.25c7.09,2.22 10.29,12.14 7.16,22.16c-3.14,10.02 -11.43,16.34 -18.52,14.12l-3.99,-1.25z" fill="#FFFFFF" id="svg_130" opacity="0.3"/>
       <path d="m329.84,194.67c-3.14,10.02 0.06,19.94 7.15,22.16c7.09,2.22 15.38,-4.1 18.52,-14.12c3.13,-10.02 -0.07,-19.94 -7.16,-22.16c-7.09,-2.22 -15.38,4.1 -18.51,14.12z" fill="#FFFFFF" id="svg_131" opacity="0.3"/>
       <g id="svg_132">
        <path d="m288.99,236.05c16.88,0 28.97,-5.23 36.79,-10.38c11.44,-7.53 16.36,-16.35 16.56,-16.72l-3.33,-1.83c-0.05,0.08 -4.77,8.48 -15.49,15.48c-14.16,9.26 -32.41,11.91 -52.78,7.68l-0.77,3.72c6.91,1.44 13.25,2.05 19.02,2.05z" fill="#263238" id="svg_133"/>
       </g>
       <g id="svg_134" opacity="0.5">
        <path d="m288.99,236.05c16.88,0 28.97,-5.23 36.79,-10.38c11.44,-7.53 16.36,-16.35 16.56,-16.72l-3.33,-1.83c-0.05,0.08 -4.77,8.48 -15.49,15.48c-14.16,9.26 -32.41,11.91 -52.78,7.68l-0.77,3.72c6.91,1.44 13.25,2.05 19.02,2.05z" fill="#FFFFFF" id="svg_135"/>
       </g>
       <g id="svg_136">
        <path d="m334.52,196.13c-2,6.37 0.04,12.67 4.54,14.08c4.51,1.41 9.77,-2.6 11.77,-8.97c1.99,-6.36 -0.04,-12.67 -4.55,-14.08c-4.5,-1.41 -9.77,2.61 -11.76,8.97z" fill="#407BFF" id="svg_137"/>
        <path d="m336.03,196.82c-1.99,6.37 0.04,12.67 4.55,14.08c4.5,1.41 9.77,-2.6 11.76,-8.97c2,-6.36 -0.04,-12.67 -4.54,-14.08c-4.51,-1.41 -9.78,2.61 -11.77,8.97z" fill="#407BFF" id="svg_138"/>
        <path d="m336.03,196.82c-1.99,6.37 0.04,12.67 4.55,14.08c4.5,1.41 9.77,-2.6 11.76,-8.97c2,-6.36 -0.04,-12.67 -4.54,-14.08c-4.51,-1.41 -9.78,2.61 -11.77,8.97z" fill="#FFFFFF" id="svg_139" opacity="0.5"/>
       </g>
       <g id="svg_140">
        <path d="m270.32,236.31l-18.25,-5.05c-2.3,-0.63 -3.64,-3.01 -3.01,-5.3l0.03,-0.11c0.64,-2.29 3.01,-3.64 5.3,-3l18.26,5.04c2.29,0.64 3.64,3.01 3.01,5.3l-0.03,0.11c-0.64,2.29 -3.01,3.64 -5.31,3.01z" fill="#407BFF" id="svg_141"/>
        <path d="m270.32,236.31l-18.25,-5.05c-2.3,-0.63 -3.64,-3.01 -3.01,-5.3l0.03,-0.11c0.64,-2.29 3.01,-3.64 5.3,-3l18.26,5.04c2.29,0.64 3.64,3.01 3.01,5.3l-0.03,0.11c-0.64,2.29 -3.01,3.64 -5.31,3.01z" id="svg_142" opacity="0.2"/>
        <path d="m267.66,235.57l-18.26,-5.05c-2.29,-0.63 -3.64,-3 -3,-5.3l0.03,-0.11c0.63,-2.29 3,-3.63 5.3,-3l18.26,5.05c2.29,0.63 3.63,3 3,5.29l-0.03,0.11c-0.63,2.3 -3.01,3.64 -5.3,3.01z" fill="#407BFF" id="svg_143"/>
        <path d="m267.66,235.57l-18.26,-5.05c-2.29,-0.63 -3.64,-3 -3,-5.3l0.03,-0.11c0.63,-2.29 3,-3.63 5.3,-3l18.26,5.05c2.29,0.63 3.63,3 3,5.29l-0.03,0.11c-0.63,2.3 -3.01,3.64 -5.3,3.01z" fill="#FFFFFF" id="svg_144" opacity="0.3"/>
       </g>
      </g>
     </g>
     <path d="m246.19,247.9c-1.98,3.88 -1.04,8.33 2.1,9.93c3.13,1.6 7.28,-0.26 9.27,-4.15c1.98,-3.89 1.04,-8.33 -2.1,-9.93c-3.14,-1.6 -7.29,0.26 -9.27,4.15z" fill="#FFFFFF" id="svg_145" opacity="0.5"/>
     <path d="m248.2,248.92c-1.27,2.51 -0.67,5.38 1.36,6.41c2.02,1.03 4.7,-0.16 5.98,-2.67c1.28,-2.51 0.67,-5.39 -1.35,-6.42c-2.03,-1.03 -4.71,0.17 -5.99,2.68z" fill="#407BFF" id="svg_146"/>
     <path d="m248.2,248.92c-1.27,2.51 -0.67,5.38 1.36,6.41c2.02,1.03 4.7,-0.16 5.98,-2.67c1.28,-2.51 0.67,-5.39 -1.35,-6.42c-2.03,-1.03 -4.71,0.17 -5.99,2.68z" id="svg_147" opacity="0.4"/>
     <path d="m254.83,246.67c1.49,1.26 1.84,3.77 0.71,5.99c-1.13,2.22 -3.36,3.41 -5.26,2.94c-1.5,-1.26 -1.84,-3.76 -0.71,-5.99c1.13,-2.22 3.35,-3.41 5.26,-2.94z" fill="#407BFF" id="svg_148"/>
     <g id="svg_149">
      <g id="svg_150">
       <g id="svg_151">
        <path d="m203.3,354.55l0,0c0.16,-0.19 0.51,-0.15 0.79,0.05c12.5,9.08 32.58,10.9 46.7,1.43c4.05,-2.72 7.37,-6.74 11.75,-9.17c5.32,-2.96 16.53,-8.22 21.88,-3.7c8,6.78 -5.63,20.37 -11.24,23.3c-5.9,3.1 -15.23,7.17 -27.75,5.9c-13.68,-1.38 -27.52,-4.7 -41.94,-17.04c-0.27,-0.23 -0.35,-0.58 -0.19,-0.77z" fill="#407BFF" id="svg_152"/>
        <path d="m203.3,354.55l0,0c0.16,-0.19 0.51,-0.15 0.79,0.05c12.5,9.08 32.58,10.9 46.7,1.43c4.05,-2.72 7.37,-6.74 11.75,-9.17c5.32,-2.96 16.53,-8.22 21.88,-3.7c8,6.78 -5.63,20.37 -11.24,23.3c-5.9,3.1 -15.23,7.17 -27.75,5.9c-13.68,-1.38 -27.52,-4.7 -41.94,-17.04c-0.27,-0.23 -0.35,-0.58 -0.19,-0.77z" fill="#FFFFFF" id="svg_153" opacity="0.7"/>
        <path d="m280.63,348.31c1.15,0.25 -9.75,14.89 -16.05,16.06c-5.58,1.05 -14.51,0.08 -5.53,-3.85c0,0 -6.9,0.87 2,-6.5c5.03,8.47 19.58,-5.71 19.58,-5.71z" fill="#407BFF" id="svg_154"/>
       </g>
      </g>
      <path d="m275,345.62c0,0 -13.04,3.6 -10.82,6.67c2.22,3.08 10.82,-6.67 10.82,-6.67z" fill="#FFFFFF" id="svg_155" opacity="0.6"/>
     </g>
    </g>
    <g id="svg_156">
     <path d="m295.09,294.99c-6.79,-1.43 -13.5,-3.55 -19.99,-5.96c-11.81,-4.36 -23.81,-10.06 -32.93,-18.93c-4.91,-4.77 -8.79,-10.59 -10.3,-17.33c-0.4,-1.75 2.3,-2.5 2.69,-0.74c2.75,12.24 13.46,20.57 23.87,26.4c9.61,5.38 20.06,9.24 30.65,12.17c2.23,0.62 4.48,1.21 6.75,1.69c1.76,0.37 1.02,3.06 -0.74,2.7l0,0z" fill="#407BFF" id="svg_157"/>
     <path d="m295.09,294.99c-6.79,-1.43 -13.5,-3.55 -19.99,-5.96c-11.81,-4.36 -23.81,-10.06 -32.93,-18.93c-4.91,-4.77 -8.79,-10.59 -10.3,-17.33c-0.4,-1.75 2.3,-2.5 2.69,-0.74c2.75,12.24 13.46,20.57 23.87,26.4c9.61,5.38 20.06,9.24 30.65,12.17c2.23,0.62 4.48,1.21 6.75,1.69c1.76,0.37 1.02,3.06 -0.74,2.7l0,0z" id="svg_158" opacity="0.3"/>
    </g>
    <g id="svg_159">
     <path d="m268.76,282.44l14.35,8.27l0,0c1.07,-1.87 0.43,-4.25 -1.43,-5.33l-7.59,-4.37c-1.87,-1.07 -4.25,-0.43 -5.33,1.43l0,0z" fill="#263238" id="svg_160"/>
     <g id="svg_161">
      <polygon fill="#263238" id="svg_162" points="288.4339904785156,260.3999938964844 292.31298828125,262.635009765625 280.7909851074219,284.87298583984375 274.9729919433594,281.52099609375 "/>
      <path d="m266.8,291.47l22.31,12.88c2.36,1.36 5.38,0.55 6.74,-1.8l0,0c1.36,-2.36 0.55,-5.38 -1.81,-6.74l-22.31,-12.89c-2.36,-1.36 -5.38,-0.55 -6.74,1.81l0,0c-1.36,2.36 -0.55,5.38 1.81,6.74z" fill="#263238" id="svg_163"/>
      <path d="m266.8,291.47l22.31,12.88c2.36,1.36 5.38,0.55 6.74,-1.8l0,0c1.36,-2.36 0.55,-5.38 -1.81,-6.74l-22.31,-12.89c-2.36,-1.36 -5.38,-0.55 -6.74,1.81l0,0c-1.36,2.36 -0.55,5.38 1.81,6.74z" fill="#FFFFFF" id="svg_164" opacity="0.3"/>
      <ellipse cx="294.37" cy="252.6" fill="#407BFF" id="svg_165" rx="5.94" ry="5.94" transform="matrix(0.9657 -0.2597 0.2597 0.9657 -57.5491 90.645)"/>
      <ellipse cx="294.37" cy="252.6" id="svg_166" opacity="0.3" rx="5.94" ry="5.94" transform="matrix(0.9657 -0.2597 0.2597 0.9657 -57.5491 90.645)"/>
      <path d="m293.15,254.24c0.26,0.62 -0.3,1.45 -1.26,1.84c-0.95,0.39 -1.93,0.2 -2.19,-0.42c-0.25,-0.63 0.31,-1.45 1.26,-1.84s1.93,-0.2 2.19,0.42z" fill="#FFFFFF" id="svg_167"/>
     </g>
     <path d="m318.87,240.19c0,0 28.77,18.13 19.26,39.34c-9.94,22.15 -44.43,10.5 -57.71,4.74c-4.71,-2.04 -14.35,-5.64 -5.97,-19.64c8.39,-13.99 21.43,3.4 21.43,3.4s20.64,8.01 9.65,-9.31c0.01,0 1.85,-11.59 13.34,-18.53z" fill="#407BFF" id="svg_168"/>
     <path d="m318.87,240.19c0,0 28.77,18.13 19.26,39.34c-9.94,22.15 -44.43,10.5 -57.71,4.74c-4.71,-2.04 -14.35,-5.64 -5.97,-19.64c8.39,-13.99 21.43,3.4 21.43,3.4s20.64,8.01 9.65,-9.31c0.01,0 1.85,-11.59 13.34,-18.53z" fill="#FFFFFF" id="svg_169" opacity="0.7"/>
     <g id="svg_170">
      <path d="m328.79,249.22c2.08,2.64 2.52,5.76 0.99,6.97c-1.54,1.21 -4.47,0.05 -6.54,-2.59c-2.08,-2.64 -2.52,-5.76 -0.99,-6.97c1.54,-1.21 4.47,-0.05 6.54,2.59z" fill="#FFFFFF" id="svg_171"/>
      <polygon fill="#407BFF" id="svg_172" points="327.8370056152344,253.17999267578125 327.0889892578125,255.54998779296875 325.5610046386719,252.90701293945312 323.14898681640625,252.01199340820312 324.6499938964844,250.31700134277344 323.7200012207031,247.5749969482422 326.0589904785156,249.2830047607422 327.7070007324219,248.66299438476562 328.02801513671875,251.052001953125 330.093994140625,253.29998779296875 "/>
     </g>
     <path d="m308.52,292.18c10.86,-7.18 3.51,-18.38 -0.63,-23.33c0.83,-0.78 1.14,-2.08 0.58,-4.11c16.27,-8.6 26.24,-3.58 30.84,0.33c1.17,4.51 1.09,9.39 -1.18,14.46c-5.26,11.71 -17.38,13.97 -29.61,12.65z" fill="#407BFF" id="svg_173"/>
     <path d="m308.52,292.18c10.86,-7.18 3.51,-18.38 -0.63,-23.33c0.83,-0.78 1.14,-2.08 0.58,-4.11c16.27,-8.6 26.24,-3.58 30.84,0.33c1.17,4.51 1.09,9.39 -1.18,14.46c-5.26,11.71 -17.38,13.97 -29.61,12.65z" fill="#FFFFFF" id="svg_174" opacity="0.4"/>
     <g id="svg_175">
      <path d="m307.82,290.97c8.25,-5.78 4.33,-14.77 -0.92,-21.13c-1.13,-1.38 0.83,-3.37 1.98,-1.98c2.98,3.61 5.72,7.77 6.5,12.47c0.91,5.54 -1.7,9.94 -6.15,13.05c-1.48,1.04 -2.88,-1.38 -1.41,-2.41l0,0z" fill="#407BFF" id="svg_176"/>
     </g>
     <path d="m274.45,264.64c8.39,-14 21.44,3.39 21.44,3.39s4.47,16.41 -5.07,20.17l0,0c-4.09,-1.33 -7.69,-2.76 -10.4,-3.93c-4.71,-2.04 -14.35,-5.64 -5.97,-19.63z" fill="#407BFF" id="svg_177"/>
     <path d="m274.45,264.64c8.39,-14 21.44,3.39 21.44,3.39s4.47,16.41 -5.07,20.17l0,0c-4.09,-1.33 -7.69,-2.76 -10.4,-3.93c-4.71,-2.04 -14.35,-5.64 -5.97,-19.63z" fill="#FFFFFF" id="svg_178" opacity="0.3"/>
     <g id="svg_179">
      <path d="m304.19,258.35c1.34,-8.04 7.27,-15.16 13.97,-19.37c1.53,-0.95 2.94,1.46 1.42,2.42c-6.15,3.85 -11.47,10.34 -12.7,17.69c-0.29,1.77 -2.99,1.02 -2.69,-0.74l0,0z" fill="#407BFF" id="svg_180"/>
     </g>
    </g>
   </g>
  </g>
  <g id="Moon" transform="matrix(1 0 0 1 0 0)">
   <g id="svg_181">
    <path d="m221.66,167.85c-0.93,-1.67 -2.23,-3.15 -3.46,-4.7c1.32,-12.46 -1.9,-24.66 -8.55,-34.65c0.08,-0.17 0.17,-0.32 0.25,-0.43c0.13,-0.2 0.25,-0.41 0.33,-0.65c0.62,-1.66 0,-4.33 -2.16,-6.88c-0.46,-0.55 -0.94,-1 -1.43,-1.41c-0.49,-0.41 -0.97,-0.78 -1.46,-1.05c-0.97,-0.55 -1.91,-0.83 -2.74,-0.86c-0.56,-0.02 -1.07,0.07 -1.49,0.27c-0.01,0 -0.01,0 -0.01,0c-0.09,0.04 -0.2,0.09 -0.33,0.12c-0.02,0.01 -0.04,0.02 -0.06,0.02c-0.13,0.04 -0.26,0.08 -0.4,0.11c0,0 0,0 0,0c-5.68,-4.88 -12.49,-8.64 -20.18,-10.78c-5.28,-1.48 -10.6,-2.09 -15.81,-1.92c-1.53,-1.26 -3.01,-2.58 -4.67,-3.49c-3.38,-1.84 -8.26,-0.72 -11.59,0.55c-3.5,1.34 -7.67,3.66 -9.05,7.4c-0.42,1.13 -0.68,2.31 -0.92,3.52c-0.43,0.27 -0.86,0.56 -1.29,0.85c-0.02,0.01 -0.03,0.01 -0.05,0.02c-0.65,0.44 -1.29,0.89 -1.93,1.35c-0.03,0.03 -0.06,0.05 -0.09,0.07c-0.61,0.45 -1.22,0.92 -1.82,1.4c-0.04,0.04 -0.09,0.08 -0.14,0.12c-0.58,0.47 -1.14,0.95 -1.7,1.44c-0.07,0.06 -0.13,0.12 -0.2,0.17c-0.53,0.48 -1.06,0.97 -1.58,1.47c-0.08,0.08 -0.17,0.17 -0.25,0.25c-0.49,0.49 -0.98,0.98 -1.45,1.48c-0.11,0.11 -0.21,0.23 -0.31,0.34c-0.45,0.49 -0.89,0.98 -1.33,1.48c-0.12,0.14 -0.24,0.29 -0.36,0.43c-0.4,0.49 -0.8,0.98 -1.19,1.47c-0.14,0.18 -0.27,0.36 -0.41,0.55c-0.36,0.47 -0.72,0.95 -1.06,1.44c-0.16,0.22 -0.3,0.44 -0.45,0.66c-0.32,0.47 -0.64,0.94 -0.94,1.42c-0.17,0.25 -0.32,0.52 -0.48,0.78c-0.28,0.45 -0.56,0.91 -0.82,1.37c-0.18,0.3 -0.34,0.62 -0.51,0.92c-0.23,0.44 -0.47,0.87 -0.7,1.32c-0.18,0.35 -0.34,0.71 -0.52,1.07c-0.19,0.41 -0.4,0.82 -0.58,1.24c-0.19,0.42 -0.36,0.85 -0.54,1.27c-0.15,0.37 -0.32,0.75 -0.47,1.13c-0.2,0.51 -0.38,1.04 -0.56,1.56c-0.11,0.31 -0.23,0.6 -0.33,0.91c-0.28,0.83 -0.54,1.68 -0.78,2.54c-1.04,3.73 -1.63,7.47 -1.85,11.18c-0.15,0.11 -0.28,0.2 -0.42,0.28c-0.03,0.02 -0.06,0.04 -0.09,0.06c-0.13,0.08 -0.26,0.15 -0.37,0.2c-2.01,0.89 -3.41,4.38 -2.72,9.06c0.09,0.58 0.2,1.14 0.34,1.67c0.4,1.58 1,2.9 1.72,3.91c0.94,1.35 2.08,2.15 3.17,2.3c0.1,0.02 0.22,0.04 0.35,0.08l0,0c4.88,16.88 18.11,30.94 36.25,36.07c0.07,0.02 0.13,0.05 0.21,0.07c0,0 0,0 0,0c0.77,0.22 1.55,0.41 2.33,0.59c0.19,0.04 0.37,0.08 0.56,0.12c0.77,0.17 1.53,0.33 2.3,0.46c0.09,0.02 0.19,0.03 0.28,0.04c0.69,0.12 1.39,0.22 2.08,0.31c0.19,0.02 0.38,0.05 0.57,0.07c0.75,0.09 1.5,0.16 2.25,0.22c0.16,0.01 0.32,0.01 0.48,0.03c0.63,0.04 1.26,0.06 1.88,0.08c0.06,0 0.12,0.01 0.18,0.01c0.01,0.03 0.02,0.06 0.03,0.09c0.4,1.37 2,2.59 4.39,3.07c0.79,0.16 1.68,0.23 2.63,0.21c3.35,-0.1 5.72,-1.42 6.57,-2.99c0.12,-0.22 0.2,-0.45 0.26,-0.68c0.02,-0.08 0.05,-0.18 0.09,-0.28c0.01,-0.02 0.02,-0.05 0.03,-0.07c0.03,-0.09 0.07,-0.17 0.11,-0.26c0.01,-0.02 0.02,-0.05 0.03,-0.07c0.04,-0.1 0.09,-0.2 0.15,-0.31c0,-0.01 0.01,-0.02 0.02,-0.04c0.06,-0.12 0.12,-0.24 0.19,-0.37c0.09,-0.02 0.17,-0.04 0.26,-0.07c0.47,-0.12 0.94,-0.26 1.41,-0.39c0.38,-0.12 0.76,-0.23 1.14,-0.36c0.36,-0.11 0.72,-0.23 1.07,-0.35c0.33,-0.12 0.66,-0.24 0.99,-0.36c0.59,-0.21 1.17,-0.44 1.75,-0.68c0.26,-0.11 0.53,-0.21 0.79,-0.33c0.39,-0.16 0.78,-0.33 1.17,-0.51c0.18,-0.09 0.37,-0.18 0.56,-0.26c0.71,-0.34 1.42,-0.69 2.12,-1.06c0.18,-0.1 0.37,-0.19 0.55,-0.29c1.29,-0.71 2.56,-1.46 3.79,-2.27c0.13,-0.08 0.26,-0.17 0.39,-0.25c1.25,-0.84 2.48,-1.74 3.66,-2.68c0.09,-0.08 0.18,-0.15 0.27,-0.23c3.01,-2.43 5.76,-5.2 8.19,-8.27c2.4,-0.52 4.9,-0.74 7.11,-1.58c3.6,-1.37 5.91,-5.82 7.1,-9.17c1.26,-3.53 2.21,-8.21 0.25,-11.69z" fill="#407BFF" id="svg_182"/>
    <path d="m221.66,167.85c-0.93,-1.67 -2.23,-3.15 -3.46,-4.7c1.32,-12.46 -1.9,-24.66 -8.55,-34.65c0.08,-0.17 0.17,-0.32 0.25,-0.43c0.13,-0.2 0.25,-0.41 0.33,-0.65c0.62,-1.66 0,-4.33 -2.16,-6.88c-0.46,-0.55 -0.94,-1 -1.43,-1.41c-0.49,-0.41 -0.97,-0.78 -1.46,-1.05c-0.97,-0.55 -1.91,-0.83 -2.74,-0.86c-0.56,-0.02 -1.07,0.07 -1.49,0.27c-0.01,0 -0.01,0 -0.01,0c-0.09,0.04 -0.2,0.09 -0.33,0.12c-0.02,0.01 -0.04,0.02 -0.06,0.02c-0.13,0.04 -0.26,0.08 -0.4,0.11c0,0 0,0 0,0c-5.68,-4.88 -12.49,-8.64 -20.18,-10.78c-5.28,-1.48 -10.6,-2.09 -15.81,-1.92c-1.53,-1.26 -3.01,-2.58 -4.67,-3.49c-3.38,-1.84 -8.26,-0.72 -11.59,0.55c-3.5,1.34 -7.67,3.66 -9.05,7.4c-0.42,1.13 -0.68,2.31 -0.92,3.52c-0.43,0.27 -0.86,0.56 -1.29,0.85c-0.02,0.01 -0.03,0.01 -0.05,0.02c-0.65,0.44 -1.29,0.89 -1.93,1.35c-0.03,0.03 -0.06,0.05 -0.09,0.07c-0.61,0.45 -1.22,0.92 -1.82,1.4c-0.04,0.04 -0.09,0.08 -0.14,0.12c-0.58,0.47 -1.14,0.95 -1.7,1.44c-0.07,0.06 -0.13,0.12 -0.2,0.17c-0.53,0.48 -1.06,0.97 -1.58,1.47c-0.08,0.08 -0.17,0.17 -0.25,0.25c-0.49,0.49 -0.98,0.98 -1.45,1.48c-0.11,0.11 -0.21,0.23 -0.31,0.34c-0.45,0.49 -0.89,0.98 -1.33,1.48c-0.12,0.14 -0.24,0.29 -0.36,0.43c-0.4,0.49 -0.8,0.98 -1.19,1.47c-0.14,0.18 -0.27,0.36 -0.41,0.55c-0.36,0.47 -0.72,0.95 -1.06,1.44c-0.16,0.22 -0.3,0.44 -0.45,0.66c-0.32,0.47 -0.64,0.94 -0.94,1.42c-0.17,0.25 -0.32,0.52 -0.48,0.78c-0.28,0.45 -0.56,0.91 -0.82,1.37c-0.18,0.3 -0.34,0.62 -0.51,0.92c-0.23,0.44 -0.47,0.87 -0.7,1.32c-0.18,0.35 -0.34,0.71 -0.52,1.07c-0.19,0.41 -0.4,0.82 -0.58,1.24c-0.19,0.42 -0.36,0.85 -0.54,1.27c-0.15,0.37 -0.32,0.75 -0.47,1.13c-0.2,0.51 -0.38,1.04 -0.56,1.56c-0.11,0.31 -0.23,0.6 -0.33,0.91c-0.28,0.83 -0.54,1.68 -0.78,2.54c-1.04,3.73 -1.63,7.47 -1.85,11.18c-0.15,0.11 -0.28,0.2 -0.42,0.28c-0.03,0.02 -0.06,0.04 -0.09,0.06c-0.13,0.08 -0.26,0.15 -0.37,0.2c-2.01,0.89 -3.41,4.38 -2.72,9.06c0.09,0.58 0.2,1.14 0.34,1.67c0.4,1.58 1,2.9 1.72,3.91c0.94,1.35 2.08,2.15 3.17,2.3c0.1,0.02 0.22,0.04 0.35,0.08l0,0c4.88,16.88 18.11,30.94 36.25,36.07c0.07,0.02 0.13,0.05 0.21,0.07c0,0 0,0 0,0c0.77,0.22 1.55,0.41 2.33,0.59c0.19,0.04 0.37,0.08 0.56,0.12c0.77,0.17 1.53,0.33 2.3,0.46c0.09,0.02 0.19,0.03 0.28,0.04c0.69,0.12 1.39,0.22 2.08,0.31c0.19,0.02 0.38,0.05 0.57,0.07c0.75,0.09 1.5,0.16 2.25,0.22c0.16,0.01 0.32,0.01 0.48,0.03c0.63,0.04 1.26,0.06 1.88,0.08c0.06,0 0.12,0.01 0.18,0.01c0.01,0.03 0.02,0.06 0.03,0.09c0.4,1.37 2,2.59 4.39,3.07c0.79,0.16 1.68,0.23 2.63,0.21c3.35,-0.1 5.72,-1.42 6.57,-2.99c0.12,-0.22 0.2,-0.45 0.26,-0.68c0.02,-0.08 0.05,-0.18 0.09,-0.28c0.01,-0.02 0.02,-0.05 0.03,-0.07c0.03,-0.09 0.07,-0.17 0.11,-0.26c0.01,-0.02 0.02,-0.05 0.03,-0.07c0.04,-0.1 0.09,-0.2 0.15,-0.31c0,-0.01 0.01,-0.02 0.02,-0.04c0.06,-0.12 0.12,-0.24 0.19,-0.37c0.09,-0.02 0.17,-0.04 0.26,-0.07c0.47,-0.12 0.94,-0.26 1.41,-0.39c0.38,-0.12 0.76,-0.23 1.14,-0.36c0.36,-0.11 0.72,-0.23 1.07,-0.35c0.33,-0.12 0.66,-0.24 0.99,-0.36c0.59,-0.21 1.17,-0.44 1.75,-0.68c0.26,-0.11 0.53,-0.21 0.79,-0.33c0.39,-0.16 0.78,-0.33 1.17,-0.51c0.18,-0.09 0.37,-0.18 0.56,-0.26c0.71,-0.34 1.42,-0.69 2.12,-1.06c0.18,-0.1 0.37,-0.19 0.55,-0.29c1.29,-0.71 2.56,-1.46 3.79,-2.27c0.13,-0.08 0.26,-0.17 0.39,-0.25c1.25,-0.84 2.48,-1.74 3.66,-2.68c0.09,-0.08 0.18,-0.15 0.27,-0.23c3.01,-2.43 5.76,-5.2 8.19,-8.27c2.4,-0.52 4.9,-0.74 7.11,-1.58c3.6,-1.37 5.91,-5.82 7.1,-9.17c1.26,-3.53 2.21,-8.21 0.25,-11.69z" fill="#FFFFFF" id="svg_183" opacity="0.7"/>
    <path d="m160.04,202.19c-28.02,-7.82 -44.39,-36.86 -36.58,-64.88c2.75,-9.88 8.16,-18.3 15.21,-24.73c-0.69,0.41 -1.36,0.84 -2.03,1.28c0,0 0,0.01 0,0.01c-0.02,0 -0.03,0.01 -0.04,0.02c-0.66,0.44 -1.3,0.89 -1.93,1.35c-0.03,0.02 -0.06,0.05 -0.09,0.07c-0.12,0.08 -0.22,0.17 -0.34,0.25c-0.5,0.38 -1,0.76 -1.49,1.15c-0.04,0.04 -0.09,0.08 -0.13,0.11c-0.29,0.24 -0.57,0.48 -0.85,0.72c-0.28,0.24 -0.58,0.48 -0.86,0.73c-0.07,0.06 -0.13,0.12 -0.2,0.17c-0.47,0.43 -0.94,0.87 -1.4,1.31c-0.06,0.05 -0.12,0.11 -0.17,0.16c-0.09,0.08 -0.17,0.17 -0.26,0.25c-0.36,0.36 -0.72,0.73 -1.07,1.1c-0.13,0.13 -0.26,0.25 -0.38,0.38c-0.11,0.11 -0.21,0.23 -0.31,0.34c-0.43,0.46 -0.85,0.93 -1.26,1.41c-0.02,0.02 -0.04,0.04 -0.06,0.07c-0.13,0.14 -0.24,0.29 -0.37,0.43c-0.28,0.35 -0.56,0.7 -0.85,1.05c-0.11,0.14 -0.23,0.28 -0.34,0.42c-0.14,0.18 -0.27,0.36 -0.41,0.54c-0.09,0.13 -0.18,0.26 -0.28,0.39c-0.26,0.35 -0.53,0.7 -0.78,1.06c-0.15,0.22 -0.3,0.44 -0.45,0.66c-0.11,0.16 -0.22,0.33 -0.33,0.49c-0.2,0.31 -0.41,0.61 -0.61,0.93c-0.17,0.25 -0.32,0.52 -0.48,0.78c-0.15,0.24 -0.29,0.49 -0.44,0.73c-0.13,0.21 -0.26,0.42 -0.38,0.64c-0.17,0.3 -0.34,0.61 -0.5,0.92c-0.24,0.44 -0.48,0.87 -0.71,1.32c-0.18,0.35 -0.34,0.71 -0.51,1.07c-0.2,0.41 -0.4,0.82 -0.59,1.24c-0.19,0.42 -0.36,0.84 -0.53,1.27c-0.16,0.37 -0.33,0.74 -0.47,1.12c-0.2,0.52 -0.39,1.05 -0.57,1.57c-0.11,0.3 -0.22,0.6 -0.33,0.9c-0.27,0.84 -0.54,1.69 -0.77,2.55c-0.26,0.91 -0.49,1.83 -0.69,2.75c-0.03,0.13 -0.05,0.26 -0.08,0.39c-0.17,0.8 -0.33,1.61 -0.46,2.42c-0.01,0.06 -0.02,0.12 -0.03,0.18c-0.29,1.81 -0.49,3.63 -0.59,5.44c0,0 0,0 0,0c-0.15,0.1 -0.29,0.2 -0.43,0.28c-0.03,0.02 -0.05,0.04 -0.08,0.06c-0.14,0.08 -0.26,0.15 -0.38,0.2c-2.01,0.89 -3.41,4.38 -2.72,9.06c0.09,0.58 0.2,1.14 0.34,1.66c0.4,1.59 1.01,2.91 1.72,3.92c0.95,1.35 2.08,2.15 3.17,2.3c0.11,0.01 0.22,0.04 0.35,0.07l0,0c0,0 0,0 0,0c0.29,0.99 0.61,1.97 0.95,2.93c0.05,0.15 0.1,0.29 0.15,0.43c0.33,0.9 0.68,1.79 1.05,2.67c0.04,0.08 0.07,0.15 0.1,0.23c0.84,1.94 1.79,3.82 2.85,5.64c0.07,0.12 0.14,0.24 0.22,0.37c0.46,0.78 0.95,1.56 1.45,2.32c0.09,0.12 0.17,0.25 0.25,0.37c1.18,1.74 2.45,3.4 3.83,4.99c0.07,0.09 0.16,0.18 0.23,0.27c0.61,0.68 1.23,1.35 1.87,2c0.13,0.14 0.27,0.28 0.4,0.42c0.67,0.67 1.36,1.33 2.08,1.97c0.05,0.05 0.1,0.1 0.16,0.15c0.8,0.72 1.63,1.41 2.48,2.08c0.04,0.03 0.08,0.06 0.12,0.09c0.77,0.6 1.56,1.18 2.37,1.74c0.17,0.12 0.35,0.24 0.52,0.36c0.74,0.49 1.48,0.97 2.24,1.43c0.15,0.09 0.3,0.18 0.45,0.27c1.82,1.08 3.73,2.06 5.71,2.92c0.19,0.09 0.38,0.16 0.57,0.24c0.81,0.35 1.64,0.67 2.48,0.98c0.21,0.08 0.42,0.15 0.64,0.23c1.01,0.35 2.03,0.69 3.08,0.98c0.07,0.02 0.14,0.05 0.21,0.07c0,0 0,0 0,0c0.78,0.22 1.56,0.41 2.33,0.59c0.19,0.04 0.37,0.08 0.56,0.12c0.77,0.17 1.54,0.33 2.3,0.46c0.1,0.02 0.19,0.03 0.28,0.04c0.69,0.12 1.39,0.22 2.08,0.31c0.05,0.01 0.11,0.01 0.16,0.02c0.14,0.02 0.27,0.04 0.41,0.05c0.75,0.09 1.5,0.16 2.25,0.22c0.15,0.01 0.3,0.01 0.45,0.02c0.01,0 0.02,0 0.03,0.01c0.63,0.04 1.26,0.06 1.89,0.08c0,0 0,0 0,0c0.06,0 0.11,0.01 0.17,0.01c0.01,0.03 0.03,0.06 0.03,0.09c0.4,1.37 2,2.59 4.39,3.07c0.8,0.16 1.68,0.23 2.64,0.21c3.34,-0.1 5.72,-1.42 6.56,-2.99c0.12,-0.22 0.21,-0.45 0.26,-0.68c0.03,-0.08 0.06,-0.18 0.09,-0.28c0.01,-0.02 0.02,-0.05 0.03,-0.07c0.04,-0.09 0.07,-0.17 0.11,-0.26c0.01,-0.02 0.02,-0.05 0.03,-0.07c0.05,-0.1 0.1,-0.2 0.15,-0.31c0.01,-0.01 0.01,-0.02 0.02,-0.04c0.06,-0.12 0.13,-0.24 0.2,-0.37c0.02,0 0.04,-0.01 0.06,-0.02c0.06,-0.01 0.13,-0.03 0.19,-0.05c0.47,-0.12 0.94,-0.26 1.41,-0.39c0.38,-0.12 0.76,-0.23 1.14,-0.36c0.24,-0.07 0.47,-0.15 0.7,-0.23c0.13,-0.04 0.25,-0.08 0.37,-0.12c0.33,-0.12 0.66,-0.24 0.99,-0.36c0.59,-0.21 1.17,-0.44 1.75,-0.68c0,0 0.01,0 0.01,0c0.26,-0.11 0.52,-0.22 0.78,-0.33c0.22,-0.09 0.44,-0.19 0.65,-0.28c0.18,-0.08 0.35,-0.15 0.52,-0.23c0.19,-0.09 0.37,-0.18 0.56,-0.26c0,0 0,0 0,-0.01c0.71,-0.33 1.42,-0.68 2.12,-1.05c0.18,-0.1 0.37,-0.2 0.55,-0.29c0,-0.01 0,-0.01 0.01,-0.01c0.6,-0.32 1.19,-0.66 1.78,-1.01c0.09,-0.05 0.17,-0.11 0.26,-0.16c0.59,-0.35 1.17,-0.71 1.74,-1.09c0,0 0.01,0 0.01,0c0.13,-0.09 0.25,-0.17 0.38,-0.25c0,0 0,0 0,-0.01c0.58,-0.38 1.15,-0.78 1.71,-1.19c0.09,-0.07 0.19,-0.14 0.28,-0.21c0.57,-0.41 1.12,-0.83 1.67,-1.27c0.09,-0.07 0.18,-0.15 0.27,-0.22c0.01,0 0.01,-0.01 0.01,-0.01c0.73,-0.59 1.45,-1.2 2.15,-1.84c0.02,-0.02 0.05,-0.04 0.08,-0.06c0.02,-0.03 0.05,-0.06 0.08,-0.08c-11.98,7.2 -26.77,9.66 -41.29,5.61z" fill="#407BFF" id="svg_184" opacity="0.2"/>
    <g id="svg_185">
     <path d="m190.17,129.7c-0.85,-2 -1.58,-4.03 -2.17,-6.11c-1.41,-4.98 -4.44,-7.23 -9.56,-8.66c-4.76,-1.32 -8.73,-1.18 -12.35,2.13c-1.75,1.6 -3.63,3.03 -5.61,4.36c-0.8,0.54 -1.53,-0.77 -0.73,-1.31c2.69,-1.8 4.81,-4.57 7.48,-6.2c3.34,-2.04 8.07,-1.4 11.61,-0.42c3.4,0.94 7.63,2.76 9.52,5.96c1.63,2.75 1.84,6.5 3.11,9.51c0.38,0.88 -0.93,1.63 -1.3,0.74l0,0zm20.37,30.95c-0.63,0.72 0.41,1.8 1.04,1.07c1.31,-1.49 3.17,-2.58 4.34,-4.13c1.47,-1.95 1.34,-5.04 0.92,-7.31c-0.42,-2.22 -1.36,-5.01 -3.36,-6.33c-1.65,-1.1 -3.76,-1.51 -5.52,-2.54c-0.84,-0.49 -1.61,0.8 -0.77,1.29c1.05,0.61 2.14,1.21 3.27,1.67c2.69,1.1 3.86,2.17 4.68,5.18c0.91,3.34 0.72,5.89 -1.73,8.22c-0.99,0.94 -1.97,1.85 -2.87,2.88l0,0zm-39.47,35.16c-0.88,-0.38 -1.28,1.07 -0.4,1.44c3.43,1.46 6.47,3.93 9.84,5.29c4.07,1.65 8.92,-0.21 12.25,-2.61c3.34,-2.4 6.63,-6.41 6.37,-10.79c-0.23,-3.72 -1.45,-7.38 -1.61,-11.19c-0.04,-0.96 -1.54,-0.97 -1.5,-0.01c0.1,2.42 0.22,4.89 0.68,7.27c0.39,1.99 1.2,3.84 0.75,5.93c-0.68,3.17 -3.08,5.71 -5.62,7.54c-2.69,1.93 -6.48,3.64 -9.89,2.74c-1.81,-0.47 -3.22,-1.84 -4.82,-2.75c-1.94,-1.1 -4,-2 -6.05,-2.86l0,0zm-38.92,-30.73c0.32,-0.91 -1.12,-1.31 -1.45,-0.4c-2.01,5.61 -6.21,10.15 -1.92,15.89c2.13,2.85 5.86,5.03 9.5,4.05c2.79,-0.75 5.39,-2.05 8.26,-2.7c0.94,-0.22 0.56,-1.67 -0.38,-1.45c-1.93,0.44 -3.84,0.95 -5.7,1.61c-1.26,0.45 -2.5,1.23 -3.87,1.28c-2.91,0.12 -5.84,-2.23 -7.24,-4.62c-2.69,-4.61 1.21,-9.25 2.8,-13.66l0,0zm15.17,-44c0.96,-0.13 0.57,-1.57 -0.38,-1.45c-3.61,0.48 -7.52,-0.36 -10.98,0.41c-4.34,0.95 -7.73,5.19 -9.9,8.78c-2.26,3.73 -4.54,9.16 -2.87,13.56c1.22,3.22 3.26,6.11 4.38,9.49c0.31,0.92 1.76,0.54 1.45,-0.38c-0.82,-2.49 -1.74,-4.97 -2.98,-7.28c-2.71,-5.07 -1.67,-9.66 1.31,-14.62c2.81,-4.68 6.37,-8.17 11.94,-8.01c2.7,0.08 5.36,-0.14 8.03,-0.5l0,0z" fill="#407BFF" id="svg_186"/>
     <path d="m190.17,129.7c-0.85,-2 -1.58,-4.03 -2.17,-6.11c-1.41,-4.98 -4.44,-7.23 -9.56,-8.66c-4.76,-1.32 -8.73,-1.18 -12.35,2.13c-1.75,1.6 -3.63,3.03 -5.61,4.36c-0.8,0.54 -1.53,-0.77 -0.73,-1.31c2.69,-1.8 4.81,-4.57 7.48,-6.2c3.34,-2.04 8.07,-1.4 11.61,-0.42c3.4,0.94 7.63,2.76 9.52,5.96c1.63,2.75 1.84,6.5 3.11,9.51c0.38,0.88 -0.93,1.63 -1.3,0.74l0,0zm20.37,30.95c-0.63,0.72 0.41,1.8 1.04,1.07c1.31,-1.49 3.17,-2.58 4.34,-4.13c1.47,-1.95 1.34,-5.04 0.92,-7.31c-0.42,-2.22 -1.36,-5.01 -3.36,-6.33c-1.65,-1.1 -3.76,-1.51 -5.52,-2.54c-0.84,-0.49 -1.61,0.8 -0.77,1.29c1.05,0.61 2.14,1.21 3.27,1.67c2.69,1.1 3.86,2.17 4.68,5.18c0.91,3.34 0.72,5.89 -1.73,8.22c-0.99,0.94 -1.97,1.85 -2.87,2.88l0,0zm-39.47,35.16c-0.88,-0.38 -1.28,1.07 -0.4,1.44c3.43,1.46 6.47,3.93 9.84,5.29c4.07,1.65 8.92,-0.21 12.25,-2.61c3.34,-2.4 6.63,-6.41 6.37,-10.79c-0.23,-3.72 -1.45,-7.38 -1.61,-11.19c-0.04,-0.96 -1.54,-0.97 -1.5,-0.01c0.1,2.42 0.22,4.89 0.68,7.27c0.39,1.99 1.2,3.84 0.75,5.93c-0.68,3.17 -3.08,5.71 -5.62,7.54c-2.69,1.93 -6.48,3.64 -9.89,2.74c-1.81,-0.47 -3.22,-1.84 -4.82,-2.75c-1.94,-1.1 -4,-2 -6.05,-2.86l0,0zm-38.92,-30.73c0.32,-0.91 -1.12,-1.31 -1.45,-0.4c-2.01,5.61 -6.21,10.15 -1.92,15.89c2.13,2.85 5.86,5.03 9.5,4.05c2.79,-0.75 5.39,-2.05 8.26,-2.7c0.94,-0.22 0.56,-1.67 -0.38,-1.45c-1.93,0.44 -3.84,0.95 -5.7,1.61c-1.26,0.45 -2.5,1.23 -3.87,1.28c-2.91,0.12 -5.84,-2.23 -7.24,-4.62c-2.69,-4.61 1.21,-9.25 2.8,-13.66l0,0zm15.17,-44c0.96,-0.13 0.57,-1.57 -0.38,-1.45c-3.61,0.48 -7.52,-0.36 -10.98,0.41c-4.34,0.95 -7.73,5.19 -9.9,8.78c-2.26,3.73 -4.54,9.16 -2.87,13.56c1.22,3.22 3.26,6.11 4.38,9.49c0.31,0.92 1.76,0.54 1.45,-0.38c-0.82,-2.49 -1.74,-4.97 -2.98,-7.28c-2.71,-5.07 -1.67,-9.66 1.31,-14.62c2.81,-4.68 6.37,-8.17 11.94,-8.01c2.7,0.08 5.36,-0.14 8.03,-0.5l0,0z" fill="#FFFFFF" id="svg_187" opacity="0.4"/>
     <path d="m178.19,115.83c4.65,1.3 8.05,3.67 7.59,5.3c-0.45,1.63 -4.59,1.9 -9.24,0.61c-4.64,-1.3 -8.04,-3.67 -7.59,-5.3c0.46,-1.63 4.59,-1.9 9.24,-0.61zm34.11,29.92c-1.01,0.18 -1.41,2.68 -0.88,5.58c0.53,2.89 1.78,5.09 2.8,4.9c1.01,-0.18 1.41,-2.68 0.88,-5.57c-0.53,-2.9 -1.78,-5.1 -2.8,-4.91zm-16.51,43.44c-1.29,-1.8 -5.51,-0.98 -9.43,1.83c-3.92,2.82 -6.05,6.55 -4.76,8.35c1.29,1.8 5.51,0.98 9.43,-1.83c3.92,-2.82 6.05,-6.55 4.76,-8.35zm-57.95,-7.13c1.31,-1.19 0.54,-4.17 -1.72,-6.64c-2.26,-2.46 -5.15,-3.5 -6.46,-2.3c-1.31,1.2 -0.54,4.18 1.72,6.64c2.26,2.47 5.15,3.5 6.46,2.3zm-11.63,-41.46c1.66,1 5.32,-2.04 8.17,-6.78c2.85,-4.74 3.82,-9.4 2.15,-10.4c-1.66,-0.99 -5.32,2.04 -8.17,6.78c-2.85,4.74 -3.81,9.4 -2.15,10.4z" fill="#407BFF" id="svg_188"/>
     <path d="m178.19,115.83c4.65,1.3 8.05,3.67 7.59,5.3c-0.45,1.63 -4.59,1.9 -9.24,0.61c-4.64,-1.3 -8.04,-3.67 -7.59,-5.3c0.46,-1.63 4.59,-1.9 9.24,-0.61zm34.11,29.92c-1.01,0.18 -1.41,2.68 -0.88,5.58c0.53,2.89 1.78,5.09 2.8,4.9c1.01,-0.18 1.41,-2.68 0.88,-5.57c-0.53,-2.9 -1.78,-5.1 -2.8,-4.91zm-16.51,43.44c-1.29,-1.8 -5.51,-0.98 -9.43,1.83c-3.92,2.82 -6.05,6.55 -4.76,8.35c1.29,1.8 5.51,0.98 9.43,-1.83c3.92,-2.82 6.05,-6.55 4.76,-8.35zm-57.95,-7.13c1.31,-1.19 0.54,-4.17 -1.72,-6.64c-2.26,-2.46 -5.15,-3.5 -6.46,-2.3c-1.31,1.2 -0.54,4.18 1.72,6.64c2.26,2.47 5.15,3.5 6.46,2.3zm-11.63,-41.46c1.66,1 5.32,-2.04 8.17,-6.78c2.85,-4.74 3.82,-9.4 2.15,-10.4c-1.66,-0.99 -5.32,2.04 -8.17,6.78c-2.85,4.74 -3.81,9.4 -2.15,10.4z" fill="#FFFFFF" id="svg_189" opacity="0.2"/>
     <g id="svg_190">
      <path d="m141.57,109.95c0.6,1.58 4.74,1.49 9.26,-0.21c4.52,-1.69 7.69,-4.35 7.1,-5.94c-0.59,-1.58 -4.74,-1.49 -9.25,0.21c-4.52,1.7 -7.7,4.35 -7.11,5.94z" fill="#407BFF" id="svg_191"/>
      <path d="m141.57,109.95c0.6,1.58 4.74,1.49 9.26,-0.21c4.52,-1.69 7.69,-4.35 7.1,-5.94c-0.59,-1.58 -4.74,-1.49 -9.25,0.21c-4.52,1.7 -7.7,4.35 -7.11,5.94z" fill="#FFFFFF" id="svg_192" opacity="0.3"/>
      <path d="m166.64,107.77c-1.7,-1.02 -3.33,-2.11 -4.91,-3.31c-1.89,-1.44 -3.07,-2.78 -5.67,-3.03c-3.12,-0.29 -6.57,0.69 -9.37,1.98c-4.18,1.93 -6.54,4.21 -7.44,8.7c-0.45,2.27 -1.1,4.47 -1.89,6.65c-0.16,0.45 -0.89,0.25 -0.72,-0.2c1.07,-2.95 1.15,-6.2 2.21,-9.05c1.38,-3.75 5.55,-6.07 9.05,-7.4c3.33,-1.27 8.21,-2.4 11.59,-0.56c2.67,1.46 4.85,3.97 7.54,5.58c0.41,0.24 0.03,0.89 -0.39,0.64l0,0z" fill="#407BFF" id="svg_193"/>
      <path d="m166.64,107.77c-1.7,-1.02 -3.33,-2.11 -4.91,-3.31c-1.89,-1.44 -3.07,-2.78 -5.67,-3.03c-3.12,-0.29 -6.57,0.69 -9.37,1.98c-4.18,1.93 -6.54,4.21 -7.44,8.7c-0.45,2.27 -1.1,4.47 -1.89,6.65c-0.16,0.45 -0.89,0.25 -0.72,-0.2c1.07,-2.95 1.15,-6.2 2.21,-9.05c1.38,-3.75 5.55,-6.07 9.05,-7.4c3.33,-1.27 8.21,-2.4 11.59,-0.56c2.67,1.46 4.85,3.97 7.54,5.58c0.41,0.24 0.03,0.89 -0.39,0.64l0,0z" fill="#FFFFFF" id="svg_194" opacity="0.4"/>
     </g>
     <g id="svg_195">
      <path d="m219.56,169.63c-1.6,-0.57 -4.22,2.64 -5.86,7.18c-1.64,4.53 -1.68,8.68 -0.09,9.25s4.21,-2.63 5.85,-7.17c1.64,-4.54 1.69,-8.68 0.1,-9.26z" fill="#407BFF" id="svg_196"/>
      <path d="m219.56,169.63c-1.6,-0.57 -4.22,2.64 -5.86,7.18c-1.64,4.53 -1.68,8.68 -0.09,9.25s4.21,-2.63 5.85,-7.17c1.64,-4.54 1.69,-8.68 0.1,-9.26z" fill="#FFFFFF" id="svg_197" opacity="0.2"/>
      <path d="m204.94,190.12c1.87,-0.64 3.77,-1.17 5.7,-1.59c2.33,-0.51 4.12,-0.54 5.99,-2.35c2.25,-2.18 3.74,-5.44 4.58,-8.41c1.25,-4.43 1.04,-7.71 -1.79,-11.3c-1.44,-1.83 -2.69,-3.74 -3.83,-5.76c-0.24,-0.42 0.38,-0.84 0.62,-0.42c1.55,2.73 3.97,4.91 5.45,7.56c1.95,3.48 1.01,8.16 -0.25,11.69c-1.19,3.35 -3.5,7.8 -7.1,9.17c-2.84,1.08 -6.17,1.12 -9.13,2.12c-0.46,0.15 -0.7,-0.56 -0.24,-0.71l0,0z" fill="#407BFF" id="svg_198"/>
      <path d="m204.94,190.12c1.87,-0.64 3.77,-1.17 5.7,-1.59c2.33,-0.51 4.12,-0.54 5.99,-2.35c2.25,-2.18 3.74,-5.44 4.58,-8.41c1.25,-4.43 1.04,-7.71 -1.79,-11.3c-1.44,-1.83 -2.69,-3.74 -3.83,-5.76c-0.24,-0.42 0.38,-0.84 0.62,-0.42c1.55,2.73 3.97,4.91 5.45,7.56c1.95,3.48 1.01,8.16 -0.25,11.69c-1.19,3.35 -3.5,7.8 -7.1,9.17c-2.84,1.08 -6.17,1.12 -9.13,2.12c-0.46,0.15 -0.7,-0.56 -0.24,-0.71l0,0z" fill="#FFFFFF" id="svg_199" opacity="0.3"/>
     </g>
    </g>
    <path d="m168.47,163.76c1.35,-0.06 2.79,-0.26 4.31,-0.64c0.4,-0.1 0.68,-0.55 0.6,-1.02c-0.07,-0.45 -0.45,-0.75 -0.87,-0.65c-11.08,2.75 -17.66,-4.68 -17.73,-4.76c-0.28,-0.33 -0.76,-0.32 -1.06,0.01c-0.3,0.34 -0.32,0.88 -0.03,1.21c0.25,0.29 5.54,6.28 14.78,5.85z" fill="#407BFF" id="svg_200"/>
    <circle cx="158" cy="150.26" fill="#407BFF" id="svg_201" r="4.52"/>
    <circle cx="184.17" cy="150.26" fill="#407BFF" id="svg_202" r="4.52"/>
   </g>
  </g>
  <text fill="#2e5dc5" font-family="Cursive" font-size="20" font-weight="normal" id="svg_203" stroke="#000000" stroke-width="0" text-anchor="middle" transform="matrix(1.19725 0 0 1.07465 -29.9592 -25.3178)" x="236.84" xml:space="preserve" y="420.65">Practice &amp; explore</text>
 </g>
</svg>