<?xml version="1.0"?>
<svg width="500" height="500" xmlns="http://www.w3.org/2000/svg" xmlns:svg="http://www.w3.org/2000/svg" enable-background="new 0 0 500 500" version="1.1" xml:space="preserve">
 <g class="layer">
  <title>Layer 1</title>
  <g id="Character">
   <g id="svg_65">
    <polygon fill="#9F5B53" id="svg_66" points="1115.41796875,313.5279846191406 1119.6700439453125,320.0249938964844 1125.9860229492188,318.7239990234375 1121.2210083007812,310.6399841308594 "/>
    <path d="m1127.47,257.82c0.9,1.09 1.65,2.06 2.42,3.12c0.76,1.04 1.51,2.08 2.24,3.14c1.46,2.11 2.85,4.28 4.15,6.51c1.29,2.24 2.56,4.51 3.66,6.9c0.59,1.17 1.09,2.41 1.63,3.62c0.48,1.25 0.98,2.48 1.39,3.79l0.32,0.97l0.16,0.49c0.09,0.29 0.18,0.6 0.24,0.89c0.25,1.16 0.28,2.22 0.22,3.17c-0.13,1.89 -0.58,3.42 -1.07,4.84c-1.01,2.82 -2.35,5.16 -3.74,7.42c-2.86,4.46 -6.08,8.34 -9.72,12.03l-4.33,-3.42c2.37,-4.13 4.71,-8.44 6.58,-12.64c0.94,-2.09 1.72,-4.23 2.17,-6.13c0.22,-0.94 0.31,-1.84 0.27,-2.42c-0.02,-0.28 -0.08,-0.47 -0.11,-0.5c-0.01,-0.02 -0.02,0 -0.02,0l-0.16,-0.38l-0.33,-0.76c-1.74,-4.09 -4.09,-8.15 -6.6,-12.11c-1.26,-1.98 -2.59,-3.93 -3.94,-5.88c-1.32,-1.93 -2.79,-3.9 -4.11,-5.67l8.68,-6.98z" fill="#9F5B53" id="svg_67"/>
    <g id="svg_68">
     <path d="m1125.03,252.9c6.89,1.58 14.79,20.35 14.79,20.35l-13.83,9.48c0,0 -5.24,-7.33 -9.14,-15.53c-4.08,-8.59 1.14,-15.91 8.18,-14.3z" fill="#407BFF" id="svg_69"/>
     <path d="m1125.03,252.9c6.89,1.58 14.79,20.35 14.79,20.35l-13.83,9.48c0,0 -5.24,-7.33 -9.14,-15.53c-4.08,-8.59 1.14,-15.91 8.18,-14.3z" fill="#FFFFFF" id="svg_70" opacity="0.8"/>
    </g>
    <g id="svg_71">
     <path d="m1120.1,264.87l6.54,17.41l-0.65,0.45c0,0 -2.83,-3.97 -5.89,-9.33l0,-8.53z" fill="#407BFF" id="svg_72"/>
     <path d="m1120.1,264.87l6.54,17.41l-0.65,0.45c0,0 -2.83,-3.97 -5.89,-9.33l0,-8.53z" fill="#FFFFFF" id="svg_73" opacity="0.6"/>
    </g>
    <polygon fill="#9F5B53" id="svg_74" points="1102.6380004882812,503.64404296875 1095.291015625,503.64404296875 1094.5599975585938,486.6319885253906 1101.906005859375,486.6319885253906 "/>
    <polygon fill="#9F5B53" id="svg_75" points="1146.7460327148438,503.64404296875 1139.4000244140625,503.64404296875 1135.70703125,486.6319885253906 1143.053955078125,486.6319885253906 "/>
    <g id="svg_76">
     <polygon fill="#8A4743" id="svg_77" points="1094.56103515625,486.635986328125 1094.93701171875,495.40496826171875 1102.2869873046875,495.40496826171875 1101.9110107421875,486.635986328125 "/>
     <polygon fill="#8A4743" id="svg_78" points="1143.0560302734375,486.635986328125 1135.70703125,486.635986328125 1137.614013671875,495.40496826171875 1144.9630126953125,495.40496826171875 "/>
    </g>
    <g id="svg_79">
     <path d="m1097.38,316.78c0,0 8.34,56.14 12.91,77.17c5.02,23.04 23.9,99.76 23.9,99.76l13.45,0c0,0 -12.45,-74.87 -15.31,-97.67c-3.1,-24.75 -9.6,-79.26 -9.6,-79.26l-25.35,0z" fill="#407BFF" id="svg_80"/>
     <path d="m1097.38,316.78c0,0 8.34,56.14 12.91,77.17c5.02,23.04 23.9,99.76 23.9,99.76l13.45,0c0,0 -12.45,-74.87 -15.31,-97.67c-3.1,-24.75 -9.6,-79.26 -9.6,-79.26l-25.35,0z" id="svg_81" opacity="0.5"/>
    </g>
    <path d="m1102.65,336.78c9.64,1.89 8.62,37.84 7.46,56.33c-2.78,-13.07 -6.85,-38.22 -9.63,-56.07c0.64,-0.32 1.36,-0.42 2.17,-0.26z" id="svg_82" opacity="0.4"/>
    <g id="svg_83">
     <path d="m1083.44,316.78c0,0 -1.01,54.92 -0.21,77.33c0.83,23.3 8.97,99.6 8.97,99.6l12.44,0c0,0 0.46,-74.94 1.01,-97.82c0.61,-24.95 3.62,-79.11 3.62,-79.11l-25.83,0z" fill="#407BFF" id="svg_84"/>
     <path d="m1083.44,316.78c0,0 -1.01,54.92 -0.21,77.33c0.83,23.3 8.97,99.6 8.97,99.6l12.44,0c0,0 0.46,-74.94 1.01,-97.82c0.61,-24.95 3.62,-79.11 3.62,-79.11l-25.83,0z" id="svg_85" opacity="0.5"/>
    </g>
    <path d="m1126.59,309.72l-5.37,0.92l4.77,8.08c0,0 3.74,-1.79 4.41,-5.29l-3.81,-3.71z" fill="#9F5B53" id="svg_86"/>
    <path d="m1091.1,225.6c0,0.59 -0.31,1.07 -0.7,1.07c-0.39,0 -0.7,-0.48 -0.7,-1.07c0,-0.59 0.31,-1.07 0.7,-1.07c0.39,0 0.7,0.48 0.7,1.07z" fill="#263238" id="svg_87"/>
    <path d="m1090.84,226.67c0,0 -1.35,3.42 -2.83,5.07c1.05,0.98 2.83,0.53 2.83,0.53l0,-5.6z" fill="#892B29" id="svg_88"/>
    <path d="m1093.2,222.32c-0.07,0 -0.14,-0.02 -0.2,-0.07c-1.26,-0.91 -2.46,-0.46 -2.48,-0.45c-0.17,0.07 -0.38,-0.02 -0.44,-0.2c-0.07,-0.18 0.02,-0.38 0.19,-0.45c0.07,-0.03 1.57,-0.59 3.13,0.54c0.16,0.11 0.2,0.33 0.08,0.48c-0.06,0.1 -0.17,0.15 -0.28,0.15z" fill="#263238" id="svg_89"/>
    <path d="m1110.23,232.43c-1.06,5.38 -2.11,15.22 1.65,18.81c0,0 -1.47,5.45 -11.46,5.45c-10.98,0 -5.24,-5.45 -5.24,-5.45c5.99,-1.43 5.83,-5.88 4.79,-10.05l10.26,-8.76z" fill="#9F5B53" id="svg_90"/>
    <path d="m1113.32,253.11c0.79,-1.73 1.65,-3.7 -0.14,-4.32c-1.97,-0.68 -12.77,-1.37 -16.49,-0.1s-2.67,4.78 -2.67,4.78l19.3,-0.36z" fill="#407BFF" id="svg_91"/>
    <path d="m1136.45,504.02c-0.75,0 -1.48,-0.11 -1.76,-0.48c-0.12,-0.16 -0.22,-0.43 0,-0.83c0.12,-0.21 0.3,-0.35 0.55,-0.4c1.08,-0.25 3.1,1.13 3.19,1.19c0.06,0.04 0.08,0.11 0.07,0.18c-0.01,0.06 -0.06,0.12 -0.13,0.13c-0.38,0.09 -1.16,0.21 -1.92,0.21zm-0.91,-1.4c-0.08,0 -0.15,0.01 -0.22,0.02c-0.15,0.04 -0.25,0.12 -0.32,0.24c-0.16,0.28 -0.06,0.4 -0.03,0.44c0.31,0.42 1.81,0.42 2.91,0.24c-0.63,-0.39 -1.68,-0.94 -2.34,-0.94z" fill="#407BFF" id="svg_92"/>
    <path d="m1138.33,503.82c-0.03,0 -0.06,-0.01 -0.08,-0.02c-0.76,-0.42 -2.23,-2.03 -2.08,-2.85c0.03,-0.14 0.14,-0.4 0.56,-0.45c0.26,-0.03 0.51,0.04 0.74,0.22c0.85,0.7 1.03,2.82 1.03,2.91c0.01,0.06 -0.02,0.12 -0.08,0.16c-0.02,0.02 -0.06,0.03 -0.09,0.03zm-1.48,-2.98c-0.03,0 -0.06,0 -0.08,0c-0.23,0.03 -0.25,0.14 -0.26,0.18c-0.09,0.49 0.85,1.7 1.61,2.27c-0.09,-0.61 -0.32,-1.85 -0.87,-2.3c-0.13,-0.1 -0.26,-0.15 -0.4,-0.15z" fill="#407BFF" id="svg_93"/>
    <path d="m1092.34,504.02c-0.94,0 -1.85,-0.13 -2.16,-0.55c-0.1,-0.15 -0.19,-0.4 0.02,-0.76c0.11,-0.21 0.3,-0.34 0.55,-0.41c1.22,-0.32 3.79,1.13 3.9,1.19c0.06,0.04 0.09,0.11 0.08,0.18c-0.01,0.07 -0.06,0.13 -0.14,0.14c-0.46,0.1 -1.37,0.21 -2.25,0.21zm-1.16,-1.42c-0.13,0 -0.24,0.01 -0.34,0.04c-0.16,0.04 -0.27,0.12 -0.34,0.24c-0.12,0.22 -0.08,0.32 -0.04,0.38c0.34,0.46 2.19,0.49 3.57,0.3c-0.68,-0.35 -2,-0.96 -2.85,-0.96z" fill="#407BFF" id="svg_94"/>
    <path d="m1094.56,503.82c-0.02,0 -0.05,-0.01 -0.07,-0.02c-0.89,-0.39 -2.64,-1.98 -2.51,-2.81c0.03,-0.2 0.17,-0.44 0.65,-0.49c0.35,-0.03 0.68,0.06 0.96,0.3c0.94,0.76 1.13,2.74 1.14,2.83c0.01,0.06 -0.02,0.12 -0.07,0.16c-0.03,0.02 -0.06,0.03 -0.1,0.03zm-1.79,-2.98c-0.04,0 -0.07,0 -0.11,0c-0.31,0.04 -0.33,0.16 -0.34,0.2c-0.08,0.5 1.12,1.75 2.02,2.29c-0.09,-0.58 -0.35,-1.76 -0.97,-2.27c-0.18,-0.15 -0.38,-0.22 -0.6,-0.22z" fill="#407BFF" id="svg_95"/>
    <path d="m1138.88,502.79l8.25,0c0.3,0 0.56,0.21 0.63,0.51l1.45,6.52c0.15,0.68 -0.39,1.32 -1.08,1.31c-2.88,-0.05 -4.28,-0.22 -7.91,-0.22c-2.23,0 -6.83,0.23 -9.92,0.23c-3.01,0 -3.48,-3.04 -2.22,-3.32c5.66,-1.24 7.79,-2.95 9.6,-4.58c0.33,-0.29 0.76,-0.45 1.2,-0.45z" fill="#263238" id="svg_96"/>
    <path d="m1095.34,502.79l8.02,0c0.3,0 0.56,0.21 0.63,0.51l1.45,6.52c0.15,0.68 -0.36,1.32 -1.06,1.31c-2.89,-0.05 -7.07,-0.22 -10.71,-0.22c-4.25,0 -7.93,0.24 -12.91,0.24c-3.02,0 -3.86,-3.05 -2.6,-3.33c5.75,-1.26 10.44,-1.39 15.41,-4.45c0.54,-0.34 1.14,-0.58 1.77,-0.58z" fill="#263238" id="svg_97"/>
    <path d="m1084.85,267.93c-2.91,4.3 -5.92,8.31 -9.16,12.29c-3.24,3.96 -6.65,7.81 -10.41,11.47l-1.44,1.37l-0.36,0.34l-0.26,0.23l-0.37,0.32c-0.49,0.39 -1.01,0.74 -1.51,1.01c-2.02,1.09 -3.83,1.37 -5.45,1.52c-3.24,0.25 -5.98,-0.18 -8.66,-0.71c-5.31,-1.15 -10.1,-2.93 -14.85,-5.22l1.83,-5.2c4.72,0.87 9.62,1.66 14.19,1.93c2.27,0.13 4.54,0.1 6.27,-0.26c0.85,-0.17 1.52,-0.49 1.66,-0.65c0.05,-0.03 0.04,-0.06 0.03,-0.06c-0.01,0 -0.02,0 -0.02,0c0,0 -0.02,0.02 0,0l0.07,-0.09l0.3,-0.32l1.18,-1.3c3.13,-3.57 6.16,-7.36 9.1,-11.25c2.95,-3.85 5.88,-7.86 8.7,-11.74l9.16,6.32z" fill="#9F5B53" id="svg_98"/>
    <path d="m1088.24,269.08c-0.13,0.16 -0.99,9.03 -7.76,16.82c-0.16,-3.52 -0.22,-6.68 -0.21,-9.51l7.97,-7.31z" fill="#BED3FC" id="svg_99"/>
    <path d="m1110.87,224.34c-0.45,7.28 -0.34,11.56 -4.02,15.3c-5.53,5.62 -14.51,2.28 -16.25,-4.98c-1.56,-6.54 -0.57,-17.34 6.56,-20.24c7.01,-2.85 14.15,2.65 13.71,9.92z" fill="#9F5B53" id="svg_100"/>
    <path d="m1096.73,219.5c0.05,8.56 2.83,19.06 11.11,18.33c5.5,-0.48 9.68,-10.52 10.25,-14.76c0.87,-6.5 0.97,-7.74 -2.66,-8.49c1.6,-0.87 2.18,-4.99 -1.56,-5.98c-5.2,-1.37 -14.98,-2.71 -11.92,-5.88c-6.14,1.11 -7.68,3.57 -6.56,6.56c-3.59,-0.28 -5.8,-2.16 -5.69,-5c-5.95,2.39 -9.81,16.02 7.03,15.22z" fill="#263238" id="svg_101"/>
    <path d="m1101.04,226.46c-0.4,1.87 -1.55,3.5 -2.78,4.5c-1.85,1.5 -3.34,0.16 -3.29,-2.01c0.04,-1.95 1.06,-5.08 3.14,-5.74c2.06,-0.65 3.39,1.12 2.93,3.25z" fill="#9F5B53" id="svg_102"/>
    <path d="m1121.05,216.07c-1.04,-0.57 -3.4,-1.88 -6.64,-0.48c0,0 4.12,-5.63 6.64,0.48z" fill="#263238" id="svg_103"/>
    <path d="m1132.04,488.75c-0.06,0 1.39,5.17 1.39,5.17l15.14,0l-0.28,-4.61l-16.25,-0.56z" fill="#407BFF" id="svg_104"/>
    <path d="m1089.81,488.75c-0.06,0 0.7,5.17 0.7,5.17l15.14,0l0.41,-4.61l-16.25,-0.56z" fill="#407BFF" id="svg_105"/>
    <g id="svg_106">
     <path d="m1094.79,484.77c-0.06,0 -0.12,-0.05 -0.12,-0.11c-2.2,-21.12 -7.37,-72.22 -8.02,-90.55c-0.67,-18.71 -0.07,-60.69 0.14,-73.11c0,-0.07 0.06,-0.11 0.12,-0.12c0.07,0 0.13,0.06 0.13,0.12c-0.2,12.42 -0.81,54.4 -0.14,73.1c0.65,18.33 5.82,69.41 8.01,90.53c0.01,0.07 -0.04,0.13 -0.11,0.14c0,0 0,0 -0.01,0z" fill="#407BFF" id="svg_107"/>
     <path d="m1094.79,484.77c-0.06,0 -0.12,-0.05 -0.12,-0.11c-2.2,-21.12 -7.37,-72.22 -8.02,-90.55c-0.67,-18.71 -0.07,-60.69 0.14,-73.11c0,-0.07 0.06,-0.11 0.12,-0.12c0.07,0 0.13,0.06 0.13,0.12c-0.2,12.42 -0.81,54.4 -0.14,73.1c0.65,18.33 5.82,69.41 8.01,90.53c0.01,0.07 -0.04,0.13 -0.11,0.14c0,0 0,0 -0.01,0z" id="svg_108" opacity="0.3"/>
    </g>
    <g id="svg_109">
     <path d="m1091.63,259.24c0.97,6.95 -12.74,24.72 -12.74,24.72l-13.77,-9.48c0,0 3.82,-9.79 10.25,-16.21c7.34,-7.33 15.2,-6.61 16.26,0.97z" fill="#407BFF" id="svg_110"/>
     <path d="m1091.63,259.24c0.97,6.95 -12.74,24.72 -12.74,24.72l-13.77,-9.48c0,0 3.82,-9.79 10.25,-16.21c7.34,-7.33 15.2,-6.61 16.26,0.97z" fill="#FFFFFF" id="svg_111" opacity="0.8"/>
    </g>
    <g id="svg_112">
     <path d="m1083.88,253.28c0,0 -7.82,8.83 -0.44,63.5c11.84,0 33.53,0 39.3,0c0.27,-6.04 -3.52,-35.46 2.29,-63.88c0,0 -6.73,-1.35 -13.15,-1.66c-5.02,-0.24 -12.29,-0.4 -16.7,0c-5.82,0.53 -11.3,2.04 -11.3,2.04z" fill="#407BFF" id="svg_113"/>
     <path d="m1083.88,253.28c0,0 -7.82,8.83 -0.44,63.5c11.84,0 33.53,0 39.3,0c0.27,-6.04 -3.52,-35.46 2.29,-63.88c0,0 -6.73,-1.35 -13.15,-1.66c-5.02,-0.24 -12.29,-0.4 -16.7,0c-5.82,0.53 -11.3,2.04 -11.3,2.04z" fill="#FFFFFF" id="svg_114" opacity="0.8"/>
    </g>
   </g>
  </g>
  <g id="svg_1">
   <g display="none" id="Background_simple">
    <g display="inline" id="svg_61">
     <path d="m251.07,114.1c45,0.85 93.39,-31.17 136.09,-2.92c41.66,27.57 39.81,77.27 17.54,116.4c-32.42,56.92 -83.68,42.8 -134.18,67.34c-47.81,23.23 -69.09,74.26 -130.24,73.58c-40,-0.44 -111.84,-41.45 -104.93,-89.28c4.86,-33.72 50.08,-42.94 63.2,-74.59c19.2,-46.3 -21.34,-102.95 36.41,-127.45c54.05,-22.94 62.64,35.91 116.12,36.92z" fill="#407BFF" id="svg_62"/>
     <path d="m251.07,114.1c45,0.85 93.39,-31.17 136.09,-2.92c41.66,27.57 39.81,77.27 17.54,116.4c-32.42,56.92 -83.68,42.8 -134.18,67.34c-47.81,23.23 -69.09,74.26 -130.24,73.58c-40,-0.44 -111.84,-41.45 -104.93,-89.28c4.86,-33.72 50.08,-42.94 63.2,-74.59c19.2,-46.3 -21.34,-102.95 36.41,-127.45c54.05,-22.94 62.64,35.91 116.12,36.92z" fill="#FFFFFF" id="svg_63" opacity="0.9"/>
    </g>
   </g>
   <g id="Buttons" transform="matrix(0 1.10974 -1.11052 0 388.615 -46.3971)">
    <g id="svg_115">
     <g id="svg_116">
      <ellipse cx="106.31" cy="151.43" fill="#407BFF" id="svg_117" rx="25.67" ry="25.67" transform="matrix(0.412037 -1.78917 1.81408 0.406378 -14.7326 251.001)"/>
      <ellipse cx="106.31" cy="151.43" fill="#FFFFFF" id="svg_118" opacity="0.2" rx="25.67" ry="25.67" transform="matrix(0.412037 -1.78917 1.81408 0.406378 -14.7326 251.001)"/>
     </g>
     <g id="svg_119">
      <g id="svg_120">
       <path d="m298.83,183.38c-25.37,-2 -46.69,-18.79 -54.3,-42.75l1.77,-0.55c7.39,23.25 28.07,39.52 52.68,41.46l-0.15,1.83l0,0.01z" fill="#407BFF" id="svg_121"/>
       <path d="m298.83,183.38c-25.37,-2 -46.69,-18.79 -54.3,-42.75l1.77,-0.55c7.39,23.25 28.07,39.52 52.68,41.46l-0.15,1.83l0,0.01z" fill="#FFFFFF" id="svg_122" opacity="0.2"/>
      </g>
      <g id="svg_123">
       <path d="m246.04,105.35l-1.77,-0.51c5.92,-19.56 21.23,-34.86 40.94,-40.95c12.74,-3.93 26.12,-3.76 38.71,0.51l-0.6,1.74c-12.22,-4.15 -25.21,-4.33 -37.58,-0.5c-19.1,5.91 -33.95,20.75 -39.72,39.7l0.02,0.01z" fill="#407BFF" id="svg_124"/>
       <path d="m246.04,105.35l-1.77,-0.51c5.92,-19.56 21.23,-34.86 40.94,-40.95c12.74,-3.93 26.12,-3.76 38.71,0.51l-0.6,1.74c-12.22,-4.15 -25.21,-4.33 -37.58,-0.5c-19.1,5.91 -33.95,20.75 -39.72,39.7l0.02,0.01z" fill="#FFFFFF" id="svg_125" opacity="0.2"/>
      </g>
      <g id="svg_126">
       <path d="m361.24,104.57c-4.35,-13.72 -13.6,-25.41 -26.02,-32.9l0.97,-1.58c12.8,7.72 22.34,19.78 26.82,33.92l-1.77,0.55l0,0.01z" fill="#407BFF" id="svg_127"/>
       <path d="m361.24,104.57c-4.35,-13.72 -13.6,-25.41 -26.02,-32.9l0.97,-1.58c12.8,7.72 22.34,19.78 26.82,33.92l-1.77,0.55l0,0.01z" fill="#FFFFFF" id="svg_128" opacity="0.2"/>
      </g>
     </g>
     <g id="svg_129">
      <ellipse cx="106.31" cy="222.3" fill="#407BFF" id="svg_130" rx="25.67" ry="25.67" transform="matrix(0.412037 -1.78917 1.81408 0.406378 -143.285 352.223)"/>
      <ellipse cx="106.31" cy="222.3" fill="#FFFFFF" id="svg_131" opacity="0.6" rx="25.67" ry="25.67" transform="matrix(0.412037 -1.78917 1.81408 0.406378 -143.285 352.223)"/>
     </g>
     <g id="svg_132"/>
     <g id="svg_135"/>
     <g id="svg_138">
      <ellipse cx="35.45" cy="151.43" fill="#407BFF" id="svg_139" rx="25.67" ry="25.67" transform="matrix(0.412037 -1.78917 1.81408 0.406378 -117.364 124.214)"/>
      <ellipse cx="35.45" cy="151.43" fill="#FFFFFF" id="svg_140" opacity="0.6" rx="25.67" ry="25.67" transform="matrix(0.412037 -1.78917 1.81408 0.406378 -117.364 124.214)"/>
     </g>
     <g id="svg_141">
      <ellipse cx="35.45" cy="222.3" fill="#407BFF" id="svg_142" rx="25.67" ry="25.67" transform="matrix(0.412037 -1.78917 1.81408 0.406378 -245.917 225.436)"/>
      <ellipse cx="35.45" cy="222.3" fill="#FFFFFF" id="svg_143" opacity="0.6" rx="25.67" ry="25.67" transform="matrix(0.412037 -1.78917 1.81408 0.406378 -245.917 225.436)"/>
     </g>
    </g>
   </g>
   <g id="Hand">
    <g id="svg_150">
     <path d="m409.3,420.71l-9.18,-9.49l-9.79,12.62c0,0 7.46,7.18 16.35,5.15l2.64,-8.29l-0.01,0.01z" fill="#9F5B53" id="svg_151"/>
     <polygon fill="#9F5B53" id="svg_152" points="387.4833679199219,406.0067138671875 383.288818359375,419.24664306640625 390.3074645996094,423.839599609375 400.1075439453125,411.22576904296875 "/>
     <g id="svg_153">
      <path d="m262.37,406.73c3.32,-9.77 14.49,-13.93 23.27,-9.36l-10.16,-5.3c-7.75,-4.05 -11.52,-13.41 -8.01,-21.4c3.83,-8.8 14.37,-12.38 22.73,-8.03l-10.16,-5.29c-7.75,-4.05 -11.52,-13.41 -8.01,-21.42c3.83,-8.8 14.37,-12.38 22.73,-8.01l-48.55,-25.35c-7.26,-3.8 -11.08,-12.28 -8.44,-20.02c3.32,-9.77 14.47,-13.93 23.27,-9.36l102.25,53.37l-10.53,-43.02c-1.05,-4.28 -0.41,-8.62 1.5,-12.26c2.1,-4 5.71,-7.18 10.32,-8.61c8.85,-2.79 18.3,1.8 21.64,10.43l33.56,86.96c2.87,7.44 8.35,13.57 15.4,17.27l5.84,3.04c3.76,1.95 5.22,6.6 3.24,10.36l-40.86,77.99c-1.98,3.76 -6.61,5.2 -10.38,3.25l-14.35,-7.48c-5.42,-2.84 -11.52,-3.98 -17.62,-3.64c-14.69,0.82 -29.38,-2.33 -42.51,-9.19l-47.72,-24.9c-7.26,-3.8 -11.08,-12.28 -8.45,-20.02l0,-0.01z" fill="#407BFF" id="svg_154"/>
      <path d="m396.58,475.39c-1.6,0 -3.22,-0.38 -4.74,-1.15l-14.35,-7.48c-4.82,-2.52 -10.45,-3.67 -16.29,-3.35c-15.18,0.85 -30.35,-2.43 -43.83,-9.48l-47.72,-24.9c-8.48,-4.43 -12.65,-14.36 -9.66,-23.1c1.79,-5.29 5.77,-9.51 10.96,-11.56c0.7,-0.29 1.41,-0.53 2.13,-0.71c-8.23,-5.07 -11.73,-15.33 -7.94,-23.98c2.13,-4.88 6.09,-8.56 11.13,-10.32c0.46,-0.16 0.92,-0.29 1.38,-0.42c-8.25,-5.05 -11.73,-15.33 -7.94,-23.98c2.13,-4.88 6.09,-8.54 11.13,-10.31c0.42,-0.16 0.87,-0.29 1.3,-0.41l-37.09,-19.35c-8.48,-4.43 -12.65,-14.36 -9.66,-23.1c1.79,-5.29 5.8,-9.51 10.96,-11.56c5.19,-2.08 10.99,-1.8 15.9,0.77l97.25,50.76l-9.18,-37.54c-1.18,-4.75 -0.57,-9.73 1.7,-14.07c2.49,-4.75 6.69,-8.25 11.82,-9.85c10.09,-3.18 20.98,2.08 24.8,11.94l33.54,86.96c2.65,6.86 7.71,12.52 14.24,15.92l5.83,3.04c5.01,2.61 6.95,8.8 4.33,13.79l-40.86,78.01c-1.84,3.48 -5.41,5.48 -9.11,5.48l-0.01,-0.02zm-33.46,-17.17c5.96,0 11.7,1.38 16.76,4l14.35,7.48c1.21,0.63 2.59,0.77 3.9,0.36c1.31,-0.41 2.39,-1.31 3.02,-2.52l40.87,-78.01c1.31,-2.5 0.32,-5.59 -2.18,-6.9l-5.83,-3.04c-7.64,-3.98 -13.54,-10.6 -16.61,-18.61l-33.56,-86.96c-2.84,-7.37 -10.96,-11.27 -18.49,-8.91c-3.82,1.19 -6.95,3.81 -8.81,7.35c-1.69,3.23 -2.14,6.96 -1.28,10.5l10.53,43.02c0.23,0.97 -0.12,1.99 -0.9,2.62c-0.8,0.61 -1.88,0.71 -2.77,0.23l-102.26,-53.37c-3.58,-1.88 -7.82,-2.08 -11.63,-0.57c-3.83,1.53 -6.7,4.54 -8.03,8.47c-2.17,6.39 0.92,13.67 7.21,16.95l48.55,25.35c1.24,0.64 1.72,2.2 1.08,3.44c-0.64,1.25 -2.2,1.73 -3.44,1.09c-3.41,-1.76 -7.43,-2.05 -11.08,-0.79c-3.7,1.31 -6.57,3.98 -8.15,7.56c-2.9,6.64 0.1,14.62 6.85,18.13l10.17,5.3l0,0c1.24,0.64 1.72,2.2 1.08,3.44c-0.64,1.24 -2.2,1.73 -3.44,1.08l-0.02,0c-3.39,-1.76 -7.43,-2.04 -11.06,-0.77c-3.7,1.3 -6.57,3.98 -8.15,7.56c-2.9,6.64 0.12,14.59 6.87,18.12l10.14,5.3c0,0 0,0 0.02,0l0,0c1.24,0.67 1.74,2.2 1.08,3.45c-0.64,1.24 -2.2,1.72 -3.44,1.08l-0.02,-0.02c-3.6,-1.85 -7.82,-2.05 -11.63,-0.54c-3.83,1.53 -6.69,4.54 -8.03,8.47l0,0c-2.17,6.38 0.93,13.66 7.21,16.95l47.72,24.9c12.68,6.61 26.91,9.68 41.18,8.9c0.76,-0.06 1.49,-0.07 2.22,-0.07l0.01,0zm-100.75,-51.49l0.02,0l-0.02,0z" fill="#407BFF" id="svg_155"/>
      <path d="m298.39,406.57c-0.41,0 -0.8,-0.1 -1.19,-0.29l-12.73,-6.65c-1.27,-0.64 -1.74,-2.2 -1.09,-3.44c0.67,-1.25 2.2,-1.73 3.46,-1.09l12.73,6.65c1.27,0.67 1.74,2.2 1.09,3.45c-0.46,0.87 -1.34,1.36 -2.27,1.36l-0.01,0z" fill="#407BFF" id="svg_156"/>
      <path d="m302.96,371.84c-0.41,0 -0.82,-0.09 -1.19,-0.29l-12.73,-6.65c-1.27,-0.64 -1.74,-2.2 -1.09,-3.44c0.67,-1.24 2.2,-1.73 3.46,-1.08l12.73,6.65c1.27,0.64 1.74,2.2 1.09,3.44c-0.46,0.87 -1.34,1.36 -2.27,1.36l-0.01,0z" fill="#407BFF" id="svg_157"/>
      <path d="m307.51,337.11c-0.39,0 -0.8,-0.1 -1.18,-0.29l-12.75,-6.65c-1.24,-0.67 -1.72,-2.2 -1.08,-3.45c0.64,-1.24 2.2,-1.73 3.46,-1.08l12.73,6.65c1.27,0.64 1.74,2.2 1.08,3.44c-0.44,0.87 -1.33,1.38 -2.27,1.38z" fill="#407BFF" id="svg_158"/>
     </g>
     <path d="m396.58,475.39c-1.6,0 -3.22,-0.38 -4.74,-1.15l-14.35,-7.48c-4.82,-2.52 -10.45,-3.67 -16.29,-3.35c-15.18,0.85 -30.35,-2.43 -43.83,-9.48l-47.72,-24.9c-8.48,-4.43 -12.65,-14.36 -9.66,-23.1c1.79,-5.29 5.77,-9.51 10.96,-11.56c0.7,-0.29 1.41,-0.53 2.13,-0.71c-8.23,-5.07 -11.73,-15.33 -7.94,-23.98c2.13,-4.88 6.09,-8.56 11.13,-10.32c0.46,-0.16 0.92,-0.29 1.38,-0.42c-8.25,-5.05 -11.73,-15.33 -7.94,-23.98c2.13,-4.88 6.09,-8.54 11.13,-10.31c0.42,-0.16 0.87,-0.29 1.3,-0.41l-37.09,-19.35c-8.48,-4.43 -12.65,-14.36 -9.66,-23.1c1.79,-5.29 5.8,-9.51 10.96,-11.56c5.19,-2.08 10.99,-1.8 15.9,0.77l97.25,50.76l-9.18,-37.54c-1.18,-4.75 -0.57,-9.73 1.7,-14.07c2.49,-4.75 6.69,-8.25 11.82,-9.85c10.09,-3.18 20.98,2.08 24.8,11.94l33.54,86.96c2.65,6.86 7.71,12.52 14.24,15.92l5.83,3.04c5.01,2.61 6.95,8.8 4.33,13.79l-40.86,78.01c-1.84,3.48 -5.41,5.48 -9.11,5.48l-0.01,-0.02zm-33.46,-17.17c5.96,0 11.7,1.38 16.76,4l14.35,7.48c1.21,0.63 2.59,0.77 3.9,0.36c1.31,-0.41 2.39,-1.31 3.02,-2.52l40.87,-78.01c1.31,-2.5 0.32,-5.59 -2.18,-6.9l-5.83,-3.04c-7.64,-3.98 -13.54,-10.6 -16.61,-18.61l-33.56,-86.96c-2.84,-7.37 -10.96,-11.27 -18.49,-8.91c-3.82,1.19 -6.95,3.81 -8.81,7.35c-1.69,3.23 -2.14,6.96 -1.28,10.5l10.53,43.02c0.23,0.97 -0.12,1.99 -0.9,2.62c-0.8,0.61 -1.88,0.71 -2.77,0.23l-102.26,-53.37c-3.58,-1.88 -7.82,-2.08 -11.63,-0.57c-3.83,1.53 -6.7,4.54 -8.03,8.47c-2.17,6.39 0.92,13.67 7.21,16.95l48.55,25.35c1.24,0.64 1.72,2.2 1.08,3.44c-0.64,1.25 -2.2,1.73 -3.44,1.09c-3.41,-1.76 -7.43,-2.05 -11.08,-0.79c-3.7,1.31 -6.57,3.98 -8.15,7.56c-2.9,6.64 0.1,14.62 6.85,18.13l10.17,5.3l0,0c1.24,0.64 1.72,2.2 1.08,3.44c-0.64,1.24 -2.2,1.73 -3.44,1.08l-0.02,0c-3.39,-1.76 -7.43,-2.04 -11.06,-0.77c-3.7,1.3 -6.57,3.98 -8.15,7.56c-2.9,6.64 0.12,14.59 6.87,18.12l10.14,5.3c0,0 0,0 0.02,0l0,0c1.24,0.67 1.74,2.2 1.08,3.45c-0.64,1.24 -2.2,1.72 -3.44,1.08l-0.02,-0.02c-3.6,-1.85 -7.82,-2.05 -11.63,-0.54c-3.83,1.53 -6.69,4.54 -8.03,8.47l0,0c-2.17,6.38 0.93,13.66 7.21,16.95l47.72,24.9c12.68,6.61 26.91,9.68 41.18,8.9c0.76,-0.06 1.49,-0.07 2.22,-0.07l0.01,0zm-100.75,-51.49l0.02,0l-0.02,0z" id="svg_159" opacity="0.3"/>
    </g>
   </g>
  </g>
 </g>
</svg>