<?xml version="1.0"?>
<svg width="500" height="500" xmlns="http://www.w3.org/2000/svg" xmlns:svg="http://www.w3.org/2000/svg" enable-background="new 0 0 500 500" version="1.1" xml:space="preserve">
 <g class="layer">
  <title>Layer 1</title>
  <g id="svg_1">
   <g display="none" id="Background_simple">
    <g display="inline" id="svg_61">
     <path d="m269.07,116.1c45,0.85 93.39,-31.17 136.09,-2.92c41.66,27.57 39.81,77.27 17.54,116.4c-32.42,56.92 -83.68,42.8 -134.18,67.34c-47.81,23.23 -69.09,74.26 -130.24,73.58c-40,-0.44 -111.84,-41.45 -104.93,-89.28c4.86,-33.72 50.08,-42.94 63.2,-74.59c19.2,-46.3 -21.34,-102.95 36.41,-127.45c54.05,-22.94 62.64,35.91 116.12,36.92l-0.01,0z" fill="#407BFF" id="svg_62"/>
     <path d="m269.07,116.1c45,0.85 93.39,-31.17 136.09,-2.92c41.66,27.57 39.81,77.27 17.54,116.4c-32.42,56.92 -83.68,42.8 -134.18,67.34c-47.81,23.23 -69.09,74.26 -130.24,73.58c-40,-0.44 -111.84,-41.45 -104.93,-89.28c4.86,-33.72 50.08,-42.94 63.2,-74.59c19.2,-46.3 -21.34,-102.95 36.41,-127.45c54.05,-22.94 62.64,35.91 116.12,36.92l-0.01,0z" fill="#FFFFFF" id="svg_63" opacity="0.9"/>
    </g>
   </g>
   <g id="Buttons" transform="matrix(0 1.10974 -1.11052 0 388.615 -46.3971)">
    <g id="svg_115">
     <g id="svg_116">
      <ellipse cx="115.14" cy="150.42" fill="#407BFF" id="svg_117" rx="25.67" ry="25.67" transform="matrix(0.412037 -1.78917 1.81408 0.406378 -14.7326 251.001)"/>
      <ellipse cx="115.14" cy="150.42" fill="#FFFFFF" id="svg_118" opacity="0.2" rx="25.67" ry="25.67" transform="matrix(0.412037 -1.78917 1.81408 0.406378 -14.7326 251.001)"/>
     </g>
     <g id="svg_119">
      <g id="svg_120">
       <path d="m300.63,167.17c-25.37,-2 -46.69,-18.79 -54.3,-42.75l1.77,-0.55c7.39,23.25 28.07,39.52 52.68,41.46l-0.15,1.83l0,0.01z" fill="#407BFF" id="svg_121"/>
       <path d="m300.63,167.17c-25.37,-2 -46.69,-18.79 -54.3,-42.75l1.77,-0.55c7.39,23.25 28.07,39.52 52.68,41.46l-0.15,1.83l0,0.01z" fill="#FFFFFF" id="svg_122" opacity="0.2"/>
      </g>
      <g id="svg_123">
       <path d="m247.84,89.14l-1.77,-0.51c5.92,-19.56 21.23,-34.86 40.94,-40.95c12.74,-3.93 26.12,-3.76 38.71,0.51l-0.6,1.74c-12.22,-4.15 -25.21,-4.33 -37.58,-0.5c-19.1,5.91 -33.95,20.75 -39.72,39.7l0.02,0.01z" fill="#407BFF" id="svg_124"/>
       <path d="m247.84,89.14l-1.77,-0.51c5.92,-19.56 21.23,-34.86 40.94,-40.95c12.74,-3.93 26.12,-3.76 38.71,0.51l-0.6,1.74c-12.22,-4.15 -25.21,-4.33 -37.58,-0.5c-19.1,5.91 -33.95,20.75 -39.72,39.7l0.02,0.01z" fill="#FFFFFF" id="svg_125" opacity="0.2"/>
      </g>
      <g id="svg_126">
       <path d="m363.04,88.36c-4.35,-13.72 -13.6,-25.41 -26.02,-32.9l0.97,-1.58c12.8,7.72 22.34,19.78 26.82,33.92l-1.77,0.55l0,0.01z" fill="#407BFF" id="svg_127"/>
       <path d="m363.04,88.36c-4.35,-13.72 -13.6,-25.41 -26.02,-32.9l0.97,-1.58c12.8,7.72 22.34,19.78 26.82,33.92l-1.77,0.55l0,0.01z" fill="#FFFFFF" id="svg_128" opacity="0.2"/>
      </g>
     </g>
     <g id="svg_129">
      <ellipse cx="115.14" cy="221.29" fill="#407BFF" id="svg_130" rx="25.67" ry="25.67" transform="matrix(0.412037 -1.78917 1.81408 0.406378 -143.285 352.223)"/>
      <ellipse cx="115.14" cy="221.29" fill="#FFFFFF" id="svg_131" opacity="0.6" rx="25.67" ry="25.67" transform="matrix(0.412037 -1.78917 1.81408 0.406378 -143.285 352.223)"/>
     </g>
     <g id="svg_132"/>
     <g id="svg_135"/>
     <g id="svg_138">
      <ellipse cx="44.28" cy="150.42" fill="#407BFF" id="svg_139" rx="25.67" ry="25.67" transform="matrix(0.412037 -1.78917 1.81408 0.406378 -117.364 124.214)"/>
      <ellipse cx="44.28" cy="150.42" fill="#FFFFFF" id="svg_140" opacity="0.6" rx="25.67" ry="25.67" transform="matrix(0.412037 -1.78917 1.81408 0.406378 -117.364 124.214)"/>
     </g>
     <g id="svg_141">
      <ellipse cx="44.28" cy="221.29" fill="#407BFF" id="svg_142" rx="25.67" ry="25.67" transform="matrix(0.412037 -1.78917 1.81408 0.406378 -245.917 225.436)"/>
      <ellipse cx="44.28" cy="221.29" fill="#FFFFFF" id="svg_143" opacity="0.6" rx="25.67" ry="25.67" transform="matrix(0.412037 -1.78917 1.81408 0.406378 -245.917 225.436)"/>
     </g>
    </g>
   </g>
   <g id="Hand">
    <g id="svg_150">
     <path d="m427.3,422.71l-9.18,-9.49l-9.79,12.62c0,0 7.46,7.18 16.35,5.15l2.64,-8.29l-0.01,0.01l-0.01,0z" fill="#9F5B53" id="svg_151"/>
     <polygon fill="#9F5B53" id="svg_152" points="405.4833679199219,408.0067138671875 401.288818359375,421.24664306640625 408.3074645996094,425.839599609375 418.1075439453125,413.22576904296875 "/>
     <g id="svg_153">
      <path d="m280.37,408.73c3.32,-9.77 14.49,-13.93 23.27,-9.36l-10.16,-5.3c-7.75,-4.05 -11.52,-13.41 -8.01,-21.4c3.83,-8.8 14.37,-12.38 22.73,-8.03l-10.16,-5.29c-7.75,-4.05 -11.52,-13.41 -8.01,-21.42c3.83,-8.8 14.37,-12.38 22.73,-8.01l-48.55,-25.35c-7.26,-3.8 -11.08,-12.28 -8.44,-20.02c3.32,-9.77 14.47,-13.93 23.27,-9.36l102.25,53.37l-10.53,-43.02c-1.05,-4.28 -0.41,-8.62 1.5,-12.26c2.1,-4 5.71,-7.18 10.32,-8.61c8.85,-2.79 18.3,1.8 21.64,10.43l33.56,86.96c2.87,7.44 8.35,13.57 15.4,17.27l5.84,3.04c3.76,1.95 5.22,6.6 3.24,10.36l-40.86,77.99c-1.98,3.76 -6.61,5.2 -10.38,3.25l-14.35,-7.48c-5.42,-2.84 -11.52,-3.98 -17.62,-3.64c-14.69,0.82 -29.38,-2.33 -42.51,-9.19l-47.72,-24.9c-7.26,-3.8 -11.08,-12.28 -8.45,-20.02l0,-0.01z" fill="#407BFF" id="svg_154"/>
      <path d="m414.58,477.39c-1.6,0 -3.22,-0.38 -4.74,-1.15l-14.35,-7.48c-4.82,-2.52 -10.45,-3.67 -16.29,-3.35c-15.18,0.85 -30.35,-2.43 -43.83,-9.48l-47.72,-24.9c-8.48,-4.43 -12.65,-14.36 -9.66,-23.1c1.79,-5.29 5.77,-9.51 10.96,-11.56c0.7,-0.29 1.41,-0.53 2.13,-0.71c-8.23,-5.07 -11.73,-15.33 -7.94,-23.98c2.13,-4.88 6.09,-8.56 11.13,-10.32c0.46,-0.16 0.92,-0.29 1.38,-0.42c-8.25,-5.05 -11.73,-15.33 -7.94,-23.98c2.13,-4.88 6.09,-8.54 11.13,-10.31c0.42,-0.16 0.87,-0.29 1.3,-0.41l-37.09,-19.35c-8.48,-4.43 -12.65,-14.36 -9.66,-23.1c1.79,-5.29 5.8,-9.51 10.96,-11.56c5.19,-2.08 10.99,-1.8 15.9,0.77l97.25,50.76l-9.18,-37.54c-1.18,-4.75 -0.57,-9.73 1.7,-14.07c2.49,-4.75 6.69,-8.25 11.82,-9.85c10.09,-3.18 20.98,2.08 24.8,11.94l33.54,86.96c2.65,6.86 7.71,12.52 14.24,15.92l5.83,3.04c5.01,2.61 6.95,8.8 4.33,13.79l-40.86,78.01c-1.84,3.48 -5.41,5.48 -9.11,5.48l-0.01,-0.02l-0.02,-0.03zm-33.46,-17.17c5.96,0 11.7,1.38 16.76,4l14.35,7.48c1.21,0.63 2.59,0.77 3.9,0.36c1.31,-0.41 2.39,-1.31 3.02,-2.52l40.87,-78.01c1.31,-2.5 0.32,-5.59 -2.18,-6.9l-5.83,-3.04c-7.64,-3.98 -13.54,-10.6 -16.61,-18.61l-33.56,-86.96c-2.84,-7.37 -10.96,-11.27 -18.49,-8.91c-3.82,1.19 -6.95,3.81 -8.81,7.35c-1.69,3.23 -2.14,6.96 -1.28,10.5l10.53,43.02c0.23,0.97 -0.12,1.99 -0.9,2.62c-0.8,0.61 -1.88,0.71 -2.77,0.23l-102.26,-53.37c-3.58,-1.88 -7.82,-2.08 -11.63,-0.57c-3.83,1.53 -6.7,4.54 -8.03,8.47c-2.17,6.39 0.92,13.67 7.21,16.95l48.55,25.35c1.24,0.64 1.72,2.2 1.08,3.44c-0.64,1.25 -2.2,1.73 -3.44,1.09c-3.41,-1.76 -7.43,-2.05 -11.08,-0.79c-3.7,1.31 -6.57,3.98 -8.15,7.56c-2.9,6.64 0.1,14.62 6.85,18.13l10.17,5.3l0,0c1.24,0.64 1.72,2.2 1.08,3.44c-0.64,1.24 -2.2,1.73 -3.44,1.08l-0.02,0c-3.39,-1.76 -7.43,-2.04 -11.06,-0.77c-3.7,1.3 -6.57,3.98 -8.15,7.56c-2.9,6.64 0.12,14.59 6.87,18.12l10.14,5.3c0,0 0,0 0.02,0l0,0c1.24,0.67 1.74,2.2 1.08,3.45c-0.64,1.24 -2.2,1.72 -3.44,1.08l-0.02,-0.02c-3.6,-1.85 -7.82,-2.05 -11.63,-0.54c-3.83,1.53 -6.69,4.54 -8.03,8.47l0,0c-2.17,6.38 0.93,13.66 7.21,16.95l47.72,24.9c12.68,6.61 26.91,9.68 41.18,8.9c0.76,-0.06 1.49,-0.07 2.22,-0.07l0.01,0l-0.01,-0.02zm-100.75,-51.49l0.02,0l-0.02,0z" fill="#407BFF" id="svg_155"/>
      <path d="m316.39,408.57c-0.41,0 -0.8,-0.1 -1.19,-0.29l-12.73,-6.65c-1.27,-0.64 -1.74,-2.2 -1.09,-3.44c0.67,-1.25 2.2,-1.73 3.46,-1.09l12.73,6.65c1.27,0.67 1.74,2.2 1.09,3.45c-0.46,0.87 -1.34,1.36 -2.27,1.36l-0.01,0l0.01,0.01z" fill="#407BFF" id="svg_156"/>
      <path d="m320.96,373.84c-0.41,0 -0.82,-0.09 -1.19,-0.29l-12.73,-6.65c-1.27,-0.64 -1.74,-2.2 -1.09,-3.44c0.67,-1.24 2.2,-1.73 3.46,-1.08l12.73,6.65c1.27,0.64 1.74,2.2 1.09,3.44c-0.46,0.87 -1.34,1.36 -2.27,1.36l-0.01,0l0.01,0.01z" fill="#407BFF" id="svg_157"/>
      <path d="m325.51,339.11c-0.39,0 -0.8,-0.1 -1.18,-0.29l-12.75,-6.65c-1.24,-0.67 -1.72,-2.2 -1.08,-3.45c0.64,-1.24 2.2,-1.73 3.46,-1.08l12.73,6.65c1.27,0.64 1.74,2.2 1.08,3.44c-0.44,0.87 -1.33,1.38 -2.27,1.38l0.01,0z" fill="#407BFF" id="svg_158"/>
     </g>
     <path d="m414.58,477.39c-1.6,0 -3.22,-0.38 -4.74,-1.15l-14.35,-7.48c-4.82,-2.52 -10.45,-3.67 -16.29,-3.35c-15.18,0.85 -30.35,-2.43 -43.83,-9.48l-47.72,-24.9c-8.48,-4.43 -12.65,-14.36 -9.66,-23.1c1.79,-5.29 5.77,-9.51 10.96,-11.56c0.7,-0.29 1.41,-0.53 2.13,-0.71c-8.23,-5.07 -11.73,-15.33 -7.94,-23.98c2.13,-4.88 6.09,-8.56 11.13,-10.32c0.46,-0.16 0.92,-0.29 1.38,-0.42c-8.25,-5.05 -11.73,-15.33 -7.94,-23.98c2.13,-4.88 6.09,-8.54 11.13,-10.31c0.42,-0.16 0.87,-0.29 1.3,-0.41l-37.09,-19.35c-8.48,-4.43 -12.65,-14.36 -9.66,-23.1c1.79,-5.29 5.8,-9.51 10.96,-11.56c5.19,-2.08 10.99,-1.8 15.9,0.77l97.25,50.76l-9.18,-37.54c-1.18,-4.75 -0.57,-9.73 1.7,-14.07c2.49,-4.75 6.69,-8.25 11.82,-9.85c10.09,-3.18 20.98,2.08 24.8,11.94l33.54,86.96c2.65,6.86 7.71,12.52 14.24,15.92l5.83,3.04c5.01,2.61 6.95,8.8 4.33,13.79l-40.86,78.01c-1.84,3.48 -5.41,5.48 -9.11,5.48l-0.01,-0.02l-0.02,-0.03zm-33.46,-17.17c5.96,0 11.7,1.38 16.76,4l14.35,7.48c1.21,0.63 2.59,0.77 3.9,0.36c1.31,-0.41 2.39,-1.31 3.02,-2.52l40.87,-78.01c1.31,-2.5 0.32,-5.59 -2.18,-6.9l-5.83,-3.04c-7.64,-3.98 -13.54,-10.6 -16.61,-18.61l-33.56,-86.96c-2.84,-7.37 -10.96,-11.27 -18.49,-8.91c-3.82,1.19 -6.95,3.81 -8.81,7.35c-1.69,3.23 -2.14,6.96 -1.28,10.5l10.53,43.02c0.23,0.97 -0.12,1.99 -0.9,2.62c-0.8,0.61 -1.88,0.71 -2.77,0.23l-102.26,-53.37c-3.58,-1.88 -7.82,-2.08 -11.63,-0.57c-3.83,1.53 -6.7,4.54 -8.03,8.47c-2.17,6.39 0.92,13.67 7.21,16.95l48.55,25.35c1.24,0.64 1.72,2.2 1.08,3.44c-0.64,1.25 -2.2,1.73 -3.44,1.09c-3.41,-1.76 -7.43,-2.05 -11.08,-0.79c-3.7,1.31 -6.57,3.98 -8.15,7.56c-2.9,6.64 0.1,14.62 6.85,18.13l10.17,5.3l0,0c1.24,0.64 1.72,2.2 1.08,3.44c-0.64,1.24 -2.2,1.73 -3.44,1.08l-0.02,0c-3.39,-1.76 -7.43,-2.04 -11.06,-0.77c-3.7,1.3 -6.57,3.98 -8.15,7.56c-2.9,6.64 0.12,14.59 6.87,18.12l10.14,5.3c0,0 0,0 0.02,0l0,0c1.24,0.67 1.74,2.2 1.08,3.45c-0.64,1.24 -2.2,1.72 -3.44,1.08l-0.02,-0.02c-3.6,-1.85 -7.82,-2.05 -11.63,-0.54c-3.83,1.53 -6.69,4.54 -8.03,8.47l0,0c-2.17,6.38 0.93,13.66 7.21,16.95l47.72,24.9c12.68,6.61 26.91,9.68 41.18,8.9c0.76,-0.06 1.49,-0.07 2.22,-0.07l0.01,0l-0.01,-0.02zm-100.75,-51.49l0.02,0l-0.02,0z" id="svg_159" opacity="0.3"/>
    </g>
   </g>
  </g>
 </g>
</svg>