<?xml version="1.0"?>
<svg width="500" height="500" xmlns="http://www.w3.org/2000/svg" xmlns:svg="http://www.w3.org/2000/svg" enable-background="new 0 0 500 500" version="1.1" xml:space="preserve">
 <g class="layer">
  <title>Layer 1</title>
  <g display="none" id="Background_simple">
   <g display="inline" id="svg_61">
    <path d="m262.64,105.83c40.52,0.77 84.1,-28.09 122.55,-2.63c37.51,24.84 35.85,69.63 15.79,104.89c-29.19,51.29 -75.35,38.57 -120.83,60.68c-43.05,20.93 -62.21,66.92 -117.28,66.3c-36.02,-0.4 -100.71,-37.35 -94.49,-80.45c4.38,-30.39 45.1,-38.69 56.91,-67.21c17.29,-41.72 -19.22,-92.77 32.79,-114.85c48.67,-20.67 56.41,32.36 104.56,33.27z" fill="#407BFF" id="svg_62"/>
    <path d="m262.64,105.83c40.52,0.77 84.1,-28.09 122.55,-2.63c37.51,24.84 35.85,69.63 15.79,104.89c-29.19,51.29 -75.35,38.57 -120.83,60.68c-43.05,20.93 -62.21,66.92 -117.28,66.3c-36.02,-0.4 -100.71,-37.35 -94.49,-80.45c4.38,-30.39 45.1,-38.69 56.91,-67.21c17.29,-41.72 -19.22,-92.77 32.79,-114.85c48.67,-20.67 56.41,32.36 104.56,33.27z" fill="#FFFFFF" id="svg_63" opacity="0.9"/>
   </g>
  </g>
  <g id="Character">
   <g id="svg_65">
    <polygon fill="#9F5B53" id="svg_66" points="1115.41796875,313.5279846191406 1119.6700439453125,320.0249938964844 1125.9860229492188,318.7239990234375 1121.2210083007812,310.6399841308594 "/>
    <path d="m1127.47,257.82c0.9,1.09 1.65,2.06 2.42,3.12c0.76,1.04 1.51,2.08 2.24,3.14c1.46,2.11 2.85,4.28 4.15,6.51c1.29,2.24 2.56,4.51 3.66,6.9c0.59,1.17 1.09,2.41 1.63,3.62c0.48,1.25 0.98,2.48 1.39,3.79l0.32,0.97l0.16,0.49c0.09,0.29 0.18,0.6 0.24,0.89c0.25,1.16 0.28,2.22 0.22,3.17c-0.13,1.89 -0.58,3.42 -1.07,4.84c-1.01,2.82 -2.35,5.16 -3.74,7.42c-2.86,4.46 -6.08,8.34 -9.72,12.03l-4.33,-3.42c2.37,-4.13 4.71,-8.44 6.58,-12.64c0.94,-2.09 1.72,-4.23 2.17,-6.13c0.22,-0.94 0.31,-1.84 0.27,-2.42c-0.02,-0.28 -0.08,-0.47 -0.11,-0.5c-0.01,-0.02 -0.02,0 -0.02,0l-0.16,-0.38l-0.33,-0.76c-1.74,-4.09 -4.09,-8.15 -6.6,-12.11c-1.26,-1.98 -2.59,-3.93 -3.94,-5.88c-1.32,-1.93 -2.79,-3.9 -4.11,-5.67l8.68,-6.98z" fill="#9F5B53" id="svg_67"/>
    <g id="svg_68">
     <path d="m1125.03,252.9c6.89,1.58 14.79,20.35 14.79,20.35l-13.83,9.48c0,0 -5.24,-7.33 -9.14,-15.53c-4.08,-8.59 1.14,-15.91 8.18,-14.3z" fill="#407BFF" id="svg_69"/>
     <path d="m1125.03,252.9c6.89,1.58 14.79,20.35 14.79,20.35l-13.83,9.48c0,0 -5.24,-7.33 -9.14,-15.53c-4.08,-8.59 1.14,-15.91 8.18,-14.3z" fill="#FFFFFF" id="svg_70" opacity="0.8"/>
    </g>
    <g id="svg_71">
     <path d="m1120.1,264.87l6.54,17.41l-0.65,0.45c0,0 -2.83,-3.97 -5.89,-9.33l0,-8.53z" fill="#407BFF" id="svg_72"/>
     <path d="m1120.1,264.87l6.54,17.41l-0.65,0.45c0,0 -2.83,-3.97 -5.89,-9.33l0,-8.53z" fill="#FFFFFF" id="svg_73" opacity="0.6"/>
    </g>
    <polygon fill="#9F5B53" id="svg_74" points="1102.6380004882812,503.64404296875 1095.291015625,503.64404296875 1094.5599975585938,486.6319885253906 1101.906005859375,486.6319885253906 "/>
    <polygon fill="#9F5B53" id="svg_75" points="1146.7460327148438,503.64404296875 1139.4000244140625,503.64404296875 1135.70703125,486.6319885253906 1143.053955078125,486.6319885253906 "/>
    <g id="svg_76">
     <polygon fill="#8A4743" id="svg_77" points="1094.56103515625,486.635986328125 1094.93701171875,495.40496826171875 1102.2869873046875,495.40496826171875 1101.9110107421875,486.635986328125 "/>
     <polygon fill="#8A4743" id="svg_78" points="1143.0560302734375,486.635986328125 1135.70703125,486.635986328125 1137.614013671875,495.40496826171875 1144.9630126953125,495.40496826171875 "/>
    </g>
    <g id="svg_79">
     <path d="m1097.38,316.78c0,0 8.34,56.14 12.91,77.17c5.02,23.04 23.9,99.76 23.9,99.76l13.45,0c0,0 -12.45,-74.87 -15.31,-97.67c-3.1,-24.75 -9.6,-79.26 -9.6,-79.26l-25.35,0z" fill="#407BFF" id="svg_80"/>
     <path d="m1097.38,316.78c0,0 8.34,56.14 12.91,77.17c5.02,23.04 23.9,99.76 23.9,99.76l13.45,0c0,0 -12.45,-74.87 -15.31,-97.67c-3.1,-24.75 -9.6,-79.26 -9.6,-79.26l-25.35,0z" id="svg_81" opacity="0.5"/>
    </g>
    <path d="m1102.65,336.78c9.64,1.89 8.62,37.84 7.46,56.33c-2.78,-13.07 -6.85,-38.22 -9.63,-56.07c0.64,-0.32 1.36,-0.42 2.17,-0.26z" id="svg_82" opacity="0.4"/>
    <g id="svg_83">
     <path d="m1083.44,316.78c0,0 -1.01,54.92 -0.21,77.33c0.83,23.3 8.97,99.6 8.97,99.6l12.44,0c0,0 0.46,-74.94 1.01,-97.82c0.61,-24.95 3.62,-79.11 3.62,-79.11l-25.83,0z" fill="#407BFF" id="svg_84"/>
     <path d="m1083.44,316.78c0,0 -1.01,54.92 -0.21,77.33c0.83,23.3 8.97,99.6 8.97,99.6l12.44,0c0,0 0.46,-74.94 1.01,-97.82c0.61,-24.95 3.62,-79.11 3.62,-79.11l-25.83,0z" id="svg_85" opacity="0.5"/>
    </g>
    <path d="m1126.59,309.72l-5.37,0.92l4.77,8.08c0,0 3.74,-1.79 4.41,-5.29l-3.81,-3.71z" fill="#9F5B53" id="svg_86"/>
    <path d="m1091.1,225.6c0,0.59 -0.31,1.07 -0.7,1.07c-0.39,0 -0.7,-0.48 -0.7,-1.07c0,-0.59 0.31,-1.07 0.7,-1.07c0.39,0 0.7,0.48 0.7,1.07z" fill="#263238" id="svg_87"/>
    <path d="m1090.84,226.67c0,0 -1.35,3.42 -2.83,5.07c1.05,0.98 2.83,0.53 2.83,0.53l0,-5.6z" fill="#892B29" id="svg_88"/>
    <path d="m1093.2,222.32c-0.07,0 -0.14,-0.02 -0.2,-0.07c-1.26,-0.91 -2.46,-0.46 -2.48,-0.45c-0.17,0.07 -0.38,-0.02 -0.44,-0.2c-0.07,-0.18 0.02,-0.38 0.19,-0.45c0.07,-0.03 1.57,-0.59 3.13,0.54c0.16,0.11 0.2,0.33 0.08,0.48c-0.06,0.1 -0.17,0.15 -0.28,0.15z" fill="#263238" id="svg_89"/>
    <path d="m1110.23,232.43c-1.06,5.38 -2.11,15.22 1.65,18.81c0,0 -1.47,5.45 -11.46,5.45c-10.98,0 -5.24,-5.45 -5.24,-5.45c5.99,-1.43 5.83,-5.88 4.79,-10.05l10.26,-8.76z" fill="#9F5B53" id="svg_90"/>
    <path d="m1113.32,253.11c0.79,-1.73 1.65,-3.7 -0.14,-4.32c-1.97,-0.68 -12.77,-1.37 -16.49,-0.1s-2.67,4.78 -2.67,4.78l19.3,-0.36z" fill="#407BFF" id="svg_91"/>
    <path d="m1136.45,504.02c-0.75,0 -1.48,-0.11 -1.76,-0.48c-0.12,-0.16 -0.22,-0.43 0,-0.83c0.12,-0.21 0.3,-0.35 0.55,-0.4c1.08,-0.25 3.1,1.13 3.19,1.19c0.06,0.04 0.08,0.11 0.07,0.18c-0.01,0.06 -0.06,0.12 -0.13,0.13c-0.38,0.09 -1.16,0.21 -1.92,0.21zm-0.91,-1.4c-0.08,0 -0.15,0.01 -0.22,0.02c-0.15,0.04 -0.25,0.12 -0.32,0.24c-0.16,0.28 -0.06,0.4 -0.03,0.44c0.31,0.42 1.81,0.42 2.91,0.24c-0.63,-0.39 -1.68,-0.94 -2.34,-0.94z" fill="#407BFF" id="svg_92"/>
    <path d="m1138.33,503.82c-0.03,0 -0.06,-0.01 -0.08,-0.02c-0.76,-0.42 -2.23,-2.03 -2.08,-2.85c0.03,-0.14 0.14,-0.4 0.56,-0.45c0.26,-0.03 0.51,0.04 0.74,0.22c0.85,0.7 1.03,2.82 1.03,2.91c0.01,0.06 -0.02,0.12 -0.08,0.16c-0.02,0.02 -0.06,0.03 -0.09,0.03zm-1.48,-2.98c-0.03,0 -0.06,0 -0.08,0c-0.23,0.03 -0.25,0.14 -0.26,0.18c-0.09,0.49 0.85,1.7 1.61,2.27c-0.09,-0.61 -0.32,-1.85 -0.87,-2.3c-0.13,-0.1 -0.26,-0.15 -0.4,-0.15z" fill="#407BFF" id="svg_93"/>
    <path d="m1092.34,504.02c-0.94,0 -1.85,-0.13 -2.16,-0.55c-0.1,-0.15 -0.19,-0.4 0.02,-0.76c0.11,-0.21 0.3,-0.34 0.55,-0.41c1.22,-0.32 3.79,1.13 3.9,1.19c0.06,0.04 0.09,0.11 0.08,0.18c-0.01,0.07 -0.06,0.13 -0.14,0.14c-0.46,0.1 -1.37,0.21 -2.25,0.21zm-1.16,-1.42c-0.13,0 -0.24,0.01 -0.34,0.04c-0.16,0.04 -0.27,0.12 -0.34,0.24c-0.12,0.22 -0.08,0.32 -0.04,0.38c0.34,0.46 2.19,0.49 3.57,0.3c-0.68,-0.35 -2,-0.96 -2.85,-0.96z" fill="#407BFF" id="svg_94"/>
    <path d="m1094.56,503.82c-0.02,0 -0.05,-0.01 -0.07,-0.02c-0.89,-0.39 -2.64,-1.98 -2.51,-2.81c0.03,-0.2 0.17,-0.44 0.65,-0.49c0.35,-0.03 0.68,0.06 0.96,0.3c0.94,0.76 1.13,2.74 1.14,2.83c0.01,0.06 -0.02,0.12 -0.07,0.16c-0.03,0.02 -0.06,0.03 -0.1,0.03zm-1.79,-2.98c-0.04,0 -0.07,0 -0.11,0c-0.31,0.04 -0.33,0.16 -0.34,0.2c-0.08,0.5 1.12,1.75 2.02,2.29c-0.09,-0.58 -0.35,-1.76 -0.97,-2.27c-0.18,-0.15 -0.38,-0.22 -0.6,-0.22z" fill="#407BFF" id="svg_95"/>
    <path d="m1138.88,502.79l8.25,0c0.3,0 0.56,0.21 0.63,0.51l1.45,6.52c0.15,0.68 -0.39,1.32 -1.08,1.31c-2.88,-0.05 -4.28,-0.22 -7.91,-0.22c-2.23,0 -6.83,0.23 -9.92,0.23c-3.01,0 -3.48,-3.04 -2.22,-3.32c5.66,-1.24 7.79,-2.95 9.6,-4.58c0.33,-0.29 0.76,-0.45 1.2,-0.45z" fill="#263238" id="svg_96"/>
    <path d="m1095.34,502.79l8.02,0c0.3,0 0.56,0.21 0.63,0.51l1.45,6.52c0.15,0.68 -0.36,1.32 -1.06,1.31c-2.89,-0.05 -7.07,-0.22 -10.71,-0.22c-4.25,0 -7.93,0.24 -12.91,0.24c-3.02,0 -3.86,-3.05 -2.6,-3.33c5.75,-1.26 10.44,-1.39 15.41,-4.45c0.54,-0.34 1.14,-0.58 1.77,-0.58z" fill="#263238" id="svg_97"/>
    <path d="m1084.85,267.93c-2.91,4.3 -5.92,8.31 -9.16,12.29c-3.24,3.96 -6.65,7.81 -10.41,11.47l-1.44,1.37l-0.36,0.34l-0.26,0.23l-0.37,0.32c-0.49,0.39 -1.01,0.74 -1.51,1.01c-2.02,1.09 -3.83,1.37 -5.45,1.52c-3.24,0.25 -5.98,-0.18 -8.66,-0.71c-5.31,-1.15 -10.1,-2.93 -14.85,-5.22l1.83,-5.2c4.72,0.87 9.62,1.66 14.19,1.93c2.27,0.13 4.54,0.1 6.27,-0.26c0.85,-0.17 1.52,-0.49 1.66,-0.65c0.05,-0.03 0.04,-0.06 0.03,-0.06c-0.01,0 -0.02,0 -0.02,0c0,0 -0.02,0.02 0,0l0.07,-0.09l0.3,-0.32l1.18,-1.3c3.13,-3.57 6.16,-7.36 9.1,-11.25c2.95,-3.85 5.88,-7.86 8.7,-11.74l9.16,6.32z" fill="#9F5B53" id="svg_98"/>
    <path d="m1088.24,269.08c-0.13,0.16 -0.99,9.03 -7.76,16.82c-0.16,-3.52 -0.22,-6.68 -0.21,-9.51l7.97,-7.31z" fill="#BED3FC" id="svg_99"/>
    <path d="m1110.87,224.34c-0.45,7.28 -0.34,11.56 -4.02,15.3c-5.53,5.62 -14.51,2.28 -16.25,-4.98c-1.56,-6.54 -0.57,-17.34 6.56,-20.24c7.01,-2.85 14.15,2.65 13.71,9.92z" fill="#9F5B53" id="svg_100"/>
    <path d="m1096.73,219.5c0.05,8.56 2.83,19.06 11.11,18.33c5.5,-0.48 9.68,-10.52 10.25,-14.76c0.87,-6.5 0.97,-7.74 -2.66,-8.49c1.6,-0.87 2.18,-4.99 -1.56,-5.98c-5.2,-1.37 -14.98,-2.71 -11.92,-5.88c-6.14,1.11 -7.68,3.57 -6.56,6.56c-3.59,-0.28 -5.8,-2.16 -5.69,-5c-5.95,2.39 -9.81,16.02 7.03,15.22z" fill="#263238" id="svg_101"/>
    <path d="m1101.04,226.46c-0.4,1.87 -1.55,3.5 -2.78,4.5c-1.85,1.5 -3.34,0.16 -3.29,-2.01c0.04,-1.95 1.06,-5.08 3.14,-5.74c2.06,-0.65 3.39,1.12 2.93,3.25z" fill="#9F5B53" id="svg_102"/>
    <path d="m1121.05,216.07c-1.04,-0.57 -3.4,-1.88 -6.64,-0.48c0,0 4.12,-5.63 6.64,0.48z" fill="#263238" id="svg_103"/>
    <path d="m1132.04,488.75c-0.06,0 1.39,5.17 1.39,5.17l15.14,0l-0.28,-4.61l-16.25,-0.56z" fill="#407BFF" id="svg_104"/>
    <path d="m1089.81,488.75c-0.06,0 0.7,5.17 0.7,5.17l15.14,0l0.41,-4.61l-16.25,-0.56z" fill="#407BFF" id="svg_105"/>
    <g id="svg_106">
     <path d="m1094.79,484.77c-0.06,0 -0.12,-0.05 -0.12,-0.11c-2.2,-21.12 -7.37,-72.22 -8.02,-90.55c-0.67,-18.71 -0.07,-60.69 0.14,-73.11c0,-0.07 0.06,-0.11 0.12,-0.12c0.07,0 0.13,0.06 0.13,0.12c-0.2,12.42 -0.81,54.4 -0.14,73.1c0.65,18.33 5.82,69.41 8.01,90.53c0.01,0.07 -0.04,0.13 -0.11,0.14c0,0 0,0 -0.01,0z" fill="#407BFF" id="svg_107"/>
     <path d="m1094.79,484.77c-0.06,0 -0.12,-0.05 -0.12,-0.11c-2.2,-21.12 -7.37,-72.22 -8.02,-90.55c-0.67,-18.71 -0.07,-60.69 0.14,-73.11c0,-0.07 0.06,-0.11 0.12,-0.12c0.07,0 0.13,0.06 0.13,0.12c-0.2,12.42 -0.81,54.4 -0.14,73.1c0.65,18.33 5.82,69.41 8.01,90.53c0.01,0.07 -0.04,0.13 -0.11,0.14c0,0 0,0 -0.01,0z" id="svg_108" opacity="0.3"/>
    </g>
    <g id="svg_109">
     <path d="m1091.63,259.24c0.97,6.95 -12.74,24.72 -12.74,24.72l-13.77,-9.48c0,0 3.82,-9.79 10.25,-16.21c7.34,-7.33 15.2,-6.61 16.26,0.97z" fill="#407BFF" id="svg_110"/>
     <path d="m1091.63,259.24c0.97,6.95 -12.74,24.72 -12.74,24.72l-13.77,-9.48c0,0 3.82,-9.79 10.25,-16.21c7.34,-7.33 15.2,-6.61 16.26,0.97z" fill="#FFFFFF" id="svg_111" opacity="0.8"/>
    </g>
    <g id="svg_112">
     <path d="m1083.88,253.28c0,0 -7.82,8.83 -0.44,63.5c11.84,0 33.53,0 39.3,0c0.27,-6.04 -3.52,-35.46 2.29,-63.88c0,0 -6.73,-1.35 -13.15,-1.66c-5.02,-0.24 -12.29,-0.4 -16.7,0c-5.82,0.53 -11.3,2.04 -11.3,2.04z" fill="#407BFF" id="svg_113"/>
     <path d="m1083.88,253.28c0,0 -7.82,8.83 -0.44,63.5c11.84,0 33.53,0 39.3,0c0.27,-6.04 -3.52,-35.46 2.29,-63.88c0,0 -6.73,-1.35 -13.15,-1.66c-5.02,-0.24 -12.29,-0.4 -16.7,0c-5.82,0.53 -11.3,2.04 -11.3,2.04z" fill="#FFFFFF" id="svg_114" opacity="0.8"/>
    </g>
   </g>
  </g>
  <g id="Buttons" transform="matrix(1 0 0 1 0 0) matrix(6.12323e-17 1 -1 6.12323e-17 393.56 1.09875)">
   <g id="svg_115">
    <g id="svg_116">
     <ellipse cx="97.81" cy="131.37" fill="#407BFF" id="svg_117" rx="25.67" ry="25.67" transform="matrix(0.412037 -1.78917 1.81408 0.406378 -14.7326 251.001)"/>
     <ellipse cx="97.81" cy="131.37" fill="#FFFFFF" id="svg_118" opacity="0.2" rx="25.67" ry="25.67" transform="matrix(0.412037 -1.78917 1.81408 0.406378 -14.7326 251.001)"/>
    </g>
    <g id="svg_119">
     <g id="svg_120">
      <path d="m258.93,190.44c-25.37,-2 -46.69,-18.79 -54.3,-42.75l1.77,-0.55c7.39,23.25 28.07,39.52 52.68,41.46l-0.15,1.83z" fill="#407BFF" id="svg_121"/>
      <path d="m258.93,190.44c-25.37,-2 -46.69,-18.79 -54.3,-42.75l1.77,-0.55c7.39,23.25 28.07,39.52 52.68,41.46l-0.15,1.83z" fill="#FFFFFF" id="svg_122" opacity="0.2"/>
     </g>
     <g id="svg_123">
      <path d="m206.14,112.41l-1.77,-0.51c5.92,-19.56 21.23,-34.86 40.94,-40.95c12.74,-3.93 26.12,-3.76 38.71,0.51l-0.6,1.74c-12.22,-4.15 -25.21,-4.33 -37.58,-0.5c-19.1,5.91 -33.95,20.75 -39.72,39.7z" fill="#407BFF" id="svg_124"/>
      <path d="m206.14,112.41l-1.77,-0.51c5.92,-19.56 21.23,-34.86 40.94,-40.95c12.74,-3.93 26.12,-3.76 38.71,0.51l-0.6,1.74c-12.22,-4.15 -25.21,-4.33 -37.58,-0.5c-19.1,5.91 -33.95,20.75 -39.72,39.7z" fill="#FFFFFF" id="svg_125" opacity="0.2"/>
     </g>
     <g id="svg_126">
      <path d="m321.34,111.63c-4.35,-13.72 -13.6,-25.41 -26.02,-32.9l0.97,-1.58c12.8,7.72 22.34,19.78 26.82,33.92l-1.77,0.55z" fill="#407BFF" id="svg_127"/>
      <path d="m321.34,111.63c-4.35,-13.72 -13.6,-25.41 -26.02,-32.9l0.97,-1.58c12.8,7.72 22.34,19.78 26.82,33.92l-1.77,0.55z" fill="#FFFFFF" id="svg_128" opacity="0.2"/>
     </g>
    </g>
    <g id="svg_129">
     <ellipse cx="97.81" cy="202.24" fill="#407BFF" id="svg_130" rx="25.67" ry="25.67" transform="matrix(0.412037 -1.78917 1.81408 0.406378 -143.285 352.223)"/>
     <ellipse cx="97.81" cy="202.24" fill="#FFFFFF" id="svg_131" opacity="0.6" rx="25.67" ry="25.67" transform="matrix(0.412037 -1.78917 1.81408 0.406378 -143.285 352.223)"/>
    </g>
    <g id="svg_132"/>
    <g id="svg_135"/>
    <g id="svg_138">
     <ellipse cx="26.95" cy="131.37" fill="#407BFF" id="svg_139" rx="25.67" ry="25.67" transform="matrix(0.412037 -1.78917 1.81408 0.406378 -117.364 124.214)"/>
     <ellipse cx="26.95" cy="131.37" fill="#FFFFFF" id="svg_140" opacity="0.6" rx="25.67" ry="25.67" transform="matrix(0.412037 -1.78917 1.81408 0.406378 -117.364 124.214)"/>
    </g>
    <g id="svg_141">
     <ellipse cx="26.95" cy="202.24" fill="#407BFF" id="svg_142" rx="25.67" ry="25.67" transform="matrix(0.412037 -1.78917 1.81408 0.406378 -245.917 225.436)"/>
     <ellipse cx="26.95" cy="202.24" fill="#FFFFFF" id="svg_143" opacity="0.6" rx="25.67" ry="25.67" transform="matrix(0.412037 -1.78917 1.81408 0.406378 -245.917 225.436)"/>
    </g>
   </g>
  </g>
  <g id="Hand">
   <g id="svg_150">
    <path d="m405.12,382.12l-8.27,-8.55l-8.82,11.37c0,0 6.72,6.47 14.72,4.64l2.38,-7.47z" fill="#9F5B53" id="svg_151"/>
    <polygon fill="#9F5B53" id="svg_152" points="385.47817516326904,368.8696241378784 381.70107555389404,380.8002882003784 388.0212049484253,384.93911266326904 396.84597301483154,373.5725965499878 "/>
    <g id="svg_153">
     <path d="m272.82,369.52c2.99,-8.8 13.05,-12.55 20.95,-8.43l-9.15,-4.78c-6.98,-3.65 -10.37,-12.08 -7.21,-19.28c3.45,-7.93 12.94,-11.16 20.47,-7.24l-9.15,-4.77c-6.98,-3.65 -10.37,-12.08 -7.21,-19.3c3.45,-7.93 12.94,-11.16 20.47,-7.22l-43.72,-22.84c-6.54,-3.42 -9.98,-11.07 -7.6,-18.04c2.99,-8.8 13.03,-12.55 20.95,-8.43l92.07,48.09l-9.48,-38.77c-0.95,-3.86 -0.37,-7.77 1.35,-11.05c1.89,-3.6 5.14,-6.47 9.29,-7.76c7.97,-2.51 16.48,1.62 19.49,9.4l30.22,78.36c2.58,6.7 7.52,12.23 13.87,15.56l5.26,2.74c3.39,1.76 4.7,5.95 2.92,9.34l-36.79,70.28c-1.78,3.39 -5.95,4.69 -9.35,2.93l-12.92,-6.74c-4.88,-2.56 -10.37,-3.59 -15.87,-3.28c-13.23,0.74 -26.46,-2.1 -38.28,-8.28l-42.97,-22.44c-6.54,-3.42 -9.98,-11.07 -7.61,-18.04z" fill="#407BFF" id="svg_154"/>
     <path d="m393.67,431.39c-1.44,0 -2.9,-0.34 -4.27,-1.04l-12.92,-6.74c-4.34,-2.27 -9.41,-3.31 -14.67,-3.02c-13.67,0.77 -27.33,-2.19 -39.47,-8.54l-42.97,-22.44c-7.64,-3.99 -11.39,-12.94 -8.7,-20.82c1.61,-4.77 5.2,-8.57 9.87,-10.42c0.63,-0.26 1.27,-0.48 1.92,-0.64c-7.41,-4.57 -10.56,-13.81 -7.15,-21.61c1.92,-4.4 5.48,-7.71 10.02,-9.3c0.41,-0.14 0.83,-0.26 1.24,-0.38c-7.43,-4.55 -10.56,-13.81 -7.15,-21.61c1.92,-4.4 5.48,-7.7 10.02,-9.29c0.38,-0.14 0.78,-0.26 1.17,-0.37l-33.4,-17.44c-7.64,-3.99 -11.39,-12.94 -8.7,-20.82c1.61,-4.77 5.22,-8.57 9.87,-10.42c4.67,-1.87 9.9,-1.62 14.32,0.69l87.57,45.74l-8.27,-33.83c-1.06,-4.28 -0.51,-8.77 1.53,-12.68c2.24,-4.28 6.02,-7.43 10.64,-8.88c9.09,-2.87 18.89,1.87 22.33,10.76l30.2,78.36c2.39,6.18 6.94,11.28 12.82,14.35l5.25,2.74c4.51,2.35 6.26,7.93 3.9,12.43l-36.79,70.3c-1.66,3.14 -4.87,4.94 -8.2,4.94zm-30.13,-15.47c5.37,0 10.54,1.24 15.09,3.6l12.92,6.74c1.09,0.57 2.33,0.69 3.51,0.32c1.18,-0.37 2.15,-1.18 2.72,-2.27l36.8,-70.3c1.18,-2.25 0.29,-5.04 -1.96,-6.22l-5.25,-2.74c-6.88,-3.59 -12.19,-9.55 -14.96,-16.77l-30.22,-78.36c-2.56,-6.64 -9.87,-10.16 -16.65,-8.03c-3.44,1.07 -6.26,3.43 -7.93,6.62c-1.52,2.91 -1.93,6.27 -1.15,9.46l9.48,38.77c0.21,0.87 -0.11,1.79 -0.81,2.36c-0.72,0.55 -1.69,0.64 -2.49,0.21l-92.08,-48.09c-3.22,-1.69 -7.04,-1.87 -10.47,-0.51c-3.45,1.38 -6.03,4.09 -7.23,7.63c-1.95,5.76 0.83,12.32 6.49,15.27l43.72,22.84c1.12,0.58 1.55,1.98 0.97,3.1c-0.58,1.13 -1.98,1.56 -3.1,0.98c-3.07,-1.59 -6.69,-1.85 -9.98,-0.71c-3.33,1.18 -5.92,3.59 -7.34,6.81c-2.61,5.98 0.09,13.17 6.17,16.34l9.16,4.78l0,0c1.12,0.58 1.55,1.98 0.97,3.1c-0.58,1.12 -1.98,1.56 -3.1,0.97l-0.02,0c-3.05,-1.59 -6.69,-1.84 -9.96,-0.69c-3.33,1.17 -5.92,3.59 -7.34,6.81c-2.61,5.98 0.11,13.15 6.19,16.33l9.13,4.78c0,0 0,0 0.02,0l0,0c1.12,0.6 1.57,1.98 0.97,3.11c-0.58,1.12 -1.98,1.55 -3.1,0.97l-0.02,-0.02c-3.24,-1.67 -7.04,-1.85 -10.47,-0.49c-3.45,1.38 -6.02,4.09 -7.23,7.63l0,0c-1.95,5.75 0.84,12.31 6.49,15.27l42.97,22.44c11.42,5.96 24.23,8.72 37.08,8.02c0.68,-0.05 1.34,-0.06 2,-0.06zm-90.72,-46.4l0.02,0l-0.02,0z" fill="#407BFF" id="svg_155"/>
     <path d="m305.25,369.38c-0.37,0 -0.72,-0.09 -1.07,-0.26l-11.46,-5.99c-1.14,-0.58 -1.57,-1.98 -0.98,-3.1c0.6,-1.13 1.98,-1.56 3.12,-0.98l11.46,5.99c1.14,0.6 1.57,1.98 0.98,3.11c-0.41,0.78 -1.21,1.23 -2.04,1.23z" fill="#407BFF" id="svg_156"/>
     <path d="m309.37,338.08c-0.37,0 -0.74,-0.08 -1.07,-0.26l-11.46,-5.99c-1.14,-0.58 -1.57,-1.98 -0.98,-3.1c0.6,-1.12 1.98,-1.56 3.12,-0.97l11.46,5.99c1.14,0.58 1.57,1.98 0.98,3.1c-0.41,0.78 -1.21,1.23 -2.04,1.23z" fill="#407BFF" id="svg_157"/>
     <path d="m313.46,306.79c-0.35,0 -0.72,-0.09 -1.06,-0.26l-11.48,-5.99c-1.12,-0.6 -1.55,-1.98 -0.97,-3.11c0.58,-1.12 1.98,-1.56 3.12,-0.97l11.46,5.99c1.14,0.58 1.57,1.98 0.97,3.1c-0.4,0.78 -1.2,1.24 -2.04,1.24z" fill="#407BFF" id="svg_158"/>
    </g>
    <path d="m393.67,431.39c-1.44,0 -2.9,-0.34 -4.27,-1.04l-12.92,-6.74c-4.34,-2.27 -9.41,-3.31 -14.67,-3.02c-13.67,0.77 -27.33,-2.19 -39.47,-8.54l-42.97,-22.44c-7.64,-3.99 -11.39,-12.94 -8.7,-20.82c1.61,-4.77 5.2,-8.57 9.87,-10.42c0.63,-0.26 1.27,-0.48 1.92,-0.64c-7.41,-4.57 -10.56,-13.81 -7.15,-21.61c1.92,-4.4 5.48,-7.71 10.02,-9.3c0.41,-0.14 0.83,-0.26 1.24,-0.38c-7.43,-4.55 -10.56,-13.81 -7.15,-21.61c1.92,-4.4 5.48,-7.7 10.02,-9.29c0.38,-0.14 0.78,-0.26 1.17,-0.37l-33.4,-17.44c-7.64,-3.99 -11.39,-12.94 -8.7,-20.82c1.61,-4.77 5.22,-8.57 9.87,-10.42c4.67,-1.87 9.9,-1.62 14.32,0.69l87.57,45.74l-8.27,-33.83c-1.06,-4.28 -0.51,-8.77 1.53,-12.68c2.24,-4.28 6.02,-7.43 10.64,-8.88c9.09,-2.87 18.89,1.87 22.33,10.76l30.2,78.36c2.39,6.18 6.94,11.28 12.82,14.35l5.25,2.74c4.51,2.35 6.26,7.93 3.9,12.43l-36.79,70.3c-1.66,3.14 -4.87,4.94 -8.2,4.94zm-30.13,-15.47c5.37,0 10.54,1.24 15.09,3.6l12.92,6.74c1.09,0.57 2.33,0.69 3.51,0.32c1.18,-0.37 2.15,-1.18 2.72,-2.27l36.8,-70.3c1.18,-2.25 0.29,-5.04 -1.96,-6.22l-5.25,-2.74c-6.88,-3.59 -12.19,-9.55 -14.96,-16.77l-30.22,-78.36c-2.56,-6.64 -9.87,-10.16 -16.65,-8.03c-3.44,1.07 -6.26,3.43 -7.93,6.62c-1.52,2.91 -1.93,6.27 -1.15,9.46l9.48,38.77c0.21,0.87 -0.11,1.79 -0.81,2.36c-0.72,0.55 -1.69,0.64 -2.49,0.21l-92.08,-48.09c-3.22,-1.69 -7.04,-1.87 -10.47,-0.51c-3.45,1.38 -6.03,4.09 -7.23,7.63c-1.95,5.76 0.83,12.32 6.49,15.27l43.72,22.84c1.12,0.58 1.55,1.98 0.97,3.1c-0.58,1.13 -1.98,1.56 -3.1,0.98c-3.07,-1.59 -6.69,-1.85 -9.98,-0.71c-3.33,1.18 -5.92,3.59 -7.34,6.81c-2.61,5.98 0.09,13.17 6.17,16.34l9.16,4.78l0,0c1.12,0.58 1.55,1.98 0.97,3.1c-0.58,1.12 -1.98,1.56 -3.1,0.97l-0.02,0c-3.05,-1.59 -6.69,-1.84 -9.96,-0.69c-3.33,1.17 -5.92,3.59 -7.34,6.81c-2.61,5.98 0.11,13.15 6.19,16.33l9.13,4.78c0,0 0,0 0.02,0l0,0c1.12,0.6 1.57,1.98 0.97,3.11c-0.58,1.12 -1.98,1.55 -3.1,0.97l-0.02,-0.02c-3.24,-1.67 -7.04,-1.85 -10.47,-0.49c-3.45,1.38 -6.02,4.09 -7.23,7.63l0,0c-1.95,5.75 0.84,12.31 6.49,15.27l42.97,22.44c11.42,5.96 24.23,8.72 37.08,8.02c0.68,-0.05 1.34,-0.06 2,-0.06zm-90.72,-46.4l0.02,0l-0.02,0z" id="svg_159" opacity="0.3"/>
   </g>
  </g>
 </g>
</svg>